<svg width="501" height="80" viewBox="0 0 501 80" fill="none" xmlns="http://www.w3.org/2000/svg">
<g clip-path="url(#clip0_1_167)">
<path d="M365.526 78.9474V17.3684H335.526V0H416.579V17.3684H386.579V78.9474H365.526V78.9474Z" fill="#15151E"/>
<path d="M439.424 0L457.319 58.0016C457.599 58.7747 457.878 59.3914 458.158 59.8437C458.438 60.3043 458.898 60.5263 459.523 60.5263C460.222 60.5263 460.732 60.3125 461.053 59.8931C461.373 59.4737 461.669 58.8076 461.949 57.8947L479.951 0H500.79L481.209 61.5789C479.383 67.2615 476.859 71.7516 473.627 75.0493C470.395 78.347 465.839 80 459.942 80C453.553 80 448.766 78.454 445.576 75.3701C442.385 72.2862 439.803 67.6891 437.837 61.5789L417.632 0H439.424V0Z" fill="#15151E"/>
<path d="M79.6793 44.9753L44.6628 78.9474H0L55.5674 23.7993C76.2253 3.35526 86.1842 0 121.406 0H260.535L230.337 29.5641H125.387C99.0707 29.5641 93.4704 31.5954 79.671 44.9753H79.6793ZM225.831 34.2845H126.02C99.5148 34.2845 95.3701 36.3158 83.347 48.3306L52.7303 78.9474H94.1447L103.997 69.0954C110.51 62.5822 113.413 61.9655 126.538 61.9655H198.15L225.831 34.2845ZM236.628 78.9474L315.789 0H266.62L187.673 78.9474H236.637H236.628Z" fill="#E10600"/>
<path d="M269.877 78.9475C267.385 78.9475 265.312 78.1169 263.668 76.4475C262.015 74.7781 261.192 72.7304 261.192 70.2962C261.192 67.8619 262.015 65.8142 263.651 64.1613C265.288 62.5083 267.352 61.6777 269.844 61.6777C272.335 61.6777 274.391 62.5083 276.02 64.1777C277.648 65.8471 278.462 67.8948 278.462 70.329C278.462 72.7633 277.656 74.811 276.036 76.4639C274.416 78.1169 272.368 78.9475 269.877 78.9475ZM269.827 63.0346C267.788 63.0346 266.077 63.7419 264.696 65.1564C263.322 66.5708 262.632 68.2814 262.632 70.2962C262.632 72.311 263.322 74.0215 264.696 75.436C266.069 76.8504 267.78 77.5577 269.827 77.5577C271.875 77.5577 273.577 76.8587 274.959 75.4524C276.332 74.0462 277.023 72.3356 277.023 70.3126C277.023 68.2896 276.332 66.5708 274.959 65.1564C273.585 63.7419 271.875 63.0346 269.827 63.0346ZM268.141 71.7353V75.1235H266.242V65.5429H269.844C271.085 65.5429 272.023 65.7731 272.648 66.2419C273.273 66.7024 273.585 67.4014 273.585 68.3307C273.585 69.26 273.462 69.9508 273.207 70.4031C272.952 70.8554 272.525 71.2172 271.916 71.4968L273.717 75.1317H271.719L270.082 71.7435H268.15L268.141 71.7353ZM268.109 67.0231V70.2468H270.041C270.633 70.2468 271.061 70.1235 271.316 69.8685C271.579 69.6136 271.71 69.2024 271.71 68.635C271.71 67.5577 271.036 67.0231 269.679 67.0231H268.109V67.0231Z" fill="#E10600"/>
</g>
<defs>
<clipPath id="clip0_1_167">
<rect width="500.789" height="80" fill="white"/>
</clipPath>
</defs>
</svg>
