<?xml version="1.0" encoding="UTF-8"?>
<svg width="117px" height="30px" viewBox="0 0 117 30" version="1.1" xmlns="http://www.w3.org/2000/svg" xmlns:xlink="http://www.w3.org/1999/xlink">
    <title>Fill 1</title>
    <g id="Page-1" stroke="none" stroke-width="1" fill="none" fill-rule="evenodd">
        <g id="Masthead---F1-Academy" transform="translate(-189.000000, -1622.000000)" fill="#88898D">
            <g id="Group-19-Copy" transform="translate(189.000000, 1610.000000)">
                <path d="M78.1698647,22.9134958 C77.9385886,22.6769694 77.6512317,22.5586151 77.3080684,22.5586151 C76.9648137,22.5586151 76.6777312,22.6769694 76.4463636,22.9134958 C76.2150875,23.1501134 76.0994495,23.4370635 76.0994495,23.7743462 C76.0994495,24.1115376 76.2150875,24.3984877 76.4463636,24.6351053 C76.6777312,24.8717229 76.9648137,24.9899861 77.3080684,24.9899861 C77.6512317,24.9899861 77.9385886,24.8726347 78.1698647,24.6377496 C78.4012324,24.4028645 78.5167789,24.1159143 78.5167789,23.7769904 C78.5167789,23.4379753 78.4012324,23.1501134 78.1698647,22.9134958 L78.1698647,22.9134958 Z M77.310813,22.3308421 C77.7292691,22.3308421 78.0753599,22.470442 78.348811,22.7492768 C78.6222621,23.0282941 78.7590333,23.3716859 78.7590333,23.7795435 C78.7590333,24.1874923 78.6231769,24.5300635 78.3515556,24.8072571 C78.0799342,25.0844507 77.7348497,25.2230476 77.3163937,25.2230476 C76.8978461,25.2230476 76.550017,25.0836301 76.2729065,24.8046128 C75.9957045,24.5255956 75.8571035,24.1822037 75.8571035,23.7743462 C75.8571035,23.3663974 75.9948812,23.0239174 76.270162,22.7466326 C76.5455342,22.4695301 76.8923569,22.3308421 77.310813,22.3308421 L77.310813,22.3308421 Z M53.1443797,17.7417376 C48.6908506,17.7417376 47.9940947,18.0812998 45.9741796,20.0946008 L40.8298412,25.221771 L47.7887091,25.221771 L49.4446937,23.5711924 C50.538498,22.4811103 51.0271237,22.3772538 53.232389,22.3772538 L65.2649683,22.3772538 L69.9160152,17.7417376 L53.1443797,17.7417376 Z M45.3575652,19.5327367 C47.6759071,17.2912068 48.6167471,16.9515534 53.0386221,16.9515534 L70.6735177,16.9515534 L75.7473206,12 L52.369129,12 C46.4498143,12 44.7761729,12.5618642 41.3055674,15.9858437 L31.9684344,25.221771 L39.4733811,25.221771 L45.3575652,19.5327367 Z M77.0190648,23.7663221 L77.3439309,23.7663221 C77.4431015,23.7663221 77.5146434,23.7450767 77.5586481,23.7027682 C77.6027442,23.6603685 77.6247923,23.591526 77.6247923,23.4961495 C77.6247923,23.316156 77.5108925,23.2260681 77.2833673,23.2260681 L77.0190648,23.2260681 L77.0190648,23.7663221 Z M76.705177,22.9770498 L77.310813,22.9770498 C77.5201325,22.9770498 77.6770307,23.0158933 77.7816905,23.0935805 C77.8863502,23.1713588 77.9385886,23.2878896 77.9385886,23.4432639 C77.9385886,23.5986382 77.9175469,23.7142571 77.8752804,23.7902118 C77.833014,23.8661665 77.7604658,23.9270762 77.6577272,23.9729408 L77.9607282,24.5821285 L77.6247923,24.5821285 L77.34942,24.0153405 L77.0245539,24.0153405 L77.0245539,24.5821285 L76.705177,24.5821285 L76.705177,22.9770498 Z M63.5033176,25.221771 L76.7690341,12 L85.0315747,12 L71.7305447,25.221771 L63.5033176,25.221771 Z M50.5159925,39.8532175 L59.4509538,39.8532175 C62.9412288,39.8532175 63.6990972,38.2629102 63.6990972,35.2017444 C63.6990972,34.6770825 63.6757684,34.1955498 63.6205109,33.7561432 C63.6096241,33.6695202 63.5974565,33.5846296 63.5840081,33.5012892 C63.5833677,33.4972772 63.5827273,33.4932651 63.5820869,33.4892531 C63.5696448,33.4129337 63.5558305,33.3382555 63.5410098,33.2647628 C63.5389056,33.2541856 63.5369844,33.2434261 63.5347887,33.2330314 C63.5210659,33.1661949 63.5057877,33.1011821 63.4899607,33.0367163 C63.4863927,33.0224007 63.4832822,33.007538 63.4796228,32.9933136 C63.4603193,32.9181796 63.439735,32.8445956 63.4174124,32.7728353 C62.9596175,31.3016119 61.8517243,30.5303936 59.4509538,30.5303936 L50.5159925,30.5303936 L50.5159925,32.7711028 L50.5159925,33.7561432 L50.5159925,39.8532175 Z M78.5558434,34.2277371 L78.5558434,36.1956294 L66.5501609,36.1956294 C66.7097122,38.6405866 67.7867746,39.8929729 70.8182483,39.8929729 L80.7098767,39.8929729 L80.7098767,39.3310175 L80.7098767,36.1956294 L80.7098767,34.2277371 L80.7098767,33.7561432 L80.7098767,32.7711028 L80.7098767,31.3383583 L80.7098767,30.4906382 L70.8182483,30.4906382 C68.4558103,30.4906382 67.2804921,31.2634978 66.801198,32.771194 C66.778235,32.8435014 66.7570103,32.9176325 66.7371579,32.9933136 C66.7343219,33.0044378 66.7316688,33.016018 66.7288327,33.0272334 C66.7129142,33.0900578 66.6979105,33.1540677 66.6839132,33.2191717 C66.6800708,33.2371346 66.6764113,33.255371 66.6727519,33.2735162 C66.6600354,33.335976 66.6483252,33.3993476 66.6374384,33.4638133 C66.6346938,33.4801349 66.6317663,33.4962741 66.6292047,33.5126869 C66.6163966,33.5923801 66.604595,33.6732586 66.5943486,33.7561432 C66.5755025,33.9082349 66.5606818,34.0651593 66.5501609,34.2277371 L78.5558434,34.2277371 Z M24.6455445,42.0000091 L22.6159319,42.0000091 L21.1279152,42.0000091 L20.1642952,42.0000091 C18.0614939,42.0000091 16.1391027,40.815827 15.1987201,38.941214 L14.8783368,38.3026656 L13.8611976,36.354651 L11.447985,31.5242786 C11.0291629,30.6894152 10.5106214,30.172595 9.53327851,30.172595 C8.57597103,30.172595 8.05752096,30.6894152 7.63860745,31.5242786 L7.01055738,32.7711028 L6.99683451,32.7983663 L5.20545093,36.354651 L5.20545093,36.354651 L4.20825563,38.3026656 L4.20825563,38.3026656 L2.35347238,42.0000091 L5.18696197e-13,42.0000091 L4.30038184,33.4277964 L4.62982223,32.7711028 L5.48466561,31.0670915 C6.36219747,29.2979762 7.41922448,28.2245803 9.53327851,28.2245803 C11.6673679,28.2245803 12.704451,29.2979762 13.6019268,31.0670915 L14.4567702,32.7711028 L14.7489758,33.3536653 L16.1424877,36.1312548 C16.1241905,35.8323599 16.1141271,35.5234349 16.1141271,35.2017444 C16.1141271,34.6907598 16.1379134,34.2098654 16.1847541,33.7561432 L16.1847541,33.7558696 C16.5513377,30.2025027 18.4067614,28.4034796 22.6159319,28.4034796 L33.3657886,28.4034796 L33.3657886,30.5303936 L22.6159319,30.5303936 C20.2067446,30.5303936 19.0997664,31.2884817 18.6448989,32.7711028 C18.6225764,32.8436838 18.6020836,32.9181796 18.582963,32.9943166 C18.5806759,33.0033436 18.5786632,33.0127354 18.5763761,33.0217624 C18.5593597,33.0909697 18.5433497,33.1613622 18.5288034,33.2333961 C18.5270652,33.2415113 18.5256014,33.2498089 18.5239547,33.2579241 C18.508951,33.3332405 18.4950452,33.4098335 18.4825116,33.4882501 C18.4818712,33.4922621 18.4812308,33.4963653 18.4805904,33.5003773 C18.467325,33.5839913 18.4553403,33.6691554 18.4446365,33.7561432 C18.3906599,34.1946379 18.3677884,34.6758971 18.3677884,35.2017444 C18.3677884,38.2827879 19.1456008,39.8532175 22.6159319,39.8532175 L29.6568625,39.8532175 C31.0616271,39.8532175 32.3458134,39.0621215 32.9740464,37.8098263 L35.1723589,33.4277964 L35.5017993,32.7711028 L36.3566426,31.0670915 C37.234083,29.2979762 38.2912015,28.2245803 40.4052555,28.2245803 C42.539345,28.2245803 43.5763366,29.2979762 44.4739038,31.0670915 L45.3287472,32.7711028 L45.6580961,33.4277964 L48.3221628,38.7381514 L48.3221628,33.7561432 L48.3221628,32.7711028 L48.3221628,28.4034796 L59.4509538,28.4034796 C62.4024689,28.4034796 64.1966885,29.2956054 65.1322224,31.0499493 C66.0662925,29.2906816 67.8617929,28.4034796 70.8182483,28.4034796 L80.7098767,28.4034796 L81.5681965,28.4034796 L82.8239307,28.4034796 C83.6416309,28.4034796 84.0006212,28.8209113 84.3396676,29.2184654 L87.3238431,32.7711028 L87.3239346,32.7711028 L88.1513322,33.7561432 L90.5283165,36.5858888 C90.6708513,36.7555787 90.9325922,36.7557611 91.0754016,36.5863447 L93.4600706,33.7561432 L94.2900299,32.7711028 L97.2359643,29.2748159 C98.2493526,28.1904782 99.9906935,27.9999988 101.065011,29.024521 L101.33215,29.2792838 L102.099807,30.0579791 L103.036713,31.0944461 L105.66382,33.9989611 L105.664826,33.9990523 C105.676536,34.0178358 105.688612,34.0356163 105.700506,34.0539439 L105.884026,34.2618392 C105.947426,34.3351496 106.013296,34.4099189 106.080446,34.4859648 C106.118321,34.5288204 106.156745,34.5722231 106.195352,34.6159905 C106.502928,34.8594467 106.88177,34.9954904 107.380917,34.9954904 C107.398208,34.9954904 107.41495,34.994761 107.432058,34.9943963 C107.449074,34.994761 107.465907,34.9954904 107.483198,34.9954904 C107.982345,34.9954904 108.361187,34.8594467 108.668671,34.6159905 C108.70737,34.5722231 108.745794,34.5288204 108.783669,34.4859648 C108.850819,34.4099189 108.916689,34.3351496 108.980089,34.2618392 L109.163609,34.0539439 C109.175503,34.0356163 109.187579,34.0178358 109.199289,33.9990523 L109.200204,33.9989611 L111.827402,31.0944461 L112.764308,30.0579791 L112.815174,30.00637 L114.277392,28.3577974 L117,28.3577974 L116.11461,29.353962 L114.692554,30.9262151 L114.683131,30.9486459 L112.008635,33.9577468 L110.423186,35.7106317 L110.421448,35.7108141 C110.401046,35.7435485 110.379913,35.7745504 110.359237,35.8064641 L110.039129,36.1691866 C109.928431,36.2971151 109.813616,36.4274143 109.696331,36.5600843 C109.63037,36.6348536 109.563311,36.710626 109.495886,36.7869454 C109.21658,37.0081532 108.902966,37.1779343 108.544068,37.2903618 L108.544068,42.0000091 L106.320048,42.0000091 L106.320048,37.2903618 C105.961057,37.1779343 105.647535,37.0081532 105.368138,36.7869454 C105.300713,36.710626 105.233745,36.6348536 105.167692,36.5600843 C105.050499,36.4274143 104.935684,36.2971151 104.824986,36.1691866 L104.504878,35.8064641 C104.484202,35.7745504 104.463069,35.7435485 104.442667,35.7108141 L104.440929,35.7106317 L102.85548,33.9577468 L100.180984,30.9486459 L100.180984,31.2779045 L100.180984,31.7868831 L100.180984,33.5009244 L100.180984,34.4859648 L100.180984,42.0000091 L98.0270421,42.0000091 L98.0270421,34.4859648 L98.0270421,33.5009244 L98.0270421,31.5186253 L92.2734997,38.4036042 C91.9091117,38.8313395 91.3745602,39.077896 90.8115565,39.077896 C90.2485529,39.077896 89.7140013,38.8313395 89.3496133,38.4036042 L82.8638185,30.7888037 L82.8638185,32.7711028 L82.8638185,33.7561432 L82.8638185,40.9052767 C82.8638185,41.5099053 82.3720823,42.0000091 81.7654399,42.0000091 L79.2242387,42.0000091 L77.7096911,42.0000091 L70.8182483,42.0000091 C67.8640801,42.0000091 66.06922,41.1140837 65.1345095,39.3575515 C64.196963,41.1190075 62.3977116,42.0000091 59.4509538,42.0000091 L55.2362942,42.0000091 L52.4176164,42.0000091 L50.5934809,42.0000091 C48.7620266,42.0000091 47.0877448,40.9686482 46.2686724,39.3360325 L45.7503138,38.3026656 L44.7330831,36.354651 L42.3198705,31.5242786 C41.90114,30.6894152 41.3825984,30.172595 40.4052555,30.172595 C39.4479481,30.172595 38.9294065,30.6894152 38.5105845,31.5242786 L37.8825344,32.7711028 L37.8688115,32.7983663 L36.0773365,36.354651 L35.0801412,38.3026656 L35.0801412,38.3026656 L34.5932537,39.2732992 C33.7548778,40.9443938 32.0411656,42.0000091 30.1666215,42.0000091 L28.4621494,42.0000091 L25.1483505,42.0000091 L24.6455445,42.0000091 Z" id="Fill-1"></path>
            </g>
        </g>
    </g>
</svg>