<svg xmlns="http://www.w3.org/2000/svg" xmlns:xlink="http://www.w3.org/1999/xlink" width="157" height="157" viewBox="0 0 157 157">
    <defs>
        <path id="a" d="M69.339.462c38.018 0 68.838 31.674 68.838 70.746 0 39.071-30.82 70.745-68.838 70.745-38.019 0-68.84-31.674-68.84-70.745C.5 32.136 31.32.462 69.34.462z"/>
        <path id="c" d="M0 204.599h119.345V.089H0z"/>
        <path id="e" d="M13.75.08v42.783H.186V.081h13.562z"/>
    </defs>
    <g fill="none" fill-rule="evenodd">
        <g transform="translate(18.323 14.685)">
            <mask id="b" fill="#fff">
                <use xlink:href="#a"/>
            </mask>
            <use fill="#CAED73" xlink:href="#a"/>
            <g mask="url(#b)">
                <g transform="translate(19.507 8.284)">
                    <path fill="#FABB86" d="M62.188 34.328L26.138 65.9c-1.236 1.083-3.219.178-3.607-1.424a26.263 26.263 0 0 0-6.935-12.367l-5.194-5.2c-2.38-2.394-6.238-2.536-8.618.045-2.38 2.367-2.379 6.227.001 8.62l1.015.987a12.397 12.397 0 0 1 3.623 8.751v16.105c0 5.05 1.943 9.894 5.495 13.465l3.707 3.78v48.548h41.727V88.789l3.923-5.494.913-48.967z"/>
                    <path fill="#E3A574" d="M13.814 94.792l22.752 14.229h20.853V93.027h-40.09z"/>
                    <mask id="d" fill="#fff">
                        <use xlink:href="#c"/>
                    </mask>
                    <path fill="#F5F5F5" d="M13.096 153.092h46.94v-44.071h-46.94z" mask="url(#d)"/>
                    <path fill="#DDD" d="M36.566 153.092h23.47v-44.071h-23.47z" mask="url(#d)"/>
                    <path fill="#0198D0" d="M9.56 155.13h54.01v-42.032H9.56z" mask="url(#d)"/>
                    <path fill="#0083B4" d="M36.566 155.13H63.57v-42.032H36.566z" mask="url(#d)"/>
                    <path fill="#FABB86" d="M61.346 50.567L75.571 38.11a5.866 5.866 0 0 0 .565-8.245 5.791 5.791 0 0 0-8.202-.569L53.71 41.753l7.637 8.814z" mask="url(#d)"/>
                    <path fill="#9F9F9F" d="M58.437 96.254H17.319a4.93 4.93 0 0 1-3.505-1.46 4.983 4.983 0 0 1-1.452-3.524V5.073c0-2.752 2.22-4.984 4.957-4.984h41.118c2.738 0 4.957 2.232 4.957 4.984V91.27c0 2.753-2.22 4.984-4.957 4.984" mask="url(#d)"/>
                    <path fill="#FFF" d="M39.045 3.974a1.17 1.17 0 0 1-1.167 1.172 1.17 1.17 0 0 1-1.166-1.172A1.17 1.17 0 0 1 37.878 2.8a1.17 1.17 0 0 1 1.167 1.173" mask="url(#d)"/>
                    <path fill="#F5F5F5" d="M16.007 85.394H59.75V7.21H16.007z" mask="url(#d)"/>
                    <ellipse cx="27.623" cy="44.719" fill="#0198D0" mask="url(#d)" rx="2.673" ry="2.683"/>
                    <ellipse cx="38.316" cy="44.719" fill="#0198D0" mask="url(#d)" rx="2.673" ry="2.683"/>
                    <ellipse cx="49.009" cy="44.719" fill="#0198D0" mask="url(#d)" rx="2.673" ry="2.683"/>
                </g>
                <g opacity=".1" transform="translate(69.152 56.69)">
                    <mask id="f" fill="#fff">
                        <use xlink:href="#e"/>
                    </mask>
                    <path fill="#000" d="M23.446 16.06c-1.115-1.955-3.13-3.047-5.144-3.009l3.564-2.055c2.785-1.606 3.747-5.178 2.15-7.978A5.796 5.796 0 0 0 16.08.856L3.674 8.012C.686 9.735-.708 13.51.8 16.28c1.098 2.018 3.307 3.052 5.593 2.876L3.96 20.559c-2.841 1.639-4.104 5.338-2.594 8.107 1.101 2.018 3.252 3.086 5.451 2.96l-1.245.717c-2.443 1.41-3.35 4.903-1.832 7.668 1.576 2.87 4.942 4.014 7.467 2.558L21.5 36.634c2.276-1.313 2.827-4.647 1.23-7.447-1.116-1.956-2.984-3.132-4.786-3.217l3.6-2.076c2.647-1.527 3.5-5.035 1.902-7.835" mask="url(#f)"/>
                </g>
                <path fill="#FABB86" d="M94.238 58.203a5.796 5.796 0 0 0-7.935-2.162l-12.407 7.155c-2.988 1.724-4.382 5.499-2.874 8.27 1.566 2.876 5.387 3.757 8.476 1.975l12.59-7.26c2.785-1.606 3.747-5.178 2.15-7.978z"/>
                <path fill="#FCD7B7" d="M78.431 64.753a2.051 2.051 0 0 0-2.807-.765l-1.464.844c-2.026 1.169-2.86 3.92-1.786 5.887l.027.047a4.265 4.265 0 0 0 5.842 1.611l1.63-.94a2.074 2.074 0 0 0 .761-2.823l-2.203-3.86z"/>
                <path fill="#FABB86" d="M93.668 71.244c-1.597-2.8-5.04-3.831-7.687-2.304l-11.798 6.804c-2.842 1.639-4.105 5.338-2.594 8.107 1.568 2.875 5.267 3.827 8.204 2.133l11.972-6.905c2.649-1.527 3.5-5.035 1.903-7.835z"/>
                <path fill="#FCD7B7" d="M78.998 77.139a2.051 2.051 0 0 0-2.808-.765l-1.463.844c-2.027 1.169-2.861 3.92-1.786 5.886l.026.048a4.265 4.265 0 0 0 5.842 1.611l1.631-.94A2.074 2.074 0 0 0 81.2 81l-2.202-3.861z"/>
                <path fill="#FABB86" d="M92.952 84.372c-1.598-2.8-4.738-4.006-7.015-2.693l-10.143 5.85c-2.443 1.409-3.35 4.902-1.831 7.667 1.575 2.87 4.941 4.014 7.466 2.558l10.293-5.936c2.276-1.312 2.827-4.646 1.23-7.446"/>
                <path fill="#FCD7B7" d="M81.372 88.484a2.051 2.051 0 0 0-2.808-.765l-1.463.844c-2.027 1.169-2.86 3.92-1.786 5.886l.027.048a4.265 4.265 0 0 0 5.841 1.611l1.63-.94a2.074 2.074 0 0 0 .762-2.823l-2.203-3.861z"/>
                <path fill="#000" d="M123.906 154.753l-3.32 1.221-1.392-3.83-2.459.905-2.136-5.871a16.381 16.381 0 0 1-.976-4.997 83.072 83.072 0 0 0-4.949-25.331l-4.153-11.415c-1.08-2.966-4.45-4.73-7.42-3.7-3.083 1.07-4.68 4.468-3.565 7.533l-1.115-3.063c-1.103-3.031-4.441-4.59-7.456-3.48-3.015 1.108-4.565 4.465-3.462 7.496l-.558-1.532c-1.103-3.031-4.441-4.59-7.456-3.48-3.015 1.108-4.565 4.465-3.462 7.496L60.339 86.08c-1.079-2.965-4.45-4.73-7.42-3.7-3.082 1.07-4.68 4.469-3.564 7.534l16.936 46.546-7.965-8.053c-2.216-2.24-6.012-2.423-8.28-.237a5.867 5.867 0 0 0-.1 8.342l17.591 17.785a25.055 25.055 0 0 0 8.25 5.54 6.354 6.354 0 0 1 3.543 3.704l1.047 2.88-5.267 1.937 1.394 3.829-3.32 1.22 14.363 39.475 50.723-18.656-14.364-39.474z" opacity=".1"/>
                <path fill="#FABB86" d="M71.913 138.623l-13.004-13.147c-2.215-2.24-6.011-2.422-8.28-.237a5.867 5.867 0 0 0-.1 8.342l17.591 17.785a25.054 25.054 0 0 0 8.25 5.54 6.354 6.354 0 0 1 3.543 3.704l2.247 6.174 12.255-4.507-22.502-23.654z"/>
                <path fill="#E3A574" d="M58.658 125.239l12.828 20.028-4.072-11.192-8.505-8.599a5.933 5.933 0 0 0-.251-.237"/>
                <path fill="#FCD7B7" d="M50.57 128.416a2.168 2.168 0 0 0-.009 3.055l2.822 2.852a2.05 2.05 0 0 0 2.91.008 2.26 2.26 0 0 0 .008-3.184l-2.693-2.723a2.14 2.14 0 0 0-3.038-.008"/>
                <path fill="#FABB86" d="M97.684 98.803c-3.083 1.07-4.68 4.468-3.565 7.534l-1.114-3.064c-1.103-3.031-4.442-4.59-7.457-3.48-3.015 1.108-4.565 4.465-3.462 7.496l-.557-1.532c-1.103-3.031-4.442-4.59-7.457-3.48-3.015 1.108-4.565 4.464-3.462 7.496l-9.687-26.624c-1.08-2.966-4.45-4.73-7.42-3.699-3.083 1.07-4.68 4.468-3.565 7.533l21.673 59.564 21.893 19.239-13.135 4.83 4.31 11.846 39.167-14.406-8.664-23.81a16.389 16.389 0 0 1-.976-4.997 83.075 83.075 0 0 0-4.949-25.33l-4.153-11.416c-1.08-2.966-4.45-4.73-7.42-3.7"/>
                <path fill="#FCD7B7" d="M58.828 87.928a2.071 2.071 0 0 0 1.226-2.653l-.58-1.592c-.802-2.206-3.358-3.499-5.468-2.767l-.051.019c-2.224.802-3.38 3.284-2.568 5.516l.645 1.775a2.054 2.054 0 0 0 2.64 1.231l4.156-1.529z"/>
            </g>
        </g>
        <path fill="#2E9600" d="M151.692 78.253c0 42.924-33.858 77.72-75.625 77.72S.44 121.178.44 78.254C.44 35.33 34.3.533 76.067.533s75.625 34.797 75.625 77.72zm-6.05 0c0-39.49-31.15-71.502-69.575-71.502-38.426 0-69.575 32.013-69.575 71.502 0 39.49 31.149 71.504 69.575 71.504 38.425 0 69.575-32.014 69.575-71.504z"/>
    </g>
</svg>
