<svg id="Layer_1" data-name="Layer 1" xmlns="http://www.w3.org/2000/svg" viewBox="0 0 67 67"><defs><style>.cls-1{fill:#96b2dd;}</style></defs><title>mobile_icon</title><path class="cls-1" d="M40.16,11.35H26.84A4.83,4.83,0,0,0,22,16.18V50.82a4.83,4.83,0,0,0,4.83,4.83H40.16A4.84,4.84,0,0,0,45,50.82V16.18A4.84,4.84,0,0,0,40.16,11.35ZM44,50.82a3.83,3.83,0,0,1-3.83,3.83H26.84A3.83,3.83,0,0,1,23,50.82V47.5H44Zm0-4.32H23V21.88H44Zm0-25.62H23V16.18a3.83,3.83,0,0,1,3.83-3.83H40.16A3.83,3.83,0,0,1,44,16.18Zm-10.49,32a2,2,0,1,0-2-2A2,2,0,0,0,33.5,52.88Zm2-36.79h-4a.5.5,0,0,0,0,1h4a.5.5,0,0,0,0-1Zm-2-14.9A32.31,32.31,0,1,0,65.81,33.5,32.35,32.35,0,0,0,33.5,1.19Zm0,63.62A31.31,31.31,0,1,1,64.81,33.5,31.35,31.35,0,0,1,33.5,64.81Z"/></svg>