<?xml version="1.0" encoding="utf-8"?>
<!-- Generator: Adobe Illustrator 22.1.0, SVG Export Plug-In . SVG Version: 6.00 Build 0)  -->
<svg version="1.1" id="Layer_1" xmlns="http://www.w3.org/2000/svg" xmlns:xlink="http://www.w3.org/1999/xlink" x="0px" y="0px"
	 viewBox="0 0 588.4 360" style="enable-background:new 0 0 588.4 360;" xml:space="preserve">
<style type="text/css">
	.st0{filter:url(#filter-3);}
	.st1{fill:#FCFCFC;}
	.st2{fill:url(#path-2_3_);fill-opacity:6.000000e-02;}
	.st3{opacity:0.98;fill:#FFFFFF;stroke:#FAFAFA;stroke-width:4;enable-background:new    ;}
	.st4{filter:url(#filter-5);}
	.st5{fill:#F2F2F2;}
	.st6{fill:url(#path-7_2_);fill-opacity:0.1;}
	.st7{fill:#FBFBFB;}
	.st8{fill:url(#path-9_2_);fill-opacity:8.000001e-02;}
	.st9{fill:#F9F7F7;}
	.st10{fill:url(#path-11_2_);fill-opacity:8.000001e-02;}
	.st11{fill:#F6F6F6;}
	.st12{filter:url(#Adobe_OpacityMaskFilter);}
	.st13{fill:#FFFFFF;}
	.st14{mask:url(#mask-13_1_);fill:#9CBBFF;}
	.st15{filter:url(#Adobe_OpacityMaskFilter_1_);}
	.st16{mask:url(#mask-13_2_);fill:#CEDDFF;}
	.st17{filter:url(#Adobe_OpacityMaskFilter_2_);}
	.st18{mask:url(#mask-13_3_);fill:#6C99FF;}
	.st19{filter:url(#Adobe_OpacityMaskFilter_3_);}
	.st20{mask:url(#mask-13_4_);fill:#CEDDFF;}
	.st21{filter:url(#Adobe_OpacityMaskFilter_4_);}
	.st22{mask:url(#mask-13_5_);fill:#FFFFFF;}
	.st23{filter:url(#Adobe_OpacityMaskFilter_5_);}
	.st24{mask:url(#mask-13_6_);}
	.st25{fill:#F2F4F5;}
	.st26{filter:url(#Adobe_OpacityMaskFilter_6_);}
	.st27{mask:url(#mask-13_7_);}
	.st28{filter:url(#Adobe_OpacityMaskFilter_7_);}
	.st29{mask:url(#mask-13_8_);}
	.st30{filter:url(#Adobe_OpacityMaskFilter_8_);}
	.st31{mask:url(#mask-13_9_);}
	.st32{filter:url(#Adobe_OpacityMaskFilter_9_);}
	.st33{mask:url(#mask-13_10_);}
	.st34{fill:#91F2ED;}
	.st35{fill:#C8F8F6;}
	.st36{fill:#5AECE4;}
	.st37{fill:#D8DFE0;}
	.st38{filter:url(#filter-14);}
	.st39{fill:#002F34;}
	.st40{fill:#23E5DB;}
</style>
<filter  filterUnits="objectBoundingBox" height="427.3%" id="filter-5" width="102.3%" x="-1.1%" y="-81.8%">
	<feOffset  dx="0" dy="3" in="SourceAlpha" result="shadowOffsetOuter1"></feOffset>
	<feGaussianBlur  in="shadowOffsetOuter1" result="shadowBlurOuter1" stdDeviation="1.5"></feGaussianBlur>
	<feColorMatrix  in="shadowBlurOuter1" type="matrix" values="0 0 0 0 0   0 0 0 0 0   0 0 0 0 0  0 0 0 0.24 0"></feColorMatrix>
</filter>
<filter  filterUnits="objectBoundingBox" height="172.8%" id="filter-3" width="150.7%" x="-36.3%" y="-20.7%">
	<feOffset  dx="-51" dy="51" in="SourceAlpha" result="shadowOffsetOuter1"></feOffset>
	<feGaussianBlur  in="shadowOffsetOuter1" result="shadowBlurOuter1" stdDeviation="31"></feGaussianBlur>
	<feColorMatrix  in="shadowBlurOuter1" type="matrix" values="0 0 0 0 0   0 0 0 0 0   0 0 0 0 0  0 0 0 0.04 0"></feColorMatrix>
</filter>
<filter  filterUnits="objectBoundingBox" height="354.2%" id="filter-14" width="139.1%" x="-19.6%" y="-127.1%">
	<feOffset  dx="0" dy="2" in="SourceAlpha" result="shadowOffsetOuter1"></feOffset>
	<feGaussianBlur  in="shadowOffsetOuter1" result="shadowBlurOuter1" stdDeviation="16"></feGaussianBlur>
	
		<feColorMatrix  in="shadowBlurOuter1" result="shadowMatrixOuter1" type="matrix" values="0 0 0 0 0   0 0 0 0 0   0 0 0 0 0  0 0 0 0.135680726 0">
		</feColorMatrix>
	<feMerge>
		<feMergeNode  in="shadowMatrixOuter1"></feMergeNode>
		<feMergeNode  in="SourceGraphic"></feMergeNode>
	</feMerge>
</filter>
<title>15&quot; Macbook Pro 2 Copy</title>
<desc>Created with Sketch.</desc>
<g id="Final_eng">
	<g id="Vas_Packages_Home_hover-Copy" transform="translate(-646.000000, -658.000000)">
		<g id="_x31_5_x22_-Macbook-Pro-2-Copy" transform="translate(690.000000, 668.000000)">
			<g id="_x31_5_x22_-Macbook-Pro">
				<g transform="translate(13.746201, 0.000000)">
					<g id="back-frame">
						<g class="st0">
							<path id="path-2_3_" d="M22,0h428.2c6.8,0,9.3,0.7,11.8,2s4.4,3.3,5.8,5.8c1.3,2.5,2,5,2,11.8v286.2c0,6.8-0.7,9.3-2,11.8
								c-1.3,2.5-3.3,4.4-5.8,5.8s-5,2-11.8,2H22c-6.8,0-9.3-0.7-11.8-2s-4.4-3.3-5.8-5.8c-1.3-2.5-2-5-2-11.8V19.6
								c0-6.8,0.7-9.3,2-11.8C5.7,5.3,7.7,3.4,10.2,2S15.1,0,22,0z"/>
						</g>
						<g>
							<path id="path-2_1_" class="st1" d="M22,0h428.2c6.8,0,9.3,0.7,11.8,2s4.4,3.3,5.8,5.8c1.3,2.5,2,5,2,11.8v286.2
								c0,6.8-0.7,9.3-2,11.8c-1.3,2.5-3.3,4.4-5.8,5.8s-5,2-11.8,2H22c-6.8,0-9.3-0.7-11.8-2s-4.4-3.3-5.8-5.8c-1.3-2.5-2-5-2-11.8
								V19.6c0-6.8,0.7-9.3,2-11.8C5.7,5.3,7.7,3.4,10.2,2S15.1,0,22,0z"/>
						</g>
						<g>
							
								<linearGradient id="path-2_3_" gradientUnits="userSpaceOnUse" x1="183.9323" y1="238.1147" x2="182.9323" y2="238.1147" gradientTransform="matrix(467.3708 0 0 -325.3641 -85494.8594 77636.6641)">
								<stop  offset="0" style="stop-color:#FFFFFF;stop-opacity:0.5"/>
								<stop  offset="0.9669" style="stop-color:#FFFFFF;stop-opacity:0.5"/>
								<stop  offset="1" style="stop-color:#000000;stop-opacity:0.5"/>
							</linearGradient>
							<path id="path-2_2_" class="st2" d="M22,0h428.2c6.8,0,9.3,0.7,11.8,2s4.4,3.3,5.8,5.8c1.3,2.5,2,5,2,11.8v286.2
								c0,6.8-0.7,9.3-2,11.8c-1.3,2.5-3.3,4.4-5.8,5.8s-5,2-11.8,2H22c-6.8,0-9.3-0.7-11.8-2s-4.4-3.3-5.8-5.8c-1.3-2.5-2-5-2-11.8
								V19.6c0-6.8,0.7-9.3,2-11.8C5.7,5.3,7.7,3.4,10.2,2S15.1,0,22,0z"/>
						</g>
					</g>
					<path id="front-frame" class="st3" d="M450.9,0.7H21.2c-6.1,0-8.4,0.7-10.6,1.9C8.2,3.9,6.3,5.8,5,8.2
						c-1.2,2.2-1.9,4.4-1.9,10.6v289.8c0,2.9,0.4,3.9,0.9,4.9c0.6,1.2,1.6,2.1,2.8,2.8c1,0.6,2.1,0.9,4.9,0.9h448.6
						c2.9,0,3.9-0.4,4.9-0.9c1.2-0.6,2.1-1.6,2.8-2.8c0.6-1,0.9-2.1,0.9-4.9V18.8c0-6.1-0.7-8.4-1.9-10.6c-1.3-2.4-3.2-4.3-5.6-5.6
						C459.3,1.5,457.1,0.7,450.9,0.7z"/>
					<g id="bottom" transform="translate(0.000000, 314.976909)">
						<g id="shade">
							<g class="st4">
								<path id="path-4_1_" d="M-27.8,13.1h530.3c0.5,0,0.9,0.4,0.9,0.9c0,0.4-0.3,0.8-0.7,0.9l-8.9,1.8c-0.2,0-0.5,0.1-0.7,0.1
									H-15.8c-0.2,0-0.4,0-0.6,0L-27.9,15c-0.5-0.1-0.8-0.5-0.8-1.1C-28.6,13.5-28.2,13.1-27.8,13.1L-27.8,13.1z"/>
							</g>
						</g>
						<g>
							<g>
								<path id="path-7" class="st5" d="M-51.7,10.1h575.5c-10.9,4.5-21.8,6.7-32.7,6.7H-19.6C-29,16.8-39.7,14.6-51.7,10.1z"/>
							</g>
							<g>
								
									<linearGradient id="path-7_2_" gradientUnits="userSpaceOnUse" x1="183.5501" y1="-47.22" x2="183.5501" y2="-48.22" gradientTransform="matrix(575.5076 0 0 -6.7211 -105398.4453 -307.2905)">
									<stop  offset="0" style="stop-color:#FFFFFF;stop-opacity:0.5"/>
									<stop  offset="1" style="stop-color:#000000;stop-opacity:0.5"/>
								</linearGradient>
								<path id="path-7_1_" class="st6" d="M-51.7,10.1h575.5c-10.9,4.5-21.8,6.7-32.7,6.7H-19.6C-29,16.8-39.7,14.6-51.7,10.1z"/>
							</g>
						</g>
						<g id="edge">
							<g>
								<polygon id="path-9" class="st7" points="-51.4,0 523.5,0 523.5,10.1 -51.4,10.1 								"/>
							</g>
							<g>
								
									<linearGradient id="path-9_2_" gradientUnits="userSpaceOnUse" x1="184.0496" y1="-57.639" x2="183.0496" y2="-57.639" gradientTransform="matrix(574.8967 0 0 -10.0817 -105285.9922 -576.0584)">
									<stop  offset="0" style="stop-color:#000000;stop-opacity:0.5"/>
									<stop  offset="2.053998e-02" style="stop-color:#F9F9F9;stop-opacity:0.5"/>
									<stop  offset="0.9827" style="stop-color:#FFFFFF;stop-opacity:0.5"/>
									<stop  offset="1" style="stop-color:#000000;stop-opacity:0.5"/>
								</linearGradient>
								<polygon id="path-9_1_" class="st8" points="-51.4,0 523.5,0 523.5,10.1 -51.4,10.1 								"/>
							</g>
						</g>
					</g>
					<g id="handle">
						<g>
							<path id="path-11" class="st9" d="M189,315h94.1c0,4-3.3,7.3-7.3,7.3h-79.4C192.3,322.3,189,319,189,315z"/>
						</g>
						<g>
							
								<linearGradient id="path-11_2_" gradientUnits="userSpaceOnUse" x1="181.4451" y1="264.7771" x2="180.4451" y2="264.7771" gradientTransform="matrix(94.0851 0 0 -7.3322 -16788.1758 2260.0293)">
								<stop  offset="0" style="stop-color:#000000;stop-opacity:0.5"/>
								<stop  offset="8.058544e-02" style="stop-color:#E9E9E9;stop-opacity:0.5"/>
								<stop  offset="0.9225" style="stop-color:#FFFFFF;stop-opacity:0.5"/>
								<stop  offset="1" style="stop-color:#000000;stop-opacity:0.5"/>
							</linearGradient>
							<path id="path-11_1_" class="st10" d="M189,315h94.1c0,4-3.3,7.3-7.3,7.3h-79.4C192.3,322.3,189,319,189,315z"/>
						</g>
					</g>
					<g id="screen" transform="translate(67.814590, 22.607460)">
						<g id="ad-page" transform="translate(0.000000, -0.611012)">
							<g id="Group-4" transform="translate(0.000000, 20.774423)">
								<g id="Rectangle">
									<rect id="path-12_1_" x="-51.7" y="0" class="st11" width="439.9" height="254.2"/>
								</g>
								<defs>
									<filter id="Adobe_OpacityMaskFilter" filterUnits="userSpaceOnUse" x="-0.4" y="13.1" width="337.2" height="51.9">
										<feColorMatrix  type="matrix" values="1 0 0 0 0  0 1 0 0 0  0 0 1 0 0  0 0 0 1 0"/>
									</filter>
								</defs>
								<mask maskUnits="userSpaceOnUse" x="-0.4" y="13.1" width="337.2" height="51.9" id="mask-13_1_">
									<g class="st12">
										<rect id="path-12_2_" x="-51.7" y="0" class="st13" width="439.9" height="254.2"/>
									</g>
								</mask>
								<path id="Rectangle_1_" class="st14" d="M3.6,13.1h329.2c2.2,0,4,1.8,4,4v43.9c0,2.2-1.8,4-4,4H3.6c-2.2,0-4-1.8-4-4V17.1
									C-0.4,14.9,1.4,13.1,3.6,13.1z"/>
								<defs>
									<filter id="Adobe_OpacityMaskFilter_1_" filterUnits="userSpaceOnUse" x="79.7" y="22.9" width="91.6" height="3.7">
										<feColorMatrix  type="matrix" values="1 0 0 0 0  0 1 0 0 0  0 0 1 0 0  0 0 0 1 0"/>
									</filter>
								</defs>
								<mask maskUnits="userSpaceOnUse" x="79.7" y="22.9" width="91.6" height="3.7" id="mask-13_2_">
									<g class="st15">
										<rect id="path-12_3_" x="-51.7" y="0" class="st13" width="439.9" height="254.2"/>
									</g>
								</mask>
								<path id="Rectangle_2_" class="st16" d="M81.5,22.9h88c1,0,1.8,0.8,1.8,1.8v0c0,1-0.8,1.8-1.8,1.8h-88c-1,0-1.8-0.8-1.8-1.8
									v0C79.7,23.7,80.5,22.9,81.5,22.9z"/>
								<defs>
									<filter id="Adobe_OpacityMaskFilter_2_" filterUnits="userSpaceOnUse" x="7" y="20.5" width="65.4" height="37.3">
										<feColorMatrix  type="matrix" values="1 0 0 0 0  0 1 0 0 0  0 0 1 0 0  0 0 0 1 0"/>
									</filter>
								</defs>
								<mask maskUnits="userSpaceOnUse" x="7" y="20.5" width="65.4" height="37.3" id="mask-13_3_">
									<g class="st17">
										<rect id="path-12_4_" x="-51.7" y="0" class="st13" width="439.9" height="254.2"/>
									</g>
								</mask>
								<path id="Rectangle_3_" class="st18" d="M11,20.5h57.4c2.2,0,4,1.8,4,4v29.3c0,2.2-1.8,4-4,4H11c-2.2,0-4-1.8-4-4V24.5
									C7,22.3,8.7,20.5,11,20.5z"/>
								<defs>
									<filter id="Adobe_OpacityMaskFilter_3_" filterUnits="userSpaceOnUse" x="79.7" y="31.5" width="28.2" height="3.7">
										<feColorMatrix  type="matrix" values="1 0 0 0 0  0 1 0 0 0  0 0 1 0 0  0 0 0 1 0"/>
									</filter>
								</defs>
								<mask maskUnits="userSpaceOnUse" x="79.7" y="31.5" width="28.2" height="3.7" id="mask-13_4_">
									<g class="st19">
										<rect id="path-12_5_" x="-51.7" y="0" class="st13" width="439.9" height="254.2"/>
									</g>
								</mask>
								<path id="Rectangle-Copy" class="st20" d="M81.5,31.5h24.6c1,0,1.8,0.8,1.8,1.8v0c0,1-0.8,1.8-1.8,1.8H81.5
									c-1,0-1.8-0.8-1.8-1.8v0C79.7,32.3,80.5,31.5,81.5,31.5z"/>
								<defs>
									<filter id="Adobe_OpacityMaskFilter_4_" filterUnits="userSpaceOnUse" x="-0.4" y="70.9" width="256.6" height="195.5">
										<feColorMatrix  type="matrix" values="1 0 0 0 0  0 1 0 0 0  0 0 1 0 0  0 0 0 1 0"/>
									</filter>
								</defs>
								<mask maskUnits="userSpaceOnUse" x="-0.4" y="70.9" width="256.6" height="195.5" id="mask-13_5_">
									<g class="st21">
										<rect id="path-12_6_" x="-51.7" y="0" class="st13" width="439.9" height="254.2"/>
									</g>
								</mask>
								<path id="Rectangle_4_" class="st22" d="M3.6,70.9h248.6c2.2,0,4,1.8,4,4v187.5c0,2.2-1.8,4-4,4H3.6c-2.2,0-4-1.8-4-4V74.9
									C-0.4,72.7,1.4,70.9,3.6,70.9z"/>
								<defs>
									<filter id="Adobe_OpacityMaskFilter_5_" filterUnits="userSpaceOnUse" x="11.9" y="83.1" width="127.1" height="40.3">
										<feColorMatrix  type="matrix" values="1 0 0 0 0  0 1 0 0 0  0 0 1 0 0  0 0 0 1 0"/>
									</filter>
								</defs>
								<mask maskUnits="userSpaceOnUse" x="11.9" y="83.1" width="127.1" height="40.3" id="mask-13_6_">
									<g class="st23">
										<rect id="path-12_7_" x="-51.7" y="0" class="st13" width="439.9" height="254.2"/>
									</g>
								</mask>
								<g id="title" class="st24">
									<g transform="translate(63.564557, 83.097691)">
										<path id="Rectangle_5_" class="st25" d="M-49.3,0H72.9c1.3,0,2.4,1.1,2.4,2.4l0,0c0,1.3-1.1,2.4-2.4,2.4H-49.3
											c-1.3,0-2.4-1.1-2.4-2.4l0,0C-51.7,1.1-50.6,0-49.3,0z"/>
										<path id="Rectangle-Copy_1_" class="st25" d="M-49.3,12H-15c1.3,0,2.4,1.1,2.4,2.4l0,0c0,1.3-1.1,2.4-2.4,2.4h-34.3
											c-1.3,0-2.4-1.1-2.4-2.4l0,0C-51.7,13.1-50.6,12-49.3,12z"/>
										<path id="Rectangle-Copy-6" class="st25" d="M-49.3,35.4h22c1.3,0,2.4,1.1,2.4,2.4l0,0c0,1.3-1.1,2.4-2.4,2.4h-22
											c-1.3,0-2.4-1.1-2.4-2.4l0,0C-51.7,36.5-50.6,35.4-49.3,35.4z"/>
									</g>
								</g>
								<defs>
									<filter id="Adobe_OpacityMaskFilter_6_" filterUnits="userSpaceOnUse" x="12.2" y="139.3" width="164" height="31.8">
										<feColorMatrix  type="matrix" values="1 0 0 0 0  0 1 0 0 0  0 0 1 0 0  0 0 0 1 0"/>
									</filter>
								</defs>
								<mask maskUnits="userSpaceOnUse" x="12.2" y="139.3" width="164" height="31.8" id="mask-13_7_">
									<g class="st26">
										<rect id="path-12_8_" x="-51.7" y="0" class="st13" width="439.9" height="254.2"/>
									</g>
								</mask>
								<g id="paragraph" class="st27">
									<g transform="translate(63.870028, 139.310835)">
										<path id="Rectangle-Copy_2_" class="st25" d="M-50.5,0H58.1c0.7,0,1.2,0.5,1.2,1.2l0,0c0,0.7-0.5,1.2-1.2,1.2H-50.5
											c-0.7,0-1.2-0.5-1.2-1.2l0,0C-51.7,0.5-51.1,0-50.5,0z"/>
										<path id="Rectangle-Copy-3" class="st25" d="M-50.5,14.7h161.6c0.7,0,1.2,0.5,1.2,1.2v0c0,0.7-0.5,1.2-1.2,1.2H-50.5
											c-0.7,0-1.2-0.5-1.2-1.2v0C-51.7,15.2-51.1,14.7-50.5,14.7z"/>
										<path id="Rectangle-Copy-2" class="st25" d="M-50.5,7.3h67.9c0.7,0,1.2,0.5,1.2,1.2l0,0c0,0.7-0.5,1.2-1.2,1.2h-67.9
											c-0.7,0-1.2-0.5-1.2-1.2l0,0C-51.7,7.9-51.1,7.3-50.5,7.3z"/>
										<path id="Rectangle-Copy-5" class="st25" d="M-50.5,29.3h28.9c0.7,0,1.2,0.5,1.2,1.2l0,0c0,0.7-0.5,1.2-1.2,1.2h-28.9
											c-0.7,0-1.2-0.5-1.2-1.2l0,0C-51.7,29.9-51.1,29.3-50.5,29.3z"/>
										<path id="Rectangle-Copy-4" class="st25" d="M-50.5,22h89.1c0.7,0,1.2,0.5,1.2,1.2l0,0c0,0.7-0.5,1.2-1.2,1.2h-89.1
											c-0.7,0-1.2-0.5-1.2-1.2l0,0C-51.7,22.5-51.1,22-50.5,22z"/>
									</g>
								</g>
								<defs>
									<filter id="Adobe_OpacityMaskFilter_7_" filterUnits="userSpaceOnUse" x="12.2" y="183.3" width="164" height="31.8">
										<feColorMatrix  type="matrix" values="1 0 0 0 0  0 1 0 0 0  0 0 1 0 0  0 0 0 1 0"/>
									</filter>
								</defs>
								<mask maskUnits="userSpaceOnUse" x="12.2" y="183.3" width="164" height="31.8" id="mask-13_8_">
									<g class="st28">
										<rect id="path-12_9_" x="-51.7" y="0" class="st13" width="439.9" height="254.2"/>
									</g>
								</mask>
								<g id="paragraph-copy" class="st29">
									<g transform="translate(63.870028, 183.303730)">
										<path id="Rectangle-Copy_3_" class="st25" d="M-50.5,0H58.1c0.7,0,1.2,0.5,1.2,1.2l0,0c0,0.7-0.5,1.2-1.2,1.2H-50.5
											c-0.7,0-1.2-0.5-1.2-1.2l0,0C-51.7,0.5-51.1,0-50.5,0z"/>
										<path id="Rectangle-Copy-3_1_" class="st25" d="M-50.5,14.7h161.6c0.7,0,1.2,0.5,1.2,1.2v0c0,0.7-0.5,1.2-1.2,1.2H-50.5
											c-0.7,0-1.2-0.5-1.2-1.2v0C-51.7,15.2-51.1,14.7-50.5,14.7z"/>
										<path id="Rectangle-Copy-2_1_" class="st25" d="M-50.5,7.3h67.9c0.7,0,1.2,0.5,1.2,1.2l0,0c0,0.7-0.5,1.2-1.2,1.2h-67.9
											c-0.7,0-1.2-0.5-1.2-1.2l0,0C-51.7,7.9-51.1,7.3-50.5,7.3z"/>
										<path id="Rectangle-Copy-5_1_" class="st25" d="M-50.5,29.3h28.9c0.7,0,1.2,0.5,1.2,1.2l0,0c0,0.7-0.5,1.2-1.2,1.2h-28.9
											c-0.7,0-1.2-0.5-1.2-1.2l0,0C-51.7,29.9-51.1,29.3-50.5,29.3z"/>
										<path id="Rectangle-Copy-4_1_" class="st25" d="M-50.5,22h89.1c0.7,0,1.2,0.5,1.2,1.2l0,0c0,0.7-0.5,1.2-1.2,1.2h-89.1
											c-0.7,0-1.2-0.5-1.2-1.2l0,0C-51.7,22.5-51.1,22-50.5,22z"/>
									</g>
								</g>
								<defs>
									<filter id="Adobe_OpacityMaskFilter_8_" filterUnits="userSpaceOnUse" x="12.2" y="227.3" width="164" height="31.8">
										<feColorMatrix  type="matrix" values="1 0 0 0 0  0 1 0 0 0  0 0 1 0 0  0 0 0 1 0"/>
									</filter>
								</defs>
								<mask maskUnits="userSpaceOnUse" x="12.2" y="227.3" width="164" height="31.8" id="mask-13_9_">
									<g class="st30">
										<rect id="path-12_10_" x="-51.7" y="0" class="st13" width="439.9" height="254.2"/>
									</g>
								</mask>
								<g id="paragraph-copy-2" class="st31">
									<g transform="translate(63.870028, 227.296625)">
										<path id="Rectangle-Copy_4_" class="st25" d="M-50.5,0H58.1c0.7,0,1.2,0.5,1.2,1.2l0,0c0,0.7-0.5,1.2-1.2,1.2H-50.5
											c-0.7,0-1.2-0.5-1.2-1.2l0,0C-51.7,0.5-51.1,0-50.5,0z"/>
										<path id="Rectangle-Copy-3_2_" class="st25" d="M-50.5,14.7h161.6c0.7,0,1.2,0.5,1.2,1.2v0c0,0.7-0.5,1.2-1.2,1.2H-50.5
											c-0.7,0-1.2-0.5-1.2-1.2v0C-51.7,15.2-51.1,14.7-50.5,14.7z"/>
										<path id="Rectangle-Copy-2_2_" class="st25" d="M-50.5,7.3h67.9c0.7,0,1.2,0.5,1.2,1.2l0,0c0,0.7-0.5,1.2-1.2,1.2h-67.9
											c-0.7,0-1.2-0.5-1.2-1.2l0,0C-51.7,7.9-51.1,7.3-50.5,7.3z"/>
										<path id="Rectangle-Copy-5_2_" class="st25" d="M-50.5,29.3h28.9c0.7,0,1.2,0.5,1.2,1.2l0,0c0,0.7-0.5,1.2-1.2,1.2h-28.9
											c-0.7,0-1.2-0.5-1.2-1.2l0,0C-51.7,29.9-51.1,29.3-50.5,29.3z"/>
										<path id="Rectangle-Copy-4_2_" class="st25" d="M-50.5,22h89.1c0.7,0,1.2,0.5,1.2,1.2l0,0c0,0.7-0.5,1.2-1.2,1.2h-89.1
											c-0.7,0-1.2-0.5-1.2-1.2l0,0C-51.7,22.5-51.1,22-50.5,22z"/>
									</g>
								</g>
								<defs>
									<filter id="Adobe_OpacityMaskFilter_9_" filterUnits="userSpaceOnUse" x="263.6" y="70.9" width="73.3" height="103">
										<feColorMatrix  type="matrix" values="1 0 0 0 0  0 1 0 0 0  0 0 1 0 0  0 0 0 1 0"/>
									</filter>
								</defs>
								<mask maskUnits="userSpaceOnUse" x="263.6" y="70.9" width="73.3" height="103" id="mask-13_10_">
									<g class="st32">
										<rect id="path-12_11_" x="-51.7" y="0" class="st13" width="439.9" height="254.2"/>
									</g>
								</mask>
								<g id="Group-2" class="st33">
									<g transform="translate(315.246201, 70.877442)">
										<path id="Rectangle_6_" class="st34" d="M-47.7,0h65.3c2.2,0,4,1.8,4,4v95c0,2.2-1.8,4-4,4h-65.3c-2.2,0-4-1.8-4-4V4
											C-51.7,1.8-49.9,0-47.7,0z"/>
										<g id="Group" transform="translate(7.331307, 7.332149)">
											<g id="grey-ad-copy">
												<g id="grey-ad">
													<path id="Rectangle_7_" class="st35" d="M-49.9,48.3H1.5c1,0,1.8,0.8,1.8,1.8v0c0,1-0.8,1.8-1.8,1.8h-51.3
														c-1,0-1.8-0.8-1.8-1.8v0C-51.7,49.1-50.9,48.3-49.9,48.3z"/>
													<path id="Rectangle_8_" class="st35" d="M-49.9,84.6h20.8c1,0,1.8,0.8,1.8,1.8l0,0c0,1-0.8,1.8-1.8,1.8h-20.8
														c-1,0-1.8-0.8-1.8-1.8l0,0C-51.7,85.4-50.9,84.6-49.9,84.6z"/>
													<path id="Rectangle_9_" class="st36" d="M-47.7,0H3c2.2,0,4,1.8,4,4v29.3c0,2.2-1.8,4-4,4h-50.7c-2.2,0-4-1.8-4-4V4
														C-51.7,1.8-49.9,0-47.7,0z"/>
													<path id="Rectangle-Copy_5_" class="st35" d="M-49.9,56.8h24.6c1,0,1.8,0.8,1.8,1.8v0c0,1-0.8,1.8-1.8,1.8h-24.6
														c-1,0-1.8-0.8-1.8-1.8v0C-51.7,57.6-50.9,56.8-49.9,56.8z"/>
												</g>
											</g>
										</g>
									</g>
								</g>
							</g>
							<g id="element_x2F_icon_x2F_like_x2F_thick-" transform="translate(-17.621581, -266.544405)">
								<path id="Fill-1" class="st37" d="M-50.8,0.5L-51.2,1l-0.4-0.5c0,0,0-0.1,0-0.1c0-0.1,0.1-0.2,0.2-0.2
									c0.1,0,0.2,0.1,0.2,0.1h0.1c0-0.1,0.1-0.1,0.2-0.1c0.1,0,0.2,0.1,0.2,0.2C-50.8,0.4-50.8,0.4-50.8,0.5 M-50.9,0
									c-0.1,0-0.2,0.1-0.2,0.1c0-0.1-0.1-0.1-0.2-0.1c-0.2,0-0.3,0.1-0.3,0.3c0,0.1,0,0.1,0.1,0.2l0.4,0.5h0.1l0.4-0.5
									c0-0.1,0.1-0.1,0.1-0.2C-50.7,0.2-50.8,0-50.9,0"/>
							</g>
							<g id="Group-2_1_" transform="translate(51.319149, 35.133215)" class="st38">
							</g>
							<g id="Group-3">
								<rect id="Rectangle_10_" x="-51.7" y="0" class="st39" width="439.9" height="22"/>
								<g id="element_x2F_olx-logo_x2F_teal" transform="translate(9.775076, 4.888099)">
									<g id="OLX-Logo-Teal" transform="translate(0.001381, 0.000000)">
										<path id="Logo" class="st40" d="M-37.3,12.5h-3V0h3V12.5z M-41.4,6.3c0,2.9-2.3,5.2-5.2,5.2s-5.2-2.3-5.2-5.2
											s2.3-5.2,5.2-5.2C-43.7,1.1-41.4,3.4-41.4,6.3z M-45,6.3c0-0.9-0.7-1.6-1.6-1.6c-0.9,0-1.6,0.7-1.6,1.6s0.7,1.6,1.6,1.6
											C-45.7,7.8-45,7.1-45,6.3z M-29.8,3.1h-2l-1.2,1.2l-1.2-1.2h-2v2l1.1,1.1l-1.1,1.1v2h2l1.1-1.1l1.1,1.1h2v-2l-1.1-1.1
											l1.1-1.1L-29.8,3.1L-29.8,3.1z"/>
									</g>
								</g>
							</g>
						</g>
					</g>
				</g>
			</g>
		</g>
	</g>
</g>
</svg>
