<svg id="Layer_1" data-name="Layer 1" xmlns="http://www.w3.org/2000/svg" xmlns:xlink="http://www.w3.org/1999/xlink" viewBox="0 0 435.67 88.33"><defs><style>.cls-1{fill:#428ac9;}.cls-2{fill:#81c6ee;}.cls-3{fill:#353331;}.cls-4{fill:#111;}.cls-5{fill:url(#linear-gradient);}.cls-6{fill:#545454;opacity:0.25;}.cls-7{fill:#454545;}.cls-8{fill:#605f5f;}.cls-9{fill:#161616;}</style><linearGradient id="linear-gradient" x1="48.05" y1="57.5" x2="640.29" y2="57.5" gradientUnits="userSpaceOnUse"><stop offset="0" stop-color="#141414"/><stop offset="0.51" stop-color="#575756"/><stop offset="0.64" stop-color="#888"/><stop offset="0.89" stop-color="#ddd"/><stop offset="1" stop-color="#fff"/></linearGradient></defs><title>tel_ok</title><path class="cls-1" d="M420.52,88.33V57A44.54,44.54,0,0,0,376,12.48H57A44.54,44.54,0,0,0,12.48,57V88.33h408Z"/><path class="cls-2" d="M415.78,88.33V56.45a39.24,39.24,0,0,0-39.24-39.24H56.46A39.24,39.24,0,0,0,17.22,56.45V88.33H415.78Z"/><path class="cls-3" d="M413.6,88.33v-30A38.91,38.91,0,0,0,374.68,19.4H58.32A38.91,38.91,0,0,0,19.4,58.31v30H413.6Z"/><path class="cls-4" d="M408.32,88.33V58.41a33.74,33.74,0,0,0-33.74-33.74H58.42A33.74,33.74,0,0,0,24.68,58.41V88.33H408.32Z"/><path class="cls-5" d="M325.38,88.33L345,26.67H58.53a32,32,0,0,0-32,32V88.33H325.38Z"/><path class="cls-4" d="M182.75,24.67a11.54,11.54,0,0,0,10.12,6h47.25a11.54,11.54,0,0,0,10.12-6h-67.5Z"/><circle class="cls-6" cx="68" cy="41.64" r="5.94"/><circle class="cls-7" cx="68" cy="41.64" r="3.65"/><circle class="cls-8" cx="68" cy="41.64" r="2.11"/><path class="cls-9" d="M187,28a12.86,12.86,0,0,0,6.88,1.91h45.27A12.86,12.86,0,0,0,246,28H187Z"/></svg>