<svg xmlns="http://www.w3.org/2000/svg" width="64" height="64" viewBox="0 0 64 64">
    <g fill="none" fill-rule="evenodd">
        <path fill="#F8FBCF" d="M59.524 45.945L34.82 3.493a.129.129 0 0 0-.112-.064h-5.407a.129.129 0 0 0-.112.064L4.487 45.945a1.065 1.065 0 0 0-.144.534v7.226c0 .07.057.129.129.129h55.196v-7.355c0-.187-.05-.372-.144-.534"/>
        <path fill="#F8DD3E" d="M8 50.191v-2.925c0-.022.006-.045.017-.064L31.324 7.149a.128.128 0 0 1 .111-.063h1.284c.046 0 .088.024.111.063l23.307 40.053c.011.02.017.041.017.064v2.925c0 .071-.057.129-.128.129H8.128A.128.128 0 0 1 8 50.19l27.084-31.41"/>
        <g fill="#002F34">
            <path fill-rule="nonzero" d="M21.943 42.434h20.114v-3.04H21.943z"/>
            <path d="M36.352 33.536a2.626 2.626 0 0 1-2.635-2.617 2.626 2.626 0 0 1 2.635-2.616 2.626 2.626 0 0 1 2.635 2.616 2.626 2.626 0 0 1-2.635 2.617M27.612 33.536a2.626 2.626 0 0 1-2.635-2.617 2.626 2.626 0 0 1 2.635-2.616 2.626 2.626 0 0 1 2.636 2.616 2.626 2.626 0 0 1-2.636 2.617"/>
        </g>
        <path fill="#CFC980" d="M14.363 53.849v6.525h-2.177V53.85h2.177zm37.567 0v6.525h-2.177V53.85h2.177z"/>
    </g>
</svg>
