<svg xmlns="http://www.w3.org/2000/svg" xmlns:xlink="http://www.w3.org/1999/xlink" width="114" height="114" viewBox="0 0 114 114">
    <defs>
        <path id="prefix__a" d="M0.029 0.242L96.27 0.242 96.27 96.483 0.029 96.483z"/>
        <path id="prefix__c" d="M0.029 0.242L113.253 0.242 113.253 113.466 0.029 113.466z"/>
        <path id="prefix__e" d="M0 114.114L113.82 114.114 113.82 0.283 0 0.283z"/>
    </defs>
    <g fill="none" fill-rule="evenodd" transform="translate(-.143 -.143)">
        <g transform="translate(.566 .041)">
            <mask id="prefix__b" fill="#fff">
                <use xlink:href="#prefix__a"/>
            </mask>
            <path fill="#CBF7EE" d="M96.27 48.362c0 26.577-21.545 48.12-48.12 48.12C21.572 96.483.03 74.94.03 48.363.03 21.786 21.572.242 48.15.242c26.575 0 48.12 21.544 48.12 48.12" mask="url(#prefix__b)"/>
        </g>
        <g transform="translate(.566 .041)">
            <mask id="prefix__d" fill="#fff">
                <use xlink:href="#prefix__c"/>
            </mask>
            <path fill="#23E5DB" d="M48.15 85.16c-20.29 0-36.799-16.507-36.799-36.798 0-20.29 16.509-36.798 36.798-36.798 20.29 0 36.798 16.507 36.798 36.798S68.44 85.16 48.15 85.16zm57.91 13.106h-.001L85.901 78.108c6.471-8.196 10.369-18.515 10.369-29.746 0-26.534-21.587-48.12-48.12-48.12C21.614.242.028 21.828.028 48.362s21.586 48.12 48.12 48.12c11.23 0 21.55-3.897 29.746-10.369l20.158 20.159 7.194 7.194h8.006v-8.006l-7.193-7.194z" mask="url(#prefix__d)"/>
        </g>
        <mask id="prefix__f" fill="#fff">
            <use xlink:href="#prefix__e"/>
        </mask>
        <path fill="#002F34" d="M37.27 29.398c-6.253 0-11.322 5.07-11.322 11.323s5.07 11.322 11.322 11.322c6.253 0 11.323-5.07 11.323-11.322 0-6.254-5.07-11.323-11.323-11.323m0 7.926a3.4 3.4 0 013.397 3.397 3.4 3.4 0 01-3.397 3.396 3.4 3.4 0 01-3.396-3.396 3.4 3.4 0 013.396-3.397M56.518 37.134L64.635 45.25 67.841 45.25 67.841 42.043 59.725 33.927 56.518 33.927z" mask="url(#prefix__f)"/>
        <path fill="#002F34" d="M67.841 37.134L59.725 45.25 56.518 45.25 56.518 42.043 64.635 33.927 67.841 33.927z" mask="url(#prefix__f)"/>
        <path stroke="#002F34" stroke-width="5.851" d="M33.743 62.144s15.099 16.898 33.096-1.61" mask="url(#prefix__f)"/>
    </g>
</svg>
