<svg xmlns="http://www.w3.org/2000/svg" width="36" height="36" viewBox="0 0 36 36">
    <path fill="#406367" fill-rule="evenodd" d="M31.5 32.625h-27A1.128 1.128 0 0 1 3.375 31.5V14.625h4.5c-.563.844-.788 2.419-.788 3.431 0 6.019 4.894 10.913 10.97 10.913 6.018 0 10.968-4.894 10.968-10.913 0-1.012-.169-2.531-.844-3.431h4.5V31.5c-.056.619-.562 1.125-1.181 1.125M18.056 11.138a6.914 6.914 0 0 1 6.919 6.918 6.914 6.914 0 0 1-6.919 6.919 6.914 6.914 0 0 1-6.919-6.919 6.914 6.914 0 0 1 6.92-6.918M27 4.5h3.375c.619 0 1.125.506 1.125 1.125V9c0 .619-.506 1.125-1.125 1.125H27A1.128 1.128 0 0 1 25.875 9V5.625c0-.619.506-1.125 1.125-1.125M31.725 0H4.275A4.273 4.273 0 0 0 0 4.275v27.45A4.273 4.273 0 0 0 4.275 36h27.45A4.273 4.273 0 0 0 36 31.725V4.275A4.273 4.273 0 0 0 31.725 0"/>
</svg>
