<svg xmlns="http://www.w3.org/2000/svg" data-name="Layer 1" width="92.31" height="24.1"><rect id="backgroundrect" width="100%" height="100%" x="0" y="0" fill="none" stroke="none"/><title>facebook</title><g class="currentLayer"><title>Layer 1</title><path d="M47.45,11.8a4,4,0,0,0-1.77.48v5.45a11.23,11.23,0,0,0,1.28,0c1.73,0,2-.79,2-1.9v-2.6c0-.82-.27-1.47-1.48-1.47m-11.51-.3c-1.2,0-1.48.66-1.48,1.48v.46h3V13c0-.82-.27-1.48-1.48-1.48M13.65,17.18a.86.86,0,0,0,1,1,3.59,3.59,0,0,0,1.68-.48V16.39H14.72c-.75,0-1.08.14-1.08.79m45-5.38c-1.2,0-1.62.66-1.62,1.47v3c0,.82.42,1.48,1.62,1.48s1.62-.66,1.62-1.48v-3c0-.82-.42-1.47-1.62-1.47M7.74,20.52H4.21V12H2.44V9H4.21V7.25c0-2.41,1-3.84,3.84-3.84H10.4V6.36H8.93c-1.1,0-1.18.41-1.18,1.18V9h2.68L10.11,12H7.74Zm12.1,0h-3l-.13-.75a6.77,6.77,0,0,1-3.34.87,3.14,3.14,0,0,1-3.32-3.44c0-2.35,1.34-3.2,3.75-3.2H16.3v-.51c0-1.2-.14-1.56-2-1.56h-3L11.58,9h3.31c4.06,0,5,1.28,5,4.53Zm10-8.36a16.93,16.93,0,0,0-3.25-.38c-1.59,0-2.07.35-2.07,1.7V16c0,1.35.48,1.7,2.07,1.7a16.85,16.85,0,0,0,3.25-.39v2.88a15.64,15.64,0,0,1-3.54.46c-3.8,0-5.31-2-5.31-4.88V13.74c0-2.89,1.51-4.89,5.31-4.89a15.65,15.65,0,0,1,3.54.46ZM41,15.8H34.46V16c0,1.35.48,1.7,2.07,1.7a20.65,20.65,0,0,0,4.13-.39v2.88a18.59,18.59,0,0,1-4.42.46c-3.8,0-5.31-2-5.31-4.88V13.44c0-2.52,1.12-4.59,5-4.59s5,2,5,4.59Zm11.51.05c0,2.79-.8,4.82-5.63,4.82a26.75,26.75,0,0,1-4.69-.45V4.3l3.54-.59V9.28a8,8,0,0,1,2.66-.43c3.54,0,4.13,1.59,4.13,4.13Zm11.34.06c0,2.4-1,4.74-5.15,4.74s-5.17-2.33-5.17-4.74V13.6c0-2.41,1-4.74,5.17-4.74s5.15,2.33,5.15,4.74Zm11.34,0c0,2.4-1,4.74-5.15,4.74s-5.17-2.33-5.17-4.74V13.6c0-2.41,1-4.74,5.17-4.74s5.15,2.33,5.15,4.74Zm11.64,4.61H82.94L79.7,15.12v5.41H76.16V4.3l3.54-.59V14.15L82.94,9h3.84l-3.54,5.6ZM70,11.8c-1.2,0-1.62.66-1.62,1.47v3c0,.82.42,1.48,1.62,1.48s1.63-.66,1.63-1.48v-3c0-.82-.42-1.47-1.63-1.47" id="svg_1" class="selected" fill-opacity="1" fill="#3a5a9a"/><path d="M88.8,18.51a1.09,1.09,0,1,1-1.09,1.09,1.08,1.08,0,0,1,1.09-1.09Zm0,.17a.93.93,0,0,0,0,1.85.93.93,0,0,0,0-1.85Zm-.2,1.56H88.4V19a2.16,2.16,0,0,1,.34,0,.64.64,0,0,1,.38.09.29.29,0,0,1,.11.25.3.3,0,0,1-.24.3h0c.11,0,.18.12.2.29a1,1,0,0,0,.08.3h-.2a.88.88,0,0,1-.08-.31.23.23,0,0,0-.26-.21h-.13Zm0-.67h.14c.16,0,.3-.06.3-.21s-.08-.21-.3-.21h-.14Z" id="svg_2"/></g></svg>