<svg xmlns="http://www.w3.org/2000/svg" xmlns:xlink="http://www.w3.org/1999/xlink" width="248" height="264" viewBox="0 0 248 264">
    <defs>
        <path id="prefix__a" d="M0.573 0.76L87.876 0.76 87.876 112.833 0.573 112.833z"/>
        <path id="prefix__c" d="M0 0.76L87.303 0.76 87.303 112.833 0 112.833z"/>
        <path id="prefix__e" d="M0.613 0.901L123.115 0.901 123.115 225.978 0.613 225.978z"/>
        <path id="prefix__g" d="M0 263.292L246.845 263.292 246.845 0.901 0 0.901z"/>
        <path id="prefix__i" d="M0 263.292L246.845 263.292 246.845 0.901 0 0.901z"/>
        <path id="prefix__k" d="M0 263.292L246.845 263.292 246.845 0.901 0 0.901z"/>
        <path id="prefix__m" d="M0 263.292L246.845 263.292 246.845 0.901 0 0.901z"/>
        <path id="prefix__o" d="M0 263.292L246.845 263.292 246.845 0.901 0 0.901z"/>
        <path id="prefix__q" d="M0 263.292L246.845 263.292 246.845 0.901 0 0.901z"/>
        <path id="prefix__s" d="M0 263.292L246.845 263.292 246.845 0.901 0 0.901z"/>
    </defs>
    <g fill="none" fill-rule="evenodd">
        <g transform="translate(.314 -.143) translate(0 .092)">
            <g transform="translate(158.969 128.169)">
                <mask id="prefix__b" fill="#fff">
                    <use xlink:href="#prefix__a"/>
                </mask>
                <path fill="#FFD6C9" d="M25.773.76l54.391 59.358c5.908 6.447 8.634 15.193 7.435 23.855l-4 28.86H.574V4.567L25.773.76z" mask="url(#prefix__b)"/>
            </g>
            <g transform="translate(0 128.169)">
                <mask id="prefix__d" fill="#fff">
                    <use xlink:href="#prefix__c"/>
                </mask>
                <path fill="#FFD6C9" d="M62.104.76L7.712 60.118C1.804 66.565-.921 75.311.278 83.973l3.998 28.86h83.027V4.567L62.104.76z" mask="url(#prefix__d)"/>
            </g>
            <g transform="translate(61.6)">
                <mask id="prefix__f" fill="#fff">
                    <use xlink:href="#prefix__e"/>
                </mask>
                <path fill="#C7DCFF" d="M107.701 225.978L16.026 225.978 0.613 210.564 0.613 16.316 16.027 0.901 107.701 0.901 123.116 16.316 123.116 210.564z" mask="url(#prefix__f)"/>
            </g>
            <path fill="#002F34" d="M169.262 225.763L77.676 225.763 62.276 210.362 62.276 16.301 77.676 0.901 169.262 0.901 184.66 16.301 184.66 210.362z"/>
            <path fill="#002F34" d="M77.676 225.883L169.262 225.883 184.66 210.483 184.66 191.13 62.276 191.13 62.276 210.485z"/>
            <path fill="#C7DCFF" d="M132.734 208.507c0 5.546-4.495 10.04-10.04 10.04-5.546 0-10.04-4.494-10.04-10.04 0-5.546 4.493-10.04 10.04-10.04 5.544 0 10.04 4.494 10.04 10.04"/>
            <mask id="prefix__h" fill="#fff">
                <use xlink:href="#prefix__g"/>
            </mask>
            <path fill="#C7DCFF" d="M112.608 17.541L137.339 17.541 137.339 8.524 112.608 8.524z" mask="url(#prefix__h)"/>
            <mask id="prefix__j" fill="#fff">
                <use xlink:href="#prefix__i"/>
            </mask>
            <path fill="#FFD6C9" d="M70.277 179.376c0 12.532 10.158 22.69 22.689 22.69 12.53 0 22.689-10.158 22.689-22.689 0-12.53-10.158-22.688-22.689-22.688-12.53 0-22.689 10.158-22.689 22.688" mask="url(#prefix__j)"/>
            <mask id="prefix__l" fill="#fff">
                <use xlink:href="#prefix__k"/>
            </mask>
            <path fill="#FFD6C9" d="M53.663 212.18c0 12.531 10.158 22.69 22.689 22.69s22.69-10.159 22.69-22.69c0-12.53-10.159-22.688-22.69-22.688-12.53 0-22.688 10.158-22.688 22.689" mask="url(#prefix__l)"/>
            <g>
                <mask id="prefix__n" fill="#fff">
                    <use xlink:href="#prefix__m"/>
                </mask>
                <path fill="#FFD6C9" fill-rule="nonzero" d="M114.218 186.211l-16.937 34.743-41.926-17.372 17.128-33.972 41.735 16.601zM4.275 241.001l2.465 22.291h70.344l20.198-42.338-39.552 5.224-53.455 14.824zm172.294-61.625c0 12.532-10.16 22.69-22.69 22.69-12.53 0-22.689-10.158-22.689-22.689 0-12.53 10.16-22.688 22.689-22.688 12.53 0 22.69 10.158 22.69 22.688z" mask="url(#prefix__n)"/>
            </g>
            <g>
                <mask id="prefix__p" fill="#fff">
                    <use xlink:href="#prefix__o"/>
                </mask>
                <path fill="#FFD6C9" d="M193.18 212.18c0 12.531-10.157 22.69-22.688 22.69-12.529 0-22.689-10.159-22.689-22.69 0-12.53 10.16-22.688 22.69-22.688 12.53 0 22.688 10.158 22.688 22.689" mask="url(#prefix__p)"/>
            </g>
            <g>
                <mask id="prefix__r" fill="#fff">
                    <use xlink:href="#prefix__q"/>
                </mask>
                <path fill="#FFD6C9" fill-rule="nonzero" d="M132.627 186.211l16.937 34.743 41.928-17.372-17.129-33.972-41.736 16.601zm109.942 54.79l-2.463 22.291h-70.343l-20.2-42.338 39.552 5.224 53.454 14.824z" mask="url(#prefix__r)"/>
            </g>
            <g/>
        </g>
        <g fill="#23E5DB">
            <path d="M28.817 13.4c-3.59 0-6.5-2.91-6.5-6.5s2.91-6.5 6.5-6.5 6.5 2.91 6.5 6.5-2.91 6.5-6.5 6.5m-22.001 0c-2.322 0-4.468-1.239-5.628-3.25-1.161-2.011-1.16-4.49 0-6.5C2.35 1.639 4.497.4 6.819.4c3.59 0 6.5 2.91 6.5 6.5s-2.91 6.5-6.5 6.5" transform="translate(.314 -.143) translate(94.368 89.742)"/>
            <path d="M50.817 13.4c-3.59 0-6.5-2.91-6.5-6.5s2.91-6.5 6.5-6.5 6.5 2.91 6.5 6.5-2.91 6.5-6.5 6.5m-22.001 0c-2.322 0-4.468-1.239-5.628-3.25-1.161-2.011-1.16-4.49 0-6.5C24.35 1.639 26.497.4 28.819.4c3.59 0 6.5 2.91 6.5 6.5s-2.91 6.5-6.5 6.5" transform="translate(.314 -.143) translate(94.368 89.742)"/>
        </g>
    </g>
</svg>
