<svg id="Layer_1" data-name="Layer 1" xmlns="http://www.w3.org/2000/svg" viewBox="0 0 64 64"><defs><style>.cls-1{fill:#9da08a;fill-rule:evenodd;}</style></defs><title>money</title><path class="cls-1" d="M61.91,35.32a1.14,1.14,0,0,1-.7.91l-2,.81,2.31,1.79a1.16,1.16,0,0,1,.43,1.07,1.14,1.14,0,0,1-.7.91L47.26,46.46v1.08a1.14,1.14,0,0,1-.7,1.06L35.19,53.21a1.09,1.09,0,0,1-1-.12,1.15,1.15,0,0,1-.49-1v-.37L19.88,57.23a1.08,1.08,0,0,1-.4.08,1.1,1.1,0,0,1-.76-.31L2.43,41.25a1.16,1.16,0,0,1-.33-1.07,1.13,1.13,0,0,1,.73-.84l1.72-.61L2.43,36.68A1.16,1.16,0,0,1,2.1,35.6a1.13,1.13,0,0,1,.73-.84l1.72-.61L2.43,32.1A1.16,1.16,0,0,1,2.1,31a1.13,1.13,0,0,1,.73-.84l1.72-.61L2.43,27.53a1.16,1.16,0,0,1-.33-1.07,1.13,1.13,0,0,1,.73-.84L4.55,25,2.43,23a1.16,1.16,0,0,1-.33-1.07A1.13,1.13,0,0,1,2.83,21l13-4.62a1.17,1.17,0,0,1,0-.4,1.14,1.14,0,0,1,.73-.87L28.94,10.7a1.09,1.09,0,0,1,1.08.21l.34.3,12.4-4.45a1.09,1.09,0,0,1,1,.17L61.48,20.52a1.16,1.16,0,0,1,.43,1.07,1.14,1.14,0,0,1-.7.91l-2,.81,2.31,1.79a1.16,1.16,0,0,1,.43,1.07,1.14,1.14,0,0,1-.7.91l-2,.81,2.31,1.79a1.16,1.16,0,0,1,.43,1.07,1.14,1.14,0,0,1-.7.91l-2,.81,2.31,1.79A1.16,1.16,0,0,1,61.91,35.32ZM33.73,33.45,19.88,38.92a1.08,1.08,0,0,1-.4.08,1.1,1.1,0,0,1-.76-.31L6.39,26.77l-1.09.38L19.73,41.1l14-5.53Zm-14,21.39,13.94-5.51V47.19L19.88,52.65a1.08,1.08,0,0,1-.4.08,1.1,1.1,0,0,1-.76-.31L6.39,40.5l-1.09.39Zm0-4.58,14-5.52V42.61L19.88,48.07a1.08,1.08,0,0,1-.4.08,1.1,1.1,0,0,1-.76-.31L6.39,35.92l-1.09.39Zm0-4.58,14-5.52V38L19.88,43.5a1.08,1.08,0,0,1-.4.08,1.1,1.1,0,0,1-.76-.31L6.39,31.35l-1.09.38ZM5.3,22.58,19.73,36.53l13-5.12L17.55,18.24ZM29,12.93l-9.89,3.58L35.75,30.9a1.16,1.16,0,0,1,.39.88l0,18.54,8.72-3.6h0v-20l-.15-.33Zm13.9-3.81-10.58,3.8,15,12.64,11.19-4.46ZM56.71,24.28l-9.45,3.87v2.12l11.27-4.59Zm0,4.58-9.45,3.87v2.12l11.27-4.59Zm0,4.58L47.26,37.3v2.13l11.27-4.59Zm0,4.58-9.45,3.87V44l11.27-4.59Z"/></svg>