<svg xmlns="http://www.w3.org/2000/svg" width="97" height="96" viewBox="0 0 97 96">
    <g fill="none" fill-rule="evenodd">
        <g>
            <g>
                <g>
                    <g>
                        <g>
                            <path fill="#CFC980" d="M41.446 29.309L0 14.501 0 70.772 41.434 85.576 41.434 85.585 41.443 85.582 41.443 85.585 41.443 85.584 41.451 85.582 41.458 85.585 41.458 85.582 41.467 85.585 41.467 85.576 41.458 85.579 41.458 85.576 41.467 85.573 41.467 85.576 41.476 85.573 41.476 85.57 82.892 70.772 82.892 14.501z" transform="translate(-626 -513) translate(477 441) translate(0 72) translate(149.5) translate(6.514 5.143)"/>
                            <path fill="#F8FBCF" d="M0 67.589L41.459 82.402 41.459 26.13 0 11.318z" transform="translate(-626 -513) translate(477 441) translate(0 72) translate(149.5) translate(6.514 5.143)"/>
                            <path fill="#F8DD3E" d="M41.434 26.13L41.434 82.402 82.892 67.589 82.892 11.318z" transform="translate(-626 -513) translate(477 441) translate(0 72) translate(149.5) translate(6.514 5.143)"/>
                            <path fill="#CFC980" d="M23.443 31.047c-.214-1.37.72-2.655 2.09-2.87 1.372-.214 2.654.72 2.872 2.093.214 1.37-.723 2.655-2.093 2.87-.13.02-.264.03-.391.03-1.216 0-2.284-.884-2.478-2.123m4.189 9.783c-.898-1.058-.767-2.642.287-3.539 1.058-.897 2.642-.77 3.54.288h.003c.894 1.058.767 2.642-.291 3.54-.473.401-1.048.595-1.624.595-.713 0-1.42-.298-1.915-.884m8.661 5.957c-1.285-.52-1.908-1.986-1.39-3.271.52-1.286 1.983-1.906 3.269-1.387 1.289.52 1.908 1.982 1.39 3.268-.396.978-1.337 1.57-2.331 1.57-.312 0-.63-.056-.938-.18m9.824 2.323c-1.38-.127-2.394-1.352-2.263-2.735.13-1.38 1.356-2.394 2.735-2.264 1.38.131 2.394 1.357 2.263 2.736-.12 1.3-1.215 2.277-2.494 2.277-.08 0-.16-.004-.241-.014m9.345.46c-1.376-.152-2.37-1.394-2.22-2.773.15-1.376 1.393-2.37 2.769-2.22 1.38.15 2.374 1.39 2.223 2.769-.14 1.286-1.229 2.236-2.494 2.236-.09 0-.184-.003-.278-.013m8.11 2.183c-1.226-.653-1.692-2.173-1.042-3.398.653-1.222 2.173-1.688 3.398-1.038 1.222.653 1.688 2.173 1.038 3.398-.452.847-1.322 1.333-2.22 1.333-.398 0-.8-.097-1.175-.295m9.446 11.153c.16.033.318.08.472.144.15.06.294.14.432.231.137.09.264.194.381.311.117.118.221.245.312.382.09.137.17.281.23.432.064.154.111.311.145.472.033.16.05.325.05.489 0 .164-.017.328-.05.492-.034.16-.08.318-.144.469-.06.15-.14.298-.231.435-.09.137-.195.265-.312.382-.117.114-.244.22-.381.311-.138.09-.282.168-.432.231-.154.064-.312.11-.472.144-.161.03-.325.047-.49.047-.163 0-.327-.017-.491-.047-.161-.033-.319-.08-.47-.144-.15-.063-.297-.14-.434-.23-.138-.091-.265-.198-.382-.312-.114-.117-.221-.245-.312-.382-.09-.137-.167-.284-.23-.435-.064-.15-.111-.308-.145-.469-.03-.164-.046-.328-.046-.492 0-.164.016-.328.046-.489.034-.16.08-.318.144-.472.064-.15.141-.295.231-.432.09-.137.198-.264.312-.382.117-.117.244-.22.382-.311.137-.09.284-.17.435-.231.15-.064.308-.11.469-.144.324-.067.66-.067.98 0zm.428-7.811c.596 1.252.067 2.752-1.185 3.348-.348.167-.717.244-1.082.244-.937 0-1.838-.525-2.266-1.43-.6-1.252-.067-2.752 1.185-3.348 1.252-.596 2.749-.067 3.348 1.186z" transform="translate(-626 -513) translate(477 441) translate(0 72) translate(149.5) translate(6.514 5.143)"/>
                            <path fill="#002F34" d="M34.061 16.92c1.427-1.782 2.283-4.041 2.283-6.497C36.344 4.676 31.669 0 25.921 0 20.174 0 15.5 4.676 15.5 10.423c0 2.456.856 4.714 2.282 6.497l.004.004c.479.598 1.021 1.143 1.619 1.623l6.511 6.525 6.513-6.516c.601-.482 1.148-1.03 1.63-1.63l.004-.005z" transform="translate(-626 -513) translate(477 441) translate(0 72) translate(149.5) translate(6.514 5.143)"/>
                            <path fill="#CFC980" d="M20.112 10.423c0-3.21 2.6-5.81 5.81-5.81 3.208 0 5.81 2.6 5.81 5.81 0 3.208-2.602 5.81-5.81 5.81-3.21 0-5.81-2.602-5.81-5.81" transform="translate(-626 -513) translate(477 441) translate(0 72) translate(149.5) translate(6.514 5.143)"/>
                        </g>
                    </g>
                </g>
            </g>
        </g>
    </g>
</svg>
