<svg xmlns="http://www.w3.org/2000/svg" width="131" height="131" viewBox="0 0 131 131">
    <g fill="none" fill-rule="evenodd">
        <path fill="#002F34" d="M65.6 87.073L25.733 50.511v-.001L65.6 13.948l39.865 36.562h.002-.002L65.6 87.074z"/>
        <path fill="#FFF" d="M39.04 92.002h53.118V45.936H39.041z"/>
        <path fill="#002F34" d="M48.492 68.573v-.005l-.042-.001a1.536 1.536 0 0 1-1.4-1.527c0-.814.636-1.48 1.441-1.53v-.003H83.66c.851 0 1.54.686 1.54 1.533 0 .847-.689 1.533-1.54 1.533H48.492zm35.167-8.556c.851 0 1.54.686 1.54 1.533 0 .847-.689 1.533-1.54 1.533H48.492v-.005l-.042-.001a1.536 1.536 0 0 1-1.4-1.527c0-.813.636-1.479 1.441-1.53v-.003H83.66zm0-5.49c.851 0 1.54.686 1.54 1.533 0 .847-.689 1.534-1.54 1.534H48.492v-.006h-.042a1.537 1.537 0 0 1-1.4-1.528c0-.813.636-1.478 1.441-1.53v-.003H83.66z"/>
        <path fill="#EBF2FF" d="M105.467 50.51L65.6 87.074l37.035 33.966 2.832-2.816V55.924z"/>
        <path fill="#2A65EA" d="M65.6 87.073L25.732 50.511v67.712l5.442 5.414h68.85l2.611-2.598z"/>
        <path fill="#F8DD3C" d="M80.407 46.283c4.577 0 8.288 3.69 8.288 8.244s-3.71 8.245-8.288 8.245-8.29-3.691-8.29-8.245c0-4.553 3.712-8.244 8.29-8.244zm18.386-20.241l6.495 5.394-11.424 13.61-6.496-5.394 11.425-13.61zM40.77 7.357L48.972 23.1l-7.512 3.873-8.203-15.743 7.513-3.873zM37.072 42.98a2.495 2.495 0 0 1-2.502-2.488 2.495 2.495 0 0 1 2.502-2.489 2.495 2.495 0 0 1 2.501 2.489 2.495 2.495 0 0 1-2.501 2.488m20.976 11.004l8.447.499-1.058 17.7-8.447-.5 1.058-17.7zM37.072 32.28c4.559 0 8.255 3.676 8.255 8.212 0 4.534-3.696 8.21-8.255 8.21-4.56 0-8.256-3.676-8.256-8.21 0-4.536 3.696-8.212 8.256-8.212zM68.49 15.662l2.59 17.542-8.371 1.223-2.59-17.542 8.371-1.223z"/>
    </g>
</svg>
