<svg width="38" height="30" viewBox="0 0 38 30" fill="none" xmlns="http://www.w3.org/2000/svg">
<path d="M17.0694 10.4028H6.9585V29.5011H17.0694V10.4028Z" fill="#EFC91E"/>
<path d="M30.9774 10.4028H17.0339V29.5011H30.9774V10.4028Z" fill="#FFCE32"/>
<path fill-rule="evenodd" clip-rule="evenodd" d="M30.9774 10.4028V17.1668H37.4048L30.9774 10.4028Z" fill="#D2B982"/>
<path fill-rule="evenodd" clip-rule="evenodd" d="M24.5777 25.3538C24.5434 25.3544 24.5097 25.355 24.4757 25.355C22.9488 25.355 21.4711 24.6238 20.0825 23.1804L20.8297 22.4461C22.0362 23.7001 23.2877 24.3224 24.5454 24.301C26.3831 24.267 27.6711 22.8498 27.6839 22.8356L28.0645 23.1813L28.4599 23.5384C28.3962 23.6104 26.8725 25.3047 24.5777 25.3538Z" fill="#02282C"/>
<path fill-rule="evenodd" clip-rule="evenodd" d="M27.2559 19.1415C26.8708 19.1415 26.5585 18.8293 26.5585 18.4441C26.5585 18.0591 26.8708 17.7469 27.2559 17.7469C27.6409 17.7469 27.9531 18.0591 27.9531 18.4441C27.9531 18.8293 27.6409 19.1415 27.2559 19.1415ZM27.2559 16.1431C25.985 16.1431 24.9547 17.1733 24.9547 18.4441C24.9547 19.7151 25.985 20.7453 27.2559 20.7453C28.5267 20.7453 29.5569 19.7151 29.5569 18.4441C29.5569 17.1733 28.5267 16.1431 27.2559 16.1431Z" fill="#02282C"/>
<path fill-rule="evenodd" clip-rule="evenodd" d="M19.5714 19.0003H23V17.8574H19.5714V19.0003Z" fill="#02282C"/>
<path fill-rule="evenodd" clip-rule="evenodd" d="M6.95856 10.3877L6.94513 10.4168L0.531128 17.1668H6.95856H10.29L17.0694 10.3877H6.95856Z" fill="#D2B982"/>
<path d="M11.2126 4.44015L10.3665 5.89746L14.1617 8.10103L15.0078 6.64371L11.2126 4.44015Z" fill="#FFCE32"/>
<path d="M19.2151 0.586271L17.5455 0.814941L18.1576 5.28351L19.8271 5.05484L19.2151 0.586271Z" fill="#FFCE32"/>
<path d="M26.0023 3.70981L22.6356 6.3418L23.6735 7.6694L27.0402 5.03741L26.0023 3.70981Z" fill="#FFCE32"/>
</svg>
