<?xml version="1.0" encoding="utf-8"?>
<!-- Generator: Adobe Illustrator 19.2.1, SVG Export Plug-In . SVG Version: 6.00 Build 0)  -->
<svg version="1.1" id="Layer_1" xmlns="http://www.w3.org/2000/svg" xmlns:xlink="http://www.w3.org/1999/xlink" x="0px" y="0px"
	 viewBox="0 0 64 64" style="enable-background:new 0 0 64 64;" xml:space="preserve" fill="#215eb7">
<path d="M35.4,32L61,6.4c1-0.9,1-2.5,0-3.5c-0.9-1-2.5-1-3.5,0L31.9,28.5L6.4,3C5.5,2,3.9,2,2.9,3c-1,0.9-1,2.5,0,3.5L28.4,32
	L2.9,57.6c-1,0.9-1,2.5,0,3.5c0.5,0.5,1.2,0.7,1.8,0.7c0.6,0,1.3-0.2,1.8-0.7L32,35.6l25.5,25.5c0.5,0.5,1.2,0.7,1.8,0.7
	c0.6,0,1.3-0.2,1.7-0.7c1-0.9,1-2.5,0-3.5L35.4,32z"/>
</svg>
