<svg xmlns="http://www.w3.org/2000/svg" xmlns:xlink="http://www.w3.org/1999/xlink" width="94" height="75" viewBox="0 0 94 75">
    <defs>
        <path id="a" d="M26.83.285c14.747 0 26.702 11.94 26.702 26.666 0 14.728-11.955 26.668-26.701 26.668C12.084 53.619.13 41.679.13 26.95.13 12.224 12.084.285 26.83.285z"/>
        <path id="c" d="M30.365 53.074c12.644 0 22.932-10.273 22.932-22.901 0-12.629-10.288-22.902-22.932-22.902-12.644 0-22.931 10.273-22.931 22.902 0 12.628 10.287 22.901 22.931 22.901zm36.088 8.158v-.001l4.482 4.478v4.982h-4.989l-4.483-4.477-12.561-12.546c-5.108 4.028-11.539 6.453-18.537 6.453C13.83 60.121.378 46.687.378 30.173.378 13.659 13.83.224 30.365.224 46.9.224 60.352 13.66 60.352 30.173c0 6.989-2.429 13.412-6.461 18.513l12.562 12.546z"/>
        <path id="e" d="M7.467 9.81c1.167 0 2.115-.989 2.115-2.204 0-1.216-.948-2.205-2.115-2.205-1.166 0-2.115.99-2.115 2.205s.95 2.204 2.115 2.204zm0-9.55c3.894 0 7.05 3.287 7.05 7.346 0 4.057-3.156 7.346-7.05 7.346-3.893 0-7.05-3.29-7.05-7.346 0-4.059 3.157-7.347 7.05-7.347z"/>
        <path id="g" d="M3.653 1.92L5.048.526H6.87v1.819L5.475 3.74 6.87 5.132v1.82H5.048L3.653 5.559 2.258 6.952H.436v-1.82L1.83 3.74.436 2.346V.526h1.822z"/>
        <path id="i" d="M11.384 5.827c3.515.064 7.013-1.79 10.385-5.525l2.088 2.187c-3.881 4.3-8.011 6.478-12.278 6.478-.095 0-.19 0-.286-.003C4.881 8.818.622 3.77.443 3.556l2.172-2.091-.003-.003c.036.042 3.636 4.264 8.772 4.365z"/>
        <path id="k" d="M9.117.139l8.578 8.872-8.578 8.873L.54 9.01 9.117.14zm0 6.226L6.558 9.01l2.56 2.647 2.558-2.647-2.559-2.646z"/>
        <path id="m" d="M6.094 8.062l1.212 1.24 1.213-1.24-1.213-1.24-1.212 1.24zM7.306 15.5L.034 8.062 7.306.622l7.274 7.44L7.306 15.5z"/>
        <path id="o" d="M8.866.508l8.813 8.498-8.813 8.498L.053 9.006 8.866.508zm0 6.011l-2.58 2.487 2.58 2.487 2.578-2.487L8.866 6.52z"/>
        <path id="q" d="M9.009.19l8.813 8.801-8.813 8.801L.196 8.991 9.009.189zm0 6.225L6.43 8.991l2.579 2.576 2.579-2.576-2.58-2.576z"/>
    </defs>
    <g fill="none" fill-rule="evenodd">
        <g transform="translate(22 8)">
            <mask id="b" fill="#fff">
                <use xlink:href="#a"/>
            </mask>
            <path fill="#CBF7EE" d="M-2.974-2.819h59.61v59.541h-59.61z" mask="url(#b)"/>
        </g>
        <g transform="translate(19 4)">
            <mask id="d" fill="#fff">
                <use xlink:href="#c"/>
            </mask>
            <path fill="#23E5DB" d="M-2.763-2.917h76.84v76.75h-76.84z" mask="url(#d)"/>
        </g>
        <g transform="translate(35 22)">
            <mask id="f" fill="#fff">
                <use xlink:href="#e"/>
            </mask>
            <path fill="#002F34" d="M-2.707-3.002h20.35v21.215h-20.35z" mask="url(#f)"/>
        </g>
        <g transform="translate(55 25)">
            <mask id="h" fill="#fff">
                <use xlink:href="#g"/>
            </mask>
            <path fill="#002F34" d="M-2.481-2.39H9.786V9.869H-2.48z" mask="url(#h)"/>
        </g>
        <g transform="translate(38 40)">
            <mask id="j" fill="#fff">
                <use xlink:href="#i"/>
            </mask>
            <path fill="#002F34" d="M-2.8-3.16h29.9V12.43H-2.8z" mask="url(#j)"/>
        </g>
        <g transform="translate(6)">
            <mask id="l" fill="#fff">
                <use xlink:href="#k"/>
            </mask>
            <path fill="#FFCE32" d="M-2.564-3.076H20.8v24.174H-2.564z" mask="url(#l)"/>
        </g>
        <g transform="translate(0 15)">
            <mask id="n" fill="#fff">
                <use xlink:href="#m"/>
            </mask>
            <path fill="#FFCE32" d="M-3.092-2.577h20.797V18.7H-3.092z" mask="url(#n)"/>
        </g>
        <g transform="translate(76 34)">
            <mask id="p" fill="#fff">
                <use xlink:href="#o"/>
            </mask>
            <path fill="#FFCE32" d="M-3.162-2.595h24.055v23.202H-3.162z" mask="url(#p)"/>
        </g>
        <g transform="translate(22 54)">
            <mask id="r" fill="#fff">
                <use xlink:href="#q"/>
            </mask>
            <path fill="#FFCE32" d="M-3.018-3.025h24.054v24.031H-3.018z" mask="url(#r)"/>
        </g>
    </g>
</svg>
