<svg xmlns="http://www.w3.org/2000/svg" width="59" height="82" viewBox="0 0 59 82">
    <g fill="none" fill-rule="evenodd">
        <path fill="#23E5DB" d="M58.423 29.799c0-15.975-12.95-28.924-28.924-28.924S.575 13.825.575 29.8c0 9.085 4.19 17.19 10.742 22.493l-.064.005c4.818 3.833 6.412 10.203 6.412 12.065h23.622v-.034l.034.034c0-1.862 1.594-8.232 6.412-12.065l-.054-.004c6.553-5.303 10.744-13.409 10.744-22.494"/>
        <path fill="#406367" d="M27.421 17.087L11.092 52.105l.224.187-.063.006c1.376 1.094 2.489 2.396 3.377 3.741l17.204-36.894-4.413-2.058zM41.708 23.75l-4.413-2.058-19.66 42.16c.02.194.03.366.03.51v11.93L23.373 82h12.205l5.709-5.708V64.328H22.786L41.708 23.75z"/>
    </g>
</svg>
