<?xml version="1.0" encoding="utf-8"?>
<!-- Generator: Adobe Illustrator 21.0.2, SVG Export Plug-In . SVG Version: 6.00 Build 0)  -->
<svg version="1.1" id="Layer_1" xmlns="http://www.w3.org/2000/svg" xmlns:xlink="http://www.w3.org/1999/xlink" x="0px" y="0px"
	 viewBox="0 0 220.7 214.7" style="enable-background:new 0 0 220.7 214.7;" xml:space="preserve">
<style type="text/css">
	.st0{fill-rule:evenodd;clip-rule:evenodd;fill:#F0F0D9;}
	.st1{fill:none;stroke:#B6B834;stroke-width:8;stroke-miterlimit:10;}
</style>
<path class="st0" d="M118.8,16.5c53.2,0,96.3,43.1,96.3,96.3c0,53.2-43.1,96.3-96.3,96.3c-53.2,0-96.3-43.1-96.3-96.3
	C22.5,59.6,65.6,16.5,118.8,16.5z"/>
<g>
	<circle class="st1" cx="102" cy="98.8" r="93"/>
	<path class="st1" d="M79.8,151.9v-13.3c0,0,7.4-2.5,13.3-4.4V94.4l-13.3-4.4c0,0,0-11.7,0-13.3l0,0h35.4v57.6
		c5.9,2,13.3,4.4,13.3,4.4v13.3H79.8z"/>
	<circle class="st1" cx="102" cy="50.1" r="13.3"/>
</g>
</svg>
