<svg xmlns="http://www.w3.org/2000/svg" width="81" height="81" viewBox="0 0 81 81">
    <defs>
        <path id="a" d="M21.212 0h21.593v16.78H21.212z"/>
    </defs>
    <g fill="none" fill-rule="evenodd">
        <path fill="#002F34" d="M47.058 52.453l-7.093-3.28 1.066-2.304 7.093 3.28zM22.07 37.314c-6.102-2.822-13.336-.162-16.158 5.94-2.82 6.102-.161 13.337 5.941 16.158 6.103 2.822 13.337.162 16.158-5.94 2.822-6.102.162-13.337-5.94-16.158m-3.154 6.821a4.663 4.663 0 0 1 2.273 6.183 4.663 4.663 0 0 1-6.183 2.273 4.663 4.663 0 0 1-2.273-6.183 4.663 4.663 0 0 1 6.183-2.273"/>
        <path fill="#002F34" d="M55.125 52.597c-6.103-2.822-13.337-.162-16.158 5.94-2.822 6.103-.162 13.337 5.94 16.159 6.103 2.821 13.337.162 16.158-5.94 2.822-6.103.162-13.337-5.94-16.16m-3.154 6.822a4.663 4.663 0 0 1 2.273 6.183 4.663 4.663 0 0 1-6.183 2.273 4.663 4.663 0 0 1-2.273-6.183 4.663 4.663 0 0 1 6.183-2.273"/>
        <path fill="#3A77FF" d="M36.467 55.662l11.881 5.494-1.183-13.037-10.698 7.543zm-4.388-21.958l.474 3.595 14.996 6.934.005-.003 2.323 1.074 1.645 18.133-2.091 1.475-14.438-6.677-2.609.346-2.334-17.67-12.203 8.585-1.7-2.417 13.466-9.473-.464-3.515 2.93-.387zm.932 7.062l1.657 12.548L44.76 46.2l-11.75-5.433z"/>
        <path fill="#23E5DB" d="M30.568 55.88l6.607 3.055L35.758 62l-6.607-3.054 1.417-3.066z"/>
        <path fill="#002F34" d="M28.055 33.077a2.493 2.493 0 1 1 4.91-.872 2.493 2.493 0 0 1-4.91.872M53.174 45.956L44.92 42.14l1.24-2.682 8.254 3.817z"/>
        <path fill="#FF4134" d="M27.607 59.12a8.427 8.427 0 1 0 0 16.592 12.035 12.035 0 0 1-3.304-8.296c0-3.214 1.257-6.132 3.304-8.297"/>
        <path fill="#FFD6C9" d="M34.56 67.416c0-4.152-3.002-7.6-6.953-8.297a12.035 12.035 0 0 0-3.304 8.297c0 3.213 1.257 6.132 3.304 8.296 3.95-.697 6.954-4.145 6.954-8.296"/>
        <path fill="#23E5DB" d="M66.21 14.808l-18.94 7.567-1.912 4.457 15.247 24.07 4.966-1.983 5.667-2.264 4.966-1.984-5.537-27.95z"/>
        <path fill="#CBF7EE" d="M45.358 26.832l15.247 24.071-.335-33.722-13 5.194z"/>
        <path fill="#002F34" d="M26.324 10.362l15.44-5.137 5.137 15.44z"/>
        <path fill="#002F34" d="M41.535 4.536l.919.46 5.137 15.44-1.016.88-20.577-10.304.096-1.34 15.44-5.136z"/>
        <path fill="#F8DD3E" d="M40.374 33.7L19.797 23.398l6.238-12.457 20.577 10.303z"/>
        <path fill="#002F34" d="M31.936 20.719a2.453 2.453 0 1 1-4.386-2.196 2.453 2.453 0 0 1 4.386 2.196M39.264 24.389a2.453 2.453 0 1 1-4.387-2.198 2.453 2.453 0 0 1 4.387 2.198"/>
        <path fill="#002F34" d="M28.43 27.72l-4.386-2.197 3.506-7 4.386 2.196z"/>
    </g>
</svg>
