<svg xmlns="http://www.w3.org/2000/svg" width="97" height="96" viewBox="0 0 97 96">
    <g fill="none" fill-rule="evenodd">
        <path fill="#FFD6C9" d="M89.462 69.002L52.552 5.573a.192.192 0 0 0-.166-.096h-8.08a.192.192 0 0 0-.166.096L7.23 69.003a1.591 1.591 0 0 0-.216.798v10.796c0 .106.086.192.193.192h82.47V69.801c0-.28-.074-.556-.215-.799"/>
        <path fill="#FF4134" d="M12.5 75.377v-4.37c0-.034.009-.067.026-.097L47.35 11.067a.192.192 0 0 1 .165-.096h1.92c.067 0 .13.037.165.096L84.423 70.91c.017.03.026.063.026.097v4.37a.192.192 0 0 1-.191.192H12.692a.192.192 0 0 1-.192-.192"/>
        <g fill="#002F34">
            <path d="M38.199 69.707c.053-5.748 4.745-10.408 10.506-10.408 5.76 0 10.452 4.66 10.506 10.408h4.442c-.054-8.198-6.738-14.85-14.948-14.85S33.81 61.51 33.757 69.707H38.2zM57.75 51.567h2.508v-2.166l-2.836-2.85 2.836-2.84v-2.288h-2.387l-2.781 2.786-2.773-2.786H50.12l.012 2.49 2.622 2.635-2.597 2.6.012 2.42h2.244l2.673-2.678zM44.379 51.566h2.508V49.4l-2.837-2.85 2.837-2.84v-2.287H44.5l-2.782 2.785-2.773-2.785h-2.197l.012 2.49 2.623 2.634-2.598 2.6.012 2.419h2.245l2.672-2.677z"/>
        </g>
        <path fill="#AA133D" d="M21.873 80.79v9.75H18.62v-9.75h3.253zm56.13 0v9.75H74.75v-9.75h3.253z"/>
    </g>
</svg>
