<?xml version="1.0" standalone="no"?>
<!DOCTYPE svg PUBLIC "-//W3C//DTD SVG 1.1//EN" "http://www.w3.org/Graphics/SVG/1.1/DTD/svg11.dtd" >
<svg xmlns="http://www.w3.org/2000/svg" xmlns:xlink="http://www.w3.org/1999/xlink" version="1.1">
<metadata></metadata>
<defs>
<font id="geomanistmedium" horiz-adv-x="505" >
<font-face units-per-em="2048" ascent="1536" descent="-512" />
<missing-glyph horiz-adv-x="507" />
<glyph unicode="&#x2e;&#x2e;&#x2e;" horiz-adv-x="1574" d="M76 145q0 73 50.5 125t123.5 52t123.5 -52t50.5 -125q0 -71 -50.5 -121.5t-123.5 -50.5t-123.5 50.5t-50.5 121.5zM612 145q0 73 50.5 125t123.5 52t124 -52t51 -125q0 -71 -51 -121.5t-124 -50.5t-123.5 50.5t-50.5 121.5zM1151 145q0 73 50.5 125t123.5 52t123.5 -52 t50.5 -125q0 -71 -50.5 -121.5t-123.5 -50.5t-123.5 50.5t-50.5 121.5z" />
<glyph horiz-adv-x="0" />
<glyph horiz-adv-x="0" />
<glyph unicode="&#xd;" horiz-adv-x="507" />
<glyph unicode=" "  horiz-adv-x="507" />
<glyph unicode="&#x09;" horiz-adv-x="507" />
<glyph unicode="&#xa0;" horiz-adv-x="507" />
<glyph unicode="!" horiz-adv-x="598" d="M125 145q0 73 50.5 125t123.5 52t123.5 -52t50.5 -125q0 -71 -50.5 -121.5t-123.5 -50.5t-123.5 50.5t-50.5 121.5zM150 1434h299l-23 -1026h-254z" />
<glyph unicode="&#x22;" horiz-adv-x="757" d="M86 1434h229l-10 -488h-209zM440 1434h230l-13 -488h-206z" />
<glyph unicode="#" horiz-adv-x="1349" d="M53 365l43 213h201l55 274h-198l43 215h200l78 367h236l-76 -367h227l76 367h238l-76 -367h196l-43 -215h-198l-56 -274h197l-43 -213h-199l-75 -365h-238l76 365h-228l-75 -365h-238l76 365h-199zM535 578h227l55 274h-227z" />
<glyph unicode="$" horiz-adv-x="1067" d="M45 305l244 119q33 -79 95.5 -130.5t152.5 -51.5q80 0 125 39t45 108q0 39 -21 72t-57 58.5t-82.5 49t-97.5 48t-102.5 51.5t-98 63.5t-82.5 80.5t-57 106t-21 135q0 162 98.5 270t268.5 131v115h176v-117q63 -11 118 -38t92 -59.5t67 -72t46 -72t27 -63.5l-240 -109 q-14 31 -29 54t-39.5 48.5t-60.5 39.5t-80 14q-72 0 -113.5 -38.5t-41.5 -98.5q0 -48 34.5 -87t89 -68.5t121 -59t133 -67t121 -84t89 -119t34.5 -162.5q0 -166 -98 -281.5t-270 -144.5v-158h-176v151q-92 10 -167.5 46.5t-122.5 88t-75.5 98.5t-44.5 95z" />
<glyph unicode="%" horiz-adv-x="1646" d="M57 1118q0 143 100 242.5t249 99.5t248.5 -99.5t99.5 -242.5t-99.5 -242.5t-248.5 -99.5t-249 99.5t-100 242.5zM143 0l1086 1434h274l-1085 -1434h-275zM272 1118q0 -57 37 -97t97 -40t96.5 40t36.5 97t-36.5 97t-96.5 40t-97 -40t-37 -97zM891 311q0 143 99.5 242.5 t248.5 99.5t248.5 -99.5t99.5 -242.5t-99.5 -242.5t-248.5 -99.5t-248.5 99.5t-99.5 242.5zM1106 311q0 -57 36.5 -97t96.5 -40t96.5 40t36.5 97q0 58 -36.5 98t-96.5 40t-96.5 -40t-36.5 -98z" />
<glyph unicode="&#x26;" horiz-adv-x="1341" d="M55 412q0 130 61.5 226.5t178.5 174.5q-55 65 -87 130t-32 147q0 159 114 264.5t304 105.5q199 0 312.5 -105t113.5 -272q0 -225 -264 -385l213 -204q37 75 37 192h264q0 -231 -109 -397l144 -150l-191 -180l-139 147q-69 -60 -169.5 -96.5t-219.5 -36.5 q-247 0 -389 122.5t-142 316.5zM340 434q0 -97 73.5 -152t176.5 -55q62 0 115.5 22t85.5 54l-328 326q-57 -28 -90 -79.5t-33 -115.5zM436 1075q0 -63 39.5 -114.5t114.5 -112.5q176 104 176 227q0 69 -45.5 113.5t-122.5 44.5q-70 0 -116 -45t-46 -113z" />
<glyph unicode="'" horiz-adv-x="407" d="M88 1434h229l-10 -488h-209z" />
<glyph unicode="(" horiz-adv-x="679" d="M92 92v1112q0 434 457 434v-243q-176 0 -176 -174v-1143q0 -174 176 -174v-244q-457 0 -457 432z" />
<glyph unicode=")" horiz-adv-x="681" d="M131 -96q176 0 176 174v1143q0 174 -176 174v243q457 0 457 -434v-1112q0 -432 -457 -432v244z" />
<glyph unicode="*" horiz-adv-x="888" d="M74 965l178 100l-178 100l96 162l176 -100v207h193v-207l178 100l94 -162l-178 -100l180 -98l-96 -164l-178 102v-207h-193v207l-176 -102z" />
<glyph unicode="+" horiz-adv-x="1126" d="M74 524v228h370v393h238v-393h371v-228h-371v-395h-238v395h-370z" />
<glyph unicode="," horiz-adv-x="499" d="M76 145q0 72 50 124.5t122 52.5q77 0 128.5 -50.5t51.5 -138.5q0 -134 -64 -253.5t-163 -192.5l-111 123q41 27 80.5 74t46.5 91q-66 14 -103.5 62.5t-37.5 107.5z" />
<glyph unicode="-" horiz-adv-x="755" d="M92 496v254h570v-254h-570z" />
<glyph unicode="." horiz-adv-x="501" d="M76 145q0 73 50.5 125t123.5 52t123.5 -52t50.5 -125q0 -71 -50.5 -121.5t-123.5 -50.5t-123.5 50.5t-50.5 121.5z" />
<glyph unicode="/" horiz-adv-x="925" d="M31 -221l616 1757h248l-616 -1757h-248z" />
<glyph unicode="0" horiz-adv-x="1179" d="M94 717q0 375 116 559t378 184q263 0 379 -183.5t116 -559.5q0 -377 -115.5 -560.5t-379.5 -183.5q-262 0 -378 183.5t-116 560.5zM387 717q0 -82 3 -141.5t10.5 -116t21.5 -94t36.5 -66t54.5 -42t75 -13.5q52 0 88.5 21t59 57t35 98t16.5 130t4 167q0 82 -3 141 t-10.5 115.5t-22 94t-36.5 66.5t-54.5 42.5t-76.5 13.5q-43 0 -75 -13.5t-54 -42.5t-36.5 -66.5t-22 -94t-10.5 -115.5t-3 -141z" />
<glyph unicode="1" horiz-adv-x="698" d="M45 1337l270 97h236v-1434h-285v1149l-149 -51z" />
<glyph unicode="2" horiz-adv-x="1107" d="M80 1100q11 47 31 92.5t58.5 95.5t88 87t125 61t164.5 24q209 0 338 -117.5t129 -312.5q0 -78 -29.5 -152.5t-78 -134t-107 -115t-119.5 -104.5t-113.5 -93t-90.5 -90.5t-48 -88.5h602v-252h-944v102q0 83 35 165t90.5 150t123 133.5t135.5 125.5t123.5 116t90.5 114.5 t35 111.5q0 80 -49 128t-135 48q-153 0 -203 -168z" />
<glyph unicode="3" horiz-adv-x="1107" d="M72 326l247 77q24 -73 79.5 -119t142.5 -46q90 0 145 53.5t55 142.5q0 88 -60.5 141.5t-174.5 53.5h-158v223l297 328h-518v254h848v-254l-301 -316q69 -7 132.5 -38t115 -82t82 -128.5t30.5 -169.5q0 -208 -137.5 -340.5t-349.5 -132.5q-111 0 -199 33t-142.5 87.5 t-86.5 112t-47 120.5z" />
<glyph unicode="4" horiz-adv-x="1204" d="M55 334v207l588 893h336v-854h168v-246h-168v-334h-285v334h-639zM352 580h342v532z" />
<glyph unicode="5" horiz-adv-x="1107" d="M72 326l250 77q21 -76 78 -120.5t145 -44.5q93 0 152 64t59 163q0 93 -59 160t-169 67q-97 0 -170 -78l-239 41l31 779h808v-254h-552l-13 -293q88 49 205 49q186 0 317.5 -127t131.5 -322q0 -224 -137 -369t-351 -145q-88 0 -164.5 22.5t-129 58t-93.5 83t-64.5 94 t-35.5 95.5z" />
<glyph unicode="6" horiz-adv-x="1150" d="M82 625q0 140 17 258t59 227t107.5 184.5t168 120.5t234.5 45q186 0 336 -94l-113 -233q-87 57 -205 57q-69 0 -122.5 -22.5t-84.5 -56t-51.5 -79.5t-28.5 -86.5t-10 -83.5q107 92 256 92q190 0 306 -126t116 -349q0 -227 -132 -366.5t-349 -139.5q-115 0 -203 32 t-144.5 88t-92 140t-50 179t-14.5 213zM375 584q0 -51 2.5 -87.5t9.5 -79t21.5 -71t37.5 -53.5t59 -37t83 -12q93 0 143.5 59.5t50.5 167.5q0 101 -51.5 163t-148.5 62q-123 0 -207 -112z" />
<glyph unicode="7" horiz-adv-x="1044" d="M51 1180v254h946v-220l-469 -1214h-311l475 1180h-641z" />
<glyph unicode="8" horiz-adv-x="1155" d="M74 422q0 121 58.5 209t137.5 131q-63 40 -110 116t-47 175q0 179 127.5 293t337.5 114q209 0 336.5 -113.5t127.5 -293.5q0 -99 -47.5 -175t-111.5 -116q82 -44 140 -131.5t58 -208.5q0 -203 -139 -326t-367 -123q-229 0 -365 122t-136 327zM369 426q0 -83 55.5 -136.5 t153.5 -53.5q99 0 153.5 53.5t54.5 136.5q0 86 -57 139t-151 53q-95 0 -152 -53.5t-57 -138.5zM399 1036q0 -74 50 -120t129 -46q78 0 128 46.5t50 119.5q0 70 -47.5 117t-130.5 47q-85 0 -132 -46.5t-47 -117.5z" />
<glyph unicode="9" horiz-adv-x="1150" d="M82 954q0 227 132 366.5t349 139.5q143 0 243.5 -47.5t156.5 -138t80 -203.5t24 -262q0 -140 -17 -258.5t-59 -227t-107.5 -184.5t-168 -121t-234.5 -45q-185 0 -336 95l113 233q87 -57 205 -57q69 0 122.5 22.5t84.5 55.5t51.5 79.5t28.5 86.5t10 83q-107 -92 -256 -92 q-190 0 -306 126t-116 349zM367 963q0 -101 52 -163.5t148 -62.5q122 0 207 113q0 51 -2.5 87.5t-9.5 79t-21.5 71t-37.5 53.5t-59 37t-83 12q-93 0 -143.5 -59.5t-50.5 -167.5z" />
<glyph unicode=":" horiz-adv-x="499" d="M76 145q0 73 50.5 125t123.5 52t123.5 -52t50.5 -125q0 -71 -50.5 -121.5t-123.5 -50.5t-123.5 50.5t-50.5 121.5zM76 872q0 73 50.5 125t123.5 52t123.5 -52t50.5 -125q0 -71 -50.5 -121.5t-123.5 -50.5t-123.5 50.5t-50.5 121.5z" />
<glyph unicode=";" horiz-adv-x="499" d="M76 145q0 72 50 124.5t122 52.5q77 0 128.5 -50.5t51.5 -138.5q0 -134 -64 -253.5t-163 -192.5l-111 123q41 27 80.5 74t46.5 91q-66 14 -103.5 62.5t-37.5 107.5zM76 872q0 73 50.5 125t123.5 52t123.5 -52t50.5 -125q0 -71 -50.5 -121.5t-123.5 -50.5t-123.5 50.5 t-50.5 121.5z" />
<glyph unicode="&#x3c;" horiz-adv-x="1040" d="M92 537v204l856 387v-245l-573 -242l573 -244v-247z" />
<glyph unicode="=" horiz-adv-x="1126" d="M74 322v227h979v-227h-979zM74 711v225h979v-225h-979z" />
<glyph unicode="&#x3e;" horiz-adv-x="1040" d="M92 150v247l574 244l-574 242v245l856 -387v-204z" />
<glyph unicode="?" horiz-adv-x="987" d="M59 1174q17 48 46.5 93.5t77 91t122.5 73.5t166 28q199 0 328 -111.5t129 -285.5q0 -62 -19 -117t-49 -96t-66.5 -77.5t-73 -69t-66.5 -64.5t-49 -69.5t-19 -77.5v-84h-275v100q0 76 34 141.5t82 111.5t96 88.5t82 93t34 104.5q0 63 -46.5 108t-125.5 45 q-127 0 -182 -127zM274 145q0 73 51 125t124 52t123.5 -52t50.5 -125q0 -71 -50.5 -121.5t-123.5 -50.5t-124 50.5t-51 121.5z" />
<glyph unicode="@" horiz-adv-x="1853" d="M74 535q0 184 67 343t182.5 269.5t275.5 173.5t343 63q243 0 434.5 -98.5t296.5 -270.5t105 -386q0 -234 -103 -368t-276 -134q-85 0 -146 37.5t-90 101.5q-12 -19 -31 -39t-51.5 -44.5t-81 -40t-104.5 -15.5q-171 0 -278 112t-107 291q0 175 107 289.5t270 114.5 q133 0 215 -82v70h211v-486q0 -125 104 -125q70 0 112 80t42 227q0 273 -174.5 427.5t-458.5 154.5q-192 0 -341 -87.5t-228.5 -237t-79.5 -334.5q0 -293 182 -472.5t483 -179.5q211 0 387 103l95 -152q-198 -137 -482 -137q-255 0 -455.5 105.5t-312.5 295t-112 431.5z M737 530q0 -90 52.5 -148t132.5 -58t133 56t53 152q0 87 -51.5 145t-134.5 58q-79 0 -132 -57t-53 -148z" />
<glyph unicode="A" horiz-adv-x="1351" d="M16 0l508 1434h303l508 -1434h-291l-124 369h-488l-125 -369h-291zM510 608h334l-168 516z" />
<glyph unicode="B" horiz-adv-x="1171" d="M137 0v1434h455q214 0 342.5 -103t128.5 -276q0 -98 -47 -182.5t-125 -127.5q102 -43 160.5 -129t58.5 -196q0 -102 -39.5 -183t-107.5 -132t-156.5 -78t-188.5 -27h-481zM426 248h176q90 0 149.5 51t59.5 137q0 87 -59 136t-150 49h-176v-373zM426 854h164q76 0 127 47 t51 121q0 73 -50 117.5t-132 44.5h-160v-330z" />
<glyph unicode="C" horiz-adv-x="1306" d="M61 717q0 156 56.5 293.5t155 236.5t238 156t298.5 57q249 0 426 -131l-82 -254q-66 46 -156 80.5t-188 34.5q-194 0 -320.5 -135t-126.5 -338q0 -206 126 -339.5t321 -133.5q188 0 356 116l82 -251q-186 -136 -438 -136q-220 0 -391.5 98t-264 267t-92.5 379z" />
<glyph unicode="D" horiz-adv-x="1341" d="M137 0v1434h381q353 0 556.5 -190.5t203.5 -526.5q0 -341 -203 -529t-557 -188h-381zM426 250h102q209 0 329 120t120 347q0 222 -121 343.5t-328 121.5h-102v-932z" />
<glyph unicode="E" horiz-adv-x="985" d="M137 0v1434h737v-260h-448v-320h385v-256h-385v-340h467v-258h-756z" />
<glyph unicode="F" horiz-adv-x="962" d="M137 0v1434h733v-260h-444v-338h389v-258h-389v-578h-289z" />
<glyph unicode="G" horiz-adv-x="1529" d="M61 717q0 153 55.5 289.5t152.5 236.5t236.5 158.5t299.5 58.5q106 0 203 -24t166.5 -62.5t116.5 -75.5t79 -75l-182 -189q-21 23 -49 45.5t-74 50.5t-111 45t-137 17q-206 0 -330.5 -135.5t-124.5 -339.5q0 -215 128.5 -344t326.5 -129q131 0 218.5 37t125.5 75v176 h-272v244h543v-567q-64 -55 -122.5 -93.5t-134.5 -73t-168.5 -52t-201.5 -17.5q-121 0 -233 33.5t-204.5 98.5t-161.5 154t-107 207t-38 251z" />
<glyph unicode="H" horiz-adv-x="1447" d="M137 0v1434h289v-582h596v582h289v-1434h-289v592h-596v-592h-289z" />
<glyph unicode="I" horiz-adv-x="563" d="M137 0v1434h289v-1434h-289z" />
<glyph unicode="J" horiz-adv-x="765" d="M41 8l33 256q96 -12 119 -12q72 0 108.5 41t36.5 115v1026h289v-1078q0 -97 -30.5 -169.5t-86 -115t-125.5 -63t-156 -20.5q-93 0 -188 20z" />
<glyph unicode="K" horiz-adv-x="1259" d="M137 0v1434h289v-656l473 656h324l-516 -686l532 -748h-332l-481 696v-696h-289z" />
<glyph unicode="L" horiz-adv-x="931" d="M137 0v1434h289v-1174h467v-260h-756z" />
<glyph unicode="M" horiz-adv-x="1837" d="M135 0v1434h373l410 -977l411 977h373v-1434h-277v1024l-372 -903h-269l-372 903v-1024h-277z" />
<glyph unicode="N" horiz-adv-x="1460" d="M135 0v1434h293l612 -979v979h285v-1434h-287l-618 971v-971h-285z" />
<glyph unicode="O" horiz-adv-x="1613" d="M61 717q0 208 94 377t265 267.5t387 98.5t387 -98.5t264.5 -267.5t93.5 -377q0 -157 -55 -294t-152 -236.5t-236.5 -156.5t-301.5 -57q-216 0 -387 97.5t-265 267.5t-94 379zM362 717q0 -206 126 -339.5t319 -133.5t318.5 133.5t125.5 339.5q0 203 -125.5 338t-318.5 135 t-319 -135t-126 -338z" />
<glyph unicode="P" horiz-adv-x="1110" d="M137 0v1434h457q211 0 341 -122.5t130 -324.5q0 -198 -132.5 -325t-336.5 -127h-170v-535h-289zM426 784h129q95 0 154 56t59 147q0 88 -58.5 142.5t-150.5 54.5h-133v-400z" />
<glyph unicode="Q" horiz-adv-x="1615" d="M61 717q0 208 94 377t265 267.5t387 98.5t387 -98.5t264.5 -267.5t93.5 -377q0 -237 -131 -430l140 -125l-177 -195l-147 135q-192 -129 -430 -129q-216 0 -387 97.5t-265 267.5t-94 379zM362 717q0 -206 126 -339.5t319 -133.5q120 0 215 53l-133 121l172 194l139 -127 q51 105 51 232q0 203 -125.5 338t-318.5 135t-319 -135t-126 -338z" />
<glyph unicode="R" horiz-adv-x="1198" d="M137 0v1434h432q227 0 356.5 -121t129.5 -305q0 -127 -58 -225.5t-159 -153.5l340 -629h-320l-278 561h-154v-561h-289zM426 805h135q83 0 140 50.5t57 141.5q0 86 -56.5 136.5t-154.5 50.5h-121v-379z" />
<glyph unicode="S" horiz-adv-x="1067" d="M45 305l244 119q33 -79 95.5 -130.5t152.5 -51.5q80 0 125 39t45 108q0 39 -21 72t-57 58.5t-82.5 49t-97.5 48t-102.5 51.5t-98 63.5t-82.5 80.5t-57 106t-21 135q0 182 123.5 294.5t327.5 112.5q82 0 153 -23t117.5 -56.5t83.5 -78.5t56.5 -82t31.5 -73l-240 -109 q-14 31 -29 54t-39.5 48.5t-60.5 39.5t-80 14q-72 0 -113.5 -38.5t-41.5 -98.5q0 -48 34.5 -87t89 -68.5t121 -59t133 -67t121 -84t89 -119t34.5 -162.5q0 -193 -129.5 -315t-349.5 -122q-88 0 -163 24t-125 59t-90 82t-61.5 87t-35.5 80z" />
<glyph unicode="T" horiz-adv-x="1048" d="M45 1174v260h959v-260h-334v-1174h-289v1174h-336z" />
<glyph unicode="U" horiz-adv-x="1417" d="M131 539v895h289v-895q0 -138 76 -217.5t213 -79.5t212.5 79.5t75.5 217.5v895h289v-895q0 -258 -151.5 -412t-425.5 -154t-426 154t-152 412z" />
<glyph unicode="V" horiz-adv-x="1392" d="M12 1434h318l366 -1094l367 1094h317l-526 -1434h-313z" />
<glyph unicode="W" horiz-adv-x="2000" d="M18 1434h316l248 -1074l284 1074h267l284 -1074l250 1074h313l-383 -1434h-327l-271 989l-270 -989h-326z" />
<glyph unicode="X" horiz-adv-x="1306" d="M14 0l465 729l-450 705h342l278 -482l281 482h340l-451 -705l467 -729h-321q-147 236 -316 512l-313 -512h-322z" />
<glyph unicode="Y" horiz-adv-x="1196" d="M14 1434h326l258 -514l258 514h326l-441 -779v-655h-286v655z" />
<glyph unicode="Z" horiz-adv-x="1234" d="M66 0v188l704 990h-684v256h1069v-189l-709 -989h715v-256h-1095z" />
<glyph unicode="[" horiz-adv-x="679" d="M92 -340v1978h457v-243h-176v-1491h176v-244h-457z" />
<glyph unicode="\" horiz-adv-x="925" d="M31 1536h248l616 -1757h-248z" />
<glyph unicode="]" horiz-adv-x="684" d="M131 -96h176v1491h-176v243h457v-1978h-457v244z" />
<glyph unicode="^" horiz-adv-x="1140" d="M80 651l375 783h231l375 -783h-264l-228 508l-227 -508h-262z" />
<glyph unicode="_" horiz-adv-x="1257" d="M49 -59h1157v-222h-1157v222z" />
<glyph unicode="`" horiz-adv-x="989" d="M276 1485h297l138 -295h-236z" />
<glyph unicode="a" horiz-adv-x="1077" d="M49 332q0 159 114.5 256.5t301.5 97.5q75 0 136 -17.5t95 -41.5v69q0 72 -51 115t-143 43q-137 0 -285 -76l-106 193q78 54 191.5 90.5t229.5 36.5q125 0 214 -31t139 -89.5t72 -131.5t22 -168v-678h-250l-18 70q-90 -97 -260 -97q-169 0 -285.5 98t-116.5 261zM332 340 q0 -65 53 -106t133 -41q81 0 132.5 40t51.5 107q0 69 -51.5 109t-134.5 40q-82 0 -133 -41.5t-51 -107.5z" />
<glyph unicode="b" horiz-adv-x="1269" d="M111 0v1481h282v-523q13 18 36.5 38.5t62.5 45t97 40.5t122 16q229 0 368.5 -156.5t139.5 -406.5q0 -247 -147.5 -404.5t-377.5 -157.5q-64 0 -121 16t-96.5 41t-62 44t-37.5 37v-111h-266zM385 532q0 -132 74.5 -220.5t199.5 -88.5q122 0 198.5 84t76.5 225 q0 140 -76 228t-199 88q-120 0 -197 -84.5t-77 -231.5z" />
<glyph unicode="c" horiz-adv-x="1003" d="M51 532q0 161 74 290.5t204.5 202.5t291.5 73q185 0 337 -115l-79 -238q-113 103 -250 103q-133 0 -214 -90t-81 -223q0 -137 86 -224.5t219 -87.5q126 0 242 96l75 -231q-143 -115 -333 -115q-250 0 -411 157t-161 402z" />
<glyph unicode="d" horiz-adv-x="1269" d="M51 535q0 250 139.5 406.5t368.5 156.5q64 0 122 -16t97 -40.5t62.5 -45t36.5 -38.5v523h282v-1481h-266v111q-15 -18 -38 -37t-62.5 -44t-96.5 -41t-121 -16q-230 0 -377 157.5t-147 404.5zM336 532q0 -141 76 -225t198 -84q125 0 200 88.5t75 220.5q0 147 -77.5 231.5 t-197.5 84.5q-123 0 -198.5 -88t-75.5 -228z" />
<glyph unicode="e" horiz-adv-x="1144" d="M53 532q0 160 67 289.5t187.5 203t270.5 73.5q247 0 383.5 -153.5t136.5 -418.5q0 -41 -2 -61h-754q5 -108 83 -177t196 -69q96 0 161.5 41.5t98.5 89.5l186 -141q-14 -26 -37 -54t-63.5 -61.5t-88.5 -59.5t-117 -43.5t-145 -17.5q-169 0 -297.5 72.5t-197 199 t-68.5 287.5zM350 649h461q-4 98 -68 157.5t-161 59.5t-160 -61t-72 -156z" />
<glyph unicode="f" horiz-adv-x="667" d="M45 842v229h115v39q0 101 31.5 175t88 115.5t125 61t150.5 19.5q52 0 92 -4v-238q-1 0 -20.5 2t-34.5 2q-150 0 -150 -139v-33h187v-229h-187v-842h-282v842h-115z" />
<glyph unicode="g" horiz-adv-x="1259" d="M49 535q0 247 146.5 405t375.5 158q63 0 120.5 -15.5t96.5 -39.5t64 -45t39 -40v113h266v-936q0 -117 -30 -208t-81.5 -150.5t-125.5 -98t-157 -55t-181 -16.5q-105 0 -211 28t-183 70l86 217q27 -14 62.5 -28t106 -30t137.5 -16q62 0 112 10.5t92.5 33.5t66 66t23.5 103 v50q-12 -16 -34 -35.5t-60 -44.5t-96 -41.5t-123 -16.5q-230 0 -371 156.5t-141 405.5zM334 537q0 -140 76.5 -227t197.5 -87q123 0 199 86t76 228q0 137 -76.5 224t-200.5 87q-121 0 -196.5 -85.5t-75.5 -225.5z" />
<glyph unicode="h" horiz-adv-x="1150" d="M111 0v1481h282v-535q38 63 112 107.5t171 44.5q64 0 117 -15t91 -40.5t67 -62.5t47 -77.5t29 -90t15.5 -96t4.5 -98.5v-618h-281v651q0 87 -52 140t-126 53q-88 0 -141.5 -56.5t-53.5 -144.5v-643h-282z" />
<glyph unicode="i" d="M86 1329q0 69 47.5 115.5t116.5 46.5q71 0 118.5 -46.5t47.5 -115.5t-47.5 -115.5t-118.5 -46.5q-69 0 -116.5 46.5t-47.5 115.5zM111 0v1071h282v-1071h-282z" />
<glyph unicode="j" d="M-86 -147q29 -5 49 -5q148 0 148 150v1073h282v-1085q0 -103 -31 -178t-87.5 -117.5t-128.5 -62t-162 -19.5l-70 4v240zM86 1329q0 69 47.5 115.5t116.5 46.5q71 0 118.5 -46.5t47.5 -115.5t-47.5 -115.5t-118.5 -46.5q-69 0 -116.5 46.5t-47.5 115.5z" />
<glyph unicode="k" horiz-adv-x="1089" d="M111 0v1481h282v-860l344 450h318l-377 -485l405 -586h-331l-359 553v-553h-282z" />
<glyph unicode="l" d="M111 0v1481h282v-1481h-282z" />
<glyph unicode="m" horiz-adv-x="1742" d="M111 0v1071h276v-125q33 63 105.5 107.5t173.5 44.5q100 0 175 -42.5t117 -117.5q48 75 130.5 117.5t187.5 42.5q178 0 271 -106.5t93 -284.5v-707h-282v641q0 95 -45 149t-123 54t-126 -55t-48 -150v-639h-283v651q0 91 -44 142t-122 51q-77 0 -125.5 -55t-48.5 -148 v-641h-282z" />
<glyph unicode="n" horiz-adv-x="1146" d="M111 0v1071h276v-125q38 62 114 107t173 45q88 0 155 -28.5t107 -74.5t65 -111t34 -128.5t9 -137.5v-618h-282v651q0 87 -52 140t-126 53q-86 0 -138.5 -56.5t-52.5 -144.5v-643h-282z" />
<glyph unicode="o" horiz-adv-x="1255" d="M51 532q0 160 75.5 290t207.5 203t293 73q162 0 294 -73.5t207.5 -203t75.5 -289.5q0 -243 -162.5 -401t-414.5 -158q-250 0 -413 158t-163 401zM334 532q0 -136 83 -222.5t210 -86.5q128 0 211.5 86.5t83.5 222.5q0 137 -84 226.5t-211 89.5q-128 0 -210.5 -89 t-82.5 -227z" />
<glyph unicode="p" horiz-adv-x="1271" d="M111 -383v1454h266v-113q14 18 37.5 38t62.5 45t96 41t121 16q230 0 377.5 -157.5t147.5 -403.5q0 -251 -139.5 -407.5t-368.5 -156.5q-64 0 -122 16t-97 40.5t-62.5 44.5t-36.5 37v-494h-282zM385 539q0 -147 77 -231.5t197 -84.5q123 0 199 88t76 228q0 141 -76.5 225 t-198.5 84q-125 0 -199.5 -88.5t-74.5 -220.5z" />
<glyph unicode="q" horiz-adv-x="1271" d="M51 537q0 246 147 403.5t377 157.5q64 0 121.5 -16t96.5 -41t62.5 -45t37.5 -38v113h266v-1454h-282v494q-13 -17 -36.5 -37t-62.5 -44.5t-97 -40.5t-122 -16q-229 0 -368.5 156.5t-139.5 407.5zM336 539q0 -140 75.5 -228t198.5 -88q120 0 197.5 84.5t77.5 231.5 q0 132 -75 220.5t-200 88.5q-122 0 -198 -84t-76 -225z" />
<glyph unicode="r" horiz-adv-x="737" d="M111 0v1071h276v-156q36 82 114 132.5t181 50.5v-287q-152 0 -220.5 -88.5t-68.5 -255.5v-467h-282z" />
<glyph unicode="s" horiz-adv-x="890" d="M39 172l166 147q101 -116 246 -116q61 0 96 25.5t35 70.5q0 33 -28 58t-72.5 43t-98.5 37t-108 46t-98.5 63t-72.5 96.5t-28 137.5q0 146 110 232t279 86q137 0 228 -56.5t138 -134.5l-186 -139q-82 102 -192 102q-50 0 -80.5 -23.5t-30.5 -62.5q0 -34 28 -59t73 -42 t99 -34.5t108 -43.5t99 -60.5t73 -94t28 -137.5q0 -154 -117.5 -247t-294.5 -93q-145 0 -247 59t-152 140z" />
<glyph unicode="t" horiz-adv-x="681" d="M23 842v229h114v225h279v-225h200v-229h-200v-414q0 -115 35.5 -153.5t121.5 -38.5q29 0 52 2v-242q-43 -10 -121 -10q-190 0 -279.5 107t-89.5 327v422h-112z" />
<glyph unicode="u" horiz-adv-x="1138" d="M102 453v618h283v-651q0 -87 52 -140t126 -53q86 0 138.5 56.5t52.5 144.5v643h282v-1071h-276v125q-38 -62 -114 -107t-173 -45q-88 0 -155.5 28.5t-107.5 74.5t-65 111t-34 128.5t-9 137.5z" />
<glyph unicode="v" horiz-adv-x="1110" d="M8 1071h301l246 -770l246 770h301l-383 -1071h-328z" />
<glyph unicode="w" horiz-adv-x="1695" d="M14 1071h308l188 -760l205 760h266l203 -760l190 760h307l-321 -1071h-316l-196 686l-199 -686h-315z" />
<glyph unicode="x" horiz-adv-x="1089" d="M10 0l377 547l-360 524h317l201 -326l200 326h318l-361 -524l377 -547h-307l-227 336l-230 -336h-305z" />
<glyph unicode="y" horiz-adv-x="1105" d="M12 1071h303l240 -698l242 698h295l-547 -1438h-271l150 394z" />
<glyph unicode="z" horiz-adv-x="958" d="M57 0v174l484 662h-469v235h819v-176l-483 -659h489v-236h-840z" />
<glyph unicode="{" horiz-adv-x="794" d="M57 518v264q150 0 150 203v219q0 434 457 434v-243q-179 0 -179 -174v-303q0 -66 -19 -119.5t-47.5 -83.5t-52 -45.5t-42.5 -20.5q18 -4 42 -19.5t52.5 -45t47.5 -82.5t19 -119v-305q0 -174 179 -174v-244q-457 0 -457 434v221q0 203 -150 203z" />
<glyph unicode="|" horiz-adv-x="577" d="M156 -481v2169h266v-2169h-266z" />
<glyph unicode="}" horiz-adv-x="794" d="M131 -96q178 0 178 174v305q0 66 19.5 119t47.5 82.5t52.5 45t42.5 19.5q-19 5 -42.5 20.5t-52.5 45.5t-48 83.5t-19 119.5v303q0 174 -178 174v243q457 0 457 -434v-219q0 -203 149 -203v-264q-149 0 -149 -203v-221q0 -434 -457 -434v244z" />
<glyph unicode="~" horiz-adv-x="1118" d="M72 442q0 162 81.5 262.5t219.5 100.5q62 0 128.5 -26.5t124.5 -52.5t99 -26q47 0 72.5 29t27.5 76h219q0 -154 -81 -257.5t-218 -103.5q-52 0 -104 16.5t-88 36t-80.5 36t-83.5 16.5q-47 0 -72.5 -30t-25.5 -77h-219z" />
<glyph unicode="&#xa1;" horiz-adv-x="598" d="M125 975q0 71 50.5 121.5t123.5 50.5t123.5 -50.5t50.5 -121.5q0 -73 -50.5 -124.5t-123.5 -51.5t-123.5 51.5t-50.5 124.5zM150 -313l22 1026h254l23 -1026h-299z" />
<glyph unicode="&#xa2;" horiz-adv-x="1003" d="M51 688q0 221 136.5 376t351.5 183v187h178v-189q128 -22 241 -106l-79 -238q-113 103 -250 103q-133 0 -214 -90.5t-81 -223.5q0 -136 85.5 -223.5t219.5 -87.5q126 0 242 96l75 -231q-107 -85 -239 -107v-137h-178v133q-218 28 -353 180t-135 375z" />
<glyph unicode="&#xa3;" horiz-adv-x="1173" d="M72 0v252h118v346h-104v217h104v209q0 192 126 314t331 122q76 0 141.5 -20.5t110 -51.5t79.5 -72.5t54.5 -79t30.5 -75.5l-236 -100q-46 123 -178 123q-75 0 -123.5 -49t-48.5 -125v-195h318v-217h-318v-346h619v-252h-1024z" />
<glyph unicode="&#xa5;" horiz-adv-x="1196" d="M20 1434h326l258 -514l258 514h326l-336 -592h197v-187h-301v-145h301v-186h-301v-324h-287v324h-316v186h316v145h-316v187h209z" />
<glyph unicode="&#xa7;" horiz-adv-x="1046" d="M68 563q0 89 47.5 160.5t128.5 110.5q-154 122 -154 290t117 272.5t313 104.5q82 0 153.5 -22.5t119.5 -55.5t87 -76.5t59.5 -80.5t33.5 -72l-236 -102q-28 61 -82.5 105t-134.5 44q-63 0 -102 -34t-39 -87q0 -50 33 -87.5t100 -78.5l236 -139q110 -65 169.5 -145 t59.5 -189q0 -91 -47 -161.5t-131 -110.5q155 -123 155 -291q0 -167 -116.5 -271t-311.5 -104q-82 0 -154 22t-120.5 55t-87.5 76t-60 80t-34 72l235 103q28 -60 84 -104t137 -44q64 0 102 32t38 87q0 50 -33.5 87.5t-102.5 78.5l-256 154q-99 59 -152.5 135.5t-53.5 185.5z M332 567q0 -70 63 -104l189 -107q58 1 93.5 35.5t35.5 83.5q0 73 -84 119l-170 92q-58 -1 -92.5 -35.5t-34.5 -83.5z" />
<glyph unicode="&#xa8;" horiz-adv-x="989" d="M158 1337q0 58 39.5 99t99.5 41q59 0 99 -41t40 -99q0 -59 -39.5 -99t-99.5 -40q-61 0 -100 40t-39 99zM551 1337q0 59 38.5 99.5t100.5 40.5q59 0 99 -41t40 -99q0 -59 -39.5 -99t-99.5 -40q-62 0 -100.5 39.5t-38.5 99.5z" />
<glyph unicode="&#xa9;" horiz-adv-x="1617" d="M72 713q0 155 55.5 293t152.5 237.5t234 158t293 58.5q210 0 379.5 -99t263.5 -269.5t94 -378.5q0 -206 -94 -375.5t-263 -268t-378 -98.5t-378.5 98.5t-264 268t-94.5 375.5zM260 717q0 -165 68.5 -296t194.5 -205.5t286 -74.5t285.5 74.5t193.5 205.5t68 296 q0 248 -152.5 409.5t-396.5 161.5q-241 0 -394 -161.5t-153 -409.5zM440 715q0 168 105 280.5t270 112.5q191 0 303 -156l-149 -121q-61 82 -152 82q-76 0 -120 -55t-44 -143t44 -143.5t120 -55.5q91 0 152 82l149 -119q-109 -157 -303 -157q-165 0 -270 112.5t-105 280.5z " />
<glyph unicode="&#xaa;" horiz-adv-x="841" d="M70 885q0 120 85 193t226 73q98 0 172 -41v47q0 53 -37.5 84t-105.5 31q-108 0 -215 -58l-82 148q146 98 321 98q93 0 159.5 -23.5t104 -68t54 -100t16.5 -127.5v-508h-190l-15 49q-68 -68 -192 -68q-128 0 -214.5 73t-86.5 198zM283 891q0 -49 39 -79t100 -30 q60 0 98.5 29.5t38.5 79.5t-38.5 79t-98.5 29q-61 0 -100 -30.5t-39 -77.5z" />
<glyph unicode="&#xab;" horiz-adv-x="1003" d="M57 600l250 385h252l-250 -385l250 -383h-252zM442 600l250 385h252l-250 -385l250 -383h-252z" />
<glyph unicode="&#xad;" horiz-adv-x="755" d="M92 496v254h570v-254h-570z" />
<glyph unicode="&#xae;" horiz-adv-x="925" d="M33 1094q0 181 119 303.5t307 122.5q196 0 315 -121t119 -303q0 -178 -119 -301t-311 -123t-311 120t-119 302zM147 1094q0 -138 85.5 -228t230.5 -90q146 0 230.5 89.5t84.5 230.5q0 143 -85 230t-234 87q-143 0 -227.5 -88.5t-84.5 -230.5zM299 877v442h180 q72 0 116 -42t44 -101q0 -43 -20.5 -75.5t-49.5 -45.5l82 -178h-125l-63 153h-43v-153h-121zM420 1128h49q19 0 32 13t13 33t-13 31.5t-32 11.5h-49v-89z" />
<glyph unicode="&#xaf;" horiz-adv-x="911" d="M180 1235v207h549v-207h-549z" />
<glyph unicode="&#xb0;" horiz-adv-x="774" d="M55 1135q0 138 94 231.5t238 93.5q143 0 236.5 -93t93.5 -230q0 -138 -92.5 -230t-237.5 -92t-238.5 92t-93.5 228zM258 1137q0 -58 35.5 -94.5t93.5 -36.5q61 0 95 36t34 95q0 56 -35.5 93.5t-93.5 37.5t-93.5 -37.5t-35.5 -93.5z" />
<glyph unicode="&#xb2;" horiz-adv-x="737" d="M68 1229q11 37 31 71.5t54 70.5t88 57.5t121 21.5q131 0 216.5 -71t85.5 -195q0 -59 -31.5 -110t-79 -87.5t-96.5 -67.5t-90 -62.5t-52 -59.5h359v-176h-598v86q0 57 27.5 110t68 91t88.5 76t88.5 66.5t68 62t27.5 63.5q0 38 -24 61t-66 23q-81 0 -116 -93z" />
<glyph unicode="&#xb3;" horiz-adv-x="731" d="M63 823q28 12 84.5 32.5t83.5 31.5q38 -94 123 -94q44 0 71.5 25.5t27.5 68.5q0 45 -32 70.5t-85 25.5h-92v139l133 135h-277v177h541v-140l-182 -182q91 -11 151 -74t60 -164q0 -128 -87.5 -199t-220.5 -71q-67 0 -122 21.5t-89.5 56.5t-55 69.5t-32.5 71.5z" />
<glyph unicode="&#xb4;" horiz-adv-x="989" d="M276 1190l138 295h297l-199 -295h-236z" />
<glyph unicode="&#xb6;" horiz-adv-x="1116" d="M74 1049q0 164 111.5 274.5t275.5 110.5h217v-1526h-219v754q-163 2 -274 112.5t-111 274.5zM801 -92v1526h219v-1526h-219z" />
<glyph unicode="&#xb7;" horiz-adv-x="509" d="M80 641q0 73 50.5 124.5t123.5 51.5t123.5 -51.5t50.5 -124.5q0 -71 -50.5 -121.5t-123.5 -50.5t-123.5 50.5t-50.5 121.5z" />
<glyph unicode="&#xb8;" horiz-adv-x="911" d="M270 -459l33 146q44 -11 68 -11q38 0 63 17.5t25 50.5q0 31 -30 47t-73 16l-34 -4l32 222h148l-17 -105q73 -15 114.5 -67t41.5 -121q0 -97 -72 -153t-180 -56q-59 0 -119 18z" />
<glyph unicode="&#xb9;" horiz-adv-x="585" d="M84 1372l176 62h176v-813h-213v604l-86 -33z" />
<glyph unicode="&#xba;" horiz-adv-x="983" d="M57 1034q0 184 124 305t311 121q190 0 311 -120t121 -304q0 -182 -124 -302t-311 -120q-188 0 -310 119t-122 301zM274 1034q0 -101 60.5 -165t154.5 -64q95 0 157.5 65.5t62.5 165.5q0 102 -62.5 167t-157.5 65t-155 -65.5t-60 -168.5z" />
<glyph unicode="&#xbb;" horiz-adv-x="1003" d="M57 217l250 383l-250 385h252l250 -385l-250 -383h-252zM442 217l250 383l-250 385h252l250 -385l-250 -383h-252z" />
<glyph unicode="&#xbc;" horiz-adv-x="1701" d="M102 1372l177 62h176v-813h-213v604l-86 -33zM330 -84l766 1602h243l-768 -1602h-241zM961 150v157l358 506h233v-483h90v-180h-90v-150h-213v150h-378zM1161 330h178v262z" />
<glyph unicode="&#xbd;" horiz-adv-x="1726" d="M102 1372l177 62h176v-813h-213v604l-86 -33zM299 -84l766 1602h244l-768 -1602h-242zM1028 608q11 37 31.5 72t54.5 70.5t88 57t121 21.5q130 0 215.5 -71t85.5 -195q0 -59 -31.5 -110t-79 -87.5t-96 -67.5t-89.5 -62.5t-52 -59.5h358v-176h-598v86q0 50 20.5 96 t53 81.5t71.5 68t78.5 61t72 54.5t53 54t20.5 54q0 38 -24 61t-66 23q-83 0 -117 -92z" />
<glyph unicode="&#xbe;" horiz-adv-x="1794" d="M74 823q28 12 84.5 32.5t83.5 31.5q38 -94 123 -94q44 0 71 25.5t27 68.5q0 45 -32 70.5t-85 25.5h-92v139l133 135h-276v177h540v-140l-182 -182q91 -11 151 -74t60 -164q0 -128 -87.5 -199t-219.5 -71q-67 0 -122 21.5t-89.5 56.5t-55 69.5t-32.5 71.5zM424 -84 l766 1602h244l-768 -1602h-242zM1036 150v157l359 506h233v-483h90v-180h-90v-150h-213v150h-379zM1237 330h178v262z" />
<glyph unicode="&#xbf;" horiz-adv-x="987" d="M59 57q0 62 19 117.5t49 96t66.5 77.5t73 69.5t66.5 64.5t49 69.5t19 77.5v84h275v-101q0 -56 -18 -106t-47 -87t-64 -71.5t-70 -65.5t-64 -62t-47 -68.5t-18 -77.5q0 -63 47 -108.5t125 -45.5q127 0 182 127l226 -100q-13 -37 -33 -73.5t-55.5 -76t-79 -69t-107.5 -49 t-137 -19.5q-199 0 -328 111.5t-129 285.5zM365 975q0 71 50.5 121.5t123.5 50.5t123.5 -50.5t50.5 -121.5q0 -73 -50.5 -124.5t-123.5 -51.5t-123.5 51.5t-50.5 124.5z" />
<glyph unicode="&#xc0;" horiz-adv-x="1351" d="M16 0l508 1434h303l508 -1434h-291l-124 369h-488l-125 -369h-291zM367 1806h297l137 -295h-236zM510 608h334l-168 516z" />
<glyph unicode="&#xc1;" horiz-adv-x="1351" d="M16 0l508 1434h303l508 -1434h-291l-124 369h-488l-125 -369h-291zM510 608h334l-168 516zM537 1511l137 295h297l-199 -295h-235z" />
<glyph unicode="&#xc2;" horiz-adv-x="1351" d="M16 0l508 1434h303l508 -1434h-291l-124 369h-488l-125 -369h-291zM336 1513l194 287h291l195 -287h-240l-100 146l-101 -146h-239zM510 608h334l-168 516z" />
<glyph unicode="&#xc3;" horiz-adv-x="1351" d="M16 0l508 1434h303l508 -1434h-291l-124 369h-488l-125 -369h-291zM315 1522q0 123 62.5 198.5t163.5 75.5q48 0 97 -19t89 -38t66 -19q30 0 47.5 21t17.5 57h178q0 -125 -60.5 -199.5t-160.5 -74.5q-59 0 -142.5 37.5t-113.5 37.5q-31 0 -48 -20t-17 -57h-179zM510 608 h334l-168 516z" />
<glyph unicode="&#xc4;" horiz-adv-x="1351" d="M16 0l508 1434h303l508 -1434h-291l-124 369h-488l-125 -369h-291zM340 1663q0 58 39.5 98.5t99.5 40.5q59 0 99 -40.5t40 -98.5q0 -59 -39.5 -99t-99.5 -40q-61 0 -100 40t-39 99zM510 608h334l-168 516zM733 1663q0 58 38.5 98.5t100.5 40.5q59 0 99.5 -40.5 t40.5 -98.5q0 -59 -40 -99t-100 -40q-62 0 -100.5 39.5t-38.5 99.5z" />
<glyph unicode="&#xc5;" horiz-adv-x="1351" d="M16 0l508 1434h303l508 -1434h-291l-124 369h-488l-125 -369h-291zM457 1700q0 90 62 146.5t155 56.5q96 0 158.5 -56t62.5 -145q0 -90 -62.5 -147.5t-158.5 -57.5q-93 0 -155 57t-62 146zM510 608h334l-168 516zM598 1700q0 -35 21.5 -57.5t56.5 -22.5t56.5 22.5 t21.5 59.5q0 34 -21.5 56t-56.5 22t-56.5 -22.5t-21.5 -57.5z" />
<glyph unicode="&#xc6;" horiz-adv-x="1755" d="M16 0l748 1434h881v-260h-447v-320h383v-256h-383v-340h465v-258h-754v369h-393l-186 -369h-314zM623 608h286v545h-10z" />
<glyph unicode="&#xc7;" horiz-adv-x="1306" d="M61 717q0 156 56.5 293.5t155 236.5t238 156t298.5 57q249 0 426 -131l-82 -254q-66 46 -156 80.5t-188 34.5q-194 0 -320.5 -135t-126.5 -338q0 -206 126 -339.5t321 -133.5q188 0 356 116l82 -251q-186 -136 -438 -136l-29 2l-8 -55q73 -15 114.5 -67t41.5 -121 q0 -97 -72 -153t-180 -56q-59 0 -119 18l33 146q44 -11 67 -11q38 0 63 17.5t25 50.5q0 32 -29.5 47.5t-72.5 15.5l-35 -4l27 187q-261 54 -417.5 253t-156.5 474z" />
<glyph unicode="&#xc8;" horiz-adv-x="985" d="M137 0v1434h737v-260h-448v-320h385v-256h-385v-340h467v-258h-756zM240 1806h297l137 -295h-236z" />
<glyph unicode="&#xc9;" horiz-adv-x="985" d="M137 0v1434h737v-260h-448v-320h385v-256h-385v-340h467v-258h-756zM365 1511l137 295h297l-199 -295h-235z" />
<glyph unicode="&#xca;" horiz-adv-x="985" d="M137 0v1434h737v-260h-448v-320h385v-256h-385v-340h467v-258h-756zM174 1513l195 287h290l195 -287h-240l-100 146l-100 -146h-240z" />
<glyph unicode="&#xcb;" horiz-adv-x="985" d="M137 0v1434h737v-260h-448v-320h385v-256h-385v-340h467v-258h-756zM180 1663q0 58 39.5 98.5t99.5 40.5q59 0 99.5 -40.5t40.5 -98.5q0 -59 -40 -99t-100 -40q-61 0 -100 40t-39 99zM573 1663q0 58 39 98.5t101 40.5q59 0 99 -40.5t40 -98.5q0 -59 -39.5 -99t-99.5 -40 q-62 0 -101 40t-39 99z" />
<glyph unicode="&#xcc;" horiz-adv-x="563" d="M4 1806h297l137 -295h-235zM137 0v1434h289v-1434h-289z" />
<glyph unicode="&#xcd;" horiz-adv-x="563" d="M137 0v1434h289v-1434h-289zM141 1511l138 295h296l-198 -295h-236z" />
<glyph unicode="&#xce;" horiz-adv-x="563" d="M-53 1513l194 287h291l195 -287h-240l-100 146l-101 -146h-239zM137 0v1434h289v-1434h-289z" />
<glyph unicode="&#xcf;" horiz-adv-x="563" d="M-41 1663q0 58 39.5 98.5t99.5 40.5q59 0 99.5 -40.5t40.5 -98.5q0 -59 -40 -99t-100 -40q-61 0 -100 40t-39 99zM137 0v1434h289v-1434h-289zM352 1663q0 58 39 98.5t101 40.5q59 0 99 -40.5t40 -98.5q0 -59 -39.5 -99t-99.5 -40q-62 0 -101 40t-39 99z" />
<glyph unicode="&#xd0;" horiz-adv-x="1363" d="M45 594v254h115v586h379q354 0 557.5 -190.5t203.5 -526.5q0 -341 -203.5 -529t-557.5 -188h-379v594h-115zM449 250h102q207 0 327.5 120t120.5 347q0 222 -121 343.5t-327 121.5h-102v-334h223v-254h-223v-344z" />
<glyph unicode="&#xd1;" horiz-adv-x="1460" d="M135 0v1434h293l612 -979v979h285v-1434h-287l-618 971v-971h-285zM377 1522q0 123 62 198.5t163 75.5q48 0 97 -19t89 -38t66 -19q31 0 48.5 21t17.5 57h178q0 -125 -60.5 -199.5t-160.5 -74.5q-59 0 -142.5 37.5t-113.5 37.5q-31 0 -48.5 -20t-17.5 -57h-178z" />
<glyph unicode="&#xd2;" horiz-adv-x="1613" d="M61 717q0 208 94 377t265 267.5t387 98.5t387 -98.5t264.5 -267.5t93.5 -377q0 -157 -55 -294t-152 -236.5t-236.5 -156.5t-301.5 -57q-216 0 -387 97.5t-265 267.5t-94 379zM362 717q0 -206 126 -339.5t319 -133.5t318.5 133.5t125.5 339.5q0 203 -125.5 338t-318.5 135 t-319 -135t-126 -338zM510 1806h297l137 -295h-235z" />
<glyph unicode="&#xd3;" horiz-adv-x="1613" d="M61 717q0 208 94 377t265 267.5t387 98.5t387 -98.5t264.5 -267.5t93.5 -377q0 -157 -55 -294t-152 -236.5t-236.5 -156.5t-301.5 -57q-216 0 -387 97.5t-265 267.5t-94 379zM362 717q0 -206 126 -339.5t319 -133.5t318.5 133.5t125.5 339.5q0 203 -125.5 338t-318.5 135 t-319 -135t-126 -338zM662 1511l137 295h297l-199 -295h-235z" />
<glyph unicode="&#xd4;" horiz-adv-x="1613" d="M61 717q0 208 94 377t265 267.5t387 98.5t387 -98.5t264.5 -267.5t93.5 -377q0 -157 -55 -294t-152 -236.5t-236.5 -156.5t-301.5 -57q-216 0 -387 97.5t-265 267.5t-94 379zM362 717q0 -206 126 -339.5t319 -133.5t318.5 133.5t125.5 339.5q0 203 -125.5 338t-318.5 135 t-319 -135t-126 -338zM473 1513l195 287h290l195 -287h-240l-100 146l-100 -146h-240z" />
<glyph unicode="&#xd5;" horiz-adv-x="1613" d="M61 717q0 208 94 377t265 267.5t387 98.5t387 -98.5t264.5 -267.5t93.5 -377q0 -157 -55 -294t-152 -236.5t-236.5 -156.5t-301.5 -57q-216 0 -387 97.5t-265 267.5t-94 379zM362 717q0 -206 126 -339.5t319 -133.5t318.5 133.5t125.5 339.5q0 203 -125.5 338t-318.5 135 t-319 -135t-126 -338zM449 1522q0 123 62 198.5t163 75.5q48 0 97 -19t89 -38t66 -19q30 0 47.5 21t17.5 57h178q0 -125 -60.5 -199.5t-160.5 -74.5q-59 0 -142.5 37.5t-113.5 37.5q-31 0 -48 -20t-17 -57h-178z" />
<glyph unicode="&#xd6;" horiz-adv-x="1615" d="M61 717q0 208 94 377t265 267.5t387 98.5t387 -98.5t264.5 -267.5t93.5 -377q0 -157 -55 -294t-152 -236.5t-236.5 -156.5t-301.5 -57q-216 0 -387 97.5t-265 267.5t-94 379zM362 717q0 -206 126 -339.5t319 -133.5t318.5 133.5t125.5 339.5q0 203 -125.5 338t-318.5 135 t-319 -135t-126 -338zM477 1663q0 58 39.5 98.5t99.5 40.5q59 0 99.5 -40.5t40.5 -98.5q0 -59 -40 -99t-100 -40q-61 0 -100 40t-39 99zM870 1663q0 58 39 98.5t101 40.5q59 0 99 -40.5t40 -98.5q0 -59 -39.5 -99t-99.5 -40q-62 0 -101 40t-39 99z" />
<glyph unicode="&#xd7;" horiz-adv-x="1083" d="M68 301l315 334l-315 334l159 159l312 -331l311 331l160 -159l-316 -334l316 -334l-160 -160l-311 332l-312 -332z" />
<glyph unicode="&#xd8;" horiz-adv-x="1613" d="M61 717q0 208 94 377t265 267.5t387 98.5q208 0 383 -96l94 119l156 -123l-94 -117q99 -100 152.5 -236t53.5 -290q0 -157 -55 -294t-152 -236.5t-236.5 -156.5t-301.5 -57q-217 0 -391 99l-97 -121l-153 123l96 121q-96 99 -148.5 233.5t-52.5 288.5zM362 717 q0 -165 84 -289l566 713q-93 49 -205 49q-193 0 -319 -135t-126 -338zM594 295q94 -51 213 -51q193 0 318.5 133.5t125.5 339.5q0 167 -90 293z" />
<glyph unicode="&#xd9;" horiz-adv-x="1417" d="M131 539v895h289v-895q0 -138 76 -217.5t213 -79.5t212.5 79.5t75.5 217.5v895h289v-895q0 -258 -151.5 -412t-425.5 -154t-426 154t-152 412zM420 1806h297l137 -295h-236z" />
<glyph unicode="&#xda;" horiz-adv-x="1417" d="M131 539v895h289v-895q0 -138 76 -217.5t213 -79.5t212.5 79.5t75.5 217.5v895h289v-895q0 -258 -151.5 -412t-425.5 -154t-426 154t-152 412zM573 1511l138 295h297l-199 -295h-236z" />
<glyph unicode="&#xdb;" horiz-adv-x="1417" d="M131 539v895h289v-895q0 -138 76 -217.5t213 -79.5t212.5 79.5t75.5 217.5v895h289v-895q0 -258 -151.5 -412t-425.5 -154t-426 154t-152 412zM369 1513l194 287h291l195 -287h-240l-100 146l-101 -146h-239z" />
<glyph unicode="&#xdc;" horiz-adv-x="1417" d="M131 539v895h289v-895q0 -138 76 -217.5t213 -79.5t212.5 79.5t75.5 217.5v895h289v-895q0 -258 -151.5 -412t-425.5 -154t-426 154t-152 412zM379 1663q0 58 39.5 98.5t99.5 40.5q59 0 99 -40.5t40 -98.5q0 -59 -39.5 -99t-99.5 -40q-61 0 -100 40t-39 99zM772 1663 q0 58 38.5 98.5t100.5 40.5q59 0 99.5 -40.5t40.5 -98.5q0 -59 -40 -99t-100 -40q-62 0 -100.5 39.5t-38.5 99.5z" />
<glyph unicode="&#xdd;" horiz-adv-x="1196" d="M14 1434h326l258 -514l258 514h326l-441 -779v-655h-286v655zM467 1511l137 295h297l-199 -295h-235z" />
<glyph unicode="&#xde;" horiz-adv-x="1110" d="M137 0v1434h289v-252h168q211 0 341 -122.5t130 -324.5q0 -198 -132.5 -325t-336.5 -127h-170v-283h-289zM426 532h129q95 0 154 56t59 147q0 88 -58.5 142.5t-150.5 54.5h-133v-400z" />
<glyph unicode="&#xdf;" horiz-adv-x="1146" d="M111 0v1110q0 99 33.5 172.5t93 115.5t134 62.5t163.5 20.5q212 0 327 -89t115 -251q0 -83 -40.5 -147t-92.5 -93q254 -124 254 -407q0 -225 -159.5 -359.5t-422.5 -134.5v238q138 0 218.5 68.5t80.5 189.5q0 125 -84.5 188.5t-214.5 63.5v225q86 0 135 37t49 104 q0 54 -41 91.5t-114 37.5t-112.5 -39t-39.5 -110v-1094h-282z" />
<glyph unicode="&#xe0;" horiz-adv-x="1077" d="M49 332q0 159 114.5 256.5t301.5 97.5q75 0 136 -17.5t95 -41.5v69q0 72 -51 115t-143 43q-137 0 -285 -76l-106 193q78 54 191.5 90.5t229.5 36.5q125 0 214 -31t139 -89.5t72 -131.5t22 -168v-678h-250l-18 70q-90 -97 -260 -97q-169 0 -285.5 98t-116.5 261zM260 1485 h297l137 -295h-235zM332 340q0 -65 53 -106t133 -41q81 0 132.5 40t51.5 107q0 69 -51.5 109t-134.5 40q-82 0 -133 -41.5t-51 -107.5z" />
<glyph unicode="&#xe1;" horiz-adv-x="1077" d="M49 332q0 159 114.5 256.5t301.5 97.5q75 0 136 -17.5t95 -41.5v69q0 72 -51 115t-143 43q-137 0 -285 -76l-106 193q78 54 191.5 90.5t229.5 36.5q125 0 214 -31t139 -89.5t72 -131.5t22 -168v-678h-250l-18 70q-90 -97 -260 -97q-169 0 -285.5 98t-116.5 261zM332 340 q0 -65 53 -106t133 -41q81 0 132.5 40t51.5 107q0 69 -51.5 109t-134.5 40q-82 0 -133 -41.5t-51 -107.5zM399 1190l138 295h297l-199 -295h-236z" />
<glyph unicode="&#xe2;" horiz-adv-x="1077" d="M49 332q0 159 114.5 256.5t301.5 97.5q75 0 136 -17.5t95 -41.5v69q0 72 -51 115t-143 43q-137 0 -285 -76l-106 193q78 54 191.5 90.5t229.5 36.5q125 0 214 -31t139 -89.5t72 -131.5t22 -168v-678h-250l-18 70q-90 -97 -260 -97q-169 0 -285.5 98t-116.5 261zM199 1196 l194 287h291l195 -287h-240l-100 145l-101 -145h-239zM332 340q0 -65 53 -106t133 -41q81 0 132.5 40t51.5 107q0 69 -51.5 109t-134.5 40q-82 0 -133 -41.5t-51 -107.5z" />
<glyph unicode="&#xe3;" horiz-adv-x="1077" d="M49 332q0 159 114.5 256.5t301.5 97.5q75 0 136 -17.5t95 -41.5v69q0 72 -51 115t-143 43q-137 0 -285 -76l-106 193q78 54 191.5 90.5t229.5 36.5q125 0 214 -31t139 -89.5t72 -131.5t22 -168v-678h-250l-18 70q-90 -97 -260 -97q-169 0 -285.5 98t-116.5 261zM168 1200 q0 123 62 199t163 76q48 0 97 -19t89 -38t66 -19q31 0 48.5 21t17.5 57h178q0 -126 -60.5 -200.5t-160.5 -74.5q-59 0 -142.5 38t-113.5 38q-31 0 -48.5 -20.5t-17.5 -57.5h-178zM332 340q0 -65 53 -106t133 -41q81 0 132.5 40t51.5 107q0 69 -51.5 109t-134.5 40 q-82 0 -133 -41.5t-51 -107.5z" />
<glyph unicode="&#xe4;" horiz-adv-x="1077" d="M49 332q0 159 114.5 256.5t301.5 97.5q75 0 136 -17.5t95 -41.5v69q0 72 -51 115t-143 43q-137 0 -285 -76l-106 193q78 54 191.5 90.5t229.5 36.5q125 0 214 -31t139 -89.5t72 -131.5t22 -168v-678h-250l-18 70q-90 -97 -260 -97q-169 0 -285.5 98t-116.5 261zM213 1337 q0 58 39.5 99t99.5 41q59 0 99.5 -41t40.5 -99q0 -59 -40 -99t-100 -40q-61 0 -100 40t-39 99zM332 340q0 -65 53 -106t133 -41q81 0 132.5 40t51.5 107q0 69 -51.5 109t-134.5 40q-82 0 -133 -41.5t-51 -107.5zM606 1337q0 59 38.5 99.5t100.5 40.5q59 0 99.5 -41t40.5 -99 q0 -59 -40 -99t-100 -40q-62 0 -100.5 39.5t-38.5 99.5z" />
<glyph unicode="&#xe5;" horiz-adv-x="1077" d="M49 332q0 159 114.5 256.5t301.5 97.5q75 0 136 -17.5t95 -41.5v69q0 72 -51 115t-143 43q-137 0 -285 -76l-106 193q78 54 191.5 90.5t229.5 36.5q125 0 214 -31t139 -89.5t72 -131.5t22 -168v-678h-250l-18 70q-90 -97 -260 -97q-169 0 -285.5 98t-116.5 261zM330 1358 q0 90 62 146.5t155 56.5q96 0 158.5 -56t62.5 -145q0 -90 -62.5 -147.5t-158.5 -57.5q-93 0 -155 57t-62 146zM332 340q0 -65 53 -106t133 -41q81 0 132.5 40t51.5 107q0 69 -51.5 109t-134.5 40q-82 0 -133 -41.5t-51 -107.5zM471 1358q0 -35 21.5 -57.5t56.5 -22.5 t56.5 22.5t21.5 59.5q0 34 -21.5 56t-56.5 22t-56.5 -22.5t-21.5 -57.5z" />
<glyph unicode="&#xe6;" horiz-adv-x="1781" d="M49 332q0 159 114.5 256.5t301.5 97.5q75 0 136 -17.5t95 -41.5v69q0 72 -51 115t-143 43q-137 0 -285 -76q-22 37 -59.5 106.5t-46.5 86.5q192 127 421 127q238 0 342 -135q135 135 338 135q248 0 385.5 -153.5t137.5 -418.5q0 -41 -2 -61h-754q5 -108 82 -177t196 -69 q96 0 162 41.5t99 89.5l186 -141q-14 -26 -37 -54t-63.5 -61.5t-88.5 -59.5t-117 -43.5t-145 -17.5q-136 0 -245.5 46t-180.5 133q-115 -179 -376 -179q-169 0 -285.5 98t-116.5 261zM332 340q0 -65 53 -106t133 -41t131 40t51 107q0 69 -50.5 109t-133.5 40 q-82 0 -133 -41.5t-51 -107.5zM987 649h459q-4 98 -67.5 157.5t-161.5 59.5q-96 0 -158.5 -61t-71.5 -156z" />
<glyph unicode="&#xe7;" horiz-adv-x="1003" d="M51 532q0 161 74 290.5t204.5 202.5t291.5 73q185 0 337 -115l-79 -238q-113 103 -250 103q-133 0 -214 -90t-81 -223q0 -137 86 -224.5t219 -87.5q126 0 242 96l75 -231q-143 -115 -333 -115l-9 -53q73 -15 114.5 -67t41.5 -121q0 -97 -72 -153t-180 -56q-59 0 -119 18 l33 146q44 -11 68 -11q38 0 63 17.5t25 50.5q0 31 -30 47t-73 16l-34 -4l26 187q-193 41 -309.5 188.5t-116.5 353.5z" />
<glyph unicode="&#xe8;" horiz-adv-x="1144" d="M53 532q0 160 67 289.5t187.5 203t270.5 73.5q247 0 383.5 -153.5t136.5 -418.5q0 -41 -2 -61h-754q5 -108 83 -177t196 -69q96 0 161.5 41.5t98.5 89.5l186 -141q-14 -26 -37 -54t-63.5 -61.5t-88.5 -59.5t-117 -43.5t-145 -17.5q-169 0 -297.5 72.5t-197 199 t-68.5 287.5zM297 1485h297l137 -295h-235zM350 649h461q-4 98 -68 157.5t-161 59.5t-160 -61t-72 -156z" />
<glyph unicode="&#xe9;" horiz-adv-x="1144" d="M53 532q0 160 67 289.5t187.5 203t270.5 73.5q247 0 383.5 -153.5t136.5 -418.5q0 -41 -2 -61h-754q5 -108 83 -177t196 -69q96 0 161.5 41.5t98.5 89.5l186 -141q-14 -26 -37 -54t-63.5 -61.5t-88.5 -59.5t-117 -43.5t-145 -17.5q-169 0 -297.5 72.5t-197 199 t-68.5 287.5zM350 649h461q-4 98 -68 157.5t-161 59.5t-160 -61t-72 -156zM432 1190l137 295h297l-198 -295h-236z" />
<glyph unicode="&#xea;" horiz-adv-x="1144" d="M53 532q0 160 67 289.5t187.5 203t270.5 73.5q247 0 383.5 -153.5t136.5 -418.5q0 -41 -2 -61h-754q5 -108 83 -177t196 -69q96 0 161.5 41.5t98.5 89.5l186 -141q-14 -26 -37 -54t-63.5 -61.5t-88.5 -59.5t-117 -43.5t-145 -17.5q-169 0 -297.5 72.5t-197 199 t-68.5 287.5zM248 1196l194 287h291l195 -287h-240l-100 145l-101 -145h-239zM350 649h461q-4 98 -68 157.5t-161 59.5t-160 -61t-72 -156z" />
<glyph unicode="&#xeb;" horiz-adv-x="1144" d="M53 532q0 160 67 289.5t187.5 203t270.5 73.5q247 0 383.5 -153.5t136.5 -418.5q0 -41 -2 -61h-754q5 -108 83 -177t196 -69q96 0 161.5 41.5t98.5 89.5l186 -141q-14 -26 -37 -54t-63.5 -61.5t-88.5 -59.5t-117 -43.5t-145 -17.5q-169 0 -297.5 72.5t-197 199 t-68.5 287.5zM254 1337q0 58 39.5 99t99.5 41q59 0 99 -41t40 -99q0 -59 -39.5 -99t-99.5 -40q-61 0 -100 40t-39 99zM350 649h461q-4 98 -68 157.5t-161 59.5t-160 -61t-72 -156zM647 1337q0 59 38.5 99.5t100.5 40.5q59 0 99.5 -41t40.5 -99q0 -59 -40 -99t-100 -40 q-62 0 -100.5 39.5t-38.5 99.5z" />
<glyph unicode="&#xec;" d="M-29 1485h297l138 -295h-236zM111 0v1071h282v-1071h-282z" />
<glyph unicode="&#xed;" d="M98 1190l138 295h296l-198 -295h-236zM111 0v1071h282v-1071h-282z" />
<glyph unicode="&#xee;" d="M-80 1196l195 287h291l194 -287h-240l-100 145l-100 -145h-240zM111 0v1071h282v-1071h-282z" />
<glyph unicode="&#xef;" d="M-76 1337q0 58 39.5 99t99.5 41q59 0 99.5 -41t40.5 -99q0 -59 -40 -99t-100 -40q-61 0 -100 40t-39 99zM111 0v1071h282v-1071h-282zM317 1337q0 58 39 99t101 41q59 0 99 -41t40 -99q0 -59 -39.5 -99t-99.5 -40q-62 0 -101 40t-39 99z" />
<glyph unicode="&#xf0;" horiz-adv-x="1204" d="M51 512q0 150 69 268t184.5 181t254.5 63q67 0 121 -16q-47 73 -129 133l-326 -117l-24 178l186 70q-66 47 -174 110l162 142q131 -56 287 -158l270 102l26 -184l-143 -53q330 -295 330 -666q0 -95 -20 -181t-63.5 -161.5t-107 -130.5t-156 -87t-204.5 -32 q-162 0 -287 73t-190.5 195t-65.5 271zM334 512q0 -124 70 -207.5t188 -83.5q131 0 200.5 84t69.5 215q0 113 -72 193t-186 80q-126 0 -198 -79.5t-72 -201.5z" />
<glyph unicode="&#xf1;" horiz-adv-x="1146" d="M111 0v1071h276v-125q38 62 114 107t173 45q88 0 155 -28.5t107 -74.5t65 -111t34 -128.5t9 -137.5v-618h-282v651q0 87 -52 140t-126 53q-86 0 -138.5 -56.5t-52.5 -144.5v-643h-282zM217 1200q0 123 62 199t163 76q48 0 97 -19t89 -38t66 -19q31 0 48.5 21t17.5 57h178 q0 -126 -60.5 -200.5t-160.5 -74.5q-59 0 -142.5 38t-113.5 38q-31 0 -48.5 -20.5t-17.5 -57.5h-178z" />
<glyph unicode="&#xf2;" horiz-adv-x="1255" d="M51 532q0 160 75.5 290t207.5 203t293 73q162 0 294 -73.5t207.5 -203t75.5 -289.5q0 -243 -162.5 -401t-414.5 -158q-250 0 -413 158t-163 401zM330 1485h297l137 -295h-236zM334 532q0 -136 83 -222.5t210 -86.5q128 0 211.5 86.5t83.5 222.5q0 137 -84 226.5 t-211 89.5q-128 0 -210.5 -89t-82.5 -227z" />
<glyph unicode="&#xf3;" horiz-adv-x="1255" d="M51 532q0 160 75.5 290t207.5 203t293 73q162 0 294 -73.5t207.5 -203t75.5 -289.5q0 -243 -162.5 -401t-414.5 -158q-250 0 -413 158t-163 401zM334 532q0 -136 83 -222.5t210 -86.5q128 0 211.5 86.5t83.5 222.5q0 137 -84 226.5t-211 89.5q-128 0 -210.5 -89 t-82.5 -227zM477 1190l137 295h297l-198 -295h-236z" />
<glyph unicode="&#xf4;" horiz-adv-x="1255" d="M51 532q0 160 75.5 290t207.5 203t293 73q162 0 294 -73.5t207.5 -203t75.5 -289.5q0 -243 -162.5 -401t-414.5 -158q-250 0 -413 158t-163 401zM295 1196l194 287h291l195 -287h-240l-100 145l-100 -145h-240zM334 532q0 -136 83 -222.5t210 -86.5q128 0 211.5 86.5 t83.5 222.5q0 137 -84 226.5t-211 89.5q-128 0 -210.5 -89t-82.5 -227z" />
<glyph unicode="&#xf5;" horiz-adv-x="1255" d="M51 532q0 160 75.5 290t207.5 203t293 73q162 0 294 -73.5t207.5 -203t75.5 -289.5q0 -243 -162.5 -401t-414.5 -158q-250 0 -413 158t-163 401zM270 1200q0 123 62.5 199t163.5 76q48 0 97 -19t89 -38t66 -19q30 0 47.5 21t17.5 57h178q0 -126 -60.5 -200.5 t-160.5 -74.5q-59 0 -142.5 38t-113.5 38q-31 0 -48 -20.5t-17 -57.5h-179zM334 532q0 -136 83 -222.5t210 -86.5q128 0 211.5 86.5t83.5 222.5q0 137 -84 226.5t-211 89.5q-128 0 -210.5 -89t-82.5 -227z" />
<glyph unicode="&#xf6;" horiz-adv-x="1255" d="M51 532q0 160 75.5 290t207.5 203t293 73q162 0 294 -73.5t207.5 -203t75.5 -289.5q0 -243 -162.5 -401t-414.5 -158q-250 0 -413 158t-163 401zM299 1337q0 58 39.5 99t99.5 41q59 0 99.5 -41t40.5 -99q0 -59 -40 -99t-100 -40q-61 0 -100 40t-39 99zM334 532 q0 -136 83 -222.5t210 -86.5q128 0 211.5 86.5t83.5 222.5q0 137 -84 226.5t-211 89.5q-128 0 -210.5 -89t-82.5 -227zM692 1337q0 59 38.5 99.5t100.5 40.5q59 0 99.5 -41t40.5 -99q0 -59 -40 -99t-100 -40q-62 0 -100.5 39.5t-38.5 99.5z" />
<glyph unicode="&#xf7;" horiz-adv-x="1128" d="M76 524v228h977v-228h-977zM418 246q0 62 42 104.5t103 42.5q62 0 105 -43t43 -104q0 -59 -43.5 -102.5t-104.5 -43.5t-103 43.5t-42 102.5zM418 1026q0 62 42 106t103 44t104.5 -44t43.5 -106q0 -59 -43.5 -101t-104.5 -42t-103 42t-42 101z" />
<glyph unicode="&#xf8;" horiz-adv-x="1255" d="M51 532q0 160 75.5 290t207.5 203t293 73q153 0 284 -70l78 98l135 -104l-75 -96q74 -77 114.5 -178t40.5 -216q0 -243 -162.5 -401t-414.5 -158q-153 0 -281 64l-80 -103l-133 105l76 96q-158 161 -158 397zM334 532q0 -104 47 -178l369 467q-62 27 -123 27 q-128 0 -210.5 -89t-82.5 -227zM512 244q52 -21 115 -21q128 0 211.5 86.5t83.5 222.5q0 99 -45 175z" />
<glyph unicode="&#xf9;" horiz-adv-x="1138" d="M102 453v618h283v-651q0 -87 52 -140t126 -53q86 0 138.5 56.5t52.5 144.5v643h282v-1071h-276v125q-38 -62 -114 -107t-173 -45q-88 0 -155.5 28.5t-107.5 74.5t-65 111t-34 128.5t-9 137.5zM293 1485h297l137 -295h-235z" />
<glyph unicode="&#xfa;" horiz-adv-x="1138" d="M102 453v618h283v-651q0 -87 52 -140t126 -53q86 0 138.5 56.5t52.5 144.5v643h282v-1071h-276v125q-38 -62 -114 -107t-173 -45q-88 0 -155.5 28.5t-107.5 74.5t-65 111t-34 128.5t-9 137.5zM424 1190l137 295h297l-199 -295h-235z" />
<glyph unicode="&#xfb;" horiz-adv-x="1138" d="M102 453v618h283v-651q0 -87 52 -140t126 -53q86 0 138.5 56.5t52.5 144.5v643h282v-1071h-276v125q-38 -62 -114 -107t-173 -45q-88 0 -155.5 28.5t-107.5 74.5t-65 111t-34 128.5t-9 137.5zM236 1196l194 287h291l194 -287h-239l-101 145l-100 -145h-239z" />
<glyph unicode="&#xfc;" horiz-adv-x="1138" d="M102 453v618h283v-651q0 -87 52 -140t126 -53q86 0 138.5 56.5t52.5 144.5v643h282v-1071h-276v125q-38 -62 -114 -107t-173 -45q-88 0 -155.5 28.5t-107.5 74.5t-65 111t-34 128.5t-9 137.5zM246 1337q0 58 39.5 99t99.5 41q59 0 99 -41t40 -99q0 -59 -39.5 -99 t-99.5 -40q-61 0 -100 40t-39 99zM639 1337q0 59 38.5 99.5t100.5 40.5q59 0 99.5 -41t40.5 -99q0 -59 -40 -99t-100 -40q-62 0 -100.5 39.5t-38.5 99.5z" />
<glyph unicode="&#xfd;" horiz-adv-x="1105" d="M12 1071h303l240 -698l242 698h295l-547 -1438h-271l150 394zM416 1190l137 295h297l-199 -295h-235z" />
<glyph unicode="&#xfe;" horiz-adv-x="1271" d="M111 -383v1864h282v-506q117 123 301 123q230 0 377.5 -157.5t147.5 -403.5q0 -251 -139.5 -407.5t-368.5 -156.5q-64 0 -122 16t-97 40.5t-62.5 44.5t-36.5 37v-494h-282zM385 539q0 -147 77 -231.5t197 -84.5q123 0 199 88t76 228t-77 224.5t-198 84.5 q-125 0 -199.5 -88.5t-74.5 -220.5z" />
<glyph unicode="&#xff;" horiz-adv-x="1105" d="M12 1071h303l240 -698l242 698h295l-547 -1438h-271l150 394zM221 1337q0 58 39.5 99t99.5 41q59 0 99.5 -41t40.5 -99q0 -59 -40 -99t-100 -40q-61 0 -100 40t-39 99zM614 1337q0 58 39 99t101 41q59 0 99 -41t40 -99q0 -59 -39.5 -99t-99.5 -40q-62 0 -101 40t-39 99z " />
<glyph unicode="&#x100;" horiz-adv-x="1351" d="M16 0l508 1434h303l508 -1434h-291l-124 369h-488l-125 -369h-291zM401 1538v207h549v-207h-549zM510 608h334l-168 516z" />
<glyph unicode="&#x101;" horiz-adv-x="1077" d="M49 332q0 159 114.5 256.5t301.5 97.5q75 0 136 -17.5t95 -41.5v69q0 72 -51 115t-143 43q-137 0 -285 -76l-106 193q78 54 191.5 90.5t229.5 36.5q125 0 214 -31t139 -89.5t72 -131.5t22 -168v-678h-250l-18 70q-90 -97 -260 -97q-169 0 -285.5 98t-116.5 261zM272 1235 v207h549v-207h-549zM332 340q0 -65 53 -106t133 -41q81 0 132.5 40t51.5 107q0 69 -51.5 109t-134.5 40q-82 0 -133 -41.5t-51 -107.5z" />
<glyph unicode="&#x102;" horiz-adv-x="1351" d="M16 0l508 1434h303l508 -1434h-291l-124 369h-488l-125 -369h-291zM367 1810h202q0 -55 24.5 -91t82.5 -36q108 0 108 127h203q0 -131 -82 -211.5t-229 -80.5q-145 0 -227 81t-82 211zM510 608h334l-168 516z" />
<glyph unicode="&#x103;" horiz-adv-x="1077" d="M49 332q0 159 114.5 256.5t301.5 97.5q75 0 136 -17.5t95 -41.5v69q0 72 -51 115t-143 43q-137 0 -285 -76l-106 193q78 54 191.5 90.5t229.5 36.5q125 0 214 -31t139 -89.5t72 -131.5t22 -168v-678h-250l-18 70q-90 -97 -260 -97q-169 0 -285.5 98t-116.5 261zM225 1483 h203q0 -55 24.5 -91t82.5 -36q108 0 108 127h203q0 -131 -82 -212t-229 -81q-145 0 -227.5 81.5t-82.5 211.5zM332 340q0 -65 53 -106t133 -41q81 0 132.5 40t51.5 107q0 69 -51.5 109t-134.5 40q-82 0 -133 -41.5t-51 -107.5z" />
<glyph unicode="&#x104;" horiz-adv-x="1351" d="M16 0l508 1434h303l508 -1434q-13 -5 -28.5 -14t-36 -25t-34 -40.5t-13.5 -51.5q0 -38 32.5 -60t73.5 -22v-201q-28 -8 -72 -8q-52 0 -96 9t-84.5 30t-64 62.5t-23.5 99.5q0 77 49.5 135t108.5 86h-103l-124 369h-488l-125 -369h-291zM510 608h334l-168 516z" />
<glyph unicode="&#x105;" horiz-adv-x="1077" d="M49 332q0 159 114.5 256.5t301.5 97.5q75 0 136 -17.5t95 -41.5v69q0 72 -51 115t-143 43q-137 0 -285 -76l-106 193q78 54 191.5 90.5t229.5 36.5q125 0 214 -31t139 -89.5t72 -131.5t22 -168v-678q-13 -5 -28.5 -14t-36.5 -25t-34.5 -40.5t-13.5 -51.5q0 -38 33 -60 t74 -22v-201q-28 -8 -72 -8q-52 0 -96 9t-84.5 30t-64 62.5t-23.5 99.5q0 77 49.5 135t108.5 86h-62l-18 70q-90 -97 -260 -97q-169 0 -285.5 98t-116.5 261zM332 340q0 -65 53 -106t133 -41q81 0 132.5 40t51.5 107q0 69 -51.5 109t-134.5 40q-82 0 -133 -41.5t-51 -107.5z " />
<glyph unicode="&#x106;" horiz-adv-x="1306" d="M61 717q0 156 56.5 293.5t155 236.5t238 156t298.5 57q249 0 426 -131l-82 -254q-66 46 -156 80.5t-188 34.5q-194 0 -320.5 -135t-126.5 -338q0 -206 126 -339.5t321 -133.5q188 0 356 116l82 -251q-186 -136 -438 -136q-220 0 -391.5 98t-264 267t-92.5 379zM621 1511 l137 295h297l-199 -295h-235z" />
<glyph unicode="&#x107;" horiz-adv-x="1003" d="M51 532q0 161 74 290.5t204.5 202.5t291.5 73q185 0 337 -115l-79 -238q-113 103 -250 103q-133 0 -214 -90t-81 -223q0 -137 86 -224.5t219 -87.5q126 0 242 96l75 -231q-143 -115 -333 -115q-250 0 -411 157t-161 402zM438 1190l137 295h297l-198 -295h-236z" />
<glyph unicode="&#x108;" horiz-adv-x="1306" d="M61 717q0 156 56.5 293.5t155 236.5t238 156t298.5 57q249 0 426 -131l-82 -254q-66 46 -156 80.5t-188 34.5q-194 0 -320.5 -135t-126.5 -338q0 -206 126 -339.5t321 -133.5q188 0 356 116l82 -251q-186 -136 -438 -136q-220 0 -391.5 98t-264 267t-92.5 379zM463 1513 l194 287h291l195 -287h-240l-100 146l-101 -146h-239z" />
<glyph unicode="&#x109;" horiz-adv-x="1003" d="M51 532q0 161 74 290.5t204.5 202.5t291.5 73q185 0 337 -115l-79 -238q-113 103 -250 103q-133 0 -214 -90t-81 -223q0 -137 86 -224.5t219 -87.5q126 0 242 96l75 -231q-143 -115 -333 -115q-250 0 -411 157t-161 402zM270 1196l195 287h291l194 -287h-239l-101 145 l-100 -145h-240z" />
<glyph unicode="&#x10a;" horiz-adv-x="1306" d="M61 717q0 156 56.5 293.5t155 236.5t238 156t298.5 57q249 0 426 -131l-82 -254q-66 46 -156 80.5t-188 34.5q-194 0 -320.5 -135t-126.5 -338q0 -206 126 -339.5t321 -133.5q188 0 356 116l82 -251q-186 -136 -438 -136q-220 0 -391.5 98t-264 267t-92.5 379zM645 1657 q0 69 47.5 115.5t116.5 46.5q71 0 118.5 -46.5t47.5 -115.5t-47.5 -115.5t-118.5 -46.5q-69 0 -116.5 46.5t-47.5 115.5z" />
<glyph unicode="&#x10b;" horiz-adv-x="1003" d="M49 532q0 244 162 405t407 161q186 0 338 -115l-79 -238q-113 103 -250 103q-133 0 -214 -90t-81 -223q0 -137 86 -224.5t219 -87.5q126 0 242 96l75 -231q-143 -115 -333 -115q-250 0 -411 157t-161 402zM453 1329q0 69 47 115.5t116 46.5q71 0 118.5 -46.5t47.5 -115.5 t-47.5 -115.5t-118.5 -46.5q-69 0 -116 46.5t-47 115.5z" />
<glyph unicode="&#x10c;" horiz-adv-x="1306" d="M61 717q0 156 56.5 293.5t155 236.5t238 156t298.5 57q249 0 426 -131l-82 -254q-66 46 -156 80.5t-188 34.5q-194 0 -320.5 -135t-126.5 -338q0 -206 126 -339.5t321 -133.5q188 0 356 116l82 -251q-186 -136 -438 -136q-220 0 -391.5 98t-264 267t-92.5 379zM463 1800 h239l101 -145l100 145h240l-195 -287h-291z" />
<glyph unicode="&#x10d;" horiz-adv-x="1003" d="M51 532q0 161 74 290.5t204.5 202.5t291.5 73q185 0 337 -115l-79 -238q-113 103 -250 103q-133 0 -214 -90t-81 -223q0 -137 86 -224.5t219 -87.5q126 0 242 96l75 -231q-143 -115 -333 -115q-250 0 -411 157t-161 402zM264 1483h240l100 -146l101 146h239l-194 -287 h-291z" />
<glyph unicode="&#x10e;" horiz-adv-x="1341" d="M137 0v1434h381q353 0 556.5 -190.5t203.5 -526.5q0 -341 -203 -529t-557 -188h-381zM236 1800h239l100 -145l101 145h239l-194 -287h-291zM426 250h102q209 0 329 120t120 347q0 222 -121 343.5t-328 121.5h-102v-932z" />
<glyph unicode="&#x10f;" horiz-adv-x="1269" d="M51 535q0 250 139.5 406.5t368.5 156.5q64 0 122 -16t97 -40.5t62.5 -45t36.5 -38.5v523h282v-1481h-266v111q-15 -18 -38 -37t-62.5 -44t-96.5 -41t-121 -16q-230 0 -377 157.5t-147 404.5zM336 532q0 -141 76 -225t198 -84q125 0 200 88.5t75 220.5q0 147 -77.5 231.5 t-197.5 84.5q-123 0 -198.5 -88t-75.5 -228zM1225 1124l14 357h266l-94 -357h-186z" />
<glyph unicode="&#x110;" horiz-adv-x="1361" d="M45 594v254h115v586h379q354 0 556.5 -190.5t202.5 -526.5q0 -341 -202.5 -529t-556.5 -188h-379v594h-115zM449 250h102q207 0 327.5 120t120.5 347q0 222 -121 343.5t-327 121.5h-102v-334h223v-254h-223v-344z" />
<glyph unicode="&#x111;" horiz-adv-x="1269" d="M51 535q0 250 139.5 406.5t368.5 156.5q64 0 122 -16t97 -40.5t62.5 -45t36.5 -38.5v207h-261v183h261v133h282v-133h119v-183h-119v-1165h-266v111q-15 -18 -38 -37t-62.5 -44t-96.5 -41t-121 -16q-230 0 -377 157.5t-147 404.5zM336 532q0 -141 76 -225t198 -84 q125 0 200 88.5t75 220.5q0 147 -77.5 231.5t-197.5 84.5q-123 0 -198.5 -88t-75.5 -228z" />
<glyph unicode="&#x112;" horiz-adv-x="985" d="M137 0v1434h737v-260h-448v-320h385v-256h-385v-340h467v-258h-756zM246 1538v207h549v-207h-549z" />
<glyph unicode="&#x113;" horiz-adv-x="1144" d="M53 532q0 160 67 289.5t187.5 203t270.5 73.5q247 0 383.5 -153.5t136.5 -418.5q0 -41 -2 -61h-754q5 -108 83 -177t196 -69q96 0 161.5 41.5t98.5 89.5l186 -141q-14 -26 -37 -54t-63.5 -61.5t-88.5 -59.5t-117 -43.5t-145 -17.5q-169 0 -297.5 72.5t-197 199 t-68.5 287.5zM317 1235v207h549v-207h-549zM350 649h461q-4 98 -68 157.5t-161 59.5t-160 -61t-72 -156z" />
<glyph unicode="&#x114;" horiz-adv-x="985" d="M137 0v1434h737v-260h-448v-320h385v-256h-385v-340h467v-258h-756zM203 1810h203q0 -127 106 -127q109 0 109 127h202q0 -131 -82 -211.5t-229 -80.5q-145 0 -227 81t-82 211z" />
<glyph unicode="&#x115;" horiz-adv-x="1144" d="M53 532q0 160 67 289.5t187.5 203t270.5 73.5q247 0 383.5 -153.5t136.5 -418.5q0 -41 -2 -61h-754q5 -108 83 -177t196 -69q96 0 161.5 41.5t98.5 89.5l186 -141q-14 -26 -37 -54t-63.5 -61.5t-88.5 -59.5t-117 -43.5t-145 -17.5q-169 0 -297.5 72.5t-197 199 t-68.5 287.5zM268 1483h203q0 -55 24.5 -91t82.5 -36q108 0 108 127h203q0 -131 -82 -212t-229 -81q-145 0 -227.5 81.5t-82.5 211.5zM350 649h461q-4 98 -68 157.5t-161 59.5t-160 -61t-72 -156z" />
<glyph unicode="&#x116;" horiz-adv-x="985" d="M137 0v1434h737v-260h-448v-320h385v-256h-385v-340h467v-258h-756zM362 1657q0 69 47.5 115.5t116.5 46.5q71 0 118.5 -46.5t47.5 -115.5t-47.5 -115.5t-118.5 -46.5q-69 0 -116.5 46.5t-47.5 115.5z" />
<glyph unicode="&#x117;" horiz-adv-x="1144" d="M53 532q0 160 67 289.5t187.5 203t270.5 73.5q247 0 383.5 -153.5t136.5 -418.5q0 -41 -2 -61h-754q5 -108 83 -177t196 -69q96 0 161.5 41.5t98.5 89.5l186 -141q-14 -26 -37 -54t-63.5 -61.5t-88.5 -59.5t-117 -43.5t-145 -17.5q-169 0 -297.5 72.5t-197 199 t-68.5 287.5zM350 649h461q-4 98 -68 157.5t-161 59.5t-160 -61t-72 -156zM422 1329q0 69 47.5 115.5t116.5 46.5q71 0 118.5 -46.5t47.5 -115.5t-47.5 -115.5t-118.5 -46.5q-69 0 -116.5 46.5t-47.5 115.5z" />
<glyph unicode="&#x118;" horiz-adv-x="985" d="M137 0v1434h737v-260h-448v-320h385v-256h-385v-340h467v-258q-13 -5 -28.5 -14t-36.5 -25t-34.5 -40.5t-13.5 -51.5q0 -38 33 -60t74 -22v-201q-28 -8 -72 -8q-52 0 -96 9t-84.5 30t-64 62.5t-23.5 99.5q0 77 49.5 135t108.5 86h-568z" />
<glyph unicode="&#x119;" horiz-adv-x="1144" d="M53 532q0 160 67 289.5t187.5 203t270.5 73.5q247 0 383.5 -153.5t136.5 -418.5q0 -41 -2 -61h-754q5 -108 83 -177t196 -69q96 0 161.5 41.5t98.5 89.5l186 -141q-53 -89 -156 -156q-77 -50 -115 -90t-38 -90q0 -39 32 -62.5t74 -23.5v-201q-28 -8 -71 -8q-52 0 -96.5 9 t-85 30t-64 62.5t-23.5 99.5q0 114 113 194h-21q-169 0 -297.5 72.5t-197 199t-68.5 287.5zM350 649h461q-4 98 -68 157.5t-161 59.5t-160 -61t-72 -156z" />
<glyph unicode="&#x11a;" horiz-adv-x="985" d="M137 0v1434h737v-260h-448v-320h385v-256h-385v-340h467v-258h-756zM190 1800h240l100 -145l101 145h239l-194 -287h-291z" />
<glyph unicode="&#x11b;" horiz-adv-x="1144" d="M53 532q0 160 67 289.5t187.5 203t270.5 73.5q247 0 383.5 -153.5t136.5 -418.5q0 -41 -2 -61h-754q5 -108 83 -177t196 -69q96 0 161.5 41.5t98.5 89.5l186 -141q-14 -26 -37 -54t-63.5 -61.5t-88.5 -59.5t-117 -43.5t-145 -17.5q-169 0 -297.5 72.5t-197 199 t-68.5 287.5zM242 1483h239l101 -146l100 146h240l-195 -287h-291zM350 649h461q-4 98 -68 157.5t-161 59.5t-160 -61t-72 -156z" />
<glyph unicode="&#x11c;" horiz-adv-x="1529" d="M61 717q0 153 55.5 289.5t152.5 236.5t236.5 158.5t299.5 58.5q106 0 203 -24t166.5 -62.5t116.5 -75.5t79 -75l-182 -189q-21 23 -49 45.5t-74 50.5t-111 45t-137 17q-206 0 -330.5 -135.5t-124.5 -339.5q0 -215 128.5 -344t326.5 -129q131 0 218.5 37t125.5 75v176 h-272v244h543v-567q-64 -55 -122.5 -93.5t-134.5 -73t-168.5 -52t-201.5 -17.5q-121 0 -233 33.5t-204.5 98.5t-161.5 154t-107 207t-38 251zM473 1513l195 287h290l195 -287h-240l-100 146l-100 -146h-240z" />
<glyph unicode="&#x11d;" horiz-adv-x="1259" d="M49 535q0 247 146.5 405t375.5 158q63 0 120.5 -15.5t96.5 -39.5t64 -45t39 -40v113h266v-936q0 -117 -30 -208t-81.5 -150.5t-125.5 -98t-157 -55t-181 -16.5q-105 0 -211 28t-183 70l86 217q27 -14 62.5 -28t106 -30t137.5 -16q62 0 112 10.5t92.5 33.5t66 66t23.5 103 v50q-12 -16 -34 -35.5t-60 -44.5t-96 -41.5t-123 -16.5q-230 0 -371 156.5t-141 405.5zM291 1196l194 287h291l195 -287h-240l-100 145l-101 -145h-239zM334 537q0 -140 76.5 -227t197.5 -87q123 0 199 86t76 228q0 137 -76.5 224t-200.5 87q-121 0 -196.5 -85.5 t-75.5 -225.5z" />
<glyph unicode="&#x11e;" horiz-adv-x="1529" d="M61 717q0 153 55.5 289.5t152.5 236.5t236.5 158.5t299.5 58.5q106 0 203 -24t166.5 -62.5t116.5 -75.5t79 -75l-182 -189q-21 23 -49 45.5t-74 50.5t-111 45t-137 17q-206 0 -330.5 -135.5t-124.5 -339.5q0 -215 128.5 -344t326.5 -129q131 0 218.5 37t125.5 75v176 h-272v244h543v-567q-64 -55 -122.5 -93.5t-134.5 -73t-168.5 -52t-201.5 -17.5q-121 0 -233 33.5t-204.5 98.5t-161.5 154t-107 207t-38 251zM500 1810h202q0 -55 24.5 -91t82.5 -36q109 0 109 127h202q0 -131 -82 -211.5t-229 -80.5q-145 0 -227 81t-82 211z" />
<glyph unicode="&#x11f;" horiz-adv-x="1259" d="M49 535q0 247 146.5 405t375.5 158q63 0 120.5 -15.5t96.5 -39.5t64 -45t39 -40v113h266v-936q0 -117 -30 -208t-81.5 -150.5t-125.5 -98t-157 -55t-181 -16.5q-105 0 -211 28t-183 70l86 217q27 -14 62.5 -28t106 -30t137.5 -16q62 0 112 10.5t92.5 33.5t66 66t23.5 103 v50q-12 -16 -34 -35.5t-60 -44.5t-96 -41.5t-123 -16.5q-230 0 -371 156.5t-141 405.5zM317 1483h203q0 -55 24.5 -91t82.5 -36q108 0 108 127h203q0 -131 -82 -212t-229 -81q-145 0 -227.5 81.5t-82.5 211.5zM334 537q0 -140 76.5 -227t197.5 -87q123 0 199 86t76 228 q0 137 -76.5 224t-200.5 87q-121 0 -196.5 -85.5t-75.5 -225.5z" />
<glyph unicode="&#x120;" horiz-adv-x="1529" d="M61 717q0 153 55.5 289.5t152.5 236.5t236.5 158.5t299.5 58.5q106 0 203 -24t166.5 -62.5t116.5 -75.5t79 -75l-182 -189q-21 23 -49 45.5t-74 50.5t-111 45t-137 17q-206 0 -330.5 -135.5t-124.5 -339.5q0 -215 128.5 -344t326.5 -129q131 0 218.5 37t125.5 75v176 h-272v244h543v-567q-64 -55 -122.5 -93.5t-134.5 -73t-168.5 -52t-201.5 -17.5q-121 0 -233 33.5t-204.5 98.5t-161.5 154t-107 207t-38 251zM653 1657q0 69 47.5 115.5t116.5 46.5q71 0 118.5 -46.5t47.5 -115.5t-47.5 -115.5t-118.5 -46.5q-69 0 -116.5 46.5t-47.5 115.5z " />
<glyph unicode="&#x121;" horiz-adv-x="1259" d="M49 535q0 247 146.5 405t375.5 158q63 0 120.5 -15.5t96.5 -39.5t64 -45t39 -40v113h266v-936q0 -117 -30 -208t-81.5 -150.5t-125.5 -98t-157 -55t-181 -16.5q-105 0 -211 28t-183 70l86 217q27 -14 62.5 -28t106 -30t137.5 -16q62 0 112 10.5t92.5 33.5t66 66t23.5 103 v50q-12 -16 -34 -35.5t-60 -44.5t-96 -41.5t-123 -16.5q-230 0 -371 156.5t-141 405.5zM334 537q0 -140 76.5 -227t197.5 -87q123 0 199 86t76 228q0 137 -76.5 224t-200.5 87q-121 0 -196.5 -85.5t-75.5 -225.5zM465 1329q0 69 47.5 115.5t116.5 46.5q71 0 118.5 -46.5 t47.5 -115.5t-47.5 -115.5t-118.5 -46.5q-69 0 -116.5 46.5t-47.5 115.5z" />
<glyph unicode="&#x122;" horiz-adv-x="1529" d="M61 717q0 153 55.5 289.5t152.5 236.5t236.5 158.5t299.5 58.5q106 0 203 -24t166.5 -62.5t116.5 -75.5t79 -75l-182 -189q-21 23 -49 45.5t-74 50.5t-111 45t-137 17q-206 0 -330.5 -135.5t-124.5 -339.5q0 -215 128.5 -344t326.5 -129q131 0 218.5 37t125.5 75v176 h-272v244h543v-567q-64 -55 -122.5 -93.5t-134.5 -73t-168.5 -52t-201.5 -17.5q-121 0 -233 33.5t-204.5 98.5t-161.5 154t-107 207t-38 251zM674 -211q0 63 45 107.5t108 44.5q70 0 115 -49t45 -128q0 -108 -53.5 -204t-140.5 -156l-99 104q84 65 101 134q-57 11 -89 53.5 t-32 93.5z" />
<glyph unicode="&#x123;" horiz-adv-x="1259" d="M49 535q0 247 146.5 405t375.5 158q63 0 120.5 -15.5t96.5 -39.5t64 -45t39 -40v113h266v-936q0 -117 -30 -208t-81.5 -150.5t-125.5 -98t-157 -55t-181 -16.5q-105 0 -211 28t-183 70l86 217q27 -14 62.5 -28t106 -30t137.5 -16q62 0 112 10.5t92.5 33.5t66 66t23.5 103 v50q-12 -16 -34 -35.5t-60 -44.5t-96 -41.5t-123 -16.5q-230 0 -371 156.5t-141 405.5zM334 537q0 -140 76.5 -227t197.5 -87q123 0 199 86t76 228q0 137 -76.5 224t-200.5 87q-121 0 -196.5 -85.5t-75.5 -225.5zM463 1346q0 108 53.5 204t140.5 156l99 -104 q-84 -65 -101 -134q57 -11 89 -53.5t32 -93.5q0 -63 -45 -107.5t-108 -44.5q-70 0 -115 49t-45 128z" />
<glyph unicode="&#x124;" horiz-adv-x="1447" d="M137 0v1434h289v-582h596v582h289v-1434h-289v592h-596v-592h-289zM393 1513l195 287h291l194 -287h-239l-101 146l-100 -146h-240z" />
<glyph unicode="&#x125;" horiz-adv-x="1150" d="M111 0v1481h282v-535q38 63 112 107.5t171 44.5q64 0 117 -15t91 -40.5t67 -62.5t47 -77.5t29 -90t15.5 -96t4.5 -98.5v-618h-281v651q0 87 -52 140t-126 53q-88 0 -141.5 -56.5t-53.5 -144.5v-643h-282zM268 1513l195 287h291l194 -287h-239l-101 146l-100 -146h-240z " />
<glyph unicode="&#x126;" horiz-adv-x="1447" d="M20 1047v196h117v191h289v-191h596v191h289v-191h119v-196h-119v-1047h-289v592h-596v-592h-289v1047h-117zM426 852h596v195h-596v-195z" />
<glyph unicode="&#x127;" horiz-adv-x="1150" d="M6 1178v180h105v123h282v-123h266v-180h-266v-232q38 63 112 107.5t171 44.5q64 0 117 -15t91 -40.5t67 -62.5t47 -77.5t29 -90t15.5 -96t4.5 -98.5v-618h-281v651q0 87 -52 140t-126 53q-88 0 -141.5 -56.5t-53.5 -144.5v-643h-282v1178h-105z" />
<glyph unicode="&#x128;" horiz-adv-x="563" d="M-76 1522q0 123 62.5 198.5t163.5 75.5q48 0 97 -19t88.5 -38t65.5 -19q31 0 48.5 21t17.5 57h178q0 -125 -60.5 -199.5t-160.5 -74.5q-59 0 -142.5 37.5t-113.5 37.5q-31 0 -48.5 -20t-17.5 -57h-178zM137 0v1434h289v-1434h-289z" />
<glyph unicode="&#x129;" horiz-adv-x="503" d="M-104 1200q0 123 62 199t163 76q48 0 97 -19t89 -38t66 -19q30 0 47.5 21t17.5 57h178q0 -126 -60.5 -200.5t-160.5 -74.5q-59 0 -142.5 38t-113.5 38q-31 0 -48 -20.5t-17 -57.5h-178zM111 0v1071h282v-1071h-282z" />
<glyph unicode="&#x12a;" horiz-adv-x="563" d="M8 1538v207h549v-207h-549zM137 0v1434h289v-1434h-289z" />
<glyph unicode="&#x12b;" d="M-20 1235v207h548v-207h-548zM111 0v1071h282v-1071h-282z" />
<glyph unicode="&#x12c;" horiz-adv-x="563" d="M-23 1810h203q0 -55 24.5 -91t82.5 -36q108 0 108 127h203q0 -131 -82 -211.5t-229 -80.5q-145 0 -227.5 81t-82.5 211zM137 0v1434h289v-1434h-289z" />
<glyph unicode="&#x12d;" horiz-adv-x="503" d="M-51 1483h203q0 -127 106 -127q109 0 109 127h202q0 -131 -82 -212t-229 -81q-145 0 -227 81t-82 212zM111 0v1071h282v-1071h-282z" />
<glyph unicode="&#x12e;" horiz-adv-x="563" d="M80 -221q0 77 49.5 135t108.5 86h-101v1434h289v-1434q-13 -5 -28.5 -14t-36.5 -25t-34.5 -40.5t-13.5 -51.5q0 -38 33 -60t74 -22v-201q-28 -8 -72 -8q-52 0 -96 9t-84.5 30t-64 62.5t-23.5 99.5z" />
<glyph unicode="&#x12f;" d="M47 -221q0 77 49.5 135t108.5 86h-94v1071h282v-1071q-13 -5 -28.5 -14t-36 -25t-34 -40.5t-13.5 -51.5q0 -38 32.5 -60t73.5 -22v-201q-28 -8 -72 -8q-52 0 -96 9t-84.5 30t-64 62.5t-23.5 99.5zM86 1329q0 69 47.5 115.5t116.5 46.5q71 0 118.5 -46.5t47.5 -115.5 t-47.5 -115.5t-118.5 -46.5q-69 0 -116.5 46.5t-47.5 115.5z" />
<glyph unicode="&#x130;" horiz-adv-x="563" d="M123 1657q0 69 47.5 115.5t116.5 46.5q71 0 118.5 -46.5t47.5 -115.5t-47.5 -115.5t-118.5 -46.5q-69 0 -116.5 46.5t-47.5 115.5zM137 0v1434h289v-1434h-289z" />
<glyph unicode="&#x131;" d="M111 0v1071h282v-1071h-282z" />
<glyph unicode="&#x132;" horiz-adv-x="1329" d="M137 0v1434h289v-1434h-289zM606 8l33 256q96 -12 119 -12q72 0 108.5 41t36.5 115v1026h289v-1078q0 -97 -30.5 -169.5t-85.5 -115t-125 -63t-156 -20.5q-94 0 -189 20z" />
<glyph unicode="&#x133;" horiz-adv-x="1011" d="M86 1329q0 69 47.5 115.5t116.5 46.5q71 0 118.5 -46.5t47.5 -115.5t-47.5 -115.5t-118.5 -46.5q-69 0 -116.5 46.5t-47.5 115.5zM111 0v1071h282v-1071h-282zM420 -147q29 -5 49 -5q147 0 147 150v1073h283v-1085q0 -103 -31 -178t-88 -117.5t-129 -62t-162 -19.5l-69 4 v240zM592 1329q0 69 47.5 115.5t116.5 46.5q71 0 118.5 -46.5t47.5 -115.5t-47.5 -115.5t-118.5 -46.5q-69 0 -116.5 46.5t-47.5 115.5z" />
<glyph unicode="&#x134;" horiz-adv-x="765" d="M41 8l33 256q96 -12 119 -12q72 0 108.5 41t36.5 115v1026h289v-1078q0 -97 -30.5 -169.5t-86 -115t-125.5 -63t-156 -20.5q-93 0 -188 20zM121 1513l194 287h291l195 -287h-240l-100 146l-101 -146h-239z" />
<glyph unicode="&#x135;" d="M-86 -147q29 -5 49 -5q148 0 148 150v1073h282v-1085q0 -103 -31 -178t-87.5 -117.5t-128.5 -62t-162 -19.5l-70 4v240zM-84 1196l195 287h290l195 -287h-240l-100 145l-100 -145h-240z" />
<glyph unicode="&#x136;" horiz-adv-x="1259" d="M137 0v1434h289v-656l473 656h324l-516 -686l532 -748h-332l-481 696v-696h-289zM492 -211q0 63 45 107.5t108 44.5q70 0 115 -49t45 -128q0 -107 -54 -203.5t-141 -156.5l-98 104q82 65 100 134q-57 11 -88.5 53.5t-31.5 93.5z" />
<glyph unicode="&#x137;" horiz-adv-x="1089" d="M111 0v1481h282v-860l344 450h318l-377 -485l405 -586h-331l-359 553v-553h-282zM397 -211q0 63 45.5 107.5t108.5 44.5q70 0 115 -49t45 -128q0 -107 -54 -203.5t-141 -156.5l-98 104q82 65 100 134q-57 11 -89 53.5t-32 93.5z" />
<glyph unicode="&#x138;" horiz-adv-x="1089" d="M111 0v1071h282v-461l344 461h318l-377 -496l405 -575h-331l-359 543v-543h-282z" />
<glyph unicode="&#x139;" horiz-adv-x="931" d="M137 0v1434h289v-1174h467v-260h-756zM164 1511l137 295h297l-199 -295h-235z" />
<glyph unicode="&#x13a;" d="M111 0v1481h282v-1481h-282zM121 1536l137 295h297l-199 -295h-235z" />
<glyph unicode="&#x13b;" horiz-adv-x="931" d="M137 0v1434h289v-1174h467v-260h-756zM358 -211q0 63 45.5 107.5t108.5 44.5q70 0 115 -49t45 -128q0 -107 -54 -203.5t-141 -156.5l-98 104q82 65 100 134q-57 11 -89 53.5t-32 93.5z" />
<glyph unicode="&#x13c;" d="M94 -211q0 63 45.5 107.5t108.5 44.5q70 0 115 -49t45 -128q0 -107 -54 -203.5t-141 -156.5l-98 104q82 65 100 134q-57 11 -89 53.5t-32 93.5zM111 0v1481h282v-1481h-282z" />
<glyph unicode="&#x13d;" horiz-adv-x="931" d="M137 0v1434h289v-1174h467v-260h-756zM563 1077l15 357h266l-94 -357h-187z" />
<glyph unicode="&#x13e;" d="M111 0v1481h282v-1481h-282zM459 1124l14 357h266l-94 -357h-186z" />
<glyph unicode="&#x13f;" horiz-adv-x="931" d="M137 0v1434h289v-1174h467v-260h-756zM561 752q0 73 50.5 124.5t123.5 51.5t123.5 -51.5t50.5 -124.5q0 -71 -50.5 -121.5t-123.5 -50.5t-123.5 50.5t-50.5 121.5z" />
<glyph unicode="&#x140;" horiz-adv-x="825" d="M111 0v1481h282v-1481h-282zM469 723q0 73 50.5 124.5t123.5 51.5t123.5 -51.5t50.5 -124.5q0 -71 -50.5 -121.5t-123.5 -50.5t-123.5 50.5t-50.5 121.5z" />
<glyph unicode="&#x141;" horiz-adv-x="931" d="M23 391v271l114 65v707h289v-547l221 127v-275l-221 -123v-358h467v-258h-756v459z" />
<glyph unicode="&#x142;" horiz-adv-x="602" d="M43 487v271l109 65v658h282v-492l125 76v-277l-125 -75v-713h-282v553z" />
<glyph unicode="&#x143;" horiz-adv-x="1460" d="M135 0v1434h293l612 -979v979h285v-1434h-287l-618 971v-971h-285zM606 1511l137 295h297l-198 -295h-236z" />
<glyph unicode="&#x144;" horiz-adv-x="1146" d="M111 0v1071h276v-125q38 62 114 107t173 45q88 0 155 -28.5t107 -74.5t65 -111t34 -128.5t9 -137.5v-618h-282v651q0 87 -52 140t-126 53q-86 0 -138.5 -56.5t-52.5 -144.5v-643h-282zM442 1190l138 295h297l-199 -295h-236z" />
<glyph unicode="&#x145;" horiz-adv-x="1460" d="M135 0v1434h293l612 -979v979h285v-1434h-287l-618 971v-971h-285zM571 -211q0 63 45.5 107.5t108.5 44.5q70 0 115 -49t45 -128q0 -107 -54 -203.5t-141 -156.5l-98 104q82 65 100 134q-57 11 -89 53.5t-32 93.5z" />
<glyph unicode="&#x146;" horiz-adv-x="1146" d="M111 0v1071h276v-125q38 62 114 107t173 45q88 0 155 -28.5t107 -74.5t65 -111t34 -128.5t9 -137.5v-618h-282v651q0 87 -52 140t-126 53q-86 0 -138.5 -56.5t-52.5 -144.5v-643h-282zM416 -211q0 63 45 107.5t108 44.5q70 0 115 -49t45 -128q0 -108 -53.5 -204 t-140.5 -156l-99 104q84 65 101 134q-57 11 -89 53.5t-32 93.5z" />
<glyph unicode="&#x147;" horiz-adv-x="1460" d="M135 0v1434h293l612 -979v979h285v-1434h-287l-618 971v-971h-285zM401 1800h240l100 -145l101 145h239l-194 -287h-291z" />
<glyph unicode="&#x148;" horiz-adv-x="1146" d="M111 0v1071h276v-125q38 62 114 107t173 45q88 0 155 -28.5t107 -74.5t65 -111t34 -128.5t9 -137.5v-618h-282v651q0 87 -52 140t-126 53q-86 0 -138.5 -56.5t-52.5 -144.5v-643h-282zM240 1483h239l101 -146l100 146h240l-195 -287h-291z" />
<glyph unicode="&#x149;" horiz-adv-x="1302" d="M-68 1339q0 63 45.5 107.5t108.5 44.5q70 0 115 -48.5t45 -127.5q0 -107 -54 -204t-141 -157l-98 105q83 65 100 133q-57 11 -89 53.5t-32 93.5zM264 0v1071h277v-125q38 62 113.5 107t172.5 45q88 0 155.5 -28.5t107.5 -74.5t65 -111t34 -128.5t9 -137.5v-618h-283v651 q0 87 -52 140t-126 53q-86 0 -138 -56.5t-52 -144.5v-643h-283z" />
<glyph unicode="&#x14a;" horiz-adv-x="1460" d="M135 0v1434h293l612 -983v983h285v-1457q0 -97 -30.5 -169.5t-85.5 -115t-125 -63t-156 -20.5q-94 0 -189 20l33 256q96 -12 119 -12q66 0 102 36t41 99l-614 967v-975h-285z" />
<glyph unicode="&#x14b;" horiz-adv-x="1146" d="M111 0v1071h276v-125q38 62 114 107t173 45q88 0 155 -28.5t107 -74.5t65 -111t34 -128.5t9 -137.5v-632q0 -103 -31 -178t-87.5 -117.5t-128.5 -62t-162 -19.5l-70 4v240q29 -5 49 -5q148 0 148 150v653q0 87 -52 140t-126 53q-86 0 -138.5 -56.5t-52.5 -144.5v-643 h-282z" />
<glyph unicode="&#x14c;" horiz-adv-x="1613" d="M61 717q0 208 94 377t265 267.5t387 98.5t387 -98.5t264.5 -267.5t93.5 -377q0 -157 -55 -294t-152 -236.5t-236.5 -156.5t-301.5 -57q-216 0 -387 97.5t-265 267.5t-94 379zM362 717q0 -206 126 -339.5t319 -133.5t318.5 133.5t125.5 339.5q0 203 -125.5 338t-318.5 135 t-319 -135t-126 -338zM532 1538v207h549v-207h-549z" />
<glyph unicode="&#x14d;" horiz-adv-x="1255" d="M51 532q0 160 75.5 290t207.5 203t293 73q162 0 294 -73.5t207.5 -203t75.5 -289.5q0 -243 -162.5 -401t-414.5 -158q-250 0 -413 158t-163 401zM334 532q0 -136 83 -222.5t210 -86.5q128 0 211.5 86.5t83.5 222.5q0 137 -84 226.5t-211 89.5q-128 0 -210.5 -89 t-82.5 -227zM354 1235v207h549v-207h-549z" />
<glyph unicode="&#x14e;" horiz-adv-x="1613" d="M61 717q0 208 94 377t265 267.5t387 98.5t387 -98.5t264.5 -267.5t93.5 -377q0 -157 -55 -294t-152 -236.5t-236.5 -156.5t-301.5 -57q-216 0 -387 97.5t-265 267.5t-94 379zM362 717q0 -206 126 -339.5t319 -133.5t318.5 133.5t125.5 339.5q0 203 -125.5 338t-318.5 135 t-319 -135t-126 -338zM498 1810h202q0 -55 24.5 -91t82.5 -36q108 0 108 127h203q0 -131 -82 -211.5t-229 -80.5q-145 0 -227 81t-82 211z" />
<glyph unicode="&#x14f;" horiz-adv-x="1255" d="M51 532q0 160 75.5 290t207.5 203t293 73q162 0 294 -73.5t207.5 -203t75.5 -289.5q0 -243 -162.5 -401t-414.5 -158q-250 0 -413 158t-163 401zM311 1483h203q0 -55 24.5 -91t82.5 -36q108 0 108 127h203q0 -131 -82 -212t-229 -81q-145 0 -227.5 81.5t-82.5 211.5z M334 532q0 -136 83 -222.5t210 -86.5q128 0 211.5 86.5t83.5 222.5q0 137 -84 226.5t-211 89.5q-128 0 -210.5 -89t-82.5 -227z" />
<glyph unicode="&#x150;" horiz-adv-x="1613" d="M61 717q0 208 94 377t265 267.5t387 98.5t387 -98.5t264.5 -267.5t93.5 -377q0 -157 -55 -294t-152 -236.5t-236.5 -156.5t-301.5 -57q-216 0 -387 97.5t-265 267.5t-94 379zM362 717q0 -206 126 -339.5t319 -133.5t318.5 133.5t125.5 339.5q0 203 -125.5 338t-318.5 135 t-319 -135t-126 -338zM494 1511l137 295h272l-198 -295h-211zM850 1511l139 295h271l-197 -295h-213z" />
<glyph unicode="&#x151;" horiz-adv-x="1255" d="M51 532q0 160 75.5 290t207.5 203t293 73q162 0 294 -73.5t207.5 -203t75.5 -289.5q0 -243 -162.5 -401t-414.5 -158q-250 0 -413 158t-163 401zM334 532q0 -136 83 -222.5t210 -86.5q128 0 211.5 86.5t83.5 222.5q0 137 -84 226.5t-211 89.5q-128 0 -210.5 -89 t-82.5 -227zM344 1190l137 295h273l-199 -295h-211zM700 1190l140 295h270l-197 -295h-213z" />
<glyph unicode="&#x152;" horiz-adv-x="2103" d="M61 717q0 208 94 377t265 267.5t387 98.5q102 0 209 -26h975v-260h-590q108 -132 139 -320h387v-256h-385q-23 -190 -141 -340h608v-258h-993q-111 -27 -209 -27q-216 0 -387 97.5t-265 267.5t-94 379zM362 717q0 -206 126 -339.5t319 -133.5t318.5 133.5t125.5 339.5 q0 203 -125.5 338t-318.5 135t-319 -135t-126 -338z" />
<glyph unicode="&#x153;" horiz-adv-x="2004" d="M51 532q0 160 75 290t206.5 203t292.5 73q133 0 243 -49t185 -138q67 89 166 138t217 49q248 0 385 -153.5t137 -418.5q0 -41 -2 -61h-756q5 -109 83 -177.5t198 -68.5q96 0 161.5 41.5t98.5 89.5l186 -141q-18 -33 -52 -69.5t-88 -76t-136 -65t-176 -25.5 q-136 0 -244 49t-178 138q-75 -88 -186.5 -137.5t-241.5 -49.5q-250 0 -412 158t-162 401zM334 532q0 -136 82 -222.5t209 -86.5q128 0 212.5 89t84.5 225t-84.5 223.5t-212.5 87.5q-127 0 -209 -89t-82 -227zM1210 649h459q-4 98 -67.5 157.5t-161.5 59.5t-160 -61 t-70 -156z" />
<glyph unicode="&#x154;" horiz-adv-x="1198" d="M137 0v1434h432q227 0 356.5 -121t129.5 -305q0 -127 -58 -225.5t-159 -153.5l340 -629h-320l-278 561h-154v-561h-289zM406 1511l137 295h297l-199 -295h-235zM426 805h135q83 0 140 50.5t57 141.5q0 86 -56.5 136.5t-154.5 50.5h-121v-379z" />
<glyph unicode="&#x155;" horiz-adv-x="737" d="M111 0v1071h276v-156q36 82 114 132.5t181 50.5v-287q-152 0 -220.5 -88.5t-68.5 -255.5v-467h-282zM233 1190l138 295h297l-199 -295h-236z" />
<glyph unicode="&#x156;" horiz-adv-x="1198" d="M137 0v1434h432q227 0 356.5 -121t129.5 -305q0 -127 -58 -225.5t-159 -153.5l340 -629h-320l-278 561h-154v-561h-289zM426 805h135q83 0 140 50.5t57 141.5q0 86 -56.5 136.5t-154.5 50.5h-121v-379zM444 -211q0 63 45.5 107.5t108.5 44.5q70 0 115 -49t45 -128 q0 -107 -54 -203.5t-141 -156.5l-98 104q82 65 100 134q-57 11 -89 53.5t-32 93.5z" />
<glyph unicode="&#x157;" horiz-adv-x="737" d="M111 0v1071h276v-156q36 82 114 132.5t181 50.5v-287q-152 0 -220.5 -88.5t-68.5 -255.5v-467h-282zM147 -211q0 63 45.5 107.5t108.5 44.5q70 0 115 -49t45 -128q0 -107 -54 -203.5t-141 -156.5l-98 104q82 65 100 134q-57 11 -89 53.5t-32 93.5z" />
<glyph unicode="&#x158;" horiz-adv-x="1198" d="M137 0v1434h432q227 0 356.5 -121t129.5 -305q0 -127 -58 -225.5t-159 -153.5l340 -629h-320l-278 561h-154v-561h-289zM209 1800h240l100 -145l100 145h240l-195 -287h-291zM426 805h135q83 0 140 50.5t57 141.5q0 86 -56.5 136.5t-154.5 50.5h-121v-379z" />
<glyph unicode="&#x159;" horiz-adv-x="737" d="M31 1483h239l101 -146l100 146h240l-195 -287h-291zM111 0v1071h276v-156q36 82 114 132.5t181 50.5v-287q-152 0 -220.5 -88.5t-68.5 -255.5v-467h-282z" />
<glyph unicode="&#x15a;" horiz-adv-x="1067" d="M45 305l244 119q33 -79 95.5 -130.5t152.5 -51.5q80 0 125 39t45 108q0 39 -21 72t-57 58.5t-82.5 49t-97.5 48t-102.5 51.5t-98 63.5t-82.5 80.5t-57 106t-21 135q0 182 123.5 294.5t327.5 112.5q82 0 153 -23t117.5 -56.5t83.5 -78.5t56.5 -82t31.5 -73l-240 -109 q-14 31 -29 54t-39.5 48.5t-60.5 39.5t-80 14q-72 0 -113.5 -38.5t-41.5 -98.5q0 -48 34.5 -87t89 -68.5t121 -59t133 -67t121 -84t89 -119t34.5 -162.5q0 -193 -129.5 -315t-349.5 -122q-88 0 -163 24t-125 59t-90 82t-61.5 87t-35.5 80zM387 1511l137 295h297l-198 -295 h-236z" />
<glyph unicode="&#x15b;" horiz-adv-x="890" d="M39 172l166 147q101 -116 246 -116q61 0 96 25.5t35 70.5q0 33 -28 58t-72.5 43t-98.5 37t-108 46t-98.5 63t-72.5 96.5t-28 137.5q0 146 110 232t279 86q137 0 228 -56.5t138 -134.5l-186 -139q-82 102 -192 102q-50 0 -80.5 -23.5t-30.5 -62.5q0 -34 28 -59t73 -42 t99 -34.5t108 -43.5t99 -60.5t73 -94t28 -137.5q0 -154 -117.5 -247t-294.5 -93q-145 0 -247 59t-152 140zM303 1190l137 295h297l-198 -295h-236z" />
<glyph unicode="&#x15c;" horiz-adv-x="1067" d="M45 305l244 119q33 -79 95.5 -130.5t152.5 -51.5q80 0 125 39t45 108q0 39 -21 72t-57 58.5t-82.5 49t-97.5 48t-102.5 51.5t-98 63.5t-82.5 80.5t-57 106t-21 135q0 182 123.5 294.5t327.5 112.5q82 0 153 -23t117.5 -56.5t83.5 -78.5t56.5 -82t31.5 -73l-240 -109 q-14 31 -29 54t-39.5 48.5t-60.5 39.5t-80 14q-72 0 -113.5 -38.5t-41.5 -98.5q0 -48 34.5 -87t89 -68.5t121 -59t133 -67t121 -84t89 -119t34.5 -162.5q0 -193 -129.5 -315t-349.5 -122q-88 0 -163 24t-125 59t-90 82t-61.5 87t-35.5 80zM201 1513l194 287h291l195 -287 h-240l-100 146l-101 -146h-239z" />
<glyph unicode="&#x15d;" horiz-adv-x="890" d="M39 172l166 147q101 -116 246 -116q61 0 96 25.5t35 70.5q0 33 -28 58t-72.5 43t-98.5 37t-108 46t-98.5 63t-72.5 96.5t-28 137.5q0 146 110 232t279 86q137 0 228 -56.5t138 -134.5l-186 -139q-82 102 -192 102q-50 0 -80.5 -23.5t-30.5 -62.5q0 -34 28 -59t73 -42 t99 -34.5t108 -43.5t99 -60.5t73 -94t28 -137.5q0 -154 -117.5 -247t-294.5 -93q-145 0 -247 59t-152 140zM129 1196l195 287h290l195 -287h-240l-100 145l-100 -145h-240z" />
<glyph unicode="&#x15e;" horiz-adv-x="1067" d="M45 305l244 119q33 -79 95.5 -130.5t152.5 -51.5q80 0 125 39t45 108q0 39 -21 72t-57 58.5t-82.5 49t-97.5 48t-102.5 51.5t-98 63.5t-82.5 80.5t-57 106t-21 135q0 182 123.5 294.5t327.5 112.5q82 0 153 -23t117.5 -56.5t83.5 -78.5t56.5 -82t31.5 -73l-240 -109 q-14 31 -29 54t-39.5 48.5t-60.5 39.5t-80 14q-72 0 -113.5 -38.5t-41.5 -98.5q0 -48 34.5 -87t89 -68.5t121 -59t133 -67t121 -84t89 -119t34.5 -162.5q0 -174 -107.5 -293t-295.5 -140l-8 -57q73 -15 114 -66.5t41 -121.5q0 -97 -71.5 -153t-179.5 -56q-59 0 -119 18 l33 146q44 -11 67 -11q38 0 63 17.5t25 50.5q0 32 -29.5 47.5t-72.5 15.5l-35 -4l25 174q-90 10 -164.5 47t-121 88.5t-74.5 98t-44 94.5z" />
<glyph unicode="&#x15f;" horiz-adv-x="890" d="M39 172l166 147q101 -116 246 -116q61 0 96 25.5t35 70.5q0 33 -28 58t-72.5 43t-98.5 37t-108 46t-98.5 63t-72.5 96.5t-28 137.5q0 146 110 232t279 86q137 0 228 -56.5t138 -134.5l-186 -139q-82 102 -192 102q-50 0 -80.5 -23.5t-30.5 -62.5q0 -34 28 -59t73 -42 t99 -34.5t108 -43.5t99 -60.5t73 -94t28 -137.5q0 -137 -94.5 -226t-245.5 -107l-8 -60q73 -15 114 -66.5t41 -121.5q0 -97 -71.5 -153t-179.5 -56q-59 0 -119 18l32 146q44 -11 68 -11q38 0 63 17.5t25 50.5q0 32 -29.5 47.5t-72.5 15.5l-35 -4l24 177q-117 14 -199 68 t-124 124z" />
<glyph unicode="&#x160;" horiz-adv-x="1067" d="M45 305l244 119q33 -79 95.5 -130.5t152.5 -51.5q80 0 125 39t45 108q0 39 -21 72t-57 58.5t-82.5 49t-97.5 48t-102.5 51.5t-98 63.5t-82.5 80.5t-57 106t-21 135q0 182 123.5 294.5t327.5 112.5q82 0 153 -23t117.5 -56.5t83.5 -78.5t56.5 -82t31.5 -73l-240 -109 q-14 31 -29 54t-39.5 48.5t-60.5 39.5t-80 14q-72 0 -113.5 -38.5t-41.5 -98.5q0 -48 34.5 -87t89 -68.5t121 -59t133 -67t121 -84t89 -119t34.5 -162.5q0 -193 -129.5 -315t-349.5 -122q-88 0 -163 24t-125 59t-90 82t-61.5 87t-35.5 80zM190 1800h240l100 -145l101 145 h239l-194 -287h-291z" />
<glyph unicode="&#x161;" horiz-adv-x="890" d="M39 172l166 147q101 -116 246 -116q61 0 96 25.5t35 70.5q0 33 -28 58t-72.5 43t-98.5 37t-108 46t-98.5 63t-72.5 96.5t-28 137.5q0 146 110 232t279 86q137 0 228 -56.5t138 -134.5l-186 -139q-82 102 -192 102q-50 0 -80.5 -23.5t-30.5 -62.5q0 -34 28 -59t73 -42 t99 -34.5t108 -43.5t99 -60.5t73 -94t28 -137.5q0 -154 -117.5 -247t-294.5 -93q-145 0 -247 59t-152 140zM121 1483h239l101 -146l100 146h240l-195 -287h-291z" />
<glyph unicode="&#x162;" horiz-adv-x="1046" d="M43 1174v260h958v-260h-333v-1174h-97l-12 -80q73 -15 114.5 -67t41.5 -121q0 -97 -72 -153t-180 -56q-59 0 -119 18l33 146q44 -11 67 -11q38 0 63 17.5t25 50.5q0 32 -30 47.5t-72 15.5l-35 -4l29 197h-45v1174h-336z" />
<glyph unicode="&#x163;" horiz-adv-x="681" d="M23 842v229h114v225h279v-225h200v-229h-200v-414q0 -115 35.5 -153.5t121.5 -38.5q29 0 52 2v-242q-43 -10 -121 -10q-24 0 -70 4l-10 -70q73 -15 114.5 -67t41.5 -121q0 -97 -72 -153t-180 -56q-59 0 -119 18l33 146q44 -11 67 -11q38 0 63 17.5t25 50.5 q0 32 -29.5 47.5t-72.5 15.5l-35 -4l27 236q-152 96 -152 381v422h-112z" />
<glyph unicode="&#x164;" horiz-adv-x="1048" d="M45 1174v260h959v-260h-334v-1174h-289v1174h-336zM184 1800h240l100 -145l101 145h239l-194 -287h-291z" />
<glyph unicode="&#x165;" horiz-adv-x="686" d="M23 842v229h114v225h279v-225h200v-229h-200v-414q0 -115 35.5 -153.5t121.5 -38.5q29 0 52 2v-242q-43 -10 -121 -10q-190 0 -279.5 107t-89.5 327v422h-112zM508 1124l14 357h266l-94 -357h-186z" />
<glyph unicode="&#x166;" horiz-adv-x="1046" d="M47 1174v260h959v-260h-334v-328h235v-211h-235v-635h-289v635h-238v211h238v328h-336z" />
<glyph unicode="&#x167;" horiz-adv-x="681" d="M23 492v186h112v164h-112v229h114v225h279v-225h200v-229h-200v-164h184v-186h-184v-64q0 -115 35.5 -153.5t121.5 -38.5q29 0 52 2v-242q-43 -10 -121 -10q-190 0 -279.5 107t-89.5 327v72h-112z" />
<glyph unicode="&#x168;" horiz-adv-x="1417" d="M131 539v895h289v-895q0 -138 76 -217.5t213 -79.5t212.5 79.5t75.5 217.5v895h289v-895q0 -258 -151.5 -412t-425.5 -154t-426 154t-152 412zM367 1522q0 123 62 198.5t163 75.5q48 0 97 -19t89 -38t66 -19q30 0 47.5 21t17.5 57h178q0 -125 -60.5 -199.5t-160.5 -74.5 q-59 0 -142.5 37.5t-113.5 37.5q-31 0 -48 -20t-17 -57h-178z" />
<glyph unicode="&#x169;" horiz-adv-x="1138" d="M102 453v618h283v-651q0 -87 52 -140t126 -53q86 0 138.5 56.5t52.5 144.5v643h282v-1071h-276v125q-38 -62 -114 -107t-173 -45q-88 0 -155.5 28.5t-107.5 74.5t-65 111t-34 128.5t-9 137.5zM213 1200q0 123 62 199t163 76q48 0 97 -19t89 -38t66 -19q31 0 48.5 21 t17.5 57h178q0 -126 -60.5 -200.5t-160.5 -74.5q-59 0 -142.5 38t-113.5 38q-31 0 -48.5 -20.5t-17.5 -57.5h-178z" />
<glyph unicode="&#x16a;" horiz-adv-x="1417" d="M131 539v895h289v-895q0 -138 76 -217.5t213 -79.5t212.5 79.5t75.5 217.5v895h289v-895q0 -258 -151.5 -412t-425.5 -154t-426 154t-152 412zM438 1538v207h549v-207h-549z" />
<glyph unicode="&#x16b;" horiz-adv-x="1138" d="M102 453v618h283v-651q0 -87 52 -140t126 -53q86 0 138.5 56.5t52.5 144.5v643h282v-1071h-276v125q-38 -62 -114 -107t-173 -45q-88 0 -155.5 28.5t-107.5 74.5t-65 111t-34 128.5t-9 137.5zM303 1235v207h549v-207h-549z" />
<glyph unicode="&#x16c;" horiz-adv-x="1417" d="M131 539v895h289v-895q0 -138 76 -217.5t213 -79.5t212.5 79.5t75.5 217.5v895h289v-895q0 -258 -151.5 -412t-425.5 -154t-426 154t-152 412zM414 1810h202q0 -55 24.5 -91t82.5 -36q108 0 108 127h203q0 -131 -82 -211.5t-229 -80.5q-145 0 -227 81t-82 211z" />
<glyph unicode="&#x16d;" horiz-adv-x="1138" d="M102 453v618h283v-651q0 -87 52 -140t126 -53q86 0 138.5 56.5t52.5 144.5v643h282v-1071h-276v125q-38 -62 -114 -107t-173 -45q-88 0 -155.5 28.5t-107.5 74.5t-65 111t-34 128.5t-9 137.5zM264 1483h203q0 -127 106 -127q109 0 109 127h203q0 -131 -82.5 -212 t-229.5 -81q-145 0 -227 81t-82 212z" />
<glyph unicode="&#x16e;" horiz-adv-x="1417" d="M131 539v895h289v-895q0 -138 76 -217.5t213 -79.5t212.5 79.5t75.5 217.5v895h289v-895q0 -258 -151.5 -412t-425.5 -154t-426 154t-152 412zM496 1700q0 90 62 146.5t155 56.5q96 0 158.5 -56t62.5 -145q0 -90 -62.5 -147.5t-158.5 -57.5q-93 0 -155 57t-62 146z M637 1700q0 -35 21.5 -57.5t56.5 -22.5t56.5 22.5t21.5 59.5q0 34 -21.5 56t-56.5 22t-56.5 -22.5t-21.5 -57.5z" />
<glyph unicode="&#x16f;" horiz-adv-x="1138" d="M102 453v618h283v-651q0 -87 52 -140t126 -53q86 0 138.5 56.5t52.5 144.5v643h282v-1071h-276v125q-38 -62 -114 -107t-173 -45q-88 0 -155.5 28.5t-107.5 74.5t-65 111t-34 128.5t-9 137.5zM358 1358q0 90 62 146.5t155 56.5q96 0 159 -56t63 -145q0 -90 -63 -147.5 t-159 -57.5q-93 0 -155 57t-62 146zM500 1358q0 -35 21.5 -57.5t56.5 -22.5t56 22.5t21 59.5q0 34 -21 56t-56 22t-56.5 -22.5t-21.5 -57.5z" />
<glyph unicode="&#x170;" horiz-adv-x="1423" d="M131 539v895h289v-895q0 -138 76 -217.5t213 -79.5t212.5 79.5t75.5 217.5v895h289v-895q0 -258 -151.5 -412t-425.5 -154t-426 154t-152 412zM422 1511l137 295h272l-198 -295h-211zM778 1511l140 295h270l-197 -295h-213z" />
<glyph unicode="&#x171;" horiz-adv-x="1138" d="M102 453v618h283v-651q0 -87 52 -140t126 -53q86 0 138.5 56.5t52.5 144.5v643h282v-1071h-276v125q-38 -62 -114 -107t-173 -45q-88 0 -155.5 28.5t-107.5 74.5t-65 111t-34 128.5t-9 137.5zM254 1190l137 295h273l-199 -295h-211zM610 1190l140 295h270l-197 -295h-213 z" />
<glyph unicode="&#x172;" horiz-adv-x="1417" d="M131 539v895h289v-895q0 -138 76 -217.5t213 -79.5t212.5 79.5t75.5 217.5v895h289v-895q0 -180 -76.5 -312t-218.5 -198q-42 -20 -77 -57.5t-35 -88.5q0 -42 33 -69t73 -27v-201q-28 -8 -72 -8q-52 0 -96 9t-84.5 30t-64 62.5t-23.5 99.5q0 114 115 196q-35 -2 -51 -2 q-274 0 -426 154t-152 412z" />
<glyph unicode="&#x173;" horiz-adv-x="1138" d="M102 453v618h283v-651q0 -87 52 -140t126 -53q86 0 138.5 56.5t52.5 144.5v643h282v-1071q-13 -5 -28.5 -14t-36 -25t-34 -40.5t-13.5 -51.5q0 -38 32.5 -60t73.5 -22v-201q-28 -8 -72 -8q-52 0 -96 9t-84.5 30t-64 62.5t-23.5 99.5q0 77 49.5 135t108.5 86h-88v125 q-38 -62 -114 -107t-173 -45q-88 0 -155.5 28.5t-107.5 74.5t-65 111t-34 128.5t-9 137.5z" />
<glyph unicode="&#x174;" horiz-adv-x="2000" d="M18 1434h316l248 -1074l284 1074h267l284 -1074l250 1074h313l-383 -1434h-327l-271 989l-270 -989h-326zM662 1513l194 287h291l194 -287h-239l-101 146l-100 -146h-239z" />
<glyph unicode="&#x175;" horiz-adv-x="1695" d="M14 1071h308l188 -760l205 760h266l203 -760l190 760h307l-321 -1071h-316l-196 686l-199 -686h-315zM508 1196l194 287h291l195 -287h-240l-100 145l-100 -145h-240z" />
<glyph unicode="&#x176;" horiz-adv-x="1196" d="M14 1434h326l258 -514l258 514h326l-441 -779v-655h-286v655zM260 1513l195 287h290l195 -287h-240l-100 146l-100 -146h-240z" />
<glyph unicode="&#x177;" horiz-adv-x="1105" d="M12 1071h303l240 -698l242 698h295l-547 -1438h-271l150 394zM219 1196l195 287h291l194 -287h-240l-100 145l-100 -145h-240z" />
<glyph unicode="&#x178;" horiz-adv-x="1196" d="M14 1434h326l258 -514l258 514h326l-441 -779v-655h-286v655zM264 1675q0 58 39.5 99t99.5 41q59 0 99.5 -41t40.5 -99q0 -59 -40 -99t-100 -40q-61 0 -100 40t-39 99zM657 1675q0 58 39 99t101 41q59 0 99 -41t40 -99q0 -59 -39.5 -99t-99.5 -40q-62 0 -101 40t-39 99z " />
<glyph unicode="&#x179;" horiz-adv-x="1234" d="M66 0v188l704 990h-684v256h1069v-189l-709 -989h715v-256h-1095zM461 1511l137 295h297l-199 -295h-235z" />
<glyph unicode="&#x17a;" horiz-adv-x="958" d="M57 0v174l484 662h-469v235h819v-176l-483 -659h489v-236h-840zM324 1190l137 295h297l-199 -295h-235z" />
<glyph unicode="&#x17b;" horiz-adv-x="1234" d="M66 0v188l704 990h-684v256h1069v-189l-709 -989h715v-256h-1095zM453 1657q0 69 47 115.5t116 46.5q71 0 118.5 -46.5t47.5 -115.5t-47.5 -115.5t-118.5 -46.5q-69 0 -116 46.5t-47 115.5z" />
<glyph unicode="&#x17c;" horiz-adv-x="958" d="M57 0v174l484 662h-469v235h819v-176l-483 -659h489v-236h-840zM324 1329q0 69 47 115.5t116 46.5q71 0 118.5 -46.5t47.5 -115.5t-47.5 -115.5t-118.5 -46.5q-69 0 -116 46.5t-47 115.5z" />
<glyph unicode="&#x17d;" horiz-adv-x="1234" d="M66 0v188l704 990h-684v256h1069v-189l-709 -989h715v-256h-1095zM274 1800h240l100 -145l101 145h239l-194 -287h-291z" />
<glyph unicode="&#x17e;" horiz-adv-x="958" d="M57 0v174l484 662h-469v235h819v-176l-483 -659h489v-236h-840zM145 1483h240l100 -146l101 146h239l-194 -287h-291z" />
<glyph unicode="&#x192;" horiz-adv-x="974" d="M-55 -381l32 236q40 -9 72 -9q87 0 122.5 45.5t53.5 171.5l80 599h-123v229h154l26 203q11 81 41 145t70.5 104t92.5 66t104.5 36.5t109.5 10.5q34 0 66.5 -3t48.5 -6l16 -3l-30 -236q-45 9 -74 9q-147 0 -168 -152l-25 -174h179v-229h-209l-88 -670q-52 -385 -422 -385 q-60 0 -129 12z" />
<glyph unicode="&#x1fa;" horiz-adv-x="1351" d="M16 0l490 1384q-49 55 -49 136q0 90 62 146t155 56q96 0 158.5 -55.5t62.5 -144.5q0 -84 -51 -138l491 -1384h-291l-124 369h-488l-125 -369h-291zM510 608h334l-168 516zM541 1780l137 295h297l-199 -295h-235zM598 1520q0 -35 21.5 -57.5t56.5 -22.5t56.5 22.5 t21.5 59.5q0 34 -21.5 55.5t-56.5 21.5t-56.5 -22t-21.5 -57z" />
<glyph unicode="&#x1fb;" horiz-adv-x="1077" d="M49 332q0 159 114.5 256.5t301.5 97.5q75 0 136 -17.5t95 -41.5v69q0 72 -51 115t-143 43q-137 0 -285 -76l-106 193q78 54 191.5 90.5t229.5 36.5q125 0 214 -31t139 -89.5t72 -131.5t22 -168v-678h-250l-18 70q-90 -97 -260 -97q-169 0 -285.5 98t-116.5 261zM319 1343 q0 90 62.5 146.5t155.5 56.5q96 0 158.5 -55.5t62.5 -144.5q0 -90 -62.5 -147.5t-158.5 -57.5q-93 0 -155.5 57t-62.5 145zM332 340q0 -65 53 -106t133 -41q81 0 132.5 40t51.5 107q0 69 -51.5 109t-134.5 40q-82 0 -133 -41.5t-51 -107.5zM399 1585l138 295h297l-199 -295 h-236zM461 1343q0 -35 21.5 -57t56.5 -22t56 22.5t21 59.5q0 34 -21 55.5t-56 21.5t-56.5 -22.5t-21.5 -57.5z" />
<glyph unicode="&#x1fc;" horiz-adv-x="1755" d="M16 0l748 1434h881v-260h-447v-320h383v-256h-383v-340h465v-258h-754v369h-393l-186 -369h-314zM623 608h286v545h-10zM913 1511l138 295h297l-199 -295h-236z" />
<glyph unicode="&#x1fd;" horiz-adv-x="1781" d="M49 332q0 159 114.5 256.5t301.5 97.5q75 0 136 -17.5t95 -41.5v69q0 72 -51 115t-143 43q-137 0 -285 -76q-22 37 -59.5 106.5t-46.5 86.5q192 127 421 127q238 0 342 -135q135 135 338 135q248 0 385.5 -153.5t137.5 -418.5q0 -41 -2 -61h-754q5 -108 82 -177t196 -69 q96 0 162 41.5t99 89.5l186 -141q-14 -26 -37 -54t-63.5 -61.5t-88.5 -59.5t-117 -43.5t-145 -17.5q-136 0 -245.5 46t-180.5 133q-115 -179 -376 -179q-169 0 -285.5 98t-116.5 261zM332 340q0 -65 53 -106t133 -41t131 40t51 107q0 69 -50.5 109t-133.5 40 q-82 0 -133 -41.5t-51 -107.5zM743 1190l138 295h297l-199 -295h-236zM987 649h459q-4 98 -67.5 157.5t-161.5 59.5q-96 0 -158.5 -61t-71.5 -156z" />
<glyph unicode="&#x1fe;" horiz-adv-x="1613" d="M61 717q0 208 94 377t265 267.5t387 98.5q208 0 383 -96l94 119l156 -123l-94 -117q99 -100 152.5 -236t53.5 -290q0 -157 -55 -294t-152 -236.5t-236.5 -156.5t-301.5 -57q-217 0 -391 99l-97 -121l-153 123l96 121q-96 99 -148.5 233.5t-52.5 288.5zM362 717 q0 -165 84 -289l566 713q-93 49 -205 49q-193 0 -319 -135t-126 -338zM594 295q94 -51 213 -51q193 0 318.5 133.5t125.5 339.5q0 167 -90 293zM662 1511l137 295h297l-199 -295h-235z" />
<glyph unicode="&#x1ff;" horiz-adv-x="1255" d="M51 532q0 160 75.5 290t207.5 203t293 73q153 0 284 -70l78 98l135 -104l-75 -96q74 -77 114.5 -178t40.5 -216q0 -243 -162.5 -401t-414.5 -158q-153 0 -281 64l-80 -103l-133 105l76 96q-158 161 -158 397zM334 532q0 -104 47 -178l369 467q-62 27 -123 27 q-128 0 -210.5 -89t-82.5 -227zM477 1190l137 295h297l-198 -295h-236zM512 244q52 -21 115 -21q128 0 211.5 86.5t83.5 222.5q0 99 -45 175z" />
<glyph unicode="&#x218;" horiz-adv-x="1067" d="M45 305l244 119q33 -79 95.5 -130.5t152.5 -51.5q80 0 125 39t45 108q0 39 -21 72t-57 58.5t-82.5 49t-97.5 48t-102.5 51.5t-98 63.5t-82.5 80.5t-57 106t-21 135q0 182 123.5 294.5t327.5 112.5q82 0 153 -23t117.5 -56.5t83.5 -78.5t56.5 -82t31.5 -73l-240 -109 q-14 31 -29 54t-39.5 48.5t-60.5 39.5t-80 14q-72 0 -113.5 -38.5t-41.5 -98.5q0 -48 34.5 -87t89 -68.5t121 -59t133 -67t121 -84t89 -119t34.5 -162.5q0 -193 -129.5 -315t-349.5 -122q-88 0 -163 24t-125 59t-90 82t-61.5 87t-35.5 80zM365 -211q0 63 45 107.5t108 44.5 q70 0 115 -49t45 -128q0 -107 -54 -203.5t-141 -156.5l-98 104q82 65 100 134q-57 11 -88.5 53.5t-31.5 93.5z" />
<glyph unicode="&#x219;" horiz-adv-x="890" d="M39 172l166 147q101 -116 246 -116q61 0 96 25.5t35 70.5q0 33 -28 58t-72.5 43t-98.5 37t-108 46t-98.5 63t-72.5 96.5t-28 137.5q0 146 110 232t279 86q137 0 228 -56.5t138 -134.5l-186 -139q-82 102 -192 102q-50 0 -80.5 -23.5t-30.5 -62.5q0 -34 28 -59t73 -42 t99 -34.5t108 -43.5t99 -60.5t73 -94t28 -137.5q0 -154 -117.5 -247t-294.5 -93q-145 0 -247 59t-152 140zM295 -211q0 63 45.5 107.5t108.5 44.5q70 0 114.5 -49t44.5 -128q0 -108 -53.5 -204t-140.5 -156l-99 104q84 65 101 134q-57 11 -89 53.5t-32 93.5z" />
<glyph unicode="&#x21a;" horiz-adv-x="1048" d="M45 1174v260h959v-260h-334v-1174h-289v1174h-336zM362 -211q0 63 45.5 107.5t108.5 44.5q70 0 115 -49t45 -128q0 -107 -54 -203.5t-141 -156.5l-98 104q82 65 100 134q-57 11 -89 53.5t-32 93.5z" />
<glyph unicode="&#x21b;" horiz-adv-x="681" d="M23 842v229h114v225h279v-225h200v-229h-200v-414q0 -115 35.5 -153.5t121.5 -38.5q29 0 52 2v-242q-43 -10 -121 -10q-190 0 -279.5 107t-89.5 327v422h-112zM250 -211q0 63 45 107.5t108 44.5q70 0 115 -49t45 -128q0 -108 -53.5 -204t-140.5 -156l-99 104 q84 65 101 134q-57 11 -89 53.5t-32 93.5z" />
<glyph unicode="&#x237;" d="M-86 -147q29 -5 49 -5q148 0 148 150v1073h282v-1085q0 -103 -31 -178t-87.5 -117.5t-128.5 -62t-162 -19.5l-70 4v240z" />
<glyph unicode="&#x2c6;" horiz-adv-x="911" d="M115 1196l194 287h291l195 -287h-240l-100 145l-101 -145h-239z" />
<glyph unicode="&#x2c7;" horiz-adv-x="911" d="M115 1483h239l101 -146l100 146h240l-195 -287h-291z" />
<glyph unicode="&#x2d8;" horiz-adv-x="911" d="M143 1483h203q0 -55 24.5 -91t82.5 -36q108 0 108 127h203q0 -131 -82 -212t-229 -81q-145 0 -227.5 81.5t-82.5 211.5z" />
<glyph unicode="&#x2d9;" horiz-adv-x="911" d="M291 1329q0 69 47.5 115.5t116.5 46.5q71 0 118.5 -46.5t47.5 -115.5t-47.5 -115.5t-118.5 -46.5q-69 0 -116.5 46.5t-47.5 115.5z" />
<glyph unicode="&#x2da;" horiz-adv-x="911" d="M236 1358q0 90 62 146.5t155 56.5q96 0 158.5 -56t62.5 -145q0 -90 -62.5 -147.5t-158.5 -57.5q-93 0 -155 57t-62 146zM377 1358q0 -35 21.5 -57.5t56.5 -22.5t56 22.5t21 59.5q0 34 -21 56t-56 22t-56.5 -22.5t-21.5 -57.5z" />
<glyph unicode="&#x2db;" horiz-adv-x="911" d="M283 -221q0 77 49 135t108 86h189q-13 -5 -28.5 -14t-36.5 -25t-34.5 -40.5t-13.5 -51.5q0 -38 33 -60t74 -22v-201q-28 -8 -72 -8q-52 0 -96 9t-84.5 30t-64 62.5t-23.5 99.5z" />
<glyph unicode="&#x2dc;" horiz-adv-x="911" d="M94 1200q0 123 62 199t163 76q48 0 97 -19t89 -38t66 -19q31 0 48.5 21t17.5 57h178q0 -126 -60.5 -200.5t-160.5 -74.5q-59 0 -142.5 38t-113.5 38q-31 0 -48.5 -20.5t-17.5 -57.5h-178z" />
<glyph unicode="&#x2dd;" horiz-adv-x="952" d="M92 1190l137 295h273l-199 -295h-211zM449 1190l139 295h270l-196 -295h-213z" />
<glyph unicode="&#x400;" horiz-adv-x="985" d="M137 0v1434h737v-260h-448v-320h385v-256h-385v-340h467v-258h-756zM240 1806h297l137 -295h-236z" />
<glyph unicode="&#x401;" horiz-adv-x="985" d="M137 0v1434h737v-260h-448v-320h385v-256h-385v-340h467v-258h-756zM180 1663q0 58 39.5 98.5t99.5 40.5q59 0 99.5 -40.5t40.5 -98.5q0 -59 -40 -99t-100 -40q-61 0 -100 40t-39 99zM573 1663q0 58 39 98.5t101 40.5q59 0 99 -40.5t40 -98.5q0 -59 -39.5 -99t-99.5 -40 q-62 0 -101 40t-39 99z" />
<glyph unicode="&#x402;" horiz-adv-x="1605" d="M43 1174v260h1153v-260h-528v-345q44 52 135.5 87.5t204.5 35.5q124 0 225 -40t165.5 -109t99 -159t34.5 -191q0 -110 -29.5 -197t-77 -141.5t-112.5 -90t-131.5 -49.5t-139.5 -14q-98 0 -213 31l35 260q86 -27 170 -27q81 0 139 56t58 170q0 118 -73.5 174.5 t-207.5 56.5q-34 0 -68 -4.5t-74 -18t-70 -34.5t-50 -59t-20 -87v-479h-289v1174h-336z" />
<glyph unicode="&#x403;" horiz-adv-x="1060" d="M137 0v1434h862v-260h-573v-1174h-289zM362 1511l138 295h297l-199 -295h-236z" />
<glyph unicode="&#x404;" horiz-adv-x="1378" d="M61 717q0 213 96.5 382t273 265t403.5 96q145 0 263.5 -37t198.5 -94l-82 -254q-68 45 -169 80t-211 35q-177 0 -297.5 -90.5t-157.5 -245.5h776v-256h-780q33 -164 154.5 -259t304.5 -95q116 0 220 35.5t173 80.5l82 -251q-194 -136 -475 -136q-176 0 -321.5 56 t-244.5 154.5t-153 235.5t-54 298z" />
<glyph unicode="&#x405;" horiz-adv-x="1067" d="M45 305l244 119q33 -79 95.5 -130.5t152.5 -51.5q80 0 125 39t45 108q0 39 -21 72t-57 58.5t-82.5 49t-97.5 48t-102.5 51.5t-98 63.5t-82.5 80.5t-57 106t-21 135q0 182 123.5 294.5t327.5 112.5q82 0 153 -23t117.5 -56.5t83.5 -78.5t56.5 -82t31.5 -73l-240 -109 q-14 31 -29 54t-39.5 48.5t-60.5 39.5t-80 14q-72 0 -113.5 -38.5t-41.5 -98.5q0 -48 34.5 -87t89 -68.5t121 -59t133 -67t121 -84t89 -119t34.5 -162.5q0 -193 -129.5 -315t-349.5 -122q-88 0 -163 24t-125 59t-90 82t-61.5 87t-35.5 80z" />
<glyph unicode="&#x406;" horiz-adv-x="563" d="M137 0v1434h289v-1434h-289z" />
<glyph unicode="&#x407;" horiz-adv-x="563" d="M-41 1663q0 58 39.5 98.5t99.5 40.5q59 0 99.5 -40.5t40.5 -98.5q0 -59 -40 -99t-100 -40q-61 0 -100 40t-39 99zM137 0v1434h289v-1434h-289zM352 1663q0 58 39 98.5t101 40.5q59 0 99 -40.5t40 -98.5q0 -59 -39.5 -99t-99.5 -40q-62 0 -101 40t-39 99z" />
<glyph unicode="&#x408;" horiz-adv-x="765" d="M41 8l33 256q96 -12 119 -12q72 0 108.5 41t36.5 115v1026h289v-1078q0 -97 -30.5 -169.5t-86 -115t-125.5 -63t-156 -20.5q-93 0 -188 20z" />
<glyph unicode="&#x409;" horiz-adv-x="2060" d="M20 8l43 260q42 -10 72 -10q77 0 101 117q24 112 37.5 355t27.5 704h952v-555h226q241 0 380.5 -123t139.5 -324q0 -105 -39.5 -189t-108 -136t-156 -79.5t-188.5 -27.5h-542v1174h-387q-5 -82 -14 -262.5t-13 -243.5t-12.5 -170t-19 -166t-25.5 -107q-19 -62 -50.5 -107 t-64.5 -69t-76 -38t-75 -17.5t-72 -3.5q-72 0 -136 18zM1253 248h238q91 0 150 52t59 142q0 89 -59 140t-150 51h-238v-385z" />
<glyph unicode="&#x40a;" horiz-adv-x="2076" d="M137 0v1434h289v-560h555v560h289v-564h225q241 0 380.5 -122.5t139.5 -323.5q0 -137 -68.5 -235t-177.5 -143.5t-245 -45.5h-543v614h-555v-614h-289zM1270 264h237q91 0 150 46t59 128t-58.5 126t-150.5 44h-237v-344z" />
<glyph unicode="&#x40b;" horiz-adv-x="1562" d="M43 1174v260h1102v-260h-477v-324q44 43 124 70.5t179 27.5q121 0 213.5 -36.5t150 -102t86.5 -152.5t29 -192v-465h-285v463q0 98 -56 156.5t-181 58.5q-41 0 -82 -8t-83 -26t-68.5 -53t-26.5 -83v-508h-289v1174h-336z" />
<glyph unicode="&#x40c;" horiz-adv-x="1351" d="M137 0v1434h289v-578h149l416 578h324l-516 -686l532 -748h-332l-424 612h-149v-612h-289zM487 1511l138 295h297l-199 -295h-236z" />
<glyph unicode="&#x40d;" horiz-adv-x="1464" d="M137 0v1434h285v-967l612 967h293v-1434h-285v958l-618 -958h-287zM453 1806h297l137 -295h-236z" />
<glyph unicode="&#x40e;" horiz-adv-x="1353" d="M63 1434h314l328 -727l325 727h307l-579 -1237q-31 -67 -75 -111.5t-96 -65.5t-98.5 -28.5t-103.5 -7.5q-95 0 -188 26l32 236q71 -19 140 -19q67 0 104.5 21t65.5 84l18 41zM262 1864h252q0 -63 43.5 -102.5t142.5 -39.5q96 0 141.5 39.5t45.5 102.5h252 q0 -156 -112.5 -254.5t-326.5 -98.5q-211 0 -324.5 99t-113.5 254z" />
<glyph unicode="&#x40f;" horiz-adv-x="1411" d="M137 0v1434h289v-1160h559v1160h289v-1434h-426v-383h-285v383h-426z" />
<glyph unicode="&#x410;" horiz-adv-x="1351" d="M16 0l508 1434h303l508 -1434h-291l-124 369h-488l-125 -369h-291zM510 608h334l-168 516z" />
<glyph unicode="&#x411;" horiz-adv-x="1185" d="M137 0v1434h889v-250h-600v-289h184q241 0 380.5 -125.5t139.5 -329.5q0 -107 -39.5 -192t-107.5 -138.5t-156 -81.5t-188 -28h-502zM426 248h197q90 0 149 57t59 152q0 96 -58.5 150.5t-149.5 54.5h-197v-414z" />
<glyph unicode="&#x412;" horiz-adv-x="1171" d="M137 0v1434h455q214 0 342.5 -103t128.5 -276q0 -98 -47 -182.5t-125 -127.5q102 -43 160.5 -129t58.5 -196q0 -102 -39.5 -183t-107.5 -132t-156.5 -78t-188.5 -27h-481zM426 248h176q90 0 149.5 51t59.5 137q0 87 -59 136t-150 49h-176v-373zM426 854h164q76 0 127 47 t51 121q0 73 -50 117.5t-132 44.5h-160v-330z" />
<glyph unicode="&#x413;" horiz-adv-x="1060" d="M137 0v1434h862v-260h-573v-1174h-289z" />
<glyph unicode="&#x414;" horiz-adv-x="1705" d="M82 274h254q135 474 135 1160h956v-1160h187v-657h-285v383h-962v-383h-285v657zM631 274h508v897h-383q-8 -223 -43.5 -463t-81.5 -434z" />
<glyph unicode="&#x415;" horiz-adv-x="985" d="M137 0v1434h737v-260h-448v-320h385v-256h-385v-340h467v-258h-756z" />
<glyph unicode="&#x416;" horiz-adv-x="2168" d="M20 0l568 748l-535 686h324l434 -578h129v578h289v-578h129l434 578h324l-535 -686l567 -748h-331l-459 612h-129v-612h-289v612h-129l-459 -612h-332z" />
<glyph unicode="&#x417;" horiz-adv-x="1296" d="M109 287l260 112q38 -81 103 -115t161 -34q107 0 171 48t64 132q0 80 -61.5 131t-171.5 51h-316v256h355q78 0 123 44.5t45 109.5q0 71 -54 117.5t-153 46.5q-154 0 -207 -96l-268 79q39 137 173 214t316 77q222 0 354 -108t132 -293q0 -119 -44.5 -199.5t-115.5 -120.5 q82 -38 134 -120t52 -209q0 -190 -147.5 -312.5t-388.5 -122.5q-93 0 -173 19t-136 50t-99 72.5t-68.5 83.5t-39.5 87z" />
<glyph unicode="&#x418;" horiz-adv-x="1464" d="M137 0v1434h285v-967l612 967h293v-1434h-285v958l-618 -958h-287z" />
<glyph unicode="&#x419;" horiz-adv-x="1464" d="M137 0v1434h285v-967l612 967h293v-1434h-285v958l-618 -958h-287zM313 1864h252q0 -63 44 -102.5t143 -39.5q96 0 141 39.5t45 102.5h252q0 -156 -112 -254.5t-326 -98.5q-211 0 -325 99t-114 254z" />
<glyph unicode="&#x41a;" horiz-adv-x="1351" d="M137 0v1434h289v-578h149l416 578h324l-516 -686l532 -748h-332l-424 612h-149v-612h-289z" />
<glyph unicode="&#x41b;" horiz-adv-x="1390" d="M20 8l43 260q42 -10 72 -10q77 0 101 117q24 112 37.5 355t27.5 704h952v-1434h-288v1174h-387q-5 -82 -14 -262.5t-13 -243.5t-12.5 -170t-19 -166t-25.5 -107q-19 -62 -50.5 -107t-64.5 -69t-76 -38t-75 -17.5t-72 -3.5q-72 0 -136 18z" />
<glyph unicode="&#x41c;" horiz-adv-x="1837" d="M135 0v1434h373l410 -977l411 977h373v-1434h-277v1024l-372 -903h-269l-372 903v-1024h-277z" />
<glyph unicode="&#x41d;" horiz-adv-x="1447" d="M137 0v1434h289v-582h596v582h289v-1434h-289v592h-596v-592h-289z" />
<glyph unicode="&#x41e;" horiz-adv-x="1613" d="M61 717q0 208 94 377t265 267.5t387 98.5t387 -98.5t264.5 -267.5t93.5 -377q0 -157 -55 -294t-152 -236.5t-236.5 -156.5t-301.5 -57q-216 0 -387 97.5t-265 267.5t-94 379zM362 717q0 -206 126 -339.5t319 -133.5t318.5 133.5t125.5 339.5q0 203 -125.5 338t-318.5 135 t-319 -135t-126 -338z" />
<glyph unicode="&#x41f;" horiz-adv-x="1427" d="M137 0v1434h1153v-1434h-289v1174h-575v-1174h-289z" />
<glyph unicode="&#x420;" horiz-adv-x="1110" d="M137 0v1434h457q211 0 341 -122.5t130 -324.5q0 -198 -132.5 -325t-336.5 -127h-170v-535h-289zM426 784h129q95 0 154 56t59 147q0 88 -58.5 142.5t-150.5 54.5h-133v-400z" />
<glyph unicode="&#x421;" horiz-adv-x="1306" d="M61 717q0 156 56.5 293.5t155 236.5t238 156t298.5 57q249 0 426 -131l-82 -254q-66 46 -156 80.5t-188 34.5q-194 0 -320.5 -135t-126.5 -338q0 -206 126 -339.5t321 -133.5q188 0 356 116l82 -251q-186 -136 -438 -136q-220 0 -391.5 98t-264 267t-92.5 379z" />
<glyph unicode="&#x422;" horiz-adv-x="1046" d="M43 1174v260h958v-260h-333v-1174h-289v1174h-336z" />
<glyph unicode="&#x423;" horiz-adv-x="1353" d="M63 1434h314l328 -727l325 727h307l-579 -1237q-31 -67 -75 -111.5t-96 -65.5t-98.5 -28.5t-103.5 -7.5q-95 0 -188 26l32 236q71 -19 140 -19q67 0 104.5 21t65.5 84l18 41z" />
<glyph unicode="&#x424;" horiz-adv-x="1679" d="M74 717q0 113 39 212t114.5 178t195 132t271.5 70v166h289v-166q153 -17 273 -70t196 -132t115 -178t39 -212q0 -237 -160 -398t-463 -194v-166h-289v166q-302 33 -461 194t-159 398zM375 717q0 -125 78 -210t241 -110v639q-163 -27 -241 -112t-78 -207zM983 397 q164 25 243 109.5t79 210.5q0 122 -79.5 207t-242.5 112v-639z" />
<glyph unicode="&#x425;" horiz-adv-x="1306" d="M14 0l465 729l-450 705h342l278 -482l281 482h340l-451 -705l467 -729h-321q-147 236 -316 512l-313 -512h-322z" />
<glyph unicode="&#x426;" horiz-adv-x="1558" d="M137 0v1434h289v-1160h567v1160h289v-1160h184v-657h-284v383h-1045z" />
<glyph unicode="&#x427;" horiz-adv-x="1363" d="M127 1018v416h285v-414q0 -101 55.5 -154t185.5 -53q42 0 86 7t91.5 23t77.5 50t30 82v459h289v-1434h-289v633q-43 -40 -125.5 -65t-185.5 -25q-249 0 -374.5 127t-125.5 348z" />
<glyph unicode="&#x428;" horiz-adv-x="1992" d="M137 0v1434h289v-1160h426v1160h289v-1160h426v1160h288v-1434h-1718z" />
<glyph unicode="&#x429;" horiz-adv-x="2131" d="M137 0v1434h289v-1160h426v1160h289v-1160h426v1160h288v-1160h185v-657h-285v383h-1618z" />
<glyph unicode="&#x42a;" horiz-adv-x="1566" d="M43 1174v260h717v-555h225q241 0 380.5 -123t139.5 -324q0 -105 -39.5 -189t-107.5 -136t-155.5 -79.5t-188.5 -27.5h-543v1174h-428zM760 256h237q91 0 150 49.5t59 136.5q0 86 -59 134.5t-150 48.5h-237v-369z" />
<glyph unicode="&#x42b;" horiz-adv-x="1767" d="M137 0v1434h289v-555h217q241 0 380.5 -123t139.5 -324q0 -105 -39.5 -189t-107.5 -136t-155.5 -79.5t-188.5 -27.5h-535zM426 256h229q91 0 150 49.5t59 136.5q0 86 -59 134.5t-150 48.5h-229v-369zM1341 0v1434h289v-1434h-289z" />
<glyph unicode="&#x42c;" horiz-adv-x="1232" d="M137 0v1434h289v-555h225q241 0 380.5 -123t139.5 -324q0 -105 -39.5 -189t-107.5 -136t-155.5 -79.5t-188.5 -27.5h-543zM426 256h238q91 0 149.5 49.5t58.5 136.5q0 86 -58.5 134.5t-149.5 48.5h-238v-369z" />
<glyph unicode="&#x42d;" horiz-adv-x="1394" d="M70 109l82 251q68 -44 175 -80t226 -36q186 0 309.5 95t157.5 259h-780v256h776q-39 155 -158 245.5t-293 90.5q-110 0 -211.5 -35t-169.5 -80l-82 254q80 57 199 94t264 37q226 0 401.5 -96t271 -265t95.5 -382q0 -160 -55 -297.5t-154.5 -236t-246.5 -154.5t-324 -56 q-157 0 -279.5 39.5t-203.5 96.5z" />
<glyph unicode="&#x42e;" horiz-adv-x="2187" d="M137 0v1434h289v-582h285q28 175 122 312.5t245 216.5t335 79q207 0 370.5 -98.5t253 -267.5t89.5 -377q0 -210 -89.5 -379.5t-253 -267t-370.5 -97.5q-280 0 -472.5 173t-231.5 446h-283v-592h-289zM1001 717q0 -206 116 -339.5t296 -133.5t296 133.5t116 339.5 q0 203 -116.5 338t-295.5 135t-295.5 -135t-116.5 -338z" />
<glyph unicode="&#x42f;" horiz-adv-x="1239" d="M29 0l350 616q-96 57 -151.5 156t-55.5 227q0 91 32.5 169.5t92.5 138t153 93.5t207 34h445v-1434h-289v545h-172l-293 -545h-319zM469 989q0 -94 57 -147.5t140 -53.5h147v396h-133q-98 0 -154.5 -52.5t-56.5 -142.5z" />
<glyph unicode="&#x430;" horiz-adv-x="1077" d="M49 336q0 160 114.5 259t301.5 99q75 0 136 -17.5t95 -41.5v82q0 72 -51 114.5t-143 42.5q-139 0 -285 -75l-106 192q78 54 191.5 90.5t229.5 36.5q125 0 214 -31t139 -89.5t72 -131.5t22 -168v-698h-250l-18 70q-90 -97 -260 -97q-169 0 -285.5 99t-116.5 264zM332 344 q0 -67 53 -109t133 -42q81 0 132.5 41.5t51.5 109.5q0 71 -51.5 112.5t-134.5 41.5q-81 0 -132.5 -43t-51.5 -111z" />
<glyph unicode="&#x431;" horiz-adv-x="1284" d="M57 588q0 85 2.5 146.5t14.5 155t34 165.5t65 150t103 136q66 64 155.5 109.5t187.5 71t184.5 40.5t185 30t150.5 28l-29 -274q-54 -10 -157 -22t-170 -21.5t-147 -37t-132 -69.5q-103 -83 -133 -197q132 101 299 101q159 0 285 -77t195 -207.5t69 -289.5 q0 -238 -164.5 -395.5t-417.5 -157.5q-261 0 -420.5 160.5t-159.5 454.5zM340 535q0 -134 82.5 -223t210.5 -89q132 0 217.5 89.5t85.5 222.5q0 135 -84 225t-215 90q-130 0 -213.5 -90.5t-83.5 -224.5z" />
<glyph unicode="&#x432;" horiz-adv-x="1038" d="M111 0v1092h415q188 0 296 -78t108 -209q0 -81 -38 -143.5t-104 -98.5q82 -30 129.5 -96.5t47.5 -161.5q0 -144 -112 -224.5t-294 -80.5h-448zM393 244h125q160 0 160 98q0 109 -160 109h-125v-207zM393 664h129q56 0 88.5 25.5t32.5 72.5q0 42 -31.5 66t-89.5 24h-129 v-188z" />
<glyph unicode="&#x433;" horiz-adv-x="901" d="M111 0v1092h757v-265h-475v-827h-282z" />
<glyph unicode="&#x434;" horiz-adv-x="1333" d="M49 264h191q88 344 88 828h811v-828h141v-555h-274v291h-682v-291h-275v555zM524 264h332v584h-252q-14 -293 -80 -584z" />
<glyph unicode="&#x435;" horiz-adv-x="1144" d="M53 545q0 162 67 293t187.5 205.5t270.5 74.5q246 0 383 -155.5t137 -423.5q0 -42 -2 -62h-754q5 -113 83 -185.5t196 -72.5q96 0 161.5 41.5t98.5 89.5l186 -141q-14 -26 -37 -54t-63.5 -61.5t-88.5 -59.5t-117 -43.5t-145 -17.5q-254 0 -408.5 161t-154.5 411zM350 662 h461q-4 101 -68 163t-161 62t-160 -63.5t-72 -161.5z" />
<glyph unicode="&#x436;" horiz-adv-x="1857" d="M-20 0l493 565l-403 527h321l314 -418h81v418h285v-418h80l315 418h322l-404 -527l494 -565h-350l-371 440h-86v-440h-285v440h-86l-370 -440h-350z" />
<glyph unicode="&#x437;" horiz-adv-x="1118" d="M92 199l244 114q28 -54 80 -73t143 -19q84 0 131 29t47 76q0 63 -59 93t-139 30h-279v225h295q73 0 117.5 27t44.5 71q0 37 -27.5 60.5t-61 30.5t-75.5 7q-67 0 -103 -11.5t-57 -43.5l-256 98q21 56 64.5 97t102.5 64t123.5 33.5t137.5 10.5q211 0 323.5 -89t112.5 -226 q0 -89 -41.5 -149t-107.5 -91q75 -29 122.5 -94.5t47.5 -165.5q0 -146 -122.5 -238t-354.5 -92q-70 0 -134 10.5t-128 34.5t-114 70.5t-77 110.5z" />
<glyph unicode="&#x438;" horiz-adv-x="1271" d="M111 0v1092h284v-670l479 670h287v-1092h-289v664l-477 -664h-284z" />
<glyph unicode="&#x439;" horiz-adv-x="1271" d="M111 0v1092h284v-670l479 670h287v-1092h-289v664l-477 -664h-284zM281 1538h219q0 -61 39.5 -99t124.5 -38q84 0 123.5 38t39.5 99h220q0 -148 -98.5 -242t-284.5 -94q-184 0 -283.5 94t-99.5 242z" />
<glyph unicode="&#x43a;" horiz-adv-x="1234" d="M111 0v1092h284v-433h80l356 433h326l-450 -537l548 -555h-366l-404 422h-90v-422h-284z" />
<glyph unicode="&#x43b;" horiz-adv-x="1153" d="M25 8l26 242q46 -8 55 -8q32 0 49.5 19t28.5 65q25 105 49 766h809v-1092h-284v848h-252q-10 -222 -15.5 -314.5t-17.5 -199t-31 -164.5q-15 -47 -41.5 -81.5t-54.5 -52.5t-65 -28.5t-64.5 -13t-60.5 -2.5q-69 0 -131 16z" />
<glyph unicode="&#x43c;" horiz-adv-x="1527" d="M111 0v1092h325l328 -678l330 678h323v-1092h-276v608l-254 -510h-246l-254 510v-608h-276z" />
<glyph unicode="&#x43d;" horiz-adv-x="1286" d="M111 0v1092h282v-381h500v381h283v-1092h-283v449h-500v-449h-282z" />
<glyph unicode="&#x43e;" horiz-adv-x="1255" d="M51 543q0 162 75.5 294t207.5 206.5t293 74.5q162 0 294 -75t207.5 -206.5t75.5 -293.5q0 -247 -163 -408.5t-414 -161.5q-250 0 -413 162t-163 408zM334 543q0 -139 83.5 -229.5t209.5 -90.5q128 0 211.5 90.5t83.5 229.5q0 140 -84 232.5t-211 92.5t-210 -92t-83 -233z " />
<glyph unicode="&#x43f;" horiz-adv-x="1267" d="M111 0v1092h1046v-1092h-283v827h-481v-827h-282z" />
<glyph unicode="&#x440;" horiz-adv-x="1271" d="M111 -383v1475h266v-113q14 18 37.5 38t62.5 44.5t96 40.5t121 16q230 0 377.5 -161t147.5 -410q0 -254 -139.5 -414t-368.5 -160q-64 0 -122 16t-97 40.5t-62.5 44.5t-36.5 37v-494h-282zM385 549q0 -150 77 -238t197 -88q122 0 198.5 91.5t76.5 234.5q0 145 -77 232 t-198 87q-125 0 -199.5 -92t-74.5 -227z" />
<glyph unicode="&#x441;" horiz-adv-x="1003" d="M51 543q0 163 74 294.5t204.5 206t291.5 74.5q186 0 337 -114l-79 -238q-111 102 -250 102q-133 0 -214 -93.5t-81 -229.5q0 -140 86 -231t219 -91q126 0 242 96l75 -231q-143 -115 -333 -115q-250 0 -411 161t-161 409z" />
<glyph unicode="&#x442;" horiz-adv-x="1110" d="M25 831v261h1060v-261h-389v-831h-282v831h-389z" />
<glyph unicode="&#x443;" horiz-adv-x="1118" d="M12 1092h303l246 -719l248 719h295l-553 -1459h-270l149 394z" />
<glyph unicode="&#x444;" horiz-adv-x="1497" d="M61 541q0 222 145 373t402 184v383h281v-383q258 -33 402.5 -184.5t144.5 -372.5q0 -220 -145 -372t-402 -185v-367h-281v367q-259 33 -403 183.5t-144 373.5zM346 541q0 -117 66.5 -198t195.5 -110v613q-128 -30 -195 -111.5t-67 -193.5zM889 233q130 28 197 110t67 198 q0 114 -67 195.5t-197 109.5v-613z" />
<glyph unicode="&#x445;" horiz-adv-x="1089" d="M10 0l377 557l-360 535h317l201 -336l200 336h318l-361 -535l377 -557h-307l-227 346l-230 -346h-305z" />
<glyph unicode="&#x446;" horiz-adv-x="1310" d="M111 0v1092h284v-828h436v828h285v-828h141v-555h-276v291h-870z" />
<glyph unicode="&#x447;" horiz-adv-x="1165" d="M102 772v320h279v-318q0 -59 42 -89t136 -30q33 0 66 5t67.5 16t56 34t21.5 54v328h285v-1092h-285v446q-26 -28 -94 -45.5t-152 -17.5q-213 0 -317.5 100.5t-104.5 288.5z" />
<glyph unicode="&#x448;" horiz-adv-x="1648" d="M111 0v1092h284v-828h287v828h285v-828h286v828h285v-1092h-1427z" />
<glyph unicode="&#x449;" horiz-adv-x="1732" d="M111 0v1092h284v-828h287v828h285v-828h286v828h285v-828h141v-555h-276v291h-1292z" />
<glyph unicode="&#x44a;" horiz-adv-x="1363" d="M25 831v261h673v-363h148q126 0 216 -31.5t138 -87t69 -118.5t21 -138q0 -164 -113 -259t-294 -95h-469v831h-389zM698 244h144q159 0 159 118q0 123 -151 123h-152v-241z" />
<glyph unicode="&#x44b;" horiz-adv-x="1497" d="M111 0v1092h284v-363h133q101 0 180 -21.5t128 -56.5t80.5 -85t44 -101.5t12.5 -110.5q0 -164 -113.5 -259t-294.5 -95h-454zM395 244h129q160 0 160 118q0 123 -152 123h-137v-241zM1102 0v1092h284v-1092h-284z" />
<glyph unicode="&#x44c;" horiz-adv-x="1060" d="M111 0v1092h284v-363h148q126 0 216 -31.5t138 -87t69 -118.5t21 -138q0 -164 -113 -259t-294 -95h-469zM395 244h144q159 0 159 118q0 123 -151 123h-152v-241z" />
<glyph unicode="&#x44d;" horiz-adv-x="1077" d="M51 88l76 231q135 -96 291 -96q111 0 193.5 57.5t113.5 153.5h-539v223h539q-30 94 -107 152.5t-186 58.5q-161 0 -291 -102l-80 238q168 114 379 114q254 0 420 -163.5t166 -411.5t-166.5 -409t-425.5 -161q-219 0 -383 115z" />
<glyph unicode="&#x44e;" horiz-adv-x="1742" d="M111 0v1092h282v-381h209q50 183 195.5 295t337.5 112q155 0 283 -75t201 -207t73 -293q0 -247 -157.5 -408.5t-399.5 -161.5q-216 0 -367 132.5t-182 343.5h-193v-449h-282zM862 543q0 -139 78 -229.5t195 -90.5q119 0 196.5 90.5t77.5 229.5q0 140 -78 232.5t-196 92.5 t-195.5 -92t-77.5 -233z" />
<glyph unicode="&#x44f;" horiz-adv-x="1091" d="M25 0l254 449q-81 39 -125.5 121t-44.5 186q0 161 110 248.5t328 87.5h434v-1092h-283v395h-149l-213 -395h-311zM395 745q0 -58 38 -84t114 -26h151v217h-143q-160 0 -160 -107z" />
<glyph unicode="&#x450;" horiz-adv-x="1144" d="M53 545q0 162 67 293t187.5 205.5t270.5 74.5q246 0 383 -155.5t137 -423.5q0 -42 -2 -62h-754q5 -113 83 -185.5t196 -72.5q96 0 161.5 41.5t98.5 89.5l186 -141q-14 -26 -37 -54t-63.5 -61.5t-88.5 -59.5t-117 -43.5t-145 -17.5q-254 0 -408.5 161t-154.5 411z M297 1501h297l137 -295h-235zM350 662h461q-4 101 -68 163t-161 62t-160 -63.5t-72 -161.5z" />
<glyph unicode="&#x451;" horiz-adv-x="1144" d="M53 545q0 162 67 293t187.5 205.5t270.5 74.5q246 0 383 -155.5t137 -423.5q0 -42 -2 -62h-754q5 -113 83 -185.5t196 -72.5q96 0 161.5 41.5t98.5 89.5l186 -141q-14 -26 -37 -54t-63.5 -61.5t-88.5 -59.5t-117 -43.5t-145 -17.5q-254 0 -408.5 161t-154.5 411z M254 1354q0 58 39.5 98.5t99.5 40.5q59 0 99 -40.5t40 -98.5q0 -59 -39.5 -99.5t-99.5 -40.5q-61 0 -100 40.5t-39 99.5zM350 662h461q-4 101 -68 163t-161 62t-160 -63.5t-72 -161.5zM647 1354q0 58 38.5 98.5t100.5 40.5q59 0 99.5 -40.5t40.5 -98.5q0 -59 -40 -99.5 t-100 -40.5q-62 0 -100.5 40t-38.5 100z" />
<glyph unicode="&#x452;" horiz-adv-x="1271" d="M20 1116v217h162v148h283v-148h397v-217h-397v-242q42 63 120.5 107.5t182.5 44.5q391 0 391 -479v-561q0 -377 -430 -377q-19 0 -41.5 2t-35.5 4l-13 2v236q41 -5 70 -5q170 0 170 150v553q0 106 -54.5 163.5t-144.5 57.5q-97 0 -156 -56.5t-59 -144.5v-571h-283v1116 h-162z" />
<glyph unicode="&#x453;" horiz-adv-x="901" d="M111 0v1092h757v-265h-475v-827h-282zM311 1206l138 295h296l-198 -295h-236z" />
<glyph unicode="&#x454;" horiz-adv-x="1071" d="M55 543q0 163 76.5 294.5t211.5 206t302 74.5q211 0 379 -114l-80 -238q-130 102 -291 102q-112 0 -190.5 -59.5t-108.5 -155.5h541v-223h-539q33 -95 115 -151t193 -56q147 0 282 96l76 -231q-164 -115 -375 -115q-259 0 -425.5 161t-166.5 409z" />
<glyph unicode="&#x455;" horiz-adv-x="890" d="M39 172l166 147q101 -116 246 -116q60 0 95.5 27.5t35.5 74.5q0 34 -28 59.5t-72.5 43.5t-98.5 37t-108 47t-98.5 64.5t-72.5 98t-28 140.5q0 147 110.5 235t278.5 88q137 0 228 -56t138 -134l-186 -140q-83 103 -192 103q-50 0 -80.5 -25.5t-30.5 -66.5q0 -35 28 -60.5 t73 -43t99 -35t108 -43.5t99 -61.5t73 -96.5t28 -140q0 -155 -117.5 -250.5t-294.5 -95.5q-145 0 -247 59t-152 140z" />
<glyph unicode="&#x456;" d="M86 1350q0 69 47.5 115t116.5 46q71 0 118.5 -46t47.5 -115t-47.5 -115.5t-118.5 -46.5q-69 0 -116.5 46.5t-47.5 115.5zM111 0v1092h282v-1092h-282z" />
<glyph unicode="&#x457;" d="M-76 1358q0 58 39.5 98.5t99.5 40.5q59 0 99.5 -40.5t40.5 -98.5q0 -59 -40 -99t-100 -40q-61 0 -100 40t-39 99zM111 0v1092h282v-1092h-282zM317 1358q0 58 39 98.5t101 40.5q59 0 99 -40.5t40 -98.5q0 -59 -39.5 -99t-99.5 -40q-62 0 -101 40t-39 99z" />
<glyph unicode="&#x458;" d="M-86 -147q29 -5 49 -5q148 0 148 150v1094h282v-1106q0 -103 -31 -178t-87.5 -117.5t-128.5 -62t-162 -19.5l-70 4v240zM86 1350q0 69 47.5 115t116.5 46q71 0 118.5 -46t47.5 -115t-47.5 -115.5t-118.5 -46.5q-69 0 -116.5 46.5t-47.5 115.5z" />
<glyph unicode="&#x459;" horiz-adv-x="1708" d="M25 8l26 242q46 -8 55 -8q32 0 49.5 19t28.5 65q25 105 49 766h809v-363h148q126 0 216 -31.5t138 -87t69 -118.5t21 -138q0 -164 -113 -259t-294 -95h-469v848h-252q-10 -222 -15.5 -314.5t-17.5 -199t-31 -164.5q-15 -47 -41.5 -81.5t-54.5 -52.5t-65 -28.5t-64.5 -13 t-60.5 -2.5q-69 0 -131 16zM1042 244h144q160 0 160 118q0 123 -152 123h-152v-241z" />
<glyph unicode="&#x45a;" horiz-adv-x="1843" d="M111 0v1092h282v-375h500v375h285v-379h147q101 0 180 -21t128 -55.5t80.5 -83t43.5 -99t12 -108.5q0 -161 -113 -253.5t-294 -92.5h-469v463h-500v-463h-282zM1178 244h143q160 0 160 110q0 115 -152 115h-151v-225z" />
<glyph unicode="&#x45b;" horiz-adv-x="1263" d="M20 1116v217h162v148h283v-148h397v-217h-397v-242q42 63 120.5 107.5t182.5 44.5q391 0 391 -479v-547h-280v551q0 106 -54.5 163.5t-144.5 57.5q-97 0 -156 -56.5t-59 -144.5v-571h-283v1116h-162z" />
<glyph unicode="&#x45c;" horiz-adv-x="1234" d="M111 0v1092h284v-433h80l356 433h326l-450 -537l548 -555h-366l-404 422h-90v-422h-284zM406 1206l137 295h297l-199 -295h-235z" />
<glyph unicode="&#x45d;" horiz-adv-x="1271" d="M111 0v1092h284v-670l479 670h287v-1092h-289v664l-477 -664h-284zM379 1501h297l137 -295h-235z" />
<glyph unicode="&#x45e;" horiz-adv-x="1118" d="M12 1092h303l246 -719l248 719h295l-553 -1459h-270l149 394zM201 1538h219q0 -61 39.5 -99t124.5 -38q84 0 124 38.5t40 98.5h219q0 -148 -98.5 -242t-284.5 -94q-184 0 -283.5 94t-99.5 242z" />
<glyph unicode="&#x45f;" horiz-adv-x="1234" d="M111 0v1092h284v-832h445v832h284v-1092h-368v-291h-277v291h-368z" />
<glyph unicode="&#x490;" horiz-adv-x="1095" d="M137 0v1434h633v348h260v-608h-604v-1174h-289z" />
<glyph unicode="&#x491;" horiz-adv-x="974" d="M111 0v1092h540v297h279v-558h-535v-831h-284z" />
<glyph unicode="&#x492;" horiz-adv-x="1200" d="M41 598v260h235v576h863v-260h-574v-316h389v-260h-389v-598h-289v598h-235z" />
<glyph unicode="&#x493;" horiz-adv-x="980" d="M41 367v264h149v461h758v-265h-475v-196h297v-264h-297v-367h-283v367h-149z" />
<glyph unicode="&#x49a;" horiz-adv-x="1527" d="M137 0v1434h289v-578h149l416 578h324l-516 -686l336 -474h301v-657h-285v383h-152l-424 612h-149v-612h-289z" />
<glyph unicode="&#x49b;" horiz-adv-x="1308" d="M111 0v1092h284v-433h80l356 433h326l-450 -537l286 -291h283v-555h-272v291h-115l-404 422h-90v-422h-284z" />
<glyph unicode="&#x4a2;" horiz-adv-x="1587" d="M137 0v1434h289v-582h596v582h289v-1160h184v-657h-285v383h-188v592h-596v-592h-289z" />
<glyph unicode="&#x4a3;" horiz-adv-x="1372" d="M111 0v1092h282v-381h500v381h283v-828h143v-555h-277v291h-149v449h-500v-449h-282z" />
<glyph unicode="&#x4ae;" horiz-adv-x="1196" d="M14 1434h326l258 -514l258 514h326l-441 -779v-655h-286v655z" />
<glyph unicode="&#x4af;" horiz-adv-x="1110" d="M8 1092h301l246 -709l246 709h301l-406 -986v-489h-282v489z" />
<glyph unicode="&#x4b0;" horiz-adv-x="1196" d="M14 1434h326l258 -514l258 514h326l-416 -734h289v-260h-314v-440h-286v440h-314v260h287z" />
<glyph unicode="&#x4b1;" horiz-adv-x="1110" d="M8 1092h301l246 -709l246 709h301l-406 -983h258v-265h-258v-227h-282v227h-256v265h254z" />
<glyph unicode="&#x4b2;" horiz-adv-x="1486" d="M14 0l465 729l-450 705h342l278 -482l281 482h340l-451 -705l291 -455h315v-657h-284v383h-176q-147 236 -316 512l-313 -512h-322z" />
<glyph unicode="&#x4b3;" horiz-adv-x="1212" d="M10 0l377 557l-360 535h317l201 -336l200 336h318l-361 -535l197 -293h281v-555h-273v291h-135l-227 346l-230 -346h-305z" />
<glyph unicode="&#x4d8;" horiz-adv-x="1509" d="M90 725q0 53 2 80h1051q-6 169 -127 279t-305 110q-68 0 -129 -19t-103 -49t-69.5 -58t-44.5 -56l-234 145q18 33 47.5 69.5t82 80.5t115.5 77.5t152.5 56.5t188.5 23q164 0 302 -56.5t231.5 -156t145.5 -237t52 -297.5q0 -158 -51 -296t-140.5 -237t-217 -156 t-273.5 -57q-319 0 -497.5 202.5t-178.5 551.5zM401 565q6 -147 106 -237t255 -90t254 91.5t117 235.5h-732z" />
<glyph unicode="&#x4d9;" horiz-adv-x="1144" d="M47 553q0 41 2 61h754q-5 113 -83 185.5t-196 72.5q-96 0 -161.5 -41.5t-98.5 -89.5l-186 142q14 26 37 54t63 61.5t88 59t117 43t145 17.5q254 0 409 -160.5t155 -410.5q0 -162 -67 -293.5t-187.5 -206t-270.5 -74.5q-246 0 -383 156t-137 424zM334 430q4 -101 68 -163 t161 -62t160 63.5t72 161.5h-461z" />
<glyph unicode="&#x4e8;" horiz-adv-x="1613" d="M61 717q0 208 94 377t265 267.5t387 98.5t387 -98.5t264.5 -267.5t93.5 -377q0 -157 -55 -294t-152 -236.5t-236.5 -156.5t-301.5 -57q-216 0 -387 97.5t-265 267.5t-94 379zM377 592q35 -158 151.5 -253t278.5 -95t278.5 95t151.5 253h-860zM381 860h852 q-40 148 -155.5 239t-270.5 91q-156 0 -271 -91t-155 -239z" />
<glyph unicode="&#x4e9;" horiz-adv-x="1255" d="M51 543q0 162 75.5 294t207.5 206.5t293 74.5q162 0 294 -75t207.5 -206.5t75.5 -293.5q0 -247 -163 -408.5t-414 -161.5q-250 0 -413 162t-163 408zM352 422q31 -91 105 -145t170 -54t169.5 54t104.5 145h-549zM352 668h549q-33 92 -105.5 146t-168.5 54t-170 -54.5 t-105 -145.5z" />
<glyph unicode="&#x1e80;" horiz-adv-x="1996" d="M18 1434h316l248 -1074l284 1074h267l284 -1074l250 1074h313l-383 -1434h-327l-271 989l-270 -989h-326zM662 1806h296l138 -295h-236z" />
<glyph unicode="&#x1e81;" horiz-adv-x="1695" d="M14 1071h308l188 -760l205 760h266l203 -760l190 760h307l-321 -1071h-316l-196 686l-199 -686h-315zM524 1485h297l137 -295h-235z" />
<glyph unicode="&#x1e82;" horiz-adv-x="1998" d="M18 1434h316l248 -1074l284 1074h267l284 -1074l250 1074h313l-383 -1434h-327l-271 989l-270 -989h-326zM872 1511l138 295h297l-199 -295h-236z" />
<glyph unicode="&#x1e83;" horiz-adv-x="1695" d="M14 1071h308l188 -760l205 760h266l203 -760l190 760h307l-321 -1071h-316l-196 686l-199 -686h-315zM735 1190l137 295h297l-198 -295h-236z" />
<glyph unicode="&#x1e84;" horiz-adv-x="1998" d="M18 1434h316l248 -1074l284 1074h267l284 -1074l250 1074h313l-383 -1434h-327l-271 989l-270 -989h-326zM666 1663q0 58 39.5 98.5t99.5 40.5q59 0 99 -40.5t40 -98.5q0 -59 -39.5 -99t-99.5 -40q-61 0 -100 40t-39 99zM1059 1663q0 58 38.5 98.5t100.5 40.5 q59 0 99 -40.5t40 -98.5q0 -59 -39.5 -99t-99.5 -40q-62 0 -100.5 39.5t-38.5 99.5z" />
<glyph unicode="&#x1e85;" horiz-adv-x="1695" d="M14 1071h308l188 -760l205 760h266l203 -760l190 760h307l-321 -1071h-316l-196 686l-199 -686h-315zM510 1337q0 58 39.5 99t99.5 41q59 0 99 -41t40 -99q0 -59 -39.5 -99t-99.5 -40q-61 0 -100 40t-39 99zM903 1337q0 59 38.5 99.5t100.5 40.5q59 0 99.5 -41t40.5 -99 q0 -59 -40 -99t-100 -40q-62 0 -100.5 39.5t-38.5 99.5z" />
<glyph unicode="&#x1ef2;" horiz-adv-x="1196" d="M14 1434h326l258 -514l258 514h326l-441 -779v-655h-286v655zM311 1806h297l137 -295h-235z" />
<glyph unicode="&#x1ef3;" horiz-adv-x="1105" d="M12 1071h303l240 -698l242 698h295l-547 -1438h-271l150 394zM270 1485h297l138 -295h-236z" />
<glyph unicode="&#x2000;" horiz-adv-x="1037" />
<glyph unicode="&#x2001;" horiz-adv-x="2075" />
<glyph unicode="&#x2002;" horiz-adv-x="1037" />
<glyph unicode="&#x2003;" horiz-adv-x="2075" />
<glyph unicode="&#x2004;" horiz-adv-x="691" />
<glyph unicode="&#x2005;" horiz-adv-x="518" />
<glyph unicode="&#x2006;" horiz-adv-x="345" />
<glyph unicode="&#x2007;" horiz-adv-x="345" />
<glyph unicode="&#x2008;" horiz-adv-x="259" />
<glyph unicode="&#x2009;" horiz-adv-x="415" />
<glyph unicode="&#x200a;" horiz-adv-x="115" />
<glyph unicode="&#x2010;" horiz-adv-x="755" d="M92 496v254h570v-254h-570z" />
<glyph unicode="&#x2011;" horiz-adv-x="755" d="M92 496v254h570v-254h-570z" />
<glyph unicode="&#x2012;" horiz-adv-x="755" d="M92 496v254h570v-254h-570z" />
<glyph unicode="&#x2013;" horiz-adv-x="1327" d="M92 514v231h1143v-231h-1143z" />
<glyph unicode="&#x2014;" horiz-adv-x="1880" d="M92 514v231h1694v-231h-1694z" />
<glyph unicode="&#x2015;" horiz-adv-x="1880" d="M92 514v231h1694v-231h-1694z" />
<glyph unicode="&#x2018;" horiz-adv-x="460" d="M53 1053q0 134 64.5 253.5t163.5 192.5l110 -123q-40 -27 -80 -74t-47 -92q66 -14 104 -63t38 -107q0 -72 -50.5 -124t-122.5 -52q-77 0 -128.5 50.5t-51.5 138.5z" />
<glyph unicode="&#x2019;" horiz-adv-x="460" d="M53 1323q0 72 50 124t122 52q77 0 129 -50.5t52 -137.5q0 -134 -64.5 -254t-163.5 -193l-110 123q40 27 80 74t47 92q-66 14 -104 63t-38 107z" />
<glyph unicode="&#x201a;" horiz-adv-x="499" d="M76 145q0 72 50 124.5t122 52.5q77 0 128.5 -50.5t51.5 -138.5q0 -134 -64 -253.5t-163 -192.5l-111 123q41 27 80.5 74t46.5 91q-66 14 -103.5 62.5t-37.5 107.5z" />
<glyph unicode="&#x201c;" horiz-adv-x="870" d="M53 1053q0 134 64.5 253.5t163.5 192.5l110 -123q-40 -27 -80 -74t-47 -92q66 -14 104 -63t38 -107q0 -72 -50.5 -124t-122.5 -52q-77 0 -128.5 50.5t-51.5 138.5zM463 1053q0 134 64 253.5t163 192.5l111 -123q-40 -27 -80 -74t-47 -92q66 -14 103.5 -62.5t37.5 -107.5 q0 -72 -50 -124t-122 -52q-77 0 -128.5 50.5t-51.5 138.5z" />
<glyph unicode="&#x201d;" horiz-adv-x="870" d="M53 1323q0 72 50 124t122 52q77 0 129 -50.5t52 -137.5q0 -134 -64.5 -254t-163.5 -193l-110 123q40 27 80 74t47 92q-66 14 -104 63t-38 107zM463 1323q0 72 50 124t122 52q77 0 128.5 -50t51.5 -138q0 -134 -64 -254t-163 -193l-111 123q40 27 80 74t47 92 q-66 14 -103.5 62.5t-37.5 107.5z" />
<glyph unicode="&#x201e;" horiz-adv-x="870" d="M53 145q0 72 50 124.5t122 52.5q77 0 129 -50.5t52 -138.5q0 -134 -64.5 -253.5t-163.5 -192.5l-110 123q41 27 80.5 74t46.5 91q-66 14 -104 63t-38 107zM463 145q0 72 50 124.5t122 52.5q77 0 128.5 -50.5t51.5 -138.5q0 -134 -64 -253.5t-163 -192.5l-111 123 q41 27 80.5 74t46.5 91q-66 14 -103.5 62.5t-37.5 107.5z" />
<glyph unicode="&#x2020;" horiz-adv-x="870" d="M55 852v246h240v336h276v-336h244v-246h-244v-852h-276v852h-240z" />
<glyph unicode="&#x2021;" horiz-adv-x="868" d="M55 346v244h244v250h-244v245h244v349h276v-349h240v-245h-240v-250h240v-244h-240v-346h-276v346h-244z" />
<glyph unicode="&#x2022;" horiz-adv-x="831" d="M63 635q0 148 101 250t252 102t251.5 -102t100.5 -250t-100.5 -250t-251.5 -102t-252 102t-101 250z" />
<glyph unicode="&#x202f;" horiz-adv-x="415" />
<glyph unicode="&#x2030;" horiz-adv-x="2439" d="M57 1118q0 143 100 242.5t249 99.5t248.5 -99.5t99.5 -242.5t-99.5 -242.5t-248.5 -99.5t-249 99.5t-100 242.5zM143 0l1086 1434h274l-1085 -1434h-275zM272 1118q0 -57 37 -97t97 -40t96.5 40t36.5 97t-36.5 97t-96.5 40t-97 -40t-37 -97zM891 311q0 143 99.5 242.5 t248.5 99.5t248.5 -99.5t99.5 -242.5t-99.5 -242.5t-248.5 -99.5t-248.5 99.5t-99.5 242.5zM1106 311q0 -57 36.5 -97t96.5 -40t96.5 40t36.5 97q0 58 -36.5 98t-96.5 40t-96.5 -40t-36.5 -98zM1686 311q0 143 99.5 242.5t248.5 99.5t248.5 -99.5t99.5 -242.5t-99.5 -242.5 t-248.5 -99.5t-248.5 99.5t-99.5 242.5zM1901 311q0 -57 36.5 -97t96.5 -40t96.5 40t36.5 97q0 58 -36.5 98t-96.5 40t-96.5 -40t-36.5 -98z" />
<glyph unicode="&#x2039;" horiz-adv-x="618" d="M57 600l250 385h252l-250 -385l250 -383h-252z" />
<glyph unicode="&#x203a;" horiz-adv-x="618" d="M57 217l250 383l-250 385h252l250 -385l-250 -383h-252z" />
<glyph unicode="&#x2044;" horiz-adv-x="942" d="M-33 -84l766 1602h244l-768 -1602h-242z" />
<glyph unicode="&#x205f;" horiz-adv-x="518" />
<glyph unicode="&#x20ac;" horiz-adv-x="1320" d="M49 473v186h103q-5 20 -5 60q0 20 5 65h-103v189h139q68 215 248.5 351t419.5 136q223 0 367 -92l-119 -235q-111 63 -242 63q-122 0 -217.5 -60.5t-140.5 -162.5h452l-18 -189h-485q-4 -40 -4 -63q0 -38 6 -62h473l-19 -186h-397q47 -104 143 -165.5t222 -61.5 q77 0 143.5 20.5t105.5 46.5l111 -233q-44 -41 -142.5 -74t-217.5 -33q-258 0 -441 138t-250 362h-137z" />
<glyph unicode="&#x20ae;" horiz-adv-x="1048" d="M45 1174v260h959v-260h-334v-207l221 82l67 -193l-288 -106v-95l258 97l67 -193l-325 -119v-440h-289v334l-195 -70l-67 189l262 96v96l-231 -84l-68 189l299 110v314h-336z" />
<glyph unicode="&#x20b4;" horiz-adv-x="1189" d="M49 473v186h238q51 58 164 125h-402v189h680q31 43 31 84q0 60 -42 98.5t-114 38.5q-44 0 -80 -14t-60.5 -39.5t-39.5 -48.5t-29 -54l-239 109q12 36 31.5 73t56.5 82t83.5 78.5t117.5 56.5t153 23q204 0 327.5 -112.5t123.5 -294.5q0 -36 -7 -80h99v-189h-242 q-56 -63 -170 -125h412v-186h-682q-29 -40 -29 -84q0 -69 45 -108t125 -39q90 0 152.5 51.5t95.5 130.5l244 -119q-14 -40 -35.5 -80t-61.5 -87t-90 -82t-125.5 -59t-163.5 -24q-220 0 -349.5 122t-129.5 315q0 43 4 63h-92z" />
<glyph unicode="&#x20b9;" horiz-adv-x="1198" d="M111 520v244h362q117 0 156 96h-518v240h516q-41 94 -158 94h-358v240h1015v-240h-243q29 -43 45 -94h198v-240h-192q-37 -181 -164 -272l340 -588h-319l-279 520h-401z" />
<glyph unicode="&#x2116;" horiz-adv-x="2351" d="M135 0v1434h293l612 -983v983h285v-1434h-287l-618 975v-975h-285zM1475 1085q0 153 107.5 264t270.5 111q164 0 271.5 -111t107.5 -264t-107.5 -261.5t-271.5 -108.5t-271 108.5t-107 261.5zM1509 387v227h686v-227h-686zM1679 1085q0 -72 48.5 -123t125.5 -51 q75 0 125 51.5t50 122.5q0 72 -49 125.5t-126 53.5t-125.5 -53.5t-48.5 -125.5z" />
<glyph unicode="&#x2122;" horiz-adv-x="1591" d="M66 1260v174h550v-174h-178v-566h-192v566h-180zM686 694v740h244l174 -435l176 435h246v-740h-187v430l-145 -348h-176l-146 348v-430h-186z" />
<glyph unicode="&#x2212;" horiz-adv-x="1126" d="M74 524v228h979v-228h-979z" />
<glyph unicode="&#x25fc;" horiz-adv-x="1075" d="M0 0v1075h1075v-1075h-1075z" />
<glyph unicode="&#xf6c3;" horiz-adv-x="598" d="M141 -211q0 63 45.5 107.5t108.5 44.5q70 0 115 -49t45 -128q0 -107 -54 -203.5t-141 -156.5l-98 104q82 65 100 134q-57 11 -89 53.5t-32 93.5z" />
<glyph horiz-adv-x="755" d="M92 592v254h570v-254h-570z" />
<glyph horiz-adv-x="1327" d="M92 608v232h1143v-232h-1143z" />
<glyph horiz-adv-x="1880" d="M92 608v232h1694v-232h-1694z" />
<glyph horiz-adv-x="1003" d="M57 731l250 385h252l-250 -385l250 -383h-252zM442 731l250 385h252l-250 -385l250 -383h-252z" />
<glyph horiz-adv-x="1003" d="M57 348l250 383l-250 385h252l250 -385l-250 -383h-252zM442 348l250 383l-250 385h252l250 -385l-250 -383h-252z" />
<glyph horiz-adv-x="618" d="M57 731l250 385h252l-250 -385l250 -383h-252z" />
<glyph horiz-adv-x="618" d="M57 348l250 383l-250 385h252l250 -385l-250 -383h-252z" />
<glyph horiz-adv-x="679" d="M92 158v1112q0 434 457 434v-244q-176 0 -176 -174v-1143q0 -174 176 -174v-243q-457 0 -457 432z" />
<glyph horiz-adv-x="681" d="M131 -31q176 0 176 174v1143q0 174 -176 174v244q457 0 457 -434v-1112q0 -432 -457 -432v243z" />
<glyph horiz-adv-x="679" d="M92 -274v1978h457v-244h-176v-1491h176v-243h-457z" />
<glyph horiz-adv-x="684" d="M131 -31h176v1491h-176v244h457v-1978h-457v243z" />
<glyph horiz-adv-x="794" d="M57 584v264q150 0 150 203v219q0 434 457 434v-244q-179 0 -179 -174v-303q0 -66 -19 -119.5t-47.5 -83t-52 -45t-42.5 -20.5q18 -4 42 -19.5t52.5 -45t47.5 -82.5t19 -119v-306q0 -174 179 -174v-243q-457 0 -457 434v221q0 203 -150 203z" />
<glyph horiz-adv-x="577" d="M156 -420v2169h266v-2169h-266z" />
<glyph horiz-adv-x="794" d="M131 -31q178 0 178 174v306q0 66 19.5 119t47.5 82.5t52.5 45t42.5 19.5q-19 5 -42.5 20.5t-52.5 45t-48 83t-19 119.5v303q0 174 -178 174v244q457 0 457 -434v-219q0 -203 149 -203v-264q-149 0 -149 -203v-221q0 -434 -457 -434v243z" />
<glyph horiz-adv-x="925" d="M31 -166l616 1757h248l-616 -1757h-248z" />
<glyph horiz-adv-x="925" d="M31 1591h248l616 -1757h-248z" />
<glyph horiz-adv-x="598" d="M125 1288q0 71 50.5 121.5t123.5 50.5t123.5 -50.5t50.5 -121.5q0 -73 -50.5 -124.5t-123.5 -51.5t-123.5 51.5t-50.5 124.5zM150 0l22 1026h254l23 -1026h-299z" />
<glyph horiz-adv-x="987" d="M59 371q0 62 19 117t49 96t66.5 77.5t73 69t66.5 64.5t49 69.5t19 77.5v84h275v-100q0 -76 -34 -141.5t-82 -111.5t-96 -88.5t-82 -93t-34 -104.5q0 -63 47 -108.5t125 -45.5q127 0 182 127l226 -100q-13 -37 -33 -73.5t-55.5 -76t-79 -69t-107.5 -49t-137 -19.5 q-199 0 -328 112t-129 286zM365 1288q0 71 50.5 121.5t123.5 50.5t123.5 -50.5t50.5 -121.5q0 -73 -50.5 -124.5t-123.5 -51.5t-123.5 51.5t-50.5 124.5z" />
<glyph horiz-adv-x="509" d="M80 725q0 73 50.5 124.5t123.5 51.5t123.5 -51.5t50.5 -124.5q0 -71 -50.5 -121.5t-123.5 -50.5t-123.5 50.5t-50.5 121.5z" />
<glyph horiz-adv-x="831" d="M63 725q0 148 101 250t252 102t251.5 -102t100.5 -250t-100.5 -250t-251.5 -102t-252 102t-101 250z" />
<glyph horiz-adv-x="1189" d="M100 717q0 375 116 559t378 184q264 0 380 -183.5t116 -559.5q0 -377 -116 -560.5t-380 -183.5q-262 0 -378 183.5t-116 560.5zM393 717q0 -82 3 -141.5t10.5 -116t21.5 -94t36.5 -66t54.5 -42t75 -13.5q52 0 88.5 21t59 57t35 98t16.5 130t4 167q0 82 -3 141 t-10.5 115.5t-22 94t-36.5 66.5t-54.5 42.5t-76.5 13.5q-43 0 -75 -13.5t-54 -42.5t-36.5 -66.5t-22 -94t-10.5 -115.5t-3 -141z" />
<glyph horiz-adv-x="1189" d="M117 1235l454 199h236v-1182h266v-252h-915v252h364v897l-305 -133z" />
<glyph horiz-adv-x="1189" d="M119 1100q11 47 31 92.5t58.5 95.5t88 87t125 61t164.5 24q209 0 338 -117.5t129 -312.5q0 -78 -29.5 -152.5t-78 -134t-107 -115t-119.5 -104.5t-113.5 -93t-90.5 -90.5t-48 -88.5h602v-252h-944v102q0 83 35 165t90.5 150t123.5 133.5t135.5 125.5t123 116t90.5 114.5 t35 111.5q0 80 -49.5 128t-135.5 48q-152 0 -202 -168z" />
<glyph horiz-adv-x="1189" d="M113 326l247 77q24 -73 79.5 -119t142.5 -46q90 0 145 53.5t55 142.5q0 88 -60.5 141.5t-174.5 53.5h-158v223l297 328h-518v254h848v-254l-301 -316q69 -7 132.5 -38t115 -82t82 -128.5t30.5 -169.5q0 -208 -137.5 -340.5t-349.5 -132.5q-111 0 -199 33t-142.5 87.5 t-86.5 112t-47 120.5z" />
<glyph horiz-adv-x="1189" d="M49 334v207l588 893h336v-854h168v-246h-168v-334h-285v334h-639zM346 580h342v532z" />
<glyph horiz-adv-x="1189" d="M106 326l250 77q21 -76 78.5 -120.5t145.5 -44.5q93 0 152 64t59 163q0 93 -59 160t-169 67q-97 0 -170 -78l-239 41l30 779h809v-254h-553l-12 -293q88 49 205 49q186 0 317 -127t131 -322q0 -225 -137 -369.5t-350 -144.5q-88 0 -164.5 22.5t-129 58t-94 83t-65 94 t-35.5 95.5z" />
<glyph horiz-adv-x="1189" d="M102 625q0 140 17 258t59 227t107.5 184.5t168 120.5t234.5 45q186 0 336 -94l-113 -233q-87 57 -204 57q-69 0 -122.5 -22.5t-84.5 -56t-51.5 -79.5t-28.5 -86.5t-10 -83.5q107 92 256 92q190 0 305.5 -126t115.5 -349q0 -227 -132 -366.5t-349 -139.5q-115 0 -203 32 t-144.5 88t-92 140t-50 179t-14.5 213zM395 584q0 -51 2.5 -87.5t9.5 -79t21.5 -71t37.5 -53.5t59 -37t83 -12q93 0 144 59.5t51 167.5q0 100 -52 162.5t-149 62.5q-123 0 -207 -112z" />
<glyph horiz-adv-x="1189" d="M115 1180v254h958v-220l-481 -1214h-311l487 1180h-653z" />
<glyph horiz-adv-x="1189" d="M90 422q0 121 59 209t138 131q-63 40 -110.5 116t-47.5 175q0 179 127.5 293t337.5 114q209 0 337 -113.5t128 -293.5q0 -99 -48 -175t-112 -116q82 -44 140.5 -131.5t58.5 -208.5q0 -203 -139 -326t-367 -123q-229 0 -365.5 122t-136.5 327zM385 426q0 -83 55.5 -136.5 t153.5 -53.5q99 0 154 53.5t55 136.5q0 85 -57 138.5t-152 53.5t-152 -53.5t-57 -138.5zM416 1036q0 -74 49.5 -120t128.5 -46q78 0 128 46.5t50 119.5q0 70 -47.5 117t-130.5 47q-84 0 -131 -46.5t-47 -117.5z" />
<glyph horiz-adv-x="1204" d="M109 954q0 227 132 366.5t349 139.5q143 0 243.5 -47.5t156.5 -138t80 -203.5t24 -262q0 -140 -17 -258.5t-59 -227t-107.5 -184.5t-168 -121t-234.5 -45q-185 0 -336 95l113 233q87 -57 204 -57q69 0 122.5 22.5t84.5 55.5t51.5 79.5t28.5 86.5t10 83q-107 -92 -256 -92 q-190 0 -305.5 126t-115.5 349zM393 963q0 -101 52 -163.5t149 -62.5q122 0 207 113q0 51 -2.5 87.5t-9.5 79t-21.5 71t-37.5 53.5t-59 37t-83 12q-93 0 -144 -59.5t-51 -167.5z" />
<glyph horiz-adv-x="1337" d="M90 514q0 154 90 284.5t262 192.5q-57 30 -96 56t-75 63t-54 84t-18 106q0 60 24.5 112t74 94t134 66.5t195.5 24.5t257.5 -30t256.5 -84l-13 -256q-121 64 -246 92.5t-227 28.5q-172 0 -172 -64q0 -22 33.5 -45.5t88.5 -45.5t125.5 -54.5t144 -68t144 -89t125.5 -116 t88.5 -151t33.5 -190.5q0 -104 -31 -193.5t-85.5 -154.5t-128.5 -111t-160.5 -69t-180.5 -23q-256 0 -423 153t-167 388zM373 514q0 -128 86 -209.5t221 -81.5q137 0 220 84t83 219q0 122 -72 201t-200 137q-157 -38 -247.5 -128.5t-90.5 -221.5z" />
<glyph horiz-adv-x="1048" d="M45 846v256h959v-256h-334v-846h-289v846h-336zM45 1194v240h959v-240h-959z" />
<glyph horiz-adv-x="1206" d="M41 242v239h192v84h-192v240h192v629h457q212 0 341.5 -119t129.5 -316q0 -194 -132.5 -317t-336.5 -123h-170v-78h428v-239h-428v-242h-289v242h-192zM522 809h129q96 0 154.5 52t58.5 138q0 84 -58.5 134.5t-150.5 50.5h-133v-375z" />
<glyph horiz-adv-x="921" d="M78 1538h219q0 -61 39.5 -99t124.5 -38q84 0 124 38.5t40 98.5h219q0 -148 -98.5 -242t-284.5 -94q-184 0 -283.5 94t-99.5 242z" />
<glyph horiz-adv-x="989" d="M276 1206l138 295h297l-199 -295h-236z" />
<glyph horiz-adv-x="989" d="M276 1501h297l138 -295h-236z" />
<glyph horiz-adv-x="989" d="M158 1354q0 58 39.5 98.5t99.5 40.5q59 0 99 -40.5t40 -98.5q0 -59 -39.5 -99.5t-99.5 -40.5q-61 0 -100 40.5t-39 99.5zM551 1354q0 58 38.5 98.5t100.5 40.5q59 0 99 -40.5t40 -98.5q0 -59 -39.5 -99.5t-99.5 -40.5q-62 0 -100.5 40t-38.5 100z" />
<glyph horiz-adv-x="1081" d="M102 1864h252q0 -63 44 -102.5t143 -39.5q96 0 141 39.5t45 102.5h252q0 -156 -112 -254.5t-326 -98.5q-211 0 -325 99t-114 254z" />
<glyph horiz-adv-x="989" d="M276 1511l138 295h297l-199 -295h-236z" />
<glyph horiz-adv-x="989" d="M240 1806h297l137 -295h-236z" />
<glyph horiz-adv-x="985" d="M180 1663q0 58 39.5 98.5t99.5 40.5q59 0 99.5 -40.5t40.5 -98.5q0 -59 -40 -99t-100 -40q-61 0 -100 40t-39 99zM573 1663q0 58 39 98.5t101 40.5q59 0 99 -40.5t40 -98.5q0 -59 -39.5 -99t-99.5 -40q-62 0 -101 40t-39 99z" />
</font>
</defs>
</svg>
