<svg xmlns="http://www.w3.org/2000/svg" width="80" height="80" viewBox="0 0 80 80">
    <g fill="none" fill-rule="evenodd">
        <path fill="#F8DD3E" d="M11.232 45.457c6.1-6.1 15.99-6.1 22.09 0s6.1 15.99 0 22.09-15.99 6.1-22.09 0-6.1-15.99 0-22.09"/>
        <path fill="#CFC980" d="M22.277 43.163c-3.417 0-6.834 1.301-9.436 3.902-5.203 5.203-5.203 13.67 0 18.872 5.203 5.203 13.67 5.204 18.872 0 5.203-5.203 5.203-13.669 0-18.872a13.302 13.302 0 0 0-9.436-3.902m0 31.225a17.84 17.84 0 0 1-12.654-5.233c-6.977-6.977-6.977-18.33 0-25.307s18.33-6.978 25.308 0c6.977 6.977 6.977 18.33 0 25.307a17.84 17.84 0 0 1-12.654 5.233"/>
        <path fill="#F8DD3E" d="M11.128 45.457c6.1-6.1 15.99-6.1 22.09 0s6.1 15.99 0 22.09-15.99 6.1-22.09 0-6.1-15.99 0-22.09"/>
        <path fill="#CFC980" d="M22.173 43.163c-3.418 0-6.835 1.301-9.436 3.902-5.203 5.203-5.203 13.67 0 18.872 5.202 5.203 13.669 5.204 18.871 0 5.203-5.203 5.203-13.669 0-18.872a13.302 13.302 0 0 0-9.435-3.902m0 31.225a17.84 17.84 0 0 1-12.654-5.233c-6.978-6.977-6.978-18.33 0-25.307 6.977-6.977 18.33-6.978 25.307 0 6.978 6.977 6.978 18.33 0 25.307a17.84 17.84 0 0 1-12.653 5.233"/>
        <path fill="#F8DD3E" d="M46.637 41.243c6.1-6.1 15.99-6.1 22.09 0s6.1 15.99 0 22.09-15.99 6.1-22.09 0-6.1-15.99 0-22.09"/>
        <path fill="#CFC980" d="M48.246 42.852c-5.203 5.203-5.203 13.669 0 18.872a13.306 13.306 0 0 0 9.436 3.902c3.417 0 6.834-1.3 9.436-3.902 5.203-5.203 5.203-13.67 0-18.872-5.203-5.203-13.67-5.203-18.872 0m9.436 27.323a17.84 17.84 0 0 1-12.654-5.233c-6.977-6.978-6.977-18.33 0-25.308 6.978-6.977 18.33-6.977 25.308 0 6.977 6.977 6.977 18.33 0 25.308a17.84 17.84 0 0 1-12.654 5.233"/>
        <path fill="#F8FBCF" d="M22.112 43.179c-7.336 0-13.284 5.947-13.284 13.284 0 1.946.422 3.792 1.174 5.457L27.57 44.352a13.227 13.227 0 0 0-5.458-1.173M57.7 38.945c-7.337 0-13.285 5.948-13.285 13.285 0 1.945.422 3.792 1.174 5.457l17.568-17.568a13.23 13.23 0 0 0-5.457-1.174"/>
        <path fill="#F8DD3E" d="M52.876 37.345a1.515 1.515 0 1 1 2.962-.642 1.516 1.516 0 1 1-2.962.642m9.73 1.724a1.516 1.516 0 1 1 1.055-2.843 1.516 1.516 0 0 1-1.055 2.843m-17.071 3.282a1.519 1.519 0 0 1-.006-2.146c.006-.005.014-.01.02-.02a1.516 1.516 0 1 1 2.162 2.13c-.012.011-.023.02-.03.03a1.516 1.516 0 0 1-2.146.006m23.433 1.478a1.518 1.518 0 0 1 .3-2.126 1.518 1.518 0 0 1 1.824 2.427 1.517 1.517 0 0 1-2.124-.301m-26.878 6.66a1.515 1.515 0 0 1-1.166-1.798h.002a1.513 1.513 0 0 1 1.798-1.166 1.516 1.516 0 1 1-.634 2.965m29.658.777a1.516 1.516 0 1 1 1.622 1.404c-.036.002-.075.002-.11.002-.79 0-1.454-.609-1.512-1.406m-30.113 7.05a1.518 1.518 0 1 1 1.953.887 1.523 1.523 0 0 1-1.953-.888m29.043 2.774a1.518 1.518 0 1 1 1.453-2.664 1.518 1.518 0 0 1-1.453 2.664m-23.24 4.937h.002c-.673-.5-.81-1.45-.309-2.12a1.518 1.518 0 0 1 2.124-.31 1.518 1.518 0 0 1-1.817 2.43m16.423.692a1.516 1.516 0 0 1 .6-2.06 1.517 1.517 0 1 1-.601 2.06m-7.369 2.664a1.516 1.516 0 1 1 .21-3.028 1.52 1.52 0 0 1 1.41 1.62 1.52 1.52 0 0 1-1.515 1.411c-.036 0-.072 0-.105-.003M17.366 41.865a1.514 1.514 0 0 1 1.161-1.803 1.52 1.52 0 0 1 1.804 1.16 1.519 1.519 0 0 1-1.484 1.84c-.7 0-1.33-.485-1.481-1.197m9.73 1.724a1.517 1.517 0 1 1 1.058-2.844 1.517 1.517 0 0 1-1.059 2.844m-17.07 3.282a1.519 1.519 0 0 1-.006-2.146l.02-.016.016-.017a1.517 1.517 0 0 1 2.145 2.143l-.016.017c-.006.005-.008.01-.014.013a1.514 1.514 0 0 1-2.145.006m23.433 1.478a1.517 1.517 0 1 1 2.426-1.823 1.517 1.517 0 0 1-2.426 1.823M6.582 55.012a1.518 1.518 0 0 1 .634-2.967 1.516 1.516 0 1 1-.634 2.967m29.656.775a1.516 1.516 0 1 1 1.622 1.404c-.036.003-.075.003-.111.003-.788 0-1.453-.61-1.511-1.407m-30.11 7.05a1.517 1.517 0 1 1 0 0m29.04 2.774a1.518 1.518 0 0 1-.607-2.058h.003a1.516 1.516 0 1 1 2.662 1.45 1.513 1.513 0 0 1-2.058.608M11.93 70.55a1.516 1.516 0 1 1 1.81-2.432 1.516 1.516 0 0 1-1.81 2.432m16.42.69a1.519 1.519 0 0 1 .602-2.06 1.515 1.515 0 1 1 .73 2.846 1.52 1.52 0 0 1-1.331-.787m-7.37 2.665a1.518 1.518 0 1 1 .21-3.028 1.518 1.518 0 0 1-.21 3.028M21.922 16.46c3.79-7.749 13.144-10.96 20.894-7.17 7.75 3.79 10.96 13.144 7.17 20.893-3.789 7.75-13.143 10.96-20.893 7.171-7.75-3.79-10.96-13.144-7.17-20.893"/>
        <path fill="#CFC980" d="M35.976 9.979c-4.94 0-9.697 2.752-12.01 7.481a13.257 13.257 0 0 0-.633 10.194 13.258 13.258 0 0 0 6.76 7.656 13.256 13.256 0 0 0 10.193.634 13.256 13.256 0 0 0 7.656-6.76c3.233-6.61.484-14.618-6.126-17.85a13.27 13.27 0 0 0-5.84-1.355m-.037 31.247c-2.687 0-5.36-.612-7.845-1.828a17.78 17.78 0 0 1-9.065-10.267 17.779 17.779 0 0 1 .85-13.67c4.334-8.864 15.072-12.55 23.936-8.215 8.865 4.335 12.55 15.073 8.216 23.937a17.777 17.777 0 0 1-10.268 9.065 17.922 17.922 0 0 1-5.824.978"/>
        <path fill="#F8DD3E" d="M31.205 8.38a1.516 1.516 0 1 1 2.964-.643 1.517 1.517 0 1 1-2.964.643m9.73 1.723a1.52 1.52 0 0 1-.894-1.95 1.518 1.518 0 0 1 1.953-.893 1.515 1.515 0 0 1-.53 2.937c-.176 0-.356-.03-.53-.094m-17.068 3.282a1.516 1.516 0 0 1-.008-2.146c.003 0 .005-.002.005-.002l.03-.033v.002a1.516 1.516 0 0 1 2.146 2.143c-.008.011-.019.02-.03.03h.003a1.518 1.518 0 0 1-2.146.006m23.43 1.478a1.518 1.518 0 1 1 2.126.3 1.519 1.519 0 0 1-2.126-.3m-26.874 6.663a1.517 1.517 0 1 1 .634-2.968 1.517 1.517 0 0 1-.634 2.968m29.657.775h-.002a1.515 1.515 0 0 1 1.406-1.621 1.516 1.516 0 1 1 .218 3.025c-.038.003-.074.003-.113.003-.786 0-1.453-.61-1.509-1.407m-30.112 7.05a1.513 1.513 0 0 1 .888-1.953 1.515 1.515 0 0 1 1.952.888 1.52 1.52 0 0 1-1.42 2.049 1.516 1.516 0 0 1-1.42-.985m29.04 2.772a1.517 1.517 0 1 1 .725.188c-.245 0-.494-.061-.725-.188m-23.238 4.942a1.518 1.518 0 0 1 1.815-2.432 1.518 1.518 0 0 1-1.815 2.432m16.423.69a1.517 1.517 0 1 1 2.658-1.461 1.517 1.517 0 0 1-2.658 1.46m-7.372 2.665a1.518 1.518 0 0 1-1.409-1.62 1.518 1.518 0 0 1 3.028.21 1.517 1.517 0 0 1-1.511 1.412c-.036 0-.072 0-.108-.002"/>
        <path fill="#F8FBCF" d="M35.86 9.984c-7.41 0-13.417 6.008-13.417 13.418 0 1.965.426 3.83 1.185 5.512L41.373 11.17a13.362 13.362 0 0 0-5.512-1.186"/>
    </g>
</svg>
