<?xml version="1.0" encoding="utf-8"?>
<!-- Generator: Adobe Illustrator 21.1.0, SVG Export Plug-In . SVG Version: 6.00 Build 0)  -->
<svg version="1.1" id="Layer_1" xmlns="http://www.w3.org/2000/svg" xmlns:xlink="http://www.w3.org/1999/xlink" x="0px" y="0px"
	 viewBox="0 0 224.1 224.3" style="enable-background:new 0 0 224.1 224.3;" xml:space="preserve">
<style type="text/css">
	.st0{fill:#DAEFFF;}
	.st1{fill:#A4BBCF;}
	.st2{fill:#4F2D7F;}
	.st3{fill:#1B87C4;}
	.st4{fill:#3A1D68;}
	.st5{fill:#FFFFFF;}
</style>
<g>
	<g>
		<g>
			<path class="st0" d="M218.8,207.9c3,3,3,7.9,0,10.9l-10.9-10.9C210.9,204.9,215.8,204.9,218.8,207.9z"/>
			<path class="st1" d="M207.9,218.8c-3-3-3-7.9,0-10.9l10.9,10.9C215.8,221.8,210.9,221.8,207.9,218.8z"/>
		</g>
	</g>
	<g>
		<g>
			
				<rect x="138.5" y="129.2" transform="matrix(0.7071 -0.7071 0.7071 0.7071 -55.1015 140.7481)" class="st0" width="7.7" height="15.4"/>
			
				<rect x="133" y="134.6" transform="matrix(0.7071 -0.7071 0.7071 0.7071 -60.5615 138.4827)" class="st1" width="7.7" height="15.4"/>
		</g>
		<polygon class="st2" points="146.4,138.3 153.1,131.6 224.1,202.6 213.3,213.3 153.7,153.7 142.3,142.3 		"/>
		<polygon class="st3" points="138.3,146.4 142.3,142.3 153.7,153.7 213.3,213.3 202.4,224.3 131.4,153.3 		"/>
		<g>
			<path class="st3" d="M152.5,79.1c0-19.6-7.6-38-21.5-51.9C117.2,13.4,98.7,5.8,79.1,5.8c-19.6,0-38,7.6-51.9,21.5l-4.1-4.1
				c30.9-30.9,81-30.9,111.9,0C164.7,52.7,166,99.9,139,131c-1.2,1.4-2.5,2.8-3.9,4.1L131,131C144.9,117.2,152.5,98.7,152.5,79.1z"
				/>
			<path class="st4" d="M23.2,23.2l4.1,4.1C13.4,41.1,5.8,59.6,5.8,79.1c0,19.6,7.6,38,21.5,51.9c13.9,13.9,32.3,21.5,51.9,21.5
				c19.6,0,38-7.6,51.9-21.5l4.1,4.1c-1.3,1.3-2.7,2.6-4.1,3.9c-31.1,27-78.2,25.7-107.8-3.9C-7.7,104.2-7.7,54.1,23.2,23.2z"/>
		</g>
		<g>
			<path class="st3" d="M147.8,79.1c0-18.3-7.1-35.6-20.1-48.5c-13-13-30.2-20.1-48.5-20.1c-18.3,0-35.6,7.1-48.5,20.1l-3.8-3.8
				c28.9-28.9,75.8-28.9,104.7,0c27.7,27.7,28.9,71.8,3.6,100.9c-1.1,1.3-2.3,2.6-3.6,3.9l-3.8-3.8
				C140.7,114.7,147.8,97.5,147.8,79.1z"/>
			<path class="st4" d="M26.8,26.8l3.8,3.8c-13,13-20.1,30.2-20.1,48.5c0,18.3,7.1,35.6,20.1,48.5c13,13,30.2,20.1,48.5,20.1
				c18.3,0,35.6-7.1,48.5-20.1l3.8,3.8c-1.3,1.3-2.6,2.5-3.9,3.6c-29.1,25.3-73.2,24.1-100.9-3.6C-2.2,102.6-2.2,55.7,26.8,26.8z"/>
		</g>
		<g>
			<path class="st3" d="M143,79.1c0-17.1-6.6-33.1-18.7-45.2c-12.1-12.1-28.1-18.7-45.2-18.7C62.1,15.3,46.1,21.9,34,34l-3.6-3.6
				c26.9-26.9,70.5-26.9,97.5,0c25.7,25.7,26.9,66.8,3.4,93.8c-1.1,1.2-2.2,2.4-3.4,3.6l-3.6-3.6C136.4,112.2,143,96.2,143,79.1z"/>
			<path class="st4" d="M30.4,30.4L34,34C21.9,46.1,15.3,62.1,15.3,79.1c0,17.1,6.6,33.1,18.7,45.2C46.1,136.4,62.1,143,79.1,143
				c17.1,0,33.1-6.6,45.2-18.7l3.6,3.6c-1.2,1.2-2.4,2.3-3.6,3.4c-27.1,23.5-68.1,22.4-93.8-3.4C3.5,101,3.5,57.3,30.4,30.4z"/>
		</g>
	</g>
	<g>
		<path class="st5" d="M101.7,35.1c-4.4,0-8.6,1.7-11.7,4.8c-3.1,3.1-4.8,7.3-4.8,11.7c0,4.4,1.7,8.6,4.8,11.7
			c3.1,3.1,7.3,4.8,11.7,4.8c4.4,0,8.6-1.7,11.7-4.8c3.1-3.1,4.8-7.3,4.8-11.7c0-4.4-1.7-8.6-4.8-11.7
			C110.2,36.8,106.1,35.1,101.7,35.1L101.7,35.1z"/>
		<path class="st5" d="M80.1,64.9c-2.2,0-4.3,0.9-5.8,2.4c-1.6,1.6-2.4,3.6-2.4,5.9c0,2.2,0.9,4.3,2.4,5.9c1.6,1.6,3.6,2.4,5.8,2.4
			c2.2,0,4.3-0.9,5.9-2.4c1.6-1.6,2.4-3.6,2.4-5.9c0-2.2-0.9-4.3-2.4-5.9C84.4,65.7,82.4,64.9,80.1,64.9L80.1,64.9z"/>
	</g>
</g>
</svg>
