<svg xmlns="http://www.w3.org/2000/svg" width="50" height="48" viewBox="0 0 29 24" class="provider-icon provider-plutus"><path fill="#002F34" d="M27.637,2.881l0.838,0.836l0,10.188l-0.838,0.835l-7.49,0l0,5.979l-0.74,0.838l-14.247,0l-0.74,-0.838l0,-10.27l0.74,-0.838l5.147,0l0,-5.895l0.838,-0.836l16.492,0l0,0.001Zm-24.613,15.954l0,1.84l-1.562,0l-0.994,-0.92l0.993,-0.92l1.563,0Zm15.278,-7.39l-12.046,0l0,8.292l12.046,0l0,-8.292Zm-5.818,2.377c0.93,0 1.683,0.752 1.683,1.678c0,0.927 -0.753,1.677 -1.683,1.677c-0.929,0 -1.682,-0.75 -1.682,-1.677c0,-0.926 0.753,-1.678 1.682,-1.678Zm-9.532,0.86l0,0.002l0.072,0l0,1.838l-0.072,0l0,0.001l-1.49,0l-0.994,-0.92l0.993,-0.92l1.491,0l0,-0.001Zm23.709,-6.336l-14.512,0l0,1.264l7.258,0.001l0.74,0.839l0,2.461l6.514,0.002l0,-4.567Zm-25.2,2.184l1.563,0l0,1.84l-1.562,0l-0.994,-0.92l0.993,-0.92Zm23.416,0.1l0.744,0.689l-0.744,0.689l-1.117,0l0,-0.001l-1.627,0l-0.744,-0.688l0.744,-0.69l2.744,0l0,0.001Zm1.784,-5.926l-14.507,0l0,1.846l14.506,-0.05l0,-1.796l0.001,0Z"></path></svg>
