<svg xmlns="http://www.w3.org/2000/svg" xmlns:xlink="http://www.w3.org/1999/xlink" width="39" height="39" viewBox="0 0 39 39">
    <defs>
        <path id="a" d="M.016 19.354c0 10.689 8.61 19.353 19.232 19.353s19.233-8.664 19.233-19.353C38.48 8.666 29.87.002 19.248.002 8.627.002.016 8.666.016 19.354"/>
        <path id="c" d="M0 19.353C0 30.04 8.61 38.705 19.232 38.705s19.233-8.664 19.233-19.352C38.465 8.664 29.855 0 19.232 0 8.611 0 0 8.664 0 19.353z"/>
    </defs>
    <g fill="none" fill-rule="evenodd">
        <g>
            <mask id="b" fill="#fff">
                <use xlink:href="#a"/>
            </mask>
            <path fill="#3A77FF" d="M38.48 19.354c0 10.689-8.61 19.353-19.232 19.353C8.627 38.707.016 30.043.016 19.354.016 8.666 8.626.002 19.248.002s19.233 8.664 19.233 19.352" mask="url(#b)"/>
        </g>
        <g transform="translate(.016 .002)">
            <mask id="d" fill="#fff">
                <use xlink:href="#c"/>
            </mask>
            <use fill="#D8DFE0" xlink:href="#c"/>
            <path fill="#406367" d="M5.946 54.476h26.573v-26.74H5.946z" mask="url(#d)"/>
            <path fill="#EBEEEF" d="M29.45 19.353c0 5.678-4.575 10.281-10.218 10.281S9.015 25.031 9.015 19.353c0-5.679 4.574-10.282 10.217-10.282 5.643 0 10.218 4.603 10.218 10.282" mask="url(#d)"/>
            <path fill="#7F9799" d="M24.697 15.506a6.438 6.438 0 0 1-9.071 1.145c-2.82-2.204-3.329-6.291-1.138-9.128a6.438 6.438 0 0 1 9.071-1.145c2.82 2.204 3.33 6.291 1.138 9.128" mask="url(#d)"/>
            <path fill="#7F9799" d="M24.551 15.695l-5.293-4.138 4.113-5.326 5.293 4.138zM7.509 14.61c-.289-2.314 1.342-4.426 3.643-4.716 2.3-.29 4.399 1.35 4.687 3.665.289 2.315-1.342 4.426-3.642 4.717-2.3.29-4.4-1.35-4.688-3.665" mask="url(#d)"/>
            <path fill="#7F9799" d="M7.49 14.456l4.318-.545.542 4.345-4.318.546z" mask="url(#d)"/>
        </g>
    </g>
</svg>
