<svg id="Layer_1" data-name="Layer 1" xmlns="http://www.w3.org/2000/svg" viewBox="0 0 64 64"><defs><style>.cls-1{fill:#9da08a;fill-rule:evenodd;}</style></defs><title>check_product-01</title><path class="cls-1" d="M36.87,25.86a11.32,11.32,0,0,0-9.55,12.89,1,1,0,0,0,1,.82h.14a1,1,0,0,0,.82-1.08,9.41,9.41,0,0,1,7.95-10.74,1,1,0,1,0-.31-1.89Zm23.79,32L49.75,47a15.83,15.83,0,0,0,1.9-18.33V25.18l4.85,1.3L51.68,11.1l0-.45L28.45,4.19,8.18,14.2,2.61,28.55l5.73,1.76v6.38l0,.05a3.2,3.2,0,0,0,2.2,2.7l0,0,12.6,4.16a16.14,16.14,0,0,0,24.92,5L59,59.47a1.16,1.16,0,0,0,1.63,0A1.14,1.14,0,0,0,60.66,57.85Zm-9-40.67,2.17,6.62-2.17-.59ZM29.51,6.28l19.12,5.41L34.85,20.51l-5.34-1.73Zm20.2,7.25V26a16.11,16.11,0,0,0-11.06-5.41ZM27.58,6.81V18.16l-14.51-4ZM10.25,37.1V30.61L21.7,34.13A15.2,15.2,0,0,0,22.16,41Zm11.83-4.8L5.5,27.2l4.57-11.72,21.36,6.26A16.1,16.1,0,0,0,22.09,32.3ZM47.41,46.24a13.73,13.73,0,1,1,4.06-9.72A13.61,13.61,0,0,1,47.41,46.24Z"/></svg>