<svg
        width="1em"
        height="1em"
        viewBox="0 0 243 250"
        xmlns="http://www.w3.org/2000/svg"
>
<g fill="none" fill-rule="evenodd">
<path
        d="M241.417 186.008L133.34.28a.564.564 0 00-.487-.28h-23.658a.564.564 0 00-.487.28L.63 186.008a4.66 4.66 0 00-.631 2.34v31.61c0 .312.252.564.564.564h241.484v-32.175a4.66 4.66 0 00-.631-2.34"
        fill="#F8FBCF"
/>
<path
        d="M16 204.587V191.79a.56.56 0 01.076-.282l101.967-175.23a.562.562 0 01.485-.278h5.62c.2 0 .384.106.484.278L226.6 191.507a.56.56 0 01.076.282v12.798a.56.56 0 01-.561.561H16.562a.56.56 0 01-.562-.56L134.492 67.166"
        fill="#F8DD3E"
/>
<g fill="#002F34">
    <path fill-rule="nonzero" d="M77 170.65h88v-13.3H77z" />
    <path d="M140.04 131.722c-6.367 0-11.53-5.126-11.53-11.45 0-6.324 5.163-11.448 11.53-11.448 6.365 0 11.529 5.124 11.529 11.448 0 6.324-5.164 11.45-11.53 11.45m-38.235 0c-6.366 0-11.53-5.126-11.53-11.45 0-6.324 5.164-11.448 11.53-11.448s11.53 5.124 11.53 11.448c0 6.324-5.164 11.45-11.53 11.45" />
</g>
<path
        d="M43.837 220.588v28.55h-9.523v-28.55h9.523zm164.355 0v28.55h-9.523v-28.55h9.523z"
        fill="#CFC980"
/>
</g>
        </svg>