<svg id="Layer_1" data-name="Layer 1" xmlns="http://www.w3.org/2000/svg" viewBox="0 0 67 67"><defs><style>.cls-1{fill:#96b2dd;}</style></defs><title>mail_mobile</title><path class="cls-1" d="M33.51,1.19a32.31,32.31,0,1,0,32.3,32.32h0A32.35,32.35,0,0,0,33.5,1.19Zm0,63.62a31.31,31.31,0,1,1,31.3-31.32h0A31.35,31.35,0,0,1,33.5,64.81Z"/><path class="cls-1" d="M24.39,36.83a14.8,14.8,0,0,1,.78-4.67,15.24,15.24,0,0,1,2.18-4.27,12,12,0,0,1,3.31-3.11,7.78,7.78,0,0,1,4.22-1.2,5.33,5.33,0,0,1,1.93.33,4.59,4.59,0,0,1,1.49.91,5.33,5.33,0,0,1,1,1.29,4.6,4.6,0,0,1,.53,1.51h.09l1-3.16h1.82L38.52,37.63q-.22.71-.47,1.45a4,4,0,0,0-.25,1.22,1.35,1.35,0,0,0,.51,1.09,1.85,1.85,0,0,0,1.22.42,5,5,0,0,0,3-1,10.59,10.59,0,0,0,2.55-2.69,15.5,15.5,0,0,0,1.8-3.64,11.83,11.83,0,0,0,.69-3.87,10.87,10.87,0,0,0-1.16-5,12.64,12.64,0,0,0-3-3.84,13.59,13.59,0,0,0-4.27-2.47,14.17,14.17,0,0,0-4.84-.87,13.74,13.74,0,0,0-5.76,1.22,14.88,14.88,0,0,0-4.69,3.33,16.29,16.29,0,0,0-3.18,4.89,14.92,14.92,0,0,0-1.18,5.89,14.08,14.08,0,0,0,1.29,6,15.41,15.41,0,0,0,8.13,7.82,14.08,14.08,0,0,0,5.47,1.11,13.76,13.76,0,0,0,7-1.84,15.48,15.48,0,0,0,5.27-4.91h2A14.12,14.12,0,0,1,46,45.32a16.45,16.45,0,0,1-3.4,2.58,17.06,17.06,0,0,1-4,1.64,16,16,0,0,1-4.24.58,16.36,16.36,0,0,1-11.82-4.89A16.56,16.56,0,0,1,19,39.9a16.94,16.94,0,0,1-1.27-6.53,15.85,15.85,0,0,1,1.31-6.42,16.91,16.91,0,0,1,3.56-5.24,16.68,16.68,0,0,1,5.22-3.53,15.71,15.71,0,0,1,6.31-1.29,16.87,16.87,0,0,1,5.91,1,14.5,14.5,0,0,1,4.78,2.87,13.65,13.65,0,0,1,3.2,4.38,13,13,0,0,1,1.18,5.56,12.82,12.82,0,0,1-.93,4.84,14.85,14.85,0,0,1-2.42,4.07,13.05,13.05,0,0,1-3.29,2.82,6.91,6.91,0,0,1-3.53,1.07,2.93,2.93,0,0,1-2-.78,3.16,3.16,0,0,1-.91-2.38H36a7.23,7.23,0,0,1-2.58,2.36,7.11,7.11,0,0,1-3.38.8A5.05,5.05,0,0,1,27.74,43,5.41,5.41,0,0,1,26,41.52a7,7,0,0,1-1.16-2.13A7.76,7.76,0,0,1,24.39,36.83Zm1.69-.22a5.76,5.76,0,0,0,1.29,4A4.21,4.21,0,0,0,30.66,42a4.66,4.66,0,0,0,2.69-1,10.47,10.47,0,0,0,2.47-2.51,18.15,18.15,0,0,0,2.07-4.11,12.32,12.32,0,0,0,.82-4.11,12.65,12.65,0,0,0-.11-1.51,5.35,5.35,0,0,0-.53-1.73,3.82,3.82,0,0,0-1.25-1.42,3.76,3.76,0,0,0-2.2-.58,5.71,5.71,0,0,0-3.44,1.16,11,11,0,0,0-2.71,2.89,14.76,14.76,0,0,0-1.76,3.76A12.8,12.8,0,0,0,26.08,36.61Z"/></svg>