<svg xmlns="http://www.w3.org/2000/svg" xmlns:xlink="http://www.w3.org/1999/xlink" width="114" height="114" viewBox="0 0 114 114">
    <defs>
        <path id="a" d="M0 9.494a9.494 9.494 0 0 0 9.494 9.494 9.494 9.494 0 0 0 9.494-9.494A9.494 9.494 0 0 0 9.494 0 9.494 9.494 0 0 0 0 9.494zm6.646 0a2.852 2.852 0 0 1 2.848-2.848 2.852 2.852 0 0 1 2.848 2.848 2.851 2.851 0 0 1-2.848 2.848 2.851 2.851 0 0 1-2.848-2.848z"/>
        <path id="c" d="M0 0v2.63l6.654 6.653h2.629V6.654L2.629 0z"/>
        <path id="e" d="M6.654 0L0 6.654v2.629h2.629l6.654-6.654V0z"/>
        <path id="g" d="M14.196 6.727C7.532 6.604 2.861 1.464 2.814 1.412L1.409 2.69l1.408-1.273L0 3.962c.23.26 5.757 6.406 14.079 6.582.123.003.247.005.37.005 5.537 0 10.895-2.652 15.931-7.886L27.67 0c-4.374 4.548-8.913 6.804-13.474 6.727z"/>
    </defs>
    <g fill="none" fill-rule="evenodd">
        <path fill="#CBF7EE" d="M91.1 58.332c0 18.834-15.267 34.1-34.1 34.1-18.833 0-34.1-15.266-34.1-34.1 0-18.833 15.267-34.1 34.1-34.1 18.833 0 34.1 15.267 34.1 34.1"/>
        <path fill="#00A7A0" d="M28.19 58.332h-8.998c0-20.847 16.96-37.808 37.808-37.808 11.343 0 21.987 5.027 29.203 13.792l-6.948 5.72A28.734 28.734 0 0 0 57 29.523c-15.886 0-28.81 12.924-28.81 28.81"/>
        <path fill="#23E5DB" d="M57 96.14c-11.939 0-23.31-5.737-30.416-15.347l7.235-5.35C39.236 82.769 47.902 87.142 57 87.142c15.886 0 28.81-12.924 28.81-28.81h8.998c0 20.848-16.96 37.809-37.808 37.809"/>
        <path fill="#00A7A0" d="M23.69 71.984l-6.552-8.657-6.552-8.657h26.21l-6.552 8.657z"/>
        <path fill="#23E5DB" d="M90.309 44.841l6.553 8.657 6.552 8.657h-26.21l6.553-8.657z"/>
        <g transform="translate(38.012 42.298)">
            <mask id="b" fill="#fff">
                <use xlink:href="#a"/>
            </mask>
            <path fill="#002F34" d="M-2.11 21.097h23.207V-2.11H-2.11z" mask="url(#b)"/>
        </g>
        <g transform="translate(63.33 46.096)">
            <mask id="d" fill="#fff">
                <use xlink:href="#c"/>
            </mask>
            <path fill="#002F34" d="M-2.11 11.393h13.503V-2.11H-2.11z" mask="url(#d)"/>
        </g>
        <g transform="translate(63.33 46.096)">
            <mask id="f" fill="#fff">
                <use xlink:href="#e"/>
            </mask>
            <path fill="#002F34" d="M-2.11 11.393h13.503V-2.11H-2.11z" mask="url(#f)"/>
        </g>
        <g transform="translate(43.076 66.771)">
            <mask id="h" fill="#fff">
                <use xlink:href="#g"/>
            </mask>
            <path fill="#002F34" d="M-2.11 12.658h34.6V-2.11h-34.6z" mask="url(#h)"/>
        </g>
    </g>
</svg>
