<svg xmlns="http://www.w3.org/2000/svg" xmlns:xlink="http://www.w3.org/1999/xlink" width="315" height="411" viewBox="0 0 315 411">
    <defs>
        <linearGradient id="a" x1="50%" x2="50%" y1="0%" y2="97.451%">
            <stop offset="0%" stop-color="#FA4C00"/>
            <stop offset="100%" stop-color="#D74500"/>
        </linearGradient>
        <linearGradient id="b" x1="50%" x2="50%" y1="0%" y2="100%">
            <stop offset="0%" stop-color="#CDF600"/>
            <stop offset="100%" stop-color="#9EE900"/>
        </linearGradient>
        <path id="c" d="M2.819 31.204c-.039-9.289-.039-15.183 0-17.684.149-9.738.335-10.526 0-11.19C2.462 1.622 6.52 4 13.978 11.032c1.514 1.429 3.978 4.192 7.393 8.29-3.132 2.993-5.596 5.066-7.393 6.217-1.797 1.151-5.517 3.04-11.16 5.664z"/>
        <filter id="d" width="175.3%" height="148.3%" x="-37.7%" y="-24.1%" filterUnits="objectBoundingBox">
            <feGaussianBlur in="SourceAlpha" result="shadowBlurInner1" stdDeviation="5"/>
            <feOffset dy="4" in="shadowBlurInner1" result="shadowOffsetInner1"/>
            <feComposite in="shadowOffsetInner1" in2="SourceAlpha" k2="-1" k3="1" operator="arithmetic" result="shadowInnerInner1"/>
            <feColorMatrix in="shadowInnerInner1" values="0 0 0 0 0.511467034 0 0 0 0 0.700680272 0 0 0 0 0 0 0 0 0.586956522 0"/>
        </filter>
        <path id="e" d="M21.622 19.48c3.673 3.408 6.485 6.148 8.438 8.22 1.953 2.073 6.394 6.84 13.322 14.3l-5.65-19.757-5.09-18.375c-.608 2.217-1.306 4.128-2.093 5.734-.787 1.606-2.229 3.517-4.324 5.734l-4.603 4.144z"/>
        <filter id="f" width="164.3%" height="136.7%" x="-32.2%" y="-18.4%" filterUnits="objectBoundingBox">
            <feGaussianBlur in="SourceAlpha" result="shadowBlurInner1" stdDeviation="5"/>
            <feOffset dy="4" in="shadowBlurInner1" result="shadowOffsetInner1"/>
            <feComposite in="shadowOffsetInner1" in2="SourceAlpha" k2="-1" k3="1" operator="arithmetic" result="shadowInnerInner1"/>
            <feColorMatrix in="shadowInnerInner1" values="0 0 0 0 0.511467034 0 0 0 0 0.700680272 0 0 0 0 0 0 0 0 0.586956522 0"/>
        </filter>
        <linearGradient id="g" x1="50%" x2="50%" y1="0%" y2="100%">
            <stop offset="0%" stop-color="#FFB900"/>
            <stop offset="100%" stop-color="#FF8300"/>
        </linearGradient>
        <linearGradient id="h" x1="50%" x2="50%" y1="0%" y2="100%">
            <stop offset="100%" stop-color="#FFB900"/>
            <stop offset="0%" stop-color="#FF8300"/>
        </linearGradient>
        <path id="i" d="M12.083 56.704L8.78 45.694s4.695 4.012 9.547 1.351c4.893-2.683 3.955-11.04 3.955-11.04s6.817 11.347 13.53 6.402c4.784-4.716 7.897-10.236 9.055-16.061 1.054 5.825 4.166 11.345 8.95 16.061 6.713 4.945 13.53-6.401 13.53-6.401s-.937 8.356 3.955 11.04c4.852 2.66 10.055-.666 10.055-.666l-2.058 10.324c-10.975 2.225-23.05 4.086-34.432 3.946-11.064.193-22.156-1.67-32.784-3.946z"/>
        <filter id="j" width="111%" height="123.3%" x="-5.5%" y="-11.7%" filterUnits="objectBoundingBox">
            <feGaussianBlur in="SourceAlpha" result="shadowBlurInner1" stdDeviation="3"/>
            <feOffset dy="2" in="shadowBlurInner1" result="shadowOffsetInner1"/>
            <feComposite in="shadowOffsetInner1" in2="SourceAlpha" k2="-1" k3="1" operator="arithmetic" result="shadowInnerInner1"/>
            <feColorMatrix in="shadowInnerInner1" values="0 0 0 0 0.992156863 0 0 0 0 0.51372549 0 0 0 0 0.141176471 0 0 0 1 0"/>
        </filter>
        <ellipse id="k" cx="45.032" cy="7.375" rx="6.156" ry="6.157"/>
        <filter id="l" width="165%" height="165%" x="-32.5%" y="-32.5%" filterUnits="objectBoundingBox">
            <feGaussianBlur in="SourceAlpha" result="shadowBlurInner1" stdDeviation="3"/>
            <feOffset dy="2" in="shadowBlurInner1" result="shadowOffsetInner1"/>
            <feComposite in="shadowOffsetInner1" in2="SourceAlpha" k2="-1" k3="1" operator="arithmetic" result="shadowInnerInner1"/>
            <feColorMatrix in="shadowInnerInner1" values="0 0 0 0 0.992156863 0 0 0 0 0.51372549 0 0 0 0 0.141176471 0 0 0 1 0"/>
        </filter>
        <ellipse id="m" cx="70.669" cy="24.494" rx="4.353" ry="4.353"/>
        <filter id="n" width="191.9%" height="191.9%" x="-45.9%" y="-45.9%" filterUnits="objectBoundingBox">
            <feGaussianBlur in="SourceAlpha" result="shadowBlurInner1" stdDeviation="3"/>
            <feOffset dy="2" in="shadowBlurInner1" result="shadowOffsetInner1"/>
            <feComposite in="shadowOffsetInner1" in2="SourceAlpha" k2="-1" k3="1" operator="arithmetic" result="shadowInnerInner1"/>
            <feColorMatrix in="shadowInnerInner1" values="0 0 0 0 0.992156863 0 0 0 0 0.51372549 0 0 0 0 0.141176471 0 0 0 1 0"/>
        </filter>
        <ellipse id="o" cx="86.266" cy="36.16" rx="3.189" ry="3.19"/>
        <filter id="p" width="225.4%" height="225.4%" x="-62.7%" y="-62.7%" filterUnits="objectBoundingBox">
            <feGaussianBlur in="SourceAlpha" result="shadowBlurInner1" stdDeviation="3"/>
            <feOffset dy="2" in="shadowBlurInner1" result="shadowOffsetInner1"/>
            <feComposite in="shadowOffsetInner1" in2="SourceAlpha" k2="-1" k3="1" operator="arithmetic" result="shadowInnerInner1"/>
            <feColorMatrix in="shadowInnerInner1" values="0 0 0 0 0.992156863 0 0 0 0 0.51372549 0 0 0 0 0.141176471 0 0 0 1 0"/>
        </filter>
        <ellipse id="q" cx="19.283" cy="24.495" rx="4.353" ry="4.353"/>
        <filter id="r" width="191.9%" height="191.9%" x="-45.9%" y="-45.9%" filterUnits="objectBoundingBox">
            <feGaussianBlur in="SourceAlpha" result="shadowBlurInner1" stdDeviation="3"/>
            <feOffset dy="2" in="shadowBlurInner1" result="shadowOffsetInner1"/>
            <feComposite in="shadowOffsetInner1" in2="SourceAlpha" k2="-1" k3="1" operator="arithmetic" result="shadowInnerInner1"/>
            <feColorMatrix in="shadowInnerInner1" values="0 0 0 0 0.992156863 0 0 0 0 0.51372549 0 0 0 0 0.141176471 0 0 0 1 0"/>
        </filter>
        <ellipse id="s" cx="3.686" cy="36.16" rx="3.189" ry="3.19"/>
        <filter id="t" width="225.4%" height="225.4%" x="-62.7%" y="-62.7%" filterUnits="objectBoundingBox">
            <feGaussianBlur in="SourceAlpha" result="shadowBlurInner1" stdDeviation="3"/>
            <feOffset dy="2" in="shadowBlurInner1" result="shadowOffsetInner1"/>
            <feComposite in="shadowOffsetInner1" in2="SourceAlpha" k2="-1" k3="1" operator="arithmetic" result="shadowInnerInner1"/>
            <feColorMatrix in="shadowInnerInner1" values="0 0 0 0 0.992156863 0 0 0 0 0.51372549 0 0 0 0 0.141176471 0 0 0 1 0"/>
        </filter>
        <filter id="u" width="121.4%" height="132%" x="-7.1%" y="-8%" filterUnits="objectBoundingBox">
            <feOffset dx="4" dy="8" in="SourceAlpha" result="shadowOffsetOuter1"/>
            <feColorMatrix in="shadowOffsetOuter1" result="shadowMatrixOuter1" values="0 0 0 0 0.00392156863 0 0 0 0 0.596078431 0 0 0 0 0.815686275 0 0 0 0.072435462 0"/>
            <feMerge>
                <feMergeNode in="shadowMatrixOuter1"/>
                <feMergeNode in="SourceGraphic"/>
            </feMerge>
        </filter>
        <path id="v" d="M51.735 41.224H.099V.05h51.636z"/>
        <linearGradient id="w" x1="50%" x2="50%" y1="0%" y2="100%">
            <stop offset="0%" stop-color="#0AABE6"/>
            <stop offset="100%" stop-color="#0198D0"/>
        </linearGradient>
        <path id="y" d="M55.906.063H0v46.704h55.906V.063z"/>
        <linearGradient id="z" x1="50%" x2="50%" y1="0%" y2="100%">
            <stop offset="0%" stop-color="#0198D0"/>
            <stop offset="100%" stop-color="#0198D0"/>
        </linearGradient>
        <filter id="B" width="121.4%" height="132%" x="-7.1%" y="-8%" filterUnits="objectBoundingBox">
            <feOffset dx="4" dy="8" in="SourceAlpha" result="shadowOffsetOuter1"/>
            <feColorMatrix in="shadowOffsetOuter1" result="shadowMatrixOuter1" values="0 0 0 0 0.00392156863 0 0 0 0 0.596078431 0 0 0 0 0.815686275 0 0 0 0.072435462 0"/>
            <feMerge>
                <feMergeNode in="shadowMatrixOuter1"/>
                <feMergeNode in="SourceGraphic"/>
            </feMerge>
        </filter>
        <path id="C" d="M51.735 41.224H.099V.05h51.636z"/>
        <path id="E" d="M55.906.063H0v46.704h55.906V.063z"/>
    </defs>
    <g fill="none" fill-rule="evenodd">
        <path fill="#F4F5F7" d="M132.74 200.328h-2.824c-2.402 0-4.235-2.05-4.235-4.71v47.106c0 2.66 1.833 4.71 4.235 4.71h2.824v-47.106z"/>
        <path fill="#E9EAEB" d="M125.681 195.618c0 2.372 2.052 4.201 4.747 4.201h60.19v-8.403h-60.19c-2.695 0-4.747 1.83-4.747 4.202"/>
        <path stroke="#9F9F9F" stroke-width="2.835" d="M190.618 199.82v-8.404h-60.19c-2.695 0-4.747 1.83-4.747 4.202"/>
        <path fill="#F1FAED" d="M183.4 199.82l-22.415-22.28-22.512 22.28"/>
        <path stroke="#2E9600" stroke-width="2.835" d="M183.4 199.82l-22.415-22.28-22.512 22.28"/>
        <path fill="#E9EAEB" d="M172.266 199.82l-7.766-8.229c-2.254 2.377-4.509 2.378-6.763.002l-7.803 8.226"/>
        <path stroke="#2E9600" stroke-width="2.835" d="M172.266 199.82l-7.766-8.229c-2.254 2.377-4.509 2.378-6.763.002l-7.803 8.226"/>
        <path fill="#F4F5F7" stroke="#9F9F9F" stroke-width="2.835" d="M197.676 247.435h-67.3c-2.663 0-4.695-2.05-4.695-4.71v-47.107c0 2.66 2.032 4.71 4.696 4.71h67.3v47.107z"/>
        <path fill="#FFF" d="M178.266 230.63c-4.874 0-8.823-3.762-8.823-8.403 0-4.642 3.95-8.403 8.823-8.403h23.26c1.771 0 3.208 1.369 3.208 3.055v10.695c0 1.686-1.437 3.055-3.208 3.055h-23.26z"/>
        <path stroke="#0198D0" stroke-width="2.835" d="M201.526 230.63h-23.26c-4.874 0-8.823-3.762-8.823-8.403 0-4.642 3.95-8.403 8.823-8.403h23.26c1.771 0 3.208 1.369 3.208 3.055v10.695c0 1.686-1.437 3.055-3.208 3.055z"/>
        <path stroke="#B5B5B5" stroke-width="2.835" d="M175.236 222.556c0-1.73 1.394-3.13 3.115-3.13a3.122 3.122 0 0 1 3.115 3.13c0 1.73-1.394 3.13-3.115 3.13a3.123 3.123 0 0 1-3.115-3.13z"/>
        <path stroke="#95D2E8" stroke-linecap="square" d="M161.5 155.5V99.464"/>
        <g>
            <path fill="url(#a)" fill-rule="nonzero" d="M64.074 64.053c3.578 3.296 5.152 8.19 4.542 12.6h-.298c-1.023-4.204-3.068-7.98-6.179-10.362-1.509-1.218-3.312-2.117-5.173-2.75-2-.658-4.435-1.262-6.378-3.063-.994-.888-1.646-2.303-1.733-3.559-.116-1.264.054-2.37.11-3.413.197-2.067-.205-3.96-1.541-5.475L45.25 45.58.551 33.504c.068 1.317.387 2.603 1.098 3.682 1.134 1.765 3.054 2.856 5.057 3.505 2.036.604 4.518 1.2 6.233 3.284.848 1.067 1.116 2.476 1.214 3.587.098 1.141.202 2.079.616 2.754.804 1.353 2.9 2.058 4.9 2.526 2.244.493 4.646 1.521 6.488 3.066 3.786 3.104 5.786 7.895 5.557 12.411l-.298.03c-1.455-4.16-3.836-7.78-7.104-10.094-1.655-1.185-3.376-2.017-5.412-2.686-1.122-.365-2.238-.787-3.327-1.406-1.072-.61-2.197-1.495-2.846-2.786-.646-1.297-.61-2.635-.652-3.673-.03-1.067-.151-1.928-.645-2.656-1.03-1.515-3.099-2.3-5.203-3.08-2.12-.87-4.191-2.277-5.304-4.37-.724-1.323-.938-2.791-.875-4.23L0 33.353V0h33.673l.008.035c1.367-.026 2.75.204 4 .873 2.114 1.105 3.53 3.154 4.409 5.256.789 2.081 1.583 4.13 3.11 5.15.736.493 1.608.613 2.682.643 1.045.038 2.4.006 3.709.646 1.303.64 2.196 1.754 2.813 2.815.625 1.082 1.053 2.187 1.42 3.299.672 2.013 1.511 3.717 2.708 5.359 2.34 3.237 5.994 5.598 10.194 7.037l-.03.295c-4.56.227-9.396-1.757-12.53-5.507-1.563-1.822-2.599-4.204-3.096-6.427-.473-1.98-1.185-4.053-2.554-4.852-.675-.413-1.625-.513-2.777-.61-1.125-.098-2.545-.363-3.622-1.206-2.107-1.698-2.706-4.157-3.316-6.17-.652-1.987-1.753-3.886-3.539-5.009C36.253.973 35.06.65 33.827.551l12.248 44.482 2.43 1.99c1.758 1.648 2.488 4.295 2.39 6.536-.051 2.281-.099 4.18 1.285 5.17 1.402 1.091 3.408 1.522 5.581 2 2.33.586 4.512 1.703 6.313 3.324z" transform="rotate(6 57.324 1270.03)"/>
            <g transform="rotate(6 57.324 1270.03)">
                <use fill="url(#b)" xlink:href="#c"/>
                <use fill="#000" filter="url(#d)" xlink:href="#c"/>
            </g>
            <g transform="rotate(6 57.324 1270.03)">
                <use fill="url(#b)" xlink:href="#e"/>
                <use fill="#000" filter="url(#f)" xlink:href="#e"/>
            </g>
        </g>
        <path stroke="#95D2E8" stroke-linecap="square" d="M247.299 322.299L182.5 269.5M75.053 321.299l64.799-52.799"/>
        <g>
            <g fill-rule="nonzero">
                <path fill="url(#g)" d="M9.867 59.201L5.73 39.853s5.634 9.139 10.846 5.257c5.256-3.914 4.25-16.104 4.25-16.104s7.323 16.552 14.535 9.339a51.653 51.653 0 0 0 9.729-23.43c1.132 8.497 4.475 16.55 9.615 23.43 7.212 7.213 14.536-9.339 14.536-9.339s-1.006 12.19 4.25 16.104c5.212 3.883 10.846-5.257 10.846-5.257l-3.092 19.348a128.425 128.425 0 0 1-36.213 4.585 116.161 116.161 0 0 1-35.164-4.585z" transform="translate(230 326)"/>
                <g transform="translate(230 326)">
                    <use fill="url(#h)" fill-rule="evenodd" xlink:href="#i"/>
                    <use fill="#000" filter="url(#j)" xlink:href="#i"/>
                </g>
                <path fill="#FFC756" d="M240.423 389.67l1.02 4.774a111.007 111.007 0 0 0 33.606 4.381 122.726 122.726 0 0 0 34.605-4.381l.758-4.743a158.264 158.264 0 0 1-35.363 3.784 146.106 146.106 0 0 1-34.626-3.815z"/>
                <path fill="#000" d="M274.967 380.635l.066.392.065-.392zM274.976 394.356l.056.335.056-.335z"/>
            </g>
        </g>
        <g>
            <g filter="url(#u)" transform="translate(0 327)">
                <g transform="translate(2.29 1.83)">
                    <mask id="x" fill="#fff">
                        <use xlink:href="#v"/>
                    </mask>
                    <path fill="url(#w)" d="M.1 41.224S-.445 11.004 31.592 4.83L31.86.05l19.874 9.161-19.874 12.41v-3.05S7.468 16.281.1 41.224" mask="url(#x)"/>
                </g>
                <g transform="translate(0 .037)">
                    <mask id="A" fill="#fff">
                        <use xlink:href="#y"/>
                    </mask>
                    <path fill="url(#z)" d="M36.138 4.291v4.57l-1.723.067c-.066.003-7.01.346-14.227 4.904-5.934 3.749-10.331 9.124-13.152 16.06 4.935-5.716 13.247-10.955 27.214-11.7l1.888-.101v2.847l14.903-9.512L36.138 4.29zM1.793 46.767H1.79l-.791-.001-.534-.587c-.546-.601-.487-1.217-.425-1.869 1.855-19.444 11.026-29.008 18.393-33.608 5.83-3.64 11.4-4.812 14.122-5.186V2.641c0-1.47 1.05-2.578 2.443-2.578.405 0 .81.095 1.201.283L54.42 9.069c.875.418 1.429 1.189 1.482 2.06.053.872-.403 1.704-1.221 2.226L36.318 25.077c-.455.29-.953.443-1.441.443-1.325 0-2.323-1.077-2.323-2.506v-1.11C9.37 23.95 4.584 39.878 3.66 44.818c-.1.534-.365 1.949-1.868 1.949z" mask="url(#A)"/>
                </g>
            </g>
            <g filter="url(#B)" transform="rotate(180 34.764 201.287)">
                <g transform="translate(2.29 1.83)">
                    <mask id="D" fill="#fff">
                        <use xlink:href="#C"/>
                    </mask>
                    <path fill="url(#w)" d="M.1 41.224S-.445 11.004 31.592 4.83L31.86.05l19.874 9.161-19.874 12.41v-3.05S7.468 16.281.1 41.224" mask="url(#D)"/>
                </g>
                <g transform="translate(0 .037)">
                    <mask id="F" fill="#fff">
                        <use xlink:href="#E"/>
                    </mask>
                    <path fill="url(#z)" d="M36.138 4.291v4.57l-1.723.067c-.066.003-7.01.346-14.227 4.904-5.934 3.749-10.331 9.124-13.152 16.06 4.935-5.716 13.247-10.955 27.214-11.7l1.888-.101v2.847l14.903-9.512L36.138 4.29zM1.793 46.767H1.79l-.791-.001-.534-.587c-.546-.601-.487-1.217-.425-1.869 1.855-19.444 11.026-29.008 18.393-33.608 5.83-3.64 11.4-4.812 14.122-5.186V2.641c0-1.47 1.05-2.578 2.443-2.578.405 0 .81.095 1.201.283L54.42 9.069c.875.418 1.429 1.189 1.482 2.06.053.872-.403 1.704-1.221 2.226L36.318 25.077c-.455.29-.953.443-1.441.443-1.325 0-2.323-1.077-2.323-2.506v-1.11C9.37 23.95 4.584 39.878 3.66 44.818c-.1.534-.365 1.949-1.868 1.949z" mask="url(#F)"/>
                </g>
            </g>
        </g>
    </g>
</svg>
