<svg xmlns="http://www.w3.org/2000/svg" xmlns:xlink="http://www.w3.org/1999/xlink" width="114" height="114" viewBox="0 0 114 114">
    <defs>
        <path id="a" d="M0 0h47.229v65.957H0z"/>
        <path id="c" d="M0 0h47.229v65.957H0z"/>
    </defs>
    <g fill="none" fill-rule="evenodd">
        <g transform="translate(11.4 21.579)">
            <mask id="b" fill="#fff">
                <use xlink:href="#a"/>
            </mask>
            <path fill="#F8FBCF" d="M47.229.45L46.975 0l-5.679 10.07h-9.292S53.17 43.3 25.81 43.3c-17.035 0-11.872-23.16-11.872-23.16l-5.096 3.467L0 20.7l9.292 45.256h37.937V.45z" mask="url(#b)"/>
        </g>
        <g transform="translate(57.814 21.579)">
            <mask id="d" fill="#fff">
                <use xlink:href="#c"/>
            </mask>
            <path fill="#FFCE32" d="M0 .45L.254 0l5.679 10.07h9.291S-5.94 43.3 21.418 43.3c17.035 0 11.873-23.16 11.873-23.16l5.096 3.467L47.23 20.7l-9.292 45.256H0V.45z" mask="url(#d)"/>
        </g>
        <path fill="#FF5636" d="M63.514 73.286a5.7 5.7 0 1 1-11.4 0 5.7 5.7 0 1 1 11.4 0M100.827 73.825c-.545 3.134-2.47 5.432-4.302 5.135-1.832-.298-2.875-3.08-2.33-6.213.544-3.134 2.47-5.433 4.302-5.135 1.831.297 2.875 3.079 2.33 6.213M15.616 73.825c.545 3.134 2.47 5.432 4.302 5.135 1.832-.298 2.875-3.08 2.33-6.213-.544-3.134-2.47-5.433-4.302-5.135-1.831.297-2.875 3.079-2.33 6.213"/>
    </g>
</svg>
