<svg xmlns="http://www.w3.org/2000/svg" data-name="Layer 1" width="70.77" height="27.69"><rect id="backgroundrect" width="100%" height="100%" x="0" y="0" fill="none" stroke="none"/><title>allegro</title><g class="currentLayer"><title>Layer 1</title><path d="M65.58,10.22a5.71,5.71,0,0,0-9,0,5.93,5.93,0,0,0-1.07,3.48,5.93,5.93,0,0,0,1.07,3.48,5.71,5.71,0,0,0,9,0,5.93,5.93,0,0,0,1.07-3.48A5.93,5.93,0,0,0,65.58,10.22ZM63.79,15a2.79,2.79,0,0,1-5.46,0,4,4,0,0,1,0-2.62,2.79,2.79,0,0,1,5.46,0,4.05,4.05,0,0,1,0,2.62ZM22.68,19.12a.32.32,0,0,1-.32.32H20.48a.32.32,0,0,1-.32-.32V3.7a.32.32,0,0,1,.32-.32h1.88a.32.32,0,0,1,.32.32Zm-4.41,0a.32.32,0,0,1-.32.32H16.07a.32.32,0,0,1-.32-.32V3.7a.32.32,0,0,1,.32-.32h1.88a.32.32,0,0,1,.32.32ZM55.05,8.67V10a.34.34,0,0,1-.44.37c-2.12-.44-3.42.51-3.42,2.47v6.29a.32.32,0,0,1-.32.32H49a.32.32,0,0,1-.32-.32V12.66A4.34,4.34,0,0,1,50,9.39,4.87,4.87,0,0,1,53.47,8a7.26,7.26,0,0,1,1.3.12h0C55,8.2,55.05,8.33,55.05,8.67Zm-8,5a5.85,5.85,0,0,0-1.07-3.48,5.71,5.71,0,0,0-9,0,6.14,6.14,0,0,0,0,7,5.55,5.55,0,0,0,4.52,2.21,5.76,5.76,0,0,0,3.22-1v1.38C44.65,21.68,43,22,42,22.09A12.31,12.31,0,0,1,39.81,22c-.29,0-.49,0-.49.31,0,0,0,1.66,0,1.66s.09.25.3.27c2.43.21,4.06.16,5.3-.54a4,4,0,0,0,1.79-2.28A7.63,7.63,0,0,0,47,19.11Zm-5.59,3.52A3,3,0,0,1,38.71,15a4,4,0,0,1,0-2.62,3,3,0,0,1,2.73-2.21c3,0,3.11,3.08,3.12,3.52S44.45,17.22,41.43,17.22ZM14,12.58a4.83,4.83,0,0,0-1-3.4A5,5,0,0,0,9.5,8,7.56,7.56,0,0,0,5.68,9a.24.24,0,0,0-.12.21h0l.1,1.64c0,.22.28.29.48.17a5.3,5.3,0,0,1,4.59-.71,1.73,1.73,0,0,1,.88,1.58v.24H8.88c-1.17,0-4.77.42-4.77,3.74V16a3.2,3.2,0,0,0,1.16,2.65,4.6,4.6,0,0,0,2.91.83h5.52a.32.32,0,0,0,.32-.32Zm-2.41,4.84H8.35A2,2,0,0,1,7.2,17a1.28,1.28,0,0,1-.55-1.07c0-.59.4-1.77,2.38-1.77h2.59Zm18-9.4a5.16,5.16,0,0,0-5.26,4.13,6.35,6.35,0,0,0-.19,1.56,5.93,5.93,0,0,0,1.07,3.48,5.73,5.73,0,0,0,4.52,2.21,7,7,0,0,0,3.91-.76c.18-.1.21-.22.21-.55V16.63c0-.3-.18-.43-.46-.26a5.69,5.69,0,0,1-3.63.88,3,3,0,0,1-2.86-2.66h7.4a.3.3,0,0,0,.3-.3C34.72,12.27,34.14,8,29.58,8Zm-2.67,4.58a2.52,2.52,0,0,1,2.67-2.4A2.24,2.24,0,0,1,32,12.59Z" id="svg_1" class="selected" fill="#ffffff" fill-opacity="1"/></g></svg>