<svg xmlns="http://www.w3.org/2000/svg" width="110" height="110" viewBox="0 0 110 110">
    <g fill="none" fill-rule="evenodd">
        <path fill="#3A77FF" d="M76.175 80.933c-8.896 0-13.04-4.248-13.251-4.472l.934-.887c.06.064 6.187 6.273 19.508 3.2 9.086-2.097 12.378-9.743 10.934-16.212-1.282-5.746-6.395-10.72-14.927-8.882-6.132 1.324-10.866.08-13.33-3.499-2.573-3.735-2.213-9.656.875-14.398 3.411-5.24 9.125-7.674 15.288-6.51l-.24 1.265c-5.632-1.063-10.852 1.161-13.968 5.947-2.811 4.317-3.179 9.649-.895 12.966 2.15 3.12 6.411 4.175 11.998 2.97 4.231-.912 8.068-.308 11.098 1.746 2.695 1.826 4.598 4.709 5.358 8.114 1.583 7.09-1.998 15.462-11.902 17.748-2.79.644-5.282.904-7.48.904"/>
        <path fill="#C7DCFF" d="M8.85 21.216L49.883 24.9l16.093 53.439-53.44-16.092z"/>
        <path fill="#FF5636" d="M71.593 79.362l.754 4.433.754 4.434-4.217-1.563-4.216-1.565 3.463-2.87z"/>
        <path fill="#FF5636" d="M71.309 80.13l-.754-4.434-.754-4.434 4.217 1.564 4.216 1.564-3.463 2.87zM89.7 75.532l3.956 2.142 3.954 2.142-3.832 2.354-3.832 2.354-.123-4.496z"/>
        <path fill="#FF5636" d="M90.13 76.23l-3.955-2.142-3.955-2.141 3.832-2.354 3.833-2.354.122 4.495zM91.697 57.171l2.472-3.757 2.472-3.757 2.017 4.02 2.018 4.019-4.49-.263z"/>
        <path fill="#FF5636" d="M92.428 56.804l-2.472 3.757-2.472 3.757-2.018-4.02-2.017-4.02 4.49.264zM76.479 53.513l-.952-4.396-.952-4.396 4.283 1.375 4.282 1.373-3.33 3.022z"/>
        <path fill="#FF5636" d="M76.729 52.733l.952 4.395.952 4.396-4.283-1.373-4.283-1.374 3.33-3.022zM65.9 37.57l4.31-1.283 4.311-1.282-1.045 4.374-1.044 4.374-3.266-3.092z"/>
        <path fill="#FF5636" d="M66.696 37.76l-4.31 1.282-4.311 1.283 1.045-4.375 1.044-4.374 3.266 3.092z"/>
        <path fill="#3A77FF" d="M36.34 23.613l2.614 46.59-26.232-7.944-3.864-41.223z"/>
    </g>
</svg>
