<svg xmlns="http://www.w3.org/2000/svg" xmlns:xlink="http://www.w3.org/1999/xlink" width="292" height="292" viewBox="0 0 292 292">
    <defs>
        <path id="prefix__a" d="M0.566 0.75L86.688 0.75 86.688 111.308 0.566 111.308z"/>
        <path id="prefix__c" d="M0 0.75L86.123 0.75 86.123 111.308 0 111.308z"/>
        <path id="prefix__e" d="M0.605 0.889L121.452 0.889 121.452 222.924 0.605 222.924z"/>
        <path id="prefix__g" d="M0 259.734L243.509 259.734 243.509 0.889 0 0.889z"/>
        <path id="prefix__i" d="M0 259.734L243.509 259.734 243.509 0.889 0 0.889z"/>
        <path id="prefix__k" d="M0 259.734L243.509 259.734 243.509 0.889 0 0.889z"/>
        <path id="prefix__m" d="M0 259.734L243.509 259.734 243.509 0.889 0 0.889z"/>
        <path id="prefix__o" d="M0 259.734L243.509 259.734 243.509 0.889 0 0.889z"/>
        <path id="prefix__q" d="M0 259.734L243.509 259.734 243.509 0.889 0 0.889z"/>
        <path id="prefix__s" d="M0 259.734L243.509 259.734 243.509 0.889 0 0.889z"/>
        <path id="prefix__u" d="M0 259.734L243.509 259.734 243.509 0.889 0 0.889z"/>
        <path id="prefix__w" d="M0 259.734L243.509 259.734 243.509 0.889 0 0.889z"/>
        <path id="prefix__y" d="M17.84.278c-1.782.16-3.535.566-5.207 1.204C4.852 4.442.067 11.848.069 19.707c0 2.302.411 4.643 1.279 6.923 3.827 10.061 15.087 15.114 25.148 11.286 7.782-2.96 12.568-10.367 12.566-18.226-.002-2.366-.436-4.712-1.28-6.923-.487-1.28-1.106-2.506-1.849-3.658l-.004-.007c-3.612-5.59-9.833-8.9-16.368-8.9-.574 0-1.148.025-1.72.076"/>
    </defs>
    <g fill="none" fill-rule="evenodd">
        <g transform="translate(23.986 15.643) translate(0 .091)">
            <g transform="translate(156.82 126.437)">
                <mask id="prefix__b" fill="#fff">
                    <use xlink:href="#prefix__a"/>
                </mask>
                <path fill="#FFD6C9" d="M25.425.75L79.08 59.306c5.828 6.36 8.517 14.987 7.334 23.533l-3.945 28.47H.566V4.505L25.425.75z" mask="url(#prefix__b)"/>
            </g>
            <g transform="translate(0 126.437)">
                <mask id="prefix__d" fill="#fff">
                    <use xlink:href="#prefix__c"/>
                </mask>
                <path fill="#FFD6C9" d="M61.265.75L7.608 59.306C1.78 65.666-.91 74.293.274 82.839l3.944 28.47h81.905V4.505L61.265.75z" mask="url(#prefix__d)"/>
            </g>
            <g transform="translate(60.768)">
                <mask id="prefix__f" fill="#fff">
                    <use xlink:href="#prefix__e"/>
                </mask>
                <path fill="#C7DCFF" d="M106.246 222.924L15.809 222.924 0.605 207.719 0.605 16.096 15.81 0.889 106.246 0.889 121.453 16.096 121.453 207.719z" mask="url(#prefix__f)"/>
            </g>
            <path fill="#002F34" d="M166.975 222.712L76.626 222.712 61.434 207.52 61.434 16.081 76.626 0.889 166.975 0.889 182.165 16.081 182.165 207.52z"/>
            <path fill="#002F34" d="M76.626 222.83L166.975 222.83 182.165 207.638 182.165 188.547 61.434 188.547 61.434 207.64z"/>
            <path fill="#23E5DB" d="M138.12 117.86L113.11 142.827 102.945 132.617 97.243 138.328 107.406 148.538 113.101 154.256 118.803 148.546 143.607 123.784"/>
            <path fill="#C7DCFF" d="M130.94 205.689c0 5.47-4.434 9.905-9.904 9.905-5.471 0-9.905-4.434-9.905-9.905 0-5.47 4.433-9.904 9.905-9.904 5.47 0 9.904 4.434 9.904 9.904"/>
            <mask id="prefix__h" fill="#fff">
                <use xlink:href="#prefix__g"/>
            </mask>
            <path fill="#C7DCFF" d="M111.086 17.304L135.483 17.304 135.483 8.409 111.086 8.409z" mask="url(#prefix__h)"/>
            <mask id="prefix__j" fill="#fff">
                <use xlink:href="#prefix__i"/>
            </mask>
            <path fill="#FFD6C9" d="M69.327 176.952c0 12.363 10.021 22.384 22.383 22.384 12.361 0 22.382-10.021 22.382-22.383 0-12.36-10.02-22.382-22.382-22.382-12.362 0-22.383 10.021-22.383 22.382" mask="url(#prefix__j)"/>
            <mask id="prefix__l" fill="#fff">
                <use xlink:href="#prefix__k"/>
            </mask>
            <path fill="#FFD6C9" d="M52.938 209.313c0 12.362 10.02 22.383 22.382 22.383 12.362 0 22.383-10.021 22.383-22.383 0-12.361-10.02-22.382-22.383-22.382-12.36 0-22.381 10.021-22.381 22.382" mask="url(#prefix__l)"/>
            <g>
                <mask id="prefix__n" fill="#fff">
                    <use xlink:href="#prefix__m"/>
                </mask>
                <path fill="#FFD6C9" fill-rule="nonzero" d="M112.675 183.695l-16.709 34.273-41.36-17.137 16.897-33.513 41.172 16.377zM4.217 237.745l2.432 21.99h69.393l19.925-41.767-39.018 5.153-52.732 14.624zm169.966-60.793c0 12.363-10.022 22.384-22.384 22.384-12.36 0-22.382-10.021-22.382-22.383 0-12.36 10.022-22.382 22.382-22.382 12.362 0 22.384 10.021 22.384 22.382z" mask="url(#prefix__n)"/>
            </g>
            <g>
                <mask id="prefix__p" fill="#fff">
                    <use xlink:href="#prefix__o"/>
                </mask>
                <path fill="#FFD6C9" d="M190.57 209.313c0 12.362-10.02 22.383-22.382 22.383-12.36 0-22.382-10.021-22.382-22.383 0-12.361 10.022-22.382 22.382-22.382 12.362 0 22.382 10.021 22.382 22.382" mask="url(#prefix__p)"/>
            </g>
            <g>
                <mask id="prefix__r" fill="#fff">
                    <use xlink:href="#prefix__q"/>
                </mask>
                <path fill="#FFD6C9" fill-rule="nonzero" d="M130.834 183.695l16.709 34.273 41.361-17.137-16.897-33.513-41.173 16.377zm108.457 54.05l-2.43 21.99h-69.392l-19.926-41.767 39.017 5.153 52.73 14.624z" mask="url(#prefix__r)"/>
            </g>
            <g>
                <mask id="prefix__t" fill="#fff">
                    <use xlink:href="#prefix__s"/>
                </mask>
                <path fill="#C7DCFF" d="M158.808 71.645c0 20.065-16.266 36.33-36.33 36.33s-36.33-16.265-36.33-36.33c0-20.063 16.266-36.329 36.33-36.329s36.33 16.265 36.33 36.33" mask="url(#prefix__t)"/>
            </g>
            <g>
                <mask id="prefix__v" fill="#fff">
                    <use xlink:href="#prefix__u"/>
                </mask>
                <path fill="#002F34" d="M95.406 97.74c6.928 6.929 16.5 11.213 27.073 11.213s20.144-4.285 27.071-11.213l-27.071-27.074L95.406 97.74z" mask="url(#prefix__v)"/>
            </g>
            <g>
                <mask id="prefix__x" fill="#fff">
                    <use xlink:href="#prefix__w"/>
                </mask>
                <path fill="#FFF" d="M141.78 71.645c0 10.66-8.641 19.301-19.301 19.301-10.66 0-19.302-8.642-19.302-19.3 0-10.66 8.642-19.301 19.302-19.301s19.3 8.64 19.3 19.3" mask="url(#prefix__x)"/>
            </g>
        </g>
        <g transform="translate(23.986 15.643) translate(102.914 52.038)">
            <mask id="prefix__z" fill="#fff">
                <use xlink:href="#prefix__y"/>
            </mask>
            <path fill="#3A77FF" d="M1.348 26.63c3.827 10.061 15.088 15.114 25.148 11.286 10.062-3.828 15.113-15.087 11.287-25.149-3.828-10.06-15.088-15.113-25.15-11.286C2.573 5.309-2.48 16.568 1.349 26.631" mask="url(#prefix__z)"/>
        </g>
        <g fill="#002F34">
            <path fill-rule="nonzero" d="M32.37 37.348c-1.978 0-3.582-1.604-3.582-3.583 0-1.978 1.604-3.582 3.583-3.582 1.978 0 3.582 1.604 3.582 3.582 0 1.979-1.604 3.583-3.582 3.583m-11.891 0c-1.28 0-2.463-.683-3.102-1.792-.64-1.108-.64-2.474 0-3.582.64-1.108 1.823-1.791 3.103-1.79 1.978 0 3.582 1.603 3.582 3.581 0 1.979-1.604 3.583-3.582 3.583" transform="translate(23.986 15.643) translate(96.053 39.205)"/>
            <path d="M41.454 12.342c-.791 0-1.556.1-2.294.274.19-.76.286-1.54.29-2.325 0-5.426-4.399-9.823-9.825-9.823-4.157 0-7.703 2.585-9.137 6.233-2.173-1.632-4.818-2.512-7.536-2.508C6.008 4.193.38 9.822.38 16.766c-.004 3.02 1.084 5.938 3.062 8.218C.187 27.18-.879 31.48.973 34.94c1.852 3.46 6.022 4.959 9.653 3.469 3.63-1.49 5.546-5.485 4.434-9.25 5.18-.883 9.265-4.893 10.244-10.055 1.344.664 2.822 1.01 4.321 1.011.735 0 1.449-.087 2.139-.24-.203.794-.323 1.621-.323 2.48 0 5.528 4.483 10.01 10.013 10.01s10.012-4.482 10.012-10.011c0-5.53-4.483-10.012-10.012-10.012" transform="translate(23.986 15.643) translate(96.053 39.205)"/>
        </g>
    </g>
</svg>
