<svg height="16" viewBox="0 0 16 16" width="16" xmlns="http://www.w3.org/2000/svg"><g fill="none" fill-rule="evenodd"><circle cx="8" cy="8" fill="#4599cd" r="8"/><path d="m6 4.89357449c.14876107-.1239416.31058657-.23988523.48548135-.34783437.17489478-.10794913.36285358-.20290297.56388206-.28486435s.41713086-.14593028.64831361-.19190861c.23118275-.04597834.48145945-.06896716.75083761-.06896716.37793354 0 .7186717.0499757 1.0222247.14992861.30355301.0999529.56187077.24288341.77496087.42879581.2130902.1859124.376926.40980354.4915122.67168015.1145863.26187661.1718785.55273519.1718785.87258448 0 .30785495-.0422153.57172665-.1266473.79162304s-.1919806.41180308-.3226491.57572584c-.1306685.16392277-.2733966.30485425-.4281885.42279867-.15479194.11794443-.30154053.22889049-.44025018.33284151s-.25932493.20590145-.36184945.30585435c-.10252453.0999529-.16584755.21189848-.18997097.33584008l-.16886307.83960019h-1.27853474l-.13267813-.96554022c-.00402057-.0239887-.00703595-.04797704-.00904624-.07196573-.00201028-.0239887-.00301541-.04797704-.00301541-.07196573 0-.17591711.04221535-.32984228.12664731-.46178011s.19097546-.25287903.31963368-.36282722c.12865823-.1099482.2673658-.21589668.41612687-.31784865.14876108-.10195196.28746865-.2118985.41612687-.32984293.12865823-.11794442.23520173-.24988028.31963369-.39581152s.12664731-.31884716.12664731-.51875297c0-.23988697-.07940506-.43079415-.23821756-.57272727-.1588125-.14193313-.37692513-.21289862-.65434443-.21289862-.21309019 0-.39099772.02198931-.53372794.06596858-.14273022.04397928-.26535575.09295547-.36788028.14693004-.10252452.05397456-.19198085.10295075-.26837167.14693003-.07639083.04397928-.1527805.06596859-.22917132.06596859-.1728845 0-.30154079-.07396404-.38597275-.22189434zm.81818182 6.87915281c0-.1722497.03137882-.3325352.09413739-.4808613.06275858-.1483261.14875979-.2775114.2580062-.3875598.10924642-.1100484.23824823-.1973681.3870093-.2619617.14876108-.0645936.31146606-.09689.48811984-.09689.17200499 0 .33238562.0322964.48114669.09689s.27892506.1519133.39049587.2619617c.1115708.1100484.19873419.2392337.26149277.3875598.06275857.1483261.09413739.3086116.09413739.4808613 0 .1722496-.03137882.3337313-.09413739.4844497-.06275858.1507185-.14992197.2811-.26149277.3911484-.11157081.1100484-.2417348.1961719-.39049587.2583732-.14876107.0622012-.3091417.0933014-.48114669.0933014-.17665378 0-.33935876-.0311002-.48811984-.0933014-.14876107-.0622013-.27776288-.1483248-.3870093-.2583732-.10924641-.1100484-.19524762-.2404299-.2580062-.3911484-.06275857-.1507184-.09413739-.3122001-.09413739-.4844497z" fill="#fff" fill-rule="nonzero"/></g></svg>