<svg xmlns="http://www.w3.org/2000/svg" xmlns:xlink="http://www.w3.org/1999/xlink" width="52" height="58" viewBox="0 0 52 58">
    <defs>
        <path id="a" d="M2.499 18.72L.224 16.446v-4.85L11.438.398h4.856L18.57 2.67v4.85L7.355 18.72z"/>
        <path id="c" d="M.278 2.67L2.553.398H7.41l11.214 11.2v4.85l-2.275 2.271h-4.856L.278 7.52z"/>
        <path id="e" d="M2.305 1.506a1.102 1.102 0 1 1-2.204 0 1.102 1.102 0 0 1 2.204 0z"/>
        <path id="g" d="M2.418 1.216a1.102 1.102 0 1 1-2.204 0 1.102 1.102 0 0 1 2.204 0z"/>
        <path id="i" d="M7.026 6.526L4.137 8.462.053 2.384 2.942.447z"/>
        <path id="k" d="M3.875.452l-.01 7.318-3.478-.005.01-7.318z"/>
        <path id="m" d="M7.03 2.155L2.947 8.232.06 6.296 4.145.22z"/>
        <path id="o" d="M35.927 19.703c.448.504.722 1.166.722 1.893a2.861 2.861 0 0 1-4.8 2.103l-.01.01c.463.509.748 1.182.748 1.924a2.861 2.861 0 0 1-4.825 2.08c.49.513.794 1.206.794 1.972a2.861 2.861 0 0 1-4.808 2.095c.472.51.763 1.19.763 1.938a2.861 2.861 0 0 1-4.916 1.991l-.006.006-16.482-16.46L1.3 17.447a3.783 3.783 0 0 1-.008-5.347l10.804-10.85a3.794 3.794 0 0 1 5.37-.009l18.473 18.45-.01.01z"/>
        <path id="q" d="M27.52 13.197a2.937 2.937 0 0 1 0 4.157l-1.537 1.602-9.785-9.772c-1.48-1.48-3.894-1.47-5.375.01L5.21 14.798l-.004-.005a2.868 2.868 0 0 1-4.814-1.55 2.851 2.851 0 0 1 .947-2.663l9.089-9.075c1.424-1.433 3.748-1.535 5.19-.119l11.901 11.81z"/>
    </defs>
    <g fill="none" fill-rule="evenodd">
        <g transform="translate(-.057 .429)">
            <mask id="b" fill="#fff">
                <use xlink:href="#a"/>
            </mask>
            <path fill="#003035" d="M-2.08-1.906h22.953v22.93H-2.08z" mask="url(#b)"/>
        </g>
        <g transform="translate(33.123 .429)">
            <mask id="d" fill="#fff">
                <use xlink:href="#c"/>
            </mask>
            <path fill="#003035" d="M-2.026-1.906h22.953v22.93H-2.026z" mask="url(#d)"/>
        </g>
        <g transform="translate(12.846 3.654)">
            <mask id="f" fill="#fff">
                <use xlink:href="#e"/>
            </mask>
            <path fill="#FFF" d="M-2.205-1.9H4.61v6.812h-6.815z" mask="url(#f)"/>
        </g>
        <g transform="translate(46.026 13.793)">
            <mask id="h" fill="#fff">
                <use xlink:href="#g"/>
            </mask>
            <path fill="#FFF" d="M-2.092-2.19h6.815v6.812h-6.815z" mask="url(#h)"/>
        </g>
        <g transform="translate(37.27 44.668)">
            <mask id="j" fill="#fff">
                <use xlink:href="#i"/>
            </mask>
            <path fill="#FFCE32" d="M-2.252-1.857H9.33v12.623H-2.252z" mask="url(#j)"/>
        </g>
        <g transform="translate(26.671 49.737)">
            <mask id="l" fill="#fff">
                <use xlink:href="#k"/>
            </mask>
            <path fill="#FFCE32" d="M-1.917-1.857h8.096v11.93h-8.096z" mask="url(#l)"/>
        </g>
        <g transform="translate(13.075 44.897)">
            <mask id="n" fill="#fff">
                <use xlink:href="#m"/>
            </mask>
            <path fill="#FFCE32" d="M-2.245-2.085h11.58v12.621h-11.58z" mask="url(#n)"/>
        </g>
        <g transform="translate(7.777 7.802)">
            <mask id="p" fill="#fff">
                <use xlink:href="#o"/>
            </mask>
            <path fill="#23E5DB" d="M-2.116-2.17h41.069V38.88H-2.116z" mask="url(#p)"/>
        </g>
        <g transform="translate(16.533 7.341)">
            <mask id="r" fill="#fff">
                <use xlink:href="#q"/>
            </mask>
            <path fill="#00A7A0" d="M-1.956-1.928h32.642V21.26H-1.956z" mask="url(#r)"/>
        </g>
    </g>
</svg>
