<svg xmlns="http://www.w3.org/2000/svg" xmlns:xlink="http://www.w3.org/1999/xlink" width="177" height="179" viewBox="0 0 177 179">
    <defs>
        <path id="a" d="M.326.11h132.432v132.163H.326z"/>
        <path id="c" d="M0 .125h132.119V132.29H0z"/>
        <path id="e" d="M0 177.574h176.223V0H0z"/>
    </defs>
    <g fill="none" fill-rule="evenodd" transform="translate(.429 .714)">
        <g transform="translate(43.807 45.89)">
            <mask id="b" fill="#fff">
                <use xlink:href="#a"/>
            </mask>
            <path fill="#3A77FF" d="M10.384 132.273L.326 126.638V59.095C.326 26.57 26.796.109 59.333.109h14.415c32.537 0 59.01 26.46 59.01 58.986 0 32.525-26.473 58.988-59.01 58.988H34.195c-.654 0-1.293.233-1.8.652l-.771.551-21.24 12.987z" mask="url(#b)"/>
        </g>
        <mask id="d" fill="#fff">
            <use xlink:href="#c"/>
        </mask>
        <path fill="#CEDDFF" d="M100.895 119.302l-.77-.551a2.82 2.82 0 0 0-1.796-.652H58.871C26.41 118.1 0 91.636 0 59.111S26.411.125 58.87.125h14.381c32.46 0 58.868 26.46 58.868 58.986v67.543l-10.035 5.635-21.189-12.987z" mask="url(#d)"/>
        <path fill="#002F34" d="M46.877 93.775l-5.061-4.785c9.617-9.615 19.863-14.372 30.451-14.163 15.544.319 25.866 11.36 26.298 11.83l-5.257 4.58c-.087-.093-8.811-9.328-21.26-9.55-8.533-.137-16.997 3.916-25.171 12.088M50.278 29.928c-9.623 0-17.423 7.816-17.423 17.458s7.8 17.458 17.423 17.458c9.623 0 17.423-7.816 17.423-17.458s-7.8-17.458-17.423-17.458m0 12.22c2.882 0 5.227 2.35 5.227 5.238 0 2.888-2.345 5.238-5.227 5.238s-5.227-2.35-5.227-5.238c0-2.888 2.345-5.237 5.227-5.237"/>
        <mask id="f" fill="#fff">
            <use xlink:href="#e"/>
        </mask>
        <path fill="#002F34" d="M76.662 50.878H97.57v-6.983H76.662z" mask="url(#f)"/>
    </g>
</svg>
