<svg xmlns="http://www.w3.org/2000/svg" xmlns:xlink="http://www.w3.org/1999/xlink" width="36" height="36" viewBox="0 0 36 36">
    <defs>
        <path id="a" d="M0 0h36v36H0z"/>
    </defs>
    <g fill="none" fill-rule="evenodd">
        <g>
            <mask id="b" fill="#fff">
                <use xlink:href="#a"/>
            </mask>
            <path fill="#406367" d="M27 18.675c0 1.463-.169 2.925-.169 2.925s-.168 1.237-.731 1.8c-.675.731-1.463.731-1.8.788-2.531.112-6.3.168-6.3.168s-4.669-.056-6.131-.168c-.394-.057-1.294-.057-1.969-.788-.563-.563-.731-1.8-.731-1.8S9 20.138 9 18.675v-1.35c0-1.462.169-2.925.169-2.925s.168-1.237.731-1.8c.675-.732 1.463-.732 1.8-.787 2.531-.17 6.3-.17 6.3-.17s3.769 0 6.3.17c.337.055 1.125.055 1.8.787.563.563.731 1.8.731 1.8S27 15.863 27 17.325v1.35zM31.5 0h-27A4.513 4.513 0 0 0 0 4.5v27C0 33.975 2.025 36 4.5 36h27c2.475 0 4.5-2.025 4.5-4.5v-27C36 2.025 33.975 0 31.5 0z" mask="url(#b)"/>
        </g>
        <path fill="#406367" d="M16.144 20.363l4.837-2.532-4.837-2.53z"/>
    </g>
</svg>
