<?xml version="1.0" encoding="utf-8"?>
<!-- Generator: Adobe Illustrator 22.1.0, SVG Export Plug-In . SVG Version: 6.00 Build 0)  -->
<svg version="1.1" id="Layer_1" xmlns="http://www.w3.org/2000/svg" xmlns:xlink="http://www.w3.org/1999/xlink" x="0px" y="0px"
	 viewBox="0 0 590.1 352.8" style="enable-background:new 0 0 590.1 352.8;" xml:space="preserve">
<style type="text/css">
	.st0{filter:url(#filter-3);}
	.st1{fill:#FCFCFC;}
	.st2{fill:url(#path-2_3_);fill-opacity:6.000000e-02;}
	.st3{opacity:0.98;fill:#FFFFFF;stroke:#FAFAFA;stroke-width:4;enable-background:new    ;}
	.st4{filter:url(#filter-5);}
	.st5{fill:#F2F2F2;}
	.st6{fill:url(#path-7_2_);fill-opacity:0.1;}
	.st7{fill:#FBFBFB;}
	.st8{fill:url(#path-9_2_);fill-opacity:8.000001e-02;}
	.st9{fill:#F9F7F7;}
	.st10{fill:url(#path-11_2_);fill-opacity:8.000001e-02;}
	.st11{fill:#F6F6F6;}
	.st12{filter:url(#Adobe_OpacityMaskFilter);}
	.st13{fill:#FFFFFF;}
	.st14{mask:url(#mask-13_1_);fill:#9CBBFF;}
	.st15{filter:url(#Adobe_OpacityMaskFilter_1_);}
	.st16{mask:url(#mask-13_2_);fill:#CEDDFF;}
	.st17{filter:url(#Adobe_OpacityMaskFilter_2_);}
	.st18{mask:url(#mask-13_3_);fill:#6C99FF;}
	.st19{filter:url(#Adobe_OpacityMaskFilter_3_);}
	.st20{mask:url(#mask-13_4_);fill:#CEDDFF;}
	.st21{filter:url(#Adobe_OpacityMaskFilter_4_);}
	.st22{mask:url(#mask-13_5_);}
	.st23{fill:#F2F4F5;}
	.st24{fill:#D8DFE0;}
	.st25{filter:url(#Adobe_OpacityMaskFilter_5_);}
	.st26{mask:url(#mask-13_6_);}
	.st27{filter:url(#Adobe_OpacityMaskFilter_6_);}
	.st28{mask:url(#mask-13_7_);}
	.st29{filter:url(#Adobe_OpacityMaskFilter_7_);}
	.st30{mask:url(#mask-13_8_);}
	.st31{filter:url(#Adobe_OpacityMaskFilter_8_);}
	.st32{mask:url(#mask-13_9_);}
	.st33{filter:url(#Adobe_OpacityMaskFilter_9_);}
	.st34{mask:url(#mask-13_10_);}
	.st35{filter:url(#filter-14);}
	.st36{fill:#002F34;}
	.st37{fill:#23E5DB;}
</style>
<filter  filterUnits="objectBoundingBox" height="427.3%" id="filter-5" width="102.3%" x="-1.1%" y="-81.8%">
	<feOffset  dx="0" dy="3" in="SourceAlpha" result="shadowOffsetOuter1"></feOffset>
	<feGaussianBlur  in="shadowOffsetOuter1" result="shadowBlurOuter1" stdDeviation="1.5"></feGaussianBlur>
	<feColorMatrix  in="shadowBlurOuter1" type="matrix" values="0 0 0 0 0   0 0 0 0 0   0 0 0 0 0  0 0 0 0.24 0"></feColorMatrix>
</filter>
<filter  filterUnits="objectBoundingBox" height="172.8%" id="filter-3" width="150.7%" x="-36.3%" y="-20.7%">
	<feOffset  dx="-51" dy="51" in="SourceAlpha" result="shadowOffsetOuter1"></feOffset>
	<feGaussianBlur  in="shadowOffsetOuter1" result="shadowBlurOuter1" stdDeviation="31"></feGaussianBlur>
	<feColorMatrix  in="shadowBlurOuter1" type="matrix" values="0 0 0 0 0   0 0 0 0 0   0 0 0 0 0  0 0 0 0.04 0"></feColorMatrix>
</filter>
<filter  filterUnits="objectBoundingBox" height="354.2%" id="filter-14" width="139.1%" x="-19.6%" y="-127.1%">
	<feOffset  dx="0" dy="2" in="SourceAlpha" result="shadowOffsetOuter1"></feOffset>
	<feGaussianBlur  in="shadowOffsetOuter1" result="shadowBlurOuter1" stdDeviation="16"></feGaussianBlur>
	
		<feColorMatrix  in="shadowBlurOuter1" result="shadowMatrixOuter1" type="matrix" values="0 0 0 0 0   0 0 0 0 0   0 0 0 0 0  0 0 0 0.135680726 0">
		</feColorMatrix>
	<feMerge>
		<feMergeNode  in="shadowMatrixOuter1"></feMergeNode>
		<feMergeNode  in="SourceGraphic"></feMergeNode>
	</feMerge>
</filter>
<title>15&quot; Macbook Pro 2</title>
<desc>Created with Sketch.</desc>
<g id="Final_eng">
	<g id="Vas_Packages_Home_hover-Copy" transform="translate(-646.000000, -139.000000)">
		<g id="_x31_5_x22_-Macbook-Pro-2" transform="translate(690.000000, 149.000000)">
			<g id="_x31_5_x22_-Macbook-Pro">
				<g transform="translate(13.746201, 0.000000)">
					<g id="back-frame">
						<g class="st0">
							<path id="path-2_3_" d="M22.6,0h428.2c6.8,0,9.3,0.7,11.8,2s4.4,3.3,5.8,5.8c1.3,2.5,2,5,2,11.8v286.2c0,6.8-0.7,9.3-2,11.8
								c-1.3,2.5-3.3,4.4-5.8,5.8s-5,2-11.8,2H22.6c-6.8,0-9.3-0.7-11.8-2s-4.4-3.3-5.8-5.8c-1.3-2.5-2-5-2-11.8V19.6
								c0-6.8,0.7-9.3,2-11.8C6.4,5.3,8.4,3.4,10.9,2S15.8,0,22.6,0z"/>
						</g>
						<g>
							<path id="path-2_1_" class="st1" d="M22.6,0h428.2c6.8,0,9.3,0.7,11.8,2s4.4,3.3,5.8,5.8c1.3,2.5,2,5,2,11.8v286.2
								c0,6.8-0.7,9.3-2,11.8c-1.3,2.5-3.3,4.4-5.8,5.8s-5,2-11.8,2H22.6c-6.8,0-9.3-0.7-11.8-2s-4.4-3.3-5.8-5.8
								c-1.3-2.5-2-5-2-11.8V19.6c0-6.8,0.7-9.3,2-11.8C6.4,5.3,8.4,3.4,10.9,2S15.8,0,22.6,0z"/>
						</g>
						<g>
							
								<linearGradient id="path-2_3_" gradientUnits="userSpaceOnUse" x1="184.6269" y1="238.1147" x2="183.6269" y2="238.1147" gradientTransform="matrix(467.3708 0 0 -325.3641 -85818.7734 77636.6641)">
								<stop  offset="0" style="stop-color:#FFFFFF;stop-opacity:0.5"/>
								<stop  offset="0.9669" style="stop-color:#FFFFFF;stop-opacity:0.5"/>
								<stop  offset="1" style="stop-color:#000000;stop-opacity:0.5"/>
							</linearGradient>
							<path id="path-2_2_" class="st2" d="M22.6,0h428.2c6.8,0,9.3,0.7,11.8,2s4.4,3.3,5.8,5.8c1.3,2.5,2,5,2,11.8v286.2
								c0,6.8-0.7,9.3-2,11.8c-1.3,2.5-3.3,4.4-5.8,5.8s-5,2-11.8,2H22.6c-6.8,0-9.3-0.7-11.8-2s-4.4-3.3-5.8-5.8
								c-1.3-2.5-2-5-2-11.8V19.6c0-6.8,0.7-9.3,2-11.8C6.4,5.3,8.4,3.4,10.9,2S15.8,0,22.6,0z"/>
						</g>
					</g>
					<path id="front-frame" class="st3" d="M451.6,0.7H21.9c-6.1,0-8.4,0.7-10.6,1.9C8.9,3.9,7,5.8,5.7,8.2
						c-1.2,2.2-1.9,4.4-1.9,10.6v289.8c0,2.9,0.4,3.9,0.9,4.9c0.6,1.2,1.6,2.1,2.8,2.8c1,0.6,2.1,0.9,4.9,0.9H461
						c2.9,0,3.9-0.4,4.9-0.9c1.2-0.6,2.1-1.6,2.8-2.8c0.6-1,0.9-2.1,0.9-4.9V18.8c0-6.1-0.7-8.4-1.9-10.6c-1.3-2.4-3.2-4.3-5.6-5.6
						C460,1.5,457.8,0.7,451.6,0.7z"/>
					<g id="bottom" transform="translate(0.000000, 314.976909)">
						<g id="shade">
							<g class="st4">
								<path id="path-4_1_" d="M-27.1,13.1h530.3c0.5,0,0.9,0.4,0.9,0.9c0,0.4-0.3,0.8-0.7,0.9l-8.9,1.8c-0.2,0-0.5,0.1-0.7,0.1
									H-15.1c-0.2,0-0.4,0-0.6,0L-27.2,15c-0.5-0.1-0.8-0.5-0.8-1.1C-27.9,13.5-27.5,13.1-27.1,13.1L-27.1,13.1z"/>
							</g>
						</g>
						<g>
							<g>
								<path id="path-7" class="st5" d="M-51,10.1h575.5c-10.9,4.5-21.8,6.7-32.7,6.7H-18.9C-28.3,16.8-39,14.6-51,10.1z"/>
							</g>
							<g>
								
									<linearGradient id="path-7_2_" gradientUnits="userSpaceOnUse" x1="184.2447" y1="-47.22" x2="184.2447" y2="-48.22" gradientTransform="matrix(575.5076 0 0 -6.7211 -105797.4531 -307.2905)">
									<stop  offset="0" style="stop-color:#FFFFFF;stop-opacity:0.5"/>
									<stop  offset="1" style="stop-color:#000000;stop-opacity:0.5"/>
								</linearGradient>
								<path id="path-7_1_" class="st6" d="M-51,10.1h575.5c-10.9,4.5-21.8,6.7-32.7,6.7H-18.9C-28.3,16.8-39,14.6-51,10.1z"/>
							</g>
						</g>
						<g id="edge">
							<g>
								<polygon id="path-9" class="st7" points="-50.7,0 524.2,0 524.2,10.1 -50.7,10.1 								"/>
							</g>
							<g>
								
									<linearGradient id="path-9_2_" gradientUnits="userSpaceOnUse" x1="184.7441" y1="-57.639" x2="183.7441" y2="-57.639" gradientTransform="matrix(574.8967 0 0 -10.0817 -105684.5781 -576.0584)">
									<stop  offset="0" style="stop-color:#000000;stop-opacity:0.5"/>
									<stop  offset="2.053998e-02" style="stop-color:#F9F9F9;stop-opacity:0.5"/>
									<stop  offset="0.9827" style="stop-color:#FFFFFF;stop-opacity:0.5"/>
									<stop  offset="1" style="stop-color:#000000;stop-opacity:0.5"/>
								</linearGradient>
								<polygon id="path-9_1_" class="st8" points="-50.7,0 524.2,0 524.2,10.1 -50.7,10.1 								"/>
							</g>
						</g>
					</g>
					<g id="handle">
						<g>
							<path id="path-11" class="st9" d="M189.7,315h94.1c0,4-3.3,7.3-7.3,7.3H197C193,322.3,189.7,319,189.7,315z"/>
						</g>
						<g>
							
								<linearGradient id="path-11_2_" gradientUnits="userSpaceOnUse" x1="182.1396" y1="264.7771" x2="181.1396" y2="264.7771" gradientTransform="matrix(94.0851 0 0 -7.3322 -16852.8262 2260.0293)">
								<stop  offset="0" style="stop-color:#000000;stop-opacity:0.5"/>
								<stop  offset="8.058544e-02" style="stop-color:#E9E9E9;stop-opacity:0.5"/>
								<stop  offset="0.9225" style="stop-color:#FFFFFF;stop-opacity:0.5"/>
								<stop  offset="1" style="stop-color:#000000;stop-opacity:0.5"/>
							</linearGradient>
							<path id="path-11_1_" class="st10" d="M189.7,315h94.1c0,4-3.3,7.3-7.3,7.3H197C193,322.3,189.7,319,189.7,315z"/>
						</g>
					</g>
					<g id="screen" transform="translate(67.814590, 22.607460)">
						<g id="business-page" transform="translate(0.000000, -0.611012)">
							<g id="Group-4" transform="translate(0.000000, 21.996448)">
								<g id="Rectangle">
									<rect id="path-12_1_" x="-51" y="0" class="st11" width="439.9" height="254.2"/>
								</g>
								<defs>
									<filter id="Adobe_OpacityMaskFilter" filterUnits="userSpaceOnUse" x="0.3" y="13.1" width="337.2" height="51.9">
										<feColorMatrix  type="matrix" values="1 0 0 0 0  0 1 0 0 0  0 0 1 0 0  0 0 0 1 0"/>
									</filter>
								</defs>
								<mask maskUnits="userSpaceOnUse" x="0.3" y="13.1" width="337.2" height="51.9" id="mask-13_1_">
									<g class="st12">
										<rect id="path-12_2_" x="-51" y="0" class="st13" width="439.9" height="254.2"/>
									</g>
								</mask>
								<path id="Rectangle_1_" class="st14" d="M4.3,13.1h329.2c2.2,0,4,1.8,4,4v43.9c0,2.2-1.8,4-4,4H4.3c-2.2,0-4-1.8-4-4V17.1
									C0.3,14.9,2.1,13.1,4.3,13.1z"/>
								<defs>
									<filter id="Adobe_OpacityMaskFilter_1_" filterUnits="userSpaceOnUse" x="80.4" y="22.9" width="91.6" height="3.7">
										<feColorMatrix  type="matrix" values="1 0 0 0 0  0 1 0 0 0  0 0 1 0 0  0 0 0 1 0"/>
									</filter>
								</defs>
								<mask maskUnits="userSpaceOnUse" x="80.4" y="22.9" width="91.6" height="3.7" id="mask-13_2_">
									<g class="st15">
										<rect id="path-12_3_" x="-51" y="0" class="st13" width="439.9" height="254.2"/>
									</g>
								</mask>
								<path id="Rectangle_2_" class="st16" d="M82.2,22.9h88c1,0,1.8,0.8,1.8,1.8v0c0,1-0.8,1.8-1.8,1.8h-88c-1,0-1.8-0.8-1.8-1.8
									v0C80.4,23.7,81.2,22.9,82.2,22.9z"/>
								<defs>
									<filter id="Adobe_OpacityMaskFilter_2_" filterUnits="userSpaceOnUse" x="7.7" y="20.5" width="65.4" height="37.3">
										<feColorMatrix  type="matrix" values="1 0 0 0 0  0 1 0 0 0  0 0 1 0 0  0 0 0 1 0"/>
									</filter>
								</defs>
								<mask maskUnits="userSpaceOnUse" x="7.7" y="20.5" width="65.4" height="37.3" id="mask-13_3_">
									<g class="st17">
										<rect id="path-12_4_" x="-51" y="0" class="st13" width="439.9" height="254.2"/>
									</g>
								</mask>
								<path id="Rectangle_3_" class="st18" d="M11.7,20.5H69c2.2,0,4,1.8,4,4v29.3c0,2.2-1.8,4-4,4H11.7c-2.2,0-4-1.8-4-4V24.5
									C7.7,22.3,9.4,20.5,11.7,20.5z"/>
								<defs>
									<filter id="Adobe_OpacityMaskFilter_3_" filterUnits="userSpaceOnUse" x="80.4" y="31.5" width="28.2" height="3.7">
										<feColorMatrix  type="matrix" values="1 0 0 0 0  0 1 0 0 0  0 0 1 0 0  0 0 0 1 0"/>
									</filter>
								</defs>
								<mask maskUnits="userSpaceOnUse" x="80.4" y="31.5" width="28.2" height="3.7" id="mask-13_4_">
									<g class="st19">
										<rect id="path-12_5_" x="-51" y="0" class="st13" width="439.9" height="254.2"/>
									</g>
								</mask>
								<path id="Rectangle-Copy" class="st20" d="M82.2,31.5h24.6c1,0,1.8,0.8,1.8,1.8v0c0,1-0.8,1.8-1.8,1.8H82.2
									c-1,0-1.8-0.8-1.8-1.8v0C80.4,32.3,81.2,31.5,82.2,31.5z"/>
								<defs>
									<filter id="Adobe_OpacityMaskFilter_4_" filterUnits="userSpaceOnUse" x="81" y="70.9" width="256.6" height="51.9">
										<feColorMatrix  type="matrix" values="1 0 0 0 0  0 1 0 0 0  0 0 1 0 0  0 0 0 1 0"/>
									</filter>
								</defs>
								<mask maskUnits="userSpaceOnUse" x="81" y="70.9" width="256.6" height="51.9" id="mask-13_5_">
									<g class="st21">
										<rect id="path-12_6_" x="-51" y="0" class="st13" width="439.9" height="254.2"/>
									</g>
								</mask>
								<g id="Group-2" class="st22">
									<g transform="translate(131.963526, 70.877442)">
										<path id="Rectangle_4_" class="st13" d="M-47,0h248.6c2.2,0,4,1.8,4,4v43.9c0,2.2-1.8,4-4,4H-47c-2.2,0-4-1.8-4-4V4
											C-51,1.8-49.2,0-47,0z"/>
										<g id="Group" transform="translate(5.578168, 7.332149)">
											<g id="grey-ad-copy">
												<g id="grey-ad">
													<path id="Rectangle_5_" class="st23" d="M6.1,2.4h66.1c1,0,1.8,0.8,1.8,1.8l0,0c0,1-0.8,1.8-1.8,1.8H6.1
														c-1,0-1.8-0.8-1.8-1.8l0,0C4.3,3.3,5.1,2.4,6.1,2.4z"/>
													<path id="Rectangle_6_" class="st23" d="M146.9,7h45.6c0.9,0,1.6,0.7,1.6,1.6l0,0c0,0.9-0.7,1.6-1.6,1.6h-45.6
														c-0.9,0-1.6-0.7-1.6-1.6l0,0C145.3,7.7,146,7,146.9,7z"/>
													<path id="Rectangle_7_" class="st24" d="M-47,0h41.7c2.2,0,4,1.8,4,4v29.3c0,2.2-1.8,4-4,4H-47c-2.2,0-4-1.8-4-4V4
														C-51,1.8-49.2,0-47,0z"/>
													<path id="Rectangle-Copy_1_" class="st23" d="M6.1,11H24c1,0,1.8,0.8,1.8,1.8l0,0c0,1-0.8,1.8-1.8,1.8H6.1
														c-1,0-1.8-0.8-1.8-1.8l0,0C4.3,11.8,5.1,11,6.1,11z"/>
													<path id="Rectangle-Copy_2_" class="st23" d="M6.1,31.2h31.8c1,0,1.8,0.8,1.8,1.8l0,0c0,1-0.8,1.8-1.8,1.8H6.1
														c-1,0-1.8-0.8-1.8-1.8l0,0C4.3,32,5.1,31.2,6.1,31.2z"/>
												</g>
											</g>
											<g id="element_x2F_icon_x2F_like_x2F_thick-" transform="translate(237.756562, 29.939609)">
												<path id="Fill-1" class="st24" d="M-44.8,3.2l-2.5,3.1l-2.5-3.1C-50,3-50.1,2.7-50.1,2.4c0-0.7,0.5-1.2,1.2-1.2
													c0.6,0,1,0.4,1.2,0.9h0.7c0.1-0.5,0.6-0.9,1.2-0.9c0.7,0,1.2,0.5,1.2,1.2C-44.6,2.7-44.7,3-44.8,3.2 M-45.8,0.6
													c-0.6,0-1.2,0.3-1.5,0.8c-0.3-0.5-0.9-0.8-1.5-0.8c-1,0-1.8,0.8-1.8,1.8c0,0.4,0.1,0.8,0.4,1.1l2.6,3.2h0.8l2.6-3.2
													c0.2-0.3,0.4-0.7,0.4-1.1C-44,1.4-44.8,0.6-45.8,0.6"/>
											</g>
										</g>
									</g>
								</g>
								<defs>
									<filter id="Adobe_OpacityMaskFilter_5_" filterUnits="userSpaceOnUse" x="81" y="129.5" width="256.6" height="51.9">
										<feColorMatrix  type="matrix" values="1 0 0 0 0  0 1 0 0 0  0 0 1 0 0  0 0 0 1 0"/>
									</filter>
								</defs>
								<mask maskUnits="userSpaceOnUse" x="81" y="129.5" width="256.6" height="51.9" id="mask-13_6_">
									<g class="st25">
										<rect id="path-12_7_" x="-51" y="0" class="st13" width="439.9" height="254.2"/>
									</g>
								</mask>
								<g id="Group-2-Copy-2" class="st26">
									<g transform="translate(131.963526, 129.534636)">
										<path id="Rectangle_8_" class="st13" d="M-47,0h248.6c2.2,0,4,1.8,4,4v43.9c0,2.2-1.8,4-4,4H-47c-2.2,0-4-1.8-4-4V4
											C-51,1.8-49.2,0-47,0z"/>
										<g id="Group_1_" transform="translate(5.578168, 7.332149)">
											<g id="grey-ad-copy_1_">
												<g id="grey-ad_1_">
													<path id="Rectangle_9_" class="st23" d="M6.1,2.4h66.1c1,0,1.8,0.8,1.8,1.8l0,0c0,1-0.8,1.8-1.8,1.8H6.1
														c-1,0-1.8-0.8-1.8-1.8l0,0C4.3,3.3,5.1,2.4,6.1,2.4z"/>
													<path id="Rectangle_10_" class="st23" d="M146.9,7h45.6c0.9,0,1.6,0.7,1.6,1.6l0,0c0,0.9-0.7,1.6-1.6,1.6h-45.6
														c-0.9,0-1.6-0.7-1.6-1.6l0,0C145.3,7.7,146,7,146.9,7z"/>
													<path id="Rectangle_11_" class="st24" d="M-47,0h41.7c2.2,0,4,1.8,4,4v29.3c0,2.2-1.8,4-4,4H-47c-2.2,0-4-1.8-4-4V4
														C-51,1.8-49.2,0-47,0z"/>
													<path id="Rectangle-Copy_3_" class="st23" d="M6.1,11H24c1,0,1.8,0.8,1.8,1.8l0,0c0,1-0.8,1.8-1.8,1.8H6.1
														c-1,0-1.8-0.8-1.8-1.8l0,0C4.3,11.8,5.1,11,6.1,11z"/>
													<path id="Rectangle-Copy_4_" class="st23" d="M6.1,31.2h31.8c1,0,1.8,0.8,1.8,1.8l0,0c0,1-0.8,1.8-1.8,1.8H6.1
														c-1,0-1.8-0.8-1.8-1.8l0,0C4.3,32,5.1,31.2,6.1,31.2z"/>
												</g>
											</g>
											<g id="element_x2F_icon_x2F_like_x2F_thick-_1_" transform="translate(237.756562, 29.939609)">
												<path id="Fill-1_1_" class="st24" d="M-44.8,3.2l-2.5,3.1l-2.5-3.1C-50,3-50.1,2.7-50.1,2.4c0-0.7,0.5-1.2,1.2-1.2
													c0.6,0,1,0.4,1.2,0.9h0.7c0.1-0.5,0.6-0.9,1.2-0.9c0.7,0,1.2,0.5,1.2,1.2C-44.6,2.7-44.7,3-44.8,3.2 M-45.8,0.6
													c-0.6,0-1.2,0.3-1.5,0.8c-0.3-0.5-0.9-0.8-1.5-0.8c-1,0-1.8,0.8-1.8,1.8c0,0.4,0.1,0.8,0.4,1.1l2.6,3.2h0.8l2.6-3.2
													c0.2-0.3,0.4-0.7,0.4-1.1C-44,1.4-44.8,0.6-45.8,0.6"/>
											</g>
										</g>
									</g>
								</g>
								<defs>
									<filter id="Adobe_OpacityMaskFilter_6_" filterUnits="userSpaceOnUse" x="81" y="188.2" width="256.6" height="51.9">
										<feColorMatrix  type="matrix" values="1 0 0 0 0  0 1 0 0 0  0 0 1 0 0  0 0 0 1 0"/>
									</filter>
								</defs>
								<mask maskUnits="userSpaceOnUse" x="81" y="188.2" width="256.6" height="51.9" id="mask-13_7_">
									<g class="st27">
										<rect id="path-12_8_" x="-51" y="0" class="st13" width="439.9" height="254.2"/>
									</g>
								</mask>
								<g id="Group-2-Copy-3" class="st28">
									<g transform="translate(131.963526, 188.191829)">
										<path id="Rectangle_12_" class="st13" d="M-47,0h248.6c2.2,0,4,1.8,4,4v43.9c0,2.2-1.8,4-4,4H-47c-2.2,0-4-1.8-4-4V4
											C-51,1.8-49.2,0-47,0z"/>
										<g id="Group_2_" transform="translate(5.578168, 7.332149)">
											<g id="grey-ad-copy_2_">
												<g id="grey-ad_2_">
													<path id="Rectangle_13_" class="st23" d="M6.1,2.4h66.1c1,0,1.8,0.8,1.8,1.8l0,0c0,1-0.8,1.8-1.8,1.8H6.1
														c-1,0-1.8-0.8-1.8-1.8l0,0C4.3,3.3,5.1,2.4,6.1,2.4z"/>
													<path id="Rectangle_14_" class="st23" d="M146.9,7h45.6c0.9,0,1.6,0.7,1.6,1.6l0,0c0,0.9-0.7,1.6-1.6,1.6h-45.6
														c-0.9,0-1.6-0.7-1.6-1.6l0,0C145.3,7.7,146,7,146.9,7z"/>
													<path id="Rectangle_15_" class="st24" d="M-47,0h41.7c2.2,0,4,1.8,4,4v29.3c0,2.2-1.8,4-4,4H-47c-2.2,0-4-1.8-4-4V4
														C-51,1.8-49.2,0-47,0z"/>
													<path id="Rectangle-Copy_5_" class="st23" d="M6.1,11H24c1,0,1.8,0.8,1.8,1.8l0,0c0,1-0.8,1.8-1.8,1.8H6.1
														c-1,0-1.8-0.8-1.8-1.8l0,0C4.3,11.8,5.1,11,6.1,11z"/>
													<path id="Rectangle-Copy_6_" class="st23" d="M6.1,31.2h31.8c1,0,1.8,0.8,1.8,1.8l0,0c0,1-0.8,1.8-1.8,1.8H6.1
														c-1,0-1.8-0.8-1.8-1.8l0,0C4.3,32,5.1,31.2,6.1,31.2z"/>
												</g>
											</g>
											<g id="element_x2F_icon_x2F_like_x2F_thick-_2_" transform="translate(237.756562, 29.939609)">
												<path id="Fill-1_2_" class="st24" d="M-44.8,3.2l-2.5,3.1l-2.5-3.1C-50,3-50.1,2.7-50.1,2.4c0-0.7,0.5-1.2,1.2-1.2
													c0.6,0,1,0.4,1.2,0.9h0.7c0.1-0.5,0.6-0.9,1.2-0.9c0.7,0,1.2,0.5,1.2,1.2C-44.6,2.7-44.7,3-44.8,3.2 M-45.8,0.6
													c-0.6,0-1.2,0.3-1.5,0.8c-0.3-0.5-0.9-0.8-1.5-0.8c-1,0-1.8,0.8-1.8,1.8c0,0.4,0.1,0.8,0.4,1.1l2.6,3.2h0.8l2.6-3.2
													c0.2-0.3,0.4-0.7,0.4-1.1C-44,1.4-44.8,0.6-45.8,0.6"/>
											</g>
										</g>
									</g>
								</g>
								<defs>
									<filter id="Adobe_OpacityMaskFilter_7_" filterUnits="userSpaceOnUse" x="81" y="246.8" width="256.6" height="51.9">
										<feColorMatrix  type="matrix" values="1 0 0 0 0  0 1 0 0 0  0 0 1 0 0  0 0 0 1 0"/>
									</filter>
								</defs>
								<mask maskUnits="userSpaceOnUse" x="81" y="246.8" width="256.6" height="51.9" id="mask-13_8_">
									<g class="st29">
										<rect id="path-12_9_" x="-51" y="0" class="st13" width="439.9" height="254.2"/>
									</g>
								</mask>
								<g id="Group-2-Copy-4" class="st30">
									<g transform="translate(131.963526, 246.849023)">
										<path id="Rectangle_16_" class="st13" d="M-47,0h248.6c2.2,0,4,1.8,4,4v43.9c0,2.2-1.8,4-4,4H-47c-2.2,0-4-1.8-4-4V4
											C-51,1.8-49.2,0-47,0z"/>
										<g id="Group_3_" transform="translate(5.578168, 7.332149)">
											<g id="grey-ad-copy_3_">
												<g id="grey-ad_3_">
													<path id="Rectangle_17_" class="st23" d="M6.1,2.4h66.1c1,0,1.8,0.8,1.8,1.8l0,0c0,1-0.8,1.8-1.8,1.8H6.1
														c-1,0-1.8-0.8-1.8-1.8l0,0C4.3,3.3,5.1,2.4,6.1,2.4z"/>
													<path id="Rectangle_18_" class="st23" d="M146.9,7h45.6c0.9,0,1.6,0.7,1.6,1.6l0,0c0,0.9-0.7,1.6-1.6,1.6h-45.6
														c-0.9,0-1.6-0.7-1.6-1.6l0,0C145.3,7.7,146,7,146.9,7z"/>
													<path id="Rectangle_19_" class="st24" d="M-47,0h41.7c2.2,0,4,1.8,4,4v29.3c0,2.2-1.8,4-4,4H-47c-2.2,0-4-1.8-4-4V4
														C-51,1.8-49.2,0-47,0z"/>
													<path id="Rectangle-Copy_7_" class="st23" d="M6.1,11H24c1,0,1.8,0.8,1.8,1.8l0,0c0,1-0.8,1.8-1.8,1.8H6.1
														c-1,0-1.8-0.8-1.8-1.8l0,0C4.3,11.8,5.1,11,6.1,11z"/>
													<path id="Rectangle-Copy_8_" class="st23" d="M6.1,31.2h31.8c1,0,1.8,0.8,1.8,1.8l0,0c0,1-0.8,1.8-1.8,1.8H6.1
														c-1,0-1.8-0.8-1.8-1.8l0,0C4.3,32,5.1,31.2,6.1,31.2z"/>
												</g>
											</g>
											<g id="element_x2F_icon_x2F_like_x2F_thick-_3_" transform="translate(237.756562, 29.939609)">
												<path id="Fill-1_3_" class="st24" d="M-44.8,3.2l-2.5,3.1l-2.5-3.1C-50,3-50.1,2.7-50.1,2.4c0-0.7,0.5-1.2,1.2-1.2
													c0.6,0,1,0.4,1.2,0.9h0.7c0.1-0.5,0.6-0.9,1.2-0.9c0.7,0,1.2,0.5,1.2,1.2C-44.6,2.7-44.7,3-44.8,3.2 M-45.8,0.6
													c-0.6,0-1.2,0.3-1.5,0.8c-0.3-0.5-0.9-0.8-1.5-0.8c-1,0-1.8,0.8-1.8,1.8c0,0.4,0.1,0.8,0.4,1.1l2.6,3.2h0.8l2.6-3.2
													c0.2-0.3,0.4-0.7,0.4-1.1C-44,1.4-44.8,0.6-45.8,0.6"/>
											</g>
										</g>
									</g>
								</g>
								<defs>
									<filter id="Adobe_OpacityMaskFilter_8_" filterUnits="userSpaceOnUse" x="0.3" y="70.9" width="73.3" height="103">
										<feColorMatrix  type="matrix" values="1 0 0 0 0  0 1 0 0 0  0 0 1 0 0  0 0 0 1 0"/>
									</filter>
								</defs>
								<mask maskUnits="userSpaceOnUse" x="0.3" y="70.9" width="73.3" height="103" id="mask-13_9_">
									<g class="st31">
										<rect id="path-12_10_" x="-51" y="0" class="st13" width="439.9" height="254.2"/>
									</g>
								</mask>
								<g id="Group-2_1_" class="st32">
									<g transform="translate(51.319149, 70.877442)">
										<path id="Rectangle_20_" class="st13" d="M-47,0h65.3c2.2,0,4,1.8,4,4v95c0,2.2-1.8,4-4,4H-47c-2.2,0-4-1.8-4-4V4
											C-51,1.8-49.2,0-47,0z"/>
										<g id="Group_4_" transform="translate(7.331307, 7.332149)">
											<g id="grey-ad-copy_4_">
												<g id="grey-ad_4_">
													<path id="Rectangle_21_" class="st23" d="M-49.2,48.3H2.2c1,0,1.8,0.8,1.8,1.8v0c0,1-0.8,1.8-1.8,1.8h-51.3
														c-1,0-1.8-0.8-1.8-1.8v0C-51,49.1-50.2,48.3-49.2,48.3z"/>
													<path id="Rectangle_22_" class="st23" d="M-49.2,84.6h20.8c1,0,1.8,0.8,1.8,1.8l0,0c0,1-0.8,1.8-1.8,1.8h-20.8
														c-1,0-1.8-0.8-1.8-1.8l0,0C-51,85.4-50.2,84.6-49.2,84.6z"/>
													<path id="Rectangle_23_" class="st24" d="M-47,0H3.7c2.2,0,4,1.8,4,4v29.3c0,2.2-1.8,4-4,4H-47c-2.2,0-4-1.8-4-4V4
														C-51,1.8-49.2,0-47,0z"/>
													<path id="Rectangle-Copy_9_" class="st23" d="M-49.2,56.8h24.6c1,0,1.8,0.8,1.8,1.8v0c0,1-0.8,1.8-1.8,1.8h-24.6
														c-1,0-1.8-0.8-1.8-1.8v0C-51,57.6-50.2,56.8-49.2,56.8z"/>
												</g>
											</g>
											<g id="element_x2F_icon_x2F_like_x2F_thick-_4_" transform="translate(51.319149, 80.959147)">
												<path id="Fill-1_4_" class="st24" d="M-44.8,3.2l-2.5,3.1l-2.5-3.1C-50,3-50.1,2.7-50.1,2.4c0-0.7,0.5-1.2,1.2-1.2
													c0.6,0,1,0.4,1.2,0.9h0.7c0.1-0.5,0.6-0.9,1.2-0.9c0.7,0,1.2,0.5,1.2,1.2C-44.6,2.7-44.7,3-44.8,3.2 M-45.8,0.6
													c-0.6,0-1.2,0.3-1.5,0.8c-0.3-0.5-0.9-0.8-1.5-0.8c-1,0-1.8,0.8-1.8,1.8c0,0.4,0.1,0.8,0.4,1.1l2.6,3.2h0.8l2.6-3.2
													c0.2-0.3,0.4-0.7,0.4-1.1C-44,1.4-44.8,0.6-45.8,0.6"/>
											</g>
										</g>
									</g>
								</g>
								<defs>
									<filter id="Adobe_OpacityMaskFilter_9_" filterUnits="userSpaceOnUse" x="0.3" y="180.6" width="73.3" height="103">
										<feColorMatrix  type="matrix" values="1 0 0 0 0  0 1 0 0 0  0 0 1 0 0  0 0 0 1 0"/>
									</filter>
								</defs>
								<mask maskUnits="userSpaceOnUse" x="0.3" y="180.6" width="73.3" height="103" id="mask-13_10_">
									<g class="st33">
										<rect id="path-12_11_" x="-51" y="0" class="st13" width="439.9" height="254.2"/>
									</g>
								</mask>
								<g id="Group-2-Copy" class="st34">
									<g transform="translate(51.319149, 180.554174)">
										<path id="Rectangle_24_" class="st13" d="M-47,0h65.3c2.2,0,4,1.8,4,4v95c0,2.2-1.8,4-4,4H-47c-2.2,0-4-1.8-4-4V4
											C-51,1.8-49.2,0-47,0z"/>
										<g id="Group_5_" transform="translate(7.331307, 7.332149)">
											<g id="grey-ad-copy_5_">
												<g id="grey-ad_5_">
													<path id="Rectangle_25_" class="st23" d="M-49.2,48.3H2.2c1,0,1.8,0.8,1.8,1.8v0c0,1-0.8,1.8-1.8,1.8h-51.3
														c-1,0-1.8-0.8-1.8-1.8v0C-51,49.1-50.2,48.3-49.2,48.3z"/>
													<path id="Rectangle_26_" class="st23" d="M-49.2,84.6h20.8c1,0,1.8,0.8,1.8,1.8l0,0c0,1-0.8,1.8-1.8,1.8h-20.8
														c-1,0-1.8-0.8-1.8-1.8l0,0C-51,85.4-50.2,84.6-49.2,84.6z"/>
													<path id="Rectangle_27_" class="st24" d="M-47,0H3.7c2.2,0,4,1.8,4,4v29.3c0,2.2-1.8,4-4,4H-47c-2.2,0-4-1.8-4-4V4
														C-51,1.8-49.2,0-47,0z"/>
													<path id="Rectangle-Copy_10_" class="st23" d="M-49.2,56.8h24.6c1,0,1.8,0.8,1.8,1.8v0c0,1-0.8,1.8-1.8,1.8h-24.6
														c-1,0-1.8-0.8-1.8-1.8v0C-51,57.6-50.2,56.8-49.2,56.8z"/>
												</g>
											</g>
											<g id="element_x2F_icon_x2F_like_x2F_thick-_5_" transform="translate(51.319149, 80.959147)">
												<path id="Fill-1_5_" class="st24" d="M-44.8,3.2l-2.5,3.1l-2.5-3.1C-50,3-50.1,2.7-50.1,2.4c0-0.7,0.5-1.2,1.2-1.2
													c0.6,0,1,0.4,1.2,0.9h0.7c0.1-0.5,0.6-0.9,1.2-0.9c0.7,0,1.2,0.5,1.2,1.2C-44.6,2.7-44.7,3-44.8,3.2 M-45.8,0.6
													c-0.6,0-1.2,0.3-1.5,0.8c-0.3-0.5-0.9-0.8-1.5-0.8c-1,0-1.8,0.8-1.8,1.8c0,0.4,0.1,0.8,0.4,1.1l2.6,3.2h0.8l2.6-3.2
													c0.2-0.3,0.4-0.7,0.4-1.1C-44,1.4-44.8,0.6-45.8,0.6"/>
											</g>
										</g>
									</g>
								</g>
							</g>
							<g id="Group-2_2_" transform="translate(51.319149, 35.133215)" class="st35">
							</g>
							<g id="Group-3">
								<rect id="Rectangle_28_" x="-51" y="0" class="st36" width="439.9" height="22"/>
								<g id="element_x2F_olx-logo_x2F_teal" transform="translate(9.775076, 4.888099)">
									<g id="OLX-Logo-Teal" transform="translate(0.001381, 0.000000)">
										<path id="Logo" class="st37" d="M-36.7,12.5h-3V0h3V12.5z M-40.7,6.3c0,2.9-2.3,5.2-5.2,5.2S-51,9.1-51,6.3
											s2.3-5.2,5.2-5.2S-40.7,3.4-40.7,6.3z M-44.3,6.3c0-0.9-0.7-1.6-1.6-1.6s-1.6,0.7-1.6,1.6s0.7,1.6,1.6,1.6
											S-44.3,7.1-44.3,6.3z M-29.1,3.1h-2l-1.2,1.2l-1.2-1.2h-2v2l1.1,1.1l-1.1,1.1v2h2l1.1-1.1l1.1,1.1h2v-2l-1.1-1.1l1.1-1.1
											L-29.1,3.1L-29.1,3.1z"/>
									</g>
								</g>
							</g>
						</g>
					</g>
				</g>
			</g>
		</g>
	</g>
</g>
</svg>
