<svg xmlns="http://www.w3.org/2000/svg" width="48" height="48" viewBox="0 0 48 48">
    <g fill="none" fill-rule="evenodd">
        <path fill="#FFD6C9" d="M44.481 34.501L26.026 2.787a.096.096 0 0 0-.083-.048h-4.04a.096.096 0 0 0-.083.048L3.365 34.5a.796.796 0 0 0-.108.4v5.398c0 .053.043.096.096.096H44.59V34.9a.796.796 0 0 0-.108-.4"/>
        <path fill="#FF4134" d="M6 37.689v-2.186c0-.016.005-.033.013-.048L23.425 5.533a.096.096 0 0 1 .083-.047h.96c.033 0 .065.018.082.047l17.412 29.922a.096.096 0 0 1 .013.048v2.186a.096.096 0 0 1-.096.095H6.096A.096.096 0 0 1 6 37.69"/>
        <path fill="#002F34" d="M28.114 19.543a3.771 3.771 0 1 0 0 7.543 3.771 3.771 0 0 0 0-7.543m-.085 2.743c.614 0 1.114.5 1.114 1.114 0 .614-.5 1.114-1.114 1.114-.615 0-1.115-.5-1.115-1.114 0-.614.5-1.114 1.115-1.114M21.698 22.154l-2.703 2.703h-1.068V23.79l2.703-2.703h1.068z"/>
        <path fill="#002F34" d="M17.927 22.154l2.703 2.703h1.068V23.79l-2.703-2.703h-1.068zM23.057 29.314a2.143 2.143 0 1 0 0 4.286 2.143 2.143 0 0 0 0-4.286m0 1.372a.772.772 0 1 1-.002 1.544.772.772 0 0 1 .002-1.544"/>
        <path fill="#AA133D" d="M10.686 40.395v4.875H9.06v-4.875h1.626zm28.065 0v4.875h-1.626v-4.875h1.626z"/>
    </g>
</svg>
