<svg xmlns="http://www.w3.org/2000/svg" width="53" height="53" viewBox="0 0 53 53">
    <g fill="none" fill-rule="evenodd">
        <path fill="#F0F0D9" d="M28.583 3.917c13.364 0 24.19 10.933 24.19 24.427 0 13.495-10.826 24.428-24.19 24.428-13.365 0-24.192-10.933-24.192-24.428 0-13.494 10.827-24.427 24.192-24.427z"/>
        <g stroke="#B6B834" stroke-width="2" transform="translate(1 1)">
            <ellipse cx="23.362" cy="23.793" rx="23.362" ry="23.59"/>
            <path d="M17.786 37.262V33.89s1.858-.634 3.34-1.116V22.677l-3.34-1.116v-3.374h8.892v14.611c1.482.507 3.341 1.116 3.341 1.116v3.374H17.786v-.026z"/>
            <ellipse cx="23.362" cy="11.44" rx="3.341" ry="3.374"/>
        </g>
    </g>
</svg>
