<svg xmlns="http://www.w3.org/2000/svg" width="160" height="160" viewBox="0 0 160 160">
    <defs>
        <path id="a" d="M47.516 0h48.367v37.587H47.516z"/>
    </defs>
    <g fill="none" fill-rule="evenodd">
        <path fill="#002F34" d="M94.69 107.335l-15.887-7.346 2.386-5.163 15.888 7.346zM38.719 73.423c-13.67-6.321-29.874-.363-36.195 13.306-6.32 13.67-.362 29.874 13.307 36.195 13.67 6.32 29.874.363 36.194-13.307 6.32-13.669.363-29.874-13.306-36.194m-7.066 15.28c5.222 2.414 7.507 8.627 5.092 13.85-2.414 5.221-8.627 7.505-13.849 5.09-5.222-2.414-7.506-8.627-5.091-13.849 2.414-5.222 8.626-7.506 13.848-5.091"/>
        <path fill="#002F34" d="M112.76 107.657c-13.67-6.32-29.874-.363-36.194 13.307-6.321 13.669-.363 29.873 13.306 36.194 13.67 6.32 29.874.363 36.194-13.306 6.32-13.67.363-29.874-13.306-36.195m-7.066 15.28c5.222 2.414 7.507 8.627 5.092 13.85-2.414 5.222-8.627 7.506-13.849 5.091-5.222-2.414-7.506-8.627-5.091-13.85 2.414-5.221 8.627-7.505 13.848-5.091"/>
        <path fill="#2A65EA" d="M70.965 114.523l26.616 12.306-2.65-29.203-23.966 16.897zm-9.829-49.185l1.064 8.055 33.59 15.53.011-.008 5.203 2.405 3.685 40.619-4.684 3.303-32.341-14.953-5.844.771-5.228-39.578-27.335 19.228-3.808-5.413 30.165-21.22-1.04-7.873 6.562-.866zm2.089 15.82l3.712 28.106 22.606-15.937-26.318-12.17z"/>
        <path fill="#23E5DB" d="M57.753 115.012l14.8 6.843-3.175 6.866-14.8-6.843 3.175-6.866z"/>
        <path fill="#002F34" d="M52.123 63.933A5.585 5.585 0 1 1 63.12 61.98a5.585 5.585 0 0 1-10.997 1.953M108.39 92.782l-18.489-8.548 2.779-6.008 18.488 8.549z"/>
        <path fill="#FF4134" d="M51.119 122.268a18.983 18.983 0 0 0-3.3-.294c-10.425 0-18.877 8.452-18.877 18.877 0 10.426 8.452 18.877 18.877 18.877 1.127 0 2.228-.104 3.3-.294-4.584-4.847-7.4-11.384-7.4-18.583 0-7.199 2.816-13.735 7.4-18.583"/>
        <path fill="#FFD6C9" d="M66.696 140.85c0-9.298-6.726-17.02-15.577-18.582-4.584 4.847-7.4 11.384-7.4 18.583 0 7.199 2.816 13.736 7.4 18.583 8.85-1.561 15.577-9.284 15.577-18.583"/>
        <path fill="#23E5DB" d="M137.59 23.01L95.166 39.96l-4.283 9.983 34.151 53.92 11.124-4.445 12.695-5.072 11.124-4.444-12.404-62.608z"/>
        <path fill="#CBF7EE" d="M90.883 49.943l34.152 53.92-.75-75.537L95.166 39.96z"/>
        <path fill="#002F34" d="M48.245 13.05L82.832 1.544l11.506 34.587z"/>
        <path fill="#002F34" d="M82.318 0l2.059 1.03 11.506 34.587-2.274 1.97-46.093-23.08.215-3.001L82.318 0z"/>
        <path fill="#F8DD3E" d="M79.717 65.33L33.624 42.249l13.973-27.904 46.094 23.08z"/>
        <path fill="#002F34" d="M60.816 36.25a5.494 5.494 0 1 1-9.825-4.92 5.495 5.495 0 0 1 9.825 4.92M77.232 44.47a5.495 5.495 0 1 1-9.826-4.922 5.495 5.495 0 0 1 9.826 4.922"/>
        <path fill="#002F34" d="M52.963 51.933l-9.825-4.92L50.99 31.33l9.825 4.92z"/>
    </g>
</svg>
