<svg xmlns="http://www.w3.org/2000/svg" xmlns:xlink="http://www.w3.org/1999/xlink" width="248" height="264" viewBox="0 0 248 264">
    <defs>
        <path id="prefix__a" d="M0.573 0.76L87.876 0.76 87.876 112.833 0.573 112.833z"/>
        <path id="prefix__c" d="M0 0.76L87.303 0.76 87.303 112.833 0 112.833z"/>
        <path id="prefix__e" d="M0.613 0.901L123.115 0.901 123.115 225.978 0.613 225.978z"/>
        <path id="prefix__g" d="M0 263.292L246.845 263.292 246.845 0.901 0 0.901z"/>
        <path id="prefix__i" d="M0 263.292L246.845 263.292 246.845 0.901 0 0.901z"/>
        <path id="prefix__k" d="M0 263.292L246.845 263.292 246.845 0.901 0 0.901z"/>
        <path id="prefix__m" d="M0 263.292L246.845 263.292 246.845 0.901 0 0.901z"/>
        <path id="prefix__o" d="M0 263.292L246.845 263.292 246.845 0.901 0 0.901z"/>
        <path id="prefix__q" d="M0 263.292L246.845 263.292 246.845 0.901 0 0.901z"/>
        <path id="prefix__s" d="M0 263.292L246.845 263.292 246.845 0.901 0 0.901z"/>
        <path id="prefix__u" d="M18.085.282a19.785 19.785 0 00-5.28 1.22C4.919 4.502.069 12.01.07 19.977c0 2.333.417 4.707 1.296 7.018 3.88 10.199 15.294 15.32 25.493 11.44 7.889-3 12.74-10.508 12.738-18.475a19.721 19.721 0 00-1.297-7.018 19.858 19.858 0 00-1.874-3.708l-.005-.007C32.76 3.56 26.453.206 19.829.206c-.582-.001-1.164.024-1.744.076"/>
    </defs>
    <g fill="none" fill-rule="evenodd">
        <g transform="translate(.314 -.143) translate(0 .092)">
            <g transform="translate(158.969 128.169)">
                <mask id="prefix__b" fill="#fff">
                    <use xlink:href="#prefix__a"/>
                </mask>
                <path fill="#FFD6C9" d="M25.773.76l54.391 59.358a29.35 29.35 0 017.435 23.855l-4 28.86H.574V4.567L25.773.76z" mask="url(#prefix__b)"/>
            </g>
            <g transform="translate(0 128.169)">
                <mask id="prefix__d" fill="#fff">
                    <use xlink:href="#prefix__c"/>
                </mask>
                <path fill="#FFD6C9" d="M62.104.76L7.712 60.118A29.352 29.352 0 00.278 83.973l3.998 28.86h83.027V4.567L62.104.76z" mask="url(#prefix__d)"/>
            </g>
            <g transform="translate(61.6)">
                <mask id="prefix__f" fill="#fff">
                    <use xlink:href="#prefix__e"/>
                </mask>
                <path fill="#C7DCFF" d="M107.701 225.978L16.026 225.978 0.613 210.564 0.613 16.316 16.027 0.901 107.701 0.901 123.116 16.316 123.116 210.564z" mask="url(#prefix__f)"/>
            </g>
            <path fill="#002F34" d="M169.262 225.763L77.676 225.763 62.276 210.362 62.276 16.301 77.676 0.901 169.262 0.901 184.66 16.301 184.66 210.362z"/>
            <path fill="#002F34" d="M77.676 225.883L169.262 225.883 184.66 210.483 184.66 191.13 62.276 191.13 62.276 210.485z"/>
            <path fill="#C7DCFF" d="M132.734 208.507c0 5.546-4.495 10.04-10.04 10.04-5.546 0-10.04-4.494-10.04-10.04 0-5.546 4.493-10.04 10.04-10.04 5.544 0 10.04 4.494 10.04 10.04"/>
            <mask id="prefix__h" fill="#fff">
                <use xlink:href="#prefix__g"/>
            </mask>
            <path fill="#C7DCFF" d="M112.608 17.541L137.339 17.541 137.339 8.524 112.608 8.524z" mask="url(#prefix__h)"/>
            <mask id="prefix__j" fill="#fff">
                <use xlink:href="#prefix__i"/>
            </mask>
            <path fill="#FFD6C9" d="M70.277 179.376c0 12.532 10.158 22.69 22.689 22.69 12.53 0 22.689-10.158 22.689-22.689 0-12.53-10.158-22.688-22.689-22.688-12.53 0-22.689 10.158-22.689 22.688" mask="url(#prefix__j)"/>
            <mask id="prefix__l" fill="#fff">
                <use xlink:href="#prefix__k"/>
            </mask>
            <path fill="#FFD6C9" d="M53.663 212.18c0 12.531 10.158 22.69 22.689 22.69s22.69-10.159 22.69-22.69c0-12.53-10.159-22.688-22.69-22.688-12.53 0-22.688 10.158-22.688 22.689" mask="url(#prefix__l)"/>
            <g>
                <mask id="prefix__n" fill="#fff">
                    <use xlink:href="#prefix__m"/>
                </mask>
                <path fill="#FFD6C9" fill-rule="nonzero" d="M114.218 186.211l-16.937 34.743-41.926-17.372 17.128-33.972 41.735 16.601zM4.275 241.001l2.465 22.291h70.344l20.198-42.338-39.552 5.224-53.455 14.824zm172.294-61.625c0 12.532-10.16 22.69-22.69 22.69-12.53 0-22.689-10.158-22.689-22.689 0-12.53 10.16-22.688 22.689-22.688 12.53 0 22.69 10.158 22.69 22.688z" mask="url(#prefix__n)"/>
            </g>
            <g>
                <mask id="prefix__p" fill="#fff">
                    <use xlink:href="#prefix__o"/>
                </mask>
                <path fill="#FFD6C9" d="M193.18 212.18c0 12.531-10.157 22.69-22.688 22.69-12.529 0-22.689-10.159-22.689-22.69 0-12.53 10.16-22.688 22.69-22.688 12.53 0 22.688 10.158 22.688 22.689" mask="url(#prefix__p)"/>
            </g>
            <g>
                <mask id="prefix__r" fill="#fff">
                    <use xlink:href="#prefix__q"/>
                </mask>
                <path fill="#FFD6C9" fill-rule="nonzero" d="M132.627 186.211l16.937 34.743 41.928-17.372-17.129-33.972-41.736 16.601zm109.942 54.79l-2.463 22.291h-70.343l-20.2-42.338 39.552 5.224 53.454 14.824z" mask="url(#prefix__r)"/>
            </g>
            <g>
                <mask id="prefix__t" fill="#fff">
                    <use xlink:href="#prefix__s"/>
                </mask>
                <path fill="#C7DCFF" d="M160.984 92.627c0 20.339-16.49 36.827-36.827 36.827-20.34 0-36.828-16.488-36.828-36.827 0-20.338 16.488-36.827 36.828-36.827 20.338 0 36.827 16.488 36.827 36.827" mask="url(#prefix__t)"/>
            </g>
            <g fill="#002F34">
                <path d="M.713 28.078c7.023 7.025 16.726 11.368 27.444 11.368 10.717 0 20.42-4.344 27.442-11.367L28.157.634.713 28.078z" transform="translate(96 91)"/>
            </g>
            <g fill="#FFF">
                <path d="M39.722 19.627c0 10.805-8.76 19.565-19.565 19.565C9.35 39.192.59 30.432.59 19.627.59 8.82 9.35.062 20.157.062S39.722 8.82 39.722 19.627" transform="translate(104 73)"/>
            </g>
        </g>
        <g transform="translate(.314 -.143) translate(104.323 72.75)">
            <mask id="prefix__v" fill="#fff">
                <use xlink:href="#prefix__u"/>
            </mask>
            <path fill="#3A77FF" d="M1.366 26.995c3.88 10.199 15.295 15.32 25.493 11.44 10.2-3.88 15.32-15.293 11.442-25.493C34.42 2.743 23.006-2.378 12.806 1.502 2.609 5.381-2.514 16.794 1.367 26.994" mask="url(#prefix__v)"/>
        </g>
        <g fill="#002F34">
            <path fill-rule="nonzero" d="M32.814 37.86a3.631 3.631 0 110-7.263 3.631 3.631 0 010 7.262m-12.054 0a3.631 3.631 0 110-7.262 3.631 3.631 0 01.001 7.262" transform="translate(.314 -.143) translate(97.368 59.742)"/>
            <path d="M42.021 12.51c-.801 0-1.576.103-2.324.279a9.91 9.91 0 00.293-2.357c0-5.5-4.458-9.958-9.959-9.958-4.214 0-7.81 2.62-9.263 6.319A12.685 12.685 0 0013.13 4.25C6.09 4.25.385 9.956.385 16.996a12.688 12.688 0 003.103 8.33 7.758 7.758 0 1011.778 4.233 12.752 12.752 0 0010.385-10.194 9.909 9.909 0 004.38 1.026c.745 0 1.469-.089 2.168-.244a10.123 10.123 0 00-.328 2.514c0 5.604 4.545 10.148 10.15 10.148 5.606 0 10.15-4.544 10.15-10.149 0-5.606-4.544-10.15-10.15-10.15" transform="translate(.314 -.143) translate(97.368 59.742)"/>
        </g>
    </g>
</svg>
