<svg height="16" viewBox="0 0 14 16" width="14" xmlns="http://www.w3.org/2000/svg" xmlns:xlink="http://www.w3.org/1999/xlink"><defs><path id="a" d="m12.722868 8.84413161c.6742832.03125064 1.2462996-.50828647 1.275826-1.20520238.0295264-.6969159-.4445902-1.32345164-1.1193949-1.35357673l-4.4797959-.57138364s.93356782-1.58623515.93356782-3.93645592c0-1.56670349-1.10186162-1.77751294-1.74987749-1.77751294-.50976987-.00019863-.64703817 1.00313251-.64703817 1.00313251h-.00104288c-.11543312.64335283-.26573734 1.20520238-.78802171 2.23965174-.58466126 1.15945196-1.38089561 1.05067058-2.31048747 2.08339851-.16405713.18187612-.38449463.48206771-.59932669.8514477-.01753332.01953166-.0338934.04687597-.04973205.0853434-.01916281.04581663-.04210604.07759694-.06231173.1199707-.03558807.06640763-.07058954.13281525-.10500438.20253332-.57534058.58442682-1.47169083.52470631-1.85338274.52470631-.76559992 0-1.16658499.4518764-1.16658499 1.18500862l-.00026072 5.41774979c0 .8225144.33130805 1.0999301 1.16691089 1.0999301h1.16658499c.58733364 0 1.0472411.3420357 1.74994267.5925043.96250758.3387252 2.39997911.5929678 4.8761532.5929678.43305345 0 1.77621005.0016552 1.77621005.0016552.4112183 0 .7415486-.1908143.9799105-.4212216.0907301-.0875945.1853709-.2148482.2258475-.463132.0065831-.0384674.0136225-.1997525.0125796-.2215353.0310907-.7102901-.3915992-.9674458-.6310691-1.0484194.0065179-.0022511.0022161-.0083424.015252-.0078127l.76019.0345611c.6748047.0312506 1.3408753-.4625361 1.3408753-1.3022648 0-.69632-.5556563-1.1873921-1.2282449-1.2208277l.4030708.019002c.6747395.0301251 1.2451265-.509412 1.2763475-1.2063279.029396-.6968497-.4934098-1.28657324-1.167693-1.31789009z"/></defs><g fill="none" transform="matrix(-1 0 0 -1 14 16)"><use fill="#000" xlink:href="#a"/><use fill="#fff" xlink:href="#a"/></g></svg>