<svg xmlns="http://www.w3.org/2000/svg" width="64" height="64" viewBox="0 0 64 64">
    <g fill="none" fill-rule="evenodd">
        <path fill="#FFAA9A" d="M2.844 32.084c0 16.133 13.034 29.211 29.112 29.211 16.044 0 29.057-13.024 29.11-29.11v-.202C61.014 15.896 48 2.872 31.957 2.872c-16.078 0-29.112 13.078-29.112 29.212"/>
        <path fill="#002F34" d="M31.956 40.409c8.887 0 16.561 5.21 20.155 12.752-5.23 5.038-12.332 8.134-20.155 8.134l-.482-.004c-7.632-.124-14.55-3.196-19.674-8.13C15.394 45.62 23.07 40.41 31.956 40.41z"/>
        <path fill="#FFD6C9" d="M48.928 28.982c0 9.496-7.599 17.193-16.972 17.193-9.374 0-16.973-7.697-16.973-17.193 0-9.495 7.599-17.193 16.973-17.193 9.373 0 16.972 7.698 16.972 17.193"/>
        <path fill="#002F34" d="M31.956 11.789l.322.003c7.53.142 13.862 5.253 15.933 12.231a11.013 11.013 0 0 1-5.636 1.543c-4.933 0-9.12-3.233-10.608-7.722-2.464 6.134-9.09 9.626-15.594 7.921-.35-.092-.695-.197-1.031-.316 1.608-7.801 8.436-13.66 16.614-13.66zM26.507 30.64a1.91 1.91 0 0 1-1.908 1.914 1.91 1.91 0 0 1-1.907-1.914 1.91 1.91 0 0 1 1.907-1.914c1.054 0 1.908.857 1.908 1.914"/>
        <path fill="#002F34" d="M38.726 9.665c0 3.752-3.031 6.794-6.77 6.794-3.74 0-6.77-3.042-6.77-6.794s3.03-6.793 6.77-6.793c3.739 0 6.77 3.041 6.77 6.793"/>
        <path fill="#FF5636" d="M48.728 55.397l1.232-2.922.27-.64-4.347-10.775-5.049 2.05 4.347 10.776 1.48.63z"/>
        <path fill="#FFD5CD" d="M49.559 47.8a6.047 6.047 0 0 1 5.018 2.671 29.246 29.246 0 0 1-9.376 7.632A6.065 6.065 0 0 1 43.5 53.88c0-3.358 2.713-6.08 6.06-6.08z"/>
        <path fill="#FF5636" d="M51.05 27.816c2.537 6.217-.488 13.298-6.756 15.815-6.268 2.516-13.406-.484-15.943-6.702-2.537-6.217.488-13.298 6.756-15.815 6.268-2.516 13.406.484 15.943 6.702"/>
        <path fill="#FFD5CD" d="M45.858 25.189a9.377 9.377 0 0 1 1.084 13.292c-3.4 3.967-9.4 4.449-13.4 1.075a9.377 9.377 0 0 1-1.084-13.291c3.401-3.968 9.4-4.45 13.4-1.076"/>
        <path fill="#002F34" d="M42.008 27.537c-1.116 0-2.1.562-2.676 1.413a3.227 3.227 0 0 0-2.676-1.413c-1.771 0-3.212 1.415-3.212 3.155 0 .686.224 1.34.66 1.91l4.537 5.45h1.382l4.55-5.467a3.087 3.087 0 0 0 .647-1.893c0-1.74-1.441-3.155-3.212-3.155"/>
    </g>
</svg>
