<svg xmlns="http://www.w3.org/2000/svg" width="32" height="32" viewBox="0 0 32 32">
    <g fill="none" fill-rule="evenodd">
        <circle cx="16" cy="16" r="16" fill="#FFF"/>
        <path fill="#002F34" d="M23.75 20h-.257c-.422-.885-1.324-1.5-2.368-1.5-1.044 0-1.944.614-2.367 1.498L15.243 20c-.422-.885-1.324-1.5-2.368-1.5-1.045 0-1.946.615-2.368 1.5h-.257v-8.25h8.25v4.5l.75.75h4.5v2.999zm-2.625 2.25c-.62 0-1.125-.505-1.125-1.125S20.505 20 21.125 20s1.125.505 1.125 1.125-.505 1.125-1.125 1.125zm-8.25 0c-.62 0-1.125-.505-1.125-1.125S12.255 20 12.875 20 14 20.505 14 21.125s-.505 1.125-1.125 1.125zm9-9l1.688 2.25H20v-2.25h1.875zm.75-1.5H20V11l-.75-.75H9.5l-.75.75v9.752l.75.75.78-.001c.183 1.27 1.275 2.249 2.595 2.249 1.32 0 2.412-.98 2.595-2.25l3.06-.002c.181 1.27 1.275 2.252 2.595 2.252 1.32 0 2.412-.98 2.595-2.25l.78-.001.75-.75V15.25l-2.625-3.5z"/>
    </g>
</svg>
