<svg xmlns="http://www.w3.org/2000/svg" width="97" height="96" viewBox="0 0 97 96">
    <g fill="none" fill-rule="nonzero">
        <path fill="#23E5DB" d="M59.984 5.143L48.5 11.026 37.016 5.143l-7.003 10.836-12.887.647-.647 12.887-10.836 7.003L11.526 48 5.643 59.484l10.836 7.003.647 12.887 12.886.647 7.005 10.836L48.5 84.974l11.484 5.883 7.003-10.836 12.887-.647.646-12.887 10.837-7.003L85.474 48l5.883-11.483-10.837-7.004-.646-12.887-12.887-.647z"/>
        <path fill="#CBF7EE" d="M48.5 19.436l8.871-4.544 5.41 8.372 9.955.5.5 9.954 8.372 5.41L77.063 48l4.545 8.871-8.372 5.41-.5 9.955-9.955.5-5.41 8.372-8.871-4.545-8.871 4.545-5.41-8.372-9.956-.5-.5-9.955-8.372-5.41L19.937 48l-4.544-8.871 8.371-5.411.5-9.955 9.955-.5 5.41-8.372z"/>
        <path fill="#002F34" d="M47.465 65.252c-5.024 0-9.884-2.38-14.454-7.078l2.458-2.39c3.899 4.008 7.936 6.04 12.002 6.04l.224-.003c6.046-.11 10.284-4.723 10.326-4.77l2.553 2.288c-.21.235-5.223 5.75-12.773 5.91l-.335.003m8.302-32.79a8.572 8.572 0 1 0 0 17.144 8.572 8.572 0 0 0 0-17.144m0 6a2.574 2.574 0 0 1 2.571 2.572 2.574 2.574 0 0 1-2.571 2.571 2.574 2.574 0 0 1-2.572-2.571 2.574 2.574 0 0 1 2.572-2.572M32.66 42.748h10.215v-3.429H32.66v3.429z"/>
    </g>
</svg>
