<svg id="tlo_Image" data-name="tlo Image" xmlns="http://www.w3.org/2000/svg" xmlns:xlink="http://www.w3.org/1999/xlink" viewBox="0 0 1823 260.88"><defs><style>.cls-1,.cls-21{fill:#faba20;}.cls-2{fill:#bfbe00;}.cls-3{fill:#fff;}.cls-4{fill:#84c8e8;}.cls-5{fill:#ff8300;}.cls-6{fill:#0098d0;}.cls-7{fill:#007686;}.cls-8{fill:#19407e;}.cls-9{fill:#e42313;}.cls-10{fill:#5b2b82;}.cls-11{fill:#e8426d;}.cls-12{fill:#579434;}.cls-13{fill:#782887;}.cls-14{fill:#00aba8;}.cls-15{fill:#ab1255;}.cls-16{fill:#a12617;}.cls-17{fill:#a5cfc9;}.cls-18{fill:#c25519;}.cls-19{fill:#f5ae94;}.cls-20{clip-path:url(#clip-path);}.cls-21{opacity:0.1;}.cls-22{clip-path:url(#clip-path-2);}.cls-23{clip-path:url(#clip-path-3);}.cls-24{clip-path:url(#clip-path-4);}.cls-25{clip-path:url(#clip-path-5);}</style><clipPath id="clip-path"><circle class="cls-1" cx="1422.62" cy="245.83" r="19.03"/></clipPath><clipPath id="clip-path-2"><circle class="cls-1" cx="1112.31" cy="180.52" r="19.03"/></clipPath><clipPath id="clip-path-3"><circle class="cls-1" cx="943.78" cy="79.34" r="19.03"/></clipPath><clipPath id="clip-path-4"><circle class="cls-1" cx="399.83" cy="162.63" r="20.27"/></clipPath><clipPath id="clip-path-5"><circle class="cls-1" cx="1696.46" cy="134.23" r="10.13"/></clipPath></defs><title>tlo</title><circle class="cls-2" cx="1677.18" cy="217.03" r="10.2"/><path class="cls-3" d="M1680.44,216.34l-1-2.34h0.74a0.38,0.38,0,1,0,0-.75h-1.35a0.37,0.37,0,0,0-.32.48l0.59,1.42h-3.58l-0.41-1a1.24,1.24,0,0,0,1.06-.18c0.07-.34.06-0.34-1.09-0.42s-1-.5-1.52-0.25,0.17,1.05.73,0.9h0l0.44,1-0.63,1.16a2.27,2.27,0,1,0,1.5,2.52h0.7a0.75,0.75,0,0,0,1.38-.56l1.92-2,0.11,0.27A2.27,2.27,0,1,0,1680.44,216.34Zm-7,3.71a1.51,1.51,0,1,1,.36-3l-0.7,1.3a0.37,0.37,0,0,0,.34.54h1.45A1.51,1.51,0,0,1,1673.4,220Zm0.63-1.89,0.39-.72a1.5,1.5,0,0,1,.43.72H1674Zm1.6,0a2.26,2.26,0,0,0-.84-1.41l0.34-.63,0.87,2h-0.38Zm1.56-.35a0.72,0.72,0,0,0-.5,0l-0.84-1.94H1679ZM1681,220a1.5,1.5,0,0,1-.91-2.7l0.38,0.91a0.6,0.6,0,1,0,.7-0.29l-0.39-.92a1.49,1.49,0,0,1,1.72,1.49A1.51,1.51,0,0,1,1681,220Z"/><circle class="cls-4" cx="1322.5" cy="18.23" r="19.02"/><path class="cls-3" d="M1316.55,16a2.1,2.1,0,0,0-2.91-.6,2.49,2.49,0,0,0-.36,3.67c0.93,1.06,2.35,2.2,3.55,1.24S1317.48,17.06,1316.55,16Z"/><path class="cls-3" d="M1327.79,23.33c-1.51-5.64-5.29-5.45-5.29-5.45-3.38,0-5.43,5.52-5.46,5.62a3.09,3.09,0,0,0,0,2.07c0.85,1.7,3.78,1.37,5.52,1.44a35.25,35.25,0,0,0,3.95-.14,1.81,1.81,0,0,0,1.59-2.13C1328,24.32,1327.79,23.32,1327.79,23.33Z"/><path class="cls-3" d="M1320.67,16.4c1.32-.46,1.29-3.1.84-4.74a2.64,2.64,0,0,0-3-2.18c-1.58.39-2,1.8-1.5,3.42S1319.18,16.92,1320.67,16.4Z"/><path class="cls-3" d="M1331.36,15.4a2.1,2.1,0,0,0-2.91.6c-0.93,1.06-1.59,3.28-.29,4.32s2.63-.18,3.56-1.24A2.49,2.49,0,0,0,1331.36,15.4Z"/><path class="cls-3" d="M1324.33,16.4c1.49,0.52,3.17-1.86,3.63-3.49s0.08-3-1.5-3.42a2.64,2.64,0,0,0-3,2.18C1323,13.29,1323,15.93,1324.33,16.4Z"/><circle class="cls-4" cx="715.83" cy="23" r="21.36"/><path class="cls-3" d="M709.15,20.5a2.35,2.35,0,0,0-3.27-.67c-1.38.78-1.45,2.93-.4,4.12s2.64,2.47,4,1.39S710.19,21.69,709.15,20.5Z"/><path class="cls-3" d="M721.76,28.73c-1.7-6.33-5.94-6.11-5.94-6.11-3.8,0-6.09,6.2-6.13,6.31a3.46,3.46,0,0,0,0,2.32c1,1.91,4.25,1.54,6.2,1.61a39.57,39.57,0,0,0,4.43-.16,2,2,0,0,0,1.79-2.39C722,29.84,721.76,28.73,721.76,28.73Z"/><path class="cls-3" d="M713.77,21c1.48-.52,1.45-3.49.94-5.32s-2-2.77-3.34-2.44c-1.77.43-2.19,2-1.68,3.84S712.09,21.54,713.77,21Z"/><path class="cls-3" d="M725.77,19.83a2.35,2.35,0,0,0-3.27.67c-1,1.19-1.79,3.68-.32,4.85s2.95-.2,4-1.39S727.15,20.61,725.77,19.83Z"/><path class="cls-3" d="M717.88,21c1.68,0.59,3.56-2.08,4.07-3.92s0.09-3.41-1.68-3.84c-1.31-.32-2.82.61-3.33,2.44S716.4,20.43,717.88,21Z"/><circle class="cls-4" cx="226.79" cy="97.82" r="14.95"/><path class="cls-3" d="M222.11,96.06a1.65,1.65,0,0,0-2.29-.47,2,2,0,0,0-.28,2.89c0.73,0.84,1.84,1.73,2.79,1S222.84,96.9,222.11,96.06Z"/><path class="cls-3" d="M230.94,101.82c-1.19-4.43-4.15-4.28-4.15-4.28-2.66,0-4.26,4.34-4.29,4.42a2.42,2.42,0,0,0,0,1.63c0.67,1.34,3,1.08,4.34,1.13a27.69,27.69,0,0,0,3.1-.11,1.42,1.42,0,0,0,1.25-1.67C231.13,102.6,230.94,101.82,230.94,101.82Z"/><path class="cls-3" d="M225.35,96.38c1-.37,1-2.44.66-3.72a2.08,2.08,0,0,0-2.33-1.71c-1.24.3-1.53,1.41-1.18,2.69S224.18,96.79,225.35,96.38Z"/><path class="cls-3" d="M233.75,95.59a1.65,1.65,0,0,0-2.29.47c-0.73.83-1.25,2.57-.23,3.39s2.06-.14,2.79-1A2,2,0,0,0,233.75,95.59Z"/><path class="cls-3" d="M228.22,96.38c1.17,0.41,2.49-1.46,2.85-2.74s0.06-2.39-1.18-2.69a2.08,2.08,0,0,0-2.33,1.71C227.21,93.94,227.19,96,228.22,96.38Z"/><circle class="cls-5" cx="843.07" cy="-2.83" r="26.93"/><path class="cls-3" d="M856.51-7.32h-1.09a1.06,1.06,0,0,0-.88.39l-1.73-3.14h0c-1-1.74-1.86-3.24-4.62-3.24H838.09c-1.52.14-2.78-.17-4.63,3.24h0l-1.75,3.16a1.48,1.48,0,0,0-1-.41H829.6a1.49,1.49,0,0,0-1.49,1.49,1.49,1.49,0,0,0,1.49,1.49h0.5v8a1,1,0,0,0,1,1h0V6.4a1.25,1.25,0,0,0,1.25,1.25h2.49a1.25,1.25,0,0,0,1.25-1.25V4.66h14V6.4a1.25,1.25,0,0,0,1.25,1.25h2.49A1.25,1.25,0,0,0,855,6.4V4.65a1,1,0,0,0,1-1v-8l0.47,0h0A1.5,1.5,0,0,0,858-5.79,1.56,1.56,0,0,0,856.51-7.32ZM835.22-9.15c0.77-1.44,1.21-2.16,2.87-2.16h10.09c1.66,0,2.09.72,2.87,2.16l2.1,3.82h-20Zm1.48,11.79H834a2,2,0,0,1,.11-4,11.9,11.9,0,0,1,2.87,1h0A1.49,1.49,0,0,1,836.69,2.65Zm9.37,0h-6a1,1,0,1,1,0-2h6A1,1,0,0,1,846.06,2.66Zm6.1,0h-2.71a1.49,1.49,0,0,1-.28-2.92h0a11.58,11.58,0,0,1,2.88-1A2,2,0,0,1,852.16,2.65Z"/><circle class="cls-5" cx="613.16" cy="63.03" r="21.01"/><path class="cls-3" d="M623.63,59.53h-0.85a0.83,0.83,0,0,0-.69.3l-1.35-2.45h0c-0.76-1.36-1.45-2.53-3.6-2.53h-7.86c-1.19.11-2.17-.13-3.61,2.53h0l-1.36,2.47a1.16,1.16,0,0,0-.8-0.32h-0.85a1.16,1.16,0,0,0,0,2.33H603v6.23a0.78,0.78,0,0,0,.78.78h0v1.36a1,1,0,0,0,1,1h1.95a1,1,0,0,0,1-1V68.87h10.89v1.36a1,1,0,0,0,1,1h1.95a1,1,0,0,0,1-1V68.87a0.78,0.78,0,0,0,.77-0.78V61.87h0.37a1.17,1.17,0,0,0,1.2-1.14A1.22,1.22,0,0,0,623.63,59.53ZM607,58.1c0.6-1.12.95-1.69,2.24-1.69h7.87c1.29,0,1.63.56,2.24,1.69l1.64,3H605.39Zm1.15,9.2h-2.12a1.55,1.55,0,0,1,.09-3.09,9.28,9.28,0,0,1,2.24.81h0A1.16,1.16,0,0,1,608.18,67.3Zm7.31,0h-4.67a0.78,0.78,0,1,1,0-1.56h4.67A0.78,0.78,0,0,1,615.49,67.31Zm4.76,0h-2.12a1.16,1.16,0,0,1-.22-2.28h0a9,9,0,0,1,2.24-.81A1.55,1.55,0,0,1,620.25,67.3Z"/><circle class="cls-5" cx="230.66" cy="163.84" r="10.69"/><path class="cls-3" d="M236,162.05h-0.43a0.42,0.42,0,0,0-.35.15L234.53,161h0a1.9,1.9,0,0,0-1.83-1.29h-4c-0.6.05-1.1-.07-1.84,1.29h0l-0.69,1.26a0.59,0.59,0,0,0-.41-0.16h-0.43a0.59,0.59,0,0,0,0,1.19h0.2v3.17a0.4,0.4,0,0,0,.4.4h0v0.69a0.5,0.5,0,0,0,.5.5h1a0.5,0.5,0,0,0,.5-0.5v-0.69h5.55v0.69a0.5,0.5,0,0,0,.5.5h1a0.5,0.5,0,0,0,.5-0.5v-0.69a0.4,0.4,0,0,0,.39-0.4v-3.16H236a0.6,0.6,0,0,0,.61-0.58A0.62,0.62,0,0,0,236,162.05Zm-8.45-.73a1.14,1.14,0,0,1,1.14-.86h4a1.14,1.14,0,0,1,1.14.86l0.84,1.52h-8Zm0.59,4.68h-1.08a0.79,0.79,0,0,1,0-1.57,4.72,4.72,0,0,1,1.14.41h0A0.59,0.59,0,0,1,228.13,166Zm3.72,0h-2.38a0.4,0.4,0,1,1,0-.79h2.38A0.4,0.4,0,0,1,231.85,166Zm2.42,0h-1.08a0.59,0.59,0,0,1-.11-1.16h0a4.6,4.6,0,0,1,1.14-.41A0.79,0.79,0,0,1,234.27,166Z"/><circle class="cls-6" cx="1724.27" cy="235.63" r="14.33"/><path class="cls-3" d="M1716.84,241.18a1.85,1.85,0,0,0,3.2,1.28l7-7a3.72,3.72,0,0,0,4.42-5l-2.86,2.86a0.46,0.46,0,0,1-.66,0l-1.31-1.31a0.46,0.46,0,0,1,0-.66l2.86-2.86a3.71,3.71,0,0,0-5,4.35l-7,7h0A1.84,1.84,0,0,0,1716.84,241.18Zm0.93,0a0.93,0.93,0,1,1,.93.93A0.93,0.93,0,0,1,1717.77,241.21Z"/><circle class="cls-7" cx="1618.74" cy="236.38" r="10.9"/><path class="cls-3" d="M1613.49,239.4a1,1,0,1,0,1,1A1,1,0,0,0,1613.49,239.4Zm0,1.62a0.61,0.61,0,1,1,.61-0.61A0.61,0.61,0,0,1,1613.49,241Z"/><path class="cls-3" d="M1621.16,236.16a2.62,2.62,0,1,0,2.62,2.62A2.62,2.62,0,0,0,1621.16,236.16Zm0,3.63a1,1,0,1,1,1-1A1,1,0,0,1,1621.16,239.8Z"/><path class="cls-3" d="M1623.38,235.66h0v-3.92a0.41,0.41,0,0,0-.43-0.41h-3.19a0.49,0.49,0,0,0-.4.3l-1.68,3.34h-2.77v-0.81a0.4,0.4,0,1,0-.81,0V235h-0.4a0.4,0.4,0,0,0-.4.4v3.23a0.4,0.4,0,0,0,.4.4h4.46c0-.07,0-0.14,0-0.21a3,3,0,1,1,6.06,0c0,0.07,0,.14,0,0.21H1625c0-.07,0-0.14,0-0.21A3.83,3.83,0,0,0,1623.38,235.66Zm-0.81-.7h-4l1.43-2.83h2.53V235Z"/><circle class="cls-8" cx="291.94" cy="101.14" r="10.55"/><g id="computers"><path class="cls-3" d="M297.79,105.37l-1-1.81a0.63,0.63,0,0,0-.54-0.46h-8.6a0.61,0.61,0,0,0-.54.47l-1,1.79a0.42,0.42,0,0,0,.46.47h10.78A0.42,0.42,0,0,0,297.79,105.37Zm-5,.08H291.1c-0.26,0-.39-0.06-0.31-0.28l0.08-.23a0.32,0.32,0,0,1,.39-0.28h1.36a0.32,0.32,0,0,1,.39.28l0.08,0.23C293.18,105.4,293,105.45,292.79,105.45Z"/><path class="cls-3" d="M287.71,102.71h8.47a0.46,0.46,0,0,0,.46-0.46V96.91a0.46,0.46,0,0,0-.46-0.46h-8.47a0.46,0.46,0,0,0-.46.46v5.33A0.46,0.46,0,0,0,287.71,102.71Zm0.72-4.62a0.46,0.46,0,0,1,.46-0.46H295a0.46,0.46,0,0,1,.46.46v3a0.46,0.46,0,0,1-.46.46h-6.1a0.46,0.46,0,0,1-.46-0.46v-3Z"/></g><circle class="cls-8" cx="1745.43" cy="97.82" r="10.55"/><g id="computers-2" data-name="computers"><path class="cls-3" d="M1751.28,102l-1-1.81a0.63,0.63,0,0,0-.54-0.46h-8.6a0.61,0.61,0,0,0-.54.47l-1,1.79a0.42,0.42,0,0,0,.46.47h10.78A0.42,0.42,0,0,0,1751.28,102Zm-5,.08h-1.69c-0.26,0-.39-0.06-0.31-0.28l0.08-.23a0.32,0.32,0,0,1,.39-0.28h1.36a0.32,0.32,0,0,1,.39.28l0.08,0.23C1746.67,102.07,1746.54,102.13,1746.28,102.13Z"/><path class="cls-3" d="M1741.2,99.38h8.47a0.46,0.46,0,0,0,.46-0.46V93.59a0.46,0.46,0,0,0-.46-0.46h-8.47a0.46,0.46,0,0,0-.46.46v5.33A0.46,0.46,0,0,0,1741.2,99.38Zm0.72-4.62a0.46,0.46,0,0,1,.46-0.46h6.1a0.46,0.46,0,0,1,.46.46v3a0.46,0.46,0,0,1-.46.46h-6.1a0.46,0.46,0,0,1-.46-0.46v-3Z"/></g><circle class="cls-9" cx="1215.45" cy="-10.28" r="33.26"/><g id="Capa_74" data-name="Capa 74"><path class="cls-3" d="M1235.17-4.78c-0.33-4.55-1.22-9.74-5.22-13-6.44-5.2-9.84,3.08-14.5,3.24-4.66-.15-8.11-8.43-14.56-3.23-4,3.22-4.82,8.41-5.16,13,0,3.91,0,10,4.91,10,5.22,0,7.94-8,14.77-8.24,6.83,0.24,9.62,8.24,14.84,8.24C1235.2,5.21,1235.17-.9,1235.17-4.78ZM1210.5-7.12h-3.68v3.68h-3.72V-7.12h-3.7v-3.71h3.7v-3.7h3.72v3.7h3.68v3.71Zm15.41-7.41a1.85,1.85,0,0,1,1.84,1.85,1.85,1.85,0,0,1-1.84,1.85,1.84,1.84,0,0,1-1.84-1.85A1.84,1.84,0,0,1,1225.91-14.53Zm0,7.41a1.85,1.85,0,0,1,1.84,1.85,1.85,1.85,0,0,1-1.84,1.85,1.84,1.84,0,0,1-1.84-1.85A1.84,1.84,0,0,1,1225.91-7.11ZM1231.48-9a1.85,1.85,0,0,1-1.85,1.84A1.85,1.85,0,0,1,1227.77-9a1.84,1.84,0,0,1,1.85-1.84A1.84,1.84,0,0,1,1231.48-9Zm-7.41,0a1.85,1.85,0,0,1-1.85,1.84A1.85,1.85,0,0,1,1220.36-9a1.84,1.84,0,0,1,1.85-1.84A1.84,1.84,0,0,1,1224.06-9Z"/></g><circle class="cls-9" cx="50.17" cy="40.32" r="21.41"/><g id="Capa_74-2" data-name="Capa 74"><path class="cls-3" d="M62.86,43.86c-0.22-2.93-.79-6.27-3.36-8.34-4.15-3.35-6.33,2-9.33,2.08-3-.1-5.22-5.43-9.37-2.08-2.57,2.07-3.1,5.41-3.32,8.34,0,2.52,0,6.43,3.16,6.43,3.36,0,5.11-5.15,9.51-5.31,4.4,0.15,6.19,5.31,9.55,5.31C62.88,50.29,62.86,46.36,62.86,43.86ZM47,42.36H44.61v2.37H42.22V42.36H39.84V40h2.38V37.59h2.39V40H47v2.39Zm9.92-4.77a1.19,1.19,0,1,1-1.18,1.19A1.19,1.19,0,0,1,56.9,37.59Zm0,4.77a1.19,1.19,0,1,1-1.18,1.19A1.19,1.19,0,0,1,56.9,42.36Zm3.58-1.2A1.19,1.19,0,1,1,59.29,40,1.19,1.19,0,0,1,60.48,41.16Zm-4.77,0A1.19,1.19,0,1,1,54.51,40,1.19,1.19,0,0,1,55.71,41.16Z"/><path class="cls-3" d="M51,36.71a5.58,5.58,0,0,1,2.26-3.25,4.78,4.78,0,0,0,2.5-4.58,0.79,0.79,0,1,0-1.58,0,3.25,3.25,0,0,1-1.79,3.29,7.09,7.09,0,0,0-3,4.44,3.28,3.28,0,0,0,1,.2A3.09,3.09,0,0,0,51,36.71Z"/></g><circle class="cls-10" cx="922.37" cy="1.67" r="9.51"/><g id="music"><path class="cls-3" d="M926.23-3.43c0-.39-0.19-0.46-0.41-0.4l-5.56,1.71a0.46,0.46,0,0,0-.39.48V3.75a2.27,2.27,0,0,0-1.27-.38,2,2,0,0,0-2.13,1.91,2.14,2.14,0,0,0,4.25,0s0-.07,0-0.1V-0.44l4.67-1.27V2.49a2.27,2.27,0,0,0-1.29-.4A2,2,0,0,0,922,4a2.14,2.14,0,0,0,4.25,0V4h0V-3.43Z"/></g><circle class="cls-1" cx="153.16" cy="110.15" r="11.65"/><g id="appliances"><path class="cls-3" d="M160.31,108.74v-0.68c0-3.12-3.66-3.44-3.66-3.44l-3.8-.47v-0.3a0.47,0.47,0,0,0-.47-0.47h-0.93a0.47,0.47,0,0,0-.47.47v0.21c-2.65-.17-3.25,2.57-3.25,2.57l-0.4,1.86c-0.52,2.64,1.36,2.37,1.36,2.37h0.88v1.41a3,3,0,0,0-1.08.26,2.14,2.14,0,0,0-.31,1.23,5.54,5.54,0,0,0,.64,2.86,2.19,2.19,0,0,0,1.15.31h0a2.69,2.69,0,0,0,1.28-.3,5.52,5.52,0,0,0,.65-2.85,2.15,2.15,0,0,0-.3-1.24,2.92,2.92,0,0,0-1.09-.27v-1.41h1.86v1.41a5.64,5.64,0,0,0-.71.11,1.22,1.22,0,0,1,.41.16,1.16,1.16,0,0,1,.25.66h0.06V116a0.69,0.69,0,0,1-.23-0.11l0,0a1.83,1.83,0,0,1-.38.82l0,0a2.38,2.38,0,0,0,1.1.27h0a2.69,2.69,0,0,0,1.28-.3,5.51,5.51,0,0,0,.65-2.85,2.14,2.14,0,0,0-.3-1.24,2.92,2.92,0,0,0-1.09-.27v-1.41h5.09A1.93,1.93,0,0,0,160.31,108.74ZM149.58,116a0.69,0.69,0,0,1-.23-0.11,4.62,4.62,0,0,1-.36-2.51,1.6,1.6,0,0,1,.59-0.15V116Zm1.55-2.62a4.66,4.66,0,0,1-.37,2.52,0.67,0.67,0,0,1-.24.12v-2.79A1.69,1.69,0,0,1,151.12,113.34Zm2.8,0a4.65,4.65,0,0,1-.37,2.52,0.68,0.68,0,0,1-.24.12v-2.79A1.69,1.69,0,0,1,153.93,113.34Zm2.19-5.28h-6s-0.7,0-.5-0.92c0,0,.14-1.52,1.42-1.42l4.66,0.46s1.39,0.19,1.39,1.11A0.88,0.88,0,0,1,156.12,108.05Z"/></g><circle class="cls-11" cx="1023.34" cy="-1.84" r="9.51"/><path class="cls-3" d="M1030-2.79s-5.8-2.83-6.14-3a0.77,0.77,0,0,0-.26-0.09,0.66,0.66,0,0,0-.25.09h0l-6.1,3a0.23,0.23,0,0,0-.15.19,0.24,0.24,0,0,0,.1.17l0.92,0.75v2a0.4,0.4,0,0,0-.2.35,0.39,0.39,0,0,0,0,.19h0a0.32,0.32,0,0,1-.08.44,0.91,0.91,0,0,0-.38.56,0.43,0.43,0,0,0,.43.43h0.76a0.43,0.43,0,0,0,.43-0.43,0.92,0.92,0,0,0-.38-0.56,0.3,0.3,0,0,1-.09-0.42h0a0.4,0.4,0,0,0,.06-0.21,0.41,0.41,0,0,0-.2-0.35V-1.37l0.42,0.31,0.87,0.74,0.14,0.13v1h0a0.21,0.21,0,0,1,0-.05V0.71l0,0v0l0,0h0l0.12-.11h0l0.07,0h0l0.07,0h0l0.08,0h0l0.35-.14h0l0.12,0h0l0.12,0h0l0.14,0h0a10.76,10.76,0,0,1,2.35-.24,10,10,0,0,1,2.64.31h0a3.78,3.78,0,0,1,.45.16h0l0.07,0h0l0.06,0h0l0.06,0h0l0.16,0.11h0l0,0h0l0,0v0l0,0v0l0,0h0l0,0V-0.2l2.8-2.28a0.2,0.2,0,0,0,.05-0.13A0.2,0.2,0,0,0,1030-2.79Z"/><path class="cls-3" d="M1023.57,1.86c1.78,0,3.26-.35,3.6-0.82-0.33-.47-1.82-0.82-3.6-0.82s-3.27.35-3.6,0.82C1020.31,1.51,1021.79,1.86,1023.57,1.86Z"/><circle class="cls-11" cx="119.89" cy="65.34" r="9.51"/><path class="cls-3" d="M126.52,64.4s-5.8-2.83-6.14-3a0.77,0.77,0,0,0-.26-0.09,0.66,0.66,0,0,0-.25.09h0l-6.1,3a0.23,0.23,0,0,0-.15.19,0.24,0.24,0,0,0,.1.17l0.92,0.75v2a0.4,0.4,0,0,0-.2.35,0.39,0.39,0,0,0,0,.19h0a0.32,0.32,0,0,1-.08.44A0.91,0.91,0,0,0,114,69a0.43,0.43,0,0,0,.43.43h0.76a0.43,0.43,0,0,0,.43-0.43,0.92,0.92,0,0,0-.38-0.56,0.3,0.3,0,0,1-.09-0.42h0a0.4,0.4,0,0,0,.06-0.21,0.41,0.41,0,0,0-.2-0.35V65.82l0.42,0.31,0.87,0.74L116.46,67v1h0a0.21,0.21,0,0,1,0-.05V67.9l0,0v0l0,0h0l0.12-.11h0l0.07,0h0l0.07,0h0l0.08,0h0l0.35-.14h0l0.12,0h0l0.12,0h0l0.14,0h0a10.76,10.76,0,0,1,2.35-.24,10,10,0,0,1,2.64.31h0a3.78,3.78,0,0,1,.45.16h0l0.07,0h0l0.06,0h0l0.06,0h0l0.16,0.11h0l0,0h0l0,0v0l0,0v0l0,0h0l0,0V67l2.8-2.28a0.2,0.2,0,0,0,.05-0.13A0.2,0.2,0,0,0,126.52,64.4Z"/><path class="cls-3" d="M120.13,69c1.78,0,3.26-.35,3.6-0.82-0.33-.47-1.82-0.82-3.6-0.82s-3.27.35-3.6,0.82C116.86,68.7,118.34,69,120.13,69Z"/><path class="cls-11" d="M123.77,65.15l0-.09c-0.2-.51-1.74-0.9-3.62-0.9h0c-1.88,0-3.42.4-3.62,0.9l0,0.09v0.41l0-.09c0.2-.51,1.74-0.9,3.62-0.9h0c1.88,0,3.42.4,3.62,0.9l0,0.09V65.15Z"/><circle class="cls-9" cx="1551.48" cy="250.72" r="19.03"/><path class="cls-3" d="M1562.37,247.49a0.29,0.29,0,0,0-.31,0l-5.43,4.49v-3l0.3-.25a0.3,0.3,0,0,0,.11-0.23v-0.79a0.29,0.29,0,0,0-.17-0.26,0.28,0.28,0,0,0-.31,0l-5.46,4.52a0.27,0.27,0,0,0-.07.09V249l0.29-.24a0.3,0.3,0,0,0,.11-0.23v-0.79a0.29,0.29,0,0,0-.17-0.26,0.28,0.28,0,0,0-.31,0l-5.39,4.46-0.94-11.49h-2.5v15.94h0v4.43a1.16,1.16,0,0,0,1.17,1.14h17.77a1.16,1.16,0,0,0,1.17-1.14V248.93l0.2-.17a0.29,0.29,0,0,0,.11-0.23v-0.79A0.29,0.29,0,0,0,1562.37,247.49ZM1548,258.74a0.41,0.41,0,0,1-.41.4H1546a0.41,0.41,0,0,1-.41-0.4v-1.65a0.41,0.41,0,0,1,.41-0.4h1.65a0.41,0.41,0,0,1,.41.4v1.65Zm3.56,0a0.41,0.41,0,0,1-.41.4h-1.65a0.4,0.4,0,0,1-.4-0.4v-1.65a0.4,0.4,0,0,1,.4-0.4h1.65a0.41,0.41,0,0,1,.41.4v1.65Zm8.57,2.13h-3.5v-3.52a0.59,0.59,0,0,1,.58-0.58h2.34a0.58,0.58,0,0,1,.58.58v3.52Z"/><path class="cls-3" d="M1544.19,239.69c4.33-3,8.28,2.8,11.92-1.78-3.2,1.46-4.58-1.8-7.29-1.52-1.87.19-3.53,1.91-4.63,3.3h0Z"/><circle class="cls-1" cx="1607.22" cy="105.73" r="9.51"/><path class="cls-3" d="M1607.93,103.64a3.1,3.1,0,0,1-.8.71,2.66,2.66,0,0,1-.72-0.7,3.78,3.78,0,1,0,1.52,0m-0.72,6.21a2.5,2.5,0,1,1,2.5-2.5,2.5,2.5,0,0,1-2.5,2.5"/><path class="cls-3" d="M1607.13,103.81a7.17,7.17,0,0,0,1.74-1.92,4.82,4.82,0,0,0-.34-1.41c-0.22-.05-1.18-0.51-1.4-0.51a13.83,13.83,0,0,0-1.36.52,5.27,5.27,0,0,0-.21,1.4,6.55,6.55,0,0,0,1.57,1.92"/><circle class="cls-1" cx="509.01" cy="98.47" r="9.51"/><path class="cls-3" d="M509.73,96.37a3.1,3.1,0,0,1-.8.71,2.66,2.66,0,0,1-.72-0.7,3.78,3.78,0,1,0,1.52,0M509,102.58a2.5,2.5,0,1,1,2.5-2.5,2.5,2.5,0,0,1-2.5,2.5"/><path class="cls-3" d="M508.93,96.54a7.17,7.17,0,0,0,1.74-1.92,4.82,4.82,0,0,0-.34-1.41c-0.22-.05-1.18-0.51-1.4-0.51a13.83,13.83,0,0,0-1.36.52,5.27,5.27,0,0,0-.21,1.4,6.55,6.55,0,0,0,1.57,1.92"/><circle class="cls-5" cx="1123.88" cy="1.67" r="9.51"/><path class="cls-3" d="M1128,1a26.47,26.47,0,0,0-2.55-3.15h0l-0.29-.34c-0.29-.35-0.56-0.66-0.78-0.9,0.39-.43,1-1.16,1-1.18a0.75,0.75,0,0,0-.17-0.27,0.75,0.75,0,0,0-.28-0.14s-0.69.66-1.1,1.07c-0.41-.41-1.08-1.07-1.1-1.07a0.75,0.75,0,0,0-.28.14,0.73,0.73,0,0,0-.17.27s0.65,0.76,1,1.19l-0.57.65c-0.27.3-.5,0.57-0.5,0.59h0c-1.13,1.35-2.45,3-2.56,3.14a48.8,48.8,0,0,0-2.26,4.33h5.17a13.73,13.73,0,0,1,1.26-2.21,15.19,15.19,0,0,1,1.24,2.21h5.19A44.27,44.27,0,0,0,1128,1"/><circle class="cls-2" cx="360.04" cy="93.67" r="11.25"/><path class="cls-3" d="M363.64,92.91l-1.09-2.58h0.82a0.41,0.41,0,1,0,0-.83h-1.49a0.41,0.41,0,0,0-.36.53l0.65,1.56h-3.95l-0.45-1.06a1.37,1.37,0,0,0,1.17-.2c0.08-.38.07-0.38-1.21-0.46s-1.14-.55-1.67-0.28,0.19,1.16.81,1h0l0.48,1.13L356.68,93a2.5,2.5,0,1,0,1.65,2.78h0.77a0.83,0.83,0,0,0,1.52-.62l2.12-2.21,0.13,0.3A2.5,2.5,0,1,0,363.64,92.91ZM355.87,97a1.66,1.66,0,1,1,.4-3.27l-0.77,1.43a0.41,0.41,0,0,0,.38.6h1.6A1.67,1.67,0,0,1,355.87,97Zm0.7-2.08,0.43-.8a1.65,1.65,0,0,1,.48.8h-0.91Zm1.76,0a2.5,2.5,0,0,0-.93-1.55l0.38-.7,1,2.25h-0.41Zm1.72-.38a0.8,0.8,0,0,0-.55,0l-0.92-2.14h3.49ZM364.21,97a1.66,1.66,0,0,1-1-3l0.42,1a0.66,0.66,0,1,0,.77-0.32l-0.43-1a1.65,1.65,0,0,1,1.9,1.64A1.67,1.67,0,0,1,364.21,97Z"/><circle class="cls-2" cx="1284.82" cy="200.72" r="11.25"/><path class="cls-3" d="M1288.42,200l-1.09-2.58h0.82a0.41,0.41,0,1,0,0-.83h-1.49a0.41,0.41,0,0,0-.36.53l0.65,1.56H1283l-0.45-1.06a1.37,1.37,0,0,0,1.17-.2c0.08-.38.07-0.38-1.21-0.46s-1.14-.55-1.67-0.28,0.19,1.16.81,1h0l0.48,1.13-0.69,1.28a2.5,2.5,0,1,0,1.65,2.78h0.77a0.83,0.83,0,0,0,1.52-.62l2.12-2.21,0.13,0.3A2.5,2.5,0,1,0,1288.42,200Zm-7.77,4.1a1.66,1.66,0,1,1,.4-3.27l-0.77,1.43a0.41,0.41,0,0,0,.38.6h1.6A1.67,1.67,0,0,1,1280.65,204.05Zm0.7-2.08,0.43-.8a1.65,1.65,0,0,1,.48.8h-0.91Zm1.76,0a2.5,2.5,0,0,0-.93-1.55l0.38-.7,1,2.25h-0.41Zm1.72-.38a0.8,0.8,0,0,0-.55,0l-0.92-2.14h3.49Zm4.15,2.46a1.66,1.66,0,0,1-1-3l0.42,1a0.66,0.66,0,1,0,.77-0.32l-0.43-1a1.65,1.65,0,0,1,1.9,1.64A1.67,1.67,0,0,1,1289,204.05Z"/><circle class="cls-4" cx="1677.44" cy="91.12" r="10.36"/><path class="cls-3" d="M1674.2,89.91a1.14,1.14,0,0,0-1.58-.33,1.35,1.35,0,0,0-.19,2c0.51,0.58,1.28,1.2,1.94.68S1674.7,90.48,1674.2,89.91Z"/><path class="cls-3" d="M1680.32,93.9c-0.82-3.07-2.88-3-2.88-3-1.84,0-3,3-3,3.06a1.68,1.68,0,0,0,0,1.13c0.46,0.93,2.06.75,3,.78a19.18,19.18,0,0,0,2.15-.08,1,1,0,0,0,.87-1.16C1680.45,94.44,1680.32,93.9,1680.32,93.9Z"/><path class="cls-3" d="M1676.44,90.12c0.72-.25.7-1.69,0.46-2.58a1.44,1.44,0,0,0-1.62-1.18,1.31,1.31,0,0,0-.82,1.86C1674.71,89.11,1675.63,90.41,1676.44,90.12Z"/><path class="cls-3" d="M1682.26,89.58a1.14,1.14,0,0,0-1.58.33c-0.51.58-.87,1.78-0.16,2.35s1.43-.1,1.94-0.68A1.36,1.36,0,0,0,1682.26,89.58Z"/><path class="cls-3" d="M1678.43,90.12c0.81,0.29,1.73-1,2-1.9a1.31,1.31,0,0,0-.82-1.86,1.44,1.44,0,0,0-1.62,1.18C1677.73,88.43,1677.72,89.87,1678.43,90.12Z"/><circle class="cls-4" cx="362.55" cy="223.7" r="11.99"/><path class="cls-3" d="M358.8,222.29a1.32,1.32,0,0,0-1.83-.38,1.57,1.57,0,0,0-.23,2.32c0.59,0.67,1.48,1.39,2.24.78S359.38,223,358.8,222.29Z"/><path class="cls-3" d="M365.88,226.92c-1-3.55-3.33-3.43-3.33-3.43-2.13,0-3.42,3.48-3.44,3.55a2,2,0,0,0,0,1.3c0.54,1.07,2.38.87,3.48,0.91a22.22,22.22,0,0,0,2.49-.09,1.14,1.14,0,0,0,1-1.34C366,227.54,365.88,226.91,365.88,226.92Z"/><path class="cls-3" d="M361.39,222.55c0.83-.29.82-2,0.53-3a1.67,1.67,0,0,0-1.87-1.37c-1,.24-1.23,1.13-0.94,2.16S360.45,222.88,361.39,222.55Z"/><path class="cls-3" d="M368.13,221.92a1.32,1.32,0,0,0-1.83.38c-0.59.67-1,2.07-.18,2.72s1.66-.11,2.24-0.78A1.57,1.57,0,0,0,368.13,221.92Z"/><path class="cls-3" d="M363.7,222.55c0.94,0.33,2-1.17,2.29-2.2s0.05-1.91-.94-2.16a1.67,1.67,0,0,0-1.87,1.37C362.89,220.59,362.87,222.25,363.7,222.55Z"/><circle class="cls-5" cx="416.34" cy="245.29" r="9.51"/><path class="cls-3" d="M421.08,243.71H420.7a0.38,0.38,0,0,0-.31.14l-0.61-1.11h0a1.69,1.69,0,0,0-1.63-1.15h-3.56c-0.54,0-1-.06-1.63,1.15h0l-0.62,1.12a0.53,0.53,0,0,0-.36-0.15h-0.38a0.53,0.53,0,0,0,0,1.06h0.18v2.82a0.35,0.35,0,0,0,.35.35h0v0.62a0.44,0.44,0,0,0,.44.44h0.88a0.44,0.44,0,0,0,.44-0.44v-0.62h4.93v0.62a0.44,0.44,0,0,0,.44.44h0.88a0.44,0.44,0,0,0,.44-0.44v-0.62a0.35,0.35,0,0,0,.35-0.35v-2.81h0.17a0.53,0.53,0,0,0,.54-0.52A0.55,0.55,0,0,0,421.08,243.71Zm-7.52-.65a1,1,0,0,1,1-.76h3.56a1,1,0,0,1,1,.76l0.74,1.35h-7.08Zm0.52,4.17h-1a0.7,0.7,0,0,1,0-1.4,4.23,4.23,0,0,1,1,.37h0A0.53,0.53,0,0,1,414.09,247.23Zm3.31,0h-2.11a0.35,0.35,0,1,1,0-.7h2.11A0.35,0.35,0,0,1,417.4,247.23Zm2.15,0h-1a0.53,0.53,0,0,1-.1-1h0a4.1,4.1,0,0,1,1-.37A0.7,0.7,0,0,1,419.55,247.23Z"/><circle class="cls-6" cx="116.55" cy="217.15" r="19.03"/><path class="cls-3" d="M106.68,224.53a2.46,2.46,0,0,0,4.24,1.7l9.23-9.23a4.93,4.93,0,0,0,5.86-6.69l-3.8,3.8a0.62,0.62,0,0,1-.87,0l-1.74-1.74a0.62,0.62,0,0,1,0-.87l3.8-3.8a4.92,4.92,0,0,0-6.69,5.78l-9.33,9.33h0A2.44,2.44,0,0,0,106.68,224.53Zm1.23,0a1.23,1.23,0,1,1,1.23,1.23A1.23,1.23,0,0,1,107.92,224.57Z"/><circle class="cls-7" cx="432.01" cy="110.15" r="12.85"/><path class="cls-3" d="M425.82,113.72a1.19,1.19,0,1,0,1.19,1.19A1.19,1.19,0,0,0,425.82,113.72Zm0,1.9a0.71,0.71,0,1,1,.71-0.71A0.71,0.71,0,0,1,425.82,115.62Z"/><path class="cls-3" d="M434.87,109.9A3.1,3.1,0,1,0,438,113,3.09,3.09,0,0,0,434.87,109.9Zm0,4.29a1.19,1.19,0,1,1,1.19-1.19A1.19,1.19,0,0,1,434.87,114.18Z"/><path class="cls-3" d="M437.49,109.31h0v-4.63a0.49,0.49,0,0,0-.5-0.48h-3.77a0.58,0.58,0,0,0-.48.35l-2,3.93h-3.27v-1a0.48,0.48,0,1,0-1,0v1h-0.48a0.48,0.48,0,0,0-.48.48v3.81a0.48,0.48,0,0,0,.48.48h5.25c0-.08,0-0.17,0-0.25a3.57,3.57,0,1,1,7.14,0c0,0.08,0,.17,0,0.25h1c0-.08,0-0.17,0-0.25A4.51,4.51,0,0,0,437.49,109.31Zm-1-.83h-4.67l1.69-3.33h3v3.33Z"/><circle class="cls-8" cx="1382.95" cy="161.88" r="10.55"/><g id="computers-3" data-name="computers"><path class="cls-3" d="M1388.8,166.11l-1-1.81a0.63,0.63,0,0,0-.54-0.46h-8.6a0.61,0.61,0,0,0-.54.47l-1,1.79a0.42,0.42,0,0,0,.46.47h10.78A0.42,0.42,0,0,0,1388.8,166.11Zm-5,.08h-1.69c-0.26,0-.39-0.06-0.31-0.28l0.08-.23a0.32,0.32,0,0,1,.39-0.28h1.36a0.32,0.32,0,0,1,.39.28l0.08,0.23C1384.18,166.13,1384.05,166.19,1383.79,166.19Z"/><path class="cls-3" d="M1378.71,163.44h8.47a0.46,0.46,0,0,0,.46-0.46v-5.33a0.46,0.46,0,0,0-.46-0.46h-8.47a0.46,0.46,0,0,0-.46.46V163A0.46,0.46,0,0,0,1378.71,163.44Zm0.72-4.62a0.46,0.46,0,0,1,.46-0.46h6.1a0.46,0.46,0,0,1,.46.46v3a0.46,0.46,0,0,1-.46.46h-6.1a0.46,0.46,0,0,1-.46-0.46v-3Z"/></g><circle class="cls-9" cx="1490.89" cy="230.81" r="12.42"/><g id="Capa_74-3" data-name="Capa 74"><path class="cls-3" d="M1498.25,232.86c-0.12-1.7-.46-3.64-1.95-4.84-2.41-1.94-3.67,1.15-5.41,1.21s-3-3.15-5.44-1.21c-1.49,1.2-1.8,3.14-1.92,4.84,0,1.46,0,3.73,1.83,3.73s3-3,5.52-3.08c2.55,0.09,3.59,3.08,5.54,3.08S1498.25,234.31,1498.25,232.86ZM1489,232h-1.37v1.38h-1.39V232h-1.38V230.6h1.38v-1.38h1.39v1.38H1489V232Zm5.75-2.77a0.69,0.69,0,1,1-.69.69A0.69,0.69,0,0,1,1494.79,229.22Zm0,2.77a0.69,0.69,0,1,1-.69.69A0.69,0.69,0,0,1,1494.79,232Zm2.08-.69a0.69,0.69,0,1,1-.69-0.69A0.69,0.69,0,0,1,1496.87,231.3Zm-2.77,0a0.69,0.69,0,1,1-.69-0.69A0.69,0.69,0,0,1,1494.1,231.3Z"/><path class="cls-3" d="M1491.35,228.71a3.24,3.24,0,0,1,1.31-1.88,2.77,2.77,0,0,0,1.45-2.66,0.46,0.46,0,1,0-.92,0,1.88,1.88,0,0,1-1,1.91,4.11,4.11,0,0,0-1.73,2.58,1.9,1.9,0,0,0,.59.12A1.81,1.81,0,0,0,1491.35,228.71Z"/></g><circle class="cls-10" cx="164.8" cy="243.8" r="12.54"/><g id="music-2" data-name="music"><path class="cls-3" d="M169.9,237.08c0-.51-0.26-0.6-0.54-0.52L162,238.82a0.61,0.61,0,0,0-.51.63v7.09a3,3,0,0,0-1.67-.51,2.53,2.53,0,1,0,2.8,2.52s0-.09,0-0.13V241l6.16-1.67v5.53a3,3,0,0,0-1.7-.52,2.53,2.53,0,1,0,2.8,2.52s0,0,0,0h0v-9.77Z"/></g><circle class="cls-1" cx="1652.22" cy="34.26" r="24.96"/><g id="appliances-2" data-name="appliances"><path class="cls-3" d="M1667.55,31.25V29.79c0-6.7-7.85-7.38-7.85-7.38l-8.15-1V20.75a1,1,0,0,0-1-1h-2a1,1,0,0,0-1,1V21.2c-5.68-.37-7,5.5-7,5.5l-0.86,4c-1.12,5.67,2.92,5.08,2.92,5.08h1.89v3a6.39,6.39,0,0,0-2.32.55c-0.4.3-.62,1.61-0.65,2.64-0.05,1.68.47,5.33,1.36,6.12a4.68,4.68,0,0,0,2.47.66h0a5.77,5.77,0,0,0,2.75-.64c0.9-.78,1.44-4.43,1.39-6.11,0-1-.24-2.35-0.64-2.65a6.28,6.28,0,0,0-2.34-.57v-3h4v3A12.25,12.25,0,0,0,1649,39a2.62,2.62,0,0,1,.87.34,2.5,2.5,0,0,1,.53,1.41l0.12,0v6a1.47,1.47,0,0,1-.49-0.24l-0.08-.11a3.91,3.91,0,0,1-.82,1.76l-0.11.07a5.07,5.07,0,0,0,2.35.57h0a5.77,5.77,0,0,0,2.75-.64c0.9-.78,1.44-4.43,1.39-6.11,0-1-.24-2.35-0.65-2.65a6.27,6.27,0,0,0-2.33-.57v-3h10.91C1667.77,35.77,1667.55,31.25,1667.55,31.25Zm-23,15.45a1.48,1.48,0,0,1-.49-0.25c-0.6-.64-1.18-4.67-0.77-5.39a3.44,3.44,0,0,1,1.25-.33v6Zm3.31-5.61c0.41,0.72-.19,4.76-0.79,5.39a1.45,1.45,0,0,1-.51.25v-6A3.57,3.57,0,0,1,1647.86,41.09Zm6,0c0.41,0.72-.19,4.76-0.79,5.39a1.47,1.47,0,0,1-.51.25v-6A3.56,3.56,0,0,1,1653.86,41.09Zm4.69-11.32-13,0s-1.49.09-1.06-2c0,0,.29-3.26,3-3.05l10,1s3,0.42,3,2.37C1660.55,29.77,1658.55,29.77,1658.55,29.77Z"/></g><circle class="cls-11" cx="1573.41" cy="60.67" r="10.83"/><path class="cls-3" d="M1581,59.6s-6.6-3.23-7-3.4a0.87,0.87,0,0,0-.29-0.11,0.75,0.75,0,0,0-.29.11h0l-6.95,3.37a0.26,0.26,0,0,0-.17.22,0.27,0.27,0,0,0,.11.19l1,0.85v2.26a0.46,0.46,0,0,0-.18.61h0a0.36,0.36,0,0,1-.09.5,1,1,0,0,0-.43.64,0.49,0.49,0,0,0,.49.49h0.87a0.49,0.49,0,0,0,.49-0.49,1,1,0,0,0-.43-0.64,0.34,0.34,0,0,1-.1-0.48h0a0.46,0.46,0,0,0-.16-0.64V61.22l0.48,0.36,1,0.84,0.16,0.14v1.17h0a0.24,0.24,0,0,1,0-.06V63.58l0,0v0l0,0h0l0.14-.12h0l0.08-.05h0l0.08,0h0l0.09,0h0l0.4-.16h0l0.13,0h0l0.13,0h0l0.15,0h0a12.16,12.16,0,0,1,2.68-.27,11.39,11.39,0,0,1,3,.35h0a4.29,4.29,0,0,1,.51.18h0l0.08,0h0l0.07,0h0l0.07,0h0l0.18,0.13h0l0,0,0,0,0,0v0l0,0v0l0,0h0l0,0V62.55l3.18-2.6A0.22,0.22,0,0,0,1581,59.6Z"/><path class="cls-3" d="M1573.68,64.89c2,0,3.72-.4,4.09-0.93-0.38-.53-2.07-0.93-4.09-0.93s-3.72.4-4.1,0.93C1570,64.49,1571.65,64.89,1573.68,64.89Z"/><path class="cls-11" d="M1577.83,60.46l0-.11c-0.23-.58-2-1-4.12-1h0c-2.14,0-3.89.45-4.12,1l0,0.11v0.47l0-.11c0.23-.58,2-1,4.12-1h0c2.14,0,3.89.45,4.12,1l0,0.11V60.46Z"/><circle class="cls-9" cx="562.84" cy="131.2" r="19.25"/><path class="cls-3" d="M573.86,127.92a0.29,0.29,0,0,0-.31,0l-5.49,4.55v-3l0.3-.25a0.3,0.3,0,0,0,.11-0.23v-0.8a0.3,0.3,0,0,0-.17-0.27,0.29,0.29,0,0,0-.31,0l-5.52,4.57a0.26,0.26,0,0,0-.07.09v-3.16l0.29-.24a0.3,0.3,0,0,0,.11-0.23v-0.8a0.3,0.3,0,0,0-.17-0.27,0.29,0.29,0,0,0-.31,0l-5.46,4.52-1-11.62h-2.53V137h0v4.48a1.17,1.17,0,0,0,1.18,1.15h18a1.17,1.17,0,0,0,1.18-1.15V129.38l0.2-.17A0.3,0.3,0,0,0,574,129v-0.8A0.3,0.3,0,0,0,573.86,127.92Zm-14.53,11.39a0.41,0.41,0,0,1-.41.41h-1.67a0.41,0.41,0,0,1-.41-0.41v-1.67a0.41,0.41,0,0,1,.41-0.41h1.67a0.41,0.41,0,0,1,.41.41v1.67Zm3.6,0a0.41,0.41,0,0,1-.41.41h-1.67a0.41,0.41,0,0,1-.41-0.41v-1.67a0.41,0.41,0,0,1,.41-0.41h1.67a0.41,0.41,0,0,1,.41.41v1.67Zm8.67,2.16h-3.55v-3.57a0.59,0.59,0,0,1,.59-0.59H571a0.59,0.59,0,0,1,.59.59v3.57Z"/><path class="cls-3" d="M555.47,120c4.38-3,8.38,2.84,12.06-1.8-3.24,1.47-4.63-1.82-7.38-1.54-1.89.19-3.57,1.93-4.68,3.34h0Z"/><circle class="cls-5" cx="518.53" cy="249.96" r="9.51"/><path class="cls-3" d="M522.65,249.34a26.67,26.67,0,0,0-2.55-3.15h0l-0.29-.34c-0.29-.35-0.56-0.66-0.78-0.9,0.39-.43,1-1.16,1-1.18a0.76,0.76,0,0,0-.17-0.27,0.75,0.75,0,0,0-.28-0.14s-0.69.66-1.1,1.07c-0.41-.41-1.08-1.06-1.1-1.07a0.75,0.75,0,0,0-.28.14,0.74,0.74,0,0,0-.17.27s0.65,0.76,1,1.19l-0.57.65c-0.27.3-.5,0.57-0.5,0.59h0c-1.13,1.35-2.45,3-2.56,3.14a48.81,48.81,0,0,0-2.26,4.33h5.17a13.75,13.75,0,0,1,1.26-2.21,15.21,15.21,0,0,1,1.24,2.21H525a44.42,44.42,0,0,0-2.3-4.33"/><circle class="cls-5" cx="1527.18" cy="94.36" r="10.99"/><path class="cls-3" d="M1531.94,93.64A30.8,30.8,0,0,0,1529,90h0s-0.14-.18-0.33-0.4c-0.34-.4-0.65-0.76-0.9-1,0.45-.5,1.19-1.34,1.19-1.36a0.88,0.88,0,0,0-.19-0.31,0.87,0.87,0,0,0-.33-0.17s-0.8.76-1.28,1.23c-0.47-.47-1.25-1.23-1.28-1.23a0.87,0.87,0,0,0-.33.17,0.86,0.86,0,0,0-.19.31s0.75,0.88,1.2,1.37l-0.66.75c-0.31.35-.58,0.66-0.58,0.68h0c-1.31,1.56-2.83,3.48-3,3.63a56.36,56.36,0,0,0-2.61,5h6a15.88,15.88,0,0,1,1.45-2.55,17.57,17.57,0,0,1,1.43,2.55h6a51.3,51.3,0,0,0-2.66-5"/><circle class="cls-7" cx="1345.78" cy="234.93" r="14.53"/><circle class="cls-3" cx="1350.35" cy="230.56" r="1.85"/><circle class="cls-3" cx="1343.46" cy="230.56" r="2.91"/><path class="cls-3" d="M1349.55,240.37v-2.65a3.18,3.18,0,0,0-3.18-3.18h-5.83a3.18,3.18,0,0,0-3.18,3.18v2.65h12.19Z"/><path class="cls-3" d="M1352.73,233.48H1348a1.59,1.59,0,0,0-1,.37,3.92,3.92,0,0,1,3.3,3.31h4.08v-2.1A1.59,1.59,0,0,0,1352.73,233.48Z"/><circle class="cls-11" cx="386.82" cy="42.15" r="22.07"/><path class="cls-3" d="M393.36,30.71h0a0.82,0.82,0,0,0-.82.82V34H380.28a0.82,0.82,0,0,0-.82.82v18a0.82,0.82,0,0,0,.82.82h13.08a0.82,0.82,0,0,0,.82-0.82V31.52A0.82,0.82,0,0,0,393.36,30.71ZM383.14,52a1.23,1.23,0,1,1,1.23-1.23A1.23,1.23,0,0,1,383.14,52Zm0-4.09a1.23,1.23,0,1,1,1.23-1.23A1.23,1.23,0,0,1,383.14,47.88ZM386.83,52a1.23,1.23,0,1,1,1.23-1.23A1.23,1.23,0,0,1,386.83,52Zm0-4.09a1.23,1.23,0,1,1,1.23-1.23A1.22,1.22,0,0,1,386.83,47.88ZM390.5,52a1.23,1.23,0,1,1,1.23-1.23A1.23,1.23,0,0,1,390.5,52Zm0-4.09a1.23,1.23,0,1,1,1.23-1.23A1.23,1.23,0,0,1,390.5,47.88Zm1.23-5.76a0.84,0.84,0,0,1-.82.84h-8.18a0.84,0.84,0,0,1-.82-0.84V37.28a0.85,0.85,0,0,1,.82-0.85h8.18a0.85,0.85,0,0,1,.82.85v4.84Z"/><circle class="cls-11" cx="1552.33" cy="182.75" r="19.44"/><path class="cls-3" d="M1558.09,172.66h0a0.72,0.72,0,0,0-.72.72v2.16h-10.8a0.72,0.72,0,0,0-.72.72v15.84a0.72,0.72,0,0,0,.72.72h11.52a0.72,0.72,0,0,0,.72-0.72V173.38A0.72,0.72,0,0,0,1558.09,172.66Zm-9,18.73a1.08,1.08,0,1,1,1.08-1.08A1.08,1.08,0,0,1,1549.09,191.39Zm0-3.6a1.08,1.08,0,1,1,1.08-1.08A1.08,1.08,0,0,1,1549.09,187.79Zm3.24,3.6a1.08,1.08,0,1,1,1.08-1.08A1.08,1.08,0,0,1,1552.33,191.39Zm0-3.6a1.08,1.08,0,1,1,1.08-1.08A1.08,1.08,0,0,1,1552.33,187.79Zm3.24,3.6a1.08,1.08,0,1,1,1.08-1.08A1.08,1.08,0,0,1,1555.57,191.39Zm0-3.6a1.08,1.08,0,1,1,1.08-1.08A1.08,1.08,0,0,1,1555.57,187.79Zm1.08-5.07a0.74,0.74,0,0,1-.72.74h-7.21a0.74,0.74,0,0,1-.72-0.74v-4.26a0.75,0.75,0,0,1,.72-0.75h7.21a0.75,0.75,0,0,1,.72.75v4.26Z"/><circle class="cls-12" cx="464.5" cy="65.4" r="9.6"/><path class="cls-3" d="M469.13,61h-9.25a0.36,0.36,0,0,0-.36.36v6.4a0.36,0.36,0,0,0,.36.36h3.2v1.07H462V69.5a0.36,0.36,0,0,0,.36.36H467a0.36,0.36,0,0,0,.36-0.36V69.14h-1.07V68.07h2.85a0.36,0.36,0,0,0,.36-0.36v-6.4A0.36,0.36,0,0,0,469.13,61Zm-0.71,5.69a0.36,0.36,0,0,1-.36.36h-7.12a0.36,0.36,0,0,1-.36-0.36V62.38a0.36,0.36,0,0,1,.36-0.36h7.12a0.36,0.36,0,0,1,.36.36v4.27Z"/><circle class="cls-13" cx="485.27" cy="195.16" r="38.19"/><path class="cls-3" d="M484.46,189.17a1.27,1.27,0,0,0-.34-0.81l-6.07-6.77-5.55,2.68h0a1.37,1.37,0,0,0-.47.5h0l-6.42,18.53a1.5,1.5,0,0,0,.79,2.06l2.71,1a1.42,1.42,0,0,0,1.81-.87l3-8.73v19.58h9.14a1.4,1.4,0,0,0,1.4-1.42v-25.7Z"/><path class="cls-3" d="M505,203.59s-6.55-18.65-6.57-18.7v0h0a1.34,1.34,0,0,0-.52-0.58h0l-5.44-2.71-6.15,6.75,0,0,0,0h0a1.16,1.16,0,0,0-.35.76c0,0.07,0,25.72,0,25.72a1.43,1.43,0,0,0,1.41,1.43h9.25V196.9l3,8.6a1.42,1.42,0,0,0,1.81.86l2.71-1A1.41,1.41,0,0,0,505,203.59Zm-15.5,2.79a1.42,1.42,0,1,1,1.42-1.42A1.42,1.42,0,0,1,489.5,206.38Zm0-5.66a1.42,1.42,0,1,1,1.42-1.42A1.42,1.42,0,0,1,489.5,200.72Zm0-5.66a1.42,1.42,0,1,1,1.42-1.42A1.42,1.42,0,0,1,489.5,195.05Z"/><path class="cls-3" d="M491.13,180.94l-5.18-2.4V178a2.76,2.76,0,0,0,2.13-2.79,2.84,2.84,0,0,0-5.68,0h0v0a0.7,0.7,0,0,0,.71.7,0.69,0.69,0,0,0,.69-0.62,1.43,1.43,0,1,1,2.87-.07v0a1.5,1.5,0,0,1-1,1.38,1.67,1.67,0,0,0-1.22,2l-5.17,2.4,1,1.1,4.94-2.29,4.86,2.25Z"/><circle class="cls-14" cx="1426.82" cy="59.35" r="20.99"/><path class="cls-3" d="M1420.77,57.79c0,0.2.11,1.65,0.21,2.44,1.17,0.15,3.63.28,5.77,0.28s4.66-.14,5.83-0.29c0.17-.85.18-2.26,0.22-2.47a2.85,2.85,0,0,1,2.55-2.64V54.29a3.1,3.1,0,0,0-3.09-3.11h-10.89a3.1,3.1,0,0,0-3.09,3.11v0.83A2.78,2.78,0,0,1,1420.77,57.79Z"/><path class="cls-3" d="M1436.15,56.63a1.53,1.53,0,0,0-1.79,1.79c0,0.43-.1,2.73-0.47,3.09s-5,.56-7.12.57-6.74-.17-7.12-0.57-0.47-2.65-.47-3.09c0-1.44-.58-1.79-1.69-1.79-0.8,0-1.55.36-1.55,1.79a9.17,9.17,0,0,0,1.37,4.83,3.13,3.13,0,0,0,2.23,1.14h0L1419,67.52h0.76l1.23-2.88h0a35.77,35.77,0,0,0,5.74.52,33.34,33.34,0,0,0,5.74-.52h0.08l1.25,2.9h0.76l-0.49-3.12v0a3,3,0,0,0,2.13-1.12,9.51,9.51,0,0,0,1.49-4.81C1437.71,57,1436.93,56.63,1436.15,56.63Z"/><circle class="cls-15" cx="564.79" cy="221.86" r="9.61"/><path class="cls-3" d="M568.71,216.8a0.36,0.36,0,0,0-.36-0.35h-1.07a0.36,0.36,0,0,0-.36.35v1.6l1.78,1.78V216.8Z"/><path class="cls-3" d="M568.63,222.71l-3.84-3.85-3.92,3.87v3.67a0.36,0.36,0,0,0,.36.36h2.49v-2.84a0.36,0.36,0,0,1,.36-0.36h1.42a0.36,0.36,0,0,1,.36.36v2.84h2.49a0.36,0.36,0,0,0,.36-0.36v-3.56A0.18,0.18,0,0,0,568.63,222.71Z"/><path class="cls-3" d="M569.61,221.58l-4.29-4.24a0.75,0.75,0,0,0-.54-0.19,0.82,0.82,0,0,0-.61.25L560,221.58a0.53,0.53,0,0,0,.76.75l4.07-4,4.07,4A0.53,0.53,0,0,0,569.61,221.58Z"/><circle class="cls-16" cx="1505.2" cy="29.44" r="23.45"/><g id="tools"><path class="cls-3" d="M1511.43,26.1V25a0.66,0.66,0,0,0-.67-0.66h-1.29a0.66,0.66,0,0,0-.66.66v4.74a0.66,0.66,0,0,0,.66.66h1.29a0.66,0.66,0,0,0,.67-0.66V28.71h1.74l-1.69-2.61h-0.05Z"/><polygon class="cls-3" points="1513.16 26.1 1514.91 28.71 1517.48 28.71 1515.76 26.1 1513.16 26.1"/><polygon class="cls-3" points="1520.09 26.1 1517.48 26.1 1519.21 28.71 1520.09 28.71 1520.97 27.39 1520.09 26.1"/><path class="cls-3" d="M1507.28,22.63h-13.44a0.81,0.81,0,0,0-.67.89V31.3a0.8,0.8,0,0,0,.67.89h1L1494,39.36a0.7,0.7,0,0,0,.74.65h1.88a0.94,0.94,0,0,0,.86-0.65l2.19-7.17h0.64l-0.81,2.61h1.28a0.44,0.44,0,0,0,.37-0.38l0.68-2.23h5.41a0.8,0.8,0,0,0,.67-0.89V23.51A0.8,0.8,0,0,0,1507.28,22.63Zm-11.77,3.49a0.74,0.74,0,0,1-.67-0.79V25.15a0.73,0.73,0,0,1,.67-0.79h5.67a0.73,0.73,0,0,1,.66.79v0.17a0.74,0.74,0,0,1-.66.79h-5.67Z"/></g><circle class="cls-2" cx="1761.98" cy="180.58" r="19.03"/><path class="cls-3" d="M1763.39,182.88v1.61a0.81,0.81,0,0,1-.81.81h-1.2a0.81,0.81,0,0,1-.81-0.81v-1.61h-8.46v5.19a0.81,0.81,0,0,0,.81.81H1771a0.81,0.81,0,0,0,.81-0.81v-5.19h-8.46Z"/><path class="cls-3" d="M1758.45,173.4a0.4,0.4,0,0,1,.4-0.4h6.24a0.4,0.4,0,0,1,.4.4v1.71h1.41v-2a0.81,0.81,0,0,0-.81-0.81h-8.24a0.81,0.81,0,0,0-.81.81v2h1.41V173.4Z"/><path class="cls-3" d="M1771,176.52h-18.12a0.81,0.81,0,0,0-.81.81v4.13h19.74v-4.13A0.81,0.81,0,0,0,1771,176.52Z"/><circle class="cls-2" cx="175.32" cy="171.61" r="14.23"/><path class="cls-3" d="M176.37,173.32v1.21a0.6,0.6,0,0,1-.6.6h-0.9a0.6,0.6,0,0,1-.6-0.6v-1.21h-6.32v3.88a0.6,0.6,0,0,0,.6.6H182.1a0.6,0.6,0,0,0,.6-0.6v-3.88h-6.33Z"/><path class="cls-3" d="M172.69,166.24a0.3,0.3,0,0,1,.3-0.3h4.67a0.3,0.3,0,0,1,.3.3v1.28H179V166a0.6,0.6,0,0,0-.6-0.6h-6.16a0.6,0.6,0,0,0-.6.6v1.51h1.05v-1.28Z"/><path class="cls-3" d="M182.1,168.57H168.55a0.6,0.6,0,0,0-.6.6v3.09H182.7v-3.09A0.6,0.6,0,0,0,182.1,168.57Z"/><circle class="cls-17" cx="1356.16" cy="91.12" r="19.03"/><path class="cls-3" d="M1362.77,82.7l0.46-.79a0.68,0.68,0,1,0-1.17-.68l-3.25,5.59a0.56,0.56,0,0,0,0,.08l-1,1.74h7.75A7.84,7.84,0,0,0,1362.77,82.7Z"/><path class="cls-3" d="M1357.05,96.41a8.53,8.53,0,0,0,8.45-7h-16.9A8.53,8.53,0,0,0,1357.05,96.41Z"/><path class="cls-3" d="M1350,88.65a5.83,5.83,0,0,0-3.21-4.16h0a0.7,0.7,0,1,0-.52,1.3,4.4,4.4,0,0,1,2.33,2.86H1350Z"/><path class="cls-3" d="M1360.93,96.41a2.47,2.47,0,1,0,2.47,2.47A2.47,2.47,0,0,0,1360.93,96.41Zm0,3.52a1.06,1.06,0,1,1,1.06-1.06A1.06,1.06,0,0,1,1360.93,99.93Z"/><path class="cls-3" d="M1353.18,96.41a2.47,2.47,0,1,0,2.47,2.47A2.47,2.47,0,0,0,1353.18,96.41Zm0,3.52a1.06,1.06,0,1,1,1.06-1.06A1.06,1.06,0,0,1,1353.18,99.93Z"/><circle class="cls-18" cx="1795.75" cy="135.87" r="11.05"/><g id="tv"><path class="cls-3" d="M1792.06,133a0.43,0.43,0,0,0-.41.43v2a6,6,0,0,1,3.29-2.47h-2.88Z"/><path class="cls-3" d="M1800.7,131.37h-9.9a0.79,0.79,0,0,0-.79.79v4.93h1.23V133a0.43,0.43,0,0,1,.43-0.43h8.13a0.43,0.43,0,0,1,.43.43v4.07h1.25v-4.93A0.79,0.79,0,0,0,1800.7,131.37Z"/><path class="cls-3" d="M1790,137.5v0.1a0.73,0.73,0,0,0,.79.72h4.13v1.23h-2.34a0.13,0.13,0,0,0-.13.13v0.57a0.13,0.13,0,0,0,.13.13h6.31a0.13,0.13,0,0,0,.13-0.13v-0.57a0.13,0.13,0,0,0-.13-0.13h-2.33v-1.23h4.14a0.73,0.73,0,0,0,.79-0.72v-0.1H1790Z"/></g><circle class="cls-7" cx="622.75" cy="198.04" r="9.59"/><circle class="cls-3" cx="625.77" cy="195.16" r="1.22"/><circle class="cls-3" cx="621.22" cy="195.16" r="1.92"/><path class="cls-3" d="M625.24,201.63v-1.75a2.1,2.1,0,0,0-2.1-2.1h-3.85a2.1,2.1,0,0,0-2.1,2.1v1.75h8Z"/><path class="cls-3" d="M627.34,197.08h-3.15a1,1,0,0,0-.68.25,2.59,2.59,0,0,1,2.18,2.19h2.69v-1.38A1,1,0,0,0,627.34,197.08Z"/><circle class="cls-19" cx="1488.39" cy="164.97" r="12.74"/><path class="cls-3" d="M1493.54,166.24a3.4,3.4,0,0,0-3.32-3.47,3.22,3.22,0,0,1-5.83,0,3.39,3.39,0,0,0-3.31,3.47,3.52,3.52,0,0,0,1.12,2.59h0l5.15,4.33,5.1-4.33h0A3.52,3.52,0,0,0,1493.54,166.24Z"/><path class="cls-3" d="M1496.13,160.42a2.26,2.26,0,0,0-2.13-2.36,2,2,0,0,1-3.75,0,2.25,2.25,0,0,0-2.13,2.36,2.46,2.46,0,0,0,.72,1.76h0l0.18,0.16a3.79,3.79,0,0,1,1.21-.2,3.91,3.91,0,0,1,3.26,1.79l1.94-1.74h0A2.46,2.46,0,0,0,1496.13,160.42Z"/><circle class="cls-1" cx="1422.62" cy="245.83" r="19.03"/><circle class="cls-1" cx="1422.62" cy="245.83" r="19.03"/><g class="cls-20"><polygon class="cls-21" points="1448.68 253.93 1428.67 270.73 1413.34 255.39 1419.18 245.69 1433.34 238.59 1448.68 253.93"/></g><path class="cls-3" d="M1432.75,238.21h-5.38l0.76-1.28a0.65,0.65,0,0,0-.23-0.89l-1.67-1a0.65,0.65,0,0,0-.89.22l-1.74,2.92h-1.13l-1.74-2.92a0.65,0.65,0,0,0-.89-0.22l-1.67,1a0.65,0.65,0,0,0-.22.89l0.76,1.28h-5.38a0.65,0.65,0,0,0-.65.65v3.89a0.64,0.64,0,0,0,.65.65h19.42a0.65,0.65,0,0,0,.65-0.65v-3.89A0.65,0.65,0,0,0,1432.75,238.21Z"/><path class="cls-3" d="M1413.33,244.21V255a0.65,0.65,0,0,0,.65.65h8.41v0h1.29v0h8.41a0.65,0.65,0,0,0,.65-0.65V244.21h-19.42Z"/><circle class="cls-11" cx="762.77" cy="201.41" r="9.51"/><path class="cls-3" d="M765.59,196.48h0a0.35,0.35,0,0,0-.35.35v1.06H760a0.35,0.35,0,0,0-.35.35V206a0.35,0.35,0,0,0,.35.35h5.64a0.35,0.35,0,0,0,.35-0.35v-9.16A0.35,0.35,0,0,0,765.59,196.48Zm-4.4,9.16a0.53,0.53,0,1,1,.53-0.53A0.53,0.53,0,0,1,761.19,205.64Zm0-1.76a0.53,0.53,0,1,1,.53-0.53A0.53,0.53,0,0,1,761.19,203.88Zm1.59,1.76a0.53,0.53,0,1,1,.53-0.53A0.53,0.53,0,0,1,762.78,205.64Zm0-1.76a0.53,0.53,0,1,1,.53-0.53A0.53,0.53,0,0,1,762.78,203.88Zm1.58,1.76a0.53,0.53,0,1,1,.53-0.53A0.53,0.53,0,0,1,764.36,205.64Zm0-1.76a0.53,0.53,0,1,1,.53-0.53A0.53,0.53,0,0,1,764.36,203.88Zm0.53-2.48a0.36,0.36,0,0,1-.35.36H761a0.36,0.36,0,0,1-.35-0.36v-2.09a0.37,0.37,0,0,1,.35-0.37h3.53a0.37,0.37,0,0,1,.35.37v2.09Z"/><circle class="cls-12" cx="796.22" cy="154.9" r="19.03"/><path class="cls-3" d="M805.38,146.09H787.06a0.71,0.71,0,0,0-.71.71v12.69a0.7,0.7,0,0,0,.71.7h6.35v2.11h-2.12V163a0.7,0.7,0,0,0,.7.7h9.16a0.7,0.7,0,0,0,.71-0.7V162.3h-2.11v-2.11h5.64a0.7,0.7,0,0,0,.7-0.7V146.79A0.7,0.7,0,0,0,805.38,146.09ZM804,157.36a0.71,0.71,0,0,1-.71.71h-14.1a0.7,0.7,0,0,1-.71-0.71v-8.46a0.7,0.7,0,0,1,.71-0.7h14.1a0.71,0.71,0,0,1,.71.7v8.46Z"/><circle class="cls-13" cx="1188.38" cy="194.15" r="33.26"/><path class="cls-3" d="M1187.67,188.93a1.11,1.11,0,0,0-.3-0.7l-5.28-5.9-4.84,2.33h0a1.19,1.19,0,0,0-.41.43h0l-5.59,16.13a1.31,1.31,0,0,0,.68,1.79l2.36,0.83a1.24,1.24,0,0,0,1.57-.76l2.64-7.6v17h8a1.22,1.22,0,0,0,1.22-1.23V188.93Z"/><path class="cls-3" d="M1205.56,201.49s-5.7-16.24-5.72-16.28h0a1.16,1.16,0,0,0-.46-0.5h0l-4.74-2.36-5.36,5.88,0,0,0,0h0a1,1,0,0,0-.31.66c0,0.06,0,22.4,0,22.4a1.25,1.25,0,0,0,1.23,1.25h8.05V195.67l2.65,7.49a1.23,1.23,0,0,0,1.58.75l2.36-.84A1.23,1.23,0,0,0,1205.56,201.49Zm-13.49,2.43a1.23,1.23,0,1,1,1.23-1.23A1.23,1.23,0,0,1,1192.06,203.92Zm0-4.93a1.23,1.23,0,1,1,1.23-1.23A1.23,1.23,0,0,1,1192.06,199Zm0-4.93a1.23,1.23,0,1,1,1.23-1.23A1.23,1.23,0,0,1,1192.06,194.06Z"/><path class="cls-3" d="M1193.48,181.76l-4.51-2.09v-0.48a2.4,2.4,0,0,0,1.85-2.43,2.47,2.47,0,0,0-4.95,0h0v0a0.61,0.61,0,0,0,.62.61,0.61,0.61,0,0,0,.6-0.54,1.25,1.25,0,1,1,2.5-.06v0a1.31,1.31,0,0,1-.83,1.2,1.45,1.45,0,0,0-1.06,1.71l-4.5,2.09,0.87,1,4.3-2,4.23,2Z"/><circle class="cls-14" cx="1022.92" cy="189.23" r="19.03"/><path class="cls-3" d="M1017.43,187.82c0,0.18.1,1.5,0.19,2.21a52.33,52.33,0,0,0,5.23.26c2,0,4.22-.12,5.28-0.26,0.15-.77.17-2,0.19-2.24a2.59,2.59,0,0,1,2.31-2.39v-0.75a2.81,2.81,0,0,0-2.8-2.82H1018a2.81,2.81,0,0,0-2.8,2.82v0.75A2.52,2.52,0,0,1,1017.43,187.82Z"/><path class="cls-3" d="M1031.38,186.76a1.38,1.38,0,0,0-1.63,1.63c0,0.39-.09,2.47-0.42,2.8s-4.5.51-6.46,0.51-6.11-.16-6.45-0.51-0.42-2.4-.42-2.8c0-1.3-.52-1.63-1.53-1.63-0.73,0-1.4.32-1.4,1.63a8.32,8.32,0,0,0,1.24,4.38,2.84,2.84,0,0,0,2,1h0l-0.45,2.82h0.69l1.11-2.61h0a32.37,32.37,0,0,0,5.2.47,30.2,30.2,0,0,0,5.2-.47h0.07l1.13,2.63H1030l-0.45-2.83v0a2.68,2.68,0,0,0,1.93-1,8.61,8.61,0,0,0,1.35-4.36A1.37,1.37,0,0,0,1031.38,186.76Z"/><circle class="cls-15" cx="723.73" cy="170.35" r="19.06"/><path class="cls-3" d="M731.5,160.31a0.71,0.71,0,0,0-.71-0.7h-2.12a0.71,0.71,0,0,0-.71.7v3.18L731.5,167v-6.71Z"/><path class="cls-3" d="M731.35,172l-7.62-7.63L716,172.09v7.28a0.71,0.71,0,0,0,.71.71h4.95v-5.65a0.7,0.7,0,0,1,.71-0.71h2.82a0.71,0.71,0,0,1,.71.71v5.65h4.94a0.71,0.71,0,0,0,.71-0.71v-7.06A0.35,0.35,0,0,0,731.35,172Z"/><path class="cls-3" d="M733.3,169.8l-8.51-8.42a1.49,1.49,0,0,0-1.06-.37,1.62,1.62,0,0,0-1.22.5l-8.36,8.29a1.06,1.06,0,1,0,1.5,1.5l8.07-8,8.08,8A1.06,1.06,0,1,0,733.3,169.8Z"/><circle class="cls-15" cx="1322.5" cy="170.35" r="19.06"/><path class="cls-3" d="M1330.28,160.31a0.71,0.71,0,0,0-.71-0.7h-2.12a0.71,0.71,0,0,0-.71.7v3.18l3.54,3.53v-6.71Z"/><path class="cls-3" d="M1330.13,172l-7.62-7.63-7.77,7.69v7.28a0.71,0.71,0,0,0,.71.71h4.95v-5.65a0.71,0.71,0,0,1,.71-0.71h2.82a0.71,0.71,0,0,1,.71.71v5.65h4.94a0.71,0.71,0,0,0,.71-0.71v-7.06A0.35,0.35,0,0,0,1330.13,172Z"/><path class="cls-3" d="M1332.08,169.8l-8.51-8.42a1.49,1.49,0,0,0-1.06-.37,1.62,1.62,0,0,0-1.22.5l-8.36,8.29a1.06,1.06,0,0,0,1.5,1.5l8.07-8,8.08,8A1.06,1.06,0,0,0,1332.08,169.8Z"/><circle class="cls-16" cx="1250.4" cy="154.9" r="19.03"/><g id="tools-2" data-name="tools"><path class="cls-3" d="M1255.46,152.18v-0.86a0.54,0.54,0,0,0-.54-0.54h-1a0.54,0.54,0,0,0-.54.54v3.85a0.54,0.54,0,0,0,.54.54h1a0.54,0.54,0,0,0,.54-0.54V154.3h1.41l-1.37-2.11h0Z"/><polygon class="cls-3" points="1256.87 152.18 1258.28 154.3 1260.36 154.3 1258.97 152.18 1256.87 152.18"/><polygon class="cls-3" points="1262.48 152.18 1260.36 152.18 1261.77 154.3 1262.48 154.3 1263.2 153.23 1262.48 152.18"/><path class="cls-3" d="M1252.09,149.36h-10.9a0.65,0.65,0,0,0-.54.72v6.31a0.65,0.65,0,0,0,.54.72H1242l-0.69,5.82a0.57,0.57,0,0,0,.6.53h1.53a0.76,0.76,0,0,0,.7-0.53l1.78-5.82h0.52l-0.66,2.11h1a0.36,0.36,0,0,0,.3-0.31l0.55-1.81h4.39a0.65,0.65,0,0,0,.54-0.72v-6.32A0.65,0.65,0,0,0,1252.09,149.36Zm-9.55,2.83a0.6,0.6,0,0,1-.54-0.64v-0.14a0.59,0.59,0,0,1,.54-0.64h4.6a0.6,0.6,0,0,1,.54.64v0.14a0.6,0.6,0,0,1-.54.64h-4.6Z"/></g><circle class="cls-2" cx="858.25" cy="194.05" r="33.16"/><path class="cls-3" d="M860.69,198v2.81a1.4,1.4,0,0,1-1.41,1.41h-2.09a1.4,1.4,0,0,1-1.41-1.41V198H841v9a1.41,1.41,0,0,0,1.41,1.41H874a1.41,1.41,0,0,0,1.41-1.41v-9H860.69Z"/><path class="cls-3" d="M852.1,181.53a0.7,0.7,0,0,1,.7-0.7h10.88a0.7,0.7,0,0,1,.7.7v3h2.45l0-3.51a1.4,1.4,0,0,0-1.41-1.4H851a1.4,1.4,0,0,0-1.4,1.4v3.51h2.45v-3Z"/><path class="cls-3" d="M874,187H842.46a1.41,1.41,0,0,0-1.41,1.41v7.19h34.39v-7.19A1.41,1.41,0,0,0,874,187Z"/><circle class="cls-18" cx="1064.88" cy="161.88" r="9.51"/><g id="tv-2" data-name="tv"><path class="cls-3" d="M1061.7,159.4a0.37,0.37,0,0,0-.36.37v1.75a5.16,5.16,0,0,1,2.83-2.13h-2.48Z"/><path class="cls-3" d="M1069.14,158h-8.52a0.68,0.68,0,0,0-.68.68v4.25H1061v-3.5a0.37,0.37,0,0,1,.37-0.37h7a0.37,0.37,0,0,1,.37.37v3.5h1.08v-4.25A0.68,0.68,0,0,0,1069.14,158Z"/><path class="cls-3" d="M1059.94,163.28v0.09a0.63,0.63,0,0,0,.68.62h3.55V165h-2a0.11,0.11,0,0,0-.11.11v0.49a0.11,0.11,0,0,0,.11.11h5.43a0.11,0.11,0,0,0,.11-0.11v-0.49a0.11,0.11,0,0,0-.11-0.11h-2V164h3.56a0.63,0.63,0,0,0,.68-0.62v-0.09h-9.88Z"/></g><circle class="cls-19" cx="934.29" cy="180.58" r="19.08"/><path class="cls-3" d="M942,182.47a5.09,5.09,0,0,0-5-5.2,4.83,4.83,0,0,1-8.73,0,5.09,5.09,0,0,0-5,5.2,5.28,5.28,0,0,0,1.68,3.87h0l7.72,6.48,7.65-6.49h0A5.29,5.29,0,0,0,942,182.47Z"/><path class="cls-3" d="M945.89,173.75a3.38,3.38,0,0,0-3.19-3.54,3,3,0,0,1-5.61,0,3.38,3.38,0,0,0-3.19,3.54,3.68,3.68,0,0,0,1.08,2.63h0l0.26,0.24a5.66,5.66,0,0,1,1.82-.3,5.86,5.86,0,0,1,4.88,2.68l2.91-2.61h0A3.69,3.69,0,0,0,945.89,173.75Z"/><circle class="cls-1" cx="1112.31" cy="180.52" r="19.03"/><circle class="cls-1" cx="1112.31" cy="180.52" r="19.03"/><g class="cls-22"><polygon class="cls-21" points="1138.37 188.62 1118.36 205.42 1103.02 190.08 1108.87 180.38 1123.03 173.28 1138.37 188.62"/></g><path class="cls-3" d="M1122.44,172.9h-5.38l0.76-1.28a0.65,0.65,0,0,0-.23-0.89l-1.67-1a0.65,0.65,0,0,0-.89.22l-1.74,2.92h-1.13l-1.74-2.92a0.65,0.65,0,0,0-.89-0.22l-1.67,1a0.65,0.65,0,0,0-.22.89l0.76,1.28H1103a0.65,0.65,0,0,0-.65.65v3.89a0.64,0.64,0,0,0,.65.65h19.42a0.65,0.65,0,0,0,.65-0.65v-3.89A0.65,0.65,0,0,0,1122.44,172.9Z"/><path class="cls-3" d="M1103,178.9v10.83a0.65,0.65,0,0,0,.65.65h8.41v0h1.29v0h8.41a0.65,0.65,0,0,0,.65-0.65V178.9H1103Z"/><circle class="cls-16" cx="981.14" cy="161.88" r="9.51"/><g id="tools-3" data-name="tools"><path class="cls-3" d="M983.67,160.52v-0.43a0.27,0.27,0,0,0-.27-0.27h-0.52a0.27,0.27,0,0,0-.27.27V162a0.27,0.27,0,0,0,.27.27h0.52a0.27,0.27,0,0,0,.27-0.27v-0.44h0.71l-0.69-1.06h0Z"/><polygon class="cls-3" points="984.37 160.52 985.08 161.58 986.12 161.58 985.42 160.52 984.37 160.52"/><polygon class="cls-3" points="987.18 160.52 986.12 160.52 986.83 161.58 987.18 161.58 987.54 161.04 987.18 160.52"/><path class="cls-3" d="M982,159.11h-5.45a0.33,0.33,0,0,0-.27.36v3.16a0.33,0.33,0,0,0,.27.36H977l-0.35,2.91a0.28,0.28,0,0,0,.3.26h0.76a0.38,0.38,0,0,0,.35-0.26l0.89-2.91h0.26L978.84,164h0.52a0.18,0.18,0,0,0,.15-0.15l0.28-.9H982a0.32,0.32,0,0,0,.27-0.36v-3.16A0.32,0.32,0,0,0,982,159.11Zm-4.77,1.41a0.3,0.3,0,0,1-.27-0.32v-0.07a0.3,0.3,0,0,1,.27-0.32h2.3a0.3,0.3,0,0,1,.27.32v0.07a0.3,0.3,0,0,1-.27.32h-2.3Z"/></g><circle class="cls-11" cx="1101.99" cy="79.4" r="19.03"/><path class="cls-3" d="M1107.63,69.54h0a0.7,0.7,0,0,0-.7.7v2.12h-10.57a0.71,0.71,0,0,0-.71.7V88.57a0.7,0.7,0,0,0,.71.7h11.27a0.7,0.7,0,0,0,.71-0.7V70.24A0.7,0.7,0,0,0,1107.63,69.54Zm-8.81,18.33a1.06,1.06,0,1,1,1.06-1.06A1.06,1.06,0,0,1,1098.82,87.86Zm0-3.52a1.06,1.06,0,1,1,1.06-1.06A1.06,1.06,0,0,1,1098.82,84.34Zm3.17,3.52a1.06,1.06,0,1,1,1.06-1.06A1.06,1.06,0,0,1,1102,87.86Zm0-3.52a1.06,1.06,0,1,1,1.06-1.06A1.06,1.06,0,0,1,1102,84.34Zm3.17,3.52a1.06,1.06,0,1,1,1.06-1.06A1.06,1.06,0,0,1,1105.17,87.86Zm0-3.52a1.06,1.06,0,1,1,1.06-1.06A1.06,1.06,0,0,1,1105.17,84.34Zm1.06-5a0.72,0.72,0,0,1-.7.73h-7.05a0.72,0.72,0,0,1-.7-0.73V75.2a0.73,0.73,0,0,1,.7-0.73h7.05a0.73,0.73,0,0,1,.7.73v4.17Z"/><circle class="cls-12" cx="1288.86" cy="98.43" r="19.03"/><path class="cls-3" d="M1298,89.62H1279.7a0.71,0.71,0,0,0-.71.71V103a0.7,0.7,0,0,0,.71.7H1286v2.11h-2.12v0.7a0.7,0.7,0,0,0,.7.71h9.16a0.7,0.7,0,0,0,.71-0.71v-0.7h-2.11v-2.11H1298a0.7,0.7,0,0,0,.7-0.7V90.32A0.7,0.7,0,0,0,1298,89.62Zm-1.4,11.28a0.7,0.7,0,0,1-.71.7h-14.1a0.7,0.7,0,0,1-.71-0.7V92.44a0.7,0.7,0,0,1,.71-0.7h14.1a0.71,0.71,0,0,1,.71.7v8.46Z"/><circle class="cls-12" cx="295.31" cy="23.65" r="37.89"/><path class="cls-3" d="M313.56,6.1H277.06a1.41,1.41,0,0,0-1.41,1.41V32.77a1.4,1.4,0,0,0,1.41,1.4H289.7v4.21h-4.22v1.4a1.4,1.4,0,0,0,1.4,1.41h18.24a1.4,1.4,0,0,0,1.41-1.41v-1.4h-4.21V34.18h11.23a1.4,1.4,0,0,0,1.4-1.4V7.51A1.4,1.4,0,0,0,313.56,6.1Zm-2.8,22.46a1.4,1.4,0,0,1-1.41,1.4H281.28a1.4,1.4,0,0,1-1.41-1.4V11.72a1.4,1.4,0,0,1,1.41-1.4h28.07a1.4,1.4,0,0,1,1.41,1.4V28.56Z"/><circle class="cls-13" cx="1224.73" cy="74.49" r="19.14"/><path class="cls-3" d="M1224.33,71.49a0.64,0.64,0,0,0-.17-0.4l-3-3.39L1218.33,69h0a0.68,0.68,0,0,0-.24.25h0l-3.22,9.29a0.75,0.75,0,0,0,.39,1l1.36,0.48a0.71,0.71,0,0,0,.91-0.44l1.52-4.38h0v9.8h4.58a0.7,0.7,0,0,0,.7-0.71V71.49Z"/><path class="cls-3" d="M1234.62,78.72l-3.29-9.37h0a0.67,0.67,0,0,0-.26-0.29h0l-2.73-1.36-3.08,3.38h0a0.58,0.58,0,0,0-.18.38s0,12.89,0,12.89a0.72,0.72,0,0,0,.71.72h4.64V75.37l1.52,4.31a0.71,0.71,0,0,0,.91.43l1.36-.48A0.71,0.71,0,0,0,1234.62,78.72Zm-7.77,1.4a0.71,0.71,0,1,1,.71-0.71A0.71,0.71,0,0,1,1226.85,80.12Zm0-2.84a0.71,0.71,0,1,1,.71-0.71A0.71,0.71,0,0,1,1226.85,77.28Zm0-2.84a0.71,0.71,0,1,1,.71-0.71A0.71,0.71,0,0,1,1226.85,74.44Z"/><path class="cls-3" d="M1227.67,67.37l-2.6-1.2V65.88a1.38,1.38,0,0,0,1.07-1.4,1.42,1.42,0,0,0-2.85,0h0a0.35,0.35,0,0,0,.7,0,0.72,0.72,0,1,1,1.44,0h0a0.75,0.75,0,0,1-.48.69,0.84,0.84,0,0,0-.61,1l-2.59,1.2,0.5,0.55,2.48-1.15,2.44,1.13Z"/><circle class="cls-14" cx="757" cy="98.43" r="18.77"/><path class="cls-3" d="M751.58,97c0,0.18.1,1.48,0.19,2.18,1,0.13,3.24.25,5.16,0.26s4.17-.12,5.21-0.26c0.15-.76.16-2,0.19-2.2a2.55,2.55,0,0,1,2.28-2.36V93.9a2.77,2.77,0,0,0-2.76-2.78h-9.73a2.77,2.77,0,0,0-2.76,2.78v0.75A2.48,2.48,0,0,1,751.58,97Z"/><path class="cls-3" d="M765.34,96a1.36,1.36,0,0,0-1.6,1.6c0,0.39-.09,2.44-0.42,2.76s-4.43.5-6.37,0.51-6-.16-6.37-0.51-0.42-2.37-.42-2.76c0-1.28-.52-1.6-1.51-1.6a1.32,1.32,0,0,0-1.39,1.6,8.2,8.2,0,0,0,1.23,4.32,2.8,2.8,0,0,0,2,1h0L750,105.73h0.68l1.1-2.57h0a32,32,0,0,0,5.13.46,29.84,29.84,0,0,0,5.13-.46h0.07l1.12,2.59h0.68l-0.44-2.79v0a2.64,2.64,0,0,0,1.9-1,8.5,8.5,0,0,0,1.33-4.3A1.35,1.35,0,0,0,765.34,96Z"/><circle class="cls-15" cx="1260.69" cy="37.25" r="9.61"/><path class="cls-3" d="M1264.6,32.19a0.36,0.36,0,0,0-.36-0.35h-1.07a0.36,0.36,0,0,0-.36.35v1.6l1.78,1.78V32.19Z"/><path class="cls-3" d="M1264.53,38.1l-3.84-3.85-3.92,3.87V41.8a0.36,0.36,0,0,0,.36.36h2.49V39.31A0.36,0.36,0,0,1,1260,39h1.42a0.36,0.36,0,0,1,.36.36v2.84h2.49a0.36,0.36,0,0,0,.36-0.36V38.24A0.18,0.18,0,0,0,1264.53,38.1Z"/><path class="cls-3" d="M1265.51,37l-4.29-4.24a0.75,0.75,0,0,0-.54-0.19,0.82,0.82,0,0,0-.61.25L1255.86,37a0.53,0.53,0,0,0,.76.75l4.07-4,4.07,4A0.53,0.53,0,1,0,1265.51,37Z"/><circle class="cls-16" cx="821.93" cy="74.49" r="19.02"/><g id="tools-4" data-name="tools"><path class="cls-3" d="M827,71.78V70.92a0.54,0.54,0,0,0-.54-0.54h-1a0.54,0.54,0,0,0-.54.54v3.85a0.54,0.54,0,0,0,.54.54h1a0.54,0.54,0,0,0,.54-0.54V73.9h1.41L827,71.78h0Z"/><polygon class="cls-3" points="828.39 71.78 829.8 73.9 831.89 73.9 830.49 71.78 828.39 71.78"/><polygon class="cls-3" points="834 71.78 831.89 71.78 833.3 73.9 834 73.9 834.72 72.83 834 71.78"/><path class="cls-3" d="M823.61,69h-10.9a0.65,0.65,0,0,0-.54.72V76a0.65,0.65,0,0,0,.54.72h0.84l-0.69,5.82a0.57,0.57,0,0,0,.6.53H815a0.76,0.76,0,0,0,.7-0.53l1.78-5.82H818l-0.66,2.11h1a0.36,0.36,0,0,0,.3-0.31l0.55-1.81h4.39a0.65,0.65,0,0,0,.54-0.72V69.68A0.65,0.65,0,0,0,823.61,69Zm-9.55,2.83a0.6,0.6,0,0,1-.54-0.64V71a0.6,0.6,0,0,1,.54-0.64h4.6a0.6,0.6,0,0,1,.54.64v0.14a0.6,0.6,0,0,1-.54.64h-4.6Z"/></g><circle class="cls-2" cx="1158.38" cy="46.38" r="19.03"/><path class="cls-3" d="M1159.78,48.67v1.62a0.81,0.81,0,0,1-.81.81h-1.2a0.81,0.81,0,0,1-.81-0.81V48.67h-8.46v5.19a0.81,0.81,0,0,0,.81.81h18.12a0.81,0.81,0,0,0,.81-0.81V48.67h-8.47Z"/><path class="cls-3" d="M1154.85,39.2a0.4,0.4,0,0,1,.4-0.4h6.24a0.4,0.4,0,0,1,.4.4v1.71h1.41v-2a0.81,0.81,0,0,0-.81-0.81h-8.24a0.81,0.81,0,0,0-.81.81v2h1.41V39.2Z"/><path class="cls-3" d="M1167.44,42.32h-18.12a0.81,0.81,0,0,0-.81.81v4.13h19.74V43.13A0.81,0.81,0,0,0,1167.44,42.32Z"/><circle class="cls-17" cx="887.47" cy="46.38" r="19.03"/><path class="cls-3" d="M894.08,38l0.46-.79a0.68,0.68,0,1,0-1.17-.68l-3.25,5.59a0.53,0.53,0,0,0,0,.08l-1,1.75h7.75A7.84,7.84,0,0,0,894.08,38Z"/><path class="cls-3" d="M888.36,51.67a8.53,8.53,0,0,0,8.45-7h-16.9A8.53,8.53,0,0,0,888.36,51.67Z"/><path class="cls-3" d="M881.33,43.91a5.83,5.83,0,0,0-3.21-4.16h0a0.7,0.7,0,0,0-.29-0.06,0.7,0.7,0,0,0-.23,1.37,4.4,4.4,0,0,1,2.33,2.86h1.42Z"/><path class="cls-3" d="M892.24,51.67a2.47,2.47,0,1,0,2.47,2.47A2.47,2.47,0,0,0,892.24,51.67Zm0,3.52a1.06,1.06,0,1,1,1.06-1.06A1.06,1.06,0,0,1,892.24,55.19Z"/><path class="cls-3" d="M884.49,51.67A2.47,2.47,0,1,0,887,54.13,2.47,2.47,0,0,0,884.49,51.67Zm0,3.52a1.06,1.06,0,1,1,1.06-1.06A1.06,1.06,0,0,1,884.49,55.19Z"/><circle class="cls-17" cx="683.15" cy="246.73" r="15.58"/><path class="cls-3" d="M688.56,239.84l0.37-.64a0.55,0.55,0,1,0-1-.56l-2.66,4.58a0.43,0.43,0,0,0,0,.07l-0.84,1.43h6.35A6.42,6.42,0,0,0,688.56,239.84Z"/><path class="cls-3" d="M683.88,251.06a7,7,0,0,0,6.92-5.76H677A7,7,0,0,0,683.88,251.06Z"/><path class="cls-3" d="M678.12,244.71a4.77,4.77,0,0,0-2.63-3.41h0a0.57,0.57,0,0,0-.24-0.05,0.57,0.57,0,0,0-.19,1.12,3.6,3.6,0,0,1,1.91,2.34h1.16Z"/><path class="cls-3" d="M687.05,251.06a2,2,0,1,0,2,2A2,2,0,0,0,687.05,251.06Zm0,2.89a0.87,0.87,0,1,1,.87-0.87A0.87,0.87,0,0,1,687.05,253.95Z"/><path class="cls-3" d="M680.71,251.06a2,2,0,1,0,2,2A2,2,0,0,0,680.71,251.06Zm0,2.89a0.87,0.87,0,1,1,.87-0.87A0.87,0.87,0,0,1,680.71,253.95Z"/><circle class="cls-18" cx="784.55" cy="36.49" r="9.89"/><g id="tv-3" data-name="tv"><path class="cls-3" d="M781.24,33.92a0.39,0.39,0,0,0-.37.39v1.82a5.35,5.35,0,0,1,2.95-2.21h-2.58Z"/><path class="cls-3" d="M789,32.46h-8.86a0.71,0.71,0,0,0-.7.71v4.42h1.1V33.94a0.39,0.39,0,0,1,.39-0.39h7.28a0.39,0.39,0,0,1,.39.39v3.64h1.12V33.17A0.7,0.7,0,0,0,789,32.46Z"/><path class="cls-3" d="M779.41,37.95V38a0.65,0.65,0,0,0,.7.64h3.69v1.1h-2.1a0.11,0.11,0,0,0-.11.11V40.4a0.11,0.11,0,0,0,.11.11h5.65a0.11,0.11,0,0,0,.11-0.11V39.89a0.11,0.11,0,0,0-.11-0.11h-2.08v-1.1H789a0.65,0.65,0,0,0,.71-0.64V37.95H779.41Z"/></g><circle class="cls-18" cx="628.75" cy="133.65" r="15.59"/><g id="tv-4" data-name="tv"><path class="cls-3" d="M623.54,129.6a0.61,0.61,0,0,0-.58.61v2.87a8.43,8.43,0,0,1,4.64-3.48h-4.06Z"/><path class="cls-3" d="M635.73,127.3h-14a1.11,1.11,0,0,0-1.11,1.11v7h1.73v-5.74A0.61,0.61,0,0,1,623,129h11.47a0.61,0.61,0,0,1,.61.61v5.74h1.77v-7A1.11,1.11,0,0,0,635.73,127.3Z"/><path class="cls-3" d="M620.65,136v0.14a1,1,0,0,0,1.11,1h5.82v1.73h-3.3a0.18,0.18,0,0,0-.18.18v0.8a0.18,0.18,0,0,0,.18.18h8.9a0.18,0.18,0,0,0,.18-0.18V139a0.18,0.18,0,0,0-.18-0.18H629.9v-1.73h5.84a1,1,0,0,0,1.11-1V136H620.65Z"/></g><circle class="cls-7" cx="1022.97" cy="60.26" r="33.26"/><circle class="cls-3" cx="1033.44" cy="50.26" r="4.25"/><circle class="cls-3" cx="1017.67" cy="50.26" r="6.67"/><path class="cls-3" d="M1031.62,72.7V66.63a7.28,7.28,0,0,0-7.28-7.28H1011a7.28,7.28,0,0,0-7.28,7.28V72.7h27.91Z"/><path class="cls-3" d="M1038.9,56.93H1028a3.62,3.62,0,0,0-2.34.86,9,9,0,0,1,7.56,7.59h9.34v-4.8A3.64,3.64,0,0,0,1038.9,56.93Z"/><circle class="cls-19" cx="963.92" cy="24.22" r="9.51"/><path class="cls-3" d="M967.77,25.16a2.54,2.54,0,0,0-2.48-2.59,2.4,2.4,0,0,1-4.35,0,2.54,2.54,0,0,0-2.48,2.59,2.63,2.63,0,0,0,.84,1.93h0l3.85,3.23,3.81-3.23h0A2.63,2.63,0,0,0,967.77,25.16Z"/><path class="cls-3" d="M969.7,20.81A1.68,1.68,0,0,0,968.11,19a1.51,1.51,0,0,1-2.8,0,1.68,1.68,0,0,0-1.59,1.76,1.83,1.83,0,0,0,.54,1.31h0l0.13,0.12a2.8,2.8,0,0,1,.91-0.15,2.92,2.92,0,0,1,2.43,1.33l1.45-1.3h0A1.84,1.84,0,0,0,969.7,20.81Z"/><circle class="cls-1" cx="943.78" cy="79.34" r="19.03"/><circle class="cls-1" cx="943.78" cy="79.34" r="19.03"/><g class="cls-23"><polygon class="cls-21" points="969.84 87.44 949.83 104.24 934.49 88.9 940.34 79.19 954.5 72.1 969.84 87.44"/></g><path class="cls-3" d="M953.91,71.71h-5.38l0.76-1.28a0.65,0.65,0,0,0-.23-0.89l-1.67-1a0.65,0.65,0,0,0-.89.22l-1.74,2.92v0h-1.12v0l-1.74-2.92a0.65,0.65,0,0,0-.89-0.22l-1.67,1a0.65,0.65,0,0,0-.22.89l0.76,1.28h-5.38a0.65,0.65,0,0,0-.65.65v3.88a0.65,0.65,0,0,0,.65.65h19.42a0.65,0.65,0,0,0,.65-0.65V72.36A0.65,0.65,0,0,0,953.91,71.71Z"/><path class="cls-3" d="M934.49,77.72V88.54a0.65,0.65,0,0,0,.65.65h8.41v0h1.29v0h8.41a0.65,0.65,0,0,0,.65-0.65V77.72H934.49Z"/><circle class="cls-1" cx="1081.32" cy="24.05" r="9.51"/><path class="cls-3" d="M1082,22a3.11,3.11,0,0,1-.8.71,2.67,2.67,0,0,1-.72-0.7,3.78,3.78,0,1,0,1.52,0m-0.72,6.21a2.5,2.5,0,1,1,2.5-2.5,2.5,2.5,0,0,1-2.5,2.5"/><path class="cls-3" d="M1081.24,22.13a7.17,7.17,0,0,0,1.74-1.92,4.82,4.82,0,0,0-.34-1.41c-0.22-.05-1.18-0.51-1.4-0.51a13.83,13.83,0,0,0-1.36.52,5.27,5.27,0,0,0-.21,1.4,6.55,6.55,0,0,0,1.57,1.92"/><circle class="cls-2" cx="1081.32" cy="124.5" r="8.81"/><path class="cls-3" d="M1084.14,123.91l-0.85-2h0.64a0.32,0.32,0,1,0,0-.65h-1.17a0.32,0.32,0,0,0-.28.41l0.51,1.22h-3.09l-0.36-.83a1.07,1.07,0,0,0,.91-0.16c0.06-.3.06-0.3-0.95-0.36s-0.89-.43-1.31-0.22,0.15,0.91.63,0.78h0l0.38,0.88-0.54,1a2,2,0,1,0,1.29,2.18h0.6a0.65,0.65,0,0,0,1.21-.33,0.63,0.63,0,0,0,0-.15l1.66-1.73,0.1,0.23A2,2,0,1,0,1084.14,123.91Zm-6.08,3.21a1.3,1.3,0,1,1,0-2.61,1.27,1.27,0,0,1,.31,0l-0.61,1.12a0.32,0.32,0,0,0,.29.47h1.26A1.3,1.3,0,0,1,1078.06,127.11Zm0.55-1.63,0.34-.62a1.31,1.31,0,0,1,.37.62h-0.71Zm1.38,0a2,2,0,0,0-.72-1.22l0.3-.55,0.75,1.76H1080Zm1.35-.3a0.62,0.62,0,0,0-.19,0,0.67,0.67,0,0,0-.24,0l-0.72-1.68h2.73Zm3.25,1.93a1.3,1.3,0,0,1-.79-2.33l0.33,0.79a0.52,0.52,0,1,0,.6-0.25l-0.33-.79a1.29,1.29,0,0,1,1.49,1.28A1.31,1.31,0,0,1,1084.59,127.11Z"/><circle class="cls-4" cx="964.53" cy="124.5" r="8.81"/><path class="cls-3" d="M961.78,123.47a1,1,0,0,0-1.35-.28,1.15,1.15,0,0,0-.17,1.7c0.43,0.49,1.09,1,1.65.58S962.21,124,961.78,123.47Z"/><path class="cls-3" d="M967,126.87c-0.7-2.61-2.45-2.52-2.45-2.52-1.57,0-2.51,2.56-2.53,2.61a1.43,1.43,0,0,0,0,1c0.39,0.79,1.75.64,2.56,0.67a16.16,16.16,0,0,0,1.83-.07,0.84,0.84,0,0,0,.74-1C967.1,127.33,967,126.86,967,126.87Z"/><path class="cls-3" d="M963.68,123.65c0.61-.22.6-1.44,0.39-2.19a1.23,1.23,0,0,0-1.38-1A1.12,1.12,0,0,0,962,122C962.21,122.79,963,123.9,963.68,123.65Z"/><path class="cls-3" d="M968.64,123.19a1,1,0,0,0-1.35.28c-0.43.49-.74,1.52-0.14,2s1.22-.08,1.65-0.58A1.15,1.15,0,0,0,968.64,123.19Z"/><path class="cls-3" d="M965.38,123.65c0.69,0.24,1.47-.86,1.68-1.62a1.12,1.12,0,0,0-.69-1.59,1.23,1.23,0,0,0-1.38,1C964.78,122.22,964.77,123.44,965.38,123.65Z"/><circle class="cls-5" cx="1167.2" cy="98.43" r="8.82"/><path class="cls-3" d="M1171.6,97h-0.36a0.35,0.35,0,0,0-.29.13l-0.57-1h0a1.57,1.57,0,0,0-1.51-1.06h-3.3a1.45,1.45,0,0,0-1.51,1.06h0l-0.57,1a0.49,0.49,0,0,0-.34-0.13h-0.36a0.49,0.49,0,1,0,0,1h0.16v2.61a0.33,0.33,0,0,0,.33.33h0v0.57a0.41,0.41,0,0,0,.41.41h0.82a0.41,0.41,0,0,0,.41-0.41v-0.57h4.57v0.57a0.41,0.41,0,0,0,.41.41h0.82a0.41,0.41,0,0,0,.41-0.41v-0.57a0.33,0.33,0,0,0,.33-0.33V97.94h0.16a0.49,0.49,0,0,0,.5-0.48A0.51,0.51,0,0,0,1171.6,97Zm-7-.6a0.94,0.94,0,0,1,.94-0.71h3.3a0.94,0.94,0,0,1,.94.71l0.69,1.25h-6.56Zm0.48,3.86h-0.89a0.65,0.65,0,0,1,0-1.3,3.9,3.9,0,0,1,.94.34h0A0.49,0.49,0,0,1,1165.11,100.22Zm3.07,0h-2a0.33,0.33,0,1,1,0-.65h2A0.33,0.33,0,0,1,1168.18,100.23Zm2,0h-0.89a0.49,0.49,0,0,1-.09-1h0a3.81,3.81,0,0,1,.94-0.34A0.65,0.65,0,0,1,1170.18,100.22Z"/><circle class="cls-8" cx="1022.93" cy="129.44" r="9.49"/><g id="computers-4" data-name="computers"><path class="cls-3" d="M1028.19,133.24l-0.91-1.63a0.57,0.57,0,0,0-.49-0.42H1019a0.55,0.55,0,0,0-.49.42l-0.9,1.61a0.38,0.38,0,0,0,.41.42h9.7A0.38,0.38,0,0,0,1028.19,133.24Zm-4.5.07h-1.52c-0.23,0-.35-0.05-0.27-0.25l0.08-.21a0.29,0.29,0,0,1,.35-0.25h1.22a0.29,0.29,0,0,1,.35.25l0.07,0.21C1024,133.26,1023.92,133.31,1023.69,133.31Z"/><path class="cls-3" d="M1019.12,130.84h7.62a0.42,0.42,0,0,0,.41-0.42v-4.8a0.42,0.42,0,0,0-.41-0.42h-7.62a0.41,0.41,0,0,0-.41.42v4.8A0.41,0.41,0,0,0,1019.12,130.84Zm0.65-4.16a0.41,0.41,0,0,1,.41-0.42h5.49a0.42,0.42,0,0,1,.42.42v2.69a0.42,0.42,0,0,1-.42.42h-5.49a0.41,0.41,0,0,1-.41-0.42v-2.69Z"/></g><circle class="cls-10" cx="1139.36" cy="136.48" r="9.51"/><g id="music-3" data-name="music"><path class="cls-3" d="M1143.22,131.38c0-.39-0.19-0.46-0.41-0.4l-5.56,1.71a0.46,0.46,0,0,0-.38.48v5.38a2.27,2.27,0,0,0-1.27-.38,1.92,1.92,0,1,0,2.13,1.91s0-.07,0-0.1v-5.61l4.67-1.27v4.19a2.27,2.27,0,0,0-1.29-.4,1.92,1.92,0,1,0,2.13,1.91v0h0v-7.41Z"/></g><circle class="cls-1" cx="906.5" cy="136.48" r="8.82"/><g id="appliances-3" data-name="appliances"><path class="cls-3" d="M911.92,135.42V134.9c0-2.37-2.77-2.61-2.77-2.61l-2.88-.36V131.7a0.35,0.35,0,0,0-.35-0.35h-0.71a0.35,0.35,0,0,0-.35.35v0.16a2.44,2.44,0,0,0-2.46,1.94l-0.3,1.41c-0.39,2,1,1.79,1,1.79h0.67v1.07a2.24,2.24,0,0,0-.82.2,1.62,1.62,0,0,0-.23.93,4.19,4.19,0,0,0,.48,2.17,1.67,1.67,0,0,0,.87.23h0a2,2,0,0,0,1-.23,4.18,4.18,0,0,0,.49-2.16,1.63,1.63,0,0,0-.23-0.94,2.23,2.23,0,0,0-.83-0.2V137h1.41v1.06a4.49,4.49,0,0,0-.54.08,0.91,0.91,0,0,1,.31.12,0.88,0.88,0,0,1,.19.5h0v2.11a0.53,0.53,0,0,1-.17-0.09l0,0a1.39,1.39,0,0,1-.29.62l0,0a1.79,1.79,0,0,0,.83.2h0a2,2,0,0,0,1-.23,4.17,4.17,0,0,0,.49-2.16,1.61,1.61,0,0,0-.23-0.94,2.22,2.22,0,0,0-.82-0.2V137h3.85A1.46,1.46,0,0,0,911.92,135.42Zm-8.13,5.46a0.52,0.52,0,0,1-.17-0.09,3.51,3.51,0,0,1-.27-1.9,1.23,1.23,0,0,1,.44-0.12v2.11Zm1.17-2a3.53,3.53,0,0,1-.28,1.91,0.5,0.5,0,0,1-.18.09v-2.11A1.29,1.29,0,0,1,905,138.89Zm2.12,0a3.53,3.53,0,0,1-.28,1.91,0.5,0.5,0,0,1-.18.09v-2.11A1.29,1.29,0,0,1,907.08,138.89Zm1.66-4h-4.58s-0.53,0-.38-0.7a1.11,1.11,0,0,1,1.08-1.08l3.53,0.35s1.05,0.15,1.05.84A0.66,0.66,0,0,1,908.74,134.89Z"/></g><circle class="cls-11" cx="879.91" cy="98.43" r="9.51"/><path class="cls-3" d="M886.53,97.48s-5.8-2.83-6.14-3a0.77,0.77,0,0,0-.26-0.09,0.66,0.66,0,0,0-.25.09h0l-6.1,3a0.23,0.23,0,0,0-.15.19,0.24,0.24,0,0,0,.1.17l0.92,0.75v2a0.4,0.4,0,0,0-.2.35,0.39,0.39,0,0,0,0,.19h0a0.32,0.32,0,0,1-.08.44,0.91,0.91,0,0,0-.38.56,0.43,0.43,0,0,0,.43.43h0.76a0.43,0.43,0,0,0,.43-0.43,0.92,0.92,0,0,0-.38-0.56,0.3,0.3,0,0,1-.09-0.42h0a0.4,0.4,0,0,0,.06-0.21,0.41,0.41,0,0,0-.2-0.35V98.9l0.42,0.31,0.87,0.74,0.14,0.13v1h0a0.21,0.21,0,0,1,0-.05V101l0,0v0l0,0h0l0.12-.11h0l0.07,0h0l0.07,0h0l0.08,0h0l0.35-.14h0l0.12,0h0l0.12,0h0l0.14,0h0a10.76,10.76,0,0,1,2.35-.24,10,10,0,0,1,2.64.31h0a3.77,3.77,0,0,1,.45.16h0l0.07,0h0l0.06,0h0l0.06,0h0l0.16,0.11h0l0,0h0l0,0v0l0,0v0l0,0h0l0,0v-0.94l2.8-2.28A0.2,0.2,0,0,0,886.53,97.48Z"/><path class="cls-3" d="M880.14,102.13c1.78,0,3.26-.35,3.6-0.82-0.33-.47-1.82-0.82-3.6-0.82s-3.27.35-3.6,0.82C876.88,101.78,878.36,102.13,880.14,102.13Z"/><path class="cls-11" d="M883.79,98.24l0-.09c-0.2-.51-1.74-0.9-3.62-0.9h0c-1.88,0-3.42.4-3.62,0.9l0,0.09v0.41l0-.09c0.2-.51,1.74-0.9,3.62-0.9h0c1.88,0,3.42.4,3.62,0.9l0,0.09V98.24Z"/><circle class="cls-1" cx="1204.97" cy="125.52" r="9.51"/><path class="cls-3" d="M1205.69,123.42a3.08,3.08,0,0,1-.8.71,2.64,2.64,0,0,1-.72-0.7,3.78,3.78,0,1,0,1.52,0m-0.72,6.21a2.5,2.5,0,1,1,2.5-2.5,2.5,2.5,0,0,1-2.5,2.5"/><path class="cls-3" d="M1204.89,123.59a7.18,7.18,0,0,0,1.74-1.92,4.83,4.83,0,0,0-.34-1.41c-0.22-.05-1.18-0.51-1.4-0.51a14.45,14.45,0,0,0-1.36.52,5.29,5.29,0,0,0-.21,1.4,6.56,6.56,0,0,0,1.57,1.92"/><circle class="cls-5" cx="840.26" cy="126.97" r="9.51"/><path class="cls-3" d="M844.39,126.34a26.48,26.48,0,0,0-2.55-3.15h0s-0.12-.15-0.29-0.35c-0.29-.35-0.56-0.66-0.78-0.9,0.39-.43,1-1.16,1-1.18a0.58,0.58,0,0,0-.45-0.41s-0.69.66-1.1,1.07c-0.41-.41-1.08-1.07-1.1-1.07a0.73,0.73,0,0,0-.28.14,0.72,0.72,0,0,0-.17.27s0.65,0.76,1,1.19l-0.57.65c-0.27.31-.5,0.57-0.5,0.59h0c-1.13,1.35-2.45,3-2.56,3.15a48.79,48.79,0,0,0-2.26,4.33H839a13.75,13.75,0,0,1,1.26-2.21,15.21,15.21,0,0,1,1.24,2.21h5.19a44.43,44.43,0,0,0-2.3-4.33"/><circle class="cls-12" cx="1471.6" cy="123.51" r="23.32"/><path class="cls-3" d="M1459.51,113.58v15.55a0.86,0.86,0,0,0,.86.86h6.91v2.59h-2.59v0.86a0.86,0.86,0,0,0,.87.86h11.23a0.86,0.86,0,0,0,.86-0.86v-0.86h-2.6V130h7.78a0.86,0.86,0,0,0,.86-0.86V113.58a0.86,0.86,0,0,0-.86-0.86h-22.46A0.86,0.86,0,0,0,1459.51,113.58Zm2.58,2.59a0.87,0.87,0,0,1,.87-0.86h17.28a0.86,0.86,0,0,1,.86.86v10.37a0.86,0.86,0,0,1-.86.86H1463a0.86,0.86,0,0,1-.87-0.86V116.17Z"/><circle class="cls-15" cx="1435.34" cy="182.07" r="9.61"/><path class="cls-3" d="M1439.26,177a0.36,0.36,0,0,0-.36-0.36h-1.07a0.36,0.36,0,0,0-.36.36v1.6l1.78,1.78V177Z"/><path class="cls-3" d="M1439.18,182.92l-3.84-3.85-3.92,3.87v3.67a0.36,0.36,0,0,0,.36.36h2.49v-2.84a0.36,0.36,0,0,1,.36-0.36h1.42a0.36,0.36,0,0,1,.36.36V187h2.49a0.36,0.36,0,0,0,.36-0.36v-3.56A0.17,0.17,0,0,0,1439.18,182.92Z"/><path class="cls-3" d="M1440.17,181.79l-4.29-4.24a0.75,0.75,0,0,0-.54-0.19,0.82,0.82,0,0,0-.61.25l-4.21,4.18a0.53,0.53,0,1,0,.76.75l4.07-4,4.07,4A0.53,0.53,0,1,0,1440.17,181.79Z"/><circle class="cls-15" cx="1250.9" cy="230.72" r="9.61"/><path class="cls-3" d="M1254.82,225.66a0.36,0.36,0,0,0-.36-0.36h-1.07a0.36,0.36,0,0,0-.36.36v1.6l1.78,1.78v-3.38Z"/><path class="cls-3" d="M1254.74,231.58l-3.84-3.85L1247,231.6v3.67a0.36,0.36,0,0,0,.36.36h2.49v-2.84a0.36,0.36,0,0,1,.36-0.36h1.42a0.36,0.36,0,0,1,.36.36v2.84h2.49a0.36,0.36,0,0,0,.36-0.36v-3.56A0.17,0.17,0,0,0,1254.74,231.58Z"/><path class="cls-3" d="M1255.73,230.45l-4.29-4.24a0.75,0.75,0,0,0-.54-0.19,0.82,0.82,0,0,0-.61.25l-4.21,4.18a0.53,0.53,0,0,0,.76.75l4.07-4,4.07,4A0.53,0.53,0,0,0,1255.73,230.45Z"/><circle class="cls-2" cx="657.74" cy="25.24" r="8.47"/><path class="cls-3" d="M657.11,26.26V27a0.36,0.36,0,0,0,.36.36H658a0.36,0.36,0,0,0,.36-0.36V26.26h3.77v2.31a0.36,0.36,0,0,1-.36.36H653.7a0.36,0.36,0,0,1-.36-0.36V26.26h3.77Z"/><path class="cls-3" d="M659.31,22a0.18,0.18,0,0,0-.18-0.18h-2.78a0.18,0.18,0,0,0-.18.18V22.8h-0.63v-0.9a0.36,0.36,0,0,1,.36-0.36h3.67a0.36,0.36,0,0,1,.36.36v0.9h-0.63V22Z"/><path class="cls-3" d="M653.7,23.43h8.07a0.36,0.36,0,0,1,.36.36v1.84h-8.79V23.79A0.36,0.36,0,0,1,653.7,23.43Z"/><circle class="cls-17" cx="288.43" cy="175.56" r="19.03"/><path class="cls-3" d="M295,167.15l0.46-.79a0.68,0.68,0,1,0-1.17-.68l-3.25,5.59a0.49,0.49,0,0,0,0,.08l-1,1.75h7.75A7.84,7.84,0,0,0,295,167.15Z"/><path class="cls-3" d="M289.31,180.85a8.53,8.53,0,0,0,8.45-7h-16.9A8.53,8.53,0,0,0,289.31,180.85Z"/><path class="cls-3" d="M282.29,173.1a5.83,5.83,0,0,0-3.21-4.16h0a0.7,0.7,0,0,0-.29-0.06,0.7,0.7,0,0,0-.23,1.37,4.39,4.39,0,0,1,2.33,2.86h1.42Z"/><path class="cls-3" d="M293.2,180.85a2.47,2.47,0,1,0,2.47,2.47A2.47,2.47,0,0,0,293.2,180.85Zm0,3.52a1.06,1.06,0,1,1,1.06-1.06A1.06,1.06,0,0,1,293.2,184.38Z"/><path class="cls-3" d="M285.44,180.85a2.47,2.47,0,1,0,2.47,2.47A2.47,2.47,0,0,0,285.44,180.85Zm0,3.52a1.06,1.06,0,1,1,1.06-1.06A1.06,1.06,0,0,1,285.44,184.38Z"/><circle class="cls-18" cx="343.48" cy="139.83" r="9.89"/><g id="tv-5" data-name="tv"><path class="cls-3" d="M340.18,137.26a0.39,0.39,0,0,0-.37.39v1.82a5.36,5.36,0,0,1,2.95-2.21h-2.58Z"/><path class="cls-3" d="M347.91,135.8H339a0.71,0.71,0,0,0-.7.71v4.42h1.1v-3.64a0.39,0.39,0,0,1,.39-0.39h7.28a0.39,0.39,0,0,1,.39.39v3.64h1.12v-4.42A0.71,0.71,0,0,0,347.91,135.8Z"/><path class="cls-3" d="M338.34,141.29v0.09a0.65,0.65,0,0,0,.7.64h3.69v1.1h-2.1a0.11,0.11,0,0,0-.11.11v0.51a0.11,0.11,0,0,0,.11.11h5.65a0.11,0.11,0,0,0,.11-0.11v-0.51a0.11,0.11,0,0,0-.11-0.11h-2.08V142h3.7a0.65,0.65,0,0,0,.71-0.64v-0.09H338.34Z"/></g><circle class="cls-18" cx="807.02" cy="242.71" r="9.89"/><g id="tv-6" data-name="tv"><path class="cls-3" d="M803.72,240.14a0.39,0.39,0,0,0-.37.39v1.82a5.36,5.36,0,0,1,2.95-2.21h-2.58Z"/><path class="cls-3" d="M811.45,238.68h-8.86a0.71,0.71,0,0,0-.7.71v4.42H803v-3.64a0.39,0.39,0,0,1,.39-0.39h7.28a0.39,0.39,0,0,1,.39.39v3.64h1.12v-4.42A0.71,0.71,0,0,0,811.45,238.68Z"/><path class="cls-3" d="M801.88,244.17v0.09a0.65,0.65,0,0,0,.7.64h3.69V246h-2.1a0.11,0.11,0,0,0-.11.11v0.51a0.11,0.11,0,0,0,.11.11h5.65a0.11,0.11,0,0,0,.11-0.11v-0.51a0.11,0.11,0,0,0-.11-0.11h-2.08v-1.1h3.7a0.65,0.65,0,0,0,.71-0.64v-0.09H801.88Z"/></g><circle class="cls-19" cx="197.08" cy="41.96" r="20.4"/><path class="cls-3" d="M205.32,44A5.44,5.44,0,0,0,200,38.43a5.26,5.26,0,0,0-4.67,3,5.26,5.26,0,0,0-4.67-3A5.44,5.44,0,0,0,185.37,44a5.64,5.64,0,0,0,1.8,4.14h0l8.25,6.93,8.17-6.93h0A5.64,5.64,0,0,0,205.32,44Z"/><path class="cls-3" d="M209.47,34.67a3.61,3.61,0,0,0-3.4-3.78,3.38,3.38,0,0,0-3,2,3.37,3.37,0,0,0-3-2,3.61,3.61,0,0,0-3.41,3.78,3.94,3.94,0,0,0,1.15,2.82h0l0.28,0.25a6.07,6.07,0,0,1,1.94-.32,6.26,6.26,0,0,1,5.22,2.86l3.11-2.79h0A3.94,3.94,0,0,0,209.47,34.67Z"/><circle class="cls-1" cx="399.83" cy="162.63" r="20.27"/><circle class="cls-1" cx="399.83" cy="162.63" r="20.27"/><g class="cls-24"><polygon class="cls-21" points="372.06 171.27 393.38 189.17 409.72 172.82 403.5 162.48 388.41 154.92 372.06 171.27"/></g><path class="cls-3" d="M389,154.51h5.73L394,153.15a0.69,0.69,0,0,1,.24-0.95l1.78-1.06a0.69,0.69,0,0,1,.95.24l1.85,3.11v0H400v0l1.85-3.11a0.69,0.69,0,0,1,.95-0.24l1.78,1.06a0.69,0.69,0,0,1,.24.95L404,154.51h5.73a0.69,0.69,0,0,1,.69.69v4.14a0.69,0.69,0,0,1-.69.69H389a0.69,0.69,0,0,1-.69-0.69V155.2A0.69,0.69,0,0,1,389,154.51Z"/><path class="cls-3" d="M409.72,160.91v11.54a0.69,0.69,0,0,1-.69.69h-9v0h-1.38v0h-9a0.69,0.69,0,0,1-.69-0.69V160.91h20.69Z"/><circle class="cls-1" cx="62.86" cy="185.63" r="9.51"/><path class="cls-3" d="M63.57,183.53a3.06,3.06,0,0,1-.8.71,2.64,2.64,0,0,1-.72-0.7,3.78,3.78,0,1,0,1.52,0m-0.72,6.21a2.5,2.5,0,1,1,2.5-2.5,2.5,2.5,0,0,1-2.5,2.5"/><path class="cls-3" d="M62.77,183.7a7.18,7.18,0,0,0,1.74-1.92,4.82,4.82,0,0,0-.34-1.41c-0.22-.05-1.18-0.51-1.4-0.51a14.45,14.45,0,0,0-1.36.52,5.29,5.29,0,0,0-.21,1.4,6.56,6.56,0,0,0,1.57,1.92"/><circle class="cls-2" cx="964.79" cy="230.67" r="8.81"/><path class="cls-3" d="M967.6,230.07l-0.85-2h0.64a0.32,0.32,0,1,0,0-.65h-1.17a0.32,0.32,0,0,0-.28.41l0.51,1.22h-3.09l-0.36-.83a1.07,1.07,0,0,0,.91-0.16c0.06-.3.06-0.3-0.95-0.36s-0.89-.43-1.31-0.22,0.15,0.91.63,0.78h0l0.38,0.88-0.54,1a2,2,0,1,0,1.29,2.18h0.6a0.65,0.65,0,0,0,1.21-.33,0.63,0.63,0,0,0,0-.15l1.66-1.73,0.1,0.23A2,2,0,1,0,967.6,230.07Zm-6.08,3.21a1.3,1.3,0,1,1,0-2.61,1.32,1.32,0,0,1,.31,0l-0.61,1.12a0.32,0.32,0,0,0,.29.47h1.26A1.31,1.31,0,0,1,961.52,233.28Zm0.55-1.63,0.34-.62a1.32,1.32,0,0,1,.37.62h-0.71Zm1.38,0a2,2,0,0,0-.72-1.22l0.3-.55,0.75,1.76h-0.33Zm1.35-.3a0.62,0.62,0,0,0-.19,0,0.64,0.64,0,0,0-.24,0l-0.72-1.68h2.73Zm3.25,1.93a1.3,1.3,0,0,1-.79-2.33l0.33,0.79a0.52,0.52,0,1,0,.6-0.25l-0.33-.79a1.29,1.29,0,0,1,1.49,1.28A1.31,1.31,0,0,1,968.05,233.28Z"/><circle class="cls-2" cx="678.68" cy="97.94" r="13.73"/><path class="cls-3" d="M683.07,97l-1.33-3.15h1a0.51,0.51,0,1,0,0-1h-1.82a0.5,0.5,0,0,0-.44.64l0.8,1.91h-4.82l-0.55-1.3c0.68,0,1.36,0,1.42-.24,0.09-.46.09-0.46-1.47-0.56s-1.39-.67-2-0.34,0.23,1.41,1,1.21h0l0.59,1.37-0.84,1.56a3.05,3.05,0,1,0,2,3.39h0.94a1,1,0,0,0,1.89-.52,1,1,0,0,0,0-.23L682,97l0.15,0.36A3.05,3.05,0,1,0,683.07,97Zm-9.48,5a2,2,0,1,1,0-4.06,2.06,2.06,0,0,1,.49.07l-0.94,1.75a0.5,0.5,0,0,0,.46.73h2A2,2,0,0,1,673.59,102Zm0.85-2.54,0.53-1a2,2,0,0,1,.58,1h-1.11Zm2.15,0a3,3,0,0,0-1.13-1.89l0.46-.85,1.17,2.75h-0.51Zm2.1-.46a1,1,0,0,0-.29,0A1,1,0,0,0,678,99l-1.13-2.61h4.26Zm5.07,3a2,2,0,0,1-1.23-3.64l0.52,1.23a0.8,0.8,0,1,0,.94-0.39L683.47,98a2,2,0,0,1,2.32,2A2,2,0,0,1,683.76,102Z"/><circle class="cls-4" cx="1081.58" cy="230.67" r="8.81"/><path class="cls-3" d="M1084.33,229.63a1,1,0,0,1,1.35-.28,1.15,1.15,0,0,1,.17,1.7c-0.43.49-1.09,1-1.65,0.57S1083.9,230.13,1084.33,229.63Z"/><path class="cls-3" d="M1079.13,233c0.7-2.61,2.45-2.52,2.45-2.52,1.57,0,2.51,2.56,2.53,2.61a1.43,1.43,0,0,1,0,1c-0.39.79-1.75,0.64-2.56,0.66a16.17,16.17,0,0,1-1.83-.07,0.84,0.84,0,0,1-.74-1C1079,233.49,1079.13,233,1079.13,233Z"/><path class="cls-3" d="M1082.42,229.82c-0.61-.22-0.6-1.44-0.39-2.19a1.22,1.22,0,0,1,1.38-1,1.12,1.12,0,0,1,.69,1.59C1083.89,229,1083.12,230.06,1082.42,229.82Z"/><path class="cls-3" d="M1077.47,229.36a1,1,0,0,1,1.35.28c0.43,0.49.74,1.52,0.14,2s-1.22-.08-1.65-0.57A1.15,1.15,0,0,1,1077.47,229.36Z"/><path class="cls-3" d="M1080.73,229.82c-0.69.24-1.47-.86-1.68-1.62a1.12,1.12,0,0,1,.69-1.59,1.22,1.22,0,0,1,1.38,1C1081.33,228.38,1081.34,229.61,1080.73,229.82Z"/><circle class="cls-5" cx="869.56" cy="251.92" r="8.82"/><path class="cls-3" d="M864.65,251a0.49,0.49,0,0,0,.5.48h0.16V254a0.33,0.33,0,0,0,.33.33v0.57a0.41,0.41,0,0,0,.41.41h0.82a0.41,0.41,0,0,0,.41-0.41v-0.57h4.57v0.57a0.41,0.41,0,0,0,.41.41h0.82a0.41,0.41,0,0,0,.41-0.41v-0.57h0a0.33,0.33,0,0,0,.33-0.33v-2.61H874a0.49,0.49,0,0,0,0-1h-0.36a0.49,0.49,0,0,0-.34.13l-0.57-1h0a1.46,1.46,0,0,0-1.51-1.06h-3.3a1.57,1.57,0,0,0-1.51,1.06h0l-0.57,1a0.35,0.35,0,0,0-.29-0.13h-0.36A0.51,0.51,0,0,0,864.65,251Zm8.16,0.15h-6.56l0.69-1.25a0.94,0.94,0,0,1,.94-0.71h3.3a0.94,0.94,0,0,1,.94.71Zm-1.63,2.12a0.49,0.49,0,0,1,.36-0.47h0a3.91,3.91,0,0,1,.94-0.34,0.65,0.65,0,0,1,0,1.3h-0.89A0.49,0.49,0,0,1,871.19,253.23Zm-2.94.16a0.33,0.33,0,0,1,.33-0.33h2a0.33,0.33,0,1,1,0,.65h-2A0.33,0.33,0,0,1,868.25,253.39Zm-2.28-.32a0.65,0.65,0,0,1,.65-0.65,3.8,3.8,0,0,1,.94.34h0a0.49,0.49,0,0,1-.09,1h-0.89A0.65,0.65,0,0,1,866,253.07Z"/><circle class="cls-8" cx="1023.18" cy="243.71" r="9.49"/><g id="computers-5" data-name="computers"><path class="cls-3" d="M1018.33,247.93h9.7a0.38,0.38,0,0,0,.41-0.42l-0.9-1.61a0.55,0.55,0,0,0-.49-0.42h-7.74a0.57,0.57,0,0,0-.49.42l-0.91,1.63A0.38,0.38,0,0,0,1018.33,247.93Zm3.82-.6,0.07-.21a0.29,0.29,0,0,1,.35-0.25h1.22a0.29,0.29,0,0,1,.35.25l0.08,0.21c0.08,0.2,0,.25-0.28.25h-1.52C1022.19,247.59,1022.07,247.53,1022.15,247.33Z"/><path class="cls-3" d="M1027.41,244.7v-4.8a0.41,0.41,0,0,0-.41-0.42h-7.62a0.42,0.42,0,0,0-.41.42v4.8a0.41,0.41,0,0,0,.41.42H1027A0.41,0.41,0,0,0,1027.41,244.7Zm-1.06-1.06a0.41,0.41,0,0,1-.41.42h-5.49a0.42,0.42,0,0,1-.42-0.42V241a0.42,0.42,0,0,1,.42-0.41h5.49a0.41,0.41,0,0,1,.41.41v2.69Z"/></g><circle class="cls-10" cx="918.73" cy="248.65" r="9.51"/><g id="music-4" data-name="music"><path class="cls-3" d="M922.59,243.56c0-.39-0.19-0.46-0.41-0.4l-5.56,1.71a0.46,0.46,0,0,0-.39.48v5.38a2.27,2.27,0,0,0-1.27-.38,1.92,1.92,0,1,0,2.13,1.91s0-.07,0-0.1v-5.61l4.67-1.27v4.19a2.27,2.27,0,0,0-1.29-.4,1.92,1.92,0,1,0,2.13,1.91v0h0v-7.41Z"/></g><circle class="cls-1" cx="1127.62" cy="248.65" r="8.82"/><g id="appliances-4" data-name="appliances"><path class="cls-3" d="M1133,247.59v-0.52c0-2.37-2.77-2.61-2.77-2.61l-2.88-.36v-0.23a0.35,0.35,0,0,0-.35-0.35h-0.71a0.35,0.35,0,0,0-.35.35V244a2.44,2.44,0,0,0-2.46,1.94l-0.3,1.41c-0.39,2,1,1.79,1,1.79h0.67v1.06a2.26,2.26,0,0,0-.82.2,1.61,1.61,0,0,0-.23.93,4.19,4.19,0,0,0,.48,2.16,1.66,1.66,0,0,0,.87.23h0a2,2,0,0,0,1-.23,4.18,4.18,0,0,0,.49-2.16,1.63,1.63,0,0,0-.23-0.94,2.23,2.23,0,0,0-.83-0.2v-1.07H1127v1.07a4.26,4.26,0,0,0-.54.08,0.94,0.94,0,0,1,.31.12,0.88,0.88,0,0,1,.19.5h0v2.11a0.54,0.54,0,0,1-.17-0.09l0,0a1.39,1.39,0,0,1-.29.62l0,0a1.79,1.79,0,0,0,.83.2h0a2,2,0,0,0,1-.23,4.18,4.18,0,0,0,.49-2.16,1.62,1.62,0,0,0-.23-0.94,2.22,2.22,0,0,0-.82-0.2v-1.07h3.85A1.46,1.46,0,0,0,1133,247.59Zm-8.13,5.46a0.5,0.5,0,0,1-.17-0.09,3.5,3.5,0,0,1-.27-1.9,1.21,1.21,0,0,1,.44-0.12v2.11Zm1.17-2a3.53,3.53,0,0,1-.28,1.91,0.52,0.52,0,0,1-.18.09v-2.11A1.26,1.26,0,0,1,1126.08,251.07Zm2.12,0a3.53,3.53,0,0,1-.28,1.91,0.52,0.52,0,0,1-.18.09v-2.11A1.26,1.26,0,0,1,1128.21,251.07Zm1.66-4h-4.58s-0.53,0-.38-0.7a1.11,1.11,0,0,1,1.08-1.08l3.53,0.35s1.05,0.15,1.05.84A0.66,0.66,0,0,1,1129.86,247.06Z"/></g><circle class="cls-5" cx="1211.84" cy="252.17" r="9.51"/><path class="cls-3" d="M1216,251.55a26.47,26.47,0,0,0-2.55-3.15h0l-0.29-.34c-0.29-.35-0.56-0.66-0.78-0.9,0.39-.43,1-1.16,1-1.18a0.58,0.58,0,0,0-.45-0.41s-0.69.66-1.1,1.07c-0.41-.41-1.08-1.07-1.1-1.07a0.75,0.75,0,0,0-.28.14,0.73,0.73,0,0,0-.17.27s0.65,0.76,1,1.19l-0.57.65c-0.27.3-.5,0.57-0.5,0.59h0c-1.13,1.35-2.45,3-2.56,3.14a48.82,48.82,0,0,0-2.26,4.33h5.17a13.74,13.74,0,0,1,1.26-2.21,15.18,15.18,0,0,1,1.24,2.21h5.19a44.28,44.28,0,0,0-2.3-4.33"/><circle class="cls-5" cx="747.66" cy="243.71" r="14.17"/><path class="cls-3" d="M753.81,242.78a39.42,39.42,0,0,0-3.8-4.69h0s-0.18-.23-0.43-0.51c-0.44-.52-0.84-1-1.16-1.34,0.58-.64,1.53-1.72,1.53-1.76a0.87,0.87,0,0,0-.67-0.62s-1,1-1.65,1.59c-0.61-.61-1.61-1.59-1.65-1.59a1.13,1.13,0,0,0-.42.21,1.1,1.1,0,0,0-.25.4s1,1.13,1.54,1.77c-0.25.27-.54,0.6-0.86,1s-0.74.85-.74,0.87h0c-1.68,2-3.65,4.49-3.81,4.68a72.47,72.47,0,0,0-3.37,6.44h7.7a20.45,20.45,0,0,1,1.87-3.29,22.61,22.61,0,0,1,1.85,3.29h7.73a65.94,65.94,0,0,0-3.43-6.44"/><circle class="cls-11" cx="1289.68" cy="244.41" r="9.51"/><path class="cls-3" d="M1296.3,243.47s-5.8-2.83-6.14-3a0.77,0.77,0,0,0-.26-0.09,0.66,0.66,0,0,0-.25.09h0l-6.1,3a0.23,0.23,0,0,0-.15.19,0.24,0.24,0,0,0,.1.17l0.92,0.75v2a0.4,0.4,0,0,0-.2.35,0.39,0.39,0,0,0,0,.19h0a0.32,0.32,0,0,1-.08.44,0.91,0.91,0,0,0-.38.56,0.43,0.43,0,0,0,.43.43H1285a0.43,0.43,0,0,0,.43-0.43,0.92,0.92,0,0,0-.38-0.56,0.3,0.3,0,0,1-.09-0.42h0a0.41,0.41,0,0,0-.14-0.56v-1.65l0.42,0.31,0.87,0.74,0.14,0.13v1h0a0.21,0.21,0,0,1,0-.05V247l0,0v0l0,0h0l0.12-.11h0l0.07,0h0l0.07,0h0l0.08,0h0l0.35-.14h0l0.12,0h0l0.12,0h0l0.14,0h0a10.76,10.76,0,0,1,2.35-.24,10,10,0,0,1,2.64.31h0a3.77,3.77,0,0,1,.45.16h0l0.07,0h0l0.06,0h0l0.06,0h0l0.16,0.11h0l0,0h0l0,0v0l0,0v0l0,0h0l0,0v-0.94l2.8-2.28A0.2,0.2,0,0,0,1296.3,243.47Z"/><path class="cls-3" d="M1289.91,248.12c1.78,0,3.26-.35,3.6-0.82-0.33-.47-1.82-0.82-3.6-0.82s-3.27.35-3.6,0.82C1286.64,247.77,1288.13,248.12,1289.91,248.12Z"/><path class="cls-11" d="M1293.56,244.22l0-.09c-0.2-.51-1.74-0.9-3.62-0.9h0c-1.88,0-3.42.4-3.62,0.9l0,0.09v0.41l0-.09c0.2-.51,1.74-0.9,3.62-0.9h0c1.88,0,3.42.4,3.62,0.9l0,0.09v-0.41Z"/><circle class="cls-10" cx="606.93" cy="249.96" r="19.03"/><g id="music-5" data-name="music"><path class="cls-3" d="M614.66,239.77c0-.78-0.39-0.92-0.83-0.8l-11.12,3.43a0.92,0.92,0,0,0-.77,1v10.75a4.54,4.54,0,0,0-2.53-.77,3.84,3.84,0,1,0,4.25,3.82c0-.07,0-0.13,0-0.2V245.75l9.34-2.53v8.38a4.55,4.55,0,0,0-2.57-.8,3.84,3.84,0,1,0,4.25,3.82s0,0,0,0h0V239.77Z"/></g><circle class="cls-10" cx="1618.54" cy="177.27" r="12.96"/><g id="music-6" data-name="music"><path class="cls-3" d="M1623.8,170.33c0-.53-0.26-0.63-0.56-0.54l-7.57,2.33a0.63,0.63,0,0,0-.52.66v7.32a3.09,3.09,0,0,0-1.73-.52,2.62,2.62,0,1,0,2.9,2.6s0-.09,0-0.13V174.4l6.36-1.72v5.71a3.1,3.1,0,0,0-1.75-.54,2.62,2.62,0,1,0,2.9,2.6s0,0,0,0h0V170.33Z"/></g><circle class="cls-11" cx="24.06" cy="140.96" r="14.01"/><path class="cls-3" d="M28.21,133.69h0a0.52,0.52,0,0,0-.52.52v1.56H19.91a0.52,0.52,0,0,0-.52.52V147.7a0.52,0.52,0,0,0,.52.52h8.3a0.52,0.52,0,0,0,.52-0.52V134.21A0.52,0.52,0,0,0,28.21,133.69Zm-6.48,13.49a0.78,0.78,0,1,1,.78-0.78A0.78,0.78,0,0,1,21.72,147.19Zm0-2.6a0.78,0.78,0,1,1,.78-0.78A0.78,0.78,0,0,1,21.72,144.59Zm2.34,2.6a0.78,0.78,0,1,1,.78-0.78A0.78,0.78,0,0,1,24.06,147.19Zm0-2.6a0.78,0.78,0,1,1,.78-0.78A0.78,0.78,0,0,1,24.06,144.59Zm2.33,2.6a0.78,0.78,0,1,1,.78-0.78A0.78,0.78,0,0,1,26.39,147.19Zm0-2.6a0.78,0.78,0,1,1,.78-0.78A0.78,0.78,0,0,1,26.39,144.59Zm0.78-3.65a0.53,0.53,0,0,1-.52.54H21.46a0.53,0.53,0,0,1-.52-0.54v-3.07a0.54,0.54,0,0,1,.52-0.54h5.19a0.54,0.54,0,0,1,.52.54v3.07Z"/><circle class="cls-12" cx="292.15" cy="237.66" r="14.26"/><path class="cls-3" d="M299,231.06H285.28a0.53,0.53,0,0,0-.53.53v9.51a0.53,0.53,0,0,0,.53.53H290v1.59h-1.59v0.53a0.53,0.53,0,0,0,.53.53h6.87a0.53,0.53,0,0,0,.53-0.53v-0.53h-1.58v-1.59H299a0.53,0.53,0,0,0,.53-0.53v-9.51A0.53,0.53,0,0,0,299,231.06ZM298,239.51a0.53,0.53,0,0,1-.53.53H286.87a0.53,0.53,0,0,1-.53-0.53v-6.34a0.53,0.53,0,0,1,.53-0.53h10.57a0.53,0.53,0,0,1,.53.53v6.34Z"/><circle class="cls-13" cx="533.1" cy="37.45" r="23.65"/><path class="cls-3" d="M532.6,33.74a0.78,0.78,0,0,0-.21-0.5L528.63,29l-3.44,1.66h0a0.85,0.85,0,0,0-.29.31h0l-4,11.47a0.93,0.93,0,0,0,.49,1.27l1.68,0.59a0.88,0.88,0,0,0,1.12-.54l1.87-5.41V50.53h5.66a0.87,0.87,0,0,0,.87-0.88V33.74Z"/><path class="cls-3" d="M545.32,42.68s-4.06-11.55-4.07-11.58h0a0.83,0.83,0,0,0-.32-0.36h0L537.55,29l-3.81,4.18h0a0.72,0.72,0,0,0-.22.47s0,15.93,0,15.93a0.89,0.89,0,0,0,.88.89h5.73v-12L542,43.86a0.88,0.88,0,0,0,1.12.54l1.68-.6A0.88,0.88,0,0,0,545.32,42.68Zm-9.6,1.73a0.88,0.88,0,1,1,.88-0.88A0.88,0.88,0,0,1,535.72,44.4Zm0-3.51A0.88,0.88,0,1,1,536.6,40,0.88,0.88,0,0,1,535.72,40.89Zm0-3.51a0.88,0.88,0,1,1,.88-0.88A0.88,0.88,0,0,1,535.72,37.39Z"/><path class="cls-3" d="M536.73,28.64l-3.21-1.49V26.81a1.71,1.71,0,0,0,1.32-1.73,1.76,1.76,0,0,0-3.52,0h0a0.44,0.44,0,0,0,.44.43,0.43,0.43,0,0,0,.43-0.39,0.89,0.89,0,1,1,1.78,0h0a0.93,0.93,0,0,1-.59.85,1,1,0,0,0-.75,1.22l-3.2,1.48L530,29.34l3.06-1.42,3,1.4Z"/><circle class="cls-14" cx="1745.43" cy="15.05" r="40.8"/><path class="cls-3" d="M1733.66,12c0,0.39.22,3.21,0.41,4.74,2.27,0.29,7,.54,11.22.55s9.06-.26,11.33-0.55c0.32-1.65.36-4.39,0.42-4.79A5.55,5.55,0,0,1,1762,6.83V5.22a6,6,0,0,0-6-6h-21.16a6,6,0,0,0-6,6V6.84A5.4,5.4,0,0,1,1733.66,12Z"/><path class="cls-3" d="M1763.56,9.75c-2.15,0-3.48.7-3.48,3.49,0,0.84-.2,5.3-0.91,6s-9.64,1.09-13.84,1.1-13.1-.34-13.84-1.1-0.91-5.15-.91-6c0-2.79-1.13-3.49-3.29-3.49-1.56,0-3,.7-3,3.49a17.83,17.83,0,0,0,2.67,9.39c0.82,1,1.52,1.67,4.33,2.21v0h0l-1,6.05h0v0h1.47l2.38-5.59h0v0a69.52,69.52,0,0,0,11.16,1,64.8,64.8,0,0,0,11.16-1l0.15,0,2.43,5.64h1.47l-1-6.07V24.8c2.72-.54,3.34-1.24,4.13-2.17,1.76-2.08,2.89-7,2.89-9.35C1766.6,10.49,1765.07,9.75,1763.56,9.75Z"/><circle class="cls-15" cx="76.99" cy="101.68" r="11.81"/><path class="cls-3" d="M81.8,95.45A0.44,0.44,0,0,0,81.37,95H80.05a0.44,0.44,0,0,0-.44.44v2l2.19,2.19V95.45Z"/><path class="cls-3" d="M81.71,102.72L77,98l-4.82,4.77v4.51a0.44,0.44,0,0,0,.44.44h3.07v-3.5a0.44,0.44,0,0,1,.44-0.44h1.75a0.44,0.44,0,0,1,.44.44v3.5h3.06a0.44,0.44,0,0,0,.44-0.44V102.9A0.22,0.22,0,0,0,81.71,102.72Z"/><path class="cls-3" d="M82.92,101.34l-5.28-5.21A0.92,0.92,0,0,0,77,95.89a1,1,0,0,0-.76.31l-5.18,5.14a0.66,0.66,0,1,0,.93.93l5-5,5,5A0.66,0.66,0,1,0,82.92,101.34Z"/><circle class="cls-16" cx="34.48" cy="236.53" r="11.66"/><g id="tools-5" data-name="tools"><path class="cls-3" d="M37.58,234.87v-0.53a0.33,0.33,0,0,0-.33-0.33H36.6a0.33,0.33,0,0,0-.33.33v2.36a0.33,0.33,0,0,0,.33.33h0.64a0.33,0.33,0,0,0,.33-0.33v-0.54h0.87l-0.84-1.3h0Z"/><polygon class="cls-3" points="38.44 234.87 39.31 236.16 40.58 236.16 39.73 234.87 38.44 234.87"/><polygon class="cls-3" points="41.88 234.87 40.58 234.87 41.45 236.16 41.88 236.16 42.32 235.51 41.88 234.87"/><path class="cls-3" d="M35.51,233.14H28.83a0.4,0.4,0,0,0-.33.44v3.87a0.4,0.4,0,0,0,.33.44h0.51l-0.42,3.57a0.35,0.35,0,0,0,.37.32h0.94a0.47,0.47,0,0,0,.43-0.32l1.09-3.57h0.32l-0.4,1.3H32.3a0.22,0.22,0,0,0,.19-0.19l0.34-1.11h2.69a0.4,0.4,0,0,0,.33-0.44v-3.87A0.4,0.4,0,0,0,35.51,233.14Zm-5.85,1.73a0.37,0.37,0,0,1-.33-0.39V234.4a0.36,0.36,0,0,1,.33-0.39h2.82a0.37,0.37,0,0,1,.33.39v0.09a0.37,0.37,0,0,1-.33.39H29.66Z"/></g><circle class="cls-18" cx="106.68" cy="150.45" r="14.49"/><g id="tv-7" data-name="tv"><path class="cls-3" d="M101.85,146.69a0.56,0.56,0,0,0-.54.57v2.67a7.85,7.85,0,0,1,4.31-3.24h-3.77Z"/><path class="cls-3" d="M113.17,144.55h-13a1,1,0,0,0-1,1v6.47h1.61v-5.34a0.57,0.57,0,0,1,.57-0.57H112a0.57,0.57,0,0,1,.57.57v5.34h1.64v-6.47A1,1,0,0,0,113.17,144.55Z"/><path class="cls-3" d="M99.16,152.59v0.13a1,1,0,0,0,1,.94h5.41v1.61h-3.07a0.16,0.16,0,0,0-.16.16v0.74a0.17,0.17,0,0,0,.16.17h8.27a0.17,0.17,0,0,0,.16-0.17v-0.74a0.16,0.16,0,0,0-.16-0.16h-3.05v-1.61h5.42a1,1,0,0,0,1-.94v-0.13h-15Z"/></g><circle class="cls-19" cx="220.98" cy="221.85" r="9.51"/><path class="cls-3" d="M224.82,222.8a2.54,2.54,0,0,0-2.48-2.59,2.45,2.45,0,0,0-2.18,1.38,2.45,2.45,0,0,0-2.18-1.38,2.54,2.54,0,0,0-2.48,2.59,2.63,2.63,0,0,0,.84,1.93h0l3.85,3.23,3.81-3.23h0A2.63,2.63,0,0,0,224.82,222.8Z"/><path class="cls-3" d="M226.76,218.45a1.68,1.68,0,0,0-1.59-1.76,1.57,1.57,0,0,0-1.4.94,1.57,1.57,0,0,0-1.4-.94,1.68,1.68,0,0,0-1.59,1.76,1.84,1.84,0,0,0,.54,1.31h0l0.13,0.12a2.83,2.83,0,0,1,.91-0.15,2.92,2.92,0,0,1,2.43,1.33l1.45-1.3h0A1.84,1.84,0,0,0,226.76,218.45Z"/><circle class="cls-1" cx="1696.46" cy="134.23" r="10.13"/><circle class="cls-1" cx="1696.46" cy="134.23" r="10.13"/><g class="cls-25"><polygon class="cls-21" points="1710.34 138.55 1699.68 147.49 1691.52 139.33 1694.63 134.16 1702.17 130.38 1710.34 138.55"/></g><path class="cls-3" d="M1701.85,130.18H1699l0.41-.68a0.34,0.34,0,0,0-.12-0.47l-0.89-.53a0.34,0.34,0,0,0-.47.12l-0.92,1.55h-0.6l-0.93-1.55a0.34,0.34,0,0,0-.47-0.12l-0.89.53a0.34,0.34,0,0,0-.12.47l0.41,0.68h-2.87a0.34,0.34,0,0,0-.34.34v2.07a0.34,0.34,0,0,0,.34.34h10.34a0.34,0.34,0,0,0,.34-0.34v-2.07A0.34,0.34,0,0,0,1701.85,130.18Z"/><path class="cls-3" d="M1691.52,133.37v5.76a0.34,0.34,0,0,0,.34.34h9.65a0.34,0.34,0,0,0,.34-0.34v-5.76h-10.34Z"/></svg>