<svg xmlns="http://www.w3.org/2000/svg" viewBox="0 0 56 57">
    <g fill="none" fill-rule="evenodd">
        <path d="M55.181 42.5160013l-24.704-42.452a.129.129 0 00-.112-.064h-5.407a.129.129 0 00-.112.064l-24.702 42.452a1.065 1.065 0 00-.144.534v7.226c0 .07.057.129.129.129h55.196v-7.355c0-.187-.05-.372-.144-.534"
              fill="#f8fbcf"/>
        <path d="M3.657 46.7620013v-2.925c0-.022.006-.045.017-.064l23.307-40.053a.128.128 0 01.111-.063h1.284c.046 0 .088.024.111.063l23.307 40.053c.011.02.017.041.017.064v2.925c0 .071-.057.129-.128.129H3.785a.128.128 0 01-.128-.13l27.084-31.41"
              fill="#f8dd3e"/>
        <g fill="#002f34">
            <path d="M17.6 39.0050013h20.114v-3.04H17.6z" fill-rule="nonzero"/>
            <path d="M32.009 30.1070013a2.626 2.626 0 01-2.635-2.617 2.626 2.626 0 012.635-2.616 2.626 2.626 0 012.635 2.616 2.626 2.626 0 01-2.635 2.617m-8.74 0a2.626 2.626 0 01-2.635-2.617 2.626 2.626 0 012.635-2.616 2.626 2.626 0 012.636 2.616 2.626 2.626 0 01-2.636 2.617"/>
        </g>
        <path d="M10.02 50.4200013v6.525H7.843v-6.524h2.177zm37.567 0v6.525H45.41v-6.524h2.177z" fill="#cfc980"/>
    </g>
</svg>