<svg id="Layer_1" data-name="Layer 1" xmlns="http://www.w3.org/2000/svg" viewBox="0 0 64 64"><defs><style>.cls-1{fill:#9da08a;fill-rule:evenodd;}</style></defs><title>languages</title><path class="cls-1" d="M53.45,35.25A20.7,20.7,0,0,1,43.19,45.87l1.31,3.36a1.3,1.3,0,0,1,0,1,1.28,1.28,0,0,1-.71.69,25.34,25.34,0,0,1-8.94,1.8v5.88h8.88a1.29,1.29,0,0,1,0,2.59H23.41a1.29,1.29,0,0,1,0-2.59h8.88v-6A25.52,25.52,0,0,1,10.61,36.39,25.9,25.9,0,0,1,25,2.92a1.28,1.28,0,0,1,1.66.73L28,7A20.46,20.46,0,0,1,34.39,6,20.68,20.68,0,0,1,53.72,19.21,21,21,0,0,1,53.45,35.25Zm-8.8,1.93a24.58,24.58,0,0,0-.19-4.67,47.36,47.36,0,0,1-7,3.5,50.36,50.36,0,0,1-5.58,1.85C34.86,41.9,38,44,40.3,44a3.31,3.31,0,0,0,1.07-.18l.46-.21C43.42,42.8,44.45,40.48,44.66,37.18ZM23.07,12.53A18.51,18.51,0,0,0,16.21,26a23.35,23.35,0,0,0,7.23-.57C22.2,20.47,22.1,15.9,23.07,12.53ZM17.79,28.72c-.53,0-1,0-1.51-.07a18.4,18.4,0,0,0,1.18,5,18.68,18.68,0,0,0,1.37,2.76,1.23,1.23,0,0,1,.32,0,23.7,23.7,0,0,0,8.6-.3,41.79,41.79,0,0,1-2.65-5.52c-.35-.89-.66-1.78-.94-2.66A31.55,31.55,0,0,1,17.79,28.72Zm3.15,10.52a18,18,0,0,0,13.46,6c.49,0,1,0,1.45-.07a22.61,22.61,0,0,1-6.61-6.72,35.65,35.65,0,0,1-7.08.8C21.71,39.29,21.33,39.26,20.93,39.24Zm6.55-9.57a38.9,38.9,0,0,0,2.89,5.9,47.32,47.32,0,0,0,6.15-2A45.36,45.36,0,0,0,44,29.76a39.17,39.17,0,0,0-1.8-5.95c-.33-.85-.68-1.65-1-2.42a61,61,0,0,1-7.82,3.75,60.11,60.11,0,0,1-6.64,2.22C26.91,28.11,27.18,28.88,27.49,29.66ZM24.76,5.84A23.31,23.31,0,0,0,13,35.44,23,23,0,0,0,25.24,48.2a22.65,22.65,0,0,0,16.4.73l-.83-2.12a20.45,20.45,0,0,1-6.42,1.05A20.67,20.67,0,0,1,15.07,34.61,21,21,0,0,1,25.59,8Zm3.8,3.7L28,9.72C25.14,11,24,17,25.94,24.86a57.5,57.5,0,0,0,6.42-2.13A57.34,57.34,0,0,0,40,19.07c-3.47-6.29-7.76-9.64-10.6-9.64A3.36,3.36,0,0,0,28.56,9.53Zm5.83-1h-.09a26.23,26.23,0,0,1,7.84,9.17,17.27,17.27,0,0,0,4.69-4.24A18,18,0,0,0,34.39,8.54ZM51.33,20.16a18.57,18.57,0,0,0-2.71-4.73A21.91,21.91,0,0,1,43.33,20c.43.91.85,1.85,1.24,2.83a42.26,42.26,0,0,1,1.7,5.35c2.85-2.07,5-4.16,5.8-5.69A18.68,18.68,0,0,0,51.33,20.16ZM46.83,31a28.38,28.38,0,0,1,.39,6.37,17.73,17.73,0,0,1-.45,3,18.36,18.36,0,0,0,5.8-14.29A34.07,34.07,0,0,1,46.83,31Z"/></svg>