<svg xmlns="http://www.w3.org/2000/svg" width="111" height="113.292" viewBox="0 0 111 113.292">
    <defs>
        <style>
            .cls-1{fill:#f8fbcf}.cls-2{fill:#ffce32}.cls-3{fill:#002f34}
        </style>
    </defs>
    <g id="Group_407" transform="translate(-117 -32)">
        <g id="logo_nakarm_psa_yellowstroke" transform="translate(116.9 32)">
            <path id="Path_1070" d="M111.1 57.219v-1.925a1.88 1.88 0 0 0-.046-.5v-.275c0-.183-.046-.367-.046-.55v-.229c0-.275-.046-.5-.046-.779v-.138c0-.229-.046-.413-.046-.642l-.046-.275c0-.183-.046-.321-.046-.5 0-.092-.046-.183-.046-.275 0-.183-.046-.321-.046-.458l-.046-.275a1.95 1.95 0 0 0-.092-.5l-.046-.275c-.046-.183-.046-.367-.092-.6l-.046-.183c-.046-.229-.092-.5-.138-.734l-.046-.183a2.683 2.683 0 0 1-.092-.6l-.046-.275c-.046-.183-.046-.321-.092-.5l-.046-.275c-.046-.138-.046-.321-.092-.458l-.046-.275c-.046-.183-.092-.321-.138-.5l-.046-.229c-.046-.229-.092-.413-.138-.642l-.046-.092c-.046-.229-.138-.5-.183-.734l-.046-.183-.138-.55-.092-.229c-.046-.138-.092-.321-.138-.458-.046-.092-.046-.183-.092-.275-.046-.138-.092-.321-.138-.458l-.092-.229a2.234 2.234 0 0 0-.183-.5l-.046-.183c-.183-.458-.321-.963-.5-1.421l-.092-.183c-.046-.183-.138-.367-.183-.5-.046-.092-.046-.138-.092-.229v-.046c-.046-.138-.138-.321-.183-.458l-.092-.229c-.046-.138-.138-.321-.183-.458l-.092-.229c-.092-.183-.138-.367-.229-.55l-.046-.138c-.183-.458-.413-.917-.6-1.375l-.092-.183c-.092-.183-.138-.321-.229-.5l-.092-.229c-.092-.138-.138-.321-.229-.458l-.092-.229a2.142 2.142 0 0 1-.229-.458l-.092-.183-.275-.55-.046-.092c-.138-.229-.229-.458-.367-.688v-.082a4.185 4.185 0 0 0-.367-.6l-.092-.183c-.092-.138-.183-.321-.275-.458l-.138-.183c-.092-.138-.183-.321-.275-.458l-.138-.183a2.783 2.783 0 0 0-.321-.458l-.092-.138c-.275-.413-.55-.871-.825-1.238l-.046-.046c-.138-.183-.229-.367-.367-.55l-.092-.138c-.092-.138-.229-.321-.321-.458l-.138-.183a3.965 3.965 0 0 1-.321-.458l-.138-.138a4.007 4.007 0 0 0-.367-.458l-.092-.092c-.321-.413-.642-.779-.917-1.192l-.046-.092c-.138-.183-.275-.321-.413-.5l-.092-.138a4.008 4.008 0 0 1-.367-.458l-.121-.14c-.138-.138-.229-.275-.367-.413l-.138-.138a4.136 4.136 0 0 0-.413-.458l-.046-.092c-.321-.367-.688-.734-1.009-1.1l-.092-.092a4.323 4.323 0 0 0-.458-.458l-.138-.138-.413-.413-.138-.138-.413-.413-.092-.092-.5-.5c-.367-.321-.734-.688-1.146-1.009l-.092-.092c-.138-.138-.321-.275-.458-.413l-.138-.092a4.01 4.01 0 0 0-.458-.367l-.138-.092a3.212 3.212 0 0 0-.458-.367L90.7 14.9c-.138-.092-.229-.183-.367-.275a14.25 14.25 0 0 0-1.055-3.164C87.992 8.8 85.7 6.419 82.261 4.081A22.47 22.47 0 0 0 69.928 0a16.273 16.273 0 0 0-6.465 1.284 23.105 23.105 0 0 0-2.613 1.421c-.183 0-.367-.046-.55-.046h-.092c-.229 0-.413-.046-.642-.046h-.138c-.183 0-.413-.046-.6-.046h-.183a2.232 2.232 0 0 1-.55-.046H53.56c-.321 0-.6.046-.917.046h-.229c-.229 0-.5.046-.734.046h-.229a6.214 6.214 0 0 0-.917.092h-.092c-.275.046-.55.046-.779.092l-.229.046c-.275.046-.6.046-.871.092h-.046c-.321.046-.6.092-.917.138l-.183.046c-.275.046-.5.092-.779.138H46.5c-.321.046-.6.092-.917.138l-.138.046c-.275.046-.5.092-.779.138l-.183.046c-.6.138-1.192.229-1.788.367l-.138.046c-.6.138-1.192.275-1.788.458l-.092.046c-.275.092-.55.138-.825.229h-.092c-.321.092-.6.183-.917.275-.275.092-.55.183-.871.275l-.092.046c-.6.183-1.192.413-1.742.6h.046c-.6.229-1.192.458-1.742.688-.275.138-.6.229-.871.367-.55.229-1.146.5-1.742.779-.55.275-1.146.55-1.7.825-1.146.6-2.292 1.238-3.393 1.926a31.3 31.3 0 0 0-6.783.448c-7.061 1.192-9.261 5.318-9.949 7.7a18.121 18.121 0 0 0-.138 7.84c-.779 1.146-1.513 2.292-2.2 3.485v.046c-.367.6-.688 1.192-1.009 1.834v.046c-.5.917-.963 1.88-1.421 2.843v.046c-.275.6-.55 1.238-.825 1.88l-.046.092c-.275.642-.5 1.284-.734 1.88l-.046.092a7.9 7.9 0 0 0-.321.963v.053a2 2 0 0 0-.458.871v.046a7.9 7.9 0 0 1-.321.963l-.046.138c-.183.6-.367 1.284-.55 1.926v.138a7.329 7.329 0 0 0-.229.963c-.092.321-.138.642-.229.917l-.046.138a7.118 7.118 0 0 0-.183.963L1.155 47c-.046.321-.138.6-.183.917V48a7.118 7.118 0 0 1-.183.963l-.046.183-.143.967v.138c-.046.275-.092.6-.138.871l-.046.229a6.84 6.84 0 0 0-.092.963v.092c-.046.321-.046.6-.092.917v.183a6.771 6.771 0 0 0-.046.963v.183c0 .275-.046.6-.046.871v.138a6.771 6.771 0 0 1-.046.963v1.238A55.233 55.233 0 0 0 3.4 76.8c.046.092.092.229.138.321.321.825.642 1.7 1.009 2.522a7.054 7.054 0 0 1 .367.871c.138.275.229.55.367.825.183.367.367.779.55 1.146.229.413.413.825.642 1.284.183.321.367.642.55 1.009l.138.222c.183.275.321.6.5.871q1.169 1.994 2.476 3.851a2.542 2.542 0 0 0 .275.367 8.812 8.812 0 0 0 .6.779c.092.092.138.229.229.321.183.229.367.5.55.734.046.092.138.183.183.275l.688.825a51.042 51.042 0 0 0 3.668 4.035c.55.55 1.1 1.1 1.7 1.6a7.971 7.971 0 0 0 .688.6l.092.092a55.542 55.542 0 0 0 62.629 7.565c.413-.229.779-.413 1.192-.642q2.063-1.169 3.989-2.476a57.2 57.2 0 0 0 5.273-4.035c1.192-1.009 2.292-2.109 3.393-3.209l.458-.458a55.193 55.193 0 0 0 15.314-38.33 1.582 1.582 0 0 0 .042-.546z" class="cls-1"/>
            <g id="Group_392" transform="translate(2.961 2.907)">
                <path id="Path_1071" d="M111.762 61.393v-2.475a1.559 1.559 0 0 0-.046-.458v-.275a1.718 1.718 0 0 0-.046-.5v-.229c0-.229-.046-.5-.046-.733v-.092c0-.229-.046-.413-.046-.642a.343.343 0 0 0-.046-.229c0-.183-.046-.321-.046-.5a.581.581 0 0 0-.046-.275c0-.138-.046-.321-.046-.458 0-.092-.046-.183-.046-.275 0-.138-.046-.321-.046-.458 0-.092-.046-.183-.046-.275-.046-.183-.046-.367-.092-.55a.276.276 0 0 0-.046-.183c-.046-.229-.092-.458-.138-.733a.168.168 0 0 0-.046-.138c-.046-.183-.046-.367-.092-.55a1.985 1.985 0 0 0-.046-.229c-.046-.138-.046-.321-.092-.458 0-.092-.046-.183-.046-.275-.046-.138-.046-.321-.092-.458 0-.092-.046-.183-.046-.275a1.628 1.628 0 0 1-.092-.458c0-.092-.046-.138-.046-.229-.046-.183-.092-.413-.137-.6 0-.046 0-.046-.046-.092-.046-.229-.138-.458-.183-.688 0-.046-.046-.138-.046-.183-.046-.183-.092-.367-.137-.5 0-.092-.046-.138-.092-.229-.046-.138-.092-.321-.137-.458-.046-.092-.046-.183-.092-.229-.046-.138-.092-.321-.137-.458-.046-.092-.046-.138-.092-.229-.046-.183-.092-.321-.138-.5 0-.046-.046-.138-.046-.183-.138-.458-.321-.917-.458-1.329 0-.046-.046-.138-.046-.183-.046-.183-.138-.321-.183-.5-.046-.092-.046-.138-.092-.229a4.753 4.753 0 0 1-.183-.458c-.046-.092-.046-.138-.092-.229-.046-.138-.137-.321-.183-.458-.046-.092-.046-.138-.092-.229-.092-.183-.138-.321-.229-.5 0-.046-.046-.092-.046-.138a10.974 10.974 0 0 0-.6-1.283c-.046-.046-.046-.092-.092-.183-.092-.138-.137-.321-.229-.458-.046-.046-.046-.138-.092-.183a4.258 4.258 0 0 1-.229-.458.347.347 0 0 1-.092-.183c-.092-.138-.138-.321-.229-.458-.046-.046-.046-.138-.092-.183l-.275-.55c0-.046-.046-.046-.046-.092-.137-.229-.229-.413-.367-.642v-.046c-.092-.183-.229-.367-.321-.55-.046-.046-.046-.092-.092-.138-.092-.138-.183-.321-.275-.458a.347.347 0 0 1-.092-.183l-.275-.413a.347.347 0 0 1-.092-.183c-.092-.138-.183-.321-.275-.458-.046-.046-.046-.092-.092-.138-.275-.413-.5-.825-.779-1.192l-.046-.046a4.8 4.8 0 0 0-.367-.5c-.046-.046-.046-.092-.092-.138a2.519 2.519 0 0 0-.321-.413.633.633 0 0 1-.137-.183 2.52 2.52 0 0 0-.321-.413c-.046-.046-.092-.092-.092-.138a3.211 3.211 0 0 0-.367-.458c-.046-.046-.046-.092-.092-.092-.275-.367-.6-.779-.871-1.146 0-.046-.046-.046-.046-.092a3.21 3.21 0 0 1-.367-.458c-.046-.046-.092-.092-.092-.138-.137-.138-.229-.275-.367-.413l-.137-.138c-.137-.138-.229-.275-.367-.413-.046-.046-.092-.092-.092-.138-.138-.138-.275-.321-.412-.458l-.046-.046c-.321-.367-.642-.688-.963-1.054l-.092-.092-.412-.413-.137-.138-.367-.367-.137-.138-.412-.413c-.046-.046-.092-.046-.092-.092-.183-.138-.321-.321-.5-.458-.367-.321-.733-.642-1.054-.963l-.092-.092a1.8 1.8 0 0 0-.458-.367c-.046-.046-.092-.092-.138-.092-.138-.138-.275-.229-.412-.367-.046-.046-.092-.092-.137-.092-.138-.138-.321-.229-.458-.367l-.092-.092c-.367-.321-.779-.6-1.146-.917a10.875 10.875 0 0 0-1.008-3.438 17.712 17.712 0 0 0-6.142-6.371A19.2 19.2 0 0 0 73.354 6.3 14.449 14.449 0 0 0 67.9 7.354c-.5.229-1.7.917-2.979 1.7-.229-.054-.459-.054-.688-.096h-.046c-.229 0-.412-.046-.642-.046h-.092c-.183 0-.412-.046-.6-.046h-.137c-.183 0-.367-.046-.55-.046h-.183a2.231 2.231 0 0 1-.55-.046h-4.35c-.275 0-.55.046-.871.046h-.183c-.229 0-.458.046-.688.046h-.229a6.263 6.263 0 0 0-.871.092h-.091c-.275.046-.5.046-.733.092h-.229c-.275.046-.55.046-.825.092-.275.046-.55.092-.871.138a.276.276 0 0 0-.183.046 4.011 4.011 0 0 1-.733.092h-.137c-.275.046-.55.092-.871.138a.168.168 0 0 0-.138.046c-.229.046-.5.092-.733.138a.168.168 0 0 0-.137.046c-.55.092-1.146.229-1.7.367-.046 0-.092.046-.138.046-.55.138-1.146.275-1.7.413-.046 0-.092 0-.092.046-.275.092-.5.138-.779.229h-.092c-.275.092-.6.183-.871.275l-.825.275c-.046 0-.046 0-.092.046-.55.183-1.1.367-1.65.6-.046 0-.046 0-.092.046-.55.229-1.1.413-1.65.642a6.494 6.494 0 0 0-.825.367c-.55.229-1.1.5-1.65.733h-.046a17.584 17.584 0 0 0-1.6.825c-1.329.688-2.658 1.467-3.942 2.246-.642-.046-1.329-.092-2.017-.092a31.467 31.467 0 0 0-5 .413c-5.363.871-7.2 3.621-7.792 5.775a17 17 0 0 0 .092 7.746c-.962 1.329-1.879 2.75-2.7 4.171v.046c-.321.55-.642 1.146-.963 1.742v.046c-.458.871-.917 1.788-1.329 2.7v.046c-.275.6-.55 1.192-.779 1.788 0 .046 0 .046-.046.092-.229.6-.5 1.192-.687 1.788 0 .046 0 .046-.046.092-.092.321-.229.6-.321.917v.046c-.092.275-.183.6-.321.917v.046c-.092.321-.183.6-.275.917 0 .046-.046.092-.046.138-.183.6-.367 1.238-.5 1.833 0 .046-.046.092-.046.138-.092.321-.138.6-.229.917v.036c-.092.275-.137.6-.229.871a.168.168 0 0 1-.046.138c-.046.321-.137.6-.183.917a.168.168 0 0 1-.046.138 7.447 7.447 0 0 1-.183.871v.092c-.046.321-.092.6-.138.917a.276.276 0 0 1-.046.183c-.046.321-.092.642-.137.917-.046.321-.092.642-.138.917a.276.276 0 0 1-.046.183 6.212 6.212 0 0 0-.092.917v.092c-.046.275-.046.55-.092.871v.183a6.143 6.143 0 0 0-.046.917v.183c0 .275-.046.55-.046.825v.138a5.844 5.844 0 0 1-.046.917v1.192a52.5 52.5 0 0 0 3.165 18.056c.046.092.092.229.138.321.321.825.6 1.6.962 2.383.138.275.229.55.367.825s.229.55.367.779c.183.367.321.733.5 1.054v.046a9.846 9.846 0 0 0 .642 1.192c.183.321.321.642.5.963.046.092.092.138.137.229.138.275.321.55.458.825.733 1.238 1.513 2.475 2.383 3.667.092.138.183.229.275.367.183.229.367.5.55.733.092.092.138.183.229.275l.55.688a1 1 0 0 0 .183.229c.229.275.413.55.642.779 1.1 1.329 2.246 2.613 3.483 3.85.5.5 1.054 1.054 1.6 1.558.229.183.413.413.642.6.046.046.092.046.092.092a52.839 52.839 0 0 0 59.629 7.15c.367-.183.733-.413 1.146-.6 1.283-.733 2.567-1.513 3.8-2.338a58.574 58.574 0 0 0 5.042-3.85c1.1-.963 2.2-1.971 3.208-3.025a4.322 4.322 0 0 1 .458-.458 54.337 54.337 0 0 0 14.3-36.576z" class="cls-2" transform="translate(-6.3 -6.3)"/>
                <ellipse id="Ellipse_2" cx="2.769" cy="4.199" class="cls-2" rx="2.769" ry="4.199" transform="translate(5.353 62.62)"/>
                <g id="Group_390" transform="translate(15.295 64.378)">
                    <path id="Path_1072" d="M49.768 186.115l-3.415 3.322 1.292-5.491-1.154-1.246L41 188.007l1.154 1.2 3.369-3.276-1.2 5.445v.046l1.107 1.2 5.491-5.307z" class="cls-3" transform="translate(-41 -166.411)"/>
                    <path id="Path_1073" d="M59.637 196.5l-6.737 4.522 1.338.969 1.8-1.2 1.938 1.431-.6 2.077 1.431 1.061 2.169-7.845zm-2.307 3.415l1.661-1.107-.554 1.892z" class="cls-3" transform="translate(-47.409 -173.843)"/>
                    <path id="Path_1074" d="M77.075 205.076l-1.754-.923-3.23 1.569 1.292-2.538-1.477-.784-3.506 6.783 1.523.784 1.338-2.676.6 3.645 1.754.923-.738-4.845z" class="cls-3" transform="translate(-55.756 -177.02)"/>
                    <path id="Path_1075" d="M86.738 209.9l-4.938 6.414 1.615.508 1.292-1.707 2.307.738.092 2.169 1.707.554-.461-8.168zm.185 4.384l-1.292-.415 1.2-1.569z" class="cls-3" transform="translate(-62.973 -181.059)"/>
                    <path id="Path_1076" d="M103.407 213.169l-2.353-.369-1.154 7.522 1.661.231.461-3.138.508.092 1.061 3.369 1.8.277-1.246-3.738a2.223 2.223 0 0 0-.738-4.245zm-.923 1.338l.6.092a.777.777 0 0 1 .508.277.837.837 0 0 1 .092.6.694.694 0 0 1-.877.646l-.6-.092z" class="cls-3" transform="translate(-72.72 -182.621)"/>
                    <path id="Path_1077" d="M120.483 214.446l-1.753 5.354-2.03-5.261-2.4.092.231 7.614 1.523-.046-.138-5.122 2.03 5.076 1.569-.046 1.754-5.168.138 5.122 1.615-.046-.185-7.614z" class="cls-3" transform="translate(-80.475 -183.483)"/>
                    <path id="Path_1078" d="M140.707 211.67l-2.307.6 1.892 7.383 1.615-.415-.784-3 .692-.185a2.193 2.193 0 0 0 1.754-2.769 2.1 2.1 0 0 0-2.862-1.614zm.046 3.138l-.369-1.523.6-.138a.7.7 0 0 1 .923.554.737.737 0 0 1-.554.969z" class="cls-3" transform="translate(-93.454 -181.953)"/>
                    <path id="Path_1079" d="M154.144 210.425h-1.2c-.508 0-.738-.138-.877-.461a.649.649 0 0 1 .415-.877.728.728 0 0 1 1.015.508l.046.092 1.431-.6-.046-.092a2.215 2.215 0 0 0-1.154-1.384 2.288 2.288 0 0 0-1.892.092 2.759 2.759 0 0 0-1.384 1.2 2.189 2.189 0 0 0 0 1.707 2.058 2.058 0 0 0 1.846 1.43 6.185 6.185 0 0 0 .923.046h.508c.554 0 .877.185 1.015.554a.734.734 0 0 1-.461 1.015.786.786 0 0 1-.646 0 1.241 1.241 0 0 1-.554-.646l-.046-.092-1.477.6.046.092a2.616 2.616 0 0 0 1.246 1.523 2.2 2.2 0 0 0 .831.185 3.186 3.186 0 0 0 1.2-.277 2.747 2.747 0 0 0 1.477-1.292 2.256 2.256 0 0 0 0-1.892 2.525 2.525 0 0 0-2.262-1.431z" class="cls-3" transform="translate(-99.877 -179.738)"/>
                    <path id="Path_1080" d="M165.277 201.8l-1.477.877 1.477 7.983 1.43-.831-.415-2.123 2.077-1.2 1.661 1.384 1.523-.923-6.276-5.076zm1.938 3.645l-1.154.692-.369-1.938z" class="cls-3" transform="translate(-107.134 -176.697)"/>
                    <path id="Path_1081" d="M181.468 194.376l-.692-6v-.046l-.784-.831-4.292 3.922 1.061 1.154 2.538-2.307.738 5.953v.046l.738.831 4.384-3.968-1.061-1.154z" class="cls-3" transform="translate(-113.542 -168.996)"/>
                    <path id="Path_1082" d="M197.712 173.893a3.769 3.769 0 0 0-5.491.969 3.893 3.893 0 0 0-.692 2.953 4.071 4.071 0 0 0 1.661 2.538 4.223 4.223 0 0 0 2.353.784 3.921 3.921 0 0 0 3.184-1.754 3.991 3.991 0 0 0 .738-3 4.7 4.7 0 0 0-1.753-2.49zm-3.553 5.03a2.168 2.168 0 0 1-.692-3.138 2.107 2.107 0 0 1 1.754-.923 2.839 2.839 0 0 1 1.477.508 2.464 2.464 0 0 1 1.061 1.431 2.139 2.139 0 0 1-.369 1.707 2.192 2.192 0 0 1-3.232.415z" class="cls-3" transform="translate(-122.033 -161.249)"/>
                    <path id="Path_1083" d="M204.683 168.276l-5.353-2.63-.046-.046-.784 1.523 6.737 3.322.092.046 1.615-3.184-1.43-.692z" class="cls-3" transform="translate(-125.821 -157.202)"/>
                    <path id="Path_1084" d="M211.806 149.707l-4.568 1.246-2.723-3.553-.646 1.892 1.661 2.077-2.584.692L202.3 154l4.292-1.154 2.907 3.692.6-1.754-1.846-2.4 2.907-.784z" class="cls-3" transform="translate(-127.868 -147.4)"/>
                </g>
                <g id="Group_391" transform="translate(2.713 2.265)">
                    <path id="Path_1085" d="M95.044 75.325a1.523 1.523 0 0 0-1.015.046c-.923.415-1.2 1.846-.6 3.184s1.846 2.123 2.769 1.707 1.2-1.846.6-3.184a2.965 2.965 0 0 0-1.754-1.754" class="cls-3" transform="translate(-56.048 -45.703)"/>
                    <path id="Path_1086" d="M128.546 71.6c1.015 0 1.892-1.2 1.892-2.676a3.022 3.022 0 0 0-.877-2.307 1.538 1.538 0 0 0-.969-.415c-1.015 0-1.892 1.2-1.892 2.676s.831 2.723 1.846 2.723" class="cls-3" transform="translate(-74.253 -40.824)"/>
                    <path id="Path_1087" d="M132.354 55.037c.046.508.323 1.707.831 1.754.554.092.554-.369.508-.923a8.3 8.3 0 0 0-2.63-5.537 5.131 5.131 0 0 0-3.276-1.338 8.718 8.718 0 0 0-2.953.461.045.045 0 0 0-.046.046l-.046.092c-.461.692.323 2.861 1.107 2.584a7.033 7.033 0 0 1 3.092-.323 3.452 3.452 0 0 1 3.415 3.184" class="cls-3" transform="translate(-73.139 -31.552)"/>
                    <path id="Path_1088" d="M88.1 54.192a.161.161 0 0 0-.092-.046.143.143 0 0 0-.092-.046c-2.861.185-4.938 1.2-6.322 3.645a10.8 10.8 0 0 0-.969 7.291c.138.6.277 1.107.831.831.508-.277.415-1.754.323-2.307-.738-3.83 2.953-5.768 6-6 .923-.092 1.015-2.769.323-3.369" class="cls-3" transform="translate(-49.166 -34.307)"/>
                    <path id="Path_1089" d="M105.768 43.6a95.86 95.86 0 0 1-2.03-10.752c-.231-2.123 0-4.245-.092-6.322a8.076 8.076 0 0 0-2.492-5.722c-2.907-3-7.66-5.86-11.905-4.061-.784.323-1.754-.6-2.492-.461a3.98 3.98 0 0 0-2.953 2.63.873.873 0 0 1-1.246.369.045.045 0 0 1-.046-.046c-.831.277-2.215 1.846-2.907 1.292-1.661-1.2-3.461-3-5.353-3.184.646.969-3.507-.877-2.907.138.046.092.046-.646-3.138.277-5.722 1.661-3.184 1.707-6.83 3.738-1.384.784-1.569 4.615-2.03 2.815 0-.046-1.892 1.246-.969 1.754-.738-.415.508 1.707.185 2.492-.046.092-.092.231-.138.323-.092.046-.092.046-.092.185a.045.045 0 0 1-.046.046c-.369.969-2.584 1.015-3.415.323a1.09 1.09 0 0 1-.277-.415 9.664 9.664 0 0 0-7.2-2.815c-2.307-.046-5.722-.092-6.876 2.307a4.715 4.715 0 0 0-.461 1.8 25.315 25.315 0 0 0 .646 5.953c.369 2.723.784 5.445 1.338 8.168a73.263 73.263 0 0 0 1.984 8.352c.461 1.523.969 3 1.523 4.476a9.245 9.245 0 0 0 .784 1.846c.415.692.877.784 1.615 1.015a.17.17 0 0 1 .138.046 13.982 13.982 0 0 0 1.984.554h.138a6.809 6.809 0 0 1 0-1.938c-.092-2.723-.369-5.445-.461-8.168a36.907 36.907 0 0 1 2.63-16.1 1.641 1.641 0 0 1 1.384-.6c1.154-.092 2.584.323 2.261 1.061a29.885 29.885 0 0 0-2.63 13.013c-.046 1.661 2.492 4.245 3.276 7.014.877-1.107-.046-1.154-.323-1.8-.554-1.338 2.723-1.754 3.184-.646.415 1.061.831 2.123 1.292 3.23.092.277.231.554.369.877a3.987 3.987 0 0 1 .323.969 1.551 1.551 0 0 1-.231 1.292c-.046.138-.138.277-.185.415-2.169 5.03-1.338 11.259 1.384 15.92 2.492 4.292 7.476 8.675 12.875 7.383 3.184-.738 4.845-2.861 4.615-6.137-.046-.508-.092-1.015-.185-1.523-.185-1.338-.461-2.676-.784-4.015-.277-.877-.554-1.754-.738-2.63a7.417 7.417 0 0 1-1.523-.554c-3-1.477-5.168-4.245-7.153-6.876a3.341 3.341 0 0 1-.508-.877c-.831-2.077.969-3.184 2.492-3.922a39.874 39.874 0 0 1 10.844-3.784 2.869 2.869 0 0 1 2.307.323A1.286 1.286 0 0 1 85 54.171c.831.508 1.015 1.892.923 2.953a40.764 40.764 0 0 1-1.107 6.645 6.781 6.781 0 0 1-2.169 3.968 3.1 3.1 0 0 1-.508.323c.277 1.061.6 2.077.831 3.138.323.969.692 1.938 1.015 2.861.092.231.185.508.277.784.6 1.846 1.2 3.969 3.184 4.661 1.938.692 4.153-.738 5.584-1.938a15.279 15.279 0 0 0 5.17-9.228 19.085 19.085 0 0 0 .277-3.23 21.084 21.084 0 0 0-3.138-11.768 9.009 9.009 0 0 0-.784-1.061 5.052 5.052 0 0 0-.461-.508 9.163 9.163 0 0 0-.969-.923c-.738-.6-1.754-.831-2.446-1.431-.692-.554-.738-1.707-.969-2.584a12.873 12.873 0 0 1-.6-3.23c-.046-.6 3.784-1.107 3.784 0a23.953 23.953 0 0 0-2.861-11.167.17.17 0 0 1-.046-.138l-.831-.831a17.26 17.26 0 0 0-2.907-2.215c-1.292-.784-2.353-1.754-2.261-3.369a13.258 13.258 0 0 1 .461-2.584c.323-1.2.692-2.446.969-3.6.369-1.523 4.845-1.015 3.369 1.154a3.137 3.137 0 0 0-.508 2.307 2.7 2.7 0 0 1-.138.969c-.231.831-.646 1.8-.277 2.584.323.738 1.246 1.015 1.846 1.431a15.573 15.573 0 0 1 1.754 1.292 23.3 23.3 0 0 1 5.03 6.183c2.492 4.245 4.384 8.675 7.429 12.367.092.092.185.231.277.323.508-1.2 1.061-2.353 1.615-3.553a4.805 4.805 0 0 1 .231-.554.915.915 0 0 1-.277-.6M60.038 43.1c.092.554.185 2.03-.323 2.307-.554.323-.738-.185-.831-.831a10.98 10.98 0 0 1 .969-7.245c1.338-2.446 3.461-3.461 6.322-3.645a.143.143 0 0 1 .092.046l.092.046c.692.6.6 3.276-.277 3.369-3.092.185-6.783 2.123-6.045 5.953m7.568 5.353c-.923.415-2.169-.369-2.769-1.707s-.323-2.769.6-3.184a1.537 1.537 0 0 1 1.015-.046 3.1 3.1 0 0 1 1.754 1.754c.6 1.338.323 2.769-.6 3.184m14.259-3.784c-1.015 0-1.846-1.2-1.846-2.723 0-1.477.877-2.676 1.892-2.676a1.328 1.328 0 0 1 .969.415 3.022 3.022 0 0 1 .877 2.307c0 1.477-.877 2.676-1.892 2.676m3.646-11.956a8.1 8.1 0 0 1 2.63 5.537c.046.554.046.969-.508.923-.508-.046-.784-1.246-.831-1.754-.185-2.077-1.707-3-3.461-3.184a8.729 8.729 0 0 0-3.092.323c-.784.231-1.523-1.892-1.107-2.584a.161.161 0 0 0 .046-.092l.046-.046a8.718 8.718 0 0 1 2.953-.461 5.057 5.057 0 0 1 3.322 1.338" class="cls-1" transform="translate(-27.173 -13.89)"/>
                    <path id="Path_1090" d="M70.922 171.75a14 14 0 0 0-4.8.185c-.277.046-.554.138-.923.231a35.906 35.906 0 0 0 7.752 4.522 21.72 21.72 0 0 0 2.4.969l-.831-1.107c-1.2-1.569-2.446-3.138-3.6-4.8" class="cls-1" transform="translate(-40.931 -97.598)"/>
                    <path id="Path_1091" d="M164.06 163.345c-.185.046-.323.046-.461.092h-.138c-.185.369-.415.738-.646 1.107-.415.6-.877 1.107-1.338 1.661-.877.969-1.846 1.892-2.676 2.907a28.7 28.7 0 0 0-2.4 3.6 39.481 39.481 0 0 0 9.737-5.953c1.015-.831 1.984-1.707 2.953-2.63l.092-.092c-.231-.138-.415-.231-.646-.369a9.253 9.253 0 0 0-4.476-.323" class="cls-1" transform="translate(-90.404 -93.069)"/>
                    <path id="Path_1092" d="M119.134 150.407c.508-1.754.877-4.107.138-5.907a14.289 14.289 0 0 1-7.568 5.353 11.661 11.661 0 0 1-2.538.415 9.372 9.372 0 0 1-5.584-1.292 6.976 6.976 0 0 1-2.953 3.184c-7.476 4.245-16.1.369-20.673-6.091-.323.092-.646.138-.969.231a7.322 7.322 0 0 0-1.246 4.8c.369 2.723 2.4 5.214 3.968 7.383.461.6.877 1.246 1.338 1.846.923 1.246 1.8 2.446 2.676 3.692.092.138-.231 1.754-.138 1.892a89.825 89.825 0 0 0 8.952 2.123c-.692-1.477-3.23-5.261-3.922-6.691-.877-1.8-1.707-3.645-2.446-5.537-.369-.923 2.584-1.154 2.907-.323 1.338 3.415 1.846 6.876 3.461 10.2.046 0-.554 2.4-.508 2.446a10.41 10.41 0 0 0 1.015.508c.277 0 .923-.554 1.2-.554a18.862 18.862 0 0 0 2.769.138 9.172 9.172 0 0 0 1.846-.692 70.575 70.575 0 0 1 4.015-11.352c.461-1.015 2.769-2.077 2.215-.923-.6 1.338-1.2 2.723-1.707 4.107-.784 2.03-4.384 7.153-4.938 9.275 2.261-.277 7.706-2.538 9.921-3.184 1.246-2.584 2.492-6.23 4.384-8.352 1.892-2.261 3.553-3.876 4.384-6.691" class="cls-1" transform="translate(-47.842 -82.992)"/>
                    <path id="Path_1093" d="M119.593 101.815a1.463 1.463 0 0 0 0-.784.858.858 0 0 0-.323-.554 2.133 2.133 0 0 0-1.846-.138 44.1 44.1 0 0 0-6.414 1.8c-1.292.461-3.738 1.8-3.276 2.215a3.686 3.686 0 0 0 1.661-.415 21.362 21.362 0 0 1 9.552-1.8c.323 0 .554-.046.646-.323" class="cls-1" transform="translate(-63.973 -59.134)"/>
                    <path id="Path_1094" d="M103.37 167.525c-.323-.784-3.276-.6-2.907.323.738 1.892 1.569 3.692 2.446 5.537.692 1.477 2.676 5.676 2.815 5.722.277.046.461.554.738.6.646.046 1.107-.369 1.754-.323.138 0 1.569-.369 1.569-.369-2.216-.185-5.077-8.029-6.415-11.49z" class="cls-3" transform="translate(-60.033 -95.126)"/>
                    <path id="Path_1095" d="M192.458 95.744c-.461-1.754.646-2.907 1.154-4.476a5.654 5.654 0 0 0-.554-4.568 5.964 5.964 0 0 0-2.861-2.261 1.252 1.252 0 0 0-.508-.138c-1.8.415-3 2.215-3.784 3.738-1.2 2.4-1.2 5.076-4.107 5.907-1.477.415-2.953.831-4.43 1.2-.831.185-3 .738-3.968.969a3.908 3.908 0 0 0 .185.784s.185.923.323 2.123a26 26 0 0 1 .138 2.676c2.077-.461 4.8-1.2 6.876-1.569a4.53 4.53 0 0 1 4.015 1.061c1.338 1.292 1.707 3.276 3.092 4.615a4.29 4.29 0 0 0 1.938 1.2 2.206 2.206 0 0 0 1.615-.323 4.211 4.211 0 0 0 2.446-2.261 6.679 6.679 0 0 0 .508-1.707 7.148 7.148 0 0 0-.277-3.83c-.461-1.154-1.477-1.938-1.8-3.138" class="cls-1" transform="translate(-99.722 -50.571)"/>
                    <path id="Path_1096" d="M45.831 132.793c.554-.138 1.107-.323 1.938-.6-.092-.185-.461-1.338-.554-1.477a19.133 19.133 0 0 1-1.107-3.6c-1.523.369-3 .877-4.522 1.292a21.254 21.254 0 0 1-2.861.646 6.368 6.368 0 0 1-5.214-1.246 15.346 15.346 0 0 1-1.569-2.169 9.122 9.122 0 0 0-2.492-2.307 6.086 6.086 0 0 0-7.706 1.292 6.186 6.186 0 0 0-.877 5.445c.508 1.477 1.938 2.169 2.492 3.507.554 1.384 0 2.307-.6 3.322a12.432 12.432 0 0 0-.738 1.338 4.527 4.527 0 0 0 .779 4.664 7.353 7.353 0 0 0 3.738 2.077 3.784 3.784 0 0 0 .877.046c2.353-.277 4.153-2.169 5.307-4.061.923-1.477 1.107-3.876 2.4-4.984a5.9 5.9 0 0 1 2.63-1.154c2.723-.738 5.4-1.384 8.075-2.03" class="cls-1" transform="translate(-16.704 -71.146)"/>
                    <path id="Path_1097" d="M109.307 91.821a5.137 5.137 0 0 1-1.145-2.077 4.686 4.686 0 0 1 .825-2.907 6.556 6.556 0 0 0 .366-4.661 7.167 7.167 0 0 0-5.039-4.615c-4.581-1.338-8.154 1.984-9.712 6.045-.5 1.338-.733 2.907-2.2 3.461-.825.323-5.36 1.431-6.872 1.8-1.145-3.922-3.39-7.245-7.146-9a27.068 27.068 0 0 1-1.1-5.076c0-.415-.55-.646-1.237-.738-1.1-.138-2.52.092-2.52.738a12.957 12.957 0 0 0 .6 3.23 5.333 5.333 0 0 0 .962 2.584c.687.6 1.695.831 2.428 1.431.321.277.641.6.962.923a5.041 5.041 0 0 0 .458.508 9.005 9.005 0 0 1 .779 1.061A21.2 21.2 0 0 1 82.829 96.3a18.818 18.818 0 0 1-.275 3.23 15.308 15.308 0 0 1-5.131 9.229c-1.42 1.154-3.665 2.63-5.543 1.938-1.924-.738-2.52-2.815-3.161-4.661-.092-.277-.183-.554-.275-.784-.321-.923-.687-1.892-1.008-2.861-.275-1.061-.55-2.123-.825-3.138a1.889 1.889 0 0 0 .5-.323 6.8 6.8 0 0 0 2.153-3.968 40.218 40.218 0 0 0 1.1-6.645c.092-1.061-.092-2.446-.916-2.953a1.22 1.22 0 0 0-.275-1.523 2.8 2.8 0 0 0-2.291-.323 41.417 41.417 0 0 0-11.5 4.153 3.672 3.672 0 0 0-1.329 1.061c-1.237 1.523-.321 2.815.5 3.922 1.878 2.492 3.94 4.984 6.734 6.368a9.983 9.983 0 0 0 1.512.554c.183.877.458 1.754.733 2.63a38.815 38.815 0 0 1 .779 4.015c.046.415.092.784.137 1.2a6.033 6.033 0 0 1-4.581 6.46c-5.314 1.292-10.262-3.092-12.781-7.383-2.7-4.661-3.573-10.844-1.374-15.92.046-.138.137-.277.183-.415a1.625 1.625 0 0 0 .229-1.292 7.993 7.993 0 0 0-.321-.969 7.127 7.127 0 0 1-.366-.877c-.412-1.061-.825-2.123-1.283-3.23-.458-1.154-4.169-.877-3.619.508.092.231.275.6.366.831l.412 1.107c.137.323.275.646.412 1.015.229.554.5 1.107.687 1.707.229.831 0 .508-.366 1.384A18.093 18.093 0 0 0 41 99.435c-2.107.554-4.031 1.154-5.589 1.569-.87.231-2.245.692-3.069.231s-1.237-1.707-1.832-2.446a10.836 10.836 0 0 0-7.055-3.968c-2.84-.415-6.688.277-8.979 2.215a6.741 6.741 0 0 0-1.054 8.952c.6.738 1.466 1.246 1.695 2.215.275 1.154-.458 1.892-.962 2.815a5.632 5.632 0 0 0-.5 4.845c1.054 2.723 3.94 3.968 6.6 4.568 5.635 1.246 10.4-2.353 12.506-7.429.6-1.477 1.1-2.261 2.657-2.63 1.191-.277 2.382-.6 3.573-.877.275-.046.5-.138.779-.185a7.307 7.307 0 0 0-.733 2.769 9.663 9.663 0 0 0 1.741 5.353 15.953 15.953 0 0 0-6.23.877c.412.369.87.738 1.329 1.107a3.963 3.963 0 0 0 .458.323 8.858 8.858 0 0 1 .916-.231 12.753 12.753 0 0 1 4.764-.185q1.718 2.492 3.573 4.845l.825 1.107a41.023 41.023 0 0 0 3.986 1.431 3.853 3.853 0 0 0-.366-.554c-.87-1.246-1.787-2.492-2.657-3.692-.458-.6-.916-1.246-1.329-1.846-1.558-2.169-3.527-4.661-3.94-7.383a7.387 7.387 0 0 1 1.283-4.891 6.716 6.716 0 0 0 .962-.046c4.535 6.414 13.056 10.2 20.431 6a6.335 6.335 0 0 0 2.932-3.184 9.406 9.406 0 0 0 5.543 1.292 11.5 11.5 0 0 0 2.52-.415 13.946 13.946 0 0 0 7.513-5.353c.733 1.8.366 4.2-.137 5.907-.825 2.815-2.428 4.476-4.352 6.6a31.663 31.663 0 0 0-4.9 7.522c1.283-.415 2.84-1.338 4.123-1.892a28.723 28.723 0 0 1 2.382-3.6 39.025 39.025 0 0 1 2.657-2.907 9.172 9.172 0 0 0 1.329-1.661c.229-.369.458-.738.641-1.107h.137c.229-.046.5-.092.733-.138a8.811 8.811 0 0 1 3.115.092 5.053 5.053 0 0 1 1.695.692l1.237-1.246a15.7 15.7 0 0 0-6.413-.6c.229-.6.412-1.246.6-1.846.733-2.907.825-6.183-1.42-8.26a17.391 17.391 0 0 0 1.145-3.276c0-.092.275-1.061.366-1.892.046-.369.046-.277.046-.323 1.97-.415 7.513-1.707 8.338-1.892a.143.143 0 0 0 .046.092c1.1 2.953 3.527 5.584 6.734 6.137a8.494 8.494 0 0 0 7.009-2.077 7.722 7.722 0 0 0 .916-9.137M28.131 114.8c-1.191 1.938-2.978 3.784-5.268 4.061a3.729 3.729 0 0 1-.87-.046 7.106 7.106 0 0 1-3.711-2.077 4.656 4.656 0 0 1-.779-4.661 6.245 6.245 0 0 1 .733-1.338c.6-1.015 1.145-1.938.6-3.322s-1.97-2.077-2.474-3.507a6.081 6.081 0 0 1 .87-5.445 6 6 0 0 1 7.65-1.292 9.082 9.082 0 0 1 2.474 2.307 23.47 23.47 0 0 0 1.558 2.169 6.131 6.131 0 0 0 5.177 1.246 19.513 19.513 0 0 0 2.84-.646c1.512-.415 2.978-.923 4.489-1.292a23.385 23.385 0 0 0 1.1 3.6c.092.185.458 1.338.55 1.477-.87.277-1.42.461-1.924.6-2.657.646-5.314 1.292-7.971 1.984a6.982 6.982 0 0 0-2.611 1.154c-1.329 1.2-1.512 3.6-2.428 5.03m29.543-24.965a3.638 3.638 0 0 1-1.649.415c-.412-.415 2.016-1.8 3.253-2.215a43.532 43.532 0 0 1 6.368-1.8 2.289 2.289 0 0 1 1.832.138.858.858 0 0 1 .321.554 1.474 1.474 0 0 1 0 .784.58.58 0 0 1-.6.323 21.034 21.034 0 0 0-9.529 1.8m49.292 7.383a7.318 7.318 0 0 1-.5 1.707 4.192 4.192 0 0 1-2.428 2.261 2.22 2.22 0 0 1-1.6.323 4.409 4.409 0 0 1-1.924-1.2c-1.42-1.338-1.787-3.322-3.069-4.615a4.758 4.758 0 0 0-3.986-1.061c-2.061.323-4.764 1.061-6.826 1.569a26.183 26.183 0 0 0-.137-2.676c-.137-1.246-.321-2.123-.321-2.123a3.931 3.931 0 0 0-.183-.784c.962-.231 3.115-.784 3.94-.969 1.466-.369 2.978-.738 4.4-1.2 2.886-.831 2.886-3.507 4.077-5.907.779-1.569 1.97-3.369 3.756-3.738a.99.99 0 0 1 .5.138 6.215 6.215 0 0 1 2.84 2.261 5.713 5.713 0 0 1 .55 4.568c-.5 1.569-1.558 2.723-1.145 4.476.321 1.2 1.328 2.03 1.741 3.184a6.581 6.581 0 0 1 .321 3.784" class="cls-3" transform="translate(-12.18 -45.033)"/>
                    <path id="Path_1098" d="M131.206 166.151c.508-1.154-2.446-1.477-2.907-.461-1.569 3.461-2.215 6.968-3.922 10.29-.508.969-1.569 1.892-2.077 1.892.369 0 1.477 1.338 1.754 1.338a2.222 2.222 0 0 0 .554 0c.692-.046.923-.784 1.615-.877.046 0 .969-.415 1.015-.415.554-2.123 1.615-5.63 2.353-7.66a32.836 32.836 0 0 1 1.615-4.107" class="cls-3" transform="translate(-71.89 -94.075)"/>
                    <path id="Path_1099" d="M140.385 14.019c4.245-1.754 8.952 1.061 11.905 4.061a8.358 8.358 0 0 1 2.492 5.722c.092 2.123-.138 4.245.092 6.322a77.45 77.45 0 0 0 2.03 10.752c.046.231.092.508.138.738a2.822 2.822 0 0 0-.231.554c-.554 1.154-1.107 2.353-1.615 3.553-.092-.092-.185-.231-.277-.323-3.092-3.738-4.984-8.122-7.429-12.367a21.785 21.785 0 0 0-5.03-6.183c-.554-.461-1.154-.877-1.754-1.292s-1.523-.692-1.846-1.431c-.369-.784.046-1.8.277-2.584.046-.092.046-.231.092-.323.277-1.154.554-2.353.831-3.507.415-1.661-3.322-1.984-3.645-.6-.277 1.154-.692 2.353-.969 3.6a12.674 12.674 0 0 0-.461 2.584c-.138 1.615.969 2.584 2.261 3.369a17.261 17.261 0 0 1 2.907 2.215l.831.831a20.245 20.245 0 0 1 2.63 3.553c3.322 5.584 5.584 11.582 10.66 15.966.784.646 2.953.923 3.461-.277.877-2.215 2.215-4.384 2.907-6.645a3.5 3.5 0 0 0-.231-2.261 54.778 54.778 0 0 1-1.892-13.659c.046-2.215.092-4.568-.923-6.645-1.107-2.261-3.322-4.061-5.353-5.445-3.968-2.723-9.229-4.107-13.844-2.215-1.061.415-1.061 1.015-.6 1.431a2.85 2.85 0 0 0 2.584.508" class="cls-3" transform="translate(-78.867 -11.207)"/>
                    <path id="Path_1100" d="M78.3 19.167a19.63 19.63 0 0 0-17.72-2.307 15.979 15.979 0 0 0-5.491 3.461 23.312 23.312 0 0 0-4.107 5.907c-3.83-2.215-8.906-2.261-13.151-1.569-2.492.415-5.122 1.431-5.907 4.061-.877 3.046.277 6.876.738 9.921 1.015 6.876 2.261 14.12 5.214 20.442.646 1.384 1.569 1.707 2.953 2.077a19.035 19.035 0 0 0 4.476 1.015h.461c.138 0 .323.046.461.046a4.257 4.257 0 0 0 1.707-.231c1.477-.6 1.338-1.8 1.292-3.184-.138-3.738-.369-7.383-.369-11.029v-.092a33.124 33.124 0 0 1 2.446-13.059c.323-.738-1.061-1.154-2.261-1.061-.646.046-1.246.231-1.384.6a35.507 35.507 0 0 0-2.63 16.1c.092 2.723.323 5.445.461 8.168a9.045 9.045 0 0 0 0 1.938h-.138a13.373 13.373 0 0 1-1.938-.554c-.046 0-.092-.046-.138-.046a2.21 2.21 0 0 1-1.615-1.015 13.037 13.037 0 0 1-.784-1.846 39.335 39.335 0 0 1-1.523-4.476 84.559 84.559 0 0 1-1.984-8.352c-.508-2.723-.923-5.445-1.338-8.168-.231-1.754-.831-3.968-.646-5.953a5.74 5.74 0 0 1 .461-1.8c1.2-2.4 4.568-2.307 6.876-2.307 4.153-.046 5.907 3 7.66 3.507 1.015.277 2.861.369 3.23-.6 0 0 .185-.508.231-.6a15.493 15.493 0 0 1 .738-1.523 1.466 1.466 0 0 1 .138-.415c1.107-2.538 2.584-4.615 6.645-6.553a16.589 16.589 0 0 1 9.783-1.338 5.776 5.776 0 0 1 1.061.323 11.459 11.459 0 0 1 2.769 1.477 2.892 2.892 0 0 0 2.538.415h.046c.554-.138 1.477-.877.738-1.384" class="cls-3" transform="translate(-22.642 -13.633)"/>
                </g>
                <path id="Path_1101" d="M83.063 158.663a36.227 36.227 0 0 0 36.224-36.224v-.784c-.046-2.815-5.814-3.645-5.676-1.431.046.738.092 1.477.092 2.215a30.648 30.648 0 0 1-59.02 11.582c-.738-1.8-5.307 2.169-3.968 4.8a36.294 36.294 0 0 0 32.348 19.842z" class="cls-3" transform="translate(-30.48 -67.524)"/>
            </g>
        </g>
    </g>
</svg>
