<svg xmlns="http://www.w3.org/2000/svg" data-name="Layer 1" width="532.243896484375" height="60.34146499633789"><rect id="backgroundrect" width="100%" height="100%" x="0" y="0" fill="none" stroke="none" class=""/><title>Dodajwygodnie</title><g class="currentLayer"><title>Layer 1</title><circle cx="306.4638977050781" cy="51.95804977416992" r="2.7300000190734863" id="svg_101" class="" fill-opacity="1" fill="#49aeef"/><path d="M0.8539022064208979,0.09804889678955142 h9.84 c8.3,0 9.84,5.67 9.84,14.47 C20.533902206420898,25.06804889678955 18.2439022064209,29.87804889678955 10.313902206420899,29.87804889678955 H0.8539022064208979 zm6,25.35 h2.67 c4.17,0 5,-2.63 5,-10.71 c0,-6.75 -0.5800000000000001,-10.21 -5.13,-10.21 H6.853902206420898 z" id="svg_1" class="" fill-opacity="1" fill="#7c919b"/><path d="M32.4139022064209,6.878048896789551 c6.88,-0.12000000000000001 8.84,4 8.84,11.8 c0,7.67 -2.29,11.8 -8.84,11.8 c-6.88,0.13 -8.84,-4 -8.84,-11.8 C23.573902206420897,10.978048896789552 25.863902206420896,6.878048896789551 32.4139022064209,6.878048896789551 zm0,19.68 c2.33,0 3.08,-2.25 3.08,-7.88 s-0.7500000000000001,-7.88 -3.08,-7.88 c-2.83,0 -3.08,3.29 -3.08,7.88 S29.573902206420897,26.52804889678955 32.4139022064209,26.52804889678955 z" id="svg_2" class="" fill-opacity="1" fill="#7c919b"/><path d="M55.84390220642089,27.48804889678955 h-0.08000000000000002 a5.37,5.37 0 0 1 -5.09,3 c-4.71,0 -6.88,-3.46 -6.88,-11.8 S45.9639022064209,6.878048896789551 50.6739022064209,6.878048896789551 a5.38,5.38 0 0 1 4.84,2.67 h0.08000000000000002 V0.09804889678955142 H61.34390220642089 V29.87804889678955 H55.84390220642089 zm-3.29,-1.46 c2.54,0 3,-2.5 3,-7.38 s-0.5,-7.38 -3,-7.38 s-3,2.5 -3,7.38 S50.043902206420896,26.02804889678955 52.5539022064209,26.02804889678955 z" id="svg_3" class="" fill-opacity="1" fill="#7c919b"/><path d="M65.1439022064209,14.318048896789552 V13.77804889678955 c0,-5.17 3.54,-6.92 7.88,-6.92 c6.84,0 8.13,2.83 8.13,6.88 v11.8 A9.7,9.7 0 0 0 81.8539022064209,29.87804889678955 h-5.5 a8.91,8.91 0 0 1 -0.7100000000000001,-2.33 h-0.08000000000000002 C74.2439022064209,29.87804889678955 72.6439022064209,30.44804889678955 69.8539022064209,30.44804889678955 c-4,0 -5.42,-3.42 -5.42,-6.42 c0,-4.25 1.71,-5.92 5.67,-7 l3.25,-0.8800000000000001 c1.71,-0.46 2.29,-1.13 2.29,-2.63 c0,-1.71 -0.7100000000000001,-2.75 -2.67,-2.75 c-1.79,0 -2.67,1.13 -2.67,2.92 v0.6300000000000001 zm10.5,4.34 a6.41,6.41 0 0 1 -2.46,1.13 c-2.33,0.5 -3.25,1.6300000000000001 -3.25,3.63 c0,1.71 0.6300000000000001,3.13 2.17,3.13 a3.37,3.37 0 0 0 3.54,-3.46 z" id="svg_4" class="" fill-opacity="1" fill="#7c919b"/><path d="M85.4439022064209,7.4380488967895495 H91.2439022064209 v24 c0,3.79 -1.46,5.79 -6.59,5.79 c-0.6700000000000002,0 -1.5,0 -2.33,-0.08000000000000002 V32.94804889678955 a1.49,1.49 0 0 0 0.46,0.08000000000000002 h0.46 c2,0 2.25,-1.08 2.25,-3.58 zm0,-7.67 H91.2439022064209 v4.92 H85.4439022064209 z" id="svg_5" class="" fill-opacity="1" fill="#7c919b"/><path d="M103.6139022064209,7.4380488967895495 h5.75 l2.63,15.92 h0.08000000000000002 l2.79,-15.92 h6.25 l3,15.92 h0.08000000000000002 l2.71,-15.92 h5.5 L127.54390220642091,29.87804889678955 h-6.54 l-3,-15.92 h-0.08000000000000002 L115.1639022064209,29.87804889678955 h-6.67 z" id="svg_6" class="" fill-opacity="1" fill="#7c919b"/><path d="M134.5939022064209,32.87804889678955 a9.05,9.05 0 0 0 1.5,0.13 c2.13,0 2.92,-1.17 3.08,-3.17 l-6.29,-22.43 h6 L142.2439022064209,22.94804889678955 h0.08000000000000002 L145.2439022064209,7.4380488967895495 h5.75 l-5.42,20.93 c-2,7.75 -3.29,8.84 -8.63,8.84 h-2.33 z" id="svg_7" class="" fill-opacity="1" fill="#7c919b"/><path d="M169.9039022064209,7.4380488967895495 v21.3 c0,6 -2.63,8.8 -9.34,8.8 c-4.88,0 -7.63,-2.17 -7.63,-6 h5.5 a2,2 0 0 0 0.8800000000000001,1.71 A3.4,3.4 0 0 0 161.2439022064209,33.87804889678955 c2.33,0 3.17,-1.71 3.17,-4 V26.87804889678955 h-0.08000000000000002 a6.05,6.05 0 0 1 -4.79,2.75 c-4.54,0 -6.88,-3.17 -6.88,-11.34 c0,-5.25 0.8300000000000001,-11.42 7,-11.42 a5,5 0 0 1 4.63,3.08 h0.08000000000000002 v-2.5 zM161.2439022064209,25.19804889678955 c2.46,0 3.13,-2.63 3.13,-6.42 c0,-5.46 -0.7100000000000001,-7.5 -3,-7.5 c-2.54,0 -3,2 -3,8.09 C158.3939022064209,22.44804889678955 158.8139022064209,25.19804889678955 161.2439022064209,25.19804889678955 z" id="svg_8" class="" fill-opacity="1" fill="#7c919b"/><path d="M182.0339022064209,6.878048896789551 c6.88,-0.12000000000000001 8.84,4 8.84,11.8 c0,7.67 -2.29,11.8 -8.84,11.8 c-6.88,0.13 -8.84,-4 -8.84,-11.8 C173.2439022064209,10.978048896789552 175.4839022064209,6.878048896789551 182.0339022064209,6.878048896789551 zm0,19.68 c2.33,0 3.08,-2.25 3.08,-7.88 s-0.7500000000000001,-7.88 -3.08,-7.88 c-2.83,0 -3.08,3.29 -3.08,7.88 S179.2439022064209,26.52804889678955 182.0339022064209,26.52804889678955 z" id="svg_9" class="" fill-opacity="1" fill="#7c919b"/><path d="M205.4639022064209,27.48804889678955 h-0.08000000000000002 a5.37,5.37 0 0 1 -5.09,3 c-4.71,0 -6.88,-3.46 -6.88,-11.8 S195.5839022064209,6.878048896789551 200.2439022064209,6.878048896789551 a5.38,5.38 0 0 1 4.84,2.67 H205.2439022064209 V0.09804889678955142 h5.75 V29.87804889678955 h-5.5 zm-3.29,-1.46 c2.54,0 3,-2.5 3,-7.38 s-0.5,-7.38 -3,-7.38 s-3,2.5 -3,7.38 S199.6639022064209,26.02804889678955 202.1639022064209,26.02804889678955 z" id="svg_10" class="" fill-opacity="1" fill="#7c919b"/><path d="M214.8039022064209,7.4380488967895495 h5.5 v2.63 h0.08000000000000002 A6.11,6.11 0 0 1 226.0939022064209,6.878048896789551 c3.63,0 5.71,1.92 5.71,6.38 V29.87804889678955 h-5.75 V14.39804889678955 c0,-2.29 -0.7500000000000001,-3.13 -2.46,-3.13 c-2,0 -3,1.25 -3,3.71 V29.87804889678955 h-5.75 z" id="svg_11" class="" fill-opacity="1" fill="#7c919b"/><path d="M235.8539022064209,-0.23195110321044865 h5.75 v4.92 h-5.75 zm0,7.67 h5.75 V29.87804889678955 h-5.75 z" id="svg_12" class="" fill-opacity="1" fill="#7c919b"/><path d="M250.57390220642088,19.52804889678955 v1.79 c0,2.67 0.7100000000000001,5.21 2.83,5.21 c2,0 2.71,-1.3800000000000001 3,-4.21 h5.17 c-0.21000000000000002,5.21 -2.63,8.13 -8.13,8.13 c-8.34,0 -8.67,-6.42 -8.67,-12 c0,-6 1.17,-11.59 8.92,-11.59 c6.71,0 8.21,4.5 8.21,11.38 v1.29 zm5.88,-3.42 c-0.12000000000000001,-3.42 -0.54,-5.34 -2.92,-5.34 s-3,2.33 -3,4.46 v0.8800000000000001 z" id="svg_13" class="" fill-opacity="1" fill="#7c919b"/><path d="M265.1639022064209,7.4380488967895495 h5.75 v24 c0,3.79 -1.46,5.79 -6.59,5.79 c-0.6700000000000002,0 -1.5,0 -2.33,-0.08000000000000002 V32.94804889678955 a1.49,1.49 0 0 0 0.46,0.08000000000000002 h0.46 c2,0 2.25,-1.08 2.25,-3.58 zm0,-7.67 h5.75 v4.92 h-5.75 z" id="svg_14" class="" fill-opacity="1" fill="#7c919b"/><path d="M284.9639022064209,7.4380488967895495 h5.5 v2.38 h0.08000000000000002 a5.37,5.37 0 0 1 5.09,-3 c4.71,0 6.88,3.46 6.88,11.8 s-2.17,11.8 -6.88,11.8 a5.38,5.38 0 0 1 -4.84,-2.67 h-0.08000000000000002 v9.42 h-5.75 zm8.8,18.59 c2.5,0 3,-2.5 3,-7.38 s-0.5,-7.38 -3,-7.38 s-3,2.5 -3,7.38 S291.2439022064209,26.02804889678955 293.7539022064209,26.02804889678955 z" id="svg_15" class="" fill-opacity="1" fill="#7c919b"/><path d="M305.8039022064209,7.4380488967895495 h5.5 v3 h0.08000000000000002 c1.17,-2.17 2.79,-3.58 5.17,-3.58 a8.69,8.69 0 0 1 1,0.08000000000000002 v5.5 c-0.6200000000000001,0 -1.17,-0.08000000000000002 -1.79,-0.08000000000000002 c-2,0 -4.25,1 -4.25,4 V29.87804889678955 h-5.75 z" id="svg_16" class="" fill-opacity="1" fill="#7c919b"/><path d="M318.77390220642087,25.44804889678955 l9,-13.34 h-8.55 V7.4380488967895495 h15.34 V11.87804889678955 l-9,13.34 h9 V29.87804889678955 H318.77390220642087 z" id="svg_17" class="" fill-opacity="1" fill="#7c919b"/><path d="M342.3639022064209,19.52804889678955 v1.79 c0,2.67 0.7100000000000001,5.21 2.83,5.21 c2,0 2.71,-1.3800000000000001 3,-4.21 h5.17 c-0.21000000000000002,5.21 -2.63,8.13 -8.13,8.13 c-8.34,0 -8.67,-6.42 -8.67,-12 c0,-6 1.17,-11.59 8.92,-11.59 c6.71,0 8.21,4.5 8.21,11.38 v1.29 zM348.2439022064209,16.10804889678955 c-0.12000000000000001,-3.42 -0.54,-5.34 -2.92,-5.34 s-3,2.33 -3,4.46 v0.8800000000000001 z" id="svg_18" class="" fill-opacity="1" fill="#7c919b"/><path d="M355.8339022064209,25.44804889678955 l9,-13.34 H356.2439022064209 V7.4380488967895495 h15.34 V11.87804889678955 l-9,13.34 h9 V29.87804889678955 H355.8339022064209 z" id="svg_19" class="" fill-opacity="1" fill="#7c919b"/><path d="M384.4739022064209,14.318048896789552 V13.77804889678955 c0,-5.17 3.54,-6.92 7.88,-6.92 c6.84,0 8.13,2.83 8.13,6.88 v11.8 a9.7,9.7 0 0 0 0.7100000000000001,4.34 h-5.5 a8.93,8.93 0 0 1 -0.7100000000000001,-2.33 h-0.08000000000000002 c-1.33,2.33 -2.92,2.92 -5.71,2.92 c-4,0 -5.42,-3.42 -5.42,-6.42 c0,-4.25 1.71,-5.92 5.67,-7 l3.25,-0.8800000000000001 c1.71,-0.46 2.29,-1.13 2.29,-2.63 c0,-1.71 -0.7100000000000001,-2.75 -2.67,-2.75 c-1.79,0 -2.67,1.13 -2.67,2.92 v0.6300000000000001 zm10.5,4.34 a6.41,6.41 0 0 1 -2.46,1.13 c-2.33,0.5 -3.25,1.6300000000000001 -3.25,3.63 c0,1.71 0.6300000000000001,3.13 2.17,3.13 a3.37,3.37 0 0 0 3.54,-3.46 z" id="svg_20" class="" fill-opacity="1" fill="#7c919b"/><path d="M404.5639022064209,7.4380488967895495 h5.5 v2.38 h0.08000000000000002 A5.37,5.37 0 0 1 415.2439022064209,6.878048896789551 c4.71,0 6.88,3.46 6.88,11.8 s-2.17,11.8 -6.88,11.8 a5.38,5.38 0 0 1 -4.84,-2.67 h-0.08000000000000002 v9.42 h-5.75 zm8.8,18.59 c2.5,0 3,-2.5 3,-7.38 s-0.5,-7.38 -3,-7.38 s-3,2.5 -3,7.38 S410.8239022064209,26.02804889678955 413.3639022064209,26.02804889678955 z" id="svg_21" class="" fill-opacity="1" fill="#7c919b"/><path d="M425.6239022064209,0.09804889678955142 h5.75 V29.87804889678955 h-5.75 z" id="svg_22" class="" fill-opacity="1" fill="#7c919b"/><path d="M435.6239022064209,-0.23195110321044865 h5.75 v4.92 h-5.75 zm0,7.67 h5.75 V29.87804889678955 h-5.75 z" id="svg_23" class="" fill-opacity="1" fill="#7c919b"/><path d="M451.3839022064209,0.09804889678955142 V15.818048896789552 h0.08000000000000002 L457.2439022064209,7.4380488967895495 h6.34 l-6.46,8.84 L464.5539022064209,29.87804889678955 H458.2439022064209 l-4.79,-9.21 l-2,2.67 V29.87804889678955 h-5.75 V0.09804889678955142 z" id="svg_24" class="" fill-opacity="1" fill="#7c919b"/><path d="M466.2439022064209,14.318048896789552 V13.77804889678955 c0,-5.17 3.54,-6.92 7.88,-6.92 c6.84,0 8.13,2.83 8.13,6.88 v11.8 A9.7,9.7 0 0 0 482.9439022064209,29.87804889678955 h-5.5 a8.93,8.93 0 0 1 -0.7100000000000001,-2.33 h-0.08000000000000002 c-1.33,2.33 -2.92,2.92 -5.71,2.92 c-4,0 -5.42,-3.42 -5.42,-6.42 c0,-4.25 1.71,-5.92 5.67,-7 l3.25,-0.8800000000000001 c1.71,-0.46 2.29,-1.13 2.29,-2.63 c0,-1.71 -0.7100000000000001,-2.75 -2.67,-2.75 c-1.79,0 -2.67,1.13 -2.67,2.92 v0.6300000000000001 zm10.5,4.34 A6.41,6.41 0 0 1 474.2439022064209,19.77804889678955 c-2.33,0.5 -3.25,1.6300000000000001 -3.25,3.63 c0,1.71 0.6300000000000001,3.13 2.17,3.13 a3.37,3.37 0 0 0 3.54,-3.46 z" id="svg_25" class="" fill="#7c919b" fill-opacity="1"/><path d="M497.1139022064209,15.52804889678955 c0,-2.17 -0.42000000000000004,-4.5 -2.58,-4.5 c-2.83,0 -3.29,2.5 -3.29,7.67 c0,5.54 0.54,7.84 3.08,7.84 c2,0 2.79,-1.58 2.79,-5.25 h5.5 c0,5.88 -2.42,9.17 -8.54,9.17 c-5.75,0 -8.59,-2.79 -8.59,-11.8 c0,-9.21 3.75,-11.8 9.09,-11.8 s8,3.33 8,8.67 z" id="svg_26" class="" fill-opacity="1" fill="#7c919b"/><path d="M505.82390220642094,7.4380488967895495 h5.75 v24 c0,3.79 -1.46,5.79 -6.59,5.79 c-0.6700000000000002,0 -1.5,0 -2.33,-0.08000000000000002 V32.94804889678955 a1.49,1.49 0 0 0 0.46,0.08000000000000002 h0.46 c2,0 2.25,-1.08 2.25,-3.58 zm0,-7.67 h5.75 v4.92 h-5.75 z" id="svg_27" class="" fill-opacity="1" fill="#7c919b"/><path d="M527.5039022064209,37.44804889678955 A7.1,7.1 0 0 1 522.7539022064209,38.87804889678955 c-3.25,0 -4,-1.79 -4,-3.29 a4.76,4.76 0 0 1 1.3800000000000001,-3.13 a10.1,10.1 0 0 1 2.58,-2.08 a8.37,8.37 0 0 1 -4.13,-1 c-3.54,-2.21 -3.79,-6.63 -3.79,-10.92 c0,-6 1.17,-11.59 8.92,-11.59 c6.71,0 8.21,4.5 8.21,11.38 v1.29 H520.5439022064209 v1.79 c0,2.67 0.7100000000000001,5.21 2.83,5.21 c2,0 2.71,-1.3800000000000001 3,-4.21 h5.17 a9.31,9.31 0 0 1 -2.08,6 A6.2,6.2 0 0 1 526.2439022064209,30.158048896789552 c-0.7100000000000001,0.54 -1.25,1 -1.71,1.3800000000000001 c-1.58,1.5 -2.08,2.42 -2.08,3.42 a1.13,1.13 0 0 0 1.17,1.29 a4.59,4.59 0 0 0 2.63,-0.8300000000000001 zm-1.08,-21.34 c-0.12000000000000001,-3.42 -0.54,-5.34 -2.92,-5.34 s-3,2.33 -3,4.46 v0.8800000000000001 z" id="svg_28" class="" fill-opacity="1" fill="#7c919b"/><path d="M1.8739022064208992,52.92804889678955 v0.31000000000000005 c0,1 0.28,1.6400000000000001 1.42,1.6400000000000001 a1.23,1.23 0 0 0 1.29,-1.32 c0,-1 -0.48000000000000004,-1.35 -1.9100000000000001,-1.82 c-1.9100000000000001,-0.6400000000000001 -2.8,-1.47 -2.8,-3.23 c0,-2.09 1.26,-3.14 3.3,-3.14 s3.3,0.8200000000000001 3.3,2.87 v0.30000000000000004 H4.413902206420898 c0,-1 -0.33000000000000007,-1.58 -1.17,-1.58 a1.1,1.1 0 0 0 -1.23,1.24 c0,0.6600000000000001 0.19000000000000003,1.08 1.11,1.45 l1.6600000000000001,0.7200000000000001 c1.61,0.7200000000000001 2,1.51 2,2.83 c0,2.26 -1.3800000000000001,3.27 -3.71,3.27 s-3.39,-1.1400000000000001 -3.39,-3.11 v-0.43000000000000005 z" id="svg_29" class="" fill-opacity="1" fill="#7c919b"/><path d="M7.513902206420898,54.67804889678955 L10.723902206420899,49.87804889678955 H7.6639022064209 V48.218048896789554 h5.5 v1.58 l-3.21,4.79 h3.21 v1.6700000000000002 H7.513902206420898 z" id="svg_30" class="" fill-opacity="1" fill="#7c919b"/><path d="M14.243902206420898,57.358048896789555 a3.34,3.34 0 0 0 0.54,0 c0.7600000000000001,0 1,-0.42000000000000004 1.11,-1.1400000000000001 l-2.26,-8 h2.15 l1.2,5.5600000000000005 h0 l1,-5.5600000000000005 h2.06 L18.143902206420897,55.728048896789545 C17.423902206420898,58.508048896789546 16.963902206420897,58.87804889678955 15.053902206420897,58.87804889678955 H14.243902206420898 z" id="svg_31" class="" fill-opacity="1" fill="#7c919b"/><path d="M20.853902206420898,45.58804889678955 h2.06 v3.38 h0 a1.9300000000000002,1.9300000000000002 0 0 1 1.7400000000000002,-1 c1.6900000000000002,0 2.47,1.24 2.47,4.23 s-0.78,4.23 -2.47,4.23 a1.9300000000000002,1.9300000000000002 0 0 1 -1.83,-1.06 h0 v0.8500000000000001 h-2 zM24.0139022064209,54.87804889678955 c0.9,0 1.08,-0.9 1.08,-2.6500000000000004 s-0.18000000000000002,-2.6500000000000004 -1.08,-2.6500000000000004 s-1.09,0.9 -1.09,2.6500000000000004 S23.0939022064209,54.87804889678955 24.0139022064209,54.87804889678955 z" id="svg_32" class="" fill-opacity="1" fill="#7c919b"/><path d="M30.473902206420895,45.58804889678955 v5.640000000000001 h0 l2.08,-3 h2.27 l-2.3200000000000003,3.17 L35.2439022064209,56.26804889678955 H32.9239022064209 L31.2439022064209,52.95804889678955 l-0.7300000000000001,1 v2.35 H28.403902206420895 V45.58804889678955 z" id="svg_33" class="" fill-opacity="1" fill="#7c919b"/><path d="M35.8839022064209,45.468048896789554 h2.06 v1.7600000000000002 H35.8839022064209 zm0,2.75 h2.06 v8 H35.8839022064209 z" id="svg_34" class="" fill-opacity="1" fill="#7c919b"/><path d="M41.1639022064209,52.55804889678956 v0.6400000000000001 c0,1 0.25,1.87 1,1.87 s1,-0.49000000000000005 1.09,-1.51 h1.85 c-0.08000000000000002,1.87 -0.9400000000000001,2.92 -2.92,2.92 c-3,0 -3.11,-2.3 -3.11,-4.3100000000000005 s0.42000000000000004,-4.16 3.2,-4.16 c2.41,0 2.95,1.62 2.95,4.08 v0.46 zM43.2439022064209,51.338048896789545 c0,-1.23 -0.19000000000000003,-1.9100000000000001 -1,-1.9100000000000001 s-1.06,0.8400000000000001 -1.06,1.6 v0.31000000000000005 z" id="svg_35" class="" fill-opacity="1" fill="#7c919b"/><path d="M54.043902206420896,55.41804889678956 h0 a1.92,1.92 0 0 1 -1.82,1.06 c-1.6900000000000002,0 -2.47,-1.24 -2.47,-4.23 s0.78,-4.23 2.47,-4.23 a1.9300000000000002,1.9300000000000002 0 0 1 1.73,1 h0 V45.58804889678955 h2.06 V56.26804889678955 h-2 zM52.863902206420896,54.87804889678955 c0.91,0 1.09,-0.9 1.09,-2.6500000000000004 s-0.18000000000000002,-2.6500000000000004 -1.09,-2.6500000000000004 s-1.08,0.9 -1.08,2.6500000000000004 S51.9639022064209,54.87804889678955 52.863902206420896,54.87804889678955 z" id="svg_36" class="" fill-opacity="1" fill="#7c919b"/><path d="M60.293902206420896,48.00804889678955 c2.47,0 3.17,1.42 3.17,4.23 s-0.8200000000000001,4.23 -3.17,4.23 s-3.17,-1.42 -3.17,-4.23 S57.9439022064209,48.00804889678955 60.293902206420896,48.00804889678955 zm0,7.06 c0.8400000000000001,0 1.11,-0.81 1.11,-2.83 s-0.27,-2.83 -1.11,-2.83 c-1,0 -1.11,1.18 -1.11,2.83 S59.2439022064209,55.06804889678955 60.293902206420896,55.06804889678955 z" id="svg_37" class="" fill-opacity="1" fill="#7c919b"/><path d="M68.70390220642089,55.41804889678956 h0 A1.92,1.92 0 0 1 66.84390220642089,56.478048896789545 c-1.6900000000000002,0 -2.47,-1.24 -2.47,-4.23 s0.78,-4.23 2.47,-4.23 a1.9300000000000002,1.9300000000000002 0 0 1 1.73,1 h0 V45.58804889678955 h2.06 V56.26804889678955 h-2 zM67.5239022064209,54.87804889678955 c0.91,0 1.09,-0.9 1.09,-2.6500000000000004 s-0.18000000000000002,-2.6500000000000004 -1.09,-2.6500000000000004 s-1.08,0.9 -1.08,2.6500000000000004 S66.6239022064209,54.87804889678955 67.5239022064209,54.87804889678955 z" id="svg_38" class="" fill-opacity="1" fill="#7c919b"/><path d="M72.0339022064209,50.68804889678955 v-0.19000000000000003 c0,-1.85 1.27,-2.48 2.83,-2.48 c2.45,0 2.92,1 2.92,2.47 v4.23 a3.48,3.48 0 0 0 0.25,1.56 h-2 a3.18,3.18 0 0 1 -0.25,-0.8400000000000001 h0 a2,2 0 0 1 -2,1 c-1.44,0 -1.94,-1.23 -1.94,-2.3 c0,-1.53 0.6100000000000001,-2.12 2,-2.51 l1.17,-0.31000000000000005 c0.6100000000000001,-0.16000000000000003 0.8200000000000001,-0.4 0.8200000000000001,-0.9400000000000001 s-0.25,-1 -1,-1 s-1,0.4 -1,1 v0.22000000000000003 zm3.77,1.56 a2.3,2.3 0 0 1 -0.8800000000000001,0.4 c-0.8400000000000001,0.18000000000000002 -1.17,0.5800000000000001 -1.17,1.3 s0.22000000000000003,1.12 0.78,1.12 A1.21,1.21 0 0 0 75.8039022064209,53.87804889678955 z" id="svg_39" class="" fill-opacity="1" fill="#7c919b"/><path d="M78.81390220642089,48.218048896789554 h2.06 l0.9400000000000001,5.71 h0 l1,-5.71 h2.24 l1.06,5.71 h0 l1,-5.71 h2 l-1.7400000000000002,8 H85.0539022064209 l-1.06,-5.71 h0 l-1,5.71 H80.56390220642089 z" id="svg_40" class="" fill-opacity="1" fill="#7c919b"/><path d="M89.9139022064209,50.68804889678955 v-0.19000000000000003 c0,-1.85 1.27,-2.48 2.83,-2.48 c2.45,0 2.92,1 2.92,2.47 v4.23 a3.48,3.48 0 0 0 0.25,1.56 h-2 a3.18,3.18 0 0 1 -0.25,-0.8400000000000001 h0 a2,2 0 0 1 -2,1 c-1.44,0 -1.94,-1.23 -1.94,-2.3 c0,-1.53 0.6100000000000001,-2.12 2,-2.51 l1.17,-0.31000000000000005 c0.6100000000000001,-0.16000000000000003 0.8200000000000001,-0.4 0.8200000000000001,-0.9400000000000001 s-0.25,-1 -1,-1 s-1,0.4 -1,1 v0.22000000000000003 zm3.77,1.56 a2.3,2.3 0 0 1 -0.8800000000000001,0.4 c-0.8400000000000001,0.18000000000000002 -1.17,0.5800000000000001 -1.17,1.3 s0.22000000000000003,1.12 0.78,1.12 A1.21,1.21 0 0 0 93.6839022064209,53.87804889678955 z" id="svg_41" class="" fill-opacity="1" fill="#7c919b"/><path d="M97.1239022064209,48.218048896789554 h2 v0.9400000000000001 h0 a2.19,2.19 0 0 1 2,-1.15 c1.3,0 2,0.6900000000000002 2,2.29 v6 h-2.06 V50.718048896789554 c0,-0.8200000000000001 -0.27,-1.12 -0.8800000000000001,-1.12 s-1.09,0.45 -1.09,1.33 v5.34 h-2.06 z" id="svg_42" class="" fill-opacity="1" fill="#7c919b"/><path d="M104.6739022064209,45.468048896789554 h2.06 v1.7600000000000002 h-2.06 zm0,2.75 h2.06 v8 h-2.06 z" id="svg_43" class="" fill-opacity="1" fill="#7c919b"/><path d="M109.95390220642089,52.55804889678956 v0.6400000000000001 c0,1 0.25,1.87 1,1.87 s1,-0.49000000000000005 1.09,-1.51 h1.85 c-0.08000000000000002,1.87 -0.9400000000000001,2.92 -2.92,2.92 c-3,0 -3.11,-2.3 -3.11,-4.3100000000000005 s0.42000000000000004,-4.16 3.2,-4.16 c2.41,0 2.95,1.62 2.95,4.08 v0.46 zm2.11,-1.23 c0,-1.23 -0.19000000000000003,-1.9100000000000001 -1,-1.9100000000000001 s-1.06,0.8400000000000001 -1.06,1.6 v0.31000000000000005 z" id="svg_44" class="" fill-opacity="1" fill="#7c919b"/><path d="M118.3739022064209,54.67804889678955 L121.59390220642089,49.87804889678955 h-3.07 V48.218048896789554 h5.5 v1.58 l-3.21,4.79 h3.21 v1.6700000000000002 h-5.65 z" id="svg_45" class="" fill-opacity="1" fill="#7c919b"/><path d="M126.84390220642089,52.55804889678956 v0.6400000000000001 c0,1 0.25,1.87 1,1.87 s1,-0.49000000000000005 1.09,-1.51 h1.85 c-0.08000000000000002,1.87 -0.9400000000000001,2.92 -2.92,2.92 c-3,0 -3.11,-2.3 -3.11,-4.3100000000000005 s0.42000000000000004,-4.16 3.2,-4.16 c2.41,0 2.95,1.62 2.95,4.08 v0.46 zm2.11,-1.23 c0,-1.23 -0.19000000000000003,-1.9100000000000001 -1,-1.9100000000000001 s-1.06,0.8400000000000001 -1.06,1.6 v0.31000000000000005 z" id="svg_46" class="" fill-opacity="1" fill="#7c919b"/><path d="M135.2439022064209,54.67804889678955 L138.4739022064209,49.87804889678955 h-3.07 V48.218048896789554 h5.5 v1.58 l-3.21,4.79 h3.21 v1.6700000000000002 H135.2439022064209 z" id="svg_47" class="" fill-opacity="1" fill="#7c919b"/><path d="M146.0939022064209,55.41804889678956 h0 A1.92,1.92 0 0 1 144.2439022064209,56.478048896789545 c-1.6900000000000002,0 -2.47,-1.24 -2.47,-4.23 s0.78,-4.23 2.47,-4.23 a1.9300000000000002,1.9300000000000002 0 0 1 1.73,1 h0 V45.58804889678955 h2.06 V56.26804889678955 h-2 zM144.9139022064209,54.87804889678955 c0.91,0 1.09,-0.9 1.09,-2.6500000000000004 s-0.18000000000000002,-2.6500000000000004 -1.09,-2.6500000000000004 s-1.08,0.9 -1.08,2.6500000000000004 S144.0139022064209,54.87804889678955 144.9139022064209,54.87804889678955 z" id="svg_48" class="" fill-opacity="1" fill="#7c919b"/><path d="M149.5139022064209,48.218048896789554 h2.06 v8.6 c0,1.36 -0.52,2.08 -2.36,2.08 l-0.8400000000000001,0 V57.37804889678955 a0.55,0.55 0 0 0 0.17,0 h0.16000000000000003 c0.7300000000000001,0 0.81,-0.39000000000000007 0.81,-1.29 zm0,-2.75 h2.06 v1.7600000000000002 h-2.06 z" id="svg_49" class="" fill-opacity="1" fill="#7c919b"/><path d="M157.2939022064209,58.98804889678955 a2.55,2.55 0 0 1 -1.71,0.52 c-1.17,0 -1.44,-0.6400000000000001 -1.44,-1.18 a1.7000000000000002,1.7000000000000002 0 0 1 0.49000000000000005,-1.12 a3.63,3.63 0 0 1 0.93,-0.7500000000000001 a3,3 0 0 1 -1.48,-0.37000000000000005 c-1.27,-0.79 -1.36,-2.38 -1.36,-3.92 c0,-2.15 0.42000000000000004,-4.16 3.2,-4.16 c2.41,0 2.95,1.62 2.95,4.08 v0.46 h-4.08 v0.6400000000000001 c0,1 0.25,1.87 1,1.87 s1,-0.49000000000000005 1.09,-1.51 h1.85 a3.35,3.35 0 0 1 -0.7500000000000001,2.17 a2.22,2.22 0 0 1 -1.17,0.6400000000000001 c-0.25,0.19000000000000003 -0.45,0.36000000000000004 -0.6100000000000001,0.49000000000000005 c-0.5700000000000001,0.54 -0.7500000000000001,0.8700000000000001 -0.7500000000000001,1.23 a0.41000000000000003,0.41000000000000003 0 0 0 0.42000000000000004,0.46 a1.6500000000000001,1.6500000000000001 0 0 0 0.9400000000000001,-0.30000000000000004 zm-0.39000000000000007,-7.66 c0,-1.23 -0.2,-1.9100000000000001 -1,-1.9100000000000001 s-1.06,0.8400000000000001 -1.06,1.6 v0.31000000000000005 z" id="svg_50" class="" fill-opacity="1" fill="#7c919b"/><path d="M163.8339022064209,51.12804889678955 c0,-0.78 -0.15000000000000002,-1.62 -0.93,-1.62 c-1,0 -1.18,0.9 -1.18,2.75 s0.19000000000000003,2.81 1.11,2.81 c0.7000000000000001,0 1,-0.5700000000000001 1,-1.8800000000000001 h2 c0,2.11 -0.8700000000000001,3.29 -3.07,3.29 s-3.08,-1 -3.08,-4.23 s1.35,-4.23 3.26,-4.23 s2.89,1.2 2.89,3.11 z" id="svg_51" class="" fill-opacity="1" fill="#7c919b"/><path d="M166.9539022064209,45.468048896789554 h2.06 v1.7600000000000002 h-2.06 zm0,2.75 h2.06 v8 h-2.06 z" id="svg_52" class="" fill-opacity="1" fill="#7c919b"/><path d="M170.4539022064209,50.68804889678955 v-0.19000000000000003 c0,-1.85 1.27,-2.48 2.83,-2.48 c2.45,0 2.92,1 2.92,2.47 v4.23 a3.48,3.48 0 0 0 0.25,1.56 h-2 a3.22,3.22 0 0 1 -0.25,-0.8400000000000001 h0 a2,2 0 0 1 -2,1 c-1.44,0 -1.94,-1.23 -1.94,-2.3 c0,-1.53 0.6100000000000001,-2.12 2,-2.51 l1.17,-0.31000000000000005 c0.6100000000000001,-0.16000000000000003 0.8200000000000001,-0.4 0.8200000000000001,-0.9400000000000001 s-0.25,-1 -1,-1 s-1,0.4 -1,1 v0.22000000000000003 zM174.2439022064209,52.248048896789555 a2.29,2.29 0 0 1 -0.8800000000000001,0.4 c-0.8400000000000001,0.18000000000000002 -1.17,0.5800000000000001 -1.17,1.3 s0.22000000000000003,1.12 0.78,1.12 A1.21,1.21 0 0 0 174.2439022064209,53.87804889678955 z" id="svg_53" class="" fill-opacity="1" fill="#7c919b"/><path d="M177.6639022064209,48.218048896789554 h2 v0.8200000000000001 h0 a2.2800000000000002,2.2800000000000002 0 0 1 2,-1 a1.7400000000000002,1.7400000000000002 0 0 1 1.85,1.29 h0 a2,2 0 0 1 2,-1.29 c1.3800000000000001,0 2,0.8500000000000001 2,2.41 v5.85 h-2.06 V50.64804889678955 c0,-0.6700000000000002 -0.22000000000000003,-1 -0.81,-1 s-1.08,0.43000000000000005 -1.08,1.3800000000000001 v5.29 h-2.06 V50.64804889678955 c0,-0.6700000000000002 -0.22000000000000003,-1 -0.81,-1 s-1.08,0.43000000000000005 -1.08,1.3800000000000001 v5.29 h-2.06 z" id="svg_54" class="" fill-opacity="1" fill="#7c919b"/><path d="M189.0839022064209,45.468048896789554 h2.06 v1.7600000000000002 h-2.06 zm0,2.75 h2.06 v8 h-2.06 z" id="svg_55" class="" fill-opacity="1" fill="#7c919b"/><path d="M196.1839022064209,48.218048896789554 h2 v0.8500000000000001 h0 a1.9300000000000002,1.9300000000000002 0 0 1 1.82,-1.06 c1.6900000000000002,0 2.47,1.24 2.47,4.23 s-0.78,4.23 -2.47,4.23 a1.9300000000000002,1.9300000000000002 0 0 1 -1.73,-1 h0 V58.87804889678955 h-2.06 zM199.3439022064209,54.87804889678955 c0.9,0 1.08,-0.9 1.08,-2.6500000000000004 s-0.18000000000000002,-2.6500000000000004 -1.08,-2.6500000000000004 s-1.09,0.9 -1.09,2.6500000000000004 S198.4239022064209,54.87804889678955 199.3439022064209,54.87804889678955 z" id="svg_56" class="" fill-opacity="1" fill="#7c919b"/><path d="M203.6639022064209,48.218048896789554 h2 v1.08 h0 a2.08,2.08 0 0 1 1.85,-1.29 l0.37000000000000005,0 v2 c-0.22000000000000003,0 -0.42000000000000004,0 -0.6400000000000001,0 a1.3900000000000001,1.3900000000000001 0 0 0 -1.53,1.45 v4.83 h-2.06 z" id="svg_57" class="" fill-opacity="1" fill="#7c919b"/><path d="M211.5439022064209,48.00804889678955 c2.47,0 3.17,1.42 3.17,4.23 s-0.8200000000000001,4.23 -3.17,4.23 s-3.17,-1.42 -3.17,-4.23 S209.2439022064209,48.00804889678955 211.5439022064209,48.00804889678955 zm0,7.06 c0.8400000000000001,0 1.11,-0.81 1.11,-2.83 s-0.27,-2.83 -1.11,-2.83 c-1,0 -1.11,1.18 -1.11,2.83 S210.5239022064209,55.06804889678955 211.5439022064209,55.06804889678955 z" id="svg_58" class="" fill-opacity="1" fill="#7c919b"/><path d="M217.3339022064209,53.638048896789556 V53.87804889678955 a1,1 0 0 0 1.08,1.17 c0.6400000000000001,0 1,-0.31000000000000005 1,-1 s-0.3400000000000001,-0.7500000000000001 -0.7500000000000001,-0.91 L217.2439022064209,52.67804889678955 a2.23,2.23 0 0 1 -1.7200000000000002,-2.24 c0,-1.32 0.8500000000000001,-2.42 3,-2.42 c1.87,0 2.75,0.8400000000000001 2.75,2.29 v0.33000000000000007 h-1.85 c0,-0.8200000000000001 -0.24000000000000002,-1.21 -0.91,-1.21 a0.8700000000000001,0.8700000000000001 0 0 0 -1,0.8700000000000001 c0,0.4 0.19000000000000003,0.7200000000000001 0.9,0.9400000000000001 l1.24,0.42000000000000004 a2.16,2.16 0 0 1 1.78,2.3 c0,1.6900000000000002 -1.26,2.5300000000000002 -3,2.5300000000000002 c-2.33,0 -3,-1 -3,-2.56 v-0.28 z" id="svg_59" class="" fill-opacity="1" fill="#7c919b"/><path d="M222.9139022064209,45.87804889678955 h2.06 v2.3 h1.2 v1.4100000000000001 h-1.2 V53.978048896789545 c0,0.6400000000000001 0.13,0.8800000000000001 0.7300000000000001,0.8800000000000001 a4.35,4.35 0 0 0 0.46,0 v1.44 a13.27,13.27 0 0 1 -1.35,0.09000000000000002 c-1.61,0 -1.9100000000000001,-0.51 -1.9100000000000001,-2.12 V49.62804889678955 h-1 V48.218048896789554 h1 z" id="svg_60" class="" fill-opacity="1" fill="#7c919b"/><path d="M229.7939022064209,48.00804889678955 c2.47,0 3.17,1.42 3.17,4.23 s-0.8200000000000001,4.23 -3.17,4.23 s-3.17,-1.42 -3.17,-4.23 S227.4439022064209,48.00804889678955 229.7939022064209,48.00804889678955 zm0,7.06 c0.8400000000000001,0 1.11,-0.81 1.11,-2.83 s-0.27,-2.83 -1.11,-2.83 c-1,0 -1.11,1.18 -1.11,2.83 S228.7739022064209,55.06804889678955 229.7939022064209,55.06804889678955 z" id="svg_61" class="" fill-opacity="1" fill="#7c919b"/><path d="M237.3339022064209,54.67804889678955 L240.5439022064209,49.87804889678955 h-3.07 V48.218048896789554 h5.5 v1.58 l-3.21,4.79 h3.21 v1.6700000000000002 h-5.65 z" id="svg_62" class="" fill-opacity="1" fill="#7c919b"/><path d="M248.07390220642088,45.87804889678955 h2.06 v2.3 h1.2 v1.4100000000000001 h-1.2 V53.978048896789545 c0,0.6400000000000001 0.13,0.8800000000000001 0.7300000000000001,0.8800000000000001 a4.34,4.34 0 0 0 0.46,0 v1.44 a13.25,13.25 0 0 1 -1.35,0.09000000000000002 c-1.62,0 -1.9100000000000001,-0.51 -1.9100000000000001,-2.12 V49.62804889678955 h-1 V48.218048896789554 h1 z" id="svg_63" class="" fill-opacity="1" fill="#7c919b"/><path d="M253.8139022064209,52.55804889678956 v0.6400000000000001 c0,1 0.25,1.87 1,1.87 s1,-0.49000000000000005 1.09,-1.51 h1.85 c-0.07,1.87 -0.9400000000000001,2.92 -2.92,2.92 c-3,0 -3.11,-2.3 -3.11,-4.3100000000000005 s0.42000000000000004,-4.16 3.2,-4.16 c2.41,0 2.95,1.62 2.95,4.08 v0.46 zm2.11,-1.23 c0,-1.23 -0.19000000000000003,-1.9100000000000001 -1,-1.9100000000000001 s-1.06,0.8400000000000001 -1.06,1.6 v0.31000000000000005 z" id="svg_64" class="" fill-opacity="1" fill="#7c919b"/><path d="M259.0539022064209,45.58804889678955 h2.06 V56.26804889678955 h-2.06 z" id="svg_65" class="" fill-opacity="1" fill="#7c919b"/><path d="M264.3239022064209,52.55804889678956 v0.6400000000000001 c0,1 0.25,1.87 1,1.87 s1,-0.49000000000000005 1.09,-1.51 H268.2439022064209 c-0.08000000000000002,1.87 -0.9400000000000001,2.92 -2.92,2.92 c-3,0 -3.11,-2.3 -3.11,-4.3100000000000005 s0.42000000000000004,-4.16 3.2,-4.16 c2.41,0 2.95,1.62 2.95,4.08 v0.46 zm2.11,-1.23 c0,-1.23 -0.19000000000000003,-1.9100000000000001 -1,-1.9100000000000001 s-1.06,0.8400000000000001 -1.06,1.6 v0.31000000000000005 z" id="svg_66" class="" fill-opacity="1" fill="#7c919b"/><path d="M269.9439022064209,49.62804889678955 h-1 V48.218048896789554 h1 v-0.91 c0,-1.45 0.8200000000000001,-1.9300000000000002 2.15,-1.9300000000000002 c0.36000000000000004,0 0.7300000000000001,0 1.11,0 V46.87804889678955 h-0.4 c-0.5800000000000001,0 -0.79,0.18000000000000002 -0.79,0.6400000000000001 v0.7000000000000001 H273.2439022064209 v1.4100000000000001 h-1.2 v6.640000000000001 H269.9439022064209 z" id="svg_67" class="" fill-opacity="1" fill="#7c919b"/><path d="M276.8139022064209,48.00804889678955 c2.47,0 3.17,1.42 3.17,4.23 s-0.8200000000000001,4.23 -3.17,4.23 s-3.17,-1.42 -3.17,-4.23 S274.4739022064209,48.00804889678955 276.8139022064209,48.00804889678955 zm0,7.06 c0.8400000000000001,0 1.11,-0.81 1.11,-2.83 s-0.27,-2.83 -1.11,-2.83 c-1,0 -1.11,1.18 -1.11,2.83 S275.8039022064209,55.06804889678955 276.8139022064209,55.06804889678955 z" id="svg_68" class="" fill-opacity="1" fill="#7c919b"/><path d="M281.0939022064209,48.218048896789554 h2 v0.9400000000000001 h0 a2.19,2.19 0 0 1 2,-1.15 c1.3,0 2,0.6900000000000002 2,2.29 v6 h-2.06 V50.718048896789554 c0,-0.8200000000000001 -0.27,-1.12 -0.8800000000000001,-1.12 s-1.09,0.45 -1.09,1.33 v5.34 h-2.06 z" id="svg_69" class="" fill-opacity="1" fill="#7c919b"/><path d="M292.7039022064209,55.328048896789554 h0 a2.19,2.19 0 0 1 -2,1.15 c-1.3,0 -2,-0.6900000000000002 -2,-2.29 v-6 h2.06 v5.55 c0,0.8200000000000001 0.27,1.12 0.8800000000000001,1.12 s1.09,-0.45 1.09,-1.33 V48.218048896789554 h2.06 v8 h-2 z" id="svg_70" class="" fill-opacity="1" fill="#7c919b"/><path d="M317.6539022064209,45.58804889678955 h3.77 c2.2,0 2.93,1.6 2.93,3.2 c0,2.21 -1.36,3.21 -3.39,3.21 h-1.15 v4.26 h-2.15 zm2.15,4.83 h1 c0.8500000000000001,0 1.44,-0.51 1.44,-1.6 s-0.42000000000000004,-1.6400000000000001 -1.5,-1.6400000000000001 h-0.9 z" id="svg_71" class="" fill-opacity="1" fill="#7c919b"/><path d="M327.8939022064209,48.00804889678955 c2.47,0 3.17,1.42 3.17,4.23 s-0.8200000000000001,4.23 -3.17,4.23 s-3.17,-1.42 -3.17,-4.23 S325.5539022064209,48.00804889678955 327.8939022064209,48.00804889678955 zm0,7.06 c0.8400000000000001,0 1.11,-0.81 1.11,-2.83 s-0.27,-2.83 -1.11,-2.83 c-1,0 -1.11,1.18 -1.11,2.83 S326.8839022064209,55.06804889678955 327.8939022064209,55.06804889678955 z" id="svg_72" class="" fill-opacity="1" fill="#7c919b"/><path d="M331.5939022064209,48.218048896789554 h2.06 l0.9400000000000001,5.71 h0 l1,-5.71 h2.24 l1.06,5.71 h0 l1,-5.71 h2 l-1.73,8 h-2.35 l-1.06,-5.71 h0 l-1,5.71 H333.3439022064209 z" id="svg_73" class="" fill-opacity="1" fill="#7c919b"/><path d="M342.7839022064209,45.468048896789554 h2.06 v1.7600000000000002 h-2.06 zm0,2.75 h2.06 v8 h-2.06 z" id="svg_74" class="" fill-opacity="1" fill="#7c919b"/><path d="M346.2439022064209,50.68804889678955 v-0.19000000000000003 c0,-1.85 1.27,-2.48 2.83,-2.48 c2.45,0 2.92,1 2.92,2.47 v4.23 a3.48,3.48 0 0 0 0.25,1.56 h-2 a3.18,3.18 0 0 1 -0.25,-0.8400000000000001 h0 a2,2 0 0 1 -2,1 c-1.44,0 -1.94,-1.23 -1.94,-2.3 c0,-1.53 0.6100000000000001,-2.12 2,-2.51 l1.17,-0.31000000000000005 c0.6100000000000001,-0.16000000000000003 0.8200000000000001,-0.4 0.8200000000000001,-0.9400000000000001 s-0.25,-1 -1,-1 s-1,0.4 -1,1 v0.22000000000000003 zm3.77,1.56 a2.29,2.29 0 0 1 -0.8800000000000001,0.4 c-0.8400000000000001,0.18000000000000002 -1.17,0.5800000000000001 -1.17,1.3 s0.22000000000000003,1.12 0.78,1.12 A1.21,1.21 0 0 0 350.0539022064209,53.87804889678955 z" id="svg_75" class="" fill-opacity="1" fill="#7c919b"/><path d="M357.6139022064209,55.41804889678956 h0 a1.9300000000000002,1.9300000000000002 0 0 1 -1.82,1.06 c-1.6900000000000002,0 -2.47,-1.24 -2.47,-4.23 s0.78,-4.23 2.47,-4.23 a1.9300000000000002,1.9300000000000002 0 0 1 1.73,1 h0 V45.58804889678955 h2.06 V56.26804889678955 h-2 zM356.4339022064209,54.87804889678955 c0.91,0 1.09,-0.9 1.09,-2.6500000000000004 s-0.18000000000000002,-2.6500000000000004 -1.09,-2.6500000000000004 s-1.08,0.9 -1.08,2.6500000000000004 S355.5339022064209,54.87804889678955 356.4339022064209,54.87804889678955 z" id="svg_76" class="" fill-opacity="1" fill="#7c919b"/><path d="M363.8739022064209,48.00804889678955 c2.47,0 3.17,1.42 3.17,4.23 s-0.8200000000000001,4.23 -3.17,4.23 s-3.17,-1.42 -3.17,-4.23 S361.52390220642087,48.00804889678955 363.8739022064209,48.00804889678955 zm0,7.06 c0.8400000000000001,0 1.11,-0.81 1.11,-2.83 s-0.27,-2.83 -1.11,-2.83 c-1,0 -1.11,1.18 -1.11,2.83 S362.8539022064209,55.06804889678955 363.8739022064209,55.06804889678955 z" id="svg_77" class="" fill-opacity="1" fill="#7c919b"/><path d="M368.1539022064209,48.218048896789554 h2 v0.8200000000000001 h0 a2.2800000000000002,2.2800000000000002 0 0 1 2,-1 a1.7400000000000002,1.7400000000000002 0 0 1 1.85,1.29 h0 a2,2 0 0 1 2,-1.29 c1.3800000000000001,0 2,0.8500000000000001 2,2.41 v5.85 H376.0439022064209 V50.64804889678955 c0,-0.6700000000000002 -0.22000000000000003,-1 -0.81,-1 s-1.08,0.43000000000000005 -1.08,1.3800000000000001 v5.29 h-2.06 V50.64804889678955 c0,-0.6700000000000002 -0.22000000000000003,-1 -0.81,-1 S370.2439022064209,50.02804889678956 370.2439022064209,50.978048896789545 v5.29 h-2.06 z" id="svg_78" class="" fill-opacity="1" fill="#7c919b"/><path d="M379.5639022064209,45.468048896789554 h2.06 v1.7600000000000002 h-2.06 zm0,2.75 h2.06 v8 h-2.06 z" id="svg_79" class="" fill-opacity="1" fill="#7c919b"/><path d="M384.8439022064209,52.55804889678956 v0.6400000000000001 c0,1 0.25,1.87 1,1.87 s1,-0.49000000000000005 1.09,-1.51 h1.85 c-0.08000000000000002,1.87 -0.9400000000000001,2.92 -2.92,2.92 c-3,0 -3.11,-2.3 -3.11,-4.3100000000000005 s0.42000000000000004,-4.16 3.2,-4.16 c2.41,0 2.95,1.62 2.95,4.08 v0.46 zm2.11,-1.23 c0,-1.23 -0.19000000000000003,-1.9100000000000001 -1,-1.9100000000000001 s-1.06,0.8400000000000001 -1.06,1.6 v0.31000000000000005 z" id="svg_80" class="" fill-opacity="1" fill="#7c919b"/><path d="M390.0039022064209,48.218048896789554 h2 v0.9400000000000001 h0 a2.19,2.19 0 0 1 2,-1.15 c1.3,0 2,0.6900000000000002 2,2.29 v6 H394.0439022064209 V50.718048896789554 c0,-0.8200000000000001 -0.27,-1.12 -0.8800000000000001,-1.12 s-1.09,0.45 -1.09,1.33 v5.34 h-2.06 z" id="svg_81" class="" fill-opacity="1" fill="#7c919b"/><path d="M397.5539022064209,45.468048896789554 h2.06 v1.7600000000000002 h-2.06 zm0,2.75 h2.06 v8 h-2.06 z" id="svg_82" class="" fill-opacity="1" fill="#7c919b"/><path d="M402.8339022064209,52.55804889678956 v0.6400000000000001 c0,1 0.25,1.87 1,1.87 s1,-0.49000000000000005 1.09,-1.51 h1.85 c-0.08000000000000002,1.87 -0.9400000000000001,2.92 -2.92,2.92 c-3,0 -3.11,-2.3 -3.11,-4.3100000000000005 s0.42000000000000004,-4.16 3.2,-4.16 c2.41,0 2.95,1.62 2.95,4.08 v0.46 zm2.11,-1.23 c0,-1.23 -0.19000000000000003,-1.9100000000000001 -1,-1.9100000000000001 s-1.06,0.8400000000000001 -1.06,1.6 v0.31000000000000005 z" id="svg_83" class="" fill-opacity="1" fill="#7c919b"/><path d="M414.4839022064209,48.00804889678955 c2.47,0 3.17,1.42 3.17,4.23 s-0.8200000000000001,4.23 -3.17,4.23 s-3.17,-1.42 -3.17,-4.23 S412.1339022064209,48.00804889678955 414.4839022064209,48.00804889678955 zm0,7.06 c0.8400000000000001,0 1.11,-0.81 1.11,-2.83 s-0.27,-2.83 -1.11,-2.83 c-1,0 -1.11,1.18 -1.11,2.83 S413.4739022064209,55.06804889678955 414.4839022064209,55.06804889678955 z" id="svg_84" class="" fill-opacity="1" fill="#7c919b"/><path d="M424.4939022064209,45.58804889678955 v5.640000000000001 h0 l2.08,-3 h2.27 l-2.3200000000000003,3.17 L429.2439022064209,56.26804889678955 H426.9439022064209 L425.2439022064209,52.95804889678955 l-0.7300000000000001,1 v2.35 h-2.06 V45.58804889678955 z" id="svg_85" class="" fill-opacity="1" fill="#7c919b"/><path d="M429.8239022064209,50.68804889678955 v-0.19000000000000003 c0,-1.85 1.27,-2.48 2.83,-2.48 c2.45,0 2.92,1 2.92,2.47 v4.23 a3.48,3.48 0 0 0 0.25,1.56 h-2 a3.18,3.18 0 0 1 -0.25,-0.8400000000000001 h0 a2,2 0 0 1 -2,1 c-1.44,0 -1.94,-1.23 -1.94,-2.3 c0,-1.53 0.6100000000000001,-2.12 2,-2.51 l1.17,-0.31000000000000005 c0.6100000000000001,-0.16000000000000003 0.8200000000000001,-0.4 0.8200000000000001,-0.9400000000000001 s-0.25,-1 -1,-1 s-1,0.4 -1,1 v0.22000000000000003 zm3.77,1.56 a2.29,2.29 0 0 1 -0.8800000000000001,0.4 c-0.8400000000000001,0.18000000000000002 -1.17,0.5800000000000001 -1.17,1.3 s0.22000000000000003,1.12 0.78,1.12 A1.21,1.21 0 0 0 433.5839022064209,53.87804889678955 z" id="svg_86" class="" fill-opacity="1" fill="#7c919b"/><path d="M436.7039022064209,54.67804889678955 L439.9139022064209,49.87804889678955 h-3.07 V48.218048896789554 h5.5 v1.58 l-3.22,4.79 h3.22 v1.6700000000000002 h-5.65 zm3.74,-9.38 v1.7600000000000002 h-1.6700000000000002 V45.30804889678955 z" id="svg_87" class="" fill-opacity="1" fill="#7c919b"/><path d="M447.52390220642087,55.41804889678956 h0 a1.9300000000000002,1.9300000000000002 0 0 1 -1.82,1.06 c-1.6900000000000002,0 -2.47,-1.24 -2.47,-4.23 s0.78,-4.23 2.47,-4.23 a1.9300000000000002,1.9300000000000002 0 0 1 1.73,1 h0 V45.58804889678955 h2.06 V56.26804889678955 h-2 zM446.3439022064209,54.87804889678955 c0.91,0 1.09,-0.9 1.09,-2.6500000000000004 s-0.18000000000000002,-2.6500000000000004 -1.09,-2.6500000000000004 s-1.08,0.9 -1.08,2.6500000000000004 S445.4439022064209,54.87804889678955 446.3439022064209,54.87804889678955 z" id="svg_88" class="" fill-opacity="1" fill="#7c919b"/><path d="M452.6439022064209,52.55804889678956 v0.6400000000000001 c0,1 0.25,1.87 1,1.87 s1,-0.49000000000000005 1.09,-1.51 h1.85 c-0.08000000000000002,1.87 -0.9400000000000001,2.92 -2.92,2.92 c-3,0 -3.11,-2.3 -3.11,-4.3100000000000005 s0.42000000000000004,-4.16 3.2,-4.16 c2.41,0 2.95,1.62 2.95,4.08 v0.46 zm2.11,-1.23 c0,-1.23 -0.19000000000000003,-1.9100000000000001 -1,-1.9100000000000001 s-1.06,0.8400000000000001 -1.06,1.6 v0.31000000000000005 z" id="svg_89" class="" fill-opacity="1" fill="#7c919b"/><path d="M457.8739022064209,48.218048896789554 h2.06 v8.6 c0,1.36 -0.52,2.08 -2.36,2.08 l-0.8400000000000001,0 V57.37804889678955 a0.55,0.55 0 0 0 0.17,0 h0.16000000000000003 c0.7300000000000001,0 0.81,-0.39000000000000007 0.81,-1.29 zm0,-2.75 h2.06 v1.7600000000000002 h-2.06 z" id="svg_90" class="" fill-opacity="1" fill="#7c919b"/><path d="M467.8839022064209,48.00804889678955 c2.47,0 3.17,1.42 3.17,4.23 s-0.8200000000000001,4.23 -3.17,4.23 s-3.17,-1.42 -3.17,-4.23 S465.5339022064209,48.00804889678955 467.8839022064209,48.00804889678955 zm0,7.06 c0.8400000000000001,0 1.11,-0.81 1.11,-2.83 s-0.27,-2.83 -1.11,-2.83 c-1,0 -1.11,1.18 -1.11,2.83 S466.8639022064209,55.06804889678955 467.8839022064209,55.06804889678955 z" id="svg_91" class="" fill-opacity="1" fill="#7c919b"/><path d="M476.2439022064209,55.41804889678956 h0 a1.9300000000000002,1.9300000000000002 0 0 1 -1.82,1.06 c-1.6900000000000002,0 -2.47,-1.24 -2.47,-4.23 s0.78,-4.23 2.47,-4.23 a1.9300000000000002,1.9300000000000002 0 0 1 1.73,1 h0 V45.58804889678955 H478.2439022064209 V56.26804889678955 h-2 zM475.1139022064209,54.87804889678955 c0.91,0 1.09,-0.9 1.09,-2.6500000000000004 s-0.18000000000000002,-2.6500000000000004 -1.09,-2.6500000000000004 s-1.08,0.9 -1.08,2.6500000000000004 S474.2439022064209,54.87804889678955 475.1139022064209,54.87804889678955 z" id="svg_92" class="" fill-opacity="1" fill="#7c919b"/><path d="M479.6439022064209,48.218048896789554 h2 v0.8500000000000001 h0 a1.9300000000000002,1.9300000000000002 0 0 1 1.82,-1.06 c1.6900000000000002,0 2.47,1.24 2.47,4.23 s-0.78,4.23 -2.47,4.23 a1.9300000000000002,1.9300000000000002 0 0 1 -1.73,-1 h0 V58.87804889678955 H479.6439022064209 zM482.7939022064209,54.87804889678955 c0.9,0 1.08,-0.9 1.08,-2.6500000000000004 s-0.18000000000000002,-2.6500000000000004 -1.08,-2.6500000000000004 s-1.09,0.9 -1.09,2.6500000000000004 S481.8839022064209,54.87804889678955 482.7939022064209,54.87804889678955 z" id="svg_93" class="" fill-opacity="1" fill="#7c919b"/><path d="M490.02390220642087,48.00804889678955 c2.47,0 3.17,1.42 3.17,4.23 s-0.8200000000000001,4.23 -3.17,4.23 s-3.17,-1.42 -3.17,-4.23 S487.6739022064209,48.00804889678955 490.02390220642087,48.00804889678955 zm0,7.06 c0.8400000000000001,0 1.11,-0.81 1.11,-2.83 s-0.27,-2.83 -1.11,-2.83 c-1,0 -1.11,1.18 -1.11,2.83 S489.0039022064209,55.06804889678955 490.02390220642087,55.06804889678955 z" id="svg_94" class="" fill-opacity="1" fill="#7c919b"/><path d="M493.7139022064209,48.218048896789554 h2.06 l0.9400000000000001,5.71 h0 l1,-5.71 h2.24 l1.06,5.71 h0 l1,-5.71 h2 l-1.73,8 h-2.35 l-1.06,-5.71 h0 l-1,5.71 h-2.39 z" id="svg_95" class="" fill-opacity="1" fill="#7c919b"/><path d="M504.90390220642087,45.468048896789554 h2.06 v1.7600000000000002 h-2.06 zm0,2.75 h2.06 v8 h-2.06 z" id="svg_96" class="" fill-opacity="1" fill="#7c919b"/><path d="M510.18390220642095,52.55804889678956 v0.6400000000000001 c0,1 0.25,1.87 1,1.87 s1,-0.49000000000000005 1.09,-1.51 h1.85 c-0.08000000000000002,1.87 -0.9400000000000001,2.92 -2.92,2.92 c-3,0 -3.11,-2.3 -3.11,-4.3100000000000005 s0.42000000000000004,-4.16 3.2,-4.16 c2.41,0 2.95,1.62 2.95,4.08 v0.46 zM512.2439022064209,51.338048896789545 c0,-1.23 -0.19000000000000003,-1.9100000000000001 -1,-1.9100000000000001 s-1.06,0.8400000000000001 -1.06,1.6 v0.31000000000000005 z" id="svg_97" class="" fill-opacity="1" fill="#7c919b"/><path d="M519.4739022064209,55.41804889678956 h0 a1.9300000000000002,1.9300000000000002 0 0 1 -1.82,1.06 c-1.6900000000000002,0 -2.47,-1.24 -2.47,-4.23 s0.78,-4.23 2.47,-4.23 a1.9300000000000002,1.9300000000000002 0 0 1 1.73,1 h0 V45.58804889678955 h2.06 V56.26804889678955 h-2 zM518.2439022064209,54.87804889678955 c0.91,0 1.09,-0.9 1.09,-2.6500000000000004 S519.2439022064209,49.59804889678955 518.2439022064209,49.59804889678955 s-1.08,0.9 -1.08,2.6500000000000004 S517.3939022064209,54.87804889678955 518.2439022064209,54.87804889678955 z" id="svg_98" class="" fill-opacity="1" fill="#7c919b"/><path d="M522.4939022064209,54.67804889678955 L525.7139022064209,49.87804889678955 H522.6439022064209 V48.218048896789554 h5.5 v1.58 l-3.22,4.79 h3.22 v1.6700000000000002 h-5.65 z" id="svg_99" class="" fill-opacity="1" fill="#7c919b"/><path d="M529.2439022064209,45.468048896789554 h2.06 v1.7600000000000002 H529.2439022064209 zm0,2.75 h2.06 v8 H529.2439022064209 z" id="svg_100" class="" fill-opacity="1" fill="#7c919b"/></g></svg>