<svg id="Layer_1" data-name="Layer 1" xmlns="http://www.w3.org/2000/svg" viewBox="0 0 42.52 42.52"><defs><style>.cls-1{fill:#39b774;}.cls-1,.cls-2{fill-rule:evenodd;}.cls-2{fill:#fff;}</style></defs><title>ptaszek</title><path class="cls-1" d="M35.36,35.4a20,20,0,1,1,0-28.28A19.9,19.9,0,0,1,35.36,35.4Z"/><path class="cls-2" d="M19.13,27.11a1.23,1.23,0,0,1-.87-.36l-.06-.06v0l-5.11-5.11a1.23,1.23,0,1,1,1.74-1.74l4.31,4.31,8.55-8.55a1.23,1.23,0,0,1,1.74,1.75l-9.38,9.38a1.29,1.29,0,0,1-.46.32A1.23,1.23,0,0,1,19.13,27.11Z"/></svg>