<svg xmlns="http://www.w3.org/2000/svg" xmlns:xlink="http://www.w3.org/1999/xlink" width="58" height="40" viewBox="0 0 58 40">
    <defs>
        <path id="a" d="M48.883 39.432L3.965 33.818 0 28.724 3.05 4.38 8.15.42l44.918 5.614 3.965 5.094-3.05 24.344-5.1 3.96z"/>
        <path id="c" d="M47.198 5.652l-3.174 25.392c-.843.652-3.682 2.855-4.523 3.51L.255 29.642 37.88.423l5.815.725c.654.842 2.846 3.665 3.502 4.504z"/>
        <path id="e" d="M4.042 2.328a1.808 1.808 0 0 1-3.59-.45 1.809 1.809 0 0 1 3.59.45z"/>
        <path id="g" d="M3.73 2.148A1.809 1.809 0 0 1 .14 1.7a1.809 1.809 0 0 1 3.59.448z"/>
        <path id="i" d="M18.835 9.543c0 5.159-4.187 9.34-9.353 9.34-5.165 0-9.352-4.181-9.352-9.34S4.317.203 9.482.203c5.166 0 9.353 4.181 9.353 9.34z"/>
        <path id="k" d="M4.834.022c2.123.02 4.284 1.522 3.916 4.149L7.683 11.8l-7.64-1.066 1.067-7.63C1.41.97 3.11.007 4.834.022zm0 0l-.011 1.27c-.51-.005-2.193.124-2.454 1.988l-.892 6.374 5.123.714.892-6.373c.099-.706-.057-1.302-.463-1.772-.488-.567-1.334-.924-2.206-.931l.012-1.27z"/>
        <path id="m" d="M9.397 8.745l-8.38-1.17-.973-1.287.683-4.875L2.015.442l8.38 1.169.972 1.287-.681 4.875-1.29.972z"/>
        <path id="o" d="M1.961 1.93l.625 1.823-1.14-.159-1.14-.159L1.407 1.85A.876.876 0 0 1 1.925.2a.876.876 0 0 1 .036 1.73z"/>
    </defs>
    <g fill="none" fill-rule="evenodd">
        <g transform="translate(.429 .114)">
            <mask id="b" fill="#fff">
                <use xlink:href="#a"/>
            </mask>
            <path fill="#23E5DB" d="M-2.25-1.83h61.533v43.512H-2.25z" mask="url(#b)"/>
        </g>
        <g transform="translate(10.327 5.064)">
            <mask id="d" fill="#fff">
                <use xlink:href="#c"/>
            </mask>
            <path fill="#00A7A0" d="M-1.995-1.826h51.443v38.63H-1.995z" mask="url(#d)"/>
        </g>
        <path fill="#CBF7EE" fill-rule="nonzero" d="M7.525 4.25l-.61.474-3.033 24.201.475.61 45.636 5.705.61-.475 3.033-24.2-.475-.611L7.525 4.249zm-2.49 24.269L7.932 5.402l44.551 5.569-2.896 23.116-44.552-5.568z"/>
        <g transform="translate(11.227 15.412)">
            <mask id="f" fill="#fff">
                <use xlink:href="#e"/>
            </mask>
            <path fill="#FFF" d="M-1.812-1.953h8.118V6.16h-8.118z" mask="url(#f)"/>
        </g>
        <g transform="translate(42.502 19.462)">
            <mask id="h" fill="#fff">
                <use xlink:href="#g"/>
            </mask>
            <path fill="#FFF" d="M-2.124-2.133h8.118V5.98h-8.118z" mask="url(#h)"/>
        </g>
        <g transform="translate(19.326 10.013)">
            <mask id="j" fill="#fff">
                <use xlink:href="#i"/>
            </mask>
            <path fill="#FFF" d="M-2.12-2.047h23.204v23.18H-2.119z" mask="url(#j)"/>
        </g>
        <g transform="translate(24.276 13.613)">
            <mask id="l" fill="#fff">
                <use xlink:href="#k"/>
            </mask>
            <path fill="#003035" d="M-2.206-2.227H11.04V14.05H-2.206z" mask="url(#l)"/>
        </g>
        <g transform="translate(22.926 16.762)">
            <mask id="n" fill="#fff">
                <use xlink:href="#m"/>
            </mask>
            <path fill="#FFCE32" d="M-2.205-1.808h15.822v12.802H-2.205z" mask="url(#n)"/>
        </g>
        <g transform="translate(26.975 19.462)">
            <mask id="p" fill="#fff">
                <use xlink:href="#o"/>
            </mask>
            <path fill="#003035" d="M-1.944-2.057H4.93v8.06h-6.874z" mask="url(#p)"/>
        </g>
    </g>
</svg>
