<svg xmlns="http://www.w3.org/2000/svg" width="72" height="72" viewBox="0 0 72 72">
    <g fill="none" fill-rule="evenodd">
        <path fill="#3A77FF" d="M44.203 39.346c-5.823 0-8.535-2.78-8.674-2.927l.612-.58c.04.04 4.05 4.105 12.769 2.093 5.947-1.372 8.102-6.377 7.157-10.61-.84-3.762-4.187-7.017-9.77-5.814-4.015.866-7.113.052-8.727-2.29-1.683-2.446-1.447-6.321.573-9.425 2.234-3.43 5.974-5.023 10.007-4.262l-.156.829c-3.687-.696-7.104.76-9.144 3.893-1.84 2.825-2.08 6.315-.585 8.486 1.407 2.043 4.196 2.733 7.853 1.945 2.77-.597 5.281-.202 7.264 1.142 1.764 1.196 3.01 3.082 3.508 5.311 1.035 4.64-1.308 10.12-7.79 11.617-1.828.422-3.458.592-4.897.592" transform="translate(5.657 13.629)"/>
        <path fill="#C7DCFF" d="M0.136 0.258L26.993 2.67 37.526 37.648 2.548 27.115z" transform="translate(5.657 13.629)"/>
        <path fill="#FF5636" d="M41.204 38.317L41.697 41.219 42.191 44.122 39.431 43.098 36.671 42.074 38.938 40.196z" transform="translate(5.657 13.629)"/>
        <path fill="#FF5636" d="M41.018 38.82L40.524 35.918 40.031 33.016 42.791 34.039 45.551 35.063 43.284 36.942zM53.056 35.811L55.645 37.213 58.233 38.615 55.725 40.155 53.216 41.696 53.136 38.754z" transform="translate(5.657 13.629)"/>
        <path fill="#FF5636" d="M53.337 36.267L50.748 34.866 48.16 33.464 50.668 31.923 53.176 30.382 53.257 33.325zM54.362 23.793L55.98 21.333 57.599 18.874 58.919 21.505 60.24 24.136 57.301 23.964z" transform="translate(5.657 13.629)"/>
        <path fill="#FF5636" d="M54.841 23.552L53.223 26.011 51.605 28.47 50.284 25.839 48.964 23.208 51.903 23.38zM44.402 21.398L43.779 18.521 43.156 15.644 45.959 16.543 48.762 17.442 46.582 19.42z" transform="translate(5.657 13.629)"/>
        <path fill="#FF5636" d="M44.565 20.888L45.188 23.765 45.811 26.642 43.008 25.743 40.205 24.844 42.385 22.866zM37.477 10.962L40.299 10.123 43.12 9.283 42.437 12.147 41.753 15.01 39.615 12.986z" transform="translate(5.657 13.629)"/>
        <path fill="#FF5636" d="M37.999 11.087L35.177 11.926 32.356 12.766 33.039 9.902 33.723 7.039 35.861 9.063z" transform="translate(5.657 13.629)"/>
        <path fill="#3A77FF" d="M18.129 1.827L19.84 32.322 2.67 27.123 0.141 0.141z" transform="translate(5.657 13.629)"/>
    </g>
</svg>
