<svg xmlns="http://www.w3.org/2000/svg" width="200" height="200" viewBox="0 0 200 200">
    <g fill="none" fill-rule="evenodd">
        <path fill="#002F34" d="M95.462 0L82.738 0.001 82.808 14.419 126.93 58.737 141.453 58.736 141.453 46.194z" transform="translate(10.714 17.143)"/>
        <path fill="#1D3C81" d="M82.937 0L36.947 46.194 36.947 58.736 51.469 58.737 95.591 14.419 95.661 0.001z" transform="translate(10.714 17.143)"/>
        <path fill="#C7DCFF" d="M0 45.819L0 143.381 22.449 165.829 155.951 165.829 178.399 143.381 178.399 45.819z" transform="translate(10.714 17.143)"/>
        <path fill="#002F34" d="M142.256 109.76l-3.774 3.67c-2.57-2.642-5.186-3.97-7.751-3.926-3.733.056-6.428 2.95-6.455 2.98l-3.915-3.52c.167-.188 4.174-4.595 10.212-4.722 4.112-.09 8.038 1.77 11.683 5.518zm-2.285-21.065a4.906 4.906 0 11-.535 9.798 4.906 4.906 0 01.535-9.798zm-16.257-.887a4.906 4.906 0 11-.535 9.798 4.906 4.906 0 01.535-9.798z" transform="translate(10.714 17.143)"/>
        <path fill="#3A77FF" d="M0 45.819L0 143.381 22.448 165.829 142.458 45.819z" transform="translate(10.714 17.143)"/>
    </g>
</svg>
