<svg xmlns="http://www.w3.org/2000/svg" xmlns:xlink="http://www.w3.org/1999/xlink" width="94" height="94" viewBox="0 0 94 94">
    <defs>
        <path id="a" d="M0 71.716h94.185V.134H0z"/>
        <path id="c" d="M.22.001h14.581v14.581H.221z"/>
        <path id="e" d="M.14.001h14.58v14.581H.14z"/>
    </defs>
    <g fill="none" fill-rule="evenodd">
        <g transform="translate(0 11.06)">
            <path fill="#FFCE32" d="M36 30.897a4.285 4.285 0 1 1-8.57 0 4.285 4.285 0 0 1 8.57 0"/>
            <path fill="#F8FBCF" d="M2.172 51.87h11.276V35.633l11.727-4.962 12.179 4.51v16.575h55.478v14.999H2.172z"/>
            <mask id="b" fill="#fff">
                <use xlink:href="#a"/>
            </mask>
            <path fill="#FFF" d="M16.605 42.85h4.51v-4.511h-4.51zM16.605 50.968h4.51v-4.51h-4.51z" mask="url(#b)"/>
            <path fill="#F2F4F5" d="M2.172 71.716h91.111v-9.923H2.172z" mask="url(#b)"/>
            <path fill="#FFCE32" d="M55.153 59.107h37.952V19.846H55.153z" mask="url(#b)"/>
            <path fill="#FFCE32" d="M55.154 59.616V28.609H41.672l-6.403 12.47-10.6 5.06v13.477z" mask="url(#b)"/>
            <path fill="#406367" d="M22.868 59.827h71.317v-5.763H22.868z" mask="url(#b)"/>
            <path fill="#D2B982" d="M38.976 41.08h13.482V30.63h-8.426z" mask="url(#b)"/>
            <path fill="#F8FBCF" d="M47.74 46.135h5.054v-2.022H47.74zM49.487 30.631l-3.77 10.448h-7.078l5.056-10.448z" mask="url(#b)"/>
            <path fill="#FFF" d="M27.845 44.622l-3.176 5.84V46.14z" mask="url(#b)"/>
            <path fill="#F8FBCF" d="M54.924 19.846l37.977 34.218H54.924z" mask="url(#b)"/>
        </g>
        <g transform="translate(27.063 62.815)">
            <mask id="d" fill="#fff">
                <use xlink:href="#c"/>
            </mask>
            <path fill="#002F34" d="M4.452.676a7.289 7.289 0 1 0 9.675 3.557A7.29 7.29 0 0 0 4.452.676" mask="url(#d)"/>
        </g>
        <path fill="#FFF" d="M33.403 67.576a2.789 2.789 0 1 1-1.36 3.702 2.792 2.792 0 0 1 1.36-3.702"/>
        <g transform="translate(72.167 62.815)">
            <mask id="f" fill="#fff">
                <use xlink:href="#e"/>
            </mask>
            <path fill="#002F34" d="M4.371.676a7.289 7.289 0 1 0 6.117 13.232A7.289 7.289 0 0 0 4.372.676" mask="url(#f)"/>
        </g>
        <path fill="#FFF" d="M78.427 67.576a2.789 2.789 0 1 1 2.342 5.062 2.789 2.789 0 0 1-2.342-5.062"/>
        <path fill="#EBF2FF" d="M48.562 29.553a3.383 3.383 0 0 0-3.315-4.06c-.536 0-1.04.129-1.491.35a6.082 6.082 0 0 0-11.267 1.981 2.237 2.237 0 0 0-.548-.075c-1.091 0-2 .775-2.21 1.804h18.83z"/>
        <path fill="#2A65EA" d="M75.164 19.18c.05-.25.077-.76.077-1.025a3.867 3.867 0 0 0-3.867-3.867 3.84 3.84 0 0 0-1.704.4 6.953 6.953 0 0 0-12.88 2.264 2.57 2.57 0 0 0-.627-.086c-1.247 0-2.287 1.136-2.527 2.313h21.528z"/>
    </g>
</svg>
