<svg xmlns="http://www.w3.org/2000/svg" xmlns:xlink="http://www.w3.org/1999/xlink" width="634" height="448" viewBox="0 0 634 448">
    <defs>
        <filter id="prefix__a" width="150.7%" height="172.8%" x="-36.3%" y="-20.7%" filterUnits="objectBoundingBox">
            <feOffset dx="-51" dy="51" in="SourceAlpha" result="shadowOffsetOuter1"/>
            <feGaussianBlur in="shadowOffsetOuter1" result="shadowBlurOuter1" stdDeviation="31"/>
            <feColorMatrix in="shadowBlurOuter1" values="0 0 0 0 0 0 0 0 0 0 0 0 0 0 0 0 0 0 0.04 0"/>
        </filter>
        <filter id="prefix__d" width="102.3%" height="427.3%" x="-1.1%" y="-81.8%" filterUnits="objectBoundingBox">
            <feOffset dy="3" in="SourceAlpha" result="shadowOffsetOuter1"/>
            <feGaussianBlur in="shadowOffsetOuter1" result="shadowBlurOuter1" stdDeviation="1.5"/>
            <feColorMatrix in="shadowBlurOuter1" values="0 0 0 0 0 0 0 0 0 0 0 0 0 0 0 0 0 0 0.24 0"/>
        </filter>
        <filter id="prefix__l" width="139.1%" height="353.8%" x="-19.5%" y="-126.9%" filterUnits="objectBoundingBox">
            <feOffset dy="2" in="SourceAlpha" result="shadowOffsetOuter1"/>
            <feGaussianBlur in="shadowOffsetOuter1" result="shadowBlurOuter1" stdDeviation="16"/>
            <feColorMatrix in="shadowBlurOuter1" result="shadowMatrixOuter1" values="0 0 0 0 0 0 0 0 0 0 0 0 0 0 0 0 0 0 0.135680726 0"/>
            <feMerge>
                <feMergeNode in="shadowMatrixOuter1"/>
                <feMergeNode in="SourceGraphic"/>
            </feMerge>
        </filter>
        <filter id="prefix__m" width="164.2%" height="517.3%" x="-32%" y="-207.7%" filterUnits="objectBoundingBox">
            <feOffset dy="2" in="SourceAlpha" result="shadowOffsetOuter1"/>
            <feGaussianBlur in="shadowOffsetOuter1" result="shadowBlurOuter1" stdDeviation="16"/>
            <feColorMatrix in="shadowBlurOuter1" result="shadowMatrixOuter1" values="0 0 0 0 0 0 0 0 0 0 0 0 0 0 0 0 0 0 0.0871667395 0"/>
            <feMerge>
                <feMergeNode in="shadowMatrixOuter1"/>
                <feMergeNode in="SourceGraphic"/>
            </feMerge>
        </filter>
        <filter id="prefix__n" width="140.7%" height="447.4%" x="-20.4%" y="-173.7%" filterUnits="objectBoundingBox">
            <feOffset dy="2" in="SourceAlpha" result="shadowOffsetOuter1"/>
            <feGaussianBlur in="shadowOffsetOuter1" result="shadowBlurOuter1" stdDeviation="16"/>
            <feColorMatrix in="shadowBlurOuter1" result="shadowMatrixOuter1" values="0 0 0 0 0 0 0 0 0 0 0 0 0 0 0 0 0 0 0.135680726 0"/>
            <feMerge>
                <feMergeNode in="shadowMatrixOuter1"/>
                <feMergeNode in="SourceGraphic"/>
            </feMerge>
        </filter>
        <path id="prefix__b" d="M73.648 0H501.86c6.809 0 9.278.709 11.767 2.04 2.489 1.332 4.442 3.285 5.773 5.774 1.331 2.49 2.04 4.959 2.04 11.768v286.2c0 6.81-.709 9.278-2.04 11.768-1.331 2.489-3.284 4.443-5.773 5.774-2.49 1.331-4.958 2.04-11.767 2.04H73.65c-6.81 0-9.278-.709-11.767-2.04-2.489-1.331-4.442-3.285-5.774-5.774-1.33-2.49-2.04-4.959-2.04-11.768v-286.2c0-6.809.71-9.278 2.04-11.768 1.332-2.489 3.285-4.442 5.774-5.774C64.371.71 66.84 0 73.648 0z"/>
        <path id="prefix__e" d="M23.917 13.137h530.265c.51 0 .925.414.925.925 0 .442-.312.822-.745.908l-8.881 1.762c-.239.047-.482.07-.725.07H35.925c-.19 0-.38-.014-.569-.043l-11.58-1.79c-.503-.077-.848-.548-.77-1.051.07-.45.456-.781.91-.781z"/>
        <path id="prefix__f" d="M0 10.082h575.508c-10.87 4.48-21.776 6.72-32.72 6.72H32.107c-9.371 0-20.074-2.24-32.108-6.72z"/>
        <path id="prefix__h" d="M0.305 0L575.202 0 575.202 10.082 0.305 10.082z"/>
        <path id="prefix__j" d="M240.711 314.977h94.085c0 4.05-3.282 7.332-7.331 7.332h-79.422c-4.05 0-7.332-3.283-7.332-7.332z"/>
        <linearGradient id="prefix__c" x1="100%" x2="0%" y1="50%" y2="50%">
            <stop offset="0%" stop-color="#FFF" stop-opacity=".5"/>
            <stop offset="96.688%" stop-color="#FFF" stop-opacity=".5"/>
            <stop offset="100%" stop-opacity=".5"/>
        </linearGradient>
        <linearGradient id="prefix__g" x1="50%" x2="50%" y1="0%" y2="100%">
            <stop offset="0%" stop-color="#FFF" stop-opacity=".5"/>
            <stop offset="100%" stop-opacity=".5"/>
        </linearGradient>
        <linearGradient id="prefix__i" x1="100%" x2="0%" y1="50%" y2="50%">
            <stop offset="0%" stop-opacity=".5"/>
            <stop offset="2.054%" stop-color="#F9F9F9" stop-opacity=".5"/>
            <stop offset="98.274%" stop-color="#FFF" stop-opacity=".5"/>
            <stop offset="100%" stop-opacity=".5"/>
        </linearGradient>
        <linearGradient id="prefix__k" x1="100%" x2="0%" y1="50%" y2="50%">
            <stop offset="0%" stop-opacity=".5"/>
            <stop offset="8.059%" stop-color="#E9E9E9" stop-opacity=".5"/>
            <stop offset="92.246%" stop-color="#FFF" stop-opacity=".5"/>
            <stop offset="100%" stop-opacity=".5"/>
        </linearGradient>
    </defs>
    <g fill="none" fill-rule="evenodd" transform="translate(57.746 10)">
        <use fill="#000" filter="url(#prefix__a)" xlink:href="#prefix__b"/>
        <use fill="#FCFCFC" xlink:href="#prefix__b"/>
        <use fill="url(#prefix__c)" fill-opacity=".06" xlink:href="#prefix__b"/>
        <path fill="#FFF" stroke="#FAFAFA" stroke-width="4" d="M502.635.75H72.873c-6.15 0-8.351.71-10.591 1.909-2.395 1.28-4.275 3.16-5.555 5.555-1.198 2.241-1.91 4.443-1.91 10.593v289.818c0 2.88.371 3.898.93 4.944.642 1.2 1.584 2.141 2.784 2.783 1.046.56 2.062.93 4.944.93h448.558c2.881 0 3.898-.37 4.944-.93 1.2-.642 2.141-1.583 2.783-2.783.56-1.046.93-2.063.93-4.944V18.807c0-6.15-.711-8.352-1.91-10.593-1.28-2.395-3.16-4.274-5.554-5.555-2.24-1.198-4.442-1.91-10.591-1.91z" opacity=".98"/>
        <g transform="translate(0 314.977)">
            <use fill="#000" filter="url(#prefix__d)" xlink:href="#prefix__e"/>
            <use fill="#F2F2F2" xlink:href="#prefix__f"/>
            <use fill="url(#prefix__g)" fill-opacity=".1" xlink:href="#prefix__f"/>
            <g>
                <use fill="#FBFBFB" xlink:href="#prefix__h"/>
                <use fill="url(#prefix__i)" fill-opacity=".08" xlink:href="#prefix__h"/>
            </g>
        </g>
        <g>
            <use fill="#F9F7F7" xlink:href="#prefix__j"/>
            <use fill="url(#prefix__k)" fill-opacity=".08" xlink:href="#prefix__j"/>
        </g>
        <g>
            <path fill="#F6F6F6" d="M0 0H439.878V274.956H0z" transform="translate(67.815 22.607)"/>
            <g filter="url(#prefix__l)" transform="translate(67.815 22.607) translate(51.32 81.876)">
                <rect width="337.24" height="51.936" fill="#9CBBFF" rx="4"/>
                <g transform="translate(7.331 7.332)">
                    <rect width="91.641" height="3.666" x="72.702" y="2.444" fill="#CEDDFF" rx="1.833"/>
                    <rect width="48.875" height="3.666" x="273.702" y="2.139" fill="#CEDDFF" rx="1.833"/>
                    <rect width="65.371" height="37.272" fill="#6C99FF" rx="4"/>
                    <rect width="28.227" height="3.666" x="72.702" y="10.998" fill="#CEDDFF" rx="1.833"/>
                    <rect width="46.582" height="3.666" x="72.702" y="31.162" fill="#CEDDFF" rx="1.833"/>
                    <g fill="#CEDDFF">
                        <path d="M6.176 3.167l-2.51 3.071-2.503-3.061C1 2.963.916 2.709.916 2.444c0-.674.549-1.222 1.222-1.222.568 0 1.046.39 1.182.917h.691c.137-.527.614-.917 1.182-.917.674 0 1.222.548 1.222 1.222 0 .265-.085.519-.239.723M5.193.611c-.637 0-1.199.326-1.527.82-.329-.494-.89-.82-1.528-.82-1.01 0-1.833.822-1.833 1.833 0 .399.128.78.377 1.11l2.59 3.167h.788l2.597-3.177c.241-.32.369-.701.369-1.1 0-1.01-.822-1.833-1.833-1.833" transform="translate(315.246 29.94)"/>
                    </g>
                </g>
            </g>
            <g filter="url(#prefix__m)" transform="translate(67.815 22.607) translate(51.32 141.144)">
                <rect width="337.24" height="51.936" fill="#9CBBFF" rx="4"/>
                <g filter="url(#prefix__n)" transform="translate(7.331 7.332)">
                    <rect width="91.641" height="3.666" x="72.702" y="2.444" fill="#CEDDFF" rx="1.833"/>
                    <rect width="48.875" height="3.666" x="273.702" y="2.139" fill="#CEDDFF" rx="1.833"/>
                    <rect width="65.371" height="37.272" fill="#6C99FF" rx="4"/>
                    <path fill="#23E5DB" d="M0 29.94h24.438v7.332H4c-2.21 0-4-1.791-4-4V29.94z"/>
                    <rect width="28.227" height="3.666" x="72.702" y="10.998" fill="#CEDDFF" rx="1.833"/>
                    <rect width="46.582" height="3.666" x="72.702" y="31.162" fill="#CEDDFF" rx="1.833"/>
                    <g fill="#CEDDFF">
                        <path d="M6.176 3.167l-2.51 3.071-2.503-3.061C1 2.963.916 2.709.916 2.444c0-.674.549-1.222 1.222-1.222.568 0 1.046.39 1.182.917h.691c.137-.527.614-.917 1.182-.917.674 0 1.222.548 1.222 1.222 0 .265-.085.519-.239.723M5.193.611c-.637 0-1.199.326-1.527.82-.329-.494-.89-.82-1.528-.82-1.01 0-1.833.822-1.833 1.833 0 .399.128.78.377 1.11l2.59 3.167h.788l2.597-3.177c.241-.32.369-.701.369-1.1 0-1.01-.822-1.833-1.833-1.833" transform="translate(315.246 29.94)"/>
                    </g>
                </g>
            </g>
            <g transform="translate(67.815 22.607) translate(51.32 72.1)">
                <rect width="337.24" height="51.936" y="146.643" fill="#FFF" rx="4"/>
                <rect width="91.641" height="3.666" x="81.866" y="156.419" fill="#F2F4F5" rx="1.833"/>
                <rect width="61.094" height="4.888" fill="#D8DFE0" rx="2.444"/>
                <rect width="61.094" height="4.888" y="136.867" fill="#D8DFE0" rx="2.444"/>
                <rect width="48.875" height="3.666" x="282.866" y="156.114" fill="#F2F4F5" rx="1.833"/>
                <rect width="65.371" height="37.272" x="7.331" y="153.975" fill="#D8DFE0" rx="4"/>
                <rect width="28.227" height="3.666" x="81.866" y="164.973" fill="#F2F4F5" rx="1.833"/>
                <rect width="46.582" height="3.666" x="81.866" y="185.137" fill="#F2F4F5" rx="1.833"/>
                <g fill="#D8DFE0">
                    <path d="M6.176 3.167l-2.51 3.071-2.503-3.061C1 2.963.916 2.709.916 2.444c0-.674.549-1.222 1.222-1.222.568 0 1.046.39 1.182.917h.691c.137-.527.614-.917 1.182-.917.674 0 1.222.548 1.222 1.222 0 .265-.085.519-.239.723M5.193.611c-.637 0-1.199.326-1.527.82-.329-.494-.89-.82-1.528-.82-1.01 0-1.833.822-1.833 1.833 0 .399.128.78.377 1.11l2.59 3.167h.788l2.597-3.177c.241-.32.369-.701.369-1.1 0-1.01-.822-1.833-1.833-1.833" transform="translate(322.578 183.915)"/>
                </g>
            </g>
            <path fill="#002F34" d="M0 0H439.878V21.996H0z" transform="translate(67.815 22.607)"/>
            <path fill="#23E5DB" d="M24.126 17.414h-2.967V4.888h2.967v12.526zM20.1 11.166c0 2.851-2.312 5.159-5.16 5.159-2.848 0-5.164-2.311-5.164-5.159 0-2.847 2.312-5.158 5.16-5.158 2.848 0 5.164 2.307 5.164 5.158zm-3.603 0c0-.862-.697-1.558-1.559-1.558s-1.56.696-1.56 1.558c0 .862.698 1.558 1.56 1.558.862 0 1.559-.696 1.559-1.558zm15.159-3.131h-1.972L28.527 9.19l-1.158-1.156h-1.972v2.004l1.142 1.14-1.142 1.141v1.978H27.4l1.13-1.13 1.131 1.13h2.003V12.32l-1.142-1.14 1.142-1.141V8.035h-.008z" transform="translate(67.815 22.607)"/>
            <g transform="translate(67.815 22.607) translate(51.32 36.66)">
                <rect width="337.24" height="20.163" fill="#FFF" rx="4"/>
                <path fill="#D8DFE0" d="M322.12 11.61c-1.096 0-1.986-.892-1.986-1.987 0-1.094.89-1.985 1.985-1.985 1.095 0 1.986.89 1.986 1.985 0 1.095-.89 1.986-1.986 1.986zm3.124.706l-1.088-1.087c.35-.443.56-1 .56-1.606 0-1.431-1.165-2.596-2.597-2.596-1.431 0-2.596 1.165-2.596 2.596 0 1.432 1.165 2.597 2.596 2.597.606 0 1.163-.21 1.605-.56l1.282 1.283.194.194h.432v-.432l-.388-.389z"/>
            </g>
            <path fill="#23E5DB" d="M58.65 119.147h24.438v7.333H62.65c-2.209 0-4-1.791-4-4v-3.333z" transform="translate(67.815 22.607)"/>
        </g>
    </g>
</svg>
