<svg xmlns="http://www.w3.org/2000/svg" width="128" height="128" viewBox="0 0 128 128">
    <g fill="none" fill-rule="evenodd">
        <path fill="#002F34" d="M93.79 69.966c-13.66 13.608-35.81 13.608-49.47 0-13.662-13.608-13.662-35.671 0-49.28 13.66-13.608 35.81-13.608 49.47 0 13.662 13.609 13.662 35.672 0 49.28m7.126-56.377C92.116 4.824 80.588.442 69.055.443c-11.53 0-23.064 4.383-31.86 13.146-14.979 14.92-17.204 37.73-6.683 54.998L.011 98.97l-.005 6.33L0 114.132l12.487-.009 2.734-.002 30.506-30.387c7.147 4.315 15.237 6.475 23.328 6.475 11.532 0 23.062-4.382 31.86-13.146 17.597-17.528 17.597-45.946 0-63.474" transform="translate(6.857 6.857)"/>
        <path fill="#23E5D8" d="M93.79 69.966c-13.66 13.608-35.81 13.608-49.47 0-13.662-13.608-13.662-35.671 0-49.28 13.66-13.608 35.81-13.608 49.47 0 13.662 13.609 13.662 35.672 0 49.28" transform="translate(6.857 6.857)"/>
        <path fill="#002F34" d="M65.234 57.273L57.062 49.132 60.041 46.164 68.214 54.305z" transform="translate(6.857 6.857)"/>
        <path fill="#CBF7EE" d="M79.829 12.177v66.298c5.104-1.642 9.908-4.471 13.962-8.51 13.66-13.607 13.66-35.67 0-49.279-4.054-4.038-8.858-6.867-13.962-8.509" transform="translate(6.857 6.857)"/>
        <path fill="#002F34" d="M73.37 52.932c-1.99-1.98-1.99-5.192 0-7.173 1.989-1.981 5.213-1.981 7.202 0 1.988 1.98 1.988 5.192 0 7.173-1.989 1.982-5.213 1.982-7.202 0M61.42 41.028c-1.99-1.98-1.99-5.193 0-7.174 1.988-1.98 5.212-1.98 7.2 0 1.99 1.981 1.99 5.193 0 7.174-1.988 1.981-5.212 1.981-7.2 0" transform="translate(6.857 6.857)"/>
    </g>
</svg>
