<?xml version="1.0" encoding="utf-8"?>
<!-- Generator: Adobe Illustrator 21.1.0, SVG Export Plug-In . SVG Version: 6.00 Build 0)  -->
<svg version="1.1" id="Layer_1" xmlns="http://www.w3.org/2000/svg" xmlns:xlink="http://www.w3.org/1999/xlink" x="0px" y="0px"
	 viewBox="0 0 512 512" style="enable-background:new 0 0 512 512;" xml:space="preserve">
<style type="text/css">
	.st0{fill:#FFD500;}
	.st1{fill:#414141;}
</style>
<path class="st0" d="M462,0H50C22.4,0,0,22.4,0,50v412c0,27.6,22.4,50,50,50h412c27.6,0,50-22.4,50-50V50C512,22.4,489.6,0,462,0z"
	/>
<g>
	<path class="st1" d="M260.1,299.9c11.2,11.2,17.4,26.1,17.4,41.9c0,0.2,0,0.4,0,0.6c28.7-28.4,157.8-156.1,157.9-156.2l-57-58.2
		L230.9,270.7L260.1,299.9z"/>
	<path class="st1" d="M248,311.9l-12.1-12.1l-99.4-99.4L76.7,260l99.4,99.4l12.1,12.1c16.5,16.5,43.2,16.5,59.7,0
		C264.5,355.1,264.5,328.4,248,311.9z M231.3,354.9c-6.7,6.7-17.5,6.7-24.1,0c-6.7-6.7-6.7-17.5,0-24.1c6.7-6.7,17.5-6.7,24.1,0
		C238,337.5,238,348.3,231.3,354.9z"/>
</g>
</svg>
