<svg xmlns="http://www.w3.org/2000/svg" xmlns:xlink="http://www.w3.org/1999/xlink" width="90" height="90" viewBox="0 0 90 90">
    <defs>
        <path id="a" d="M75.63 37.815C75.63 58.7 58.7 75.63 37.815 75.63 16.93 75.63 0 58.7 0 37.815 0 16.93 16.93 0 37.815 0 58.7 0 75.63 16.93 75.63 37.815"/>
        <path id="b" d="M17.63 37.791c0 10.974 8.97 19.87 20.036 19.87 11.064 0 20.035-8.896 20.035-19.87 0-10.973-8.97-19.87-20.035-19.87-11.066 0-20.035 8.897-20.035 19.87"/>
        <path id="c" d="M14.874 21.885c7.745 0 14.023-6.278 14.023-14.023H.85c0 7.745 6.278 14.023 14.023 14.023z"/>
    </defs>
    <g fill="none" fill-rule="evenodd">
        <use fill="#FFD6C9" transform="translate(4.821 4.821)" xlink:href="#a"/>
        <path fill="#002F34" fill-opacity=".26" d="M19.632 72.751A37.547 37.547 0 0 0 42.45 80.43c8.57 0 16.465-2.856 22.783-7.652v-13.44h-45.6v13.413z"/>
        <path fill="#CED7D7" d="M22.356 42.8c0 11.027 9.013 19.966 20.131 19.966S62.62 53.827 62.62 42.801c0-11.027-9.014-19.965-20.132-19.965-11.118 0-20.131 8.938-20.131 19.965"/>
        <path fill="#002F34" d="M31.434 46.059h8.398v-3.037h-8.398zM45.178 46.059h8.398v-3.037h-8.398zM50.316 20.904c0 4.288-3.505 7.764-7.829 7.764s-7.83-3.476-7.83-7.764 3.506-7.764 7.83-7.764 7.83 3.476 7.83 7.764"/>
        <path fill="#002F34" d="M42.487 22.835c-9.634 0-17.682 6.713-19.661 15.678 1.624.566 3.369.877 5.188.877a15.65 15.65 0 0 0 14.493-9.664 13.194 13.194 0 0 0 12.515 8.94c2.443 0 4.724-.67 6.686-1.817-2.554-8.12-10.193-14.014-19.221-14.014"/>
        <g fill-rule="nonzero" transform="translate(45.473 45.158)">
            <path fill="#FFD6C9" d="M29.6 29.6c5.477-5.476 5.477-14.355 0-19.831L9.77 29.6c5.476 5.476 14.355 5.476 19.832 0z"/>
            <use fill="#FF4134" transform="rotate(135 14.874 14.874)" xlink:href="#c"/>
        </g>
    </g>
</svg>
