<svg xmlns="http://www.w3.org/2000/svg" xmlns:xlink="http://www.w3.org/1999/xlink" width="138" height="152" viewBox="0 0 138 152">
    <defs>
        <linearGradient id="a" x1="50%" x2="50%" y1="0%" y2="97.451%">
            <stop offset="0%" stop-color="#FA4C00"/>
            <stop offset="100%" stop-color="#D74500"/>
        </linearGradient>
        <linearGradient id="b" x1="50%" x2="50%" y1="0%" y2="100%">
            <stop offset="0%" stop-color="#CDF600"/>
            <stop offset="100%" stop-color="#9EE900"/>
        </linearGradient>
        <path id="c" d="M5.051 56.465c-.068-16.809-.068-27.476 0-32 .268-17.622.602-19.046 0-20.25-.638-1.277 6.637 3.025 20 15.75 2.714 2.584 7.13 7.584 13.25 15-5.612 5.417-10.029 9.167-13.25 11.25-3.22 2.083-9.887 5.5-20 10.25z"/>
        <filter id="d" width="121%" height="113.3%" x="-10.5%" y="-6.7%" filterUnits="objectBoundingBox">
            <feGaussianBlur in="SourceAlpha" result="shadowBlurInner1" stdDeviation="2.5"/>
            <feOffset dy="2" in="shadowBlurInner1" result="shadowOffsetInner1"/>
            <feComposite in="shadowOffsetInner1" in2="SourceAlpha" k2="-1" k3="1" operator="arithmetic" result="shadowInnerInner1"/>
            <feColorMatrix in="shadowInnerInner1" values="0 0 0 0 0.511467034 0 0 0 0 0.700680272 0 0 0 0 0 0 0 0 0.586956522 0"/>
        </filter>
        <path id="e" d="M38.751 35.25c6.582 6.167 11.623 11.125 15.124 14.875 3.5 3.75 11.458 12.374 23.875 25.875L67.625 40.25 58.501 7c-1.09 4.01-2.34 7.469-3.751 10.375-1.411 2.906-3.994 6.364-7.75 10.375l-8.249 7.5z"/>
        <filter id="f" width="117.9%" height="110.1%" x="-9%" y="-5.1%" filterUnits="objectBoundingBox">
            <feGaussianBlur in="SourceAlpha" result="shadowBlurInner1" stdDeviation="2.5"/>
            <feOffset dy="2" in="shadowBlurInner1" result="shadowOffsetInner1"/>
            <feComposite in="shadowOffsetInner1" in2="SourceAlpha" k2="-1" k3="1" operator="arithmetic" result="shadowInnerInner1"/>
            <feColorMatrix in="shadowInnerInner1" values="0 0 0 0 0.511467034 0 0 0 0 0.700680272 0 0 0 0 0 0 0 0 0.586956522 0"/>
        </filter>
    </defs>
    <g fill="none" fill-rule="evenodd">
        <path fill="url(#a)" fill-rule="nonzero" d="M114.834 115.906c6.412 5.964 9.234 14.82 8.14 22.8h-.533c-1.835-7.607-5.5-14.44-11.074-18.751-2.705-2.203-5.938-3.83-9.272-4.977-3.584-1.19-7.948-2.283-11.431-5.542-1.782-1.606-2.95-4.167-3.105-6.44-.208-2.288.096-4.288.197-6.176.353-3.74-.368-7.164-2.763-9.906L81.1 82.475.987 60.625c.123 2.385.693 4.71 1.968 6.663 2.033 3.196 5.473 5.17 9.063 6.343 3.65 1.093 8.098 2.171 11.17 5.942 1.521 1.932 2.001 4.481 2.177 6.492.176 2.065.363 3.761 1.104 4.983 1.44 2.448 5.196 3.723 8.78 4.571 4.023.891 8.328 2.753 11.63 5.548 6.785 5.617 10.37 14.286 9.96 22.458l-.534.053c-2.609-7.526-6.876-14.077-12.733-18.265-2.966-2.144-6.05-3.648-9.698-4.86-2.012-.66-4.012-1.424-5.964-2.544-1.92-1.104-3.937-2.704-5.1-5.04-1.158-2.348-1.094-4.77-1.168-6.647-.054-1.932-.272-3.49-1.158-4.807-1.846-2.742-5.553-4.16-9.324-5.574-3.799-1.574-7.511-4.118-9.506-7.906C.357 65.64-.026 62.983.085 60.38L0 60.354V0h60.348l.016.064c2.449-.048 4.93.368 7.17 1.579 3.787 2 6.326 5.708 7.9 9.511 1.414 3.766 2.838 7.474 5.574 9.32 1.318.89 2.881 1.109 4.807 1.162 1.872.07 4.3.011 6.646 1.169 2.337 1.157 3.937 3.174 5.041 5.094 1.12 1.958 1.889 3.958 2.545 5.97 1.206 3.643 2.71 6.726 4.854 9.697 4.193 5.857 10.744 10.13 18.27 12.733l-.053.534c-8.172.41-16.84-3.18-22.458-9.965-2.8-3.296-4.657-7.607-5.547-11.629-.849-3.585-2.123-7.335-4.577-8.78-1.211-.747-2.913-.928-4.977-1.105-2.017-.176-4.561-.656-6.492-2.181-3.777-3.073-4.85-7.522-5.943-11.165-1.168-3.596-3.142-7.031-6.342-9.063-1.809-1.185-3.948-1.771-6.156-1.947l21.95 80.49 4.354 3.601c3.152 2.982 4.46 7.772 4.283 11.827-.09 4.128-.176 7.564 2.305 9.356 2.512 1.974 6.108 2.753 10.002 3.617 4.177 1.061 8.087 3.083 11.314 6.017z" transform="rotate(6 7.265 138.62)"/>
        <g transform="rotate(6 7.265 138.62)">
            <use fill="url(#b)" xlink:href="#c"/>
            <use fill="#000" filter="url(#d)" xlink:href="#c"/>
        </g>
        <g transform="rotate(6 7.265 138.62)">
            <use fill="url(#b)" xlink:href="#e"/>
            <use fill="#000" filter="url(#f)" xlink:href="#e"/>
        </g>
    </g>
</svg>
