<svg xmlns="http://www.w3.org/2000/svg" width="40" height="40" viewBox="0 0 40 40">
    <g fill="none" fill-rule="evenodd">
        <path fill="#F8FBCF" d="M34.488 26.573L19.048.04c-.014-.025-.04-.04-.069-.04h-3.38c-.028 0-.055.015-.07.04L.09 26.573c-.059.101-.09.216-.09.334v4.516c0 .044.036.08.08.08h34.498v-4.596c0-.118-.03-.233-.09-.334" transform="translate(2.714 2.143)"/>
        <path fill="#F8DD3E" d="M2.286 29.227v-1.828c0-.015.003-.029.01-.04L16.864 2.324c.015-.024.041-.04.07-.04h.802c.029 0 .055.016.07.04L32.37 27.358c.007.012.011.026.011.04v1.829c0 .044-.036.08-.08.08H2.366c-.044 0-.08-.036-.08-.08L19.213 9.595" transform="translate(2.714 2.143)"/>
        <g fill="#002F34">
            <path fill-rule="nonzero" d="M0 8.95L12.571 8.95 12.571 7.05 0 7.05z" transform="translate(2.714 2.143) translate(11 15.429)"/>
            <g>
                <path d="M7.148 3.389c-.909 0-1.647-.732-1.647-1.636C5.501.85 6.24.118 7.148.118c.91 0 1.648.732 1.648 1.635 0 .904-.738 1.636-1.648 1.636M1.686 3.389C.776 3.389.04 2.657.04 1.753.04.85.777.118 1.686.118c.91 0 1.647.732 1.647 1.635 0 .904-.737 1.636-1.647 1.636" transform="translate(2.714 2.143) translate(11 15.429) translate(1.857)"/>
            </g>
        </g>
        <path fill="#CFC980" d="M6.262 31.513v4.078h-1.36v-4.078h1.36zm23.48 0v4.078h-1.36v-4.078h1.36z" transform="translate(2.714 2.143)"/>
    </g>
</svg>
