<svg height="16" viewBox="0 0 14 16" width="14" xmlns="http://www.w3.org/2000/svg" xmlns:xlink="http://www.w3.org/1999/xlink"><defs><path id="a" d="m176.425174 27.8165904c.674283.0312506 1.543994-.4807453 1.57352-1.1776612s-.44459-1.3234516-1.119395-1.3535767l-4.522148-.107722s.97592-2.0498968.97592-4.4001176c0-1.5667035-1.101862-1.7775129-1.749877-1.7775129-.50977-.0001986-.647039 1.0031325-.647039 1.0031325-.116476.6433528-.135298 1.1008985-.66615 2.2577208-.530853 1.1568223-1.473277.9050292-2.402869 1.9377572-.164057.1818761-.415027.60964-.629859.97902-.017534.0195316-.033894.0468759-.049732.0853434-.019163.0458166-.042106.0775969-.062312.1199707-.035588.0664076-.07059.1328152-.105005.2025333-.57534.5844268-1.47169.5247063-1.853382.5247063-.7656 0-1.166585.4518764-1.166585 1.1850086l-.000261 5.4177498c0 .8225144.331308 1.0999301 1.166911 1.0999301h1.166585c.587334 0 1.06573.0523051 1.768432.3027737.962507.3387253 2.38149.8826984 4.857664.8826984.433053 0 1.77621.0016552 1.77621.0016552.411218 0 .741548-.1908143.97991-.4212216.09073-.0875945.185371-.2148482.225848-.463132.006583-.0384674.013622-.1997525.012579-.2215353.031091-.7102901-.391599-.9674458-.631069-1.0484194.006518-.0022511.002216-.0083424.015252-.0078127l.76019.0345611c.674805.0312506 1.340876-.4625361 1.340876-1.3022648 0-.69632-.555657-1.1873921-1.228245-1.2208277l.403071.019002c.674739.0301251 1.245126-.509412 1.276347-1.2063279.029396-.6968497-.791104-1.3141145-1.465387-1.3454313z"/></defs><g fill="none" transform="translate(-164 -19)"><use fill="#000" xlink:href="#a"/><use fill="#fff" xlink:href="#a"/></g></svg>