<?xml version="1.0" standalone="no"?>
<!DOCTYPE svg PUBLIC "-//W3C//DTD SVG 1.1//EN" "http://www.w3.org/Graphics/SVG/1.1/DTD/svg11.dtd" >
<svg xmlns="http://www.w3.org/2000/svg" xmlns:xlink="http://www.w3.org/1999/xlink" version="1.1">
<metadata></metadata>
<defs>
<font id="geomanistregular" horiz-adv-x="440" >
<font-face units-per-em="2048" ascent="1536" descent="-512" />
<missing-glyph horiz-adv-x="520" />
<glyph unicode="&#x2e;&#x2e;&#x2e;" horiz-adv-x="1382" d="M100 88q0 47 35 81t82 34t81 -34t34 -81t-34 -81t-81 -34t-82 34t-35 81zM575 88q0 47 34 81t81 34t82 -34t35 -81t-35 -81t-82 -34t-81 34t-34 81zM1049 88q0 47 34.5 81t81.5 34t81 -34t34 -81t-34 -81t-81 -34t-81.5 34t-34.5 81z" />
<glyph horiz-adv-x="0" />
<glyph horiz-adv-x="0" />
<glyph unicode="&#xd;" horiz-adv-x="520" />
<glyph unicode=" "  horiz-adv-x="520" />
<glyph unicode="&#x09;" horiz-adv-x="520" />
<glyph unicode="&#xa0;" horiz-adv-x="520" />
<glyph unicode="!" horiz-adv-x="528" d="M150 88q0 47 34.5 81t81.5 34t81 -34t34 -81t-34 -81t-81 -34t-81.5 34t-34.5 81zM180 1434h170l-14 -1074h-141z" />
<glyph unicode="&#x22;" horiz-adv-x="610" d="M98 1434h144l-13 -406h-118zM369 1434h143l-12 -406h-121z" />
<glyph unicode="#" horiz-adv-x="1327" d="M61 393l27 133h238l80 379h-236l25 133h239l82 396h146l-80 -396h295l81 396h146l-80 -396h240l-25 -133h-244l-77 -379h241l-26 -133h-244l-82 -393h-145l79 393h-297l-82 -393h-145l82 393h-238zM473 526h297l80 379h-297z" />
<glyph unicode="$" horiz-adv-x="1036" d="M70 289l141 61q78 -223 313 -223q116 0 188 63.5t72 174.5q0 72 -37 128t-96 93t-130.5 70t-143.5 70t-131 83t-96 118.5t-37 166.5q0 143 93 243t253 117v115h125v-113q75 -10 137.5 -40.5t103 -72.5t65 -80.5t38.5 -76.5l-140 -58q-11 24 -25 46.5t-38 48t-52 44 t-68 30.5t-85 12q-114 0 -177.5 -61t-63.5 -154q0 -52 23 -95.5t62 -75t89.5 -59.5t106.5 -54t111.5 -54t106 -64t89.5 -79t62 -104t23 -134q0 -158 -99.5 -269t-268.5 -129v-153h-125v153q-85 8 -154.5 39.5t-115 77.5t-74 94t-45.5 101z" />
<glyph unicode="%" horiz-adv-x="1550" d="M82 1145q0 132 89.5 223.5t223.5 91.5q140 0 232 -91t92 -224q0 -130 -92.5 -220.5t-229.5 -90.5q-135 0 -225 90t-90 221zM145 0l1092 1434h168l-1094 -1434h-166zM219 1145q0 -78 51 -131t129 -53q81 0 131 53t50 131q0 79 -51.5 133.5t-131.5 54.5q-78 0 -128 -54.5 t-50 -133.5zM829 285q0 132 90.5 223.5t225.5 91.5q138 0 229.5 -91.5t91.5 -223.5q0 -131 -91.5 -221.5t-227.5 -90.5t-227 90t-91 222zM967 285q0 -79 51 -133t129 -54q81 0 130.5 53.5t49.5 133.5t-50 133t-132 53q-78 0 -128 -53.5t-50 -132.5z" />
<glyph unicode="&#x26;" horiz-adv-x="1284" d="M76 397q0 242 252 387q-73 75 -114.5 148.5t-41.5 169.5q0 70 26 134t74 114t123.5 80t167.5 30q185 0 292.5 -99t107.5 -261q0 -127 -81.5 -224t-240.5 -186l340 -328q41 75 54.5 144t13.5 178h155q0 -137 -22 -237.5t-84 -198.5l149 -150l-117 -112l-139 147 q-73 -73 -181 -116.5t-237 -43.5q-227 0 -362 121t-135 303zM238 406q0 -131 96.5 -208t238.5 -77q92 0 174.5 35.5t135.5 89.5l-449 432q-85 -37 -140.5 -107t-55.5 -165zM326 1096q0 -46 16 -89t50 -83.5t64.5 -70t80.5 -71.5q272 138 272 314q0 99 -67.5 163t-176.5 64 q-105 0 -172 -64t-67 -163z" />
<glyph unicode="'" horiz-adv-x="342" d="M98 1434h144l-13 -406h-118z" />
<glyph unicode="(" horiz-adv-x="612" d="M137 37v1196q0 330 332 330v-142q-170 0 -170 -180v-1212q0 -83 40.5 -132t129.5 -49v-141q-161 0 -246.5 82t-85.5 248z" />
<glyph unicode=")" horiz-adv-x="612" d="M143 -152q89 0 129.5 49t40.5 132v1212q0 180 -170 180v142q332 0 332 -330v-1196q0 -166 -85.5 -248t-246.5 -82v141z" />
<glyph unicode="*" horiz-adv-x="876" d="M102 958l213 123l-213 125l64 105l207 -123v246h127v-248l209 125l61 -103l-213 -125l215 -122l-63 -105l-209 123v-244h-127v244l-207 -123z" />
<glyph unicode="+" horiz-adv-x="1126" d="M82 569v138h407v436h148v-436h407v-138h-407v-438h-148v438h-407z" />
<glyph unicode="," horiz-adv-x="434" d="M100 88q0 47 33 81t80 34q52 0 86.5 -33.5t34.5 -89.5q0 -188 -158 -328l-76 74q32 25 63 66.5t38 82.5q-45 6 -73 39t-28 74z" />
<glyph unicode="-" horiz-adv-x="692" d="M84 541v151h522v-151h-522z" />
<glyph unicode="." horiz-adv-x="436" d="M100 88q0 47 35 81t82 34t81 -34t34 -81t-34 -81t-81 -34t-82 34t-35 81z" />
<glyph unicode="/" horiz-adv-x="872" d="M51 -221l621 1757h149l-620 -1757h-150z" />
<glyph unicode="0" horiz-adv-x="1134" d="M104 717q0 146 13.5 258.5t46.5 206t85.5 153.5t132 92.5t185.5 32.5t185.5 -32.5t132 -92.5t85.5 -153.5t46.5 -206t13.5 -258.5t-13.5 -258.5t-46.5 -206t-85.5 -153.5t-132 -93t-185.5 -33t-185.5 33t-132 93t-85.5 153.5t-46.5 206t-13.5 258.5zM272 717 q0 -81 2 -139.5t9 -124t20 -110.5t35 -88.5t52.5 -69t75 -41t101.5 -15.5t101.5 15.5t75 41.5t52 69.5t34 88t19.5 110.5t9 124t2 139t-2 139t-9 124t-19.5 110.5t-34 88t-52 69.5t-75 41.5t-101.5 15.5t-101.5 -16t-75 -41.5t-52.5 -69.5t-35 -89t-20 -110t-9 -123.5 t-2 -138.5z" />
<glyph unicode="1" horiz-adv-x="636" d="M82 1335l248 99h135v-1434h-166v1266l-166 -68z" />
<glyph unicode="2" horiz-adv-x="1044" d="M90 0v61q0 81 37.5 160.5t97.5 146.5t132.5 133.5t145 132t132.5 130t97.5 139t37.5 148.5q0 112 -69.5 183t-190.5 71q-209 0 -268 -222l-146 41q8 40 24.5 81t50.5 88t79 83t114 60t150 24q199 0 312.5 -114t113.5 -291q0 -87 -35.5 -171t-92.5 -152.5t-125.5 -134 t-138.5 -124t-128.5 -112t-96.5 -109t-42 -105.5h680v-147h-871z" />
<glyph unicode="3" horiz-adv-x="1075" d="M80 287l141 51q68 -211 303 -211q124 0 205.5 81t81.5 206q0 126 -88 203t-248 77h-110v133l378 457h-616v150h803v-156l-375 -438q57 0 115 -14.5t114.5 -47.5t99.5 -81t70 -120t27 -159q0 -190 -130.5 -316.5t-324.5 -126.5q-102 0 -183 28t-132.5 76t-82.5 99t-48 109 z" />
<glyph unicode="4" horiz-adv-x="1146" d="M63 362v125l654 947h176v-924h188v-148h-188v-362h-164v362h-666zM246 510h483v709z" />
<glyph unicode="5" horiz-adv-x="1071" d="M80 287l143 51q28 -95 103 -153t200 -58q132 0 209.5 90.5t77.5 228.5q0 137 -81.5 228.5t-219.5 91.5q-78 0 -132.5 -25t-105.5 -69l-139 24l31 738h731v-152h-582l-20 -442q101 69 240 69q198 0 322 -127t124 -327q0 -207 -124.5 -344.5t-324.5 -137.5q-80 0 -149 19.5 t-117.5 50.5t-87 73t-61.5 84t-37 87z" />
<glyph unicode="6" horiz-adv-x="1118" d="M100 602q0 858 531 858q173 0 323 -102l-75 -127q-104 74 -242 74q-83 0 -148 -32.5t-105 -84.5t-66 -124t-36 -144.5t-10 -151.5q48 68 127.5 115t192.5 47q198 0 312 -129t114 -334q0 -229 -122 -361.5t-331 -132.5q-465 0 -465 629zM268 580q0 -79 6 -139t25 -121.5 t51 -101t88 -64.5t133 -25q128 0 204.5 87.5t76.5 246.5q0 138 -74 226.5t-209 88.5q-101 0 -178 -53t-123 -145z" />
<glyph unicode="7" horiz-adv-x="989" d="M59 1282v152h881v-127l-506 -1307h-176l502 1282h-701z" />
<glyph unicode="8" horiz-adv-x="1124" d="M92 401q0 77 24.5 142.5t64.5 108.5t78 70.5t77 43.5q-32 15 -63.5 41t-63 64.5t-51 92t-19.5 113.5q0 170 119.5 276.5t302.5 106.5q185 0 304.5 -106.5t119.5 -276.5q0 -60 -19.5 -113.5t-51 -92t-63 -64.5t-63.5 -41q39 -16 77 -43.5t78 -70.5t64.5 -108.5 t24.5 -142.5q0 -191 -131.5 -309.5t-339.5 -118.5t-338.5 118.5t-130.5 309.5zM262 401q0 -115 80 -195.5t219 -80.5q140 0 219.5 80.5t79.5 195.5q0 129 -84 205t-215 76q-130 0 -214.5 -76t-84.5 -205zM307 1071q0 -98 72.5 -167.5t181.5 -69.5q111 0 183.5 69.5 t72.5 167.5q0 101 -68 168.5t-188 67.5t-187 -67.5t-67 -168.5z" />
<glyph unicode="9" horiz-adv-x="1118" d="M100 967q0 229 122 361t331 132q465 0 465 -629q0 -858 -531 -858q-172 0 -323 103l76 127q104 -74 241 -74q83 0 148 32.5t105 84.5t66 124t36 144.5t10 151.5q-48 -68 -127.5 -115t-192.5 -47q-198 0 -312 129t-114 334zM266 971q0 -138 74 -227t209 -89 q101 0 178 53.5t123 145.5q0 79 -6 139t-25 121.5t-51 101t-88 64.5t-133 25q-128 0 -204.5 -87.5t-76.5 -246.5z" />
<glyph unicode=":" horiz-adv-x="434" d="M100 88q0 47 35 81t82 34t81 -34t34 -81t-34 -81t-81 -34t-82 34t-35 81zM100 883q0 47 34.5 80.5t82.5 33.5q47 0 81 -33.5t34 -80.5t-34 -82t-81 -35t-82 35t-35 82z" />
<glyph unicode=";" horiz-adv-x="434" d="M100 88q0 47 33 81t80 34q52 0 86.5 -33.5t34.5 -89.5q0 -188 -158 -328l-76 74q89 69 101 149q-45 6 -73 39t-28 74zM100 883q0 47 34.5 80.5t82.5 33.5q47 0 81 -33.5t34 -80.5t-34 -82t-81 -35t-82 35t-35 82z" />
<glyph unicode="&#x3c;" horiz-adv-x="1009" d="M88 573v132l832 378v-151l-662 -291l662 -297v-149z" />
<glyph unicode="=" horiz-adv-x="1126" d="M82 391v137h962v-137h-962zM82 731v135h962v-135h-962z" />
<glyph unicode="&#x3e;" horiz-adv-x="1009" d="M88 195v149l664 297l-664 291v151l834 -378v-132z" />
<glyph unicode="?" horiz-adv-x="956" d="M80 1198q16 45 44.5 87.5t74 83.5t114 66t150.5 25q188 0 299.5 -107.5t111.5 -275.5q0 -68 -20 -127.5t-52.5 -103.5t-71.5 -83.5t-78 -75.5t-71.5 -71t-52.5 -77t-20 -88v-91h-160v97q0 56 19.5 107t51 90.5t69.5 76.5t76.5 74t70 75.5t51 87.5t19.5 103q0 106 -66 173 t-180 67q-171 0 -250 -172zM315 88q0 47 35 81t82 34t81 -34t34 -81t-34 -81t-81 -34t-82 34t-35 81z" />
<glyph unicode="@" horiz-adv-x="1824" d="M84 539q0 177 63 333.5t173 269t267 177.5t337 65q186 0 340.5 -61t257 -166t159 -244.5t56.5 -296.5q0 -240 -88.5 -364.5t-241.5 -124.5q-89 0 -146 43.5t-77 112.5q-12 -21 -32.5 -43.5t-55 -50t-86.5 -45t-111 -17.5q-166 0 -277.5 111.5t-111.5 291.5q0 178 111 291 t274 113q68 0 128 -24.5t87 -48t45 -46.5v107h137v-523q0 -149 125 -149q81 0 131.5 91t50.5 273q0 140 -47 259.5t-133.5 205.5t-214 134.5t-282.5 48.5q-204 0 -364.5 -98t-246.5 -262t-86 -361q0 -203 86 -365.5t243 -255t355 -92.5q215 0 383 94l62 -100 q-72 -49 -191 -84t-254 -35q-169 0 -321 63t-263 172.5t-176 266t-65 334.5zM657 530q0 -124 71.5 -200t180.5 -76q107 0 179.5 74t72.5 207q0 121 -69.5 195.5t-184.5 74.5q-107 0 -178.5 -75t-71.5 -200z" />
<glyph unicode="A" horiz-adv-x="1292" d="M25 0l536 1434h168l537 -1434h-168l-172 465h-561l-172 -465h-168zM416 608h461l-232 643z" />
<glyph unicode="B" horiz-adv-x="1114" d="M162 0v1434h395q202 0 314 -97.5t112 -269.5q0 -105 -49 -186.5t-135 -128.5q106 -38 169.5 -127.5t63.5 -216.5q0 -189 -121.5 -298.5t-310.5 -109.5h-438zM328 145h243q133 0 211 67t78 200q0 134 -79 198t-212 64h-241v-529zM328 813h247q107 0 172.5 66.5t65.5 175.5 q0 107 -62 169t-176 62h-247v-473z" />
<glyph unicode="C" horiz-adv-x="1343" d="M80 717q0 156 56.5 294t152.5 236.5t230 155.5t284 57q144 0 257 -45t187 -104l-53 -148q-26 21 -58.5 41.5t-82.5 45.5t-114.5 40t-131.5 15q-156 0 -283.5 -77t-199.5 -211.5t-72 -299.5q0 -253 156.5 -420.5t402.5 -167.5q224 0 408 154l51 -146q-26 -23 -63.5 -47 t-96 -52.5t-138.5 -46.5t-165 -18q-207 0 -373.5 97t-260 267t-93.5 380z" />
<glyph unicode="D" horiz-adv-x="1304" d="M162 0v1434h295q365 0 566.5 -189.5t201.5 -527.5q0 -351 -201.5 -534t-566.5 -183h-295zM328 147h161q263 0 414.5 147t151.5 423q0 266 -153 416.5t-413 150.5h-161v-1137z" />
<glyph unicode="E" horiz-adv-x="970" d="M162 0v1434h680v-152h-514v-477h448v-150h-448v-505h536v-150h-702z" />
<glyph unicode="F" horiz-adv-x="956" d="M162 0v1434h680v-152h-514v-491h450v-150h-450v-641h-166z" />
<glyph unicode="G" horiz-adv-x="1507" d="M80 715q0 208 93 378.5t259.5 268.5t372.5 98q101 0 190.5 -21t154.5 -56t107 -66t76 -66l-106 -110q-172 164 -418 164q-122 0 -226 -45t-176 -123.5t-112.5 -187.5t-40.5 -234q0 -258 156.5 -423t396.5 -165q84 0 158.5 16t126 42t82.5 47.5t53 43.5v302h-320v145h479 v-518q-117 -119 -259.5 -175.5t-325.5 -56.5q-151 0 -284.5 55t-229.5 152t-151.5 235.5t-55.5 299.5z" />
<glyph unicode="H" horiz-adv-x="1417" d="M162 0v1434h166v-629h762v629h165v-1434h-165v653h-762v-653h-166z" />
<glyph unicode="I" horiz-adv-x="489" d="M162 0v1434h166v-1434h-166z" />
<glyph unicode="J" horiz-adv-x="706" d="M45 8l18 148q68 -19 136 -19q180 0 180 209v1088h166v-1110q0 -163 -86.5 -249.5t-241.5 -86.5q-112 0 -172 20z" />
<glyph unicode="K" horiz-adv-x="1157" d="M162 0v1434h166v-660l571 660h201l-602 -686l626 -748h-202l-594 721v-721h-166z" />
<glyph unicode="L" horiz-adv-x="919" d="M162 0v1434h166v-1284h536v-150h-702z" />
<glyph unicode="M" horiz-adv-x="1775" d="M160 0v1434h213l514 -1106l516 1106h211v-1434h-160v1184l-485 -1053h-164l-486 1053v-1184h-159z" />
<glyph unicode="N" horiz-adv-x="1441" d="M160 0v1434h166l790 -1141v1141h164v-1434h-164l-790 1137v-1137h-166z" />
<glyph unicode="O" horiz-adv-x="1619" d="M78 717q0 208 95.5 378.5t263 267.5t372.5 97q206 0 373.5 -98t262.5 -268.5t95 -376.5q0 -208 -95.5 -378.5t-263.5 -268t-374 -97.5q-205 0 -372 96.5t-262 267t-95 380.5zM250 717q0 -167 73.5 -302t201 -210.5t284.5 -75.5t284.5 75.5t201 210.5t73.5 302 q0 165 -73 300t-201.5 211.5t-284.5 76.5t-284.5 -76.5t-201.5 -211.5t-73 -300z" />
<glyph unicode="P" horiz-adv-x="1040" d="M162 0v1434h393q197 0 312.5 -110.5t115.5 -303.5q0 -192 -118.5 -306t-309.5 -114h-227v-600h-166zM328 748h213q128 0 200 73t72 199q0 124 -72 195t-200 71h-213v-538z" />
<glyph unicode="Q" horiz-adv-x="1619" d="M78 717q0 208 95.5 378.5t263 267.5t372.5 97q206 0 373.5 -98t262.5 -268.5t95 -376.5q0 -140 -45.5 -265.5t-128.5 -222.5l152 -149l-109 -109l-154 150q-191 -148 -448 -148q-205 0 -372 96.5t-262 267t-95 380.5zM250 717q0 -167 73.5 -302t201 -210.5t284.5 -75.5 q195 0 330 104l-160 154l106 111l160 -154q123 148 123 373q0 165 -73 300t-201.5 211.5t-284.5 76.5t-284.5 -76.5t-201.5 -211.5t-73 -300z" />
<glyph unicode="R" horiz-adv-x="1120" d="M162 0v1434h364q218 0 332.5 -104t114.5 -294q0 -133 -65 -237t-185 -142l356 -657h-184l-324 623h-243v-623h-166zM328 768h198q273 0 273 266q0 252 -283 252h-188v-518z" />
<glyph unicode="S" horiz-adv-x="1036" d="M70 289l141 61q78 -223 313 -223q116 0 188 63.5t72 174.5q0 72 -37 128t-96 93t-130.5 70t-143.5 70t-131 83t-96 118.5t-37 166.5q0 158 111.5 262t297.5 104q73 0 137 -19.5t107 -49t77.5 -68t53.5 -71.5t31 -66l-140 -58q-11 24 -25 46.5t-38 48t-52 44t-68 30.5 t-85 12q-114 0 -177.5 -61t-63.5 -154q0 -52 23 -95.5t62 -75t89.5 -59.5t106.5 -54t111.5 -54t106 -64t89.5 -79t62 -104t23 -134q0 -173 -118.5 -287.5t-315.5 -114.5q-80 0 -149 20t-116.5 51.5t-85.5 74.5t-60 84t-37 86z" />
<glyph unicode="T" horiz-adv-x="1046" d="M43 1282v152h938v-152h-385v-1282h-166v1282h-387z" />
<glyph unicode="U" horiz-adv-x="1376" d="M154 514v920h165v-918q0 -182 95 -285.5t274 -103.5t275 104t96 287v916h164v-918q0 -247 -142 -395t-393 -148q-254 0 -394 146t-140 395z" />
<glyph unicode="V" horiz-adv-x="1304" d="M18 1434h183l450 -1237l453 1237h182l-545 -1434h-178z" />
<glyph unicode="W" horiz-adv-x="1931" d="M23 1434h178l329 -1223l353 1223h164l352 -1223l332 1223h176l-408 -1434h-186l-348 1190l-349 -1190h-184z" />
<glyph unicode="X" horiz-adv-x="1234" d="M27 0l487 741l-453 693h199l356 -566l359 566h194l-452 -693l489 -741h-188l-406 616l-399 -616h-186z" />
<glyph unicode="Y" horiz-adv-x="1089" d="M18 1434h191l336 -605l342 605h184l-444 -762v-672h-164v672z" />
<glyph unicode="Z" horiz-adv-x="1216" d="M72 0v121l843 1163h-817v150h1032v-123l-845 -1161h850v-150h-1063z" />
<glyph unicode="[" horiz-adv-x="612" d="M137 -293v1856h332v-142h-170v-1573h170v-141h-332z" />
<glyph unicode="\" horiz-adv-x="872" d="M51 1536h150l620 -1757h-149z" />
<glyph unicode="]" horiz-adv-x="624" d="M143 -152h170v1573h-170v142h332v-1856h-332v141z" />
<glyph unicode="^" horiz-adv-x="1071" d="M92 651l373 783h139l375 -783h-162l-282 619l-283 -619h-160z" />
<glyph unicode="_" horiz-adv-x="1241" d="M68 -59h1106v-136h-1106v136z" />
<glyph unicode="`" horiz-adv-x="1001" d="M340 1485h176l148 -291h-144z" />
<glyph unicode="a" horiz-adv-x="1044" d="M70 328q0 153 114.5 251.5t294.5 98.5q94 0 169 -29t112 -67v131q0 111 -69 173t-189 62q-159 0 -314 -92l-65 119q187 117 393 117q209 0 307.5 -105t98.5 -285v-702h-140l-18 90q-102 -117 -289 -117q-175 0 -290 100t-115 255zM233 330q0 -94 74 -157.5t195 -63.5 q117 0 190.5 62t73.5 159q0 100 -73 159.5t-193 59.5t-193.5 -62t-73.5 -157z" />
<glyph unicode="b" horiz-adv-x="1253" d="M139 0v1481h162v-588q16 26 43 55t72.5 64t114.5 57.5t147 22.5q225 0 366.5 -157.5t141.5 -404.5q0 -244 -146.5 -400.5t-373.5 -156.5q-65 0 -124.5 17.5t-98 39.5t-73 53.5t-48.5 48.5t-27 36v-168h-156zM295 528q0 -112 43 -204.5t126.5 -148.5t190.5 -56 q157 0 261 113t104 296q0 182 -102 299t-259 117q-156 0 -260 -112t-104 -304z" />
<glyph unicode="c" horiz-adv-x="1048" d="M68 532q0 155 71 283.5t196 202.5t277 74q129 0 223 -45t152 -101l-55 -139q-28 29 -65 56t-107 53t-144 26q-166 0 -273 -117.5t-107 -292.5q0 -173 111 -292t274 -119q176 0 317 141l49 -137q-20 -21 -50 -43.5t-76.5 -49t-111.5 -43t-135 -16.5q-156 0 -281 73.5 t-195 201.5t-70 284z" />
<glyph unicode="d" horiz-adv-x="1253" d="M68 530q0 247 140.5 404.5t366.5 157.5q77 0 146 -22.5t114 -57t73 -64t42 -55.5v588h164v-1481h-158v168q-135 -195 -368 -195q-229 0 -374.5 156t-145.5 401zM233 528q0 -183 103.5 -296t259.5 -113q108 0 191 56t126 148.5t43 204.5q0 192 -103.5 304t-258.5 112 q-157 0 -259 -117t-102 -299z" />
<glyph unicode="e" horiz-adv-x="1157" d="M70 528q0 125 41 231.5t111 178.5t164 113t200 41q232 0 369 -151t137 -394q0 -29 -2 -49h-854q1 -176 107 -278.5t275 -102.5q214 0 332 166l107 -78q-24 -41 -60.5 -79t-90 -74t-129 -57.5t-161.5 -21.5q-243 0 -394.5 154.5t-151.5 400.5zM244 618h682 q-7 159 -104 246.5t-236 87.5q-134 0 -233.5 -93.5t-108.5 -240.5z" />
<glyph unicode="f" horiz-adv-x="602" d="M53 928v137h119v55q0 97 27.5 168t75.5 110.5t105.5 58t125.5 18.5l67 -5v-141q-26 4 -51 4q-186 0 -186 -213v-55h227v-137h-227v-928h-164v928h-119z" />
<glyph unicode="g" horiz-adv-x="1243" d="M68 530q0 246 143.5 404t368.5 158q77 0 145.5 -22t114 -57t72.5 -64t44 -56v172h156v-918q0 -147 -39.5 -253.5t-113 -168t-167.5 -90t-214 -28.5q-100 0 -204 30.5t-177 75.5l57 127q28 -17 67 -34.5t111.5 -35.5t142.5 -18q79 0 144.5 17.5t118.5 54t82.5 100.5 t29.5 150v94q-11 -18 -25.5 -36t-48 -49t-71.5 -53.5t-97.5 -39.5t-125.5 -17q-228 0 -371 156t-143 401zM231 530q0 -183 104 -296t261 -113q161 0 260.5 117t99.5 292q0 189 -103.5 301.5t-260.5 112.5q-156 0 -258.5 -116t-102.5 -298z" />
<glyph unicode="h" horiz-adv-x="1122" d="M139 0v1481h162v-570q41 76 126 128.5t189 52.5q180 0 278.5 -118.5t98.5 -307.5v-666h-162v672q0 125 -70.5 198.5t-180.5 73.5q-123 0 -201 -82.5t-78 -214.5v-647h-162z" />
<glyph unicode="i" d="M109 1339q0 46 32 78.5t78 32.5q47 0 80 -32.5t33 -78.5q0 -47 -33 -79.5t-80 -32.5q-46 0 -78 32.5t-32 79.5zM139 0v1065h162v-1065h-162z" />
<glyph unicode="j" d="M-86 -248q27 -2 45 -2q90 0 135 53t45 166v1096h162v-1100q0 -98 -25.5 -169t-72.5 -111t-104.5 -58t-129.5 -18l-55 4v139zM109 1339q0 46 32 78.5t78 32.5q47 0 80 -32.5t33 -78.5q0 -47 -33 -79.5t-80 -32.5q-46 0 -78 32.5t-32 79.5z" />
<glyph unicode="k" horiz-adv-x="978" d="M139 0v1481h162v-873l434 457h205l-459 -477l486 -588h-209l-457 567v-567h-162z" />
<glyph unicode="l" d="M139 0v1481h162v-1481h-162z" />
<glyph unicode="m" horiz-adv-x="1759" d="M139 0v1065h160v-154q33 74 115 127.5t186 53.5q117 0 200.5 -52.5t121.5 -142.5q47 94 137 144.5t205 50.5q174 0 269 -111t95 -291v-690h-162v641q0 303 -239 303q-116 0 -189 -80t-73 -225v-639h-162v672q0 127 -65.5 199.5t-178.5 72.5q-108 0 -183 -83.5t-75 -215.5 v-645h-162z" />
<glyph unicode="n" horiz-adv-x="1122" d="M139 0v1065h160v-154q41 77 126.5 129t190.5 52q180 0 277.5 -118.5t97.5 -307.5v-666h-162v672q0 125 -70 198.5t-181 73.5q-123 0 -200 -82.5t-77 -214.5v-647h-162z" />
<glyph unicode="o" horiz-adv-x="1247" d="M68 532q0 241 159.5 400.5t397.5 159.5q240 0 397.5 -160t157.5 -400q0 -239 -159 -399t-398 -160q-158 0 -284.5 71.5t-198.5 199.5t-72 288zM233 532q0 -180 110 -295.5t280 -115.5q171 0 282 116t111 295q0 178 -111 295t-282 117q-170 0 -280 -118t-110 -294z" />
<glyph unicode="p" horiz-adv-x="1255" d="M139 -383v1448h156v-168q13 19 27 36t48.5 48.5t73 53.5t98 39.5t124.5 17.5q227 0 373.5 -156.5t146.5 -400.5q0 -248 -141.5 -405t-366.5 -157q-78 0 -147 22.5t-114.5 57.5t-72.5 64t-43 55v-555h-162zM295 535q0 -191 104 -302.5t260 -111.5q157 0 259 116t102 298 q0 184 -104 296.5t-261 112.5q-107 0 -190.5 -56t-126.5 -148.5t-43 -204.5z" />
<glyph unicode="q" horiz-adv-x="1255" d="M70 535q0 245 145.5 401t374.5 156q233 0 368 -195v168h156v-1448h-162v555q-14 -26 -41.5 -55.5t-73 -64t-114 -57t-145.5 -22.5q-226 0 -367 157t-141 405zM233 535q0 -182 102.5 -298t258.5 -116t260 111.5t104 302.5q0 112 -43 204.5t-126 148.5t-191 56 q-157 0 -261 -112.5t-104 -296.5z" />
<glyph unicode="r" horiz-adv-x="657" d="M139 0v1065h160v-178q30 85 115.5 145t201.5 60v-162q-315 0 -315 -420v-510h-162z" />
<glyph unicode="s" horiz-adv-x="854" d="M59 201l113 73q87 -163 266 -163q83 0 140 45.5t57 124.5q0 44 -23 78.5t-60.5 56t-85.5 43.5t-98.5 40t-98.5 45.5t-85.5 59.5t-60.5 83.5t-23 115.5q0 132 97 210.5t245 78.5q71 0 131 -20.5t99 -53t63.5 -65.5t36.5 -66l-119 -68q-70 137 -221 137q-76 0 -126 -40 t-50 -107q0 -43 23 -76t61 -54t86 -42t98.5 -38.5t98.5 -45t86 -60t61 -85.5t23 -119q0 -140 -103 -228t-260 -88q-264 0 -371 228z" />
<glyph unicode="t" horiz-adv-x="604" d="M27 928v137h125v223h161v-223h234v-137h-234v-549q0 -144 44 -195t153 -51l45 2v-143q-43 -6 -98 -6q-305 0 -305 379v563h-125z" />
<glyph unicode="u" horiz-adv-x="1112" d="M129 399v666h162v-672q0 -125 71 -198.5t181 -73.5q123 0 199.5 82.5t76.5 214.5v647h164v-1065h-162v154q-39 -76 -125 -128.5t-190 -52.5q-180 0 -278.5 118.5t-98.5 307.5z" />
<glyph unicode="v" horiz-adv-x="1026" d="M12 1065h174l328 -883l326 883h172l-410 -1065h-178z" />
<glyph unicode="w" horiz-adv-x="1671" d="M14 1065h176l279 -877q3 7 287 877h159l285 -877l281 877h176l-361 -1065h-178l-282 846l-285 -846h-178z" />
<glyph unicode="x" horiz-adv-x="1032" d="M23 0l397 551l-369 514h191l274 -399l275 399h190l-369 -514l398 -551h-187l-307 430l-309 -430h-184z" />
<glyph unicode="y" horiz-adv-x="1040" d="M12 1065h176l338 -856l328 856h172l-571 -1432h-162l153 377z" />
<glyph unicode="z" horiz-adv-x="946" d="M66 0v115l610 811h-592v139h782v-117l-608 -811h619v-137h-811z" />
<glyph unicode="{" horiz-adv-x="698" d="M74 561v148q75 0 112 53.5t37 177.5v293q0 330 332 330v-142q-170 0 -170 -180v-338q0 -68 -16 -121.5t-40.5 -82.5t-44 -43.5t-36.5 -20.5q17 -6 36.5 -20.5t44 -43.5t40.5 -82.5t16 -121.5v-338q0 -181 170 -181v-141q-332 0 -332 330v293q0 123 -37.5 177t-111.5 54z " />
<glyph unicode="|" horiz-adv-x="516" d="M180 -422v2026h156v-2026h-156z" />
<glyph unicode="}" horiz-adv-x="698" d="M143 -152q170 0 170 181v338q0 68 16 121.5t40.5 82.5t44.5 43.5t37 20.5q-17 6 -37 20.5t-44.5 43.5t-40.5 82.5t-16 121.5v338q0 180 -170 180v142q332 0 332 -330v-293q0 -123 37.5 -177t112.5 -54v-148q-74 0 -112 -54t-38 -177v-293q0 -330 -332 -330v141z" />
<glyph unicode="~" horiz-adv-x="1097" d="M92 481q0 125 69.5 206t190.5 81q55 0 113.5 -22t99.5 -48.5t90 -48.5t86 -22q62 0 94.5 40.5t34.5 100.5h136q0 -118 -68.5 -202.5t-189.5 -84.5q-44 0 -87 14.5t-78.5 35.5t-70 42t-75.5 35.5t-81 14.5q-63 0 -95.5 -40.5t-35.5 -101.5h-133z" />
<glyph unicode="&#xa1;" horiz-adv-x="528" d="M150 1032q0 47 33.5 81t80.5 34t82 -34t35 -81t-34.5 -80.5t-82.5 -33.5q-47 0 -80.5 33.5t-33.5 80.5zM180 -313l15 1073h141l14 -1073h-170z" />
<glyph unicode="&#xa2;" horiz-adv-x="1060" d="M70 690q0 222 138 379.5t349 177.5v187h127v-189q105 -11 183.5 -54t119.5 -87l-53 -139q-48 50 -129 93.5t-187 43.5q-165 0 -272.5 -118t-107.5 -292t110.5 -293.5t274.5 -119.5q181 0 315 141l51 -137q-25 -27 -59.5 -53t-103 -56.5t-142.5 -38.5v-135h-127v135 q-215 20 -351 176t-136 379z" />
<glyph unicode="&#xa3;" horiz-adv-x="1136" d="M80 0v147h137v498h-119v137h119v265q0 185 112 299t302 114q83 0 152.5 -25.5t114 -66.5t72 -83.5t40.5 -86.5l-133 -59q-25 66 -86.5 116t-157.5 50q-122 0 -186 -71.5t-64 -195.5v-256h344v-137h-344v-498h657v-147h-960z" />
<glyph unicode="&#xa5;" horiz-adv-x="1126" d="M37 1434h190l336 -605l342 605h185l-375 -641h256v-123h-326v-185h326v-120h-326v-365h-164v365h-325v120h325v185h-325v123h256z" />
<glyph unicode="&#xa7;" horiz-adv-x="976" d="M72 592q0 97 51.5 171t134.5 107q-152 120 -152 289q0 151 106 246.5t282 95.5q90 0 163 -26t118 -68t72 -82t42 -82l-133 -55q-73 164 -262 164q-107 0 -164.5 -52t-57.5 -143q0 -73 43.5 -126.5t126.5 -102.5l228 -133q233 -142 233 -322q0 -98 -51.5 -172t-134.5 -108 q151 -119 151 -289q0 -151 -105.5 -245.5t-281.5 -94.5q-73 0 -135 18t-103.5 44.5t-75 62.5t-51.5 67t-30 64l133 55q74 -162 262 -162q107 0 164 51.5t57 141.5q0 73 -43.5 126.5t-126.5 102.5l-288 176q-73 43 -122.5 113.5t-49.5 167.5zM225 594q0 -54 26 -95t66 -65 l254 -147q76 3 127.5 55.5t51.5 126.5q0 63 -40 111t-114 90l-193 106q-76 -3 -127 -55.5t-51 -126.5z" />
<glyph unicode="&#xa8;" horiz-adv-x="1001" d="M229 1337q0 42 30.5 72.5t72.5 30.5q43 0 72.5 -30.5t29.5 -72.5q0 -43 -29 -72.5t-73 -29.5q-43 0 -73 29.5t-30 72.5zM565 1337q0 42 29.5 72.5t73.5 30.5q42 0 72 -30.5t30 -72.5q0 -43 -29.5 -72.5t-72.5 -29.5q-44 0 -73.5 29.5t-29.5 72.5z" />
<glyph unicode="&#xa9;" horiz-adv-x="1646" d="M88 713q0 153 55.5 291t151.5 238t232 159t290 59q158 0 296.5 -58.5t235 -158.5t152 -238t55.5 -292t-55 -291t-151 -236.5t-233.5 -157t-295.5 -57.5q-209 0 -377.5 98.5t-262 268t-93.5 375.5zM219 713q0 -176 76 -318.5t214 -224.5t312 -82q176 0 314.5 82t214 224.5 t75.5 320.5q0 176 -75.5 318.5t-215.5 225t-317 82.5q-172 0 -309 -82.5t-213 -226t-76 -319.5zM451 711q0 170 103.5 283.5t274.5 113.5q107 0 184.5 -44.5t121.5 -102.5l-91 -84q-86 104 -215 104q-115 0 -177 -74.5t-62 -193.5t62 -194t177 -75q128 0 215 105l91 -82 q-43 -59 -121 -104.5t-185 -45.5q-171 0 -274.5 112t-103.5 282z" />
<glyph unicode="&#xaa;" horiz-adv-x="835" d="M90 885q0 117 86.5 191.5t224.5 74.5q64 0 118.5 -19.5t86.5 -46.5v84q0 82 -51 127t-137 45q-115 0 -238 -69l-53 98q141 90 303 90q157 0 231 -80.5t74 -218.5v-528h-110l-15 61q-76 -80 -213 -80q-134 0 -220.5 76t-86.5 195zM219 887q0 -69 55 -115.5t144 -46.5 q85 0 139.5 45t54.5 117q0 70 -54 113.5t-140 43.5q-89 0 -144 -45t-55 -112z" />
<glyph unicode="&#xab;" horiz-adv-x="876" d="M70 598l254 377h157l-254 -377l254 -375h-157zM393 598l256 377h158l-256 -377l256 -375h-158z" />
<glyph unicode="&#xad;" horiz-adv-x="692" d="M84 541v151h522v-151h-522z" />
<glyph unicode="&#xae;" horiz-adv-x="925" d="M39 1102q0 177 116.5 297.5t301.5 120.5q192 0 309 -119t117 -297q0 -114 -50.5 -208.5t-148 -152t-223.5 -57.5q-189 0 -305.5 119t-116.5 297zM133 1102q0 -143 89 -236.5t239 -93.5q152 0 239.5 92t87.5 240q0 147 -88.5 237.5t-242.5 90.5q-148 0 -236 -92.5 t-88 -237.5zM319 881v442h154q72 0 112 -36.5t40 -98.5q0 -43 -19 -73.5t-49 -43.5l84 -190h-100l-68 168h-57v-168h-97zM416 1133h57q24 0 37.5 14.5t13.5 38.5q0 25 -14 39t-37 14h-57v-106z" />
<glyph unicode="&#xaf;" horiz-adv-x="923" d="M213 1288v129h496v-129h-496z" />
<glyph unicode="&#xb0;" horiz-adv-x="729" d="M63 1163q0 124 84.5 210.5t214.5 86.5q131 0 216.5 -85.5t85.5 -209.5q0 -126 -84.5 -211.5t-217.5 -85.5t-216 85t-83 210zM193 1163q0 -75 46.5 -124.5t122.5 -49.5q77 0 123.5 50t46.5 126q0 75 -46.5 124.5t-123.5 49.5q-75 0 -122 -50.5t-47 -125.5z" />
<glyph unicode="&#xb2;" horiz-adv-x="700" d="M94 1266q27 75 88.5 129.5t163.5 54.5q118 0 189 -67.5t71 -174.5q0 -53 -26 -101t-65 -82.5t-85.5 -71t-86.5 -67t-68 -70t-31 -79.5h374v-114h-522v82q0 58 28 111t70 91.5t90.5 78t90.5 71.5t70 71t28 78q0 53 -35.5 88t-95.5 35q-97 0 -141 -106z" />
<glyph unicode="&#xb3;" horiz-adv-x="698" d="M80 791l104 45q50 -111 162 -111q63 0 103 36t40 103q0 69 -42.5 106.5t-124.5 37.5h-76v100l192 209h-321v117h481v-99l-213 -231q100 -2 170 -67t70 -175q0 -119 -78.5 -187.5t-198.5 -68.5q-56 0 -102 16t-78 44t-53 58.5t-35 66.5z" />
<glyph unicode="&#xb4;" horiz-adv-x="1001" d="M338 1194l145 291h179l-183 -291h-141z" />
<glyph unicode="&#xb6;" horiz-adv-x="1034" d="M86 1055q0 158 110.5 268.5t268.5 110.5h145v-1526h-139v766q-162 1 -273.5 111.5t-111.5 269.5zM743 -92v1526h142v-1526h-142z" />
<glyph unicode="&#xb7;" horiz-adv-x="462" d="M115 643q0 47 33.5 81t80.5 34t82 -34t35 -81t-35 -82t-82 -35t-80.5 34.5t-33.5 82.5z" />
<glyph unicode="&#xb8;" horiz-adv-x="923" d="M299 -451l18 105q33 -6 62 -6q115 0 115 84q0 40 -31.5 62t-85.5 22l-39 -4l29 208h102l-16 -116q76 -7 119.5 -55t43.5 -119q0 -96 -66 -143.5t-165 -47.5q-56 0 -86 10z" />
<glyph unicode="&#xb9;" horiz-adv-x="520" d="M94 1372l162 62h106v-811h-131v680l-102 -41z" />
<glyph unicode="&#xba;" horiz-adv-x="958" d="M55 1034q0 184 120.5 305t303.5 121q181 0 299.5 -120.5t118.5 -303.5q0 -181 -120 -301.5t-300 -120.5q-183 0 -302.5 119t-119.5 301zM188 1034q0 -131 81 -217t208 -86q125 0 206 87t81 218t-81 217t-206 86q-127 0 -208 -87t-81 -218z" />
<glyph unicode="&#xbb;" horiz-adv-x="876" d="M70 223l256 375l-256 377h157l256 -377l-256 -375h-157zM395 223l254 375l-254 377h158l254 -377l-254 -375h-158z" />
<glyph unicode="&#xbc;" horiz-adv-x="1615" d="M154 1372l159 62h109v-811h-133v680l-101 -41zM336 -84l797 1602h149l-797 -1602h-149zM920 162v100l387 549h133v-532h104v-117h-104v-162h-131v162h-389zM1057 279h252v364q-250 -364 -252 -364z" />
<glyph unicode="&#xbd;" horiz-adv-x="1636" d="M154 1372l159 62h109v-811h-133v680l-101 -41zM295 -84l799 1602h149l-799 -1602h-149zM997 643q27 75 88.5 129.5t163.5 54.5q119 0 189.5 -67t70.5 -174q0 -53 -26 -101t-65 -82.5t-85.5 -71t-86.5 -67t-68 -70t-31 -79.5h375v-115h-523v82q0 68 39 129.5t94.5 107 t110.5 87t94 87.5t39 91q0 53 -35.5 88t-95.5 35q-96 0 -141 -107z" />
<glyph unicode="&#xbe;" horiz-adv-x="1728" d="M111 791l104 45q50 -111 162 -111q63 0 103 36t40 103q0 68 -43 106t-125 38h-76v100l193 209h-322v117h482v-99l-213 -231q100 -2 169.5 -67t69.5 -175q0 -119 -78 -187.5t-198 -68.5q-56 0 -102 16t-78 44t-53 58.5t-35 66.5zM449 -84l798 1602h150l-799 -1602h-149z M999 162v100l387 549h134v-532h104v-117h-104v-162h-131v162h-390zM1137 279h252v364q-250 -364 -252 -364z" />
<glyph unicode="&#xbf;" horiz-adv-x="956" d="M80 41q0 68 20 127.5t52.5 103.5t71.5 84t78 75.5t71.5 70.5t52.5 77.5t20 88.5v90h160v-96q0 -56 -19.5 -107t-51 -90.5t-69.5 -77t-76 -74.5t-69.5 -75.5t-51 -87.5t-19.5 -103q0 -106 66 -173t180 -67q173 0 252 173l126 -60q-13 -36 -32.5 -69.5t-52 -69t-73 -61.5 t-99 -43t-125.5 -17q-189 0 -300.5 107t-111.5 274zM410 1030q0 48 33.5 82.5t80.5 34.5t81 -35t34 -82t-34 -81t-81 -34t-80.5 34t-33.5 81z" />
<glyph unicode="&#xc0;" horiz-adv-x="1292" d="M25 0l536 1434h168l537 -1434h-168l-172 465h-561l-172 -465h-168zM393 1815h176l148 -291h-144zM416 608h461l-232 643z" />
<glyph unicode="&#xc1;" horiz-adv-x="1292" d="M25 0l536 1434h168l537 -1434h-168l-172 465h-561l-172 -465h-168zM416 608h461l-232 643zM565 1524l146 291h178l-182 -291h-142z" />
<glyph unicode="&#xc2;" horiz-adv-x="1292" d="M25 0l536 1434h168l537 -1434h-168l-172 465h-561l-172 -465h-168zM367 1534l192 266h172l193 -266h-152l-127 168l-125 -168h-153zM416 608h461l-232 643z" />
<glyph unicode="&#xc3;" horiz-adv-x="1292" d="M25 0l536 1434h168l537 -1434h-168l-172 465h-561l-172 -465h-168zM326 1554q0 97 53.5 156t138.5 59q44 0 92.5 -22.5t91 -45t72.5 -22.5q34 0 55.5 24.5t22.5 65.5h115q0 -98 -52 -157.5t-137 -59.5q-45 0 -92.5 23t-90 46.5t-75.5 23.5q-34 0 -55.5 -25t-22.5 -66 h-116zM416 608h461l-232 643z" />
<glyph unicode="&#xc4;" horiz-adv-x="1292" d="M25 0l536 1434h168l537 -1434h-168l-172 465h-561l-172 -465h-168zM379 1663q0 42 30 72t72 30q44 0 73.5 -30t29.5 -72q0 -43 -29.5 -72.5t-73.5 -29.5q-43 0 -72.5 29.5t-29.5 72.5zM416 608h461l-232 643zM715 1663q0 42 29 72t73 30q43 0 73 -30.5t30 -71.5 q0 -43 -30 -72.5t-73 -29.5q-44 0 -73 29.5t-29 72.5z" />
<glyph unicode="&#xc5;" horiz-adv-x="1292" d="M25 0l536 1434h168l537 -1434h-168l-172 465h-561l-172 -465h-168zM416 608h461l-232 643zM461 1694q0 78 52 128t130 50q83 0 134.5 -49.5t51.5 -126.5q0 -78 -52 -129t-132 -51q-79 0 -131.5 50.5t-52.5 127.5zM561 1694q0 -38 23 -62t61 -24q39 0 61.5 24t22.5 64 q0 38 -23 61t-63 23q-37 0 -59.5 -24t-22.5 -62z" />
<glyph unicode="&#xc6;" horiz-adv-x="1660" d="M16 0l732 1434h784v-152h-514v-477h448v-150h-448v-505h534v-150h-700v465h-428l-227 -465h-181zM494 608h358v674h-31z" />
<glyph unicode="&#xc7;" horiz-adv-x="1343" d="M80 717q0 156 56.5 294t152.5 236.5t230 155.5t284 57q144 0 257 -45t187 -104l-53 -148q-26 21 -58.5 41.5t-82.5 45.5t-114.5 40t-131.5 15q-156 0 -283.5 -77t-199.5 -211.5t-72 -299.5q0 -253 156.5 -420.5t402.5 -167.5q224 0 408 154l51 -146q-26 -23 -63.5 -47 t-96 -52.5t-138.5 -46.5t-165 -18l-33 2l-8 -71q76 -7 120 -55t44 -119q0 -96 -66 -143.5t-166 -47.5q-56 0 -86 10l19 105q32 -6 61 -6q115 0 115 84q0 40 -31.5 62t-85.5 22l-39 -4l23 174q-263 43 -428.5 245.5t-165.5 485.5z" />
<glyph unicode="&#xc8;" horiz-adv-x="970" d="M162 0v1434h680v-152h-514v-477h448v-150h-448v-505h536v-150h-702zM297 1815h176l148 -291h-144z" />
<glyph unicode="&#xc9;" horiz-adv-x="970" d="M162 0v1434h680v-152h-514v-477h448v-150h-448v-505h536v-150h-702zM418 1524l145 291h178l-182 -291h-141z" />
<glyph unicode="&#xca;" horiz-adv-x="970" d="M162 0v1434h680v-152h-514v-477h448v-150h-448v-505h536v-150h-702zM236 1534l192 266h172l193 -266h-152l-127 168l-125 -168h-153z" />
<glyph unicode="&#xcb;" horiz-adv-x="970" d="M162 0v1434h680v-152h-514v-477h448v-150h-448v-505h536v-150h-702zM256 1663q0 42 30 72t72 30q44 0 73.5 -30t29.5 -72q0 -43 -29.5 -72.5t-73.5 -29.5q-43 0 -72.5 29.5t-29.5 72.5zM592 1663q0 42 29 72t73 30q42 0 72.5 -30.5t30.5 -71.5q0 -43 -30 -72.5t-73 -29.5 q-44 0 -73 29.5t-29 72.5z" />
<glyph unicode="&#xcc;" horiz-adv-x="489" d="M12 1815h176l148 -291h-143zM162 0v1434h166v-1434h-166z" />
<glyph unicode="&#xcd;" horiz-adv-x="489" d="M156 1524l145 291h178l-182 -291h-141zM162 0v1434h166v-1434h-166z" />
<glyph unicode="&#xce;" horiz-adv-x="489" d="M-27 1534l193 266h172l192 -266h-151l-127 168l-125 -168h-154zM162 0v1434h166v-1434h-166z" />
<glyph unicode="&#xcf;" horiz-adv-x="489" d="M-16 1663q0 42 30 72t72 30q44 0 73 -30t29 -72q0 -43 -29 -72.5t-73 -29.5q-43 0 -72.5 29.5t-29.5 72.5zM162 0v1434h166v-1434h-166zM319 1663q0 42 29.5 72t73.5 30q42 0 72 -30t30 -72q0 -43 -29.5 -72.5t-72.5 -29.5q-44 0 -73.5 29.5t-29.5 72.5z" />
<glyph unicode="&#xd0;" horiz-adv-x="1310" d="M49 651v148h119v635h297q364 0 566 -189.5t202 -527.5q0 -351 -202 -534t-566 -183h-297v651h-119zM334 147h164q263 0 413 147t150 423q0 266 -151.5 416.5t-411.5 150.5h-164v-485h297v-148h-297v-504z" />
<glyph unicode="&#xd1;" horiz-adv-x="1441" d="M160 0v1434h166l790 -1141v1141h164v-1434h-164l-790 1137v-1137h-166zM406 1554q0 97 53.5 156t138.5 59q44 0 92.5 -22.5t91 -45t72.5 -22.5q34 0 55.5 24.5t22.5 65.5h115q0 -98 -52 -157.5t-137 -59.5q-45 0 -92.5 23t-90 46.5t-75.5 23.5q-34 0 -55.5 -25t-22.5 -66 h-116z" />
<glyph unicode="&#xd2;" horiz-adv-x="1619" d="M78 717q0 208 95.5 378.5t263 267.5t372.5 97q206 0 373.5 -98t262.5 -268.5t95 -376.5q0 -208 -95.5 -378.5t-263.5 -268t-374 -97.5q-205 0 -372 96.5t-262 267t-95 380.5zM250 717q0 -167 73.5 -302t201 -210.5t284.5 -75.5t284.5 75.5t201 210.5t73.5 302 q0 165 -73 300t-201.5 211.5t-284.5 76.5t-284.5 -76.5t-201.5 -211.5t-73 -300zM569 1815h176l148 -291h-143z" />
<glyph unicode="&#xd3;" horiz-adv-x="1619" d="M78 717q0 208 95.5 378.5t263 267.5t372.5 97q206 0 373.5 -98t262.5 -268.5t95 -376.5q0 -208 -95.5 -378.5t-263.5 -268t-374 -97.5q-205 0 -372 96.5t-262 267t-95 380.5zM250 717q0 -167 73.5 -302t201 -210.5t284.5 -75.5t284.5 75.5t201 210.5t73.5 302 q0 165 -73 300t-201.5 211.5t-284.5 76.5t-284.5 -76.5t-201.5 -211.5t-73 -300zM707 1524l145 291h178l-182 -291h-141z" />
<glyph unicode="&#xd4;" horiz-adv-x="1619" d="M78 717q0 208 95.5 378.5t263 267.5t372.5 97q206 0 373.5 -98t262.5 -268.5t95 -376.5q0 -208 -95.5 -378.5t-263.5 -268t-374 -97.5q-205 0 -372 96.5t-262 267t-95 380.5zM250 717q0 -167 73.5 -302t201 -210.5t284.5 -75.5t284.5 75.5t201 210.5t73.5 302 q0 165 -73 300t-201.5 211.5t-284.5 76.5t-284.5 -76.5t-201.5 -211.5t-73 -300zM528 1534l193 266h172l192 -266h-151l-127 168l-125 -168h-154z" />
<glyph unicode="&#xd5;" horiz-adv-x="1619" d="M78 717q0 208 95.5 378.5t263 267.5t372.5 97q206 0 373.5 -98t262.5 -268.5t95 -376.5q0 -208 -95.5 -378.5t-263.5 -268t-374 -97.5q-205 0 -372 96.5t-262 267t-95 380.5zM250 717q0 -167 73.5 -302t201 -210.5t284.5 -75.5t284.5 75.5t201 210.5t73.5 302 q0 165 -73 300t-201.5 211.5t-284.5 76.5t-284.5 -76.5t-201.5 -211.5t-73 -300zM494 1554q0 97 53.5 156t138.5 59q44 0 92.5 -22.5t91 -45t72.5 -22.5q34 0 55.5 24.5t22.5 65.5h115q0 -98 -52 -157.5t-137 -59.5q-45 0 -92.5 23t-90 46.5t-75.5 23.5q-34 0 -55.5 -25 t-22.5 -66h-116z" />
<glyph unicode="&#xd6;" horiz-adv-x="1619" d="M78 717q0 208 95.5 378.5t263 267.5t372.5 97q206 0 373.5 -98t262.5 -268.5t95 -376.5q0 -208 -95.5 -378.5t-263.5 -268t-374 -97.5q-205 0 -372 96.5t-262 267t-95 380.5zM250 717q0 -167 73.5 -302t201 -210.5t284.5 -75.5t284.5 75.5t201 210.5t73.5 302 q0 165 -73 300t-201.5 211.5t-284.5 76.5t-284.5 -76.5t-201.5 -211.5t-73 -300zM543 1663q0 42 30 72t72 30q44 0 73.5 -30t29.5 -72q0 -43 -29.5 -72.5t-73.5 -29.5q-43 0 -72.5 29.5t-29.5 72.5zM879 1663q0 42 29 72t73 30q42 0 72 -30t30 -72q0 -43 -29.5 -72.5 t-72.5 -29.5q-44 0 -73 29.5t-29 72.5z" />
<glyph unicode="&#xd7;" horiz-adv-x="1087" d="M96 254l350 377l-350 379l97 98l350 -377l350 377l94 -96l-352 -379l354 -381l-96 -96l-352 379l-348 -377z" />
<glyph unicode="&#xd8;" horiz-adv-x="1619" d="M80 717q0 208 95.5 378.5t263 267.5t372.5 97q223 0 403 -121l107 134l102 -82l-104 -134q106 -101 164.5 -240.5t58.5 -299.5q0 -208 -95.5 -378.5t-263.5 -268t-374 -97.5q-228 0 -408 119l-104 -133l-102 82l104 133q-104 101 -161.5 241t-57.5 302zM252 717 q0 -246 154 -410l708 905q-137 93 -303 93q-239 0 -399 -168t-160 -420zM502 219q134 -90 309 -90q156 0 284 75.5t201.5 210.5t73.5 302q0 240 -156 409z" />
<glyph unicode="&#xd9;" horiz-adv-x="1376" d="M154 514v920h165v-918q0 -182 95 -285.5t274 -103.5t275 104t96 287v916h164v-918q0 -247 -142 -395t-393 -148q-254 0 -394 146t-140 395zM469 1815h176l148 -291h-144z" />
<glyph unicode="&#xda;" horiz-adv-x="1376" d="M154 514v920h165v-918q0 -182 95 -285.5t274 -103.5t275 104t96 287v916h164v-918q0 -247 -142 -395t-393 -148q-254 0 -394 146t-140 395zM592 1524l145 291h178l-182 -291h-141z" />
<glyph unicode="&#xdb;" horiz-adv-x="1376" d="M154 514v920h165v-918q0 -182 95 -285.5t274 -103.5t275 104t96 287v916h164v-918q0 -247 -142 -395t-393 -148q-254 0 -394 146t-140 395zM410 1534l192 266h172l193 -266h-152l-127 168l-125 -168h-153z" />
<glyph unicode="&#xdc;" horiz-adv-x="1376" d="M154 514v920h165v-918q0 -182 95 -285.5t274 -103.5t275 104t96 287v916h164v-918q0 -247 -142 -395t-393 -148q-254 0 -394 146t-140 395zM422 1663q0 42 30 72t72 30q44 0 73.5 -30t29.5 -72q0 -43 -29.5 -72.5t-73.5 -29.5q-43 0 -72.5 29.5t-29.5 72.5zM758 1663 q0 42 29 72t73 30q42 0 72.5 -30.5t30.5 -71.5q0 -43 -30 -72.5t-73 -29.5q-44 0 -73 29.5t-29 72.5z" />
<glyph unicode="&#xdd;" horiz-adv-x="1089" d="M18 1434h191l336 -605l342 605h184l-444 -762v-672h-164v672zM459 1524l145 291h178l-182 -291h-141z" />
<glyph unicode="&#xde;" horiz-adv-x="1050" d="M162 0v1434h166v-281h235q197 0 312.5 -109.5t115.5 -302.5q0 -192 -119 -305.5t-309 -113.5h-235v-322h-166zM328 467h221q127 0 199.5 73.5t72.5 198.5t-72 196t-200 71h-221v-539z" />
<glyph unicode="&#xdf;" horiz-adv-x="1101" d="M135 0v1120q0 180 102.5 267.5t278.5 87.5q167 0 267 -88.5t100 -212.5q0 -103 -45 -168.5t-117 -98.5q140 -40 229.5 -151t89.5 -269q0 -123 -42.5 -217.5t-118.5 -152.5t-175.5 -87.5t-218.5 -29.5v143q55 0 107.5 10.5t104.5 36t90.5 63.5t62.5 98t24 134 q0 81 -33.5 147t-89 106t-124 61.5t-142.5 21.5v142q93 0 163.5 48.5t70.5 139.5q0 82 -55.5 130t-147.5 48q-217 0 -217 -237v-1092h-164z" />
<glyph unicode="&#xe0;" horiz-adv-x="1044" d="M70 328q0 153 114.5 251.5t294.5 98.5q94 0 169 -29t112 -67v131q0 111 -69 173t-189 62q-159 0 -314 -92l-65 119q187 117 393 117q209 0 307.5 -105t98.5 -285v-702h-140l-18 90q-102 -117 -289 -117q-175 0 -290 100t-115 255zM233 330q0 -94 74 -157.5t195 -63.5 q117 0 190.5 62t73.5 159q0 100 -73 159.5t-193 59.5t-193.5 -62t-73.5 -157zM299 1485h176l148 -291h-144z" />
<glyph unicode="&#xe1;" horiz-adv-x="1044" d="M70 328q0 153 114.5 251.5t294.5 98.5q94 0 169 -29t112 -67v131q0 111 -69 173t-189 62q-159 0 -314 -92l-65 119q187 117 393 117q209 0 307.5 -105t98.5 -285v-702h-140l-18 90q-102 -117 -289 -117q-175 0 -290 100t-115 255zM233 330q0 -94 74 -157.5t195 -63.5 q117 0 190.5 62t73.5 159q0 100 -73 159.5t-193 59.5t-193.5 -62t-73.5 -157zM424 1194l145 291h179l-183 -291h-141z" />
<glyph unicode="&#xe2;" horiz-adv-x="1044" d="M70 328q0 153 114.5 251.5t294.5 98.5q94 0 169 -29t112 -67v131q0 111 -69 173t-189 62q-159 0 -314 -92l-65 119q187 117 393 117q209 0 307.5 -105t98.5 -285v-702h-140l-18 90q-102 -117 -289 -117q-175 0 -290 100t-115 255zM233 330q0 -94 74 -157.5t195 -63.5 q117 0 190.5 62t73.5 159q0 100 -73 159.5t-193 59.5t-193.5 -62t-73.5 -157zM242 1217l192 266h172l193 -266h-152l-127 167l-125 -167h-153z" />
<glyph unicode="&#xe3;" horiz-adv-x="1044" d="M70 328q0 153 114.5 251.5t294.5 98.5q94 0 169 -29t112 -67v131q0 111 -69 173t-189 62q-159 0 -314 -92l-65 119q187 117 393 117q209 0 307.5 -105t98.5 -285v-702h-140l-18 90q-102 -117 -289 -117q-175 0 -290 100t-115 255zM197 1233q0 97 53.5 156t138.5 59 q44 0 92.5 -22.5t91 -45t72.5 -22.5q34 0 55.5 24.5t22.5 65.5h115q0 -98 -52 -157.5t-137 -59.5q-45 0 -92.5 23t-90 46t-75.5 23q-34 0 -55.5 -24.5t-22.5 -65.5h-116zM233 330q0 -94 74 -157.5t195 -63.5q117 0 190.5 62t73.5 159q0 100 -73 159.5t-193 59.5t-193.5 -62 t-73.5 -157z" />
<glyph unicode="&#xe4;" horiz-adv-x="1044" d="M70 328q0 153 114.5 251.5t294.5 98.5q94 0 169 -29t112 -67v131q0 111 -69 173t-189 62q-159 0 -314 -92l-65 119q187 117 393 117q209 0 307.5 -105t98.5 -285v-702h-140l-18 90q-102 -117 -289 -117q-175 0 -290 100t-115 255zM233 330q0 -94 74 -157.5t195 -63.5 q117 0 190.5 62t73.5 159q0 100 -73 159.5t-193 59.5t-193.5 -62t-73.5 -157zM262 1337q0 42 30.5 72.5t72.5 30.5q43 0 72.5 -30.5t29.5 -72.5q0 -43 -29 -72.5t-73 -29.5q-43 0 -73 29.5t-30 72.5zM598 1337q0 42 29.5 72.5t72.5 30.5q42 0 72.5 -30.5t30.5 -72.5 q0 -43 -30 -72.5t-73 -29.5q-44 0 -73 29.5t-29 72.5z" />
<glyph unicode="&#xe5;" horiz-adv-x="1044" d="M70 328q0 153 114.5 251.5t294.5 98.5q94 0 169 -29t112 -67v131q0 111 -69 173t-189 62q-159 0 -314 -92l-65 119q187 117 393 117q209 0 307.5 -105t98.5 -285v-702h-140l-18 90q-102 -117 -289 -117q-175 0 -290 100t-115 255zM233 330q0 -94 74 -157.5t195 -63.5 q117 0 190.5 62t73.5 159q0 100 -73 159.5t-193 59.5t-193.5 -62t-73.5 -157zM340 1360q0 78 52 128t130 50q83 0 135 -49.5t52 -126.5q0 -78 -52.5 -129t-132.5 -51q-79 0 -131.5 50.5t-52.5 127.5zM440 1360q0 -38 23 -62t61 -24q39 0 61.5 24t22.5 64q0 38 -23 61t-63 23 q-37 0 -59.5 -24t-22.5 -62z" />
<glyph unicode="&#xe6;" horiz-adv-x="1841" d="M70 328q0 153 114.5 251.5t294.5 98.5q94 0 169 -29t112 -67v131q0 111 -69 173t-189 62q-159 0 -314 -92l-65 119q187 117 393 117q142 0 231.5 -55t126.5 -152q68 98 171.5 152.5t224.5 54.5q232 0 369 -151t137 -394v-49h-854q1 -176 107 -278.5t274 -102.5 q213 0 331 166l107 -78q-24 -42 -60 -79.5t-89 -73.5t-128 -57.5t-161 -21.5q-150 0 -267.5 59t-181.5 169q-38 -95 -134.5 -161.5t-244.5 -66.5q-175 0 -290 100t-115 255zM233 330q0 -94 74 -157.5t195 -63.5q116 0 188 62t72 159q0 100 -71 159.5t-191 59.5t-193.5 -62 t-73.5 -157zM928 618h682q-7 159 -104 246.5t-236 87.5q-135 0 -232 -89t-110 -245z" />
<glyph unicode="&#xe7;" horiz-adv-x="1048" d="M68 532q0 155 71 283.5t196 202.5t277 74q129 0 223 -45t152 -101l-55 -139q-28 29 -65 56t-107 53t-144 26q-166 0 -273 -117.5t-107 -292.5q0 -173 111 -292t274 -119q176 0 317 141l49 -137q-20 -21 -50 -43.5t-77 -49t-112.5 -43t-135.5 -16.5l-10 -69q76 -7 120 -55 t44 -119q0 -96 -66 -143.5t-165 -47.5q-56 0 -86 10l18 105q32 -6 61 -6q115 0 115 84q0 40 -31.5 62t-85.5 22l-39 -4l23 172q-197 34 -319.5 185.5t-122.5 362.5z" />
<glyph unicode="&#xe8;" horiz-adv-x="1157" d="M70 528q0 125 41 231.5t111 178.5t164 113t200 41q232 0 369 -151t137 -394q0 -29 -2 -49h-854q1 -176 107 -278.5t275 -102.5q214 0 332 166l107 -78q-24 -41 -60.5 -79t-90 -74t-129 -57.5t-161.5 -21.5q-243 0 -394.5 154.5t-151.5 400.5zM244 618h682 q-7 159 -104 246.5t-236 87.5q-134 0 -233.5 -93.5t-108.5 -240.5zM365 1485h176l147 -291h-143z" />
<glyph unicode="&#xe9;" horiz-adv-x="1157" d="M70 528q0 125 41 231.5t111 178.5t164 113t200 41q232 0 369 -151t137 -394q0 -29 -2 -49h-854q1 -176 107 -278.5t275 -102.5q214 0 332 166l107 -78q-24 -41 -60.5 -79t-90 -74t-129 -57.5t-161.5 -21.5q-243 0 -394.5 154.5t-151.5 400.5zM244 618h682 q-7 159 -104 246.5t-236 87.5q-134 0 -233.5 -93.5t-108.5 -240.5zM483 1194l146 291h178l-182 -291h-142z" />
<glyph unicode="&#xea;" horiz-adv-x="1157" d="M70 528q0 125 41 231.5t111 178.5t164 113t200 41q232 0 369 -151t137 -394q0 -29 -2 -49h-854q1 -176 107 -278.5t275 -102.5q214 0 332 166l107 -78q-24 -41 -60.5 -79t-90 -74t-129 -57.5t-161.5 -21.5q-243 0 -394.5 154.5t-151.5 400.5zM244 618h682 q-7 159 -104 246.5t-236 87.5q-134 0 -233.5 -93.5t-108.5 -240.5zM309 1217l193 266h172l192 -266h-151l-127 167l-125 -167h-154z" />
<glyph unicode="&#xeb;" horiz-adv-x="1157" d="M70 528q0 125 41 231.5t111 178.5t164 113t200 41q232 0 369 -151t137 -394q0 -29 -2 -49h-854q1 -176 107 -278.5t275 -102.5q214 0 332 166l107 -78q-24 -41 -60.5 -79t-90 -74t-129 -57.5t-161.5 -21.5q-243 0 -394.5 154.5t-151.5 400.5zM244 618h682 q-7 159 -104 246.5t-236 87.5q-134 0 -233.5 -93.5t-108.5 -240.5zM322 1337q0 42 30 72.5t72 30.5q43 0 72.5 -30.5t29.5 -72.5q0 -43 -29 -72.5t-73 -29.5q-43 0 -72.5 29.5t-29.5 72.5zM657 1337q0 42 29.5 72.5t73.5 30.5q42 0 72 -30.5t30 -72.5q0 -43 -29.5 -72.5 t-72.5 -29.5q-44 0 -73.5 29.5t-29.5 72.5z" />
<glyph unicode="&#xec;" d="M-12 1485h176l147 -291h-143zM139 0v1065h162v-1065h-162z" />
<glyph unicode="&#xed;" d="M127 1194l145 291h179l-183 -291h-141zM139 0v1065h162v-1065h-162z" />
<glyph unicode="&#xee;" d="M-53 1217l192 266h172l193 -266h-152l-127 167l-125 -167h-153zM139 0v1065h162v-1065h-162z" />
<glyph unicode="&#xef;" d="M-47 1337q0 42 30 72.5t72 30.5q44 0 73.5 -30.5t29.5 -72.5q0 -43 -29.5 -72.5t-73.5 -29.5q-43 0 -72.5 29.5t-29.5 72.5zM139 0v1065h162v-1065h-162zM289 1337q0 42 29.5 72.5t72.5 30.5q42 0 72.5 -30.5t30.5 -72.5q0 -43 -30 -72.5t-73 -29.5q-44 0 -73 29.5 t-29 72.5z" />
<glyph unicode="&#xf0;" horiz-adv-x="1210" d="M72 508q0 147 66 265.5t187 186.5t275 68q68 0 126.5 -19t94.5 -44q-43 65 -109.5 130.5t-117.5 98.5l-330 -129l-18 119l239 96q-102 71 -223 135l105 80q135 -60 278 -158l252 99l21 -119l-168 -68q380 -305 380 -700q0 -96 -21.5 -181.5t-65.5 -158t-107 -125 t-150.5 -82t-191.5 -29.5q-153 0 -273 72t-184.5 193.5t-64.5 269.5zM238 508q0 -164 99 -276.5t259 -112.5q120 0 205 57.5t124.5 149t39.5 206.5q0 149 -101 254t-256 105q-171 0 -270.5 -110t-99.5 -273z" />
<glyph unicode="&#xf1;" horiz-adv-x="1122" d="M139 0v1065h160v-154q41 77 126.5 129t190.5 52q180 0 277.5 -118.5t97.5 -307.5v-666h-162v672q0 125 -70 198.5t-181 73.5q-123 0 -200 -82.5t-77 -214.5v-647h-162zM244 1233q0 97 53.5 156t138.5 59q44 0 92.5 -22.5t91 -45t72.5 -22.5q34 0 55.5 24.5t22.5 65.5h115 q0 -98 -52 -157.5t-137 -59.5q-45 0 -92.5 23t-90 46t-75.5 23q-34 0 -55.5 -24.5t-22.5 -65.5h-116z" />
<glyph unicode="&#xf2;" horiz-adv-x="1247" d="M68 532q0 241 159.5 400.5t397.5 159.5q240 0 397.5 -160t157.5 -400q0 -239 -159 -399t-398 -160q-158 0 -284.5 71.5t-198.5 199.5t-72 288zM233 532q0 -180 110 -295.5t280 -115.5q171 0 282 116t111 295q0 178 -111 295t-282 117q-170 0 -280 -118t-110 -294z M377 1485h176l147 -291h-143z" />
<glyph unicode="&#xf3;" horiz-adv-x="1247" d="M68 532q0 241 159.5 400.5t397.5 159.5q240 0 397.5 -160t157.5 -400q0 -239 -159 -399t-398 -160q-158 0 -284.5 71.5t-198.5 199.5t-72 288zM233 532q0 -180 110 -295.5t280 -115.5q171 0 282 116t111 295q0 178 -111 295t-282 117q-170 0 -280 -118t-110 -294z M522 1194l146 291h178l-182 -291h-142z" />
<glyph unicode="&#xf4;" horiz-adv-x="1247" d="M68 532q0 241 159.5 400.5t397.5 159.5q240 0 397.5 -160t157.5 -400q0 -239 -159 -399t-398 -160q-158 0 -284.5 71.5t-198.5 199.5t-72 288zM233 532q0 -180 110 -295.5t280 -115.5q171 0 282 116t111 295q0 178 -111 295t-282 117q-170 0 -280 -118t-110 -294z M350 1217l193 266h172l192 -266h-151l-127 167l-125 -167h-154z" />
<glyph unicode="&#xf5;" horiz-adv-x="1247" d="M68 532q0 241 159.5 400.5t397.5 159.5q240 0 397.5 -160t157.5 -400q0 -239 -159 -399t-398 -160q-158 0 -284.5 71.5t-198.5 199.5t-72 288zM233 532q0 -180 110 -295.5t280 -115.5q171 0 282 116t111 295q0 178 -111 295t-282 117q-170 0 -280 -118t-110 -294z M309 1233q0 97 53.5 156t139.5 59q44 0 92.5 -22.5t91 -45t72.5 -22.5q34 0 55.5 24.5t22.5 65.5h114q0 -98 -51.5 -157.5t-136.5 -59.5q-45 0 -92.5 23t-90 46t-75.5 23q-34 0 -55.5 -24.5t-22.5 -65.5h-117z" />
<glyph unicode="&#xf6;" horiz-adv-x="1247" d="M68 532q0 241 159.5 400.5t397.5 159.5q240 0 397.5 -160t157.5 -400q0 -239 -159 -399t-398 -160q-158 0 -284.5 71.5t-198.5 199.5t-72 288zM233 532q0 -180 110 -295.5t280 -115.5q171 0 282 116t111 295q0 178 -111 295t-282 117q-170 0 -280 -118t-110 -294z M360 1337q0 42 30.5 72.5t72.5 30.5q43 0 72.5 -30.5t29.5 -72.5q0 -43 -29 -72.5t-73 -29.5q-43 0 -73 29.5t-30 72.5zM696 1337q0 42 29.5 72.5t73.5 30.5q42 0 72 -30.5t30 -72.5q0 -43 -29.5 -72.5t-72.5 -29.5q-44 0 -73.5 29.5t-29.5 72.5z" />
<glyph unicode="&#xf7;" horiz-adv-x="1126" d="M82 569v138h962v-138h-962zM459 281q0 43 30.5 73.5t73.5 30.5t73 -30.5t30 -73.5q0 -42 -30.5 -72.5t-72.5 -30.5q-43 0 -73.5 31t-30.5 72zM459 993q0 43 30.5 74t73.5 31t73 -31t30 -74t-30 -72.5t-73 -29.5t-73.5 29.5t-30.5 72.5z" />
<glyph unicode="&#xf8;" horiz-adv-x="1249" d="M68 532q0 241 159.5 400.5t397.5 159.5q169 0 303 -86l78 100l94 -76l-78 -98q158 -158 158 -400q0 -239 -159 -399t-398 -160q-164 0 -291 76l-78 -98l-94 74l76 96q-168 162 -168 411zM233 532q0 -172 103 -284l495 637q-94 59 -208 59q-170 0 -280 -118t-110 -294z M428 172q80 -51 195 -51q171 0 282 116t111 295q0 156 -94 271z" />
<glyph unicode="&#xf9;" horiz-adv-x="1112" d="M129 399v666h162v-672q0 -125 71 -198.5t181 -73.5q123 0 199.5 82.5t76.5 214.5v647h164v-1065h-162v154q-39 -76 -125 -128.5t-190 -52.5q-180 0 -278.5 118.5t-98.5 307.5zM348 1485h176l148 -291h-144z" />
<glyph unicode="&#xfa;" horiz-adv-x="1112" d="M129 399v666h162v-672q0 -125 71 -198.5t181 -73.5q123 0 199.5 82.5t76.5 214.5v647h164v-1065h-162v154q-39 -76 -125 -128.5t-190 -52.5q-180 0 -278.5 118.5t-98.5 307.5zM461 1194l145 291h178l-182 -291h-141z" />
<glyph unicode="&#xfb;" horiz-adv-x="1112" d="M129 399v666h162v-672q0 -125 71 -198.5t181 -73.5q123 0 199.5 82.5t76.5 214.5v647h164v-1065h-162v154q-39 -76 -125 -128.5t-190 -52.5q-180 0 -278.5 118.5t-98.5 307.5zM281 1217l192 266h172l193 -266h-152l-127 167l-125 -167h-153z" />
<glyph unicode="&#xfc;" horiz-adv-x="1112" d="M129 399v666h162v-672q0 -125 71 -198.5t181 -73.5q123 0 199.5 82.5t76.5 214.5v647h164v-1065h-162v154q-39 -76 -125 -128.5t-190 -52.5q-180 0 -278.5 118.5t-98.5 307.5zM297 1337q0 42 30 72.5t72 30.5q44 0 73.5 -30.5t29.5 -72.5q0 -43 -29.5 -72.5t-73.5 -29.5 q-43 0 -72.5 29.5t-29.5 72.5zM633 1337q0 42 29.5 72.5t72.5 30.5q42 0 72.5 -30.5t30.5 -72.5q0 -43 -30 -72.5t-73 -29.5q-44 0 -73 29.5t-29 72.5z" />
<glyph unicode="&#xfd;" horiz-adv-x="1040" d="M12 1065h176l338 -856l328 856h172l-571 -1432h-162l153 377zM430 1194l145 291h179l-183 -291h-141z" />
<glyph unicode="&#xfe;" horiz-adv-x="1255" d="M139 -383v1864h162v-580q144 191 365 191q227 0 373.5 -156.5t146.5 -400.5q0 -248 -141.5 -405t-366.5 -157q-78 0 -147 22.5t-114.5 57.5t-72.5 64t-43 55v-555h-162zM295 535q0 -191 104 -302.5t260 -111.5q157 0 259 116t102 298q0 184 -104 296.5t-261 112.5 q-107 0 -190.5 -56t-126.5 -148.5t-43 -204.5z" />
<glyph unicode="&#xff;" horiz-adv-x="1040" d="M12 1065h176l338 -856l328 856h172l-571 -1432h-162l153 377zM260 1337q0 42 30 72.5t72 30.5q44 0 73.5 -30.5t29.5 -72.5q0 -43 -29.5 -72.5t-73.5 -29.5q-43 0 -72.5 29.5t-29.5 72.5zM596 1337q0 42 29.5 72.5t72.5 30.5q42 0 72.5 -30.5t30.5 -72.5q0 -43 -30 -72.5 t-73 -29.5q-44 0 -73 29.5t-29 72.5z" />
<glyph unicode="&#x100;" horiz-adv-x="1292" d="M25 0l536 1434h168l537 -1434h-168l-172 465h-561l-172 -465h-168zM397 1567v129h496v-129h-496zM416 608h461l-232 643z" />
<glyph unicode="&#x101;" horiz-adv-x="1044" d="M70 328q0 153 114.5 251.5t294.5 98.5q94 0 169 -29t112 -67v131q0 111 -69 173t-189 62q-159 0 -314 -92l-65 119q187 117 393 117q209 0 307.5 -105t98.5 -285v-702h-140l-18 90q-102 -117 -289 -117q-175 0 -290 100t-115 255zM233 330q0 -94 74 -157.5t195 -63.5 q117 0 190.5 62t73.5 159q0 100 -73 159.5t-193 59.5t-193.5 -62t-73.5 -157zM281 1288v129h495v-129h-495z" />
<glyph unicode="&#x102;" horiz-adv-x="1292" d="M25 0l536 1434h168l537 -1434h-168l-172 465h-561l-172 -465h-168zM385 1788h129q0 -65 31.5 -105.5t99.5 -40.5q67 0 99 40.5t32 105.5h129q0 -112 -68 -185t-192 -73t-192 73t-68 185zM416 608h461l-232 643z" />
<glyph unicode="&#x103;" horiz-adv-x="1044" d="M70 328q0 153 114.5 251.5t294.5 98.5q94 0 169 -29t112 -67v131q0 111 -69 173t-189 62q-159 0 -314 -92l-65 119q187 117 393 117q209 0 307.5 -105t98.5 -285v-702h-140l-18 90q-102 -117 -289 -117q-175 0 -290 100t-115 255zM233 330q0 -94 74 -157.5t195 -63.5 q117 0 190.5 62t73.5 159q0 100 -73 159.5t-193 59.5t-193.5 -62t-73.5 -157zM260 1460h129q0 -65 31.5 -105t99.5 -40q67 0 99 40t32 105h129q0 -112 -68 -185t-192 -73t-192 73t-68 185z" />
<glyph unicode="&#x104;" horiz-adv-x="1292" d="M25 0l536 1434h168l537 -1434q-44 -17 -94 -63.5t-50 -106.5q0 -49 36.5 -73.5t88.5 -24.5v-127q-16 -4 -49 -4q-90 0 -156.5 50t-66.5 142q0 70 49.5 126.5t108.5 80.5h-35l-172 465h-561l-172 -465h-168zM416 608h461l-232 643z" />
<glyph unicode="&#x105;" horiz-adv-x="1044" d="M70 328q0 153 114.5 251.5t294.5 98.5q94 0 169 -29t112 -67v131q0 111 -69 173t-189 62q-159 0 -314 -92l-65 119q187 117 393 117q209 0 307.5 -105t98.5 -285v-702q-44 -17 -94 -63.5t-50 -106.5q0 -49 36.5 -73.5t88.5 -24.5v-127q-16 -4 -49 -4q-90 0 -156.5 50 t-66.5 142q0 70 47.5 126.5t105.5 80.5l-20 90q-102 -117 -289 -117q-175 0 -290 100t-115 255zM233 330q0 -94 74 -157.5t195 -63.5q117 0 190.5 62t73.5 159q0 100 -73 159.5t-193 59.5t-193.5 -62t-73.5 -157z" />
<glyph unicode="&#x106;" horiz-adv-x="1343" d="M80 717q0 156 56.5 294t152.5 236.5t230 155.5t284 57q144 0 257 -45t187 -104l-53 -148q-26 21 -58.5 41.5t-82.5 45.5t-114.5 40t-131.5 15q-156 0 -283.5 -77t-199.5 -211.5t-72 -299.5q0 -253 156.5 -420.5t402.5 -167.5q224 0 408 154l51 -146q-26 -23 -63.5 -47 t-96 -52.5t-138.5 -46.5t-165 -18q-207 0 -373.5 97t-260 267t-93.5 380zM666 1524l145 291h178l-182 -291h-141z" />
<glyph unicode="&#x107;" horiz-adv-x="1048" d="M68 532q0 155 71 283.5t196 202.5t277 74q129 0 223 -45t152 -101l-55 -139q-28 29 -65 56t-107 53t-144 26q-166 0 -273 -117.5t-107 -292.5q0 -173 111 -292t274 -119q176 0 317 141l49 -137q-20 -21 -50 -43.5t-76.5 -49t-111.5 -43t-135 -16.5q-156 0 -281 73.5 t-195 201.5t-70 284zM504 1194l145 291h178l-182 -291h-141z" />
<glyph unicode="&#x108;" horiz-adv-x="1343" d="M80 717q0 156 56.5 294t152.5 236.5t230 155.5t284 57q144 0 257 -45t187 -104l-53 -148q-26 21 -58.5 41.5t-82.5 45.5t-114.5 40t-131.5 15q-156 0 -283.5 -77t-199.5 -211.5t-72 -299.5q0 -253 156.5 -420.5t402.5 -167.5q224 0 408 154l51 -146q-26 -23 -63.5 -47 t-96 -52.5t-138.5 -46.5t-165 -18q-207 0 -373.5 97t-260 267t-93.5 380zM528 1534l193 266h172l192 -266h-151l-127 168l-125 -168h-154z" />
<glyph unicode="&#x109;" horiz-adv-x="1048" d="M68 532q0 155 71 283.5t196 202.5t277 74q129 0 223 -45t152 -101l-55 -139q-28 29 -65 56t-107 53t-144 26q-166 0 -273 -117.5t-107 -292.5q0 -173 111 -292t274 -119q176 0 317 141l49 -137q-20 -21 -50 -43.5t-76.5 -49t-111.5 -43t-135 -16.5q-156 0 -281 73.5 t-195 201.5t-70 284zM336 1217l192 266h172l193 -266h-152l-127 167l-125 -167h-153z" />
<glyph unicode="&#x10a;" horiz-adv-x="1343" d="M80 717q0 156 56.5 294t152.5 236.5t230 155.5t284 57q144 0 257 -45t187 -104l-53 -148q-26 21 -58.5 41.5t-82.5 45.5t-114.5 40t-131.5 15q-156 0 -283.5 -77t-199.5 -211.5t-72 -299.5q0 -253 156.5 -420.5t402.5 -167.5q224 0 408 154l51 -146q-26 -23 -63.5 -47 t-96 -52.5t-138.5 -46.5t-165 -18q-207 0 -373.5 97t-260 267t-93.5 380zM696 1659q0 46 32.5 78t78.5 32q47 0 80 -32t33 -78q0 -47 -33 -80t-80 -33q-46 0 -78.5 33t-32.5 80z" />
<glyph unicode="&#x10b;" horiz-adv-x="1048" d="M68 532q0 155 71 283.5t196 202.5t277 74q129 0 223 -45t152 -101l-55 -139q-28 29 -65 56t-107 53t-144 26q-166 0 -273 -117.5t-107 -292.5q0 -173 111 -292t274 -119q176 0 317 141l49 -137q-20 -21 -50 -43.5t-76.5 -49t-111.5 -43t-135 -16.5q-156 0 -281 73.5 t-195 201.5t-70 284zM504 1339q0 46 32 78.5t78 32.5q47 0 80 -32.5t33 -78.5q0 -47 -33 -79.5t-80 -32.5q-46 0 -78 32.5t-32 79.5z" />
<glyph unicode="&#x10c;" horiz-adv-x="1343" d="M80 717q0 156 56.5 294t152.5 236.5t230 155.5t284 57q144 0 257 -45t187 -104l-53 -148q-26 21 -58.5 41.5t-82.5 45.5t-114.5 40t-131.5 15q-156 0 -283.5 -77t-199.5 -211.5t-72 -299.5q0 -253 156.5 -420.5t402.5 -167.5q224 0 408 154l51 -146q-26 -23 -63.5 -47 t-96 -52.5t-138.5 -46.5t-165 -18q-207 0 -373.5 97t-260 267t-93.5 380zM522 1800h154l125 -168l127 168h151l-192 -266h-172z" />
<glyph unicode="&#x10d;" horiz-adv-x="1048" d="M68 532q0 155 71 283.5t196 202.5t277 74q129 0 223 -45t152 -101l-55 -139q-28 29 -65 56t-107 53t-144 26q-166 0 -273 -117.5t-107 -292.5q0 -173 111 -292t274 -119q176 0 317 141l49 -137q-20 -21 -50 -43.5t-76.5 -49t-111.5 -43t-135 -16.5q-156 0 -281 73.5 t-195 201.5t-70 284zM324 1483h153l125 -168l127 168h152l-193 -266h-172z" />
<glyph unicode="&#x10e;" horiz-adv-x="1304" d="M162 0v1434h295q365 0 566.5 -189.5t201.5 -527.5q0 -351 -201.5 -534t-566.5 -183h-295zM279 1800h153l125 -168l127 168h152l-193 -266h-172zM328 147h161q263 0 414.5 147t151.5 423q0 266 -153 416.5t-413 150.5h-161v-1137z" />
<glyph unicode="&#x10f;" horiz-adv-x="1259" d="M68 530q0 247 140.5 404.5t366.5 157.5q77 0 146 -22.5t114 -57t73 -64t42 -55.5v588h164v-1481h-158v168q-135 -195 -368 -195q-229 0 -374.5 156t-145.5 401zM233 528q0 -183 103.5 -296t259.5 -113q108 0 191 56t126 148.5t43 204.5q0 192 -103.5 304t-258.5 112 q-157 0 -259 -117t-102 -299zM1217 1133l14 348h168l-60 -348h-122z" />
<glyph unicode="&#x110;" horiz-adv-x="1304" d="M49 651v148h119v635h297q364 0 566 -189.5t202 -527.5q0 -351 -202 -534t-566 -183h-297v651h-119zM334 147h164q263 0 413 147t150 423q0 266 -151.5 416.5t-411.5 150.5h-164v-485h297v-148h-297v-504z" />
<glyph unicode="&#x111;" horiz-adv-x="1253" d="M68 530q0 247 140.5 404.5t366.5 157.5q77 0 146 -22.5t114 -57t73 -64t42 -55.5v305h-264v121h264v162h164v-162h135v-121h-135v-1198h-158v168q-135 -195 -368 -195q-229 0 -374.5 156t-145.5 401zM233 528q0 -183 103.5 -296t259.5 -113q108 0 191 56t126 148.5 t43 204.5q0 192 -103.5 304t-258.5 112q-157 0 -259 -117t-102 -299z" />
<glyph unicode="&#x112;" horiz-adv-x="970" d="M162 0v1434h680v-152h-514v-477h448v-150h-448v-505h536v-150h-702zM270 1567v129h496v-129h-496z" />
<glyph unicode="&#x113;" horiz-adv-x="1157" d="M70 528q0 125 41 231.5t111 178.5t164 113t200 41q232 0 369 -151t137 -394q0 -29 -2 -49h-854q1 -176 107 -278.5t275 -102.5q214 0 332 166l107 -78q-24 -41 -60.5 -79t-90 -74t-129 -57.5t-161.5 -21.5q-243 0 -394.5 154.5t-151.5 400.5zM244 618h682 q-7 159 -104 246.5t-236 87.5q-134 0 -233.5 -93.5t-108.5 -240.5zM346 1288v129h496v-129h-496z" />
<glyph unicode="&#x114;" horiz-adv-x="970" d="M162 0v1434h680v-152h-514v-477h448v-150h-448v-505h536v-150h-702zM248 1788h129q0 -65 31.5 -105.5t99.5 -40.5q67 0 99 40.5t32 105.5h129q0 -112 -68 -185t-192 -73t-192 73t-68 185z" />
<glyph unicode="&#x115;" horiz-adv-x="1157" d="M70 528q0 125 41 231.5t111 178.5t164 113t200 41q232 0 369 -151t137 -394q0 -29 -2 -49h-854q1 -176 107 -278.5t275 -102.5q214 0 332 166l107 -78q-24 -41 -60.5 -79t-90 -74t-129 -57.5t-161.5 -21.5q-243 0 -394.5 154.5t-151.5 400.5zM244 618h682 q-7 159 -104 246.5t-236 87.5q-134 0 -233.5 -93.5t-108.5 -240.5zM326 1460h129q0 -65 31.5 -105t99.5 -40q67 0 99 40t32 105h129q0 -112 -68 -185t-192 -73t-192 73t-68 185z" />
<glyph unicode="&#x116;" horiz-adv-x="970" d="M162 0v1434h680v-152h-514v-477h448v-150h-448v-505h536v-150h-702zM424 1659q0 46 32.5 78t78.5 32q47 0 79.5 -32t32.5 -78q0 -47 -32.5 -80t-79.5 -33q-46 0 -78.5 33t-32.5 80z" />
<glyph unicode="&#x117;" horiz-adv-x="1157" d="M70 528q0 125 41 231.5t111 178.5t164 113t200 41q232 0 369 -151t137 -394q0 -29 -2 -49h-854q1 -176 107 -278.5t275 -102.5q214 0 332 166l107 -78q-24 -41 -60.5 -79t-90 -74t-129 -57.5t-161.5 -21.5q-243 0 -394.5 154.5t-151.5 400.5zM244 618h682 q-7 159 -104 246.5t-236 87.5q-134 0 -233.5 -93.5t-108.5 -240.5zM481 1339q0 46 32.5 78.5t78.5 32.5q47 0 80 -32.5t33 -78.5q0 -47 -33 -79.5t-80 -32.5q-46 0 -78.5 32.5t-32.5 79.5z" />
<glyph unicode="&#x118;" horiz-adv-x="970" d="M162 0v1434h680v-152h-514v-477h448v-150h-448v-505h536v-150q-44 -17 -93.5 -63.5t-49.5 -106.5q0 -49 36.5 -73.5t88.5 -24.5v-127q-16 -4 -49 -4q-90 0 -157 50t-67 142q0 70 47.5 127t106.5 80h-565z" />
<glyph unicode="&#x119;" horiz-adv-x="1157" d="M70 528q0 125 41 231.5t111 178.5t164 113t200 41q232 0 369 -151t137 -394v-49h-856q1 -176 107 -278.5t275 -102.5q214 0 332 166l107 -78q-37 -63 -103.5 -119t-160.5 -86q-44 -17 -94 -63.5t-50 -106.5q0 -49 36.5 -73.5t88.5 -24.5v-127q-16 -4 -49 -4 q-90 0 -156.5 50t-66.5 142q0 55 29.5 102.5t74.5 77.5q-240 5 -388 158t-148 397zM244 618h682q-7 159 -104 246.5t-236 87.5q-136 0 -233 -89t-109 -245z" />
<glyph unicode="&#x11a;" horiz-adv-x="970" d="M162 0v1434h680v-152h-514v-477h448v-150h-448v-505h536v-150h-702zM254 1800h154l124 -168l127 168h152l-193 -266h-172z" />
<glyph unicode="&#x11b;" horiz-adv-x="1157" d="M70 528q0 125 41 231.5t111 178.5t164 113t200 41q232 0 369 -151t137 -394q0 -29 -2 -49h-854q1 -176 107 -278.5t275 -102.5q214 0 332 166l107 -78q-24 -41 -60.5 -79t-90 -74t-129 -57.5t-161.5 -21.5q-243 0 -394.5 154.5t-151.5 400.5zM244 618h682 q-7 159 -104 246.5t-236 87.5q-134 0 -233.5 -93.5t-108.5 -240.5zM309 1483h154l125 -168l127 168h151l-192 -266h-172z" />
<glyph unicode="&#x11c;" horiz-adv-x="1507" d="M80 715q0 208 93 378.5t259.5 268.5t372.5 98q101 0 190.5 -21t154.5 -56t107 -66t76 -66l-106 -110q-172 164 -418 164q-122 0 -226 -45t-176 -123.5t-112.5 -187.5t-40.5 -234q0 -258 156.5 -423t396.5 -165q84 0 158.5 16t126 42t82.5 47.5t53 43.5v302h-320v145h479 v-518q-117 -119 -259.5 -175.5t-325.5 -56.5q-151 0 -284.5 55t-229.5 152t-151.5 235.5t-55.5 299.5zM532 1534l193 266h172l193 -266h-152l-127 168l-125 -168h-154z" />
<glyph unicode="&#x11d;" horiz-adv-x="1243" d="M68 530q0 246 143.5 404t368.5 158q77 0 145.5 -22t114 -57t72.5 -64t44 -56v172h156v-918q0 -147 -39.5 -253.5t-113 -168t-167.5 -90t-214 -28.5q-100 0 -204 30.5t-177 75.5l57 127q28 -17 67 -34.5t111.5 -35.5t142.5 -18q79 0 144.5 17.5t118.5 54t82.5 100.5 t29.5 150v94q-11 -18 -25.5 -36t-48 -49t-71.5 -53.5t-97.5 -39.5t-125.5 -17q-228 0 -371 156t-143 401zM231 530q0 -183 104 -296t261 -113q161 0 260.5 117t99.5 292q0 189 -103.5 301.5t-260.5 112.5q-156 0 -258.5 -116t-102.5 -298zM340 1217l192 266h173l192 -266 h-152l-127 167l-124 -167h-154z" />
<glyph unicode="&#x11e;" horiz-adv-x="1507" d="M80 715q0 208 93 378.5t259.5 268.5t372.5 98q101 0 190.5 -21t154.5 -56t107 -66t76 -66l-106 -110q-172 164 -418 164q-122 0 -226 -45t-176 -123.5t-112.5 -187.5t-40.5 -234q0 -258 156.5 -423t396.5 -165q84 0 158.5 16t126 42t82.5 47.5t53 43.5v302h-320v145h479 v-518q-117 -119 -259.5 -175.5t-325.5 -56.5q-151 0 -284.5 55t-229.5 152t-151.5 235.5t-55.5 299.5zM537 1788h129q0 -65 31.5 -105.5t99.5 -40.5q67 0 99 40.5t32 105.5h129q0 -112 -68 -185t-192 -73t-192 73t-68 185z" />
<glyph unicode="&#x11f;" horiz-adv-x="1243" d="M68 530q0 246 143.5 404t368.5 158q77 0 145.5 -22t114 -57t72.5 -64t44 -56v172h156v-918q0 -147 -39.5 -253.5t-113 -168t-167.5 -90t-214 -28.5q-100 0 -204 30.5t-177 75.5l57 127q28 -17 67 -34.5t111.5 -35.5t142.5 -18q79 0 144.5 17.5t118.5 54t82.5 100.5 t29.5 150v94q-11 -18 -25.5 -36t-48 -49t-71.5 -53.5t-97.5 -39.5t-125.5 -17q-228 0 -371 156t-143 401zM231 530q0 -183 104 -296t261 -113q161 0 260.5 117t99.5 292q0 189 -103.5 301.5t-260.5 112.5q-156 0 -258.5 -116t-102.5 -298zM358 1460h129q0 -65 31.5 -105 t99.5 -40q67 0 99.5 40t32.5 105h129q0 -112 -68.5 -185t-192.5 -73t-192 73t-68 185z" />
<glyph unicode="&#x120;" horiz-adv-x="1507" d="M80 715q0 208 93 378.5t259.5 268.5t372.5 98q101 0 190.5 -21t154.5 -56t107 -66t76 -66l-106 -110q-172 164 -418 164q-122 0 -226 -45t-176 -123.5t-112.5 -187.5t-40.5 -234q0 -258 156.5 -423t396.5 -165q84 0 158.5 16t126 42t82.5 47.5t53 43.5v302h-320v145h479 v-518q-117 -119 -259.5 -175.5t-325.5 -56.5q-151 0 -284.5 55t-229.5 152t-151.5 235.5t-55.5 299.5zM698 1659q0 46 32.5 78t78.5 32q47 0 80 -32t33 -78q0 -47 -33 -80t-80 -33q-46 0 -78.5 33t-32.5 80z" />
<glyph unicode="&#x121;" horiz-adv-x="1243" d="M68 530q0 246 143.5 404t368.5 158q77 0 145.5 -22t114 -57t72.5 -64t44 -56v172h156v-918q0 -147 -39.5 -253.5t-113 -168t-167.5 -90t-214 -28.5q-100 0 -204 30.5t-177 75.5l57 127q28 -17 67 -34.5t111.5 -35.5t142.5 -18q79 0 144.5 17.5t118.5 54t82.5 100.5 t29.5 150v94q-11 -18 -25.5 -36t-48 -49t-71.5 -53.5t-97.5 -39.5t-125.5 -17q-228 0 -371 156t-143 401zM231 530q0 -183 104 -296t261 -113q161 0 260.5 117t99.5 292q0 189 -103.5 301.5t-260.5 112.5q-156 0 -258.5 -116t-102.5 -298zM508 1339q0 46 32 78.5t78 32.5 q47 0 80 -32.5t33 -78.5q0 -47 -33 -79.5t-80 -32.5q-46 0 -78 32.5t-32 79.5z" />
<glyph unicode="&#x122;" horiz-adv-x="1507" d="M80 715q0 208 93 378.5t259.5 268.5t372.5 98q101 0 190.5 -21t154.5 -56t107 -66t76 -66l-106 -110q-172 164 -418 164q-122 0 -226 -45t-176 -123.5t-112.5 -187.5t-40.5 -234q0 -258 156.5 -423t396.5 -165q84 0 158.5 16t126 42t82.5 47.5t53 43.5v302h-320v145h479 v-518q-117 -119 -259.5 -175.5t-325.5 -56.5q-151 0 -284.5 55t-229.5 152t-151.5 235.5t-55.5 299.5zM711 -176q0 45 30 76.5t74 31.5q51 0 83 -33t32 -87q0 -171 -148 -297l-69 67q29 23 56 60.5t34 76.5q-41 6 -66.5 36.5t-25.5 68.5z" />
<glyph unicode="&#x123;" horiz-adv-x="1243" d="M68 530q0 246 143.5 404t368.5 158q77 0 145.5 -22t114 -57t72.5 -64t44 -56v172h156v-918q0 -147 -39.5 -253.5t-113 -168t-167.5 -90t-214 -28.5q-100 0 -204 30.5t-177 75.5l57 127q28 -17 67 -34.5t111.5 -35.5t142.5 -18q79 0 144.5 17.5t118.5 54t82.5 100.5 t29.5 150v94q-11 -18 -25.5 -36t-48 -49t-71.5 -53.5t-97.5 -39.5t-125.5 -17q-228 0 -371 156t-143 401zM231 530q0 -183 104 -296t261 -113q161 0 260.5 117t99.5 292q0 189 -103.5 301.5t-260.5 112.5q-156 0 -258.5 -116t-102.5 -298zM496 1296q0 172 147 297l70 -67 q-29 -23 -56 -60.5t-34 -76.5q41 -6 66.5 -36.5t25.5 -68.5q0 -45 -30.5 -76.5t-74.5 -31.5q-51 0 -82.5 33t-31.5 87z" />
<glyph unicode="&#x124;" horiz-adv-x="1417" d="M162 0v1434h166v-629h762v629h165v-1434h-165v653h-762v-653h-166zM438 1534l193 266h172l192 -266h-151l-127 168l-125 -168h-154z" />
<glyph unicode="&#x125;" horiz-adv-x="1122" d="M139 0v1481h162v-570q41 76 126 128.5t189 52.5q180 0 278.5 -118.5t98.5 -307.5v-666h-162v672q0 125 -70.5 198.5t-180.5 73.5q-123 0 -201 -82.5t-78 -214.5v-647h-162zM289 1534l192 266h172l193 -266h-152l-127 168l-125 -168h-153z" />
<glyph unicode="&#x126;" horiz-adv-x="1417" d="M37 1055v129h125v250h166v-250h762v250h165v-250h125v-129h-125v-1055h-165v653h-762v-653h-166v1055h-125zM328 805h762v250h-762v-250z" />
<glyph unicode="&#x127;" horiz-adv-x="1122" d="M10 1202v121h129v158h162v-158h264v-121h-264v-291q41 76 126 128.5t189 52.5q180 0 278.5 -118.5t98.5 -307.5v-666h-162v672q0 125 -70.5 198.5t-180.5 73.5q-123 0 -201 -82.5t-78 -214.5v-647h-162v1202h-129z" />
<glyph unicode="&#x128;" horiz-adv-x="489" d="M-74 1554q0 97 53.5 156t139.5 59q44 0 92.5 -22.5t91 -45t72.5 -22.5q34 0 55.5 24.5t22.5 65.5h114q0 -98 -51.5 -157.5t-136.5 -59.5q-45 0 -92.5 23t-90 46.5t-75.5 23.5q-34 0 -55.5 -25t-22.5 -66h-117zM162 0v1434h166v-1434h-166z" />
<glyph unicode="&#x129;" d="M-98 1233q0 97 53.5 156t138.5 59q44 0 92.5 -22.5t91 -45t72.5 -22.5q34 0 55.5 24.5t22.5 65.5h115q0 -98 -52 -157.5t-137 -59.5q-45 0 -92.5 23t-90 46t-75.5 23q-34 0 -55.5 -24.5t-22.5 -65.5h-116zM139 0v1065h162v-1065h-162z" />
<glyph unicode="&#x12a;" horiz-adv-x="489" d="M2 1567v129h496v-129h-496zM162 0v1434h166v-1434h-166z" />
<glyph unicode="&#x12b;" d="M-27 1288v129h496v-129h-496zM139 0v1065h162v-1065h-162z" />
<glyph unicode="&#x12c;" horiz-adv-x="489" d="M-12 1788h129q0 -65 31.5 -105.5t99.5 -40.5q67 0 99 40.5t32 105.5h129q0 -112 -68 -185t-192 -73t-192 73t-68 185zM162 0v1434h166v-1434h-166z" />
<glyph unicode="&#x12d;" d="M-39 1460h129q0 -65 31.5 -105t99.5 -40q67 0 99 40t32 105h129q0 -112 -68 -185t-192 -73t-192 73t-68 185zM139 0v1065h162v-1065h-162z" />
<glyph unicode="&#x12e;" horiz-adv-x="489" d="M37 -207q0 71 47.5 127.5t105.5 79.5h-28v1434h166v-1434q-44 -17 -94 -63.5t-50 -106.5q0 -49 36.5 -73.5t88.5 -24.5v-127q-16 -4 -49 -4q-90 0 -156.5 50t-66.5 142z" />
<glyph unicode="&#x12f;" d="M10 -207q0 70 47.5 127t106.5 80h-25v1065h162v-1065q-44 -17 -93.5 -63.5t-49.5 -106.5q0 -49 36.5 -73.5t88.5 -24.5v-127q-17 -4 -50 -4q-90 0 -156.5 50t-66.5 142zM109 1339q0 46 32 78.5t78 32.5q47 0 80 -32.5t33 -78.5q0 -47 -33 -79.5t-80 -32.5q-46 0 -78 32.5 t-32 79.5z" />
<glyph unicode="&#x130;" horiz-adv-x="489" d="M137 1659q0 46 32.5 78t78.5 32q47 0 79.5 -32t32.5 -78q0 -47 -32.5 -80t-79.5 -33q-46 0 -78.5 33t-32.5 80zM162 0v1434h166v-1434h-166z" />
<glyph unicode="&#x131;" d="M139 0v1065h162v-1065h-162z" />
<glyph unicode="&#x132;" horiz-adv-x="1198" d="M162 0v1434h166v-1434h-166zM535 8l18 148q67 -19 135 -19q180 0 180 209v1088h166v-1110q0 -164 -86 -250t-241 -86q-112 0 -172 20z" />
<glyph unicode="&#x133;" horiz-adv-x="882" d="M109 1339q0 46 32 78.5t78 32.5q47 0 80 -32.5t33 -78.5q0 -47 -33 -79.5t-80 -32.5q-46 0 -78 32.5t-32 79.5zM139 0v1065h162v-1065h-162zM354 -248q27 -2 45 -2q91 0 136 53t45 166v1096h161v-1100q0 -98 -25.5 -169t-72 -111t-104 -58t-129.5 -18l-56 4v139z M549 1339q0 46 32 78.5t78 32.5q47 0 80 -32.5t33 -78.5q0 -47 -33 -79.5t-80 -32.5q-46 0 -78 32.5t-32 79.5z" />
<glyph unicode="&#x134;" horiz-adv-x="706" d="M45 8l18 148q68 -19 136 -19q180 0 180 209v1088h166v-1110q0 -163 -86.5 -249.5t-241.5 -86.5q-112 0 -172 20zM176 1534l193 266h172l192 -266h-151l-127 168l-125 -168h-154z" />
<glyph unicode="&#x135;" d="M-86 -248q27 -2 45 -2q90 0 135 53t45 166v1096h162v-1100q0 -98 -25.5 -169t-72.5 -111t-104.5 -58t-129.5 -18l-55 4v139zM-57 1217l192 266h172l193 -266h-152l-127 167l-125 -167h-153z" />
<glyph unicode="&#x136;" horiz-adv-x="1157" d="M162 0v1434h166v-660l571 660h201l-602 -686l626 -748h-202l-594 721v-721h-166zM506 -176q0 45 30 76.5t74 31.5q51 0 83 -33t32 -87q0 -172 -147 -297l-70 67q29 23 56 60.5t34 76.5q-41 6 -66.5 36.5t-25.5 68.5z" />
<glyph unicode="&#x137;" horiz-adv-x="978" d="M139 0v1481h162v-873l434 457h205l-459 -477l486 -588h-209l-457 567v-567h-162zM414 -176q0 45 30 76.5t74 31.5q51 0 83 -33t32 -87q0 -171 -148 -297l-69 67q29 23 56 60.5t34 76.5q-41 6 -66.5 36.5t-25.5 68.5z" />
<glyph unicode="&#x138;" horiz-adv-x="978" d="M139 0v1065h162v-469l434 469h205l-459 -490l486 -575h-209l-457 555v-555h-162z" />
<glyph unicode="&#x139;" horiz-adv-x="919" d="M162 0v1434h166v-1284h536v-150h-702zM174 1524l145 291h179l-183 -291h-141z" />
<glyph unicode="&#x13a;" d="M139 0v1481h162v-1481h-162zM139 1536l146 291h178l-182 -291h-142z" />
<glyph unicode="&#x13b;" horiz-adv-x="919" d="M162 0v1434h166v-1284h536v-150h-702zM422 -176q0 45 30 76.5t74 31.5q51 0 83 -33t32 -87q0 -172 -147 -297l-70 67q29 23 56 60.5t34 76.5q-41 6 -66.5 36.5t-25.5 68.5z" />
<glyph unicode="&#x13c;" d="M117 -176q0 45 30 76.5t74 31.5q51 0 83 -33t32 -87q0 -171 -148 -297l-69 67q29 23 56 60.5t34 76.5q-41 6 -66.5 36.5t-25.5 68.5zM139 0v1481h162v-1481h-162z" />
<glyph unicode="&#x13d;" horiz-adv-x="931" d="M162 0v1434h166v-1284h536v-150h-702zM578 1085l14 349h168l-60 -349h-122z" />
<glyph unicode="&#x13e;" horiz-adv-x="448" d="M139 0v1481h162v-1481h-162zM377 1133l14 348h168l-59 -348h-123z" />
<glyph unicode="&#x13f;" horiz-adv-x="919" d="M162 0v1434h166v-1284h536v-150h-702zM537 754q0 47 33.5 80.5t80.5 33.5q48 0 82.5 -33.5t34.5 -80.5t-35 -82t-82 -35t-80.5 34.5t-33.5 82.5z" />
<glyph unicode="&#x140;" horiz-adv-x="669" d="M139 0v1481h162v-1481h-162zM391 670q0 47 34 80.5t81 33.5q48 0 82.5 -33.5t34.5 -80.5t-35 -82t-82 -35t-81 35t-34 82z" />
<glyph unicode="&#x141;" horiz-adv-x="919" d="M41 492v159l121 72v711h166v-615l254 156v-166l-254 -152v-507h536v-150h-702v561z" />
<glyph unicode="&#x142;" horiz-adv-x="516" d="M37 567v164l133 86v664h162v-563l141 94v-168l-141 -92v-752h-162v653z" />
<glyph unicode="&#x143;" horiz-adv-x="1441" d="M160 0v1434h166l790 -1141v1141h164v-1434h-164l-790 1137v-1137h-166zM647 1524l146 291h178l-183 -291h-141z" />
<glyph unicode="&#x144;" horiz-adv-x="1122" d="M139 0v1065h160v-154q41 77 126.5 129t190.5 52q180 0 277.5 -118.5t97.5 -307.5v-666h-162v672q0 125 -70 198.5t-181 73.5q-123 0 -200 -82.5t-77 -214.5v-647h-162zM471 1194l145 291h179l-183 -291h-141z" />
<glyph unicode="&#x145;" horiz-adv-x="1441" d="M160 0v1434h166l790 -1141v1141h164v-1434h-164l-790 1137v-1137h-166zM610 -176q0 45 30.5 76.5t74.5 31.5q51 0 82.5 -33t31.5 -87q0 -172 -147 -297l-70 67q29 23 56 60.5t34 76.5q-41 6 -66.5 36.5t-25.5 68.5z" />
<glyph unicode="&#x146;" horiz-adv-x="1122" d="M139 0v1065h160v-154q41 77 126.5 129t190.5 52q180 0 277.5 -118.5t97.5 -307.5v-666h-162v672q0 125 -70 198.5t-181 73.5q-123 0 -200 -82.5t-77 -214.5v-647h-162zM453 -176q0 45 30 76.5t74 31.5q51 0 83 -33t32 -87q0 -171 -148 -297l-69 67q29 23 56 60.5t34 76.5 q-41 6 -66.5 36.5t-25.5 68.5z" />
<glyph unicode="&#x147;" horiz-adv-x="1441" d="M160 0v1434h166l790 -1141v1141h164v-1434h-164l-790 1137v-1137h-166zM444 1800h154l125 -168l127 168h151l-192 -266h-172z" />
<glyph unicode="&#x148;" horiz-adv-x="1122" d="M139 0v1065h160v-154q41 77 126.5 129t190.5 52q180 0 277.5 -118.5t97.5 -307.5v-666h-162v672q0 125 -70 198.5t-181 73.5q-123 0 -200 -82.5t-77 -214.5v-647h-162zM305 1483h154l125 -168l127 168h151l-192 -266h-172z" />
<glyph unicode="&#x149;" horiz-adv-x="1173" d="M-29 1358q0 45 30.5 76.5t74.5 31.5q51 0 82.5 -33t31.5 -87q0 -172 -147 -297l-70 67q29 23 56 60.5t34 76.5q-41 6 -66.5 36.5t-25.5 68.5zM190 0v1065h160v-154q41 76 127 128.5t191 52.5q180 0 277 -118.5t97 -307.5v-666h-161v672q0 125 -70.5 198.5t-181.5 73.5 q-123 0 -200 -82.5t-77 -214.5v-647h-162z" />
<glyph unicode="&#x14a;" horiz-adv-x="1441" d="M160 0v1434h166l790 -1172v1172h164v-1487q0 -164 -86 -250t-240 -86q-112 0 -172 20l19 148q67 -19 135 -19q180 0 180 209v31l-790 1167v-1167h-166z" />
<glyph unicode="&#x14b;" horiz-adv-x="1122" d="M139 0v1065h160v-154q41 77 126.5 129t190.5 52q180 0 277.5 -118.5t97.5 -307.5v-701q0 -98 -25.5 -169t-72 -111t-104.5 -58t-130 -18l-55 4v139q27 -2 47 -2q178 0 178 219v703q0 125 -70 198.5t-181 73.5q-123 0 -200 -82.5t-77 -214.5v-647h-162z" />
<glyph unicode="&#x14c;" horiz-adv-x="1619" d="M78 717q0 208 95.5 378.5t263 267.5t372.5 97q206 0 373.5 -98t262.5 -268.5t95 -376.5q0 -208 -95.5 -378.5t-263.5 -268t-374 -97.5q-205 0 -372 96.5t-262 267t-95 380.5zM250 717q0 -167 73.5 -302t201 -210.5t284.5 -75.5t284.5 75.5t201 210.5t73.5 302 q0 165 -73 300t-201.5 211.5t-284.5 76.5t-284.5 -76.5t-201.5 -211.5t-73 -300zM561 1567v129h496v-129h-496z" />
<glyph unicode="&#x14d;" horiz-adv-x="1247" d="M68 532q0 241 159.5 400.5t397.5 159.5q240 0 397.5 -160t157.5 -400q0 -239 -159 -399t-398 -160q-158 0 -284.5 71.5t-198.5 199.5t-72 288zM233 532q0 -180 110 -295.5t280 -115.5q171 0 282 116t111 295q0 178 -111 295t-282 117q-170 0 -280 -118t-110 -294z M381 1288v129h496v-129h-496z" />
<glyph unicode="&#x14e;" horiz-adv-x="1619" d="M78 717q0 208 95.5 378.5t263 267.5t372.5 97q206 0 373.5 -98t262.5 -268.5t95 -376.5q0 -208 -95.5 -378.5t-263.5 -268t-374 -97.5q-205 0 -372 96.5t-262 267t-95 380.5zM250 717q0 -167 73.5 -302t201 -210.5t284.5 -75.5t284.5 75.5t201 210.5t73.5 302 q0 165 -73 300t-201.5 211.5t-284.5 76.5t-284.5 -76.5t-201.5 -211.5t-73 -300zM555 1788h129q0 -65 31.5 -105.5t99.5 -40.5q67 0 99 40.5t32 105.5h129q0 -112 -68 -185t-192 -73t-192 73t-68 185z" />
<glyph unicode="&#x14f;" horiz-adv-x="1247" d="M68 532q0 241 159.5 400.5t397.5 159.5q240 0 397.5 -160t157.5 -400q0 -239 -159 -399t-398 -160q-158 0 -284.5 71.5t-198.5 199.5t-72 288zM233 532q0 -180 110 -295.5t280 -115.5q171 0 282 116t111 295q0 178 -111 295t-282 117q-170 0 -280 -118t-110 -294z M362 1460h130q0 -65 31.5 -105t99.5 -40q67 0 99 40t32 105h129q0 -112 -68 -185t-192 -73t-192.5 73t-68.5 185z" />
<glyph unicode="&#x150;" horiz-adv-x="1619" d="M78 717q0 208 95.5 378.5t263 267.5t372.5 97q206 0 373.5 -98t262.5 -268.5t95 -376.5q0 -208 -95.5 -378.5t-263.5 -268t-374 -97.5q-205 0 -372 96.5t-262 267t-95 380.5zM250 717q0 -167 73.5 -302t201 -210.5t284.5 -75.5t284.5 75.5t201 210.5t73.5 302 q0 165 -73 300t-201.5 211.5t-284.5 76.5t-284.5 -76.5t-201.5 -211.5t-73 -300zM567 1524l146 291h170l-183 -291h-133zM825 1524l146 291h170l-183 -291h-133z" />
<glyph unicode="&#x151;" horiz-adv-x="1247" d="M68 532q0 241 159.5 400.5t397.5 159.5q240 0 397.5 -160t157.5 -400q0 -239 -159 -399t-398 -160q-158 0 -284.5 71.5t-198.5 199.5t-72 288zM233 532q0 -180 110 -295.5t280 -115.5q171 0 282 116t111 295q0 178 -111 295t-282 117q-170 0 -280 -118t-110 -294z M406 1194l145 291h170l-182 -291h-133zM664 1194l145 291h170l-182 -291h-133z" />
<glyph unicode="&#x152;" horiz-adv-x="2211" d="M78 717q0 208 95.5 378.5t263 267.5t372.5 97q99 0 201 -26h1073v-152h-791q101 -90 164 -213t78 -264h483v-150h-479q-12 -153 -76.5 -282t-171.5 -223h815v-150h-1097q-106 -27 -201 -27q-205 0 -372 96.5t-262 267t-95 380.5zM250 717q0 -167 73.5 -302t201 -210.5 t284.5 -75.5t284.5 75.5t201 210.5t73.5 302q0 165 -73 300t-201.5 211.5t-284.5 76.5t-284.5 -76.5t-201.5 -211.5t-73 -300z" />
<glyph unicode="&#x153;" horiz-adv-x="2099" d="M68 532q0 241 159.5 400.5t397.5 159.5q154 0 277 -71.5t192 -195.5q63 125 179 196t255 71q233 0 370.5 -151t137.5 -394q0 -41 -2 -49h-854q1 -178 107.5 -279.5t275.5 -101.5q211 0 329 166l109 -78q-25 -42 -61.5 -79.5t-89.5 -73.5t-128 -57.5t-161 -21.5 q-159 0 -281.5 71t-185.5 196q-68 -123 -193 -195t-278 -72q-158 0 -284.5 71.5t-198.5 199.5t-72 288zM233 532q0 -180 110 -295.5t280 -115.5q171 0 282 116t111 295q0 178 -111 295t-282 117q-170 0 -280 -118t-110 -294zM1186 618h682q-7 159 -103.5 246.5t-236.5 87.5 q-135 0 -232 -89t-110 -245z" />
<glyph unicode="&#x154;" horiz-adv-x="1120" d="M162 0v1434h364q218 0 332.5 -104t114.5 -294q0 -133 -65 -237t-185 -142l356 -657h-184l-324 623h-243v-623h-166zM328 768h198q273 0 273 266q0 252 -283 252h-188v-518zM438 1524l146 291h178l-182 -291h-142z" />
<glyph unicode="&#x155;" horiz-adv-x="657" d="M139 0v1065h160v-178q30 85 115.5 145t201.5 60v-162q-315 0 -315 -420v-510h-162zM283 1194l145 291h178l-182 -291h-141z" />
<glyph unicode="&#x156;" horiz-adv-x="1120" d="M162 0v1434h364q218 0 332.5 -104t114.5 -294q0 -133 -65 -237t-185 -142l356 -657h-184l-324 623h-243v-623h-166zM328 768h198q273 0 273 266q0 252 -283 252h-188v-518zM461 -176q0 45 30 76.5t74 31.5q51 0 83 -33t32 -87q0 -171 -148 -297l-69 67q29 23 56 60.5 t34 76.5q-41 6 -66.5 36.5t-25.5 68.5z" />
<glyph unicode="&#x157;" horiz-adv-x="657" d="M139 0v1065h160v-178q30 85 115.5 145t201.5 60v-162q-315 0 -315 -420v-510h-162zM158 -176q0 45 30 76.5t74 31.5q51 0 83 -33t32 -87q0 -171 -148 -297l-69 67q29 23 56 60.5t34 76.5q-41 6 -66.5 36.5t-25.5 68.5z" />
<glyph unicode="&#x158;" horiz-adv-x="1120" d="M162 0v1434h364q218 0 332.5 -104t114.5 -294q0 -133 -65 -237t-185 -142l356 -657h-184l-324 623h-243v-623h-166zM244 1800h153l125 -168l127 168h152l-193 -266h-172zM328 768h198q273 0 273 266q0 252 -283 252h-188v-518z" />
<glyph unicode="&#x159;" horiz-adv-x="657" d="M78 1483h153l125 -168l127 168h152l-193 -266h-172zM139 0v1065h160v-178q30 85 115.5 145t201.5 60v-162q-315 0 -315 -420v-510h-162z" />
<glyph unicode="&#x15a;" horiz-adv-x="1036" d="M70 289l141 61q78 -223 313 -223q116 0 188 63.5t72 174.5q0 72 -37 128t-96 93t-130.5 70t-143.5 70t-131 83t-96 118.5t-37 166.5q0 158 111.5 262t297.5 104q73 0 137 -19.5t107 -49t77.5 -68t53.5 -71.5t31 -66l-140 -58q-11 24 -25 46.5t-38 48t-52 44t-68 30.5 t-85 12q-114 0 -177.5 -61t-63.5 -154q0 -52 23 -95.5t62 -75t89.5 -59.5t106.5 -54t111.5 -54t106 -64t89.5 -79t62 -104t23 -134q0 -173 -118.5 -287.5t-315.5 -114.5q-80 0 -149 20t-116.5 51.5t-85.5 74.5t-60 84t-37 86zM424 1524l145 291h179l-183 -291h-141z" />
<glyph unicode="&#x15b;" horiz-adv-x="854" d="M59 201l113 73q87 -163 266 -163q83 0 140 45.5t57 124.5q0 44 -23 78.5t-60.5 56t-85.5 43.5t-98.5 40t-98.5 45.5t-85.5 59.5t-60.5 83.5t-23 115.5q0 132 97 210.5t245 78.5q71 0 131 -20.5t99 -53t63.5 -65.5t36.5 -66l-119 -68q-70 137 -221 137q-76 0 -126 -40 t-50 -107q0 -43 23 -76t61 -54t86 -42t98.5 -38.5t98.5 -45t86 -60t61 -85.5t23 -119q0 -140 -103 -228t-260 -88q-264 0 -371 228zM328 1194l145 291h178l-182 -291h-141z" />
<glyph unicode="&#x15c;" horiz-adv-x="1036" d="M70 289l141 61q78 -223 313 -223q116 0 188 63.5t72 174.5q0 72 -37 128t-96 93t-130.5 70t-143.5 70t-131 83t-96 118.5t-37 166.5q0 158 111.5 262t297.5 104q73 0 137 -19.5t107 -49t77.5 -68t53.5 -71.5t31 -66l-140 -58q-11 24 -25 46.5t-38 48t-52 44t-68 30.5 t-85 12q-114 0 -177.5 -61t-63.5 -154q0 -52 23 -95.5t62 -75t89.5 -59.5t106.5 -54t111.5 -54t106 -64t89.5 -79t62 -104t23 -134q0 -173 -118.5 -287.5t-315.5 -114.5q-80 0 -149 20t-116.5 51.5t-85.5 74.5t-60 84t-37 86zM242 1534l192 266h172l193 -266h-152l-127 168 l-125 -168h-153z" />
<glyph unicode="&#x15d;" horiz-adv-x="854" d="M59 201l113 73q87 -163 266 -163q83 0 140 45.5t57 124.5q0 44 -23 78.5t-60.5 56t-85.5 43.5t-98.5 40t-98.5 45.5t-85.5 59.5t-60.5 83.5t-23 115.5q0 132 97 210.5t245 78.5q71 0 131 -20.5t99 -53t63.5 -65.5t36.5 -66l-119 -68q-70 137 -221 137q-76 0 -126 -40 t-50 -107q0 -43 23 -76t61 -54t86 -42t98.5 -38.5t98.5 -45t86 -60t61 -85.5t23 -119q0 -140 -103 -228t-260 -88q-264 0 -371 228zM166 1217l192 266h172l193 -266h-152l-127 167l-125 -167h-153z" />
<glyph unicode="&#x15e;" horiz-adv-x="1036" d="M70 289l141 61q78 -223 313 -223q116 0 188 63.5t72 174.5q0 72 -37 128t-96 93t-130.5 70t-143.5 70t-131 83t-96 118.5t-37 166.5q0 158 111.5 262t297.5 104q73 0 137 -19.5t107 -49t77.5 -68t53.5 -71.5t31 -66l-140 -58q-11 24 -25 46.5t-38 48t-52 44t-68 30.5 t-85 12q-114 0 -177.5 -61t-63.5 -154q0 -52 23 -95.5t62 -75t89.5 -59.5t106.5 -54t111.5 -54t106 -64t89.5 -79t62 -104t23 -134q0 -163 -105.5 -275t-283.5 -125l-10 -71q76 -7 120 -55t44 -119q0 -96 -66 -143.5t-166 -47.5q-56 0 -86 10l19 105q32 -6 61 -6 q115 0 115 84q0 40 -31.5 62t-85.5 22l-39 -4l23 165q-69 7 -128.5 29.5t-101 53.5t-75 71.5t-53.5 78.5t-33 79z" />
<glyph unicode="&#x15f;" horiz-adv-x="854" d="M59 201l113 73q87 -163 266 -163q83 0 140 45.5t57 124.5q0 44 -23 78.5t-60.5 56t-85.5 43.5t-98.5 40t-98.5 45.5t-85.5 59.5t-60.5 83.5t-23 115.5q0 132 97 210.5t245 78.5q71 0 131 -20.5t99 -53t63.5 -65.5t36.5 -66l-119 -68q-70 137 -221 137q-76 0 -126 -40 t-50 -107q0 -43 23 -76t61 -54t86 -42t98.5 -38.5t98.5 -45t86 -60t61 -85.5t23 -119q0 -130 -91.5 -216.5t-232.5 -97.5l-10 -71q76 -7 120 -55t44 -119q0 -96 -66 -143.5t-166 -47.5q-56 0 -86 10l19 105q32 -6 61 -6q115 0 115 84q0 40 -31.5 62t-85.5 22l-39 -4l23 165 q-219 28 -308 224z" />
<glyph unicode="&#x160;" horiz-adv-x="1036" d="M70 289l141 61q78 -223 313 -223q116 0 188 63.5t72 174.5q0 72 -37 128t-96 93t-130.5 70t-143.5 70t-131 83t-96 118.5t-37 166.5q0 158 111.5 262t297.5 104q73 0 137 -19.5t107 -49t77.5 -68t53.5 -71.5t31 -66l-140 -58q-11 24 -25 46.5t-38 48t-52 44t-68 30.5 t-85 12q-114 0 -177.5 -61t-63.5 -154q0 -52 23 -95.5t62 -75t89.5 -59.5t106.5 -54t111.5 -54t106 -64t89.5 -79t62 -104t23 -134q0 -173 -118.5 -287.5t-315.5 -114.5q-80 0 -149 20t-116.5 51.5t-85.5 74.5t-60 84t-37 86zM236 1800h153l125 -168l127 168h152l-193 -266 h-172z" />
<glyph unicode="&#x161;" horiz-adv-x="854" d="M59 201l113 73q87 -163 266 -163q83 0 140 45.5t57 124.5q0 44 -23 78.5t-60.5 56t-85.5 43.5t-98.5 40t-98.5 45.5t-85.5 59.5t-60.5 83.5t-23 115.5q0 132 97 210.5t245 78.5q71 0 131 -20.5t99 -53t63.5 -65.5t36.5 -66l-119 -68q-70 137 -221 137q-76 0 -126 -40 t-50 -107q0 -43 23 -76t61 -54t86 -42t98.5 -38.5t98.5 -45t86 -60t61 -85.5t23 -119q0 -140 -103 -228t-260 -88q-264 0 -371 228zM164 1483h153l125 -168l127 168h152l-193 -266h-172z" />
<glyph unicode="&#x162;" horiz-adv-x="1046" d="M43 1282v152h938v-152h-385v-1282h-43l-12 -96q76 -7 120 -55t44 -119q0 -96 -66 -143.5t-166 -47.5q-56 0 -86 10l19 105q32 -6 61 -6q115 0 115 84q0 40 -31.5 62t-85.5 22l-39 -4l25 188h-21v1282h-387z" />
<glyph unicode="&#x163;" horiz-adv-x="604" d="M27 928v137h125v223h161v-223h234v-137h-234v-549q0 -144 44 -195t153 -51l45 2v-143q-43 -6 -98 -6l-51 4l-13 -86q76 -7 120 -55t44 -119q0 -96 -66 -143.5t-165 -47.5q-56 0 -86 10l18 105q32 -6 61 -6q115 0 115 84q0 40 -31.5 62t-85.5 22l-38 -4l28 204 q-155 78 -155 349v563h-125z" />
<glyph unicode="&#x164;" horiz-adv-x="1046" d="M43 1282v152h938v-152h-385v-1282h-166v1282h-387zM238 1800h153l125 -168l127 168h152l-193 -266h-172z" />
<glyph unicode="&#x165;" horiz-adv-x="604" d="M27 928v137h125v223h161v-223h234v-137h-234v-549q0 -144 44 -195t153 -51l45 2v-143q-43 -6 -98 -6q-305 0 -305 379v563h-125zM420 1141l14 340h168l-59 -340h-123z" />
<glyph unicode="&#x166;" horiz-adv-x="1046" d="M43 1282v152h938v-152h-385v-448h285v-134h-285v-700h-166v700h-258v134h258v448h-387z" />
<glyph unicode="&#x167;" horiz-adv-x="604" d="M27 571v123h125v234h-125v137h125v223h161v-223h234v-137h-234v-234h228v-123h-228v-209q0 -132 45.5 -180.5t151.5 -48.5l45 2v-143q-43 -6 -98 -6q-305 0 -305 379v206h-125z" />
<glyph unicode="&#x168;" horiz-adv-x="1376" d="M154 514v920h165v-918q0 -182 95 -285.5t274 -103.5t275 104t96 287v916h164v-918q0 -247 -142 -395t-393 -148q-254 0 -394 146t-140 395zM387 1554q0 97 53.5 156t139.5 59q44 0 92.5 -22.5t91 -45t72.5 -22.5q34 0 55 24.5t22 65.5h115q0 -98 -51.5 -157.5 t-136.5 -59.5q-45 0 -92.5 23t-90 46.5t-75.5 23.5q-34 0 -55.5 -25t-22.5 -66h-117z" />
<glyph unicode="&#x169;" horiz-adv-x="1112" d="M129 399v666h162v-672q0 -125 71 -198.5t181 -73.5q123 0 199.5 82.5t76.5 214.5v647h164v-1065h-162v154q-39 -76 -125 -128.5t-190 -52.5q-180 0 -278.5 118.5t-98.5 307.5zM242 1233q0 97 53.5 156t138.5 59q44 0 92.5 -22.5t91 -45t72.5 -22.5q34 0 55.5 24.5 t22.5 65.5h115q0 -98 -52 -157.5t-137 -59.5q-45 0 -92.5 23t-90 46t-75.5 23q-34 0 -55.5 -24.5t-22.5 -65.5h-116z" />
<glyph unicode="&#x16a;" horiz-adv-x="1382" d="M154 514v920h165v-918q0 -182 95 -285.5t274 -103.5t275 104t96 287v916h164v-918q0 -247 -142 -395t-393 -148q-254 0 -394 146t-140 395zM459 1567v129h495v-129h-495z" />
<glyph unicode="&#x16b;" horiz-adv-x="1112" d="M129 399v666h162v-672q0 -125 71 -198.5t181 -73.5q123 0 199.5 82.5t76.5 214.5v647h164v-1065h-162v154q-39 -76 -125 -128.5t-190 -52.5q-180 0 -278.5 118.5t-98.5 307.5zM317 1288v129h496v-129h-496z" />
<glyph unicode="&#x16c;" horiz-adv-x="1376" d="M154 514v920h165v-918q0 -182 95 -285.5t274 -103.5t275 104t96 287v916h164v-918q0 -247 -142 -395t-393 -148q-254 0 -394 146t-140 395zM438 1788h129q0 -65 31.5 -105.5t99.5 -40.5q67 0 99 40.5t32 105.5h129q0 -112 -68 -185t-192 -73t-192 73t-68 185z" />
<glyph unicode="&#x16d;" horiz-adv-x="1112" d="M129 399v666h162v-672q0 -125 71 -198.5t181 -73.5q123 0 199.5 82.5t76.5 214.5v647h164v-1065h-162v154q-39 -76 -125 -128.5t-190 -52.5q-180 0 -278.5 118.5t-98.5 307.5zM301 1460h129q0 -65 31.5 -105t99.5 -40q67 0 99 40t32 105h129q0 -112 -68 -185t-192 -73 t-192 73t-68 185z" />
<glyph unicode="&#x16e;" horiz-adv-x="1376" d="M154 514v920h165v-918q0 -182 95 -285.5t274 -103.5t275 104t96 287v916h164v-918q0 -247 -142 -395t-393 -148q-254 0 -394 146t-140 395zM516 1694q0 78 52 128t130 50q83 0 135 -49.5t52 -126.5q0 -78 -52.5 -129t-132.5 -51q-79 0 -131.5 50.5t-52.5 127.5zM616 1694 q0 -38 23 -62t61 -24q39 0 61.5 24t22.5 64q0 38 -23 61t-63 23q-37 0 -59.5 -24t-22.5 -62z" />
<glyph unicode="&#x16f;" horiz-adv-x="1112" d="M129 399v666h162v-672q0 -125 71 -198.5t181 -73.5q123 0 199.5 82.5t76.5 214.5v647h164v-1065h-162v154q-39 -76 -125 -128.5t-190 -52.5q-180 0 -278.5 118.5t-98.5 307.5zM379 1360q0 78 52 128t130 50q83 0 135 -49.5t52 -126.5q0 -78 -52.5 -129t-132.5 -51 q-79 0 -131.5 50.5t-52.5 127.5zM479 1360q0 -38 23 -62t61 -24q39 0 61.5 24t22.5 64q0 38 -23 61t-63 23q-37 0 -59.5 -24t-22.5 -62z" />
<glyph unicode="&#x170;" horiz-adv-x="1382" d="M154 514v920h165v-918q0 -182 95 -285.5t274 -103.5t275 104t96 287v916h164v-918q0 -247 -142 -395t-393 -148q-254 0 -394 146t-140 395zM469 1524l145 291h170l-182 -291h-133zM727 1524l145 291h170l-182 -291h-133z" />
<glyph unicode="&#x171;" horiz-adv-x="1112" d="M129 399v666h162v-672q0 -125 71 -198.5t181 -73.5q123 0 199.5 82.5t76.5 214.5v647h164v-1065h-162v154q-39 -76 -125 -128.5t-190 -52.5q-180 0 -278.5 118.5t-98.5 307.5zM340 1194l145 291h170l-182 -291h-133zM598 1194l145 291h170l-182 -291h-133z" />
<glyph unicode="&#x172;" horiz-adv-x="1376" d="M154 514v920h165v-918q0 -182 95 -285.5t274 -103.5t275 104t96 287v916h164v-918q0 -196 -92.5 -332.5t-260.5 -185.5q-44 -17 -90.5 -63.5t-46.5 -104.5q0 -49 36.5 -73.5t88.5 -24.5v-127q-16 -4 -49 -4q-90 0 -156.5 50t-66.5 142q0 55 29.5 102.5t74.5 77.5 q-255 0 -395.5 146t-140.5 395z" />
<glyph unicode="&#x173;" horiz-adv-x="1112" d="M129 399v666h162v-672q0 -125 71 -198.5t181 -73.5q123 0 199.5 82.5t76.5 214.5v647h164v-1065q-44 -17 -93.5 -63.5t-49.5 -106.5q0 -49 36.5 -73.5t88.5 -24.5v-127q-17 -4 -50 -4q-90 0 -156.5 50t-66.5 142q0 70 47.5 127t106.5 80h-25v154q-39 -76 -125 -128.5 t-190 -52.5q-180 0 -278.5 118.5t-98.5 307.5z" />
<glyph unicode="&#x174;" horiz-adv-x="1931" d="M23 1434h178l329 -1223l353 1223h164l352 -1223l332 1223h176l-408 -1434h-186l-348 1190l-349 -1190h-184zM688 1534l193 266h172l192 -266h-151l-127 168l-125 -168h-154z" />
<glyph unicode="&#x175;" horiz-adv-x="1671" d="M14 1065h176l279 -877q3 7 287 877h159l285 -877l281 877h176l-361 -1065h-178l-282 846l-285 -846h-178zM557 1217l193 266h172l192 -266h-151l-127 167l-125 -167h-154z" />
<glyph unicode="&#x176;" horiz-adv-x="1089" d="M18 1434h191l336 -605l342 605h184l-444 -762v-672h-164v672zM268 1534l193 266h172l192 -266h-151l-127 168l-125 -168h-154z" />
<glyph unicode="&#x177;" horiz-adv-x="1040" d="M12 1065h176l338 -856l328 856h172l-571 -1432h-162l153 377zM250 1217l192 266h172l193 -266h-152l-127 167l-125 -167h-153z" />
<glyph unicode="&#x178;" horiz-adv-x="1089" d="M18 1434h191l336 -605l342 605h184l-444 -762v-672h-164v672zM281 1696q0 42 30 72t72 30q44 0 73 -30t29 -72q0 -43 -29 -73t-73 -30q-43 0 -72.5 30t-29.5 73zM616 1696q0 42 29.5 72t73.5 30q42 0 72 -30t30 -72q0 -43 -29.5 -73t-72.5 -30q-44 0 -73.5 30t-29.5 73z " />
<glyph unicode="&#x179;" horiz-adv-x="1216" d="M72 0v121l843 1163h-817v150h1032v-123l-845 -1161h850v-150h-1063zM514 1524l145 291h179l-183 -291h-141z" />
<glyph unicode="&#x17a;" horiz-adv-x="946" d="M66 0v115l610 811h-592v139h782v-117l-608 -811h619v-137h-811zM358 1194l146 291h178l-182 -291h-142z" />
<glyph unicode="&#x17b;" horiz-adv-x="1216" d="M72 0v121l843 1163h-817v150h1032v-123l-845 -1161h850v-150h-1063zM500 1659q0 46 32 78t78 32q47 0 80 -32t33 -78q0 -47 -33 -80t-80 -33q-46 0 -78 33t-32 80z" />
<glyph unicode="&#x17c;" horiz-adv-x="946" d="M66 0v115l610 811h-592v139h782v-117l-608 -811h619v-137h-811zM365 1339q0 46 32 78.5t78 32.5q47 0 80 -32.5t33 -78.5q0 -47 -33 -79.5t-80 -32.5q-46 0 -78 32.5t-32 79.5z" />
<glyph unicode="&#x17d;" horiz-adv-x="1216" d="M72 0v121l843 1163h-817v150h1032v-123l-845 -1161h850v-150h-1063zM328 1800h153l125 -168l127 168h152l-193 -266h-172z" />
<glyph unicode="&#x17e;" horiz-adv-x="946" d="M66 0v115l610 811h-592v139h782v-117l-608 -811h619v-137h-811zM197 1483h153l125 -168l127 168h152l-193 -266h-172z" />
<glyph unicode="&#x192;" horiz-adv-x="931" d="M-78 -381l21 139q45 -10 94 -10q94 0 143.5 61.5t69.5 210.5l96 699h-147v137h166l34 252q13 95 49 164t87 106.5t106.5 54.5t118.5 17q28 0 57.5 -3t45.5 -6l16 -3l-19 -140q-47 11 -96 11q-90 0 -140.5 -52.5t-68.5 -179.5l-29 -221h213v-137h-231l-92 -658 q-9 -67 -21 -137q-15 -89 -51.5 -153t-86.5 -98.5t-103 -50t-113 -15.5q-27 0 -57 3t-46 6z" />
<glyph unicode="&#x1fa;" horiz-adv-x="1290" d="M25 0l514 1372q-78 53 -78 150q0 78 52 128t130 50q83 0 134.5 -49.5t51.5 -126.5q0 -99 -77 -150l514 -1374h-168l-172 465h-561l-172 -465h-168zM416 608h461l-232 643zM561 1522q0 -38 23 -62t61 -24q39 0 61.5 24t22.5 64q0 38 -23 61t-63 23q-37 0 -59.5 -24 t-22.5 -62zM575 1753l146 291h178l-182 -291h-142z" />
<glyph unicode="&#x1fb;" horiz-adv-x="1044" d="M70 328q0 153 114.5 251.5t294.5 98.5q94 0 169 -29t112 -67v131q0 111 -69 173t-189 62q-159 0 -314 -92l-65 119q187 117 393 117q209 0 307.5 -105t98.5 -285v-702h-140l-18 90q-102 -117 -289 -117q-175 0 -290 100t-115 255zM233 330q0 -94 74 -157.5t195 -63.5 q117 0 190.5 62t73.5 159q0 100 -73 159.5t-193 59.5t-193.5 -62t-73.5 -157zM340 1343q0 78 52 128.5t130 50.5q83 0 135 -49.5t52 -126.5q0 -78 -52.5 -129.5t-132.5 -51.5q-79 0 -131.5 50.5t-52.5 127.5zM440 1343q0 -38 23 -62t61 -24q39 0 61.5 24.5t22.5 64.5 q0 38 -23 61t-63 23q-37 0 -59.5 -24.5t-22.5 -62.5zM449 1581l145 291h178l-182 -291h-141z" />
<glyph unicode="&#x1fc;" horiz-adv-x="1660" d="M16 0l732 1434h784v-152h-514v-477h448v-150h-448v-505h534v-150h-700v465h-428l-227 -465h-181zM494 608h358v674h-31zM918 1524l145 291h178l-182 -291h-141z" />
<glyph unicode="&#x1fd;" horiz-adv-x="1841" d="M70 328q0 153 114.5 251.5t294.5 98.5q94 0 169 -29t112 -67v131q0 111 -69 173t-189 62q-159 0 -314 -92l-65 119q187 117 393 117q142 0 231.5 -55t126.5 -152q68 98 171.5 152.5t224.5 54.5q232 0 369 -151t137 -394v-49h-854q1 -176 107 -278.5t274 -102.5 q213 0 331 166l107 -78q-24 -42 -60 -79.5t-89 -73.5t-128 -57.5t-161 -21.5q-150 0 -267.5 59t-181.5 169q-38 -95 -134.5 -161.5t-244.5 -66.5q-175 0 -290 100t-115 255zM233 330q0 -94 74 -157.5t195 -63.5q116 0 188 62t72 159q0 100 -71 159.5t-191 59.5t-193.5 -62 t-73.5 -157zM788 1194l146 291h178l-182 -291h-142zM928 618h682q-7 159 -104 246.5t-236 87.5q-135 0 -232 -89t-110 -245z" />
<glyph unicode="&#x1fe;" horiz-adv-x="1617" d="M80 717q0 208 95.5 378.5t263 267.5t372.5 97q223 0 403 -121l107 134l102 -82l-104 -134q106 -101 164.5 -240.5t58.5 -299.5q0 -208 -95.5 -378.5t-263.5 -268t-374 -97.5q-228 0 -408 119l-104 -133l-102 82l104 133q-104 101 -161.5 241t-57.5 302zM252 717 q0 -246 154 -410l708 905q-137 93 -303 93q-239 0 -399 -168t-160 -420zM502 219q134 -90 309 -90q156 0 284 75.5t201.5 210.5t73.5 302q0 240 -156 409zM707 1524l145 291h178l-182 -291h-141z" />
<glyph unicode="&#x1ff;" horiz-adv-x="1247" d="M68 532q0 241 159.5 400.5t397.5 159.5q169 0 303 -86l78 100l94 -76l-78 -98q158 -158 158 -400q0 -239 -159 -399t-398 -160q-164 0 -291 76l-78 -98l-94 74l76 96q-168 162 -168 411zM233 532q0 -172 103 -284l495 637q-94 59 -208 59q-170 0 -280 -118t-110 -294z M428 172q80 -51 195 -51q171 0 282 116t111 295q0 156 -94 271zM522 1194l146 291h178l-182 -291h-142z" />
<glyph unicode="&#x218;" horiz-adv-x="1036" d="M70 289l141 61q78 -223 313 -223q116 0 188 63.5t72 174.5q0 72 -37 128t-96 93t-130.5 70t-143.5 70t-131 83t-96 118.5t-37 166.5q0 158 111.5 262t297.5 104q73 0 137 -19.5t107 -49t77.5 -68t53.5 -71.5t31 -66l-140 -58q-11 24 -25 46.5t-38 48t-52 44t-68 30.5 t-85 12q-114 0 -177.5 -61t-63.5 -154q0 -52 23 -95.5t62 -75t89.5 -59.5t106.5 -54t111.5 -54t106 -64t89.5 -79t62 -104t23 -134q0 -173 -118.5 -287.5t-315.5 -114.5q-80 0 -149 20t-116.5 51.5t-85.5 74.5t-60 84t-37 86zM414 -176q0 45 30 76.5t74 31.5q51 0 83 -33 t32 -87q0 -171 -148 -297l-69 67q29 23 56 60.5t34 76.5q-41 6 -66.5 36.5t-25.5 68.5z" />
<glyph unicode="&#x219;" horiz-adv-x="854" d="M59 201l113 73q87 -163 266 -163q83 0 140 45.5t57 124.5q0 44 -23 78.5t-60.5 56t-85.5 43.5t-98.5 40t-98.5 45.5t-85.5 59.5t-60.5 83.5t-23 115.5q0 132 97 210.5t245 78.5q71 0 131 -20.5t99 -53t63.5 -65.5t36.5 -66l-119 -68q-70 137 -221 137q-76 0 -126 -40 t-50 -107q0 -43 23 -76t61 -54t86 -42t98.5 -38.5t98.5 -45t86 -60t61 -85.5t23 -119q0 -140 -103 -228t-260 -88q-264 0 -371 228zM332 -176q0 45 30 76.5t74 31.5q51 0 83 -33t32 -87q0 -171 -148 -297l-69 67q29 23 56 60.5t34 76.5q-41 6 -66.5 36.5t-25.5 68.5z" />
<glyph unicode="&#x21a;" horiz-adv-x="1046" d="M43 1282v152h938v-152h-385v-1282h-166v1282h-387zM401 -176q0 45 30.5 76.5t74.5 31.5q51 0 83 -33t32 -87q0 -171 -148 -297l-70 67q29 24 56.5 61.5t34.5 75.5q-41 6 -67 36.5t-26 68.5z" />
<glyph unicode="&#x21b;" horiz-adv-x="604" d="M27 928v137h125v223h161v-223h234v-137h-234v-549q0 -144 44 -195t153 -51l45 2v-143q-43 -6 -98 -6q-305 0 -305 379v563h-125zM270 -176q0 45 30.5 76.5t74.5 31.5q51 0 82.5 -33t31.5 -87q0 -172 -147 -297l-70 67q29 23 56 60.5t34 76.5q-41 6 -66.5 36.5t-25.5 68.5 z" />
<glyph unicode="&#x237;" d="M-86 -248q27 -2 45 -2q90 0 135 53t45 166v1096h162v-1100q0 -98 -25.5 -169t-72.5 -111t-104.5 -58t-129.5 -18l-55 4v139z" />
<glyph unicode="&#x2c6;" horiz-adv-x="923" d="M182 1217l193 266h172l192 -266h-151l-127 167l-125 -167h-154z" />
<glyph unicode="&#x2c7;" horiz-adv-x="923" d="M182 1483h154l125 -168l127 168h151l-192 -266h-172z" />
<glyph unicode="&#x2d8;" horiz-adv-x="923" d="M201 1460h129q0 -65 31.5 -105t99.5 -40q67 0 99 40t32 105h129q0 -112 -68 -185t-192 -73t-192 73t-68 185z" />
<glyph unicode="&#x2d9;" horiz-adv-x="923" d="M350 1339q0 46 32.5 78.5t78.5 32.5q47 0 79.5 -32.5t32.5 -78.5q0 -47 -32.5 -79.5t-79.5 -32.5q-46 0 -78.5 32.5t-32.5 79.5z" />
<glyph unicode="&#x2da;" horiz-adv-x="923" d="M276 1360q0 78 52 128t131 50q83 0 134.5 -49.5t51.5 -126.5q0 -78 -52 -129t-132 -51t-132.5 51t-52.5 127zM377 1360q0 -38 23 -62t61 -24q39 0 61.5 24t22.5 64q0 38 -23 61t-63 23q-37 0 -59.5 -24t-22.5 -62z" />
<glyph unicode="&#x2db;" horiz-adv-x="923" d="M315 -207q0 70 47.5 127t106.5 80h137q-44 -17 -93.5 -63.5t-49.5 -106.5q0 -49 36.5 -73.5t88.5 -24.5v-127q-16 -4 -49 -4q-90 0 -157 50t-67 142z" />
<glyph unicode="&#x2dc;" horiz-adv-x="923" d="M139 1233q0 97 53.5 156t139.5 59q44 0 92.5 -22.5t91 -45t72.5 -22.5q34 0 55.5 24.5t22.5 65.5h114q0 -98 -51.5 -157.5t-136.5 -59.5q-45 0 -92.5 23t-90 46t-75.5 23q-34 0 -55.5 -24.5t-22.5 -65.5h-117z" />
<glyph unicode="&#x2dd;" horiz-adv-x="935" d="M180 1194l146 291h170l-183 -291h-133zM438 1194l146 291h170l-183 -291h-133z" />
<glyph unicode="&#x400;" horiz-adv-x="970" d="M162 0v1434h680v-152h-514v-477h448v-150h-448v-505h536v-150h-702zM297 1815h176l148 -291h-144z" />
<glyph unicode="&#x401;" horiz-adv-x="970" d="M162 0v1434h680v-152h-514v-477h448v-150h-448v-505h536v-150h-702zM256 1663q0 42 30 72t72 30q44 0 73.5 -30t29.5 -72q0 -43 -29.5 -72.5t-73.5 -29.5q-43 0 -72.5 29.5t-29.5 72.5zM592 1663q0 42 29 72t73 30q42 0 72.5 -30.5t30.5 -71.5q0 -43 -30 -72.5t-73 -29.5 q-44 0 -73 29.5t-29 72.5z" />
<glyph unicode="&#x402;" horiz-adv-x="1505" d="M43 1282v152h1040v-152h-487v-494q47 53 138.5 88t205.5 35q143 0 250.5 -67.5t160 -174t52.5 -233.5q0 -107 -27.5 -191.5t-71 -136.5t-101.5 -86t-115 -47.5t-117 -13.5q-91 0 -193 31l19 137q110 -27 170 -27q53 0 100 18.5t87 56t63.5 104t23.5 153.5 q0 143 -83 236.5t-245 93.5q-49 0 -97 -7.5t-101 -26.5t-86 -60.5t-33 -100.5v-569h-166v1282h-387z" />
<glyph unicode="&#x403;" horiz-adv-x="991" d="M162 0v1434h764v-152h-598v-1282h-166zM383 1524l145 291h179l-183 -291h-141z" />
<glyph unicode="&#x404;" horiz-adv-x="1296" d="M90 717q0 211 79 379t231 266t352 98q144 0 257 -45t187 -104l-53 -148q-26 21 -58.5 41.5t-82.5 45.5t-114.5 40t-131.5 15q-213 0 -341 -138t-149 -362h807v-150h-809q14 -237 141 -381.5t355 -144.5q223 0 407 154l52 -146q-26 -23 -63.5 -47t-96 -52.5t-138.5 -46.5 t-165 -18q-207 0 -359.5 98t-229.5 265t-77 381z" />
<glyph unicode="&#x405;" horiz-adv-x="1036" d="M70 289l141 61q78 -223 313 -223q116 0 188 63.5t72 174.5q0 72 -37 128t-96 93t-130.5 70t-143.5 70t-131 83t-96 118.5t-37 166.5q0 158 111.5 262t297.5 104q73 0 137 -19.5t107 -49t77.5 -68t53.5 -71.5t31 -66l-140 -58q-11 24 -25 46.5t-38 48t-52 44t-68 30.5 t-85 12q-114 0 -177.5 -61t-63.5 -154q0 -52 23 -95.5t62 -75t89.5 -59.5t106.5 -54t111.5 -54t106 -64t89.5 -79t62 -104t23 -134q0 -173 -118.5 -287.5t-315.5 -114.5q-80 0 -149 20t-116.5 51.5t-85.5 74.5t-60 84t-37 86z" />
<glyph unicode="&#x406;" horiz-adv-x="489" d="M162 0v1434h166v-1434h-166z" />
<glyph unicode="&#x407;" horiz-adv-x="489" d="M-16 1663q0 42 30 72t72 30q44 0 73 -30t29 -72q0 -43 -29 -72.5t-73 -29.5q-43 0 -72.5 29.5t-29.5 72.5zM162 0v1434h166v-1434h-166zM319 1663q0 42 29.5 72t73.5 30q42 0 72 -30t30 -72q0 -43 -29.5 -72.5t-72.5 -29.5q-44 0 -73.5 29.5t-29.5 72.5z" />
<glyph unicode="&#x408;" horiz-adv-x="706" d="M45 8l18 148q68 -19 136 -19q180 0 180 209v1088h166v-1110q0 -163 -86.5 -249.5t-241.5 -86.5q-112 0 -172 20z" />
<glyph unicode="&#x409;" horiz-adv-x="1912" d="M20 4l23 141q42 -10 72 -10q34 0 55.5 26t40.5 91q35 126 51.5 386.5t34.5 795.5h813v-600h256q477 0 477 -418q0 -192 -121.5 -304t-310.5 -112h-467v1282h-487q-7 -111 -17 -299t-15 -268.5t-14 -192.5t-19.5 -178.5t-24.5 -118.5q-17 -62 -41.5 -107.5t-48.5 -69.5 t-55 -37.5t-54.5 -17t-52.5 -3.5q-63 0 -95 14zM1110 145h272q133 0 211 69.5t78 205.5q0 143 -72.5 206.5t-230.5 63.5h-258v-545z" />
<glyph unicode="&#x40a;" horiz-adv-x="2007" d="M162 0v1434h166v-613h710v613h166v-617h256q477 0 477 -409q0 -189 -121.5 -298.5t-310.5 -109.5h-467v670h-710v-670h-166zM1204 145h273q133 0 210.5 67t77.5 200q0 140 -72.5 201t-230.5 61h-258v-529z" />
<glyph unicode="&#x40b;" horiz-adv-x="1505" d="M43 1282v152h1040v-152h-487v-494q47 43 138.5 71t205.5 28q194 0 297.5 -117t103.5 -305v-465h-161v463q0 134 -62 205t-205 71q-48 0 -96.5 -7t-101.5 -24t-86 -53t-33 -86v-569h-166v1282h-387z" />
<glyph unicode="&#x40c;" horiz-adv-x="1214" d="M162 0v1434h166v-613h121l518 613h198l-585 -686l634 -748h-202l-570 682h-114v-682h-166zM467 1524l145 291h179l-183 -291h-141z" />
<glyph unicode="&#x40d;" horiz-adv-x="1439" d="M162 0v1434h164v-1141l790 1141h162v-1434h-166v1137l-790 -1137h-160zM502 1815h176l147 -291h-143z" />
<glyph unicode="&#x40e;" horiz-adv-x="1148" d="M20 1434h191l385 -856l385 856h184l-587 -1256q-54 -114 -121.5 -154t-173.5 -40q-76 0 -144 22l19 137q74 -18 121 -18q61 0 94.5 21t66.5 83l70 154zM285 1796h135q0 -66 46.5 -106.5t145.5 -40.5q98 0 145.5 40.5t47.5 106.5h135q0 -116 -85 -191t-243 -75t-242.5 75 t-84.5 191z" />
<glyph unicode="&#x40f;" horiz-adv-x="1376" d="M162 0v1434h166v-1282h721v1282h165v-1434h-452v-381h-148v381h-452z" />
<glyph unicode="&#x410;" horiz-adv-x="1292" d="M25 0l536 1434h168l537 -1434h-168l-172 465h-561l-172 -465h-168zM416 608h461l-232 643z" />
<glyph unicode="&#x411;" horiz-adv-x="1120" d="M162 0v1434h776v-152h-610v-436h239q477 0 477 -422q0 -195 -121.5 -309.5t-310.5 -114.5h-450zM328 145h256q133 0 210.5 71.5t77.5 211.5q0 145 -72.5 209.5t-230.5 64.5h-241v-557z" />
<glyph unicode="&#x412;" horiz-adv-x="1114" d="M162 0v1434h395q202 0 314 -97.5t112 -269.5q0 -105 -49 -186.5t-135 -128.5q106 -38 169.5 -127.5t63.5 -216.5q0 -189 -121.5 -298.5t-310.5 -109.5h-438zM328 145h243q133 0 211 67t78 200q0 134 -79 198t-212 64h-241v-529zM328 813h247q107 0 172.5 66.5t65.5 175.5 q0 107 -62 169t-176 62h-247v-473z" />
<glyph unicode="&#x413;" horiz-adv-x="991" d="M162 0v1434h764v-152h-598v-1282h-166z" />
<glyph unicode="&#x414;" horiz-adv-x="1499" d="M74 152h215q174 506 174 1282h772v-1282h186v-535h-161v383h-1024v-383h-162v535zM457 152h612v1130h-453q0 -281 -48.5 -599.5t-110.5 -530.5z" />
<glyph unicode="&#x415;" horiz-adv-x="970" d="M162 0v1434h680v-152h-514v-477h448v-150h-448v-505h536v-150h-702z" />
<glyph unicode="&#x416;" horiz-adv-x="1857" d="M0 0l584 760l-535 674h199l469 -600h129v600h166v-600h129l469 600h198l-534 -674l584 -760h-203l-522 694h-121v-694h-166v694h-123l-520 -694h-203z" />
<glyph unicode="&#x417;" horiz-adv-x="1144" d="M92 287l141 51q30 -94 112 -152.5t216 -58.5q133 0 222 80t89 203q0 120 -75.5 192t-210.5 72h-307v133h329q112 0 175 71t63 185q0 107 -73.5 176.5t-184.5 69.5q-114 0 -183 -50.5t-96 -132.5l-137 52q15 52 44.5 98.5t77.5 89.5t124.5 68.5t171.5 25.5 q182 0 304 -114.5t122 -286.5q0 -121 -52.5 -202t-134.5 -120q94 -39 153.5 -120t59.5 -207q0 -187 -138 -311t-341 -124q-86 0 -159 19t-123.5 50t-90 72.5t-62.5 83.5t-36 87z" />
<glyph unicode="&#x418;" horiz-adv-x="1439" d="M162 0v1434h164v-1141l790 1141h162v-1434h-166v1137l-790 -1137h-160z" />
<glyph unicode="&#x419;" horiz-adv-x="1439" d="M162 0v1434h164v-1141l790 1141h162v-1434h-166v1137l-790 -1137h-160zM420 1796h135q0 -66 47 -106.5t146 -40.5q98 0 145 40.5t47 106.5h135q0 -116 -84.5 -191t-242.5 -75t-243 75t-85 191z" />
<glyph unicode="&#x41a;" horiz-adv-x="1214" d="M162 0v1434h166v-613h121l518 613h198l-585 -686l634 -748h-202l-570 682h-114v-682h-166z" />
<glyph unicode="&#x41b;" horiz-adv-x="1271" d="M20 4l23 141q42 -10 72 -10q34 0 55.5 26t40.5 91q35 126 51.5 386.5t34.5 795.5h813v-1434h-166v1282h-487q-7 -111 -17 -299t-15 -268.5t-14 -192.5t-19.5 -178.5t-24.5 -118.5q-17 -62 -41.5 -107.5t-48.5 -69.5t-55 -37.5t-54.5 -17t-52.5 -3.5q-63 0 -95 14z" />
<glyph unicode="&#x41c;" horiz-adv-x="1775" d="M160 0v1434h213l514 -1106l516 1106h211v-1434h-160v1184l-485 -1053h-164l-486 1053v-1184h-159z" />
<glyph unicode="&#x41d;" horiz-adv-x="1417" d="M162 0v1434h166v-629h762v629h165v-1434h-165v653h-762v-653h-166z" />
<glyph unicode="&#x41e;" horiz-adv-x="1622" d="M80 717q0 208 95.5 378.5t263 267.5t372.5 97q206 0 373.5 -98t262.5 -268.5t95 -376.5q0 -208 -95.5 -378.5t-263.5 -268t-374 -97.5q-205 0 -372 96.5t-262 267t-95 380.5zM252 717q0 -167 73.5 -302t201 -210.5t284.5 -75.5t284.5 75.5t201 210.5t73.5 302 q0 165 -73 300t-201.5 211.5t-284.5 76.5t-284.5 -76.5t-201.5 -211.5t-73 -300z" />
<glyph unicode="&#x41f;" horiz-adv-x="1396" d="M162 0v1434h1073v-1434h-166v1282h-741v-1282h-166z" />
<glyph unicode="&#x420;" horiz-adv-x="1040" d="M162 0v1434h393q197 0 312.5 -110.5t115.5 -303.5q0 -192 -118.5 -306t-309.5 -114h-227v-600h-166zM328 748h213q128 0 200 73t72 199q0 124 -72 195t-200 71h-213v-538z" />
<glyph unicode="&#x421;" horiz-adv-x="1343" d="M80 717q0 156 56.5 294t152.5 236.5t230 155.5t284 57q144 0 257 -45t187 -104l-53 -148q-26 21 -58.5 41.5t-82.5 45.5t-114.5 40t-131.5 15q-156 0 -283.5 -77t-199.5 -211.5t-72 -299.5q0 -253 156.5 -420.5t402.5 -167.5q224 0 408 154l51 -146q-26 -23 -63.5 -47 t-96 -52.5t-138.5 -46.5t-165 -18q-207 0 -373.5 97t-260 267t-93.5 380z" />
<glyph unicode="&#x422;" horiz-adv-x="1024" d="M43 1282v152h938v-152h-385v-1282h-166v1282h-387z" />
<glyph unicode="&#x423;" horiz-adv-x="1148" d="M20 1434h191l385 -856l385 856h184l-587 -1256q-54 -114 -121.5 -154t-173.5 -40q-76 0 -144 22l19 137q74 -18 121 -18q61 0 94.5 21t66.5 83l70 154z" />
<glyph unicode="&#x424;" horiz-adv-x="1619" d="M119 717q0 112 48 211t130 170t193 116.5t237 57.5v182h166v-182q127 -10 236 -51t192 -109t130.5 -169.5t47.5 -225.5q0 -125 -47.5 -226.5t-130.5 -169.5t-192 -108.5t-236 -50.5v-182h-166v182q-169 15 -306 86t-219.5 194t-82.5 275zM291 717q0 -169 115.5 -275 t320.5 -125v799q-204 -20 -320 -127t-116 -272zM893 315q207 18 320.5 120t113.5 282q0 177 -114 279.5t-320 119.5v-801z" />
<glyph unicode="&#x425;" horiz-adv-x="1234" d="M27 0l487 741l-453 693h199l356 -566l359 566h194l-452 -693l489 -741h-188l-406 616l-399 -616h-186z" />
<glyph unicode="&#x426;" horiz-adv-x="1445" d="M162 0v1434h166v-1282h700v1282h166v-1282h174v-535h-162v383h-1044z" />
<glyph unicode="&#x427;" horiz-adv-x="1218" d="M96 1018v416h162v-414q0 -133 69.5 -205t225.5 -72q51 0 102.5 7t108 24t92 53t35.5 86v521h166v-1434h-166v694q-50 -43 -146 -70.5t-219 -27.5q-208 0 -319 117t-111 305z" />
<glyph unicode="&#x428;" horiz-adv-x="1845" d="M162 0v1434h166v-1282h512v1282h166v-1282h512v1282h165v-1434h-1521z" />
<glyph unicode="&#x429;" horiz-adv-x="1937" d="M162 0v1434h166v-1282h512v1282h166v-1282h512v1282h165v-1282h177v-535h-162v383h-1536z" />
<glyph unicode="&#x42a;" horiz-adv-x="1419" d="M43 1282v152h573v-600h256q478 0 478 -418q0 -192 -121.5 -304t-310.5 -112h-467v1282h-408zM616 145h273q133 0 211 69.5t78 205.5q0 143 -73 206.5t-231 63.5h-258v-545z" />
<glyph unicode="&#x42b;" horiz-adv-x="1585" d="M162 0v1434h166v-600h235q477 0 477 -418q0 -192 -121.5 -304t-310.5 -112h-446zM328 145h252q133 0 210.5 69.5t77.5 205.5q0 143 -72.5 206.5t-230.5 63.5h-237v-545zM1257 0v1434h166v-1434h-166z" />
<glyph unicode="&#x42c;" horiz-adv-x="1130" d="M162 0v1434h166v-600h256q477 0 477 -418q0 -192 -121.5 -304t-310.5 -112h-467zM328 145h272q133 0 211 69.5t78 205.5q0 143 -72.5 206.5t-230.5 63.5h-258v-545z" />
<glyph unicode="&#x42d;" horiz-adv-x="1296" d="M82 137l51 146q184 -154 408 -154q229 0 358 144.5t145 381.5h-808v150h806q-23 225 -147 362.5t-334 137.5q-67 0 -131.5 -15t-114.5 -40t-82.5 -45.5t-58.5 -41.5l-53 148q74 59 187 104t257 45q199 0 348.5 -96.5t227.5 -264.5t78 -382q0 -159 -45.5 -295t-130.5 -236 t-213 -156.5t-285 -56.5q-85 0 -165 18t-138.5 46.5t-96 52.5t-63.5 47z" />
<glyph unicode="&#x42e;" horiz-adv-x="2105" d="M162 0v1434h166v-629h362q16 191 96 337t227.5 232t342.5 86q159 0 287 -57t211 -158t127 -235.5t44 -292.5q0 -159 -44.5 -294.5t-127.5 -235.5t-211.5 -157t-287.5 -57q-152 0 -275 50.5t-205.5 141.5t-129.5 215t-56 273h-360v-653h-166zM858 717q0 -265 128 -426.5 t370 -161.5t369.5 161.5t127.5 426.5q0 128 -31 234t-91.5 185.5t-156.5 124t-218 44.5q-123 0 -219 -44.5t-156.5 -124t-91.5 -185.5t-31 -234z" />
<glyph unicode="&#x42f;" horiz-adv-x="1105" d="M12 0l363 645q-118 39 -184 145t-66 240q0 192 117 298t338 106h364v-1434h-166v610h-252l-329 -610h-185zM299 1028q0 -138 73.5 -205t207.5 -67h198v530h-188q-150 0 -220.5 -68t-70.5 -190z" />
<glyph unicode="&#x430;" horiz-adv-x="1052" d="M70 332q0 153 116 253.5t297 100.5q95 0 171.5 -29t113.5 -67v139q0 111 -70.5 173.5t-191.5 62.5q-161 0 -318 -93l-65 119q187 117 397 117t310 -104.5t100 -284.5v-719h-139l-19 90q-102 -117 -293 -117q-177 0 -293 102t-116 257zM233 334q0 -95 75.5 -160t197.5 -65 q118 0 193 64.5t75 162.5q0 100 -74 160.5t-196 60.5q-121 0 -196 -63.5t-75 -159.5z" />
<glyph unicode="&#x431;" horiz-adv-x="1212" d="M80 588q0 83 2.5 146t15 155.5t34.5 164.5t65 150.5t102 136.5t134 99.5t159.5 65t156.5 37.5t166 29t148 27l-12 -155q-50 -10 -134 -21.5t-141.5 -21t-126 -27.5t-126.5 -49t-105 -76q-44 -43 -74 -85t-49 -93.5t-27.5 -84t-21.5 -97.5q64 88 166.5 139t199.5 51 q152 0 273.5 -72t189.5 -198t68 -283q0 -238 -151.5 -395.5t-381.5 -157.5q-238 0 -384 160.5t-146 454.5zM246 526q0 -179 101.5 -292t262.5 -113q162 0 265.5 114t103.5 291q0 176 -103.5 291t-265.5 115q-161 0 -262.5 -115.5t-101.5 -290.5z" />
<glyph unicode="&#x432;" horiz-adv-x="937" d="M139 0v1081h355q162 0 253 -73.5t91 -202.5q0 -81 -38 -143.5t-104 -98.5q82 -30 129 -96t47 -162q0 -144 -96 -224.5t-250 -80.5h-387zM301 135h184q222 0 222 174q0 95 -61 139t-161 44h-184v-357zM301 623h188q84 0 133.5 45t49.5 123q0 72 -47 112.5t-136 40.5h-188 v-321z" />
<glyph unicode="&#x433;" horiz-adv-x="870" d="M139 0v1081h676v-141h-514v-940h-162z" />
<glyph unicode="&#x434;" horiz-adv-x="1226" d="M49 141h156q123 374 123 940h688v-940h141v-432h-153v291h-801v-291h-154v432zM373 141h481v799h-367q-3 -200 -36.5 -422t-77.5 -377z" />
<glyph unicode="&#x435;" horiz-adv-x="1165" d="M70 537q0 127 41 235t112 181t166 114t201 41q234 0 372 -153t138 -400q0 -29 -2 -49h-862q1 -180 109 -284.5t278 -104.5q217 0 335 166l107 -78q-24 -41 -61 -79t-90.5 -74t-129.5 -57.5t-163 -21.5q-245 0 -398 157t-153 407zM244 627h690q-7 162 -105 252t-239 90 q-135 0 -236 -96t-110 -246z" />
<glyph unicode="&#x436;" horiz-adv-x="1652" d="M0 0l492 559l-402 522h199l352 -465h104v465h162v-465h103l354 465h199l-404 -522l494 -559h-228l-413 485h-105v-485h-162v485h-106l-412 -485h-227z" />
<glyph unicode="&#x437;" horiz-adv-x="1044" d="M74 199l141 53q25 -64 93.5 -102.5t183.5 -38.5q125 0 206.5 53.5t81.5 138.5t-57.5 135.5t-161.5 50.5h-323v136h340q87 0 134.5 49.5t47.5 128.5q0 73 -71 120.5t-177 47.5q-99 0 -158.5 -32.5t-81.5 -86.5l-137 51q13 37 40.5 71t71 65.5t112.5 50t153 18.5 q193 0 301.5 -86.5t108.5 -222.5q0 -89 -42 -149t-108 -91q75 -29 122.5 -93t47.5 -163q0 -146 -120 -238t-330 -92q-76 0 -141 14t-110 36t-80.5 52.5t-55.5 60.5t-31 63z" />
<glyph unicode="&#x438;" horiz-adv-x="1206" d="M139 0v1081h162v-829l602 829h164v-1081h-166v825l-600 -825h-162z" />
<glyph unicode="&#x439;" horiz-adv-x="1206" d="M139 0v1081h162v-829l602 829h164v-1081h-166v825l-600 -825h-162zM332 1481h133q0 -64 40.5 -103t127.5 -39q86 0 127 39.5t41 102.5h133q0 -113 -78 -185.5t-223 -72.5t-223 72.5t-78 185.5z" />
<glyph unicode="&#x43a;" horiz-adv-x="1091" d="M139 0v1081h162v-481h98l400 481h202l-454 -538l545 -543h-232l-454 469h-105v-469h-162z" />
<glyph unicode="&#x43b;" horiz-adv-x="1058" d="M25 4l16 139q40 -8 53 -8q28 0 44.5 18.5t33.5 69.5q13 38 22.5 108.5t17 204.5t11 233t10.5 312h687v-1081h-162v940h-371q-5 -82 -13 -217.5t-11.5 -195t-10.5 -141t-14.5 -130t-18.5 -86.5q-13 -48 -34.5 -82t-43 -52.5t-50 -28.5t-49.5 -12.5t-48 -2.5q-50 0 -69 12z " />
<glyph unicode="&#x43c;" horiz-adv-x="1462" d="M139 0v1081h203l389 -792l391 792h201v-1081h-158v838l-372 -740h-123l-373 740v-838h-158z" />
<glyph unicode="&#x43d;" horiz-adv-x="1220" d="M139 0v1081h162v-426h619v426h161v-1081h-161v514h-619v-514h-162z" />
<glyph unicode="&#x43e;" horiz-adv-x="1255" d="M68 541q0 245 160.5 406t400.5 161q160 0 288 -73.5t199.5 -203t71.5 -290.5t-72.5 -291t-201 -203.5t-287.5 -73.5q-242 0 -400.5 160.5t-158.5 407.5zM233 541q0 -184 111 -302t283 -118q173 0 285 118.5t112 301.5q0 182 -112 301t-285 119q-172 0 -283 -119.5 t-111 -300.5z" />
<glyph unicode="&#x43f;" horiz-adv-x="1204" d="M139 0v1081h926v-1081h-162v940h-602v-940h-162z" />
<glyph unicode="&#x440;" horiz-adv-x="1263" d="M139 -383v1464h156v-168q13 18 27 35.5t49.5 49t74 54t98.5 39.5t126 17q229 0 376.5 -158.5t147.5 -406.5q0 -252 -142.5 -411t-369.5 -159q-64 0 -122.5 15.5t-99.5 38t-75.5 52t-53 51.5t-30.5 42v-555h-162zM295 543q0 -194 105.5 -308t263.5 -114q159 0 261.5 117.5 t102.5 304.5q0 188 -105 303t-264 115q-163 0 -263.5 -121.5t-100.5 -296.5z" />
<glyph unicode="&#x441;" horiz-adv-x="1056" d="M68 541q0 241 157.5 404t390.5 163q130 0 225.5 -44.5t153.5 -100.5l-55 -140q-47 49 -129 92t-190 43q-168 0 -276.5 -118.5t-108.5 -298.5q0 -177 112 -298.5t277 -121.5q180 0 321 141l49 -137q-20 -21 -50 -43.5t-77.5 -49t-113.5 -43t-136 -16.5q-157 0 -283 74.5 t-196.5 204.5t-70.5 289z" />
<glyph unicode="&#x442;" horiz-adv-x="1021" d="M41 940v141h940v-141h-389v-940h-162v940h-389z" />
<glyph unicode="&#x443;" horiz-adv-x="1048" d="M12 1081h176l342 -872l332 872h172l-575 -1448h-162l154 377z" />
<glyph unicode="&#x444;" horiz-adv-x="1349" d="M74 541q0 227 142 382.5t378 180.5v377h162v-377q239 -24 379.5 -179.5t140.5 -383.5t-141.5 -383.5t-378.5 -180.5v-360h-162v360q-239 23 -379.5 178t-140.5 386zM240 541q0 -169 92 -281t262 -135v829q-170 -23 -262 -135t-92 -278zM756 125q170 23 263 135.5 t93 280.5q0 167 -92.5 278.5t-263.5 134.5v-829z" />
<glyph unicode="&#x445;" horiz-adv-x="1040" d="M23 0l401 559l-373 522h191l278 -407l279 407h190l-373 -522l402 -559h-187l-311 438l-313 -438h-184z" />
<glyph unicode="&#x446;" horiz-adv-x="1232" d="M139 0v1081h162v-940h559v940h162v-940h141v-432h-153v291h-871z" />
<glyph unicode="&#x447;" horiz-adv-x="1036" d="M92 768v313h156v-311q0 -93 53.5 -142.5t173.5 -49.5q40 0 80 5t83 17t70 37.5t27 60.5v383h162v-1081h-162v504q-37 -34 -111 -55t-167 -21q-177 0 -271 94.5t-94 245.5z" />
<glyph unicode="&#x448;" horiz-adv-x="1583" d="M139 0v1081h162v-940h410v940h161v-940h410v940h162v-1081h-1305z" />
<glyph unicode="&#x449;" horiz-adv-x="1654" d="M139 0v1081h162v-940h410v940h161v-940h410v940h162v-940h141v-432h-153v291h-1293z" />
<glyph unicode="&#x44a;" horiz-adv-x="1241" d="M41 940v141h551v-422h209q87 0 155 -19t110 -50.5t69.5 -76.5t38 -91.5t10.5 -99.5q0 -150 -96.5 -236t-249.5 -86h-408v940h-389zM592 135h205q105 0 163 48.5t58 146.5q0 100 -58.5 147t-154.5 47h-213v-389z" />
<glyph unicode="&#x44b;" horiz-adv-x="1368" d="M139 0v1081h162v-422h199q87 0 155 -19t110 -50.5t69.5 -76.5t38 -91.5t10.5 -99.5q0 -150 -96.5 -236t-249.5 -86h-398zM301 135h195q105 0 163 48.5t58 146.5q0 100 -58.5 147t-154.5 47h-203v-389zM1067 0v1081h162v-1081h-162z" />
<glyph unicode="&#x44c;" horiz-adv-x="950" d="M139 0v1081h162v-422h209q87 0 155 -19t110 -50.5t69.5 -76.5t38 -91.5t10.5 -99.5q0 -150 -96.5 -236t-249.5 -86h-408zM301 135h205q105 0 163 48.5t58 146.5q0 100 -58.5 147t-154.5 47h-213v-389z" />
<glyph unicode="&#x44d;" horiz-adv-x="1062" d="M86 104l49 138q142 -121 309 -121q153 0 251.5 98t117.5 254h-620v133h620q-16 159 -107.5 255.5t-248.5 96.5q-72 0 -140.5 -23.5t-103.5 -46.5t-63 -48l-56 139q152 129 367 129q160 0 280.5 -75.5t182 -203.5t61.5 -290q0 -160 -64 -288t-186.5 -203t-283.5 -75 q-89 0 -172.5 27.5t-122.5 52.5t-70 51z" />
<glyph unicode="&#x44e;" horiz-adv-x="1695" d="M139 0v1081h162v-428h277q35 202 182.5 328.5t349.5 126.5q156 0 275 -74t181 -202t62 -291q0 -244 -148.5 -406t-371.5 -162q-238 0 -384.5 151t-154.5 392h-268v-516h-162zM735 541q0 -189 99 -304.5t274 -115.5q155 0 255.5 118.5t100.5 301.5q0 186 -95 303t-261 117 q-163 0 -268 -119.5t-105 -300.5z" />
<glyph unicode="&#x44f;" horiz-adv-x="1011" d="M37 0l272 479q-88 33 -138 112t-50 179q0 150 96 230.5t283 80.5h372v-1081h-161v455h-252l-248 -455h-174zM287 768q0 -92 53 -134t160 -42h211v348h-203q-221 0 -221 -172z" />
<glyph unicode="&#x450;" horiz-adv-x="1165" d="M70 537q0 127 41 235t112 181t166 114t201 41q234 0 372 -153t138 -400q0 -29 -2 -49h-862q1 -180 109 -284.5t278 -104.5q217 0 335 166l107 -78q-24 -41 -61 -79t-90.5 -74t-129.5 -57.5t-163 -21.5q-245 0 -398 157t-153 407zM244 627h690q-7 162 -105 252t-239 90 q-135 0 -236 -96t-110 -246zM369 1505h176l147 -291h-143z" />
<glyph unicode="&#x451;" horiz-adv-x="1165" d="M70 537q0 127 41 235t112 181t166 114t201 41q234 0 372 -153t138 -400q0 -29 -2 -49h-862q1 -180 109 -284.5t278 -104.5q217 0 335 166l107 -78q-24 -41 -61 -79t-90.5 -74t-129.5 -57.5t-163 -21.5q-245 0 -398 157t-153 407zM244 627h690q-7 162 -105 252t-239 90 q-135 0 -236 -96t-110 -246zM326 1358q0 42 30 72t72 30q44 0 73 -30t29 -72q0 -43 -29 -73t-73 -30q-43 0 -72.5 30t-29.5 73zM662 1358q0 42 29 72t73 30q42 0 72 -30t30 -72q0 -43 -29.5 -73t-72.5 -30q-44 0 -73 30t-29 73z" />
<glyph unicode="&#x452;" horiz-adv-x="1169" d="M10 1147v135h170v199h162v-199h387v-135h-387v-342q41 76 126 128t189 52q180 0 278.5 -118.5t98.5 -307.5v-594q0 -98 -27.5 -169t-77 -111t-110.5 -58t-137 -18q-16 0 -35 2t-30 4l-11 2v139q39 -6 66 -6q101 0 150.5 53t49.5 166v596q0 125 -70.5 199t-180.5 74 q-123 0 -201 -82.5t-78 -214.5v-541h-162v1147h-170z" />
<glyph unicode="&#x453;" horiz-adv-x="870" d="M139 0v1081h676v-141h-514v-940h-162zM338 1214l145 291h179l-183 -291h-141z" />
<glyph unicode="&#x454;" horiz-adv-x="1044" d="M78 539q0 161 65 290t187 204t280 75q211 0 363 -129l-55 -139q-131 118 -304 118q-156 0 -252 -98.5t-114 -257.5h622v-133h-620q19 -155 117 -251.5t251 -96.5q164 0 306 121l49 -138q-22 -18 -48.5 -36t-73 -42t-109.5 -38.5t-130 -14.5q-161 0 -283.5 75t-186.5 203 t-64 288z" />
<glyph unicode="&#x455;" horiz-adv-x="862" d="M59 201l113 73q87 -163 270 -163q85 0 143 47.5t58 128.5q0 50 -30 87.5t-78 62t-105.5 47t-115.5 49.5t-106 61t-78 90t-30 129q0 134 98 214.5t248 80.5q71 0 132 -20.5t100.5 -52.5t64.5 -65.5t37 -66.5l-118 -67q-70 137 -226 137q-77 0 -128.5 -42.5t-51.5 -111.5 q0 -48 30 -84.5t78 -60t106 -45t116.5 -48.5t106.5 -61.5t78 -92t30 -132.5q0 -141 -104.5 -231.5t-262.5 -90.5q-65 0 -121 14.5t-95 36.5t-71.5 53.5t-52 61t-35.5 62.5z" />
<glyph unicode="&#x456;" d="M109 1360q0 46 32 78t78 32q47 0 80 -32t33 -78q0 -47 -33 -80t-80 -33q-46 0 -78 33t-32 80zM139 0v1081h162v-1081h-162z" />
<glyph unicode="&#x457;" d="M-47 1358q0 42 30 72t72 30q44 0 73.5 -30t29.5 -72q0 -43 -29.5 -73t-73.5 -30q-43 0 -72.5 30t-29.5 73zM139 0v1081h162v-1081h-162zM289 1358q0 42 29 72t73 30q43 0 73 -30t30 -72q0 -43 -30 -73t-73 -30q-44 0 -73 30t-29 73z" />
<glyph unicode="&#x458;" d="M-86 -248q27 -2 45 -2q90 0 135 53t45 166v1112h162v-1116q0 -98 -25.5 -169t-72.5 -111t-104.5 -58t-129.5 -18l-55 4v139zM109 1360q0 46 32 78t78 32q47 0 80 -32t33 -78q0 -47 -33 -80t-80 -33q-46 0 -78 33t-32 80z" />
<glyph unicode="&#x459;" horiz-adv-x="1568" d="M25 4l16 139q40 -8 53 -8q28 0 44.5 18.5t33.5 69.5q13 38 22.5 108.5t17 204t11 233t10.5 312.5h687v-422h208q87 0 155 -19t110 -50.5t69.5 -76.5t38 -91.5t10.5 -99.5q0 -150 -96.5 -236t-249.5 -86h-407v940h-371q-5 -81 -13 -218.5t-11.5 -195.5t-10.5 -140 t-14.5 -130t-18.5 -86q-13 -48 -34.5 -82t-43 -52.5t-50 -28.5t-49.5 -12.5t-48 -2.5q-50 0 -69 12zM920 135h204q105 0 163.5 48.5t58.5 146.5q0 100 -58.5 147t-154.5 47h-213v-389z" />
<glyph unicode="&#x45a;" horiz-adv-x="1687" d="M139 0v1081h162v-419h576v419h161v-422h209q87 0 155 -19t110 -50.5t69.5 -76.5t38 -91.5t10.5 -99.5q0 -150 -96.5 -236t-249.5 -86h-407v520h-576v-520h-162zM1038 135h205q105 0 163 48.5t58 146.5q0 100 -58.5 147t-154.5 47h-213v-389z" />
<glyph unicode="&#x45b;" horiz-adv-x="1163" d="M10 1147v135h170v199h162v-199h387v-135h-387v-342q41 76 126 128t189 52q180 0 278.5 -118.5t98.5 -307.5v-559h-162v565q0 125 -70.5 199t-180.5 74q-123 0 -201 -82.5t-78 -214.5v-541h-162v1147h-170z" />
<glyph unicode="&#x45c;" horiz-adv-x="1091" d="M139 0v1081h162v-481h98l400 481h202l-454 -538l545 -543h-232l-454 469h-105v-469h-162zM385 1214l145 291h179l-183 -291h-141z" />
<glyph unicode="&#x45d;" horiz-adv-x="1206" d="M139 0v1081h162v-829l602 829h164v-1081h-166v825l-600 -825h-162zM410 1505h176l147 -291h-143z" />
<glyph unicode="&#x45e;" horiz-adv-x="1048" d="M12 1081h176l342 -872l332 872h172l-575 -1448h-162l154 377zM250 1481h133q0 -64 40.5 -103t127.5 -39q86 0 127 39.5t41 102.5h133q0 -113 -78 -185.5t-223 -72.5t-223 72.5t-78 185.5z" />
<glyph unicode="&#x45f;" horiz-adv-x="1161" d="M139 0v1081h162v-940h559v940h162v-1081h-365v-291h-153v291h-365z" />
<glyph unicode="&#x490;" horiz-adv-x="1030" d="M162 0v1434h647v307h145v-459h-626v-1282h-166z" />
<glyph unicode="&#x491;" horiz-adv-x="870" d="M139 0v1081h541v297h156v-438h-535v-940h-162z" />
<glyph unicode="&#x492;" horiz-adv-x="1112" d="M51 651v152h232v631h764v-152h-598v-479h423v-152h-423v-651h-166v651h-232z" />
<glyph unicode="&#x493;" horiz-adv-x="960" d="M37 461v141h192v479h676v-141h-514v-338h340v-141h-340v-461h-162v461h-192z" />
<glyph unicode="&#x49a;" horiz-adv-x="1374" d="M162 0v1434h166v-613h121l518 613h198l-585 -686l505 -596h228v-535h-162v383h-139l-570 682h-114v-682h-166z" />
<glyph unicode="&#x49b;" horiz-adv-x="1148" d="M139 0v1081h162v-481h98l400 481h202l-454 -538l401 -402h164v-432h-154v291h-98l-454 469h-105v-469h-162z" />
<glyph unicode="&#x4a2;" horiz-adv-x="1507" d="M162 0v1434h166v-629h762v629h165v-1282h175v-535h-162v383h-178v653h-762v-653h-166z" />
<glyph unicode="&#x4a3;" horiz-adv-x="1292" d="M139 0v1081h162v-426h619v426h161v-940h142v-432h-154v291h-149v514h-619v-514h-162z" />
<glyph unicode="&#x4ae;" horiz-adv-x="1089" d="M18 1434h191l336 -605l342 605h184l-444 -762v-672h-164v672z" />
<glyph unicode="&#x4af;" horiz-adv-x="1024" d="M12 1081h174l328 -825l326 825h172l-418 -1005v-459h-162v459z" />
<glyph unicode="&#x4b0;" horiz-adv-x="1089" d="M18 1434h191l336 -605l342 605h184l-444 -762v-6h305v-152h-305v-514h-164v514h-309v152h309v6z" />
<glyph unicode="&#x4b1;" horiz-adv-x="1024" d="M12 1081h174l328 -833l326 833h172l-416 -1007h264v-142h-266v-315h-162v315h-266v142h264z" />
<glyph unicode="&#x4b2;" horiz-adv-x="1384" d="M27 0l487 741l-453 693h199l356 -566l359 566h194l-452 -693l389 -589h217v-535h-162v383h-143l-406 616l-399 -616h-186z" />
<glyph unicode="&#x4b3;" horiz-adv-x="1144" d="M23 0l401 559l-373 522h191l278 -407l279 407h190l-373 -522l299 -418h193v-432h-154v291h-123l-311 438l-313 -438h-184z" />
<glyph unicode="&#x4d8;" horiz-adv-x="1558" d="M123 700q0 37 2 64h1178q-3 251 -156 398t-395 147q-86 0 -161 -20.5t-129 -56.5t-91 -71.5t-66 -77.5l-137 78q33 54 81.5 103.5t119 96.5t170.5 75t215 28q212 0 377 -93t256.5 -262t91.5 -386q0 -167 -54 -309t-147 -238.5t-218 -150.5t-265 -54q-205 0 -358 92.5 t-233.5 257t-80.5 379.5zM301 616q4 -118 46 -212.5t110 -154t154.5 -91t183.5 -31.5q94 0 181.5 35.5t154.5 98.5t110 155.5t49 199.5h-989z" />
<glyph unicode="&#x4d9;" horiz-adv-x="1165" d="M66 526q0 29 2 49h862q-1 180 -109 285t-278 105q-218 0 -336 -166l-107 78q24 41 61 79t91 73.5t130 57t163 21.5q245 0 398 -156.5t153 -406.5q0 -127 -41.5 -235t-112 -181.5t-166 -114.5t-201.5 -41q-234 0 -371.5 153t-137.5 400zM231 455q7 -162 105 -252t239 -90 q136 0 237 96t110 246h-691z" />
<glyph unicode="&#x4e8;" horiz-adv-x="1622" d="M80 717q0 208 95.5 378.5t263 267.5t372.5 97q206 0 373.5 -98t262.5 -268.5t95 -376.5q0 -208 -95.5 -378.5t-263.5 -268t-374 -97.5q-205 0 -372 96.5t-262 267t-95 380.5zM254 653q22 -230 178 -377t379 -147t379 147t176 377h-1112zM256 803h1108q-29 220 -183.5 361 t-369.5 141q-217 0 -371.5 -141t-183.5 -361z" />
<glyph unicode="&#x4e9;" horiz-adv-x="1255" d="M68 541q0 245 160.5 406t400.5 161q160 0 288 -73.5t199.5 -203t71.5 -290.5t-72.5 -291t-201 -203.5t-287.5 -73.5q-242 0 -400.5 160.5t-158.5 407.5zM238 473q22 -159 127.5 -255.5t261.5 -96.5t263.5 97.5t127.5 254.5h-780zM240 618h778q-25 152 -132 247.5 t-259 95.5q-153 0 -258 -95.5t-129 -247.5z" />
<glyph unicode="&#x1e80;" horiz-adv-x="1929" d="M23 1434h178l329 -1223l353 1223h164l352 -1223l332 1223h176l-408 -1434h-186l-348 1190l-349 -1190h-184zM705 1815h176l147 -291h-143z" />
<glyph unicode="&#x1e81;" horiz-adv-x="1671" d="M14 1065h176l279 -877q3 7 287 877h159l285 -877l281 877h176l-361 -1065h-178l-282 846l-285 -846h-178zM592 1485h176l147 -291h-143z" />
<glyph unicode="&#x1e82;" horiz-adv-x="1839" d="M23 1434h178l329 -1223l353 1223h164l352 -1223l332 1223h176l-408 -1434h-186l-348 1190l-349 -1190h-184zM868 1524l146 291h178l-182 -291h-142z" />
<glyph unicode="&#x1e83;" horiz-adv-x="1671" d="M14 1065h176l279 -877q3 7 287 877h159l285 -877l281 877h176l-361 -1065h-178l-282 846l-285 -846h-178zM762 1194l145 291h178l-182 -291h-141z" />
<glyph unicode="&#x1e84;" horiz-adv-x="1929" d="M23 1434h178l329 -1223l353 1223h164l352 -1223l332 1223h176l-408 -1434h-186l-348 1190l-349 -1190h-184zM694 1663q0 41 30 71.5t73 30.5q44 0 73 -30t29 -72q0 -43 -29 -72.5t-73 -29.5q-43 0 -73 29.5t-30 72.5zM1030 1663q0 42 29.5 72t73.5 30q42 0 72 -30t30 -72 q0 -43 -29.5 -72.5t-72.5 -29.5q-44 0 -73.5 29.5t-29.5 72.5z" />
<glyph unicode="&#x1e85;" horiz-adv-x="1671" d="M14 1065h176l279 -877q3 7 287 877h159l285 -877l281 877h176l-361 -1065h-178l-282 846l-285 -846h-178zM563 1337q0 42 30.5 72.5t72.5 30.5q43 0 72.5 -30.5t29.5 -72.5q0 -43 -29 -72.5t-73 -29.5q-43 0 -73 29.5t-30 72.5zM899 1337q0 42 29.5 72.5t72.5 30.5 q42 0 72.5 -30.5t30.5 -72.5q0 -43 -30 -72.5t-73 -29.5q-44 0 -73 29.5t-29 72.5z" />
<glyph unicode="&#x1ef2;" horiz-adv-x="1089" d="M18 1434h191l336 -605l342 605h184l-444 -762v-672h-164v672zM297 1815h176l148 -291h-144z" />
<glyph unicode="&#x1ef3;" horiz-adv-x="1040" d="M12 1065h176l338 -856l328 856h172l-571 -1432h-162l153 377zM315 1485h177l147 -291h-143z" />
<glyph unicode="&#x2000;" horiz-adv-x="1022" />
<glyph unicode="&#x2001;" horiz-adv-x="2044" />
<glyph unicode="&#x2002;" horiz-adv-x="1022" />
<glyph unicode="&#x2003;" horiz-adv-x="2044" />
<glyph unicode="&#x2004;" horiz-adv-x="681" />
<glyph unicode="&#x2005;" horiz-adv-x="511" />
<glyph unicode="&#x2006;" horiz-adv-x="340" />
<glyph unicode="&#x2007;" horiz-adv-x="340" />
<glyph unicode="&#x2008;" horiz-adv-x="255" />
<glyph unicode="&#x2009;" horiz-adv-x="408" />
<glyph unicode="&#x200a;" horiz-adv-x="113" />
<glyph unicode="&#x2010;" horiz-adv-x="692" d="M84 541v151h522v-151h-522z" />
<glyph unicode="&#x2011;" horiz-adv-x="692" d="M84 541v151h522v-151h-522z" />
<glyph unicode="&#x2012;" horiz-adv-x="692" d="M84 541v151h522v-151h-522z" />
<glyph unicode="&#x2013;" horiz-adv-x="1228" d="M84 547v139h1061v-139h-1061z" />
<glyph unicode="&#x2014;" horiz-adv-x="1773" d="M84 547v139h1604v-139h-1604z" />
<glyph unicode="&#x2015;" horiz-adv-x="1773" d="M84 547v139h1604v-139h-1604z" />
<glyph unicode="&#x2018;" horiz-adv-x="378" d="M70 1141q0 189 157 325l76 -73q-31 -22 -62 -64t-38 -84q45 -7 72.5 -39t27.5 -73q0 -48 -33 -82.5t-80 -34.5q-52 0 -86 34.5t-34 90.5z" />
<glyph unicode="&#x2019;" horiz-adv-x="378" d="M74 1090q32 25 62.5 66.5t37.5 82.5q-44 6 -71 39t-27 74q0 48 31.5 81t78.5 33q53 0 87 -33.5t34 -89.5q0 -188 -157 -327z" />
<glyph unicode="&#x201a;" horiz-adv-x="434" d="M100 88q0 47 33 81t80 34q52 0 86.5 -33.5t34.5 -89.5q0 -188 -158 -328l-76 74q32 25 63 66.5t38 82.5q-45 6 -73 39t-28 74z" />
<glyph unicode="&#x201c;" horiz-adv-x="681" d="M70 1141q0 189 157 325l76 -73q-31 -22 -62 -64t-38 -84q45 -7 72.5 -39t27.5 -73q0 -48 -33 -82.5t-80 -34.5q-52 0 -86 34.5t-34 90.5zM373 1141q0 189 157 325l76 -73q-31 -22 -62 -64t-38 -84q45 -7 72.5 -39t27.5 -73q0 -48 -32.5 -82.5t-79.5 -34.5 q-52 0 -86.5 34.5t-34.5 90.5z" />
<glyph unicode="&#x201d;" horiz-adv-x="681" d="M74 1090q32 25 62.5 66.5t37.5 82.5q-44 6 -71 39t-27 74q0 48 31.5 81t78.5 33q53 0 87 -33.5t34 -89.5q0 -188 -157 -327zM377 1090q32 25 62.5 66.5t37.5 82.5q-44 6 -71 39t-27 74q0 48 31.5 81t78.5 33q53 0 87 -33.5t34 -89.5q0 -188 -157 -327z" />
<glyph unicode="&#x201e;" horiz-adv-x="681" d="M74 -174q32 25 62.5 66.5t37.5 82.5q-44 6 -71 39t-27 74q0 48 31.5 81.5t78.5 33.5q53 0 87 -33.5t34 -89.5q0 -189 -157 -328zM377 -174q32 25 62.5 66.5t37.5 82.5q-44 6 -71 39t-27 74q0 48 31.5 81.5t78.5 33.5q53 0 87 -33.5t34 -89.5q0 -189 -157 -328z" />
<glyph unicode="&#x2020;" horiz-adv-x="774" d="M68 934v143h235v357h162v-357h240v-143h-240v-934h-162v934h-235z" />
<glyph unicode="&#x2021;" horiz-adv-x="804" d="M84 387v143h235v371h-235v143h235v390h160v-390h242v-143h-242v-371h242v-143h-242v-387h-160v387h-235z" />
<glyph unicode="&#x2022;" horiz-adv-x="831" d="M63 635q0 148 101 250t252 102t251.5 -102t100.5 -250t-100.5 -250t-251.5 -102t-252 102t-101 250z" />
<glyph unicode="&#x202f;" horiz-adv-x="408" />
<glyph unicode="&#x2030;" horiz-adv-x="2291" d="M82 1145q0 132 89.5 223.5t223.5 91.5q140 0 232 -91t92 -224q0 -130 -92.5 -220.5t-229.5 -90.5q-135 0 -225 90t-90 221zM145 0l1092 1434h168l-1094 -1434h-166zM219 1145q0 -78 51 -131t129 -53q81 0 131 53t50 131q0 79 -51.5 133.5t-131.5 54.5q-78 0 -128 -54.5 t-50 -133.5zM829 285q0 132 90.5 223.5t225.5 91.5q138 0 229.5 -91.5t91.5 -223.5q0 -131 -91.5 -221.5t-227.5 -90.5t-227 90t-91 222zM967 285q0 -79 51 -133t129 -54q81 0 130.5 53.5t49.5 133.5t-50 133t-132 53q-78 0 -128 -53.5t-50 -132.5zM1571 285 q0 132 90.5 223.5t224.5 91.5q139 0 231.5 -91.5t92.5 -223.5q0 -131 -92.5 -221.5t-229.5 -90.5q-136 0 -226.5 89.5t-90.5 222.5zM1708 285q0 -79 51.5 -133t130.5 -54q80 0 130.5 53.5t50.5 133.5q0 79 -51.5 132.5t-133.5 53.5q-77 0 -127.5 -53.5t-50.5 -132.5z" />
<glyph unicode="&#x2039;" horiz-adv-x="552" d="M70 598l254 377h157l-254 -377l254 -375h-157z" />
<glyph unicode="&#x203a;" horiz-adv-x="552" d="M70 223l254 375l-254 377h157l254 -377l-254 -375h-157z" />
<glyph unicode="&#x2044;" horiz-adv-x="860" d="M-43 -84l797 1602h149l-797 -1602h-149z" />
<glyph unicode="&#x205f;" horiz-adv-x="511" />
<glyph unicode="&#x20ac;" horiz-adv-x="1284" d="M57 510v125h107q-4 46 -4 82q0 40 4 98h-107v125h131q63 229 241 374.5t415 145.5q215 0 350 -88l-70 -135q-118 70 -266 70q-176 0 -306.5 -100.5t-182.5 -266.5h567l-10 -125h-586q-6 -47 -6 -96q0 -43 6 -84h571l-10 -125h-530q50 -166 178 -272.5t307 -106.5 q91 0 168 24.5t123 55.5l67 -133q-45 -38 -142.5 -71.5t-211.5 -33.5q-129 0 -243 42t-198.5 116t-144 170.5t-88.5 208.5h-129z" />
<glyph unicode="&#x20ae;" horiz-adv-x="1069" d="M66 1282v152h938v-152h-386v-338l281 105l45 -131l-326 -119v-164l318 117l45 -131l-363 -134v-487h-165v428l-281 -102l-45 127l326 120v164l-318 -114l-45 127l363 133v399h-387z" />
<glyph unicode="&#x20b4;" horiz-adv-x="1107" d="M53 510v125h217q22 23 47.5 43t62.5 41.5t55.5 31.5t67 34.5t58.5 29.5h-508v125h692q70 67 70 154q0 93 -64 154t-178 61q-45 0 -85 -12t-68 -30.5t-52 -44t-38 -48t-25 -46.5l-139 58q12 33 31 66t53.5 71.5t77 68t106.5 49t137 19.5q186 0 298 -104t112 -262 q0 -87 -31 -154h105v-125h-228q-40 -35 -89 -64.5t-126.5 -66.5t-99.5 -49h543v-125h-699q-47 -59 -47 -145q0 -111 72 -174.5t188 -63.5q129 0 204.5 63t109.5 160l141 -61q-19 -57 -51 -108t-84.5 -100.5t-133.5 -78.5t-180 -29q-197 0 -315.5 114.5t-118.5 287.5 q0 71 23 135h-111z" />
<glyph unicode="&#x20b9;" horiz-adv-x="1120" d="M152 582v145h344q190 0 223 201h-567v143h571q-11 101 -66.5 159t-158.5 58h-346v144h899v-144h-254q87 -84 102 -217h152v-143h-156q-16 -112 -68 -195.5t-135 -116.5l357 -616h-185l-323 582h-389z" />
<glyph unicode="&#x2116;" horiz-adv-x="2293" d="M160 0v1434h166l790 -1172v1172h164v-1434h-164l-790 1167v-1167h-166zM1454 1094q0 152 103.5 259t261.5 107t261 -107t103 -259t-102.5 -257.5t-261.5 -105.5t-262 105.5t-103 257.5zM1483 467v151h669v-151h-669zM1593 1094q0 -96 62 -162t164 -66t163.5 65.5 t61.5 162.5t-62 164t-163 67t-163.5 -67t-62.5 -164z" />
<glyph unicode="&#x2122;" horiz-adv-x="1492" d="M59 1319v115h504v-115h-190v-623h-123v623h-191zM641 696v738h150l245 -512l248 512h148v-738h-117v531l-219 -447h-119l-217 447v-531h-119z" />
<glyph unicode="&#x2212;" horiz-adv-x="1126" d="M82 569v138h962v-138h-962z" />
<glyph unicode="&#x25fc;" horiz-adv-x="1064" d="M0 0v1065h1065v-1065h-1065z" />
<glyph unicode="&#xf6c3;" horiz-adv-x="471" d="M129 -176q0 45 30 76.5t74 31.5q51 0 83 -33t32 -87q0 -172 -147 -297l-70 67q29 23 56 60.5t34 76.5q-41 6 -66.5 36.5t-25.5 68.5z" />
<glyph horiz-adv-x="692" d="M84 653v152h522v-152h-522z" />
<glyph horiz-adv-x="1228" d="M84 666v139h1061v-139h-1061z" />
<glyph horiz-adv-x="1773" d="M84 666v139h1604v-139h-1604z" />
<glyph horiz-adv-x="876" d="M70 731l254 377h157l-254 -377l254 -375h-157zM393 731l256 377h158l-256 -377l256 -375h-158z" />
<glyph horiz-adv-x="876" d="M70 356l256 375l-256 377h157l256 -377l-256 -375h-157zM395 356l254 375l-254 377h158l254 -377l-254 -375h-158z" />
<glyph horiz-adv-x="552" d="M70 731l254 377h157l-254 -377l254 -375h-157z" />
<glyph horiz-adv-x="552" d="M70 356l256 375l-256 377h157l256 -377l-256 -375h-157z" />
<glyph horiz-adv-x="612" d="M137 113v1196q0 329 332 329v-141q-170 0 -170 -180v-1213q0 -83 40.5 -131.5t129.5 -48.5v-141q-161 0 -246.5 82t-85.5 248z" />
<glyph horiz-adv-x="612" d="M143 -76q89 0 129.5 48.5t40.5 131.5v1213q0 180 -170 180v141q332 0 332 -329v-1196q0 -166 -85.5 -248t-246.5 -82v141z" />
<glyph horiz-adv-x="612" d="M137 -217v1855h332v-141h-170v-1573h170v-141h-332z" />
<glyph horiz-adv-x="624" d="M143 -76h170v1573h-170v141h332v-1855h-332v141z" />
<glyph horiz-adv-x="698" d="M74 637v147q75 0 112 54t37 178v293q0 329 332 329v-141q-170 0 -170 -180v-338q0 -68 -16 -121.5t-40.5 -82.5t-44 -43.5t-36.5 -20.5q13 -4 28 -13.5t35 -30.5t36 -49t27 -74.5t11 -101.5v-338q0 -180 170 -180v-141q-332 0 -332 330v293q0 123 -37.5 177t-111.5 54z " />
<glyph horiz-adv-x="516" d="M180 -344v2025h156v-2025h-156z" />
<glyph horiz-adv-x="698" d="M143 -76q170 0 170 180v338q0 68 16 121.5t40.5 82.5t44.5 44t37 21q-17 6 -37 20.5t-44.5 43.5t-40.5 82.5t-16 121.5v338q0 180 -170 180v141q332 0 332 -329v-293q0 -124 37.5 -178t112.5 -54v-147q-74 0 -112 -54t-38 -177v-293q0 -330 -332 -330v141z" />
<glyph horiz-adv-x="872" d="M51 -166l621 1757h149l-620 -1757h-150z" />
<glyph horiz-adv-x="872" d="M51 1591h150l620 -1757h-149z" />
<glyph horiz-adv-x="528" d="M150 1346q0 47 33.5 80.5t80.5 33.5q48 0 82.5 -33.5t34.5 -80.5t-35 -81t-82 -34t-80.5 34t-33.5 81zM180 0l15 1073h141l14 -1073h-170z" />
<glyph horiz-adv-x="956" d="M80 354q0 68 20 127.5t52.5 103.5t71.5 84t78 75.5t71.5 70.5t52.5 77.5t20 88.5v90h160v-96q0 -56 -19.5 -107t-51 -90.5t-69.5 -77t-76 -74.5t-69.5 -75.5t-51 -87.5t-19.5 -103q0 -105 66 -172t180 -67q173 0 252 172l126 -60q-13 -36 -32.5 -69.5t-52 -69t-73 -61.5 t-99 -43t-125.5 -17q-189 0 -300.5 107t-111.5 274zM410 1343q0 48 33.5 82.5t80.5 34.5t81 -35t34 -82t-34 -80.5t-81 -33.5t-80.5 33.5t-33.5 80.5z" />
<glyph horiz-adv-x="462" d="M115 731q0 47 33.5 81t80.5 34t82 -34t35 -81t-35 -82t-82 -35t-80.5 34.5t-33.5 82.5z" />
<glyph horiz-adv-x="831" d="M63 725q0 148 101 250t252 102t251.5 -102t100.5 -250t-100.5 -250t-251.5 -102t-252 102t-101 250z" />
<glyph horiz-adv-x="1134" d="M104 717q0 146 13.5 258.5t46.5 206t85.5 153.5t132 92.5t185.5 32.5t185.5 -32.5t132 -92.5t85.5 -153.5t46.5 -206t13.5 -258.5t-13.5 -258.5t-46.5 -206t-85.5 -153.5t-132 -93t-185.5 -33t-185.5 33t-132 93t-85.5 153.5t-46.5 206t-13.5 258.5zM272 717 q0 -81 2 -139.5t9 -124t20 -110.5t35 -88.5t52.5 -69t75 -41t101.5 -15.5t101.5 15.5t75 41.5t52 69.5t34 88t19.5 110.5t9 124t2 139t-2 139t-9 124t-19.5 110.5t-34 88t-52 69.5t-75 41.5t-101.5 15.5t-101.5 -16t-75 -41.5t-52.5 -69.5t-35 -89t-20 -110t-9 -123.5 t-2 -138.5z" />
<glyph horiz-adv-x="1134" d="M178 1270l371 164h135v-1282h270v-152h-727v152h291v1114l-280 -127z" />
<glyph horiz-adv-x="1134" d="M131 0v61q0 81 37.5 160.5t97.5 146.5t132.5 133.5t145 132t132.5 130t97.5 139t37.5 148.5q0 112 -69.5 183t-190.5 71q-209 0 -268 -222l-146 41q8 40 24.5 81t50.5 88t79 83t114 60t150 24q199 0 312.5 -114t113.5 -291q0 -87 -35.5 -171t-92.5 -152.5t-125.5 -134 t-138.5 -124t-128.5 -112t-96.5 -109t-42 -105.5h679v-147h-870z" />
<glyph horiz-adv-x="1134" d="M117 287l141 51q68 -211 303 -211q124 0 205.5 81t81.5 206q0 126 -88 203t-248 77h-111v133l379 457h-616v150h803v-156l-375 -438q57 0 115 -14.5t114.5 -47.5t99.5 -81t70 -120t27 -159q0 -190 -130.5 -316.5t-324.5 -126.5q-102 0 -183 28t-132.5 76t-82.5 99 t-48 109z" />
<glyph horiz-adv-x="1134" d="M57 362v125l654 947h176v-924h188v-148h-188v-362h-164v362h-666zM240 510h483v709z" />
<glyph horiz-adv-x="1134" d="M117 287l143 51q28 -95 103 -153t200 -58q132 0 209.5 90.5t77.5 228.5q0 137 -81.5 228.5t-219.5 91.5q-78 0 -132.5 -25t-105.5 -69l-139 24l31 738h731v-152h-582l-20 -442q101 69 239 69q198 0 322.5 -127t124.5 -327q0 -207 -124.5 -344.5t-324.5 -137.5 q-80 0 -149 19.5t-117.5 50.5t-87 73t-61.5 84t-37 87z" />
<glyph horiz-adv-x="1134" d="M109 602q0 858 530 858q174 0 324 -102l-76 -127q-104 74 -242 74q-83 0 -148 -32.5t-104.5 -84.5t-65.5 -124t-36 -144.5t-10 -151.5q48 68 127 115t192 47q198 0 312 -129t114 -334q0 -229 -122 -361.5t-331 -132.5q-464 0 -464 629zM276 580q0 -79 6 -139t25 -121.5 t51.5 -101t88.5 -64.5t133 -25q127 0 203.5 87.5t76.5 246.5q0 138 -73.5 226.5t-208.5 88.5q-101 0 -178.5 -53.5t-123.5 -144.5z" />
<glyph horiz-adv-x="1134" d="M117 1282v152h901v-127l-526 -1307h-177l523 1282h-721z" />
<glyph horiz-adv-x="1134" d="M96 401q0 77 24.5 142.5t64.5 108.5t78 70.5t77 43.5q-32 15 -63.5 41t-63 64.5t-51 92t-19.5 113.5q0 170 119.5 276.5t302.5 106.5q185 0 304.5 -106.5t119.5 -276.5q0 -60 -19.5 -113.5t-50.5 -92t-62.5 -64.5t-63.5 -41q39 -16 77 -43.5t77.5 -70.5t64 -108.5 t24.5 -142.5q0 -191 -131.5 -309.5t-339.5 -118.5t-338.5 118.5t-130.5 309.5zM266 401q0 -115 80 -195.5t219 -80.5q140 0 219.5 80.5t79.5 195.5q0 129 -84 205t-215 76q-130 0 -214.5 -76t-84.5 -205zM311 1071q0 -98 72.5 -167.5t181.5 -69.5q111 0 183.5 69.5 t72.5 167.5q0 101 -68 168.5t-188 67.5t-187 -67.5t-67 -168.5z" />
<glyph horiz-adv-x="1134" d="M109 967q0 229 121.5 361t330.5 132q465 0 465 -629q0 -858 -530 -858q-173 0 -324 103l76 127q104 -74 241 -74q83 0 148 32.5t105 84.5t66 124t36 144.5t10 151.5q-48 -68 -127 -115t-192 -47q-198 0 -312 129t-114 334zM274 971q0 -138 74 -227t209 -89 q101 0 178 53.5t123 145.5q0 79 -6 139t-25 121.5t-51 101t-88 64.5t-133 25q-128 0 -204.5 -87.5t-76.5 -246.5z" />
<glyph horiz-adv-x="1214" d="M88 481q0 112 43 214.5t137 187.5t226 123q-55 25 -93 45t-80 49.5t-66.5 60t-41 73t-16.5 91.5q0 108 91.5 180t278.5 72q96 0 226.5 -30.5t226.5 -84.5l-8 -157q-118 67 -240.5 96t-224.5 29q-185 0 -185 -109q0 -36 27 -68t72.5 -59t104.5 -54t124.5 -58t130.5 -67 t124 -85.5t104.5 -108t72.5 -140.5t27 -177q0 -125 -42.5 -227.5t-115.5 -168t-168 -100.5t-202 -35q-231 0 -382 143.5t-151 364.5zM252 481q0 -160 103 -260t266 -100q165 0 264.5 109t99.5 284q0 81 -25.5 146.5t-74.5 114.5t-101 82.5t-125 68.5q-187 -38 -297 -154.5 t-110 -290.5z" />
<glyph horiz-adv-x="1069" d="M66 975v151h938v-151h-386v-975h-165v975h-387zM66 1282v152h938v-152h-938z" />
<glyph horiz-adv-x="1142" d="M72 311v144h192v161h-192v148h192v670h393q197 0 312.5 -108t115.5 -298q0 -188 -118.5 -300t-309.5 -112h-227v-161h551v-144h-551v-311h-166v311h-192zM430 764h213q128 0 200 71t72 193q0 121 -72 189.5t-200 68.5h-213v-522z" />
<glyph horiz-adv-x="923" d="M160 1481h133q0 -64 40.5 -103t127.5 -39q86 0 127 39.5t41 102.5h133q0 -113 -78 -185.5t-223 -72.5t-223 72.5t-78 185.5z" />
<glyph horiz-adv-x="1001" d="M338 1214l145 291h179l-183 -291h-141z" />
<glyph horiz-adv-x="1001" d="M340 1505h176l148 -291h-144z" />
<glyph horiz-adv-x="1001" d="M229 1358q0 42 30.5 72t72.5 30q44 0 73 -30t29 -72q0 -43 -29 -73t-73 -30q-43 0 -73 30t-30 73zM565 1358q0 42 29.5 72t73.5 30q42 0 72 -30t30 -72q0 -43 -29.5 -73t-72.5 -30q-44 0 -73.5 30t-29.5 73z" />
<glyph horiz-adv-x="923" d="M133 1796h135q0 -66 47 -106.5t146 -40.5q98 0 145 40.5t47 106.5h135q0 -116 -84.5 -191t-242.5 -75t-243 75t-85 191z" />
<glyph horiz-adv-x="1001" d="M338 1524l145 291h179l-183 -291h-141z" />
<glyph horiz-adv-x="1001" d="M340 1815h176l148 -291h-144z" />
<glyph horiz-adv-x="970" d="M256 1663q0 42 30 72t72 30q44 0 73.5 -30t29.5 -72q0 -43 -29.5 -72.5t-73.5 -29.5q-43 0 -72.5 29.5t-29.5 72.5zM592 1663q0 42 29 72t73 30q42 0 72.5 -30.5t30.5 -71.5q0 -43 -30 -72.5t-73 -29.5q-44 0 -73 29.5t-29 72.5z" />
</font>
</defs>
</svg>
