<svg id="Layer_1" data-name="Layer 1" xmlns="http://www.w3.org/2000/svg" viewBox="0 0 64 64"><defs><style>.cls-1{fill:#9da08a;}</style></defs><title>handshake</title><path class="cls-1" d="M62.44,30.76,52.61,13.31a1.88,1.88,0,0,0-1.64-1,1.85,1.85,0,0,0-1,.27L46,15a2,2,0,0,0-.67,2.61l.55,1a5.43,5.43,0,0,1-2.05.35,18.63,18.63,0,0,1-2.42-.47,25.83,25.83,0,0,0-6-.88h-.16c-3.31,0-9,.35-10.3,2.1l-.57.79-1.06-.16a13.22,13.22,0,0,1-3.12-.68c-.43-.25-1.22-.73-2-1.23l.45-.8A2,2,0,0,0,18,15l-4-2.44a1.86,1.86,0,0,0-1-.27,1.88,1.88,0,0,0-1.64,1L1.56,30.76a2,2,0,0,0,.67,2.61l4,2.43a1.85,1.85,0,0,0,1,.27,1.89,1.89,0,0,0,1.64-1l.79-1.4.72.8L12,36.63l-.27.37a3.5,3.5,0,0,0,.79,4.67,3.58,3.58,0,0,0,2,.82,3.72,3.72,0,0,0,1.36,3.09,3.54,3.54,0,0,0,2.24.83,3.15,3.15,0,0,0,.58-.06,3.77,3.77,0,0,0,1.27,2,3.54,3.54,0,0,0,2.24.83,3.08,3.08,0,0,0,1-.15,3.78,3.78,0,0,0,1.2,1.79,3.55,3.55,0,0,0,2.24.83A2.92,2.92,0,0,0,29,50.48l.49-.67a24.8,24.8,0,0,0,3.6,1,9.15,9.15,0,0,0,2,.24,5,5,0,0,0,2.37-.51,6.68,6.68,0,0,0,2.26-2.17,4.45,4.45,0,0,0,2.56-.53,3.81,3.81,0,0,0,1.53-2.71,4.23,4.23,0,0,0,2.43-.75,3.66,3.66,0,0,0,1.33-2.61A3.47,3.47,0,0,0,51.09,40a3.33,3.33,0,0,0,0-3.32,9.47,9.47,0,0,0,1.63-1.2c.4-.36.68-.66.93-.92a10.36,10.36,0,0,1,.77-.75l.72,1.29a1.88,1.88,0,0,0,1.64,1,1.85,1.85,0,0,0,1-.27l4-2.43A2,2,0,0,0,62.44,30.76ZM47,16.69,51,14.28l9.81,17.45-3.95,2.4Zm5.28,16.56c-.24.25-.49.51-.83.82a7.25,7.25,0,0,1-1.64,1.14h0l-1-.8h0c-.06,0-.93-.78-2.77-2.14-1.25-.93-3-2.15-5.17-3.66l-1.4-.91c-3.27-2-7.27-4-7.46-4.14a1,1,0,0,0-.43-.1,1,1,0,0,0-.29,0l-2.51.8a1,1,0,0,0-.53.42s-2.2,3.58-5.43,3.83l-.43,0a1.71,1.71,0,0,1-.47-.05,2,2,0,0,1,.12-1.06c.65-1.28,4.13-6.11,4.33-6.39l.16-.21c.44-.59,3.91-1.25,8.75-1.3h.14a23.9,23.9,0,0,1,5.55.83,19.83,19.83,0,0,0,2.7.52,7.86,7.86,0,0,0,3.16-.57l6.64,11.8C53.44,32.17,52.59,32.94,52.29,33.25Zm-45.12.89L3.23,31.7,13,14.28,17,16.72Zm20.28,15.2a1,1,0,0,1-.84.4,1.63,1.63,0,0,1-1-.39,1.79,1.79,0,0,1-.67-1.43,1.13,1.13,0,0,1,.2-.63h0l.17-.23.6-.81,1.23-1.67a1,1,0,0,1,.84-.4,1.63,1.63,0,0,1,1,.39,1.59,1.59,0,0,1,.47,2.06l-.64.87-1.18,1.6Zm-5.24-2.06a1.63,1.63,0,0,1-1-.39,1.83,1.83,0,0,1-.68-1.3,1.31,1.31,0,0,1,.06-.44,1.06,1.06,0,0,1,.15-.31l.69-.94L24,40.32a.92.92,0,0,1,.25-.24,1.11,1.11,0,0,1,.59-.16,1.63,1.63,0,0,1,1,.39,1.59,1.59,0,0,1,.47,2.06l-2.23,3-1.09,1.48L23,47A1,1,0,0,1,22.21,47.28Zm-5.69-5a1,1,0,0,1,.12-.22l1-1.34,0-.06.82-1.12h0l2.25-3.06a1,1,0,0,1,.85-.4,1.62,1.62,0,0,1,1,.39,1.59,1.59,0,0,1,.47,2.06l-.18.24a2.84,2.84,0,0,0-.4.44L19.84,42.8l-.66.89a2.86,2.86,0,0,0-.28.48,1,1,0,0,1-.21.17,1.12,1.12,0,0,1-.57.15,1.62,1.62,0,0,1-1-.39A1.68,1.68,0,0,1,16.52,42.26Zm-3.24-4.08,0,0,1.15-1.56.18-.24a1,1,0,0,1,.84-.4,1.63,1.63,0,0,1,1,.39,1.59,1.59,0,0,1,.47,2h0l-.52.7-.14.19-.67.91a1,1,0,0,1-.49.35,1.19,1.19,0,0,1-.36.06,1.73,1.73,0,0,1-1.51-2.4Zm36.13.91a1.83,1.83,0,0,1-2.17.7l-9-5.43a1,1,0,0,0-1,1.64l8.49,5.1a2,2,0,0,1-.63,1.8,3.36,3.36,0,0,1-1.83.32l-7.63-4.42a1,1,0,1,0-1,1.66L42,44.71a2.18,2.18,0,0,1-.69,1.55,3.29,3.29,0,0,1-1.86.17h-.1L33,43.35a1,1,0,1,0-.83,1.73l5.69,2.75a4.2,4.2,0,0,1-1.2,1,5.26,5.26,0,0,1-3.08.09l-.08,0a21.11,21.11,0,0,1-2.76-.74l.3-.41a3.5,3.5,0,0,0-.79-4.67,3.61,3.61,0,0,0-1.76-.79,3.67,3.67,0,0,0-1.31-3.48A3.59,3.59,0,0,0,25.2,38,3.7,3.7,0,0,0,23.84,35a3.54,3.54,0,0,0-2.24-.83,2.93,2.93,0,0,0-2.39,1.18l-.54.73a3.77,3.77,0,0,0-1-1.2A3.55,3.55,0,0,0,15.47,34a2.94,2.94,0,0,0-2.26,1l-1.41-1.76,0,0-1.17-1.3,6.65-11.82c.79.49,1.57,1,2,1.23a12.7,12.7,0,0,0,3.79.91h.08a37.59,37.59,0,0,0-2.85,4.41.94.94,0,0,0-.06.16,3.24,3.24,0,0,0,.16,2.82,2.35,2.35,0,0,0,2,.82c.19,0,.4,0,.6,0,3.59-.28,6-3.41,6.7-4.43l1.81-.57c1.06.54,4.39,2.26,7.07,3.95l1.22.79C42.11,31.77,43.86,33,45.12,34c.85.64,1.72,1.32,2.43,1.88l0,0L49,37A1.57,1.57,0,0,1,49.4,39.09Z"/></svg>