<svg xmlns="http://www.w3.org/2000/svg" xmlns:xlink="http://www.w3.org/1999/xlink" width="36" height="36" viewBox="0 0 36 36">
    <defs>
        <path id="a" d="M0 0h35.557v35.446H0z"/>
    </defs>
    <g fill="none" fill-rule="evenodd">
        <mask id="b" fill="#fff">
            <use xlink:href="#a"/>
        </mask>
        <path fill="#406367" d="M33.95 0H1.496A1.49 1.49 0 0 0 0 1.495v32.511c0 .776.665 1.44 1.495 1.44h17.336V22.154H14.4v-5.539h4.43v-4.43c0-4.597 2.88-6.813 6.98-6.813a40.8 40.8 0 0 1 4.153.222v4.763h-2.825c-2.215 0-2.713 1.052-2.713 2.603v3.655h5.538l-1.108 5.539h-4.43l.11 13.292h9.526a1.49 1.49 0 0 0 1.496-1.495V1.495C35.446.665 34.78 0 33.95 0" mask="url(#b)"/>
    </g>
</svg>
