<?xml version="1.0" encoding="UTF-8"?><svg xmlns="http://www.w3.org/2000/svg" viewBox="0 0 36 36"><defs><style>.d{fill:#486266;}</style></defs><g id="a"/><g id="b"><g id="c"><path class="d" d="M17.99,0C8.04,0,0,8.06,0,17.99c0,7.63,4.74,14.14,11.43,16.76-.16-1.42-.3-3.61,.06-5.17,.33-1.41,2.1-8.94,2.1-8.94,0,0-.53-1.08-.53-2.67,0-2.5,1.45-4.37,3.26-4.37,1.54,0,2.28,1.16,2.28,2.53,0,1.54-.98,3.85-1.5,6-.43,1.79,.9,3.26,2.67,3.26,3.2,0,5.66-3.38,5.66-8.23,0-4.31-3.09-7.32-7.52-7.32-5.12,0-8.13,3.84-8.13,7.8,0,1.54,.59,3.2,1.33,4.1,.15,.18,.16,.34,.12,.52-.13,.56-.44,1.79-.5,2.04-.07,.33-.27,.4-.61,.24-2.22-1.07-3.61-4.35-3.61-6.99,0-5.67,4.12-10.88,11.89-10.88,6.23,0,11.09,4.44,11.09,10.4s-3.91,11.2-9.33,11.2c-1.82,0-3.54-.95-4.12-2.07,0,0-.9,3.44-1.13,4.28-.4,1.57-1.5,3.52-2.24,4.72,1.69,.52,3.47,.8,5.33,.8,9.94,0,17.99-8.06,17.99-17.99-.01-9.95-8.07-18.01-18.01-18.01Z"/></g></g></svg>