<svg id="Capa_1" data-name="Capa 1" xmlns="http://www.w3.org/2000/svg" viewBox="0 0 1000 1000"><defs><style>.cls-1{opacity:0.2;}.cls-2{fill:#fff;}.cls-3{fill:none;}</style></defs><title>OLX-Logo-Monochrome</title><g class="cls-1"><path d="M775.73,223.66A387.36,387.36,0,0,0,500,109.45c-104.18,0-202.09,40.55-275.73,114.21S110.11,395.21,110.11,499.38A389.91,389.91,0,0,0,775.73,775.07,387.36,387.36,0,0,0,889.89,499.38C889.89,395.21,849.36,297.27,775.73,223.66Z"/><path class="cls-2" d="M821.21,628.11l-95-142.31L799,378.61c8.59-12.54,5.22-25.11-5.65-29.68s-26.59-.28-36.57,11.24L692,434.54l-44.72-67.11c-8.44-12.67-27-19.28-41.12-14.74s-21,19.76-15.28,33.9L643,492.34l-74.9,84.75c-10,11.51-11.5,31.4-3.4,44.24L583.41,651c8.14,12.88,21.83,13.08,30.33.51l62.92-92.76,51.05,93.65c5.76,14.08,22.47,22.26,37.15,18.32l45.06-12.3c14.67-4,19.76-17.63,11.29-30.3"/><path class="cls-2" d="M268.92,355.51c-68.64,0-124.25,66.71-124.25,149s55.61,149.1,124.25,149.1,124.23-66.71,124.23-149.1-55.63-149-124.23-149m0,250.41c-31.93,0-57.86-45.37-57.86-101.39S237,403.25,268.92,403.25s57.82,45.35,57.82,101.28-25.9,101.39-57.82,101.39"/><path class="cls-2" d="M431.38,315.47c-17.43-.14-23.46,14.33-22.4,29.09l0,190.5c.55,17.89,9.39,28.89,29.49,29.16l105,.09c16.64.31,25.66-3.54,27.22-17.22v-33c-.19-15.26-15.75-15.19-26.34-15H501.25c-17.1-.16-21.07-3-21.76-19.88l.21-135.33c.32-15.81-5.16-28.38-22.64-28.49Z"/><path class="cls-3" d="M500,111.12A386.39,386.39,0,0,1,775,225c73.44,73.4,113.87,171.08,113.87,275A388.89,388.89,0,0,1,225,775a386.38,386.38,0,0,1-113.86-275c0-103.93,40.43-201.6,113.86-275A386.34,386.34,0,0,1,500,111.12M500,100c-106.88,0-207.32,41.6-282.88,117.17S100,393.17,100,500.05s41.58,207.27,117.12,282.83S393.12,900.06,500,900.06A397.46,397.46,0,0,0,782.88,782.88C858.42,707.32,900,606.89,900,500.05S858.42,292.7,782.88,217.18,606.87,100,500,100Z"/></g></svg>