<svg xmlns="http://www.w3.org/2000/svg" xmlns:xlink="http://www.w3.org/1999/xlink" width="131" height="135" viewBox="0 0 131 135">
    <defs>
        <path id="a" d="M0 .005h109.941v109.941H.001z"/>
        <path id="c" d="M0 .005h55.672v109.941H0z"/>
    </defs>
    <g fill="none" fill-rule="evenodd" transform="translate(-13)">
        <g transform="rotate(45 38.172 95.535)">
            <mask id="b" fill="#fff">
                <use xlink:href="#a"/>
            </mask>
            <path fill="#FFCE32" d="M54.97.005c30.36 0 54.971 24.612 54.971 54.97 0 30.36-24.611 54.971-54.97 54.971-21.424 0-39.986-12.256-49.056-30.14 2.951-2.448 4.871-6.435 4.871-10.938 0-3.925-1.458-7.458-3.787-9.92 1.606-1.628 2.881-3.72 3.62-6.148 1.274-4.193.664-8.454-1.318-11.637 1.814-1.2 3.29-3.115 4.023-5.491 1.42-4.61-.457-9.329-4.223-10.999C18.939 9.808 35.81.005 54.971.005z" mask="url(#b)"/>
            <path fill="#002F34" d="M87.063 56.297c0 2.97 1.33 5.38 4.301 5.38a5.38 5.38 0 1 0 0-10.76c-2.971 0-4.3 2.408-4.3 5.38z" mask="url(#b)"/>
        </g>
        <path fill="#002F34" d="M84.027 105.53a7.485 7.485 0 0 0-10.586 0 7.486 7.486 0 1 0 10.586 0"/>
        <g transform="rotate(45 38.172 95.535)">
            <mask id="d" fill="#fff">
                <use xlink:href="#c"/>
            </mask>
            <path fill="#FFE48D" d="M55.672.005v109.941c-21.714 0-40.526-12.275-49.704-30.182 2.921-2.454 4.818-6.42 4.818-10.896 0-3.925-1.458-7.458-3.787-9.92 1.606-1.628 2.881-3.72 3.62-6.148 1.274-4.193.664-8.454-1.318-11.637 1.814-1.2 3.29-3.115 4.023-5.491 1.41-4.574-.428-9.255-4.135-10.959C19.15 9.826 36.25.005 55.672.005z" mask="url(#d)"/>
        </g>
        <path fill="#002F34" d="M82.413 76.395a4.445 4.445 0 1 0-6.285 6.285 4.445 4.445 0 0 0 6.285-6.285"/>
        <path fill="#406367" d="M76.378 76.177c-1.736 1.736-1.81 4.476-.165 6.12l6.285-6.285c-1.644-1.644-4.384-1.57-6.12.165"/>
        <path fill="#002F34" d="M116.628 73.419c-3.746-3.746-9.818-3.745-13.564 0a9.59 9.59 0 0 0 0 13.564c3.746 3.745 9.819 3.746 13.564 0a9.591 9.591 0 0 0 0-13.564"/>
        <path fill="#406367" d="M81.477 46.983a4.21 4.21 0 1 0-5.954 5.955 4.21 4.21 0 0 0 5.954-5.955M44.346 74.29c-2.1 2.1-2.864 4.744-.763 6.845a5.38 5.38 0 1 0 7.609-7.61c-2.101-2.1-4.744-1.337-6.846.764z"/>
        <path fill="#002F34" d="M108.343 49.125a6.784 6.784 0 1 0-9.594 9.594 6.784 6.784 0 0 0 9.594-9.594"/>
        <path fill="#406367" d="M98.749 49.125c-2.65 2.65-2.723 6.87-.166 9.429l9.594-9.594c-2.557-2.558-6.779-2.484-9.428.165"/>
        <path fill="#002F34" d="M58.719 98.749a6.784 6.784 0 1 0-9.594 9.594 6.784 6.784 0 0 0 9.594-9.594"/>
        <path fill="#406367" d="M58.719 49.125a6.784 6.784 0 1 0-9.594 9.594 6.784 6.784 0 0 0 9.594-9.594M49.125 98.749c-2.65 2.65-2.723 6.87-.165 9.428l9.594-9.594c-2.558-2.557-6.78-2.483-9.429.166"/>
        <circle cx="29.843" cy="52.768" r="2.807" fill="#D2B982"/>
        <circle cx="43.879" cy="33.118" r="1.404" fill="#71674E"/>
        <circle cx="38.264" cy="44.346" r="1.404" fill="#71674E"/>
    </g>
</svg>
