<svg xmlns="http://www.w3.org/2000/svg" width="200" height="201" viewBox="0 0 200 201">
    <g fill="none" fill-rule="evenodd">
        <path fill="#FFAA9A" d="M8.889 100.261c0 50.416 40.73 91.286 90.972 91.286 50.139 0 90.804-40.699 90.972-90.97v-.631C190.665 49.674 150 8.975 99.861 8.975c-50.243 0-90.972 40.87-90.972 91.286"/>
        <path fill="#002F34" d="M99.861 126.278c27.772 0 51.754 16.28 62.986 39.85-16.346 15.744-38.54 25.42-62.986 25.42l-1.504-.013c-23.852-.388-45.473-9.987-61.483-25.407 11.234-23.57 35.216-39.85 62.987-39.85z"/>
        <path fill="#FFD6C9" d="M152.9 90.57c0 29.672-23.746 53.727-53.038 53.727-29.294 0-53.04-24.055-53.04-53.728 0-29.674 23.746-53.728 53.04-53.728 29.292 0 53.039 24.054 53.039 53.728"/>
        <path fill="#002F34" d="M99.861 36.84l.877.008c23.592.387 43.439 16.377 49.924 38.228a34.453 34.453 0 0 1-17.616 4.818c-15.413 0-28.497-10.103-33.149-24.128-7.702 19.168-28.408 30.079-48.731 24.75a41.585 41.585 0 0 1-3.223-.986C52.969 55.15 74.304 36.84 99.86 36.84zM82.834 95.75c0 3.304-2.67 5.981-5.962 5.981s-5.96-2.677-5.96-5.981 2.668-5.982 5.96-5.982 5.962 2.678 5.962 5.982"/>
        <path fill="#002F34" d="M121.018 30.204c0 11.726-9.472 21.23-21.157 21.23-11.684 0-21.157-9.504-21.157-21.23 0-11.725 9.473-21.23 21.157-21.23 11.685 0 21.157 9.505 21.157 21.23"/>
        <path fill="#FF5636" d="M152.276 173.116l3.848-9.131.843-2-13.583-33.672-15.777 6.407 13.583 33.673 4.628 1.972z"/>
        <path fill="#FFD5CD" d="M154.87 149.373c6.525 0 12.278 3.311 15.683 8.35a91.402 91.402 0 0 1-29.302 23.851 18.973 18.973 0 0 1-5.316-13.2c0-10.494 8.478-19.001 18.936-19.001z"/>
        <path fill="#FF5636" d="M159.53 86.924c7.929 19.43-1.523 41.557-21.111 49.422-19.588 7.865-41.894-1.512-49.823-20.942-7.928-19.43 1.524-41.557 21.112-49.422 19.588-7.865 41.895 1.51 49.823 20.942"/>
        <path fill="#FFD5CD" d="M143.306 78.714c12.498 10.542 14.016 29.14 3.389 41.538-10.628 12.398-29.375 13.903-41.874 3.361-12.498-10.541-14.016-29.138-3.388-41.536 10.627-12.4 29.374-13.904 41.873-3.363"/>
        <path fill="#002F34" d="M131.275 86.054a10.084 10.084 0 0 0-8.363 4.414 10.084 10.084 0 0 0-8.363-4.414c-5.534 0-10.036 4.422-10.036 9.857 0 2.145.699 4.192 2.062 5.968l14.177 17.03h4.32l14.219-17.082a9.648 9.648 0 0 0 2.02-5.916c0-5.435-4.502-9.857-10.036-9.857"/>
    </g>
</svg>
