<svg xmlns="http://www.w3.org/2000/svg" width="22" height="10" viewBox="0 0 40 20">
	<g fill="none" fill-rule="evenodd">
		<path fill="#FFFFFF" d="M12.254,9.348v5.156c-0.379,0.247-0.836,0.438-1.371,0.576
			c-0.535,0.137-1.101,0.205-1.697,0.205c-1.515,0-2.687-0.466-3.516-1.398s-1.243-2.242-1.243-3.928S4.841,6.964,5.67,6.031
			s2-1.399,3.516-1.399c0.578,0,1.122,0.066,1.634,0.199c0.511,0.133,0.947,0.322,1.307,0.568l-0.511,1.363
			c-0.853-0.397-1.671-0.597-2.458-0.597c-1.979,0-2.969,1.265-2.969,3.793c0,2.538,0.999,3.807,2.997,3.807
			c0.464,0,0.918-0.062,1.364-0.185v-2.713H8.802v-1.52H12.254z"/>
	</g>
</svg>
