<svg xmlns="http://www.w3.org/2000/svg" width="22" height="10" viewBox="0 0 22 10">
    <g fill="none" fill-rule="evenodd">
        <path d="M0 0H22V10H0z"/>
        <path fill="#FFF" fill-rule="nonzero" d="M4.387 8c.607 0 1.08-.155 1.417-.464.337-.31.505-.746.505-1.31 0-.712-.37-1.176-1.11-1.392.514-.193.77-.574.77-1.143 0-.536-.162-.952-.488-1.248C5.155 2.148 4.696 2 4.105 2H2v6h2.387zm-.282-3.497H2.986V2.887h1.07c.601 0 .903.273.903.82 0 .53-.285.796-.854.796zm.331 2.61h-1.45V5.356h1.4c.603 0 .904.296.904.887 0 .58-.284.87-.854.87z"/>
    </g>
</svg>
