<svg xmlns="http://www.w3.org/2000/svg" width="22" height="10" viewBox="0 0 22 10">
    <g fill="none" fill-rule="evenodd">
        <path d="M0 0H22V10H0z"/>
        <path fill="#FFF" fill-rule="nonzero" d="M4.644 8c.325 0 .628-.039.909-.116.28-.078.506-.183.677-.317L5.9 6.838c-.326.187-.729.28-1.21.28-.56 0-.983-.173-1.27-.52-.285-.347-.428-.862-.428-1.546 0-.694.14-1.23.417-1.61.278-.38.67-.569 1.177-.569.422 0 .844.104 1.266.313l.329-.745c-.214-.14-.458-.247-.733-.325C5.174 2.04 4.892 2 4.603 2c-.528 0-.989.127-1.381.38-.393.254-.695.616-.906 1.086C2.106 3.936 2 4.489 2 5.124c0 .913.231 1.621.693 2.123.462.502 1.112.753 1.95.753z"/>
    </g>
</svg>
