<?xml version="1.0" encoding="utf-8"?>
<!-- Generator: Adobe Illustrator 24.0.0, SVG Export Plug-In . SVG Version: 6.00 Build 0)  -->
<svg version="1.1" id="Layer_1" xmlns="http://www.w3.org/2000/svg" xmlns:xlink="http://www.w3.org/1999/xlink" x="0px" y="0px"
	 viewBox="0 0 44 24" style="enable-background:new 0 0 44 24;" xml:space="preserve">
<style type="text/css">
	.st0{display:none;}
	.st1{display:inline;}
	.st2{fill:#009944;}
	.st3{fill:#FFFFFF;}
	.st4{enable-background:new    ;}
	.st5{fill:#231C1E;}
	.st6{display:inline;enable-background:new    ;}
	.st7{fill:#50B848;}
	.st8{fill:#BFD730;}
	.st9{fill:#FFF200;}
	.st10{fill:#FDB913;}
	.st11{fill:#F37021;}
	.st12{fill:#ED1C24;}
</style>
<g class="st0">
	<g class="st1">
		<g>
			<g>
				<polygon class="st2" points="32.81,0.25 8.19,0.25 8.19,23.75 32.81,23.75 43.69,12.04 				"/>
			</g>
			<g>
				<rect x="0.19" y="0.25" class="st3" width="8" height="23.5"/>
			</g>
		</g>
	</g>
	<g class="st1">
		<path d="M4.19,14.9c0.28,0,0.5-0.22,0.5-0.5v-3.6l0.65,0.65c0.1,0.1,0.23,0.15,0.35,0.15s0.26-0.05,0.35-0.15
			c0.2-0.2,0.2-0.51,0-0.71l-1.5-1.5c-0.2-0.2-0.51-0.2-0.71,0l-1.5,1.5c-0.2,0.2-0.2,0.51,0,0.71s0.51,0.2,0.71,0l0.65-0.65v3.6
			C3.69,14.68,3.91,14.9,4.19,14.9z"/>
		<g class="st4">
			<path class="st5" d="M5.11,6.88H3.35L3.04,7.95H2.05L3.73,3h1.03l1.67,4.95H5.44L5.11,6.88z M4.88,6.06L4.23,3.91L3.6,6.06H4.88z
				"/>
		</g>
		<g class="st4">
			<path d="M6.16,18.11v2.53c-0.19,0.13-0.41,0.23-0.68,0.29s-0.54,0.1-0.83,0.1c-0.74,0-1.32-0.22-1.72-0.67s-0.61-1.08-0.61-1.89
				s0.2-1.45,0.61-1.89s0.98-0.67,1.72-0.67c0.29,0,0.56,0.03,0.82,0.1c0.26,0.07,0.47,0.16,0.64,0.29l-0.27,0.75
				c-0.43-0.2-0.83-0.3-1.2-0.3c-0.9,0-1.35,0.57-1.35,1.72s0.45,1.72,1.36,1.72c0.18,0,0.37-0.02,0.57-0.07v-1.18H4.4v-0.83H6.16z"
				/>
		</g>
	</g>
	<path class="st1" d="M43.87,11.87L33,0.08C32.95,0.03,32.88,0,32.81,0H8.19h-8C0.05,0-0.06,0.11-0.06,0.25v23.5
		c0,0.14,0.11,0.25,0.25,0.25h8h24.62c0.07,0,0.14-0.03,0.18-0.08l10.88-11.71C43.96,12.12,43.96,11.97,43.87,11.87z M0.44,0.5h7.5
		v23h-7.5V0.5z M32.71,23.5H8.44v-23h24.27l10.64,11.54L32.71,23.5z"/>
	<g class="st6">
		<g>
			<path class="st3" d="M26.22,20.17l-1.01-3.35h-5.02l-0.99,3.35h-3.84l5.5-16.25h3.72l5.5,16.25H26.22z M24.25,13.54L22.7,8.35
				l-1.53,5.19H24.25z"/>
			<path d="M24.33,4.26l5.26,15.55h-3.12l-1.01-3.35h-5.54l-0.99,3.35h-3.09l5.26-15.55H24.33 M20.7,13.89h4.02L22.7,7.12
				L20.7,13.89 M24.83,3.56h-0.5h-3.22h-0.5l-0.16,0.48l-5.26,15.55l-0.31,0.92h0.98h3.09h0.52l0.15-0.5l0.84-2.85h4.5l0.86,2.85
				l0.15,0.5h0.52h3.12h0.98l-0.31-0.92L24.99,4.04L24.83,3.56L24.83,3.56z M21.63,13.19l1.07-3.61l1.08,3.61H21.63L21.63,13.19z"/>
		</g>
	</g>
</g>
<g class="st0">
	<g class="st1">
		<g>
			<g>
				<polygon class="st7" points="32.81,0.25 8.19,0.25 8.19,23.75 32.81,23.75 43.69,12.04 				"/>
			</g>
			<g>
				<rect x="0.19" y="0.25" class="st3" width="8" height="23.5"/>
			</g>
		</g>
	</g>
	<g class="st1">
		<path d="M4.19,14.9c0.28,0,0.5-0.22,0.5-0.5v-3.6l0.65,0.65c0.1,0.1,0.23,0.15,0.35,0.15s0.26-0.05,0.35-0.15
			c0.2-0.2,0.2-0.51,0-0.71l-1.5-1.5c-0.2-0.2-0.51-0.2-0.71,0l-1.5,1.5c-0.2,0.2-0.2,0.51,0,0.71s0.51,0.2,0.71,0l0.65-0.65v3.6
			C3.69,14.68,3.91,14.9,4.19,14.9z"/>
		<g class="st4">
			<path class="st5" d="M5.11,6.88H3.35L3.04,7.95H2.05L3.73,3h1.03l1.67,4.95H5.44L5.11,6.88z M4.88,6.06L4.23,3.91L3.6,6.06H4.88z
				"/>
		</g>
		<g class="st4">
			<path d="M6.16,18.11v2.53c-0.19,0.13-0.41,0.23-0.68,0.29s-0.54,0.1-0.83,0.1c-0.74,0-1.32-0.22-1.72-0.67s-0.61-1.08-0.61-1.89
				s0.2-1.45,0.61-1.89s0.98-0.67,1.72-0.67c0.29,0,0.56,0.03,0.82,0.1c0.26,0.07,0.47,0.16,0.64,0.29l-0.27,0.75
				c-0.43-0.2-0.83-0.3-1.2-0.3c-0.9,0-1.35,0.57-1.35,1.72s0.45,1.72,1.36,1.72c0.18,0,0.37-0.02,0.57-0.07v-1.18H4.4v-0.83H6.16z"
				/>
		</g>
	</g>
	<path class="st1" d="M43.87,11.87L33,0.08C32.95,0.03,32.88,0,32.81,0H8.19h-8C0.05,0-0.06,0.11-0.06,0.25v23.5
		c0,0.14,0.11,0.25,0.25,0.25h8h24.62c0.07,0,0.14-0.03,0.18-0.08l10.88-11.71C43.96,12.12,43.96,11.97,43.87,11.87z M0.44,0.5h7.5
		v23h-7.5V0.5z M32.71,23.5H8.44v-23h24.27l10.64,11.54L32.71,23.5z"/>
	<g class="st6">
		<g>
			<path class="st3" d="M16.79,19.84V3.58h5.96c1.66,0,2.96,0.42,3.89,1.25c0.93,0.84,1.4,2.03,1.4,3.55c0,1.29-0.49,2.24-1.46,2.85
				c1.56,0.69,2.34,1.89,2.34,3.57c0,1.58-0.49,2.84-1.46,3.72c-0.96,0.87-2.31,1.32-4.01,1.32H16.79z M23.61,16.52
				c1.1,0,1.58-0.51,1.58-1.65c0-1.18-0.53-1.71-1.73-1.71h-3.02v3.36H23.61z M22.75,9.92c1.1,0,1.58-0.46,1.58-1.48
				c0-1.07-0.53-1.54-1.73-1.54h-2.16v3.02H22.75z"/>
			<path d="M22.75,3.94c1.58,0,2.79,0.39,3.65,1.16c0.86,0.77,1.29,1.87,1.29,3.29c0,1.43-0.67,2.4-2,2.9
				c1.92,0.57,2.88,1.75,2.88,3.52c0,1.49-0.45,2.64-1.34,3.46c-0.9,0.82-2.15,1.22-3.77,1.22h-4.71h-1.61V3.94h2.94H22.75
				 M20.09,10.27h2.66c1.29,0,1.93-0.61,1.93-1.83c0-1.26-0.69-1.89-2.08-1.89h-2.51V10.27 M20.09,16.87h3.52
				c1.29,0,1.93-0.67,1.93-2c0-1.38-0.69-2.06-2.08-2.06h-3.37V16.87 M22.75,3.24h-2.66h-2.94h-0.7v0.7v15.55v0.7h0.7h1.61h4.71
				c1.79,0,3.22-0.47,4.24-1.41c1.04-0.95,1.57-2.29,1.57-3.98c0-1.18-0.39-2.67-2.04-3.63c0.76-0.67,1.16-1.62,1.16-2.8
				c0-1.62-0.51-2.9-1.52-3.81C25.88,3.69,24.5,3.24,22.75,3.24L22.75,3.24z M20.79,7.26h1.81c1.15,0,1.38,0.46,1.38,1.19
				c0,0.71-0.2,1.13-1.23,1.13h-1.96V7.26L20.79,7.26z M20.79,13.51h2.67c1.01,0,1.38,0.37,1.38,1.36c0,0.95-0.33,1.3-1.23,1.3
				h-2.82V13.51L20.79,13.51z"/>
		</g>
	</g>
</g>
<g class="st0">
	<g class="st1">
		<g>
			<g>
				<polygon class="st8" points="32.81,0.25 8.19,0.25 8.19,23.75 32.81,23.75 43.69,12.04 				"/>
			</g>
			<g>
				<rect x="0.19" y="0.25" class="st3" width="8" height="23.5"/>
			</g>
		</g>
	</g>
	<g class="st1">
		<path d="M4.19,14.9c0.28,0,0.5-0.22,0.5-0.5v-3.6l0.65,0.65c0.1,0.1,0.23,0.15,0.35,0.15s0.26-0.05,0.35-0.15
			c0.2-0.2,0.2-0.51,0-0.71l-1.5-1.5c-0.2-0.2-0.51-0.2-0.71,0l-1.5,1.5c-0.2,0.2-0.2,0.51,0,0.71s0.51,0.2,0.71,0l0.65-0.65v3.6
			C3.69,14.68,3.91,14.9,4.19,14.9z"/>
		<g class="st4">
			<path class="st5" d="M5.11,6.88H3.35L3.04,7.95H2.05L3.73,3h1.03l1.67,4.95H5.44L5.11,6.88z M4.88,6.06L4.23,3.91L3.6,6.06H4.88z
				"/>
		</g>
		<g class="st4">
			<path d="M6.16,18.11v2.53c-0.19,0.13-0.41,0.23-0.68,0.29s-0.54,0.1-0.83,0.1c-0.74,0-1.32-0.22-1.72-0.67s-0.61-1.08-0.61-1.89
				s0.2-1.45,0.61-1.89s0.98-0.67,1.72-0.67c0.29,0,0.56,0.03,0.82,0.1c0.26,0.07,0.47,0.16,0.64,0.29l-0.27,0.75
				c-0.43-0.2-0.83-0.3-1.2-0.3c-0.9,0-1.35,0.57-1.35,1.72s0.45,1.72,1.36,1.72c0.18,0,0.37-0.02,0.57-0.07v-1.18H4.4v-0.83H6.16z"
				/>
		</g>
	</g>
	<path class="st1" d="M43.87,11.87L33,0.08C32.95,0.03,32.88,0,32.81,0H8.19h-8C0.05,0-0.06,0.11-0.06,0.25v23.5
		c0,0.14,0.11,0.25,0.25,0.25h8h24.62c0.07,0,0.14-0.03,0.18-0.08l10.88-11.71C43.96,12.12,43.96,11.97,43.87,11.87z M0.44,0.5h7.5
		v23h-7.5V0.5z M32.71,23.5H8.44v-23h24.27l10.64,11.54L32.71,23.5z"/>
	<g class="st6">
		<g>
			<path class="st3" d="M24.06,20.15c-2.37,0-4.24-0.72-5.56-2.13c-1.32-1.41-1.99-3.4-1.99-5.93c0-1.76,0.3-3.31,0.89-4.61
				c0.6-1.32,1.47-2.34,2.59-3.05c1.12-0.71,2.45-1.06,3.96-1.06c0.83,0,1.66,0.11,2.46,0.33c0.81,0.23,1.52,0.55,2.11,0.98
				l0.23,0.17l-1.28,2.85l-0.33-0.16C26.09,7,25,6.73,23.91,6.73c-1.17,0-2.04,0.42-2.67,1.29c-0.65,0.89-0.98,2.19-0.98,3.86
				c0,3.28,1.28,4.87,3.93,4.87c1.25,0,2.28-0.24,3.07-0.7l0.34-0.2l1.28,2.84l-0.21,0.17c-0.51,0.42-1.18,0.74-2,0.97
				C25.87,20.04,24.99,20.15,24.06,20.15z"/>
			<path d="M23.96,3.71c0.8,0,1.59,0.11,2.36,0.32c0.77,0.21,1.44,0.52,2,0.92l-1.01,2.26c-1.12-0.56-2.25-0.84-3.39-0.84
				c-1.27,0-2.26,0.48-2.95,1.44c-0.69,0.96-1.04,2.31-1.04,4.06c0,3.48,1.42,5.22,4.28,5.22c1.32,0,2.4-0.25,3.24-0.75l1.01,2.23
				c-0.47,0.39-1.1,0.69-1.87,0.9c-0.77,0.21-1.61,0.32-2.51,0.32c-2.28,0-4.05-0.67-5.31-2.02c-1.26-1.35-1.89-3.24-1.89-5.69
				c0-1.72,0.29-3.21,0.86-4.47c0.57-1.26,1.39-2.23,2.46-2.9C21.25,4.05,22.51,3.71,23.96,3.71 M23.96,3.01
				c-1.57,0-2.97,0.38-4.14,1.12c-1.18,0.74-2.1,1.82-2.72,3.2c-0.61,1.35-0.92,2.95-0.92,4.76c0,2.62,0.7,4.7,2.08,6.17
				c1.39,1.49,3.35,2.24,5.82,2.24c0.96,0,1.87-0.12,2.7-0.35c0.86-0.24,1.58-0.59,2.13-1.04l0.42-0.34l-0.22-0.49l-1.01-2.23
				l-0.32-0.71l-0.67,0.4c-0.73,0.43-1.7,0.65-2.89,0.65c-1.53,0-3.58-0.47-3.58-4.52c0-1.59,0.31-2.82,0.91-3.65
				c0.56-0.77,1.34-1.15,2.39-1.15c1.03,0,2.07,0.26,3.08,0.76l0.65,0.33l0.3-0.67l1.01-2.26l0.23-0.52l-0.46-0.33
				c-0.62-0.45-1.37-0.79-2.22-1.03C25.68,3.13,24.82,3.01,23.96,3.01L23.96,3.01z"/>
		</g>
	</g>
</g>
<g>
	<g>
		<g>
			<g>
				<polygon class="st9" points="32.81,0.25 8.19,0.25 8.19,23.75 32.81,23.75 43.69,12.04 				"/>
			</g>
			<g>
				<rect x="0.19" y="0.25" class="st3" width="8" height="23.5"/>
			</g>
		</g>
	</g>
	<g>
		<path d="M4.19,14.9c0.28,0,0.5-0.22,0.5-0.5v-3.6l0.65,0.65c0.1,0.1,0.23,0.15,0.35,0.15s0.26-0.05,0.35-0.15
			c0.2-0.2,0.2-0.51,0-0.71l-1.5-1.5c-0.2-0.2-0.51-0.2-0.71,0l-1.5,1.5c-0.2,0.2-0.2,0.51,0,0.71s0.51,0.2,0.71,0l0.65-0.65v3.6
			C3.69,14.68,3.91,14.9,4.19,14.9z"/>
		<g class="st4">
			<path class="st5" d="M5.11,6.88H3.35L3.04,7.95H2.05L3.73,3h1.03l1.67,4.95H5.44L5.11,6.88z M4.88,6.06L4.23,3.91L3.6,6.06H4.88z
				"/>
		</g>
		<g class="st4">
			<path d="M6.16,18.11v2.53c-0.19,0.13-0.41,0.23-0.68,0.29s-0.54,0.1-0.83,0.1c-0.74,0-1.32-0.22-1.72-0.67s-0.61-1.08-0.61-1.89
				s0.2-1.45,0.61-1.89s0.98-0.67,1.72-0.67c0.29,0,0.56,0.03,0.82,0.1c0.26,0.07,0.47,0.16,0.64,0.29l-0.27,0.75
				c-0.43-0.2-0.83-0.3-1.2-0.3c-0.9,0-1.35,0.57-1.35,1.72s0.45,1.72,1.36,1.72c0.18,0,0.37-0.02,0.57-0.07v-1.18H4.4v-0.83H6.16z"
				/>
		</g>
	</g>
	<path d="M43.87,11.87L33,0.08C32.95,0.03,32.88,0,32.81,0H8.19h-8C0.05,0-0.06,0.11-0.06,0.25v23.5c0,0.14,0.11,0.25,0.25,0.25h8
		h24.62c0.07,0,0.14-0.03,0.18-0.08l10.88-11.71C43.96,12.12,43.96,11.97,43.87,11.87z M0.44,0.5h7.5v23h-7.5V0.5z M32.71,23.5H8.44
		v-23h24.27l10.64,11.54L32.71,23.5z"/>
	<g class="st4">
		<g>
			<path class="st3" d="M16.29,19.9V3.64h5.51c2.38,0,4.23,0.7,5.49,2.07c1.25,1.36,1.89,3.4,1.89,6.04c0,2.67-0.63,4.72-1.89,6.08
				c-1.26,1.37-3.11,2.07-5.49,2.07H16.29z M21.72,16.55c2.5,0,3.71-1.57,3.71-4.81c0-3.21-1.21-4.76-3.69-4.76h-1.78v9.57H21.72z"
				/>
			<path d="M21.8,3.99c2.29,0,4.04,0.65,5.23,1.96c1.2,1.3,1.79,3.24,1.79,5.8c0,2.59-0.6,4.54-1.79,5.84
				c-1.2,1.3-2.94,1.96-5.23,1.96h-5.16V3.99H21.8 M19.61,16.9h2.11c2.71,0,4.06-1.72,4.06-5.16c0-3.41-1.35-5.11-4.04-5.11h-2.13
				V16.9 M21.8,3.29h-5.16h-0.7v0.7v15.55v0.7h0.7h5.16c2.49,0,4.42-0.73,5.75-2.18c1.31-1.43,1.98-3.56,1.98-6.32
				c0-2.73-0.67-4.84-1.98-6.27C26.22,4.03,24.29,3.29,21.8,3.29L21.8,3.29z M20.31,7.33h1.43c1.43,0,3.34,0.46,3.34,4.41
				c0,3.99-1.92,4.46-3.36,4.46h-1.41V7.33L20.31,7.33z"/>
		</g>
	</g>
</g>
<g class="st0">
	<g class="st1">
		<g>
			<g>
				<polygon class="st10" points="32.81,0.25 8.19,0.25 8.19,23.75 32.81,23.75 43.69,12.04 				"/>
			</g>
			<g>
				<rect x="0.19" y="0.25" class="st3" width="8" height="23.5"/>
			</g>
		</g>
	</g>
	<g class="st1">
		<path d="M4.19,14.9c0.28,0,0.5-0.22,0.5-0.5v-3.6l0.65,0.65c0.1,0.1,0.23,0.15,0.35,0.15s0.26-0.05,0.35-0.15
			c0.2-0.2,0.2-0.51,0-0.71l-1.5-1.5c-0.2-0.2-0.51-0.2-0.71,0l-1.5,1.5c-0.2,0.2-0.2,0.51,0,0.71s0.51,0.2,0.71,0l0.65-0.65v3.6
			C3.69,14.68,3.91,14.9,4.19,14.9z"/>
		<g class="st4">
			<path class="st5" d="M5.11,6.88H3.35L3.04,7.95H2.05L3.73,3h1.03l1.67,4.95H5.44L5.11,6.88z M4.88,6.06L4.23,3.91L3.6,6.06H4.88z
				"/>
		</g>
		<g class="st4">
			<path d="M6.16,18.11v2.53c-0.19,0.13-0.41,0.23-0.68,0.29s-0.54,0.1-0.83,0.1c-0.74,0-1.32-0.22-1.72-0.67s-0.61-1.08-0.61-1.89
				s0.2-1.45,0.61-1.89s0.98-0.67,1.72-0.67c0.29,0,0.56,0.03,0.82,0.1c0.26,0.07,0.47,0.16,0.64,0.29l-0.27,0.75
				c-0.43-0.2-0.83-0.3-1.2-0.3c-0.9,0-1.35,0.57-1.35,1.72s0.45,1.72,1.36,1.72c0.18,0,0.37-0.02,0.57-0.07v-1.18H4.4v-0.83H6.16z"
				/>
		</g>
	</g>
	<path class="st1" d="M43.87,11.87L33,0.08C32.95,0.03,32.88,0,32.81,0H8.19h-8C0.05,0-0.06,0.11-0.06,0.25v23.5
		c0,0.14,0.11,0.25,0.25,0.25h8h24.62c0.07,0,0.14-0.03,0.18-0.08l10.88-11.71C43.96,12.12,43.96,11.97,43.87,11.87z M0.44,0.5h7.5
		v23h-7.5V0.5z M32.71,23.5H8.44v-23h24.27l10.64,11.54L32.71,23.5z"/>
	<g class="st6">
		<g>
			<polygon class="st3" points="17.13,19.9 17.13,3.64 27.62,3.64 27.62,6.98 20.79,6.98 20.79,9.91 25.82,9.91 25.82,13.28 
				20.79,13.28 20.79,16.55 27.92,16.55 27.92,19.9 			"/>
			<path d="M27.27,3.99v2.64h-6.83v3.63h5.03v2.66h-5.03v3.97h7.13v2.64h-10.1V3.99H27.27 M27.97,3.29h-0.7h-9.8h-0.7v0.7v15.55v0.7
				h0.7h10.1h0.7v-0.7V16.9v-0.7h-0.7h-6.43v-2.57h4.33h0.7v-0.7v-2.66v-0.7h-0.7h-4.33V7.33h6.13h0.7v-0.7V3.99V3.29L27.97,3.29z"
				/>
		</g>
	</g>
</g>
<g class="st0">
	<g class="st1">
		<g>
			<g>
				<polygon class="st11" points="32.81,0.25 8.19,0.25 8.19,23.75 32.81,23.75 43.69,12.04 				"/>
			</g>
			<g>
				<rect x="0.19" y="0.25" class="st3" width="8" height="23.5"/>
			</g>
		</g>
	</g>
	<g class="st1">
		<path d="M4.19,14.9c0.28,0,0.5-0.22,0.5-0.5v-3.6l0.65,0.65c0.1,0.1,0.23,0.15,0.35,0.15s0.26-0.05,0.35-0.15
			c0.2-0.2,0.2-0.51,0-0.71l-1.5-1.5c-0.2-0.2-0.51-0.2-0.71,0l-1.5,1.5c-0.2,0.2-0.2,0.51,0,0.71s0.51,0.2,0.71,0l0.65-0.65v3.6
			C3.69,14.68,3.91,14.9,4.19,14.9z"/>
		<g class="st4">
			<path class="st5" d="M5.11,6.88H3.35L3.04,7.95H2.05L3.73,3h1.03l1.67,4.95H5.44L5.11,6.88z M4.88,6.06L4.23,3.91L3.6,6.06H4.88z
				"/>
		</g>
		<g class="st4">
			<path d="M6.16,18.11v2.53c-0.19,0.13-0.41,0.23-0.68,0.29s-0.54,0.1-0.83,0.1c-0.74,0-1.32-0.22-1.72-0.67s-0.61-1.08-0.61-1.89
				s0.2-1.45,0.61-1.89s0.98-0.67,1.72-0.67c0.29,0,0.56,0.03,0.82,0.1c0.26,0.07,0.47,0.16,0.64,0.29l-0.27,0.75
				c-0.43-0.2-0.83-0.3-1.2-0.3c-0.9,0-1.35,0.57-1.35,1.72s0.45,1.72,1.36,1.72c0.18,0,0.37-0.02,0.57-0.07v-1.18H4.4v-0.83H6.16z"
				/>
		</g>
	</g>
	<path class="st1" d="M43.87,11.87L33,0.08C32.95,0.03,32.88,0,32.81,0H8.19h-8C0.05,0-0.06,0.11-0.06,0.25v23.5
		c0,0.14,0.11,0.25,0.25,0.25h8h24.62c0.07,0,0.14-0.03,0.18-0.08l10.88-11.71C43.96,12.12,43.96,11.97,43.87,11.87z M0.44,0.5h7.5
		v23h-7.5V0.5z M32.71,23.5H8.44v-23h24.27l10.64,11.54L32.71,23.5z"/>
	<g class="st6">
		<g>
			<polygon class="st3" points="17.38,19.9 17.38,3.64 27.7,3.64 27.7,6.98 21.04,6.98 21.04,10.34 26.46,10.34 26.46,13.71 
				21.04,13.71 21.04,19.9 			"/>
			<path d="M27.35,3.99v2.64h-6.66v4.06h5.41v2.66h-5.41v6.19h-2.96V3.99H27.35 M28.05,3.29h-0.7h-9.62h-0.7v0.7v15.55v0.7h0.7h2.96
				h0.7v-0.7v-5.49h4.71h0.7v-0.7v-2.66v-0.7h-0.7h-4.71V7.33h5.96h0.7v-0.7V3.99V3.29L28.05,3.29z"/>
		</g>
	</g>
</g>
<g class="st0">
	<g class="st1">
		<g>
			<g>
				<polygon class="st12" points="32.81,0.25 8.19,0.25 8.19,23.75 32.81,23.75 43.69,12.04 				"/>
			</g>
			<g>
				<rect x="0.19" y="0.25" class="st3" width="8" height="23.5"/>
			</g>
		</g>
	</g>
	<g class="st1">
		<path d="M4.19,14.9c0.28,0,0.5-0.22,0.5-0.5v-3.6l0.65,0.65c0.1,0.1,0.23,0.15,0.35,0.15s0.26-0.05,0.35-0.15
			c0.2-0.2,0.2-0.51,0-0.71l-1.5-1.5c-0.2-0.2-0.51-0.2-0.71,0l-1.5,1.5c-0.2,0.2-0.2,0.51,0,0.71s0.51,0.2,0.71,0l0.65-0.65v3.6
			C3.69,14.68,3.91,14.9,4.19,14.9z"/>
		<g class="st4">
			<path class="st5" d="M5.11,6.88H3.35L3.04,7.95H2.05L3.73,3h1.03l1.67,4.95H5.44L5.11,6.88z M4.88,6.06L4.23,3.91L3.6,6.06H4.88z
				"/>
		</g>
		<g class="st4">
			<path d="M6.16,18.11v2.53c-0.19,0.13-0.41,0.23-0.68,0.29s-0.54,0.1-0.83,0.1c-0.74,0-1.32-0.22-1.72-0.67s-0.61-1.08-0.61-1.89
				s0.2-1.45,0.61-1.89s0.98-0.67,1.72-0.67c0.29,0,0.56,0.03,0.82,0.1c0.26,0.07,0.47,0.16,0.64,0.29l-0.27,0.75
				c-0.43-0.2-0.83-0.3-1.2-0.3c-0.9,0-1.35,0.57-1.35,1.72s0.45,1.72,1.36,1.72c0.18,0,0.37-0.02,0.57-0.07v-1.18H4.4v-0.83H6.16z"
				/>
		</g>
	</g>
	<path class="st1" d="M43.87,11.87L33,0.08C32.95,0.03,32.88,0,32.81,0H8.19h-8C0.05,0-0.06,0.11-0.06,0.25v23.5
		c0,0.14,0.11,0.25,0.25,0.25h8h24.62c0.07,0,0.14-0.03,0.18-0.08l10.88-11.71C43.96,12.12,43.96,11.97,43.87,11.87z M0.44,0.5h7.5
		v23h-7.5V0.5z M32.71,23.5H8.44v-23h24.27l10.64,11.54L32.71,23.5z"/>
	<g class="st6">
		<g>
			<path class="st3" d="M23.83,20.17c-2.43,0-4.34-0.75-5.67-2.22c-1.33-1.46-2-3.54-2-6.19c0-2.64,0.67-4.72,2-6.19
				c1.34-1.47,3.25-2.22,5.67-2.22c0.94,0,1.84,0.11,2.67,0.33c0.84,0.22,1.56,0.55,2.13,0.96l0.22,0.15l-1.08,2.97l-0.35-0.16
				C26.12,7.01,24.9,6.7,23.78,6.7c-2.61,0-3.88,1.66-3.88,5.06s1.28,5.06,3.93,5.06c0.46,0,0.94-0.05,1.43-0.15V13.6H22.7v-3.32
				h6.22v8.48l-0.15,0.1c-0.62,0.42-1.37,0.75-2.25,0.97C25.66,20.06,24.75,20.17,23.83,20.17z"/>
			<path d="M23.83,3.71c0.92,0,1.78,0.11,2.58,0.32c0.8,0.21,1.48,0.52,2.02,0.9L27.56,7.3c-1.35-0.63-2.61-0.95-3.78-0.95
				c-2.82,0-4.23,1.8-4.23,5.41s1.42,5.41,4.28,5.41c0.57,0,1.17-0.07,1.78-0.21v-3.72h-2.56v-2.62h5.52v7.95
				c-0.59,0.4-1.3,0.71-2.14,0.92c-0.84,0.21-1.71,0.32-2.61,0.32c-2.33,0-4.14-0.7-5.41-2.11c-1.27-1.4-1.91-3.39-1.91-5.95
				c0-2.56,0.64-4.55,1.91-5.95C19.69,4.41,21.49,3.71,23.83,3.71 M23.83,3.01c-2.53,0-4.53,0.79-5.93,2.33
				c-1.39,1.53-2.09,3.69-2.09,6.42c0,2.73,0.7,4.89,2.09,6.42c1.41,1.55,3.4,2.33,5.93,2.33c0.96,0,1.89-0.12,2.78-0.34
				c0.91-0.23,1.71-0.58,2.36-1.02l0.31-0.21v-0.37v-7.95v-0.7h-0.7h-5.52h-0.7v0.7v2.62v0.7h0.7h1.86v2.44
				c-0.37,0.06-0.73,0.09-1.08,0.09c-1.53,0-3.58-0.49-3.58-4.71s2.02-4.71,3.53-4.71c1.06,0,2.24,0.3,3.48,0.88l0.69,0.32
				l0.26-0.72l0.86-2.36l0.18-0.5l-0.43-0.31c-0.61-0.43-1.36-0.77-2.24-1.01C25.73,3.13,24.8,3.01,23.83,3.01L23.83,3.01z"/>
		</g>
	</g>
</g>
</svg>
