<svg xmlns="http://www.w3.org/2000/svg" xmlns:xlink="http://www.w3.org/1999/xlink" width="16" height="16" viewBox="0 0 16 16">
    <path id="star-filled-75" fill="#757575" d="M7.322 1.038c.255-.622 1.066-.633 1.341-.034l.015.034 1.773 4.316 4.685.341c.662.048.926.796.468 1.245l-.025.023-.026.023-3.585 3.008 1.12 4.523c.16.644-.468 1.127-1.037.832l-.03-.015-.028-.017L8 12.857l-3.993 2.46c-.564.348-1.217-.103-1.109-.735l.006-.032.008-.033 1.12-4.523L.446 6.986C-.063 6.56.162 5.8.795 5.703l.034-.005.035-.003 4.685-.34 1.773-4.317z" transform="translate(-1092 -202) translate(973 187) translate(39 13) translate(0 2) translate(80)"/>
    <clipPath id="star-filled-mask-75">
        <use xlink:href="#star-filled-75"/>
    </clipPath>
    <use xlink:href="#star-filled-75" stroke-width="2" stroke="rgba(255,255,255,0.5)" fill="none" clip-path="url(#star-filled-mask-75)"/>
</svg>