<?xml version="1.0" encoding="utf-8"?>
<!DOCTYPE svg PUBLIC "-//W3C//DTD SVG 1.1//EN" "http://www.w3.org/Graphics/SVG/1.1/DTD/svg11.dtd">
<svg version="1.1" xmlns="http://www.w3.org/2000/svg" xmlns:xlink="http://www.w3.org/1999/xlink" id="logo" width="136" height="24" viewBox="0 0 136 24">
	<path fill="#1428a0" d="M109.22574307649376,15.767025946424962 h-0.10204674128905859 l-4.339327026374185,-15.094491833059545 h-7.000031968975144 v19.029376728820218 h4.6370413725202475 l-0.2612022093545637,-15.615960043132992 h0.10204674128905859 l4.659510379776554,15.615960043132992 h6.716360752364275 V0.6715979047297337 h-4.6679362574976695 L109.22574307649376,15.767025946424962 zM20.168896607487397,0.6715979047297337 l-3.4920582110842964,19.230661585491298 h5.09578360400317 L24.354685417610156,2.4466494779779446 h0.10766399310313532 l2.5137201867992855,17.456546220878764 h5.065824927661427 L28.565751860896263,0.6715979047297337 H20.168896607487397 zM48.67270472938352,0.6734703220010925 L46.34341764381307,15.376626945346635 h-0.10579157583177656 L43.91957348603901,0.6734703220010925 h-7.6928263593779285 l-0.4175490515130303,19.22878916821994 h4.716619106553 l0.11796228809560914,-17.292709709634863 h0.10672778446745618 l3.1503420590613023,17.292709709634863 h4.784026128321919 l3.151278267696982,-17.287092457820783 l0.10485536719609723,-0.005617251814076635 l0.12264333127400628,17.292709709634863 h4.718491523824358 L56.36553108876143,0.6734703220010925 H48.67270472938352 zM4.991082205852382,5.61852433565987 c-0.08893982038954686,-0.393207626985364 -0.06740702176891958,-0.7864152539707264 -0.01966038134926822,-1.0036156574483548 c0.13575025217351874,-0.6178976995484298 0.5439372173297531,-1.2947765431446603 1.7244963069215238,-1.2947765431446603 c1.1065986073730936,0 1.7507101487205456,0.6984116422168626 1.7507101487205456,1.7413480623637512 v1.1880487586772044 h4.710065646103242 V4.907005772543501 c0,-4.195150896479553 -3.690534441848337,-4.849560732819479 -6.3624738880774485,-4.849560732819479 c-3.3525631243680603,0 -6.090037175094732,1.135621075079156 -6.594653629725946,4.272856213240947 c-0.13762266944487758,0.8425877721114933 -0.1544744248871073,1.6149598965470273 0.04587422314829263,2.5886168776536405 c0.8191825562195081,3.930203852582274 7.51962776177723,5.068633553568467 8.492348534248162,7.55426748129737 c0.18256068395749064,0.4634232746613218 0.12357953990968573,1.0644692187675187 0.03370351088445991,1.4277181694111398 c-0.15260200761574857,0.6291322031765838 -0.5767045195785329,1.2835420395165067 -1.835905134567375,1.2835420395165067 c-1.1777504636847307,0 -1.8967586958865381,-0.6881133472243876 -1.8967586958865381,-1.7376032278210338 l-0.0028086259070383237,-1.865863810909118 H-0.02137882957531958 l-0.0028086259070383237,1.4866993134589443 c0,4.2897079686831745 3.310433735762486,5.578867260013759 6.855855839080511,5.578867260013759 c3.417161520229942,0 6.218297758182813,-1.1777504636847307 6.671422737851661,-4.388009875429517 c0.23030732437714158,-1.6645789542380374 0.06085356131916363,-2.75619822344026 -0.020596589984947702,-3.163448979960814 C12.683908565230308,9.066580740867234 5.529402171368054,7.875723356282994 4.991082205852382,5.61852433565987 zM66.35955827463943,5.663462350172489 c-0.09268465493226458,-0.38384554062857074 -0.06647081313324008,-0.7733083330712143 -0.02246900725630657,-0.985827693370445 c0.13200541763080076,-0.6141528650057112 0.5364475482443176,-1.2835420395165067 1.7067083428436125,-1.2835420395165067 c1.093491686473581,0 1.7357308105496747,0.6881133472243876 1.7357308105496747,1.7170066378360853 v1.1796228809560894 h4.659510379776554 V4.960369664777225 c0,-4.143659421517184 -3.6568309309638773,-4.796196840585751 -6.294130657672849,-4.796196840585751 c-3.323540656661997,0 -6.037609491496685,1.110343441915811 -6.5309914424997455,4.227918198728333 c-0.13762266944487758,0.8388429375687763 -0.15915546806550462,1.6055978101902342 0.043065597241254375,2.565211661761655 c0.8116928871340725,3.8890106726123794 7.445667279558556,5.019014495877456 8.410898382944053,7.477498373171655 c0.17600722350773476,0.4634232746613218 0.12264333127400628,1.0541709237750447 0.03651213679149809,1.4146112485116287 c-0.15353821625142808,0.6338132463549802 -0.5776407282142131,1.268562701345636 -1.8190533791251458,1.268562701345636 c-1.1721332118706538,0 -1.8780345231729496,-0.6778150522319144 -1.8780345231729496,-1.7160704292004096 l-0.003744834542717764,-1.8518206813739262 h-5.012461035427701 v1.4735923925594332 c0,4.2457061628062425 3.2814112680564236,5.519886115965955 6.792193651854308,5.519886115965955 c3.375032131624367,0 6.152763153685254,-1.1674521686922572 6.597462255632985,-4.3440080695525864 c0.22843490710578326,-1.643046155617411 0.05991735268348411,-2.725303338462839 -0.01966038134926822,-3.1306816777120345 C73.96999827407754,9.083432496309465 66.8838351106199,7.899128572174978 66.35955827463943,5.663462350172489 zM87.75098939127885,14.893543289336048 c0.003744834542717764,0.24435045391233337 -0.003744834542717764,0.5270854618875238 -0.044001805876933635,0.7330513617369991 c-0.09362086356794393,0.4784026128321927 -0.4971267855457818,1.3837163635342076 -1.8087550841326705,1.3837163635342076 c-1.3069472554084929,0 -1.715134220564727,-0.9053137507020158 -1.8087550841326705,-1.3837163635342076 c-0.04025697133421589,-0.20596589984947639 -0.04961905769101042,-0.4887009078246667 -0.04774664041965139,-0.7330513617369991 V0.6697254874583772 h-4.767174372879687 v13.782863534472657 c-0.007489669085435525,0.35669549019386626 0.027150050434703737,1.0785123483027104 0.044001805876933635,1.2704351186169949 c0.3239281879450861,3.584742866016561 3.1100850877270867,4.742832948352023 6.578738082919396,4.742832948352023 c3.4649081606495926,0 6.250128851795915,-1.1580900823354623 6.584355334733474,-4.742832948352023 c0.016851755442229867,-0.19192277031428503 0.05336389223372809,-0.9146758370588092 0.04774664041965139,-1.2704351186169949 V0.6697254874583772 h-4.779345085143521 V14.893543289336048 zM125.28359359566744,9.090922165394904 v2.8161155761237437 h1.9313984154066768 v2.7889655256890404 c0.005617251814076635,0.24247803664097453 -0.003744834542717764,0.5102337064452928 -0.044001805876933635,0.7302427358299616 c-0.08425877721114956,0.5177233755307277 -0.5654700159503809,1.391206032619642 -1.9257811635925999,1.391206032619642 c-1.364055982184939,0 -1.8433948036528092,-0.8744188657245942 -1.9313984154066768,-1.391206032619642 c-0.03651213679149809,-0.22000902938466785 -0.04774664041965139,-0.48776469918898696 -0.04212938860557486,-0.7302427358299616 V5.897514509092347 c0,-0.3126936843169337 0.01966038134926822,-0.6544098363399284 0.07676910812571414,-0.9025051247949775 c0.1001743240176998,-0.4737215696537955 0.506488871902575,-1.3958870757980395 1.8780345231729496,-1.3958870757980395 c1.4426975075820112,0 1.799392997775876,0.9736569811066126 1.8855241922583854,1.3958870757980395 c0.055236309505086956,0.2668194611686399 0.0589811440478047,0.7264979012872435 0.0589811440478047,0.7246254840158847 v1.0831933914811076 h4.754067451980178 V6.160589135718267 c-0.0018724172713588793,0 0.016851755442229867,-0.6572184622469663 -0.03838455406285709,-1.2573281977174824 c-0.3492058211084312,-3.616573959629662 -3.280475059420744,-4.755003660615855 -6.620867471524972,-4.755003660615855 c-3.342264829375587,0 -6.204254628647622,1.1477917873429888 -6.618995054253614,4.755003660615855 c-0.04025697133421589,0.3108212670455741 -0.08238635993979058,0.9156120456944892 -0.08238635993979058,1.2573281977174824 l-0.0018724172713588793,8.090715029541684 c0.0018724172713588793,0.36231274200794295 0.013106920899512153,0.630068411812262 0.06553460449756064,1.2704351186169949 c0.3108212670455741,3.501420297441091 3.2954543975916146,4.755939869251536 6.633974392424483,4.755939869251536 c3.340392412104228,0 6.32502554265027,-1.254519571810444 6.637719226967202,-4.755939869251536 c0.05149147496236917,-0.6413029154404155 0.0589811440478047,-0.9090585852447315 0.05991735268348411,-1.2704351186169949 V9.090922165394904 H125.28359359566744 z" id="svg_1" class=""/>
</svg>