<?xml version="1.0" encoding="UTF-8"?>
<svg width="12px" height="15px" viewBox="0 0 12 15" version="1.1" xmlns="http://www.w3.org/2000/svg" xmlns:xlink="http://www.w3.org/1999/xlink">
    <!-- Generator: Sketch 42 (36781) - http://www.bohemiancoding.com/sketch -->
    <title>Fill 1</title>
    <desc>Created with Sketch.</desc>
    <defs></defs>
    <g id="Design-V1" stroke="none" stroke-width="1" fill="none" fill-rule="evenodd">
        <g id="human-form-pg6" transform="translate(-1033.000000, -165.000000)" stroke="#FFFFFF" fill="#FFFFFF">
            <g id="modal" transform="translate(160.000000, 148.000000)">
                <g id="prev" transform="translate(765.000000, 0.000000)">
                    <path d="M108.775138,23.98575 L113.355138,19.83175 C113.547138,19.64075 113.547138,19.33375 113.355138,19.14175 C113.165138,18.95275 112.856138,18.95275 112.665138,19.14175 L107.242138,24.06175 C107.207138,24.08275 107.171138,24.09875 107.142138,24.12875 C107.043138,24.22675 106.997138,24.35575 107.000138,24.48475 C106.997138,24.61375 107.043138,24.74275 107.142138,24.84075 C107.171138,24.87075 107.207138,24.88575 107.241138,24.90675 L112.665138,29.82675 C112.856138,30.01675 113.165138,30.01675 113.355138,29.82675 C113.547138,29.63575 113.547138,29.32875 113.355138,29.13775 L108.774138,24.98275 L120.499138,24.98275 C120.774138,24.98275 120.999138,24.75875 120.999138,24.48475 C120.999138,24.20975 120.774138,23.98575 120.499138,23.98575 L108.775138,23.98575 Z" id="Fill-1" transform="translate(113.999569, 24.484625) scale(-1, -1) rotate(-90.000000) translate(-113.999569, -24.484625) "></path>
                </g>
            </g>
        </g>
    </g>
</svg>