<svg xmlns="http://www.w3.org/2000/svg" width="1920" height="646" viewBox="0 0 1920 646">
<defs>
  <linearGradient id="a" x1="50%" x2="50%" y1="100%" y2="0%">
    <stop stop-color="#738EF5" offset="12%"/>
    <stop stop-color="#9295E2" offset="89%"/>
  </linearGradient>
</defs>
<g fill="none" fill-rule="evenodd">
  <path
    fill="url(#a)"
    fillRule="evenodd"
    d="M311.478317,194.247158 C428.197687,129.319873 513.536745,119.841824 588.607057,203.140878 C663.67737,286.439932 716.325807,70.8998219 807.036745,63.9549791 C897.747682,57.0101364 939.595339,139.660796 1029.40003,119.423884 C1119.20471,99.1869713 1242.5094,-32.995495 1414.5094,7.75174914 C1586.5094,48.4989932 1574.70081,208.570198 1678.86878,178.697219 C1783.03674,148.824239 1804.33003,79.9080675 1882.233,98.8502198 C1946.88388,114.570118 1982.71859,219.910259 2059.96965,185.795542 C2312.89807,74.100223 2264.92932,644.93616 2264.92932,644.93616 L28.6962867,646 C28.6962867,646 -75.2531884,175.625756 112.53378,228.851709 C204.462404,254.90777 234.76939,236.917901 311.478317,194.247158 Z"
    transform="translate(-200)"
  />
  <rect width="1920" height="646"/>
  </g>
</svg>