<?xml version="1.0" encoding="UTF-8"?>
<svg width="172px" height="413px" viewBox="0 0 172 413" version="1.1" xmlns="http://www.w3.org/2000/svg" xmlns:xlink="http://www.w3.org/1999/xlink">
    <!-- Generator: Sketch 44.1 (41455) - http://www.bohemiancoding.com/sketch -->
    <title>bottom left</title>
    <desc>Created with Sketch.</desc>
    <defs>
        <rect id="path-1" x="0" y="0" width="203" height="425"></rect>
    </defs>
    <g id="Job-Post" stroke="none" stroke-width="1" fill="none" fill-rule="evenodd">
        <g id="jobs-post" transform="translate(0.000000, -1190.000000)">
            <g id="Desc" transform="translate(-67.000000, 419.000000)">
                <g id="bg2">
                    <g id="bottom-left" transform="translate(67.000000, 769.000000)">
                        <mask id="mask-2" fill="white">
                            <use xlink:href="#path-1"></use>
                        </mask>
                        <g id="Mask"></g>
                        <g mask="url(#mask-2)" fill-opacity="0.6" fill="#F7F8F8">
                            <g transform="translate(-27.000000, -4.000000)">
                                <path d="M49.5687,35.0701 C50.7487,33.3941 50.7117,30.6721 48.9767,29.3071 C47.0557,27.7931 40.7957,22.6281 38.7607,21.2631 C37.8017,20.6201 36.1337,20.5891 35.0757,20.9051 C33.9057,21.2531 32.6557,22.2081 32.1277,23.3321 C30.9547,25.8241 31.8127,28.5861 34.1937,29.9691 C35.9577,30.9941 42.1087,35.5701 43.9447,36.4581 C45.9327,37.4161 48.2867,36.8931 49.5687,35.0701" id="Fill-1"></path>
                                <path d="M58.347,60.6907 C59.421,58.6417 58.567,56.1377 56.584,55.0327 C55.326,54.3327 54.063,53.6367 52.808,52.9287 C51.749,52.3327 50.36,51.6807 49.719,50.9487 C47.688,48.6197 43.677,49.7627 42.385,52.2237 C41.078,54.7167 42.441,58.5847 45.487,58.9807 C45.344,58.6997 45.491,58.7307 45.924,59.0727 C46.251,59.2247 46.576,59.3777 46.904,59.5307 C47.558,59.8377 48.204,60.1477 48.849,60.4747 C50.131,61.1287 51.41,61.7947 52.691,62.4547 C54.701,63.4887 57.29,62.7057 58.347,60.6907" id="Fill-3"></path>
                                <path d="M65.1898,80.1038 C60.9418,79.0158 57.5378,76.2028 53.4748,74.7828 C48.0778,72.8968 44.1758,81.0148 48.3598,84.4898 C52.2988,87.7598 58.0978,88.6978 63.0108,89.5488 C69.1328,90.6108 71.2758,81.6618 65.1898,80.1038" id="Fill-5"></path>
                                <path d="M72.4339,111.5169 C73.0909,109.5159 72.1839,107.6659 70.6389,106.4079 C68.6849,104.8149 66.2389,103.7979 64.0009,102.6639 C61.5269,101.4079 59.0579,100.0549 56.4519,99.0939 C53.5519,98.0239 50.1649,99.8859 49.2269,102.7479 C48.1749,105.9559 50.0589,108.6799 52.8799,109.9729 C55.2189,111.0449 57.7129,111.7519 60.1569,112.5439 C62.7029,113.3709 65.2649,114.3009 67.9449,114.5649 C69.8919,114.7579 71.8379,113.3369 72.4339,111.5169" id="Fill-7"></path>
                                <path d="M35.6263,45.2957 C36.5303,43.5707 36.2683,40.9297 34.6483,39.6757 C32.9063,38.3247 30.9563,37.3137 29.0843,36.1587 C27.4703,35.1607 26.0603,33.6977 24.0923,32.7947 C21.5703,31.6367 18.6613,32.2157 17.0263,34.5377 C15.5163,36.6867 15.6353,40.0037 17.7703,41.7777 C19.6053,43.3037 21.8593,44.1577 24.0033,45.1657 C26.0513,46.1297 28.2093,47.2107 30.4323,47.6797 C32.4643,48.1087 34.6493,47.1567 35.6263,45.2957" id="Fill-9"></path>
                                <path d="M36.0589,63.5593 C36.7519,61.6003 36.0839,58.7493 33.9219,57.9073 C32.1439,57.2133 30.4419,56.4383 28.8649,55.3493 C27.6489,54.5103 25.8139,52.8573 24.3079,51.8283 C21.8929,50.1773 17.9629,51.6673 16.7859,54.1733 C15.3779,57.1633 16.5449,59.9313 19.1289,61.6983 C20.7619,62.8133 22.7539,63.4313 24.5859,64.1463 C26.6369,64.9463 28.6759,65.7193 30.7539,66.4513 C32.8819,67.2033 35.3709,65.5083 36.0589,63.5593" id="Fill-11"></path>
                                <path d="M42.8001,85.991 C43.5261,83.938 42.8281,80.951 40.5631,80.069 C38.8401,79.398 37.2431,78.623 35.7081,77.594 C35.6051,77.523 35.4551,77.419 35.3981,77.376 C35.0321,77.103 34.6731,76.827 34.3171,76.541 C33.2901,75.718 32.3511,74.88 31.2071,74.195 C28.8671,72.79 25.6921,73.811 24.2091,75.922 C22.6521,78.136 22.9191,81.22 24.9451,83.096 C26.6081,84.636 28.8631,85.666 30.9321,86.559 C33.1641,87.522 34.7921,88.154 37.2421,89.02 C39.4731,89.81 42.0801,88.031 42.8001,85.991" id="Fill-13"></path>
                                <path d="M46.7503,116.7898 C48.0583,114.2968 46.9523,111.5308 44.6763,110.1308 C40.6033,107.6248 36.8263,104.5028 32.6473,102.1998 C30.0043,100.7438 26.4803,101.9168 25.1013,104.5518 C23.5983,107.4178 24.9033,110.4628 27.4513,112.0988 C31.4493,114.6648 35.9703,116.4878 40.0933,118.8658 C42.3973,120.1948 45.5483,119.0818 46.7503,116.7898" id="Fill-15"></path>
                                <path d="M25.6956,5.9529 C21.4836,3.8279 16.5356,1.8889 11.8136,0.8989 L11.1366,0.5329 C8.9236,-0.6681 5.7346,0.2269 4.6376,2.5589 C3.6056,4.7559 4.1826,8.0109 6.6636,9.0579 L11.7756,11.2149 C11.7796,11.2159 11.7846,11.2189 11.7886,11.2209 C12.8966,11.6859 14.0136,12.1329 15.0596,12.7249 C16.8866,13.7569 18.7136,14.7819 20.5166,15.8239 C26.7146,19.4009 32.1326,9.2019 25.6956,5.9529" id="Fill-17"></path>
                                <path d="M72.5873,41.3889 C68.9323,40.5109 65.3753,39.7469 61.8993,38.2809 C59.6103,37.3129 56.9003,37.8849 55.6763,40.2209 C54.5793,42.3109 55.3243,45.4409 57.6143,46.4469 C61.7153,48.2489 65.9783,50.0819 70.3393,51.1299 C76.6043,52.6359 78.8493,42.8949 72.5873,41.3889" id="Fill-21"></path>
                                <path d="M106.016,63.1248 C101.039,60.6658 95.141,59.0048 89.582,58.7738 C85.709,58.6128 84.02,64.9718 87.825,66.3868 C92.459,68.1078 96.929,69.7978 101.416,71.8898 C107.155,74.5648 111.763,65.9648 106.016,63.1248" id="Fill-23"></path>
                                <path d="M85.4486,74.5349 C86.0786,71.8109 84.3216,69.6319 81.8686,68.8039 C78.0426,67.5089 74.2976,66.1649 70.6566,64.4049 C65.3516,61.8409 61.0806,69.8679 66.3866,72.5429 C70.6926,74.7109 75.1086,76.6869 79.7186,78.1169 C82.1846,78.8819 84.8986,76.9189 85.4486,74.5349" id="Fill-25"></path>
                                <path d="M103.5277,94.159 C99.4647,92.072 95.4147,89.968 91.3857,87.816 C85.9007,84.887 81.4367,93.376 86.8957,96.371 C90.9027,98.569 94.8807,100.812 98.8507,103.073 C104.4677,106.273 109.3167,97.134 103.5277,94.159" id="Fill-27"></path>
                                <path d="M98.2425,111.2444 C93.8885,108.6604 89.2085,106.6174 84.6525,104.4154 C79.0755,101.7204 74.7845,109.8604 80.1795,112.9404 C84.5735,115.4494 88.9085,118.1514 93.5055,120.2774 C99.4635,123.0354 103.9065,114.6054 98.2425,111.2444" id="Fill-29"></path>
                                <path d="M92.597,140.1277 C93.746,137.6847 92.995,134.5837 90.472,133.3087 C89.068,132.5987 87.664,131.8887 86.26,131.1807 C83.905,129.9887 77.738,129.2097 76.566,131.7027 C75.416,134.1467 75.745,136.8327 81.567,140.1237 C82.937,140.8987 84.376,141.5437 85.78,142.2527 C88.135,143.4427 91.425,142.6217 92.597,140.1277" id="Fill-31"></path>
                                <path d="M69.6009,137.4627 C70.6699,135.1897 70.0129,132.1077 67.5769,130.9627 C65.9529,130.1997 64.3429,129.4077 62.7059,128.6747 C57.2239,126.2207 53.9099,126.7137 52.7719,129.1397 C51.7019,131.4127 53.7729,135.4207 58.2329,137.2017 C59.8969,137.8647 61.4789,138.7267 63.1029,139.4887 C65.3779,140.5577 68.4609,139.8877 69.6009,137.4627" id="Fill-33"></path>
                                <path d="M50.8734,142.6951 C46.1234,141.2461 41.3234,140.0101 36.6044,138.4521 C34.0054,137.5941 31.1064,139.7551 30.5314,142.2491 C29.8654,145.1321 31.7244,147.4501 34.3264,148.3251 C39.0194,149.9031 43.7724,151.4371 48.6404,152.3711 C54.9694,153.5851 56.9584,144.5511 50.8734,142.6951" id="Fill-35"></path>
                                <path d="M33.0423,164.8421 C28.2933,163.3931 23.4933,162.1571 18.7743,160.5991 C16.1753,159.7411 13.2763,161.9021 12.7013,164.3951 C12.0353,167.2791 13.8943,169.5971 16.4963,170.4721 C21.1883,172.0501 25.9423,173.5841 30.8103,174.5171 C37.1393,175.7321 39.1283,166.6981 33.0423,164.8421" id="Fill-37"></path>
                                <path d="M90.5834,164.9383 C91.2254,162.1623 89.4274,159.5453 86.7624,158.8213 C83.8064,158.0173 80.8414,157.2503 77.8714,156.4953 C75.2644,155.8303 72.2154,157.6563 71.7154,160.3423 C71.1934,163.1413 72.7844,165.7723 75.5624,166.4993 C78.5264,167.2723 81.4924,168.0343 84.4694,168.7613 C87.1444,169.4133 89.9684,167.6003 90.5834,164.9383" id="Fill-39"></path>
                                <path d="M114.8939,165.8758 C115.9859,162.9318 114.2069,160.3768 111.4419,159.4138 C110.8999,159.2258 110.5899,159.0988 109.8299,158.7628 C109.0819,158.4358 108.3459,158.0878 107.6189,157.7198 C106.1649,156.9848 104.7599,156.1638 103.3889,155.2838 C101.2409,153.9048 98.1169,155.1528 97.0049,157.2738 C95.7079,159.7478 96.8739,162.2178 98.9949,163.6598 C101.8519,165.6048 104.8829,167.1788 108.0649,168.5238 C110.7499,169.6598 113.8139,168.7938 114.8939,165.8758" id="Fill-41"></path>
                                <path d="M119.2875,137.6092 C117.1605,136.3532 114.8105,135.4632 112.5315,134.5182 C110.1855,133.5472 107.7665,132.4822 105.2865,131.9212 C103.3225,131.4762 101.2565,132.5872 100.5855,134.4842 C99.8595,136.5422 100.7555,138.3102 102.4805,139.4942 C104.3925,140.8082 106.5545,141.8062 108.6075,142.8812 C110.6735,143.9632 112.6915,145.1762 114.8455,146.0762 C120.4695,148.4232 124.6615,140.7792 119.2875,137.6092" id="Fill-43"></path>
                                <path d="M129.14,125.531 C130.453,123.027 129.276,120.51 127.121,119.053 C123.329,116.486 118.941,114.592 114.893,112.448 C109.626,109.658 105.499,117.62 110.607,120.614 C114.56,122.931 118.483,125.672 122.664,127.55 C125.025,128.608 127.884,127.925 129.14,125.531" id="Fill-45"></path>
                                <path d="M140.5326,105.8714 C141.5056,103.8034 140.9176,100.9484 138.6786,99.9174 C137.6336,99.4374 136.5816,98.9744 135.5286,98.5134 C135.1046,97.8604 134.5216,97.2884 133.7996,96.8254 C132.9726,96.2944 132.0006,96.0574 131.0706,95.7614 C130.7386,95.6554 130.4056,95.5434 130.0766,95.4254 C129.9686,95.3794 129.5676,95.2204 129.4526,95.1724 C128.0276,94.5804 126.6176,93.9214 125.2456,93.2124 C121.0976,91.0684 116.5866,96.9684 120.4076,100.0894 C123.0216,102.2264 126.2436,104.4674 129.6346,105.3574 C131.2726,106.1644 132.9176,106.9614 134.5796,107.7254 C136.6726,108.6884 139.4836,108.1044 140.5326,105.8714" id="Fill-47"></path>
                                <path d="M159.4037,124.7034 C160.4457,122.7164 159.6797,120.0154 157.6277,119.0014 C154.3827,117.3974 151.0247,116.0834 147.7417,114.5714 C145.1137,113.3624 142.0257,114.3774 140.9817,117.1924 C140.0077,119.8204 141.5257,123.0094 144.3987,123.5874 C147.5767,124.2264 150.6797,125.3184 153.7037,126.4814 C155.8267,127.2984 158.2577,126.8894 159.4037,124.7034" id="Fill-49"></path>
                                <path d="M156.5277,141.4656 C152.9067,139.8946 149.4687,137.8046 145.8207,136.3356 C143.2257,135.2916 140.2137,135.8606 138.8207,138.5166 C137.4737,141.0836 138.5697,144.1116 141.0027,145.5186 C144.7147,147.6636 149.2397,148.8736 153.3377,150.0736 C158.3187,151.5316 161.3787,143.5686 156.5277,141.4656" id="Fill-51"></path>
                                <path d="M145.4935,159.0359 C142.1225,157.2679 138.1335,155.2809 134.4025,154.4889 C128.7355,153.2859 125.6445,161.2579 130.8605,164.0379 C134.2395,165.8389 138.5505,166.8889 142.2795,167.7059 C147.4135,168.8329 150.2425,161.5259 145.4935,159.0359" id="Fill-53"></path>
                                <path d="M137.8021,184.8933 C138.3821,182.3793 136.7541,179.9643 134.3221,179.3233 C131.5411,178.5893 128.7611,177.7113 125.9161,177.2763 C123.3681,176.8883 120.5161,178.2183 120.0021,180.9733 C119.5011,183.6713 121.0321,186.1793 123.6981,186.8873 C126.4831,187.6273 129.3881,187.9343 132.2331,188.3733 C134.7091,188.7563 137.2091,187.4623 137.8021,184.8933" id="Fill-55"></path>
                                <path d="M111.7757,185.5711 C107.4367,183.8471 102.9287,181.1581 98.3317,180.2981 C92.5417,179.2151 89.1097,187.3541 94.6637,190.1931 C98.8757,192.3461 104.0067,193.0061 108.5387,194.3041 C113.5727,195.7461 116.7807,187.5591 111.7757,185.5711" id="Fill-57"></path>
                                <path d="M146.6537,206.1887 C144.6787,204.9527 142.1607,204.3137 140.0187,203.3727 C137.8227,202.4087 135.6927,201.3237 133.6117,200.1337 C129.6207,197.8517 125.2267,203.8537 128.9077,206.8187 C131.0647,208.5607 133.3167,210.1957 135.6557,211.6867 C137.9617,213.1587 140.5507,214.7967 143.2537,215.3597 C148.9097,216.5437 151.3237,209.1117 146.6537,206.1887" id="Fill-59"></path>
                                <path d="M167.5033,196.3396 C163.5493,194.4156 159.4973,192.8736 155.6753,190.6546 C153.3893,189.3276 150.2543,190.4446 149.0633,192.7156 C147.7643,195.1926 148.8633,197.9376 151.1223,199.3296 C155.1593,201.8166 159.5203,204.2276 164.1133,205.4816 C169.4773,206.9426 172.5323,198.7876 167.5033,196.3396" id="Fill-61"></path>
                                <path d="M168.9486,177.5921 C165.3446,175.8731 161.6576,174.7501 158.2416,172.6061 C156.2086,171.3311 153.2966,172.4671 152.2436,174.4751 C151.0386,176.7731 152.1006,179.1501 154.1116,180.4741 C157.6996,182.8351 161.4696,185.3411 165.6296,186.5451 C170.8606,188.0611 173.8796,179.9451 168.9486,177.5921" id="Fill-63"></path>
                                <path d="M182.7191,164.426 C178.8961,162.59 174.9121,161.253 171.1791,159.19 C167.1561,156.967 162.5421,163.088 166.4171,165.959 C170.4161,168.922 174.6411,171.803 179.4351,173.285 C184.6041,174.882 187.5701,166.754 182.7191,164.426" id="Fill-65"></path>
                                <path d="M181.555,151.8792 C183.36,149.3162 182.266,146.4662 179.877,144.8202 C175.719,141.9552 171.422,139.3122 166.992,136.8872 C162.061,134.1902 158.391,141.5592 162.989,144.5172 C166.917,147.0452 170.694,149.7672 174.344,152.6832 C176.605,154.4882 179.797,154.3742 181.555,151.8792" id="Fill-67"></path>
                                <path d="M197.3958,194.7522 C195.7048,193.2042 193.6978,191.9292 191.8518,190.5682 C189.8528,189.0942 187.8598,187.4142 185.6628,186.2542 C180.7468,183.6602 175.4788,190.6752 179.9378,194.3902 C181.8598,195.9922 184.1178,197.2302 186.2518,198.5242 C188.2198,199.7152 190.1668,201.0892 192.2488,202.0672 C196.7698,204.1932 201.2848,198.3092 197.3958,194.7522" id="Fill-69"></path>
                                <path d="M193.2982,218.4978 C194.5062,216.1918 193.4482,213.7758 191.4152,212.4538 C187.9542,210.2028 184.7802,207.3878 181.1552,205.4068 C178.9862,204.2188 176.1302,204.9738 174.7602,206.9848 C173.4992,208.8358 173.3662,212.0788 175.4312,213.5418 C179.1532,216.1798 183.3502,218.0388 187.2552,220.3808 C189.3262,221.6248 192.2212,220.5508 193.2982,218.4978" id="Fill-72"></path>
                                <path d="M169.0345,228.2835 C169.9585,225.7915 168.8415,223.4115 166.6715,222.0285 C165.2555,221.1255 163.6695,220.5425 162.1315,219.8855 C160.3885,219.1395 158.6655,218.1945 156.8285,217.7185 C152.2205,216.5315 148.6415,222.9445 152.4285,226.0695 C153.9725,227.3465 155.8165,228.2225 157.5875,229.1465 C159.3765,230.0785 161.2045,230.9715 163.1665,231.4845 C165.6205,232.1255 168.1855,230.5795 169.0345,228.2835" id="Fill-74"></path>
                                <path d="M187.0599,244.9129 C187.9529,242.5009 186.8449,240.4219 184.8749,239.0159 C184.5849,238.8209 183.9009,238.3509 183.8009,238.2939 C183.4519,238.0929 183.0829,237.9239 182.7259,237.7359 C182.0129,237.3599 181.3079,236.9659 180.5999,236.5789 C178.9709,235.6839 177.4299,234.6989 175.6609,234.1059 C173.8089,233.4849 171.3319,234.7459 170.5229,236.4639 C169.5929,238.4429 170.0469,240.4379 171.4879,242.0229 C172.7079,243.3629 174.7079,244.4209 176.2559,245.3759 C177.9539,246.4219 179.6029,247.2789 181.4829,247.9539 C183.7399,248.7639 186.3099,246.9399 187.0599,244.9129" id="Fill-76"></path>
                                <path d="M184.8138,238.9695 C184.8358,238.9845 184.8528,239.0015 184.8758,239.0165 C185.0348,239.1265 185.0758,239.1525 184.8138,238.9695" id="Fill-78"></path>
                                <path d="M177.933,264.4495 C179.204,262.0265 178.152,259.2475 175.894,257.9035 C172.656,255.9765 169.37,253.9685 165.947,252.3845 C163.401,251.2075 160.274,251.9965 158.923,254.5745 C157.579,257.1365 158.662,260.2035 161.113,261.5975 C164.391,263.4645 167.937,264.9715 171.39,266.4895 C173.784,267.5415 176.659,266.8825 177.933,264.4495" id="Fill-80"></path>
                                <path d="M170.6283,288.0696 C171.8773,285.6876 170.7653,283.2696 168.7033,281.8876 C165.0703,279.4516 161.7463,276.6406 158.2443,274.0276 C156.0403,272.3816 153.0403,272.1556 151.0373,274.3326 C149.2423,276.2836 149.2153,279.7726 151.3423,281.5406 C155.3303,284.8536 159.9003,287.5286 164.4483,289.9956 C166.6193,291.1726 169.4913,290.2366 170.6283,288.0696" id="Fill-82"></path>
                                <path d="M148.5247,243.6467 C149.6557,241.2427 148.8247,238.5967 146.5357,237.2597 C143.7187,235.6157 140.9407,233.7777 137.9977,232.3697 C135.7457,231.2907 132.6717,231.9847 131.5457,234.3787 C130.3527,236.9137 131.3157,239.3567 133.5547,240.8337 C136.2787,242.6327 139.2807,244.0667 142.1397,245.6367 C144.3117,246.8277 147.4527,245.9277 148.5247,243.6467" id="Fill-84"></path>
                                <path d="M142.4652,263.5564 C142.9632,261.4004 141.8412,259.4894 140.0732,258.3424 C138.4642,257.2974 136.4682,256.6894 134.6912,255.9694 C132.7242,255.1714 130.6792,254.0284 128.5902,253.6424 C126.1112,253.1854 123.5822,254.4034 122.7222,256.8434 C121.8292,259.3674 122.8992,261.6784 125.0852,263.0984 C126.9172,264.2874 129.4262,264.8564 131.5002,265.5724 C133.6582,266.3154 135.7542,266.9744 138.0302,267.1934 C140.0672,267.3914 142.0392,265.4024 142.4652,263.5564" id="Fill-86"></path>
                                <path d="M124.9398,306.9715 C125.4368,304.8155 124.3158,302.9045 122.5478,301.7575 C120.9388,300.7115 118.9428,300.1035 117.1658,299.3835 C115.1978,298.5855 113.1528,297.4435 111.0648,297.0575 C108.5858,296.6005 106.0558,297.8185 105.1958,300.2585 C104.3028,302.7825 105.3728,305.0935 107.5588,306.5135 C109.3918,307.7025 111.9008,308.2715 113.9748,308.9875 C116.1318,309.7305 118.2288,310.3885 120.5048,310.6085 C122.5408,310.8055 124.5138,308.8175 124.9398,306.9715" id="Fill-88"></path>
                                <path d="M122.0687,331.8865 C122.5657,329.7305 121.4447,327.8195 119.6757,326.6725 C118.0677,325.6265 116.0717,325.0185 114.2947,324.2985 C112.3267,323.5005 110.2817,322.3585 108.1937,321.9725 C105.7147,321.5155 103.1847,322.7335 102.3247,325.1735 C101.4317,327.6975 102.5017,330.0085 104.6877,331.4285 C106.5197,332.6175 109.0297,333.1865 111.1037,333.9025 C113.2607,334.6455 115.3577,335.3035 117.6327,335.5235 C119.6697,335.7205 121.6427,333.7325 122.0687,331.8865" id="Fill-90"></path>
                                <path d="M148.5062,319.8015 C149.0032,317.6455 147.8822,315.7345 146.1142,314.5875 C144.5052,313.5425 142.5092,312.9345 140.7322,312.2145 C138.7642,311.4155 136.7202,310.2735 134.6312,309.8875 C132.1522,309.4305 129.6232,310.6485 128.7622,313.0885 C127.8702,315.6125 128.9392,317.9235 131.1262,319.3435 C132.9582,320.5325 135.4672,321.1015 137.5412,321.8175 C139.6992,322.5605 141.7952,323.2195 144.0712,323.4385 C146.1072,323.6365 148.0802,321.6475 148.5062,319.8015" id="Fill-92"></path>
                                <path d="M114.7367,353.5164 C113.1277,352.4714 111.1317,351.8634 109.3537,351.1424 C107.3867,350.3444 105.3417,349.2024 103.2537,348.8164 C100.7747,348.3594 98.2457,349.5774 97.3847,352.0174 C96.4927,354.5404 97.5607,356.8514 99.7487,358.2724 C101.5807,359.4614 104.0897,360.0304 106.1637,360.7464 C108.3217,361.4894 110.4177,362.1484 112.6937,362.3674 C114.7287,362.5654 116.7027,360.5764 117.1287,358.7304 C117.6267,356.5744 116.5047,354.6634 114.7367,353.5164" id="Fill-94"></path>
                                <path d="M157.0482,302.929 C158.1842,300.763 157.1542,298.631 155.3142,297.362 C152.0102,295.084 149.0442,292.283 145.3802,290.55 C142.9412,289.396 139.9212,290.192 138.6302,292.654 C137.3522,295.092 138.3612,298.096 140.7342,299.404 C144.2202,301.328 148.1042,302.529 151.4832,304.663 C153.3632,305.852 156.0752,304.788 157.0482,302.929" id="Fill-96"></path>
                                <path d="M126.9652,276.1868 C121.7332,274.0888 116.5362,271.8138 111.1632,270.0928 C105.8122,268.3768 102.5592,277.0648 107.7282,279.3598 C112.8802,281.6448 118.2882,283.3828 123.5882,285.2958 C128.7632,287.1648 132.1332,278.2568 126.9652,276.1868" id="Fill-98"></path>
                                <path d="M125.7308,219.4978 C126.3338,216.8908 124.6498,214.6568 122.2378,213.9078 C118.3008,212.6838 114.5008,211.0678 110.5958,209.7448 C105.3238,207.9598 101.9928,216.7868 107.1828,218.9498 C111.3938,220.7038 115.7418,221.8298 120.1418,222.9918 C122.5758,223.6348 125.1768,221.8978 125.7308,219.4978" id="Fill-100"></path>
                                <path d="M111.9134,232.9343 C107.2234,230.4053 102.3684,227.8083 97.2814,226.1813 C91.9344,224.4723 88.9464,232.8703 93.8914,235.3223 C98.3284,237.5233 103.0014,239.2353 107.4404,241.4603 C112.9724,244.2323 117.3874,235.8843 111.9134,232.9343" id="Fill-102"></path>
                                <path d="M102.767,257.656 C103.946,255.41 103.112,252.202 100.721,251.087 C97.529,249.597 94.394,247.992 91.153,246.613 C88.63,245.54 85.637,246.18 84.289,248.751 C83.063,251.089 83.922,254.464 86.428,255.617 C89.636,257.093 92.944,258.338 96.201,259.703 C98.621,260.718 101.473,260.126 102.767,257.656" id="Fill-104"></path>
                                <path d="M76.142,230.3465 C73.842,228.6555 71.327,227.3035 68.971,225.6925 C66.581,224.0555 64.352,222.1605 61.868,220.6725 C56.817,217.6445 52.153,224.9525 56.104,228.8635 C58.281,231.0165 61.112,232.7015 63.792,234.1655 C66.443,235.6135 69.264,237.0645 72.197,237.8305 C76.202,238.8765 79.748,232.9975 76.142,230.3465" id="Fill-106"></path>
                                <path d="M83.7699,212.6619 C81.6659,211.1399 79.5629,209.6199 77.4589,208.0999 C76.4069,207.3389 75.3589,206.5729 74.3039,205.8179 C73.6999,205.3829 73.0909,204.9529 72.4809,204.5269 C71.3709,199.9909 64.3219,199.6139 63.0929,204.6139 C61.9969,209.0889 65.4009,211.5929 68.7119,213.7619 C71.9729,215.8969 75.2549,217.9959 78.5269,220.1139 C82.8369,222.9049 88.0039,215.7229 83.7699,212.6619" id="Fill-108"></path>
                                <path d="M91.3812,197.5535 C87.9022,195.5745 84.4362,193.5855 80.8912,191.7265 C75.5972,188.9545 71.2912,197.1235 76.5732,199.9535 C80.1022,201.8445 83.6932,203.5965 87.2832,205.3625 C92.3762,207.8675 96.3212,200.3655 91.3812,197.5535" id="Fill-110"></path>
                                <path d="M70.7279,173.2112 C66.2489,170.7782 60.5939,169.2102 55.5819,168.3532 C49.2719,167.2742 47.0419,176.5192 53.3319,178.0952 C58.0289,179.2722 62.8869,180.6892 67.6519,181.5052 C72.5439,182.3422 75.3219,175.7072 70.7279,173.2112" id="Fill-112"></path>
                                <path d="M119.6195,87.5393 C120.5695,84.9723 119.3745,82.7403 117.2485,81.2643 C115.5745,80.1023 113.4065,79.6553 111.4685,79.0903 C109.5645,78.5353 107.6915,78.0253 105.6915,78.0213 C102.1515,78.0123 100.5095,82.7133 103.0785,85.0313 C104.5615,86.3693 106.3445,87.2663 108.0865,88.2073 C109.9085,89.1933 111.6825,90.3053 113.7305,90.7493 C116.2235,91.2903 118.7385,89.9193 119.6195,87.5393" id="Fill-114"></path>
                                <path d="M54.1292,190.3235 C50.6972,187.3675 46.0012,185.6505 41.9232,183.7825 C39.7792,182.7995 37.1552,183.4515 36.0192,185.6235 C34.9412,187.6765 35.7292,190.4855 37.8582,191.5315 C39.7582,192.4645 41.5712,193.5015 43.3562,194.6415 C45.1152,195.7645 46.7842,197.1855 48.6542,198.1035 C53.3982,200.4335 58.3742,193.9795 54.1292,190.3235" id="Fill-116"></path>
                                <path d="M43.3109,207.2551 C44.5379,204.6441 43.5049,202.2861 41.2789,200.7321 C39.0979,199.2111 36.4619,198.1441 34.1039,196.9111 C31.9269,195.7741 28.8449,196.5891 27.7649,198.8871 C26.6419,201.2761 27.4699,203.8971 29.7409,205.2281 C32.0389,206.5741 34.3409,208.2451 36.7899,209.2881 C39.1099,210.2751 42.1389,209.7481 43.3109,207.2551" id="Fill-118"></path>
                                <path d="M44.6576,231.3587 C45.3386,229.2217 44.1156,226.6937 41.9186,226.0517 C38.4446,225.0367 34.9086,224.3247 31.4126,223.4057 C28.6146,222.6717 25.7506,224.2077 25.2116,227.1607 C24.7086,229.9177 26.7576,232.7957 29.6866,232.8647 C32.9286,232.9437 36.1736,233.4797 39.3526,234.0997 C41.5856,234.5357 43.9076,233.7117 44.6576,231.3587" id="Fill-122"></path>
                                <path d="M44.7357,248.366 C40.8967,247.448 37.1487,245.986 33.2997,245.173 C30.5647,244.595 27.6957,245.678 26.7857,248.536 C25.9057,251.299 27.5097,254.091 30.1497,255.053 C34.1777,256.521 38.8447,256.927 43.0887,257.397 C48.2487,257.969 49.8787,249.595 44.7357,248.366" id="Fill-124"></path>
                                <path d="M36.9212,267.5852 C33.2932,266.4302 29.0202,265.1662 25.2082,265.0332 C19.4192,264.8322 17.7592,273.2202 23.3782,275.0522 C27.0192,276.2392 31.4462,276.5242 35.2612,276.6822 C40.5122,276.8992 42.0292,269.2122 36.9212,267.5852" id="Fill-126"></path>
                                <path d="M33.8363,294.3855 C33.9703,291.8095 31.9483,289.7135 29.4413,289.5045 C26.5753,289.2635 23.6853,288.8825 20.8083,288.9485 C18.2323,289.0085 15.6533,290.8135 15.6253,293.6155 C15.6023,296.3595 17.5443,298.5635 20.2913,298.7985 C23.1633,299.0445 26.0773,298.8405 28.9553,298.7795 C31.4613,298.7265 33.6973,297.0195 33.8363,294.3855" id="Fill-128"></path>
                                <path d="M46.2503,313.8201 C44.0923,312.9451 41.5003,312.7541 39.2283,312.1991 C36.8973,311.6311 34.6113,310.9331 32.3553,310.1231 C28.0283,308.5681 24.7443,315.2411 28.8843,317.5231 C31.3113,318.8631 33.8123,320.0821 36.3743,321.1451 C38.9013,322.1941 41.7353,323.3571 44.4943,323.4431 C50.2713,323.6271 51.3573,315.8881 46.2503,313.8201" id="Fill-130"></path>
                                <path d="M65.0736,300.5003 C60.8456,299.2923 56.5876,298.4773 52.4386,296.9563 C49.9566,296.0453 47.0626,297.6893 46.2846,300.1343 C45.4346,302.7983 46.9946,305.3113 49.4616,306.2903 C53.8686,308.0373 58.5816,309.6543 63.3236,310.0913 C68.8586,310.5993 70.4516,302.0383 65.0736,300.5003" id="Fill-132"></path>
                                <path d="M63.2406,281.7869 C59.3926,280.7199 55.5676,280.2539 51.8306,278.7359 C49.6076,277.8329 46.9366,279.4579 46.2486,281.6179 C45.4616,284.0899 46.9206,286.2459 49.1316,287.2019 C53.0736,288.9039 57.2206,290.7169 61.5266,291.1799 C66.9426,291.7649 68.5066,283.2469 63.2406,281.7869" id="Fill-134"></path>
                                <path d="M74.516,266.4295 C70.432,265.2845 66.278,264.6595 62.243,263.2775 C57.895,261.7865 54.413,268.6155 58.729,270.7695 C63.181,272.9935 67.842,275.0965 72.821,275.7245 C78.188,276.3995 79.698,267.8805 74.516,266.4295" id="Fill-136"></path>
                                <path d="M71.1918,254.2752 C72.5238,251.4382 70.9518,248.8212 68.3138,247.6142 C63.7198,245.5152 59.0308,243.6582 54.2468,242.0402 C48.9218,240.2392 46.5868,248.1352 51.6288,250.2502 C55.9368,252.0562 60.1288,254.0812 64.2298,256.3182 C66.7698,257.7042 69.8938,257.0372 71.1918,254.2752" id="Fill-138"></path>
                                <path d="M94.2045,293.513 C92.2695,292.283 90.0725,291.376 88.0185,290.356 C85.7945,289.251 83.5395,287.943 81.1745,287.182 C75.8825,285.481 71.9125,293.304 76.9495,296.188 C79.1205,297.433 81.5585,298.259 83.8855,299.163 C86.0305,299.994 88.1865,301.009 90.4055,301.612 C95.2265,302.92 98.6515,296.341 94.2045,293.513" id="Fill-140"></path>
                                <path d="M102.4369,280.2381 C100.5019,279.0081 98.3059,278.1011 96.2509,277.0811 C94.0269,275.9761 91.7719,274.6681 89.4069,273.9071 C84.1149,272.2061 80.1459,280.0291 85.1819,282.9131 C87.3529,284.1581 89.7909,284.9841 92.1189,285.8881 C94.2629,286.7191 96.4189,287.7341 98.6379,288.3371 C103.4589,289.6451 106.8839,283.0661 102.4369,280.2381" id="Fill-142"></path>
                                <path d="M94.3246,317.8425 C95.1136,315.3625 93.6526,313.1665 91.4206,312.2175 C87.6216,310.6005 84.0076,308.3805 80.0936,307.0585 C77.7506,306.2655 75.0686,307.5055 74.0686,309.7235 C73.1486,311.7655 73.5806,314.9825 75.8686,316.0655 C79.9926,318.0155 84.4466,319.1175 88.7006,320.7465 C90.9566,321.6115 93.6196,320.0515 94.3246,317.8425" id="Fill-144"></path>
                                <path d="M72.1293,331.6931 C72.6053,329.0781 71.0923,326.9281 68.7153,325.9431 C67.1633,325.3001 65.5003,325.0021 63.8713,324.6211 C62.0243,324.1901 60.1653,323.5581 58.2733,323.4081 C53.5283,323.0391 51.1183,329.9761 55.3903,332.3961 C57.1333,333.3851 59.1013,333.9281 61.0043,334.5301 C62.9293,335.1381 64.8843,335.6991 66.9043,335.8641 C69.4333,336.0691 71.6923,334.1011 72.1293,331.6931" id="Fill-146"></path>
                                <path d="M92.7679,344.9397 C93.2279,342.4097 91.7769,340.5547 89.5919,339.5117 C89.2729,339.3707 88.5169,339.0267 88.4089,338.9877 C88.0309,338.8507 87.6379,338.7467 87.2529,338.6237 C86.4859,338.3777 85.7229,338.1117 84.9579,337.8537 C83.1999,337.2557 81.5099,336.5537 79.6649,336.2757 C77.7339,335.9857 75.5129,337.6587 75.0149,339.4907 C74.4429,341.6007 75.2359,343.4877 76.9309,344.7977 C78.3659,345.9057 80.5189,346.5997 82.2079,347.2717 C84.0619,348.0067 85.8339,348.5647 87.8039,348.9027 C90.1669,349.3087 92.3809,347.0657 92.7679,344.9397" id="Fill-148"></path>
                                <path d="M89.5228,339.4763 C89.5488,339.4873 89.5678,339.5003 89.5918,339.5123 C89.7688,339.5923 89.8138,339.6113 89.5228,339.4763" id="Fill-150"></path>
                                <path d="M87.1722,365.7644 C88.0022,363.1574 86.4842,360.6034 84.0262,359.6724 C80.5032,358.3374 76.9202,356.9294 73.2732,355.9644 C70.5612,355.2474 67.6182,356.5674 66.7362,359.3404 C65.8582,362.0964 67.4562,364.9294 70.1112,365.8764 C73.6642,367.1464 77.4182,368.0144 81.0822,368.9094 C83.6222,369.5294 86.3392,368.3814 87.1722,365.7644" id="Fill-152"></path>
                                <path d="M84.0804,390.2942 C84.8964,387.7312 83.3804,385.5432 81.1104,384.5402 C77.1104,382.7722 73.3484,380.5812 69.4454,378.6152 C66.9894,377.3782 63.9954,377.6762 62.4014,380.1672 C60.9724,382.4002 61.5514,385.8412 63.9534,387.2122 C68.4554,389.7842 73.4214,391.6242 78.3284,393.2642 C80.6714,394.0462 83.3364,392.6252 84.0804,390.2942" id="Fill-154"></path>
                                <path d="M54.598,350.3845 C55.294,347.8205 54.017,345.3585 51.53,344.4395 C48.471,343.3095 45.415,341.9825 42.273,341.1065 C39.867,340.4355 36.961,341.6535 36.268,344.2065 C35.534,346.9085 36.907,349.1475 39.368,350.2145 C42.362,351.5115 45.568,352.4035 48.657,353.4525 C51.001,354.2485 53.938,352.8175 54.598,350.3845" id="Fill-156"></path>
                                <path d="M52.2044,371.0515 C52.3194,368.8425 50.8834,367.1555 48.9434,366.3325 C47.1774,365.5815 45.1054,365.3295 43.2294,364.9295 C41.1544,364.4855 38.9424,363.7155 36.8184,363.6975 C34.2984,363.6785 32.0184,365.3165 31.5954,367.8685 C31.1534,370.5095 32.6084,372.5995 35.0084,373.6185 C37.0184,374.4715 39.5894,374.5965 41.7564,374.9415 C44.0104,375.2985 46.1884,375.5825 48.4684,375.4035 C50.5074,375.2445 52.1054,372.9435 52.2044,371.0515" id="Fill-158"></path>
                                <path d="M73.0257,407.405 C73.7677,405.075 72.3837,403.153 70.3497,402.224 C66.7007,400.553 63.2947,398.31 59.3837,397.24 C56.7827,396.528 53.9467,397.835 53.1027,400.484 C52.2667,403.107 53.7827,405.89 56.3457,406.766 C60.1137,408.056 64.1467,408.564 67.8447,410.079 C69.9047,410.924 72.3887,409.405 73.0257,407.405" id="Fill-160"></path>
                                <path d="M39.8792,415.8606 C40.6222,413.5306 39.2372,411.6086 37.2042,410.6786 C33.5552,409.0086 30.1492,406.7656 26.2382,405.6956 C23.6372,404.9836 20.8012,406.2906 19.9572,408.9396 C19.1212,411.5626 20.6372,414.3456 23.2002,415.2216 C26.9682,416.5116 31.0012,417.0196 34.6992,418.5346 C36.7582,419.3796 39.2432,417.8606 39.8792,415.8606" id="Fill-162"></path>
                                <path d="M39.0169,386.1736 C33.4989,385.0166 27.9869,383.6786 22.3969,382.9166 C16.8289,382.1556 15.1329,391.2766 20.6219,392.6386 C26.0939,393.9946 31.7209,394.7676 37.2729,395.7306 C42.6939,396.6736 44.4649,387.3156 39.0169,386.1736" id="Fill-165"></path>
                                <path d="M27.9574,330.5608 C28.0984,327.8878 26.0524,325.9808 23.5464,325.6618 C19.4564,325.1398 15.4344,324.2088 11.3584,323.5838 C5.8554,322.7418 4.1084,332.0128 9.5954,333.2408 C14.0474,334.2378 18.5234,334.5908 23.0604,334.9718 C25.5684,335.1828 27.8284,333.0198 27.9574,330.5608" id="Fill-167"></path>
                            </g>
                        </g>
                    </g>
                </g>
            </g>
        </g>
    </g>
</svg>