<?xml version="1.0" encoding="UTF-8"?>
<svg width="258px" height="250px" viewBox="0 0 258 250" version="1.1" xmlns="http://www.w3.org/2000/svg" xmlns:xlink="http://www.w3.org/1999/xlink">
    <!-- Generator: Sketch 44.1 (41455) - http://www.bohemiancoding.com/sketch -->
    <title>top right</title>
    <desc>Created with Sketch.</desc>
    <defs>
        <rect id="path-1" x="0" y="0" width="270" height="274"></rect>
    </defs>
    <g id="Job-Post" stroke="none" stroke-width="1" fill="none" fill-rule="evenodd">
        <g id="jobs-post" transform="translate(-1182.000000, -440.000000)">
            <g id="Desc" transform="translate(0.000000, 440.000000)">
                <g id="bg2">
                    <g id="top-right" transform="translate(1170.000000, 0.000000)">
                        <mask id="mask-2" fill="white">
                            <use xlink:href="#path-1"></use>
                        </mask>
                        <g id="Mask"></g>
                        <g mask="url(#mask-2)" fill-opacity="0.6" fill="#F7F8F8">
                            <g transform="translate(12.000000, -21.000000)">
                                <path d="M15.4246,50.0161 C13.4256,50.2881 11.5836,51.1331 9.6216,51.5831 C7.6786,52.0291 5.6876,52.1481 3.7016,52.2091 C-1.1324,52.3561 -1.2984,60.9871 3.5946,61.2231 C8.0776,61.4381 13.6376,61.7971 17.8576,59.9901 C22.9376,57.8141 21.0056,49.2551 15.4246,50.0161" id="Fill-1"></path>
                                <path d="M54.3201,43.4775 C53.3091,40.8535 50.5251,39.7595 48.0831,40.6705 C45.1221,41.7745 42.2671,42.6925 39.1521,43.1935 C33.4631,44.1095 34.4451,53.1535 40.2021,52.5815 C44.0731,52.1955 48.0231,51.4015 51.6901,50.0345 C54.1251,49.1265 55.2651,45.9325 54.3201,43.4775" id="Fill-4"></path>
                                <path d="M85.0721,36.1358 C83.7901,33.8528 81.4331,33.0988 79.0781,33.8888 C76.3591,34.8008 73.9181,36.3498 71.1091,37.0648 C68.7951,37.6528 66.9301,39.4958 67.2361,42.2148 C67.5101,44.6418 69.7771,46.7068 72.1451,46.3238 C76.1491,45.6758 80.3261,44.8148 83.8601,42.6988 C85.9201,41.4658 86.1571,38.0688 85.0721,36.1358" id="Fill-6"></path>
                                <path d="M117.7371,27.0127 C116.6751,24.2577 113.9651,23.4187 111.4601,24.1877 C107.2651,25.4757 102.8221,26.6467 98.7801,28.3807 C94.2151,30.3387 96.1331,37.3687 100.8951,37.0547 C105.6141,36.7437 110.6351,35.1887 115.0911,33.6127 C117.5551,32.7397 118.6771,29.4547 117.7371,27.0127" id="Fill-8"></path>
                                <path d="M150.4881,18.5825 C149.4671,15.9315 146.6741,14.8545 144.2111,15.7575 C141.6481,16.6965 139.1751,17.4575 136.4721,17.8075 C134.0321,18.1225 132.1861,20.5225 132.4781,23.1165 C132.7891,25.8705 135.0711,27.4375 137.5401,27.3535 C141.0421,27.2345 144.5911,26.5725 147.8411,25.1815 C150.2491,24.1515 151.4711,21.1365 150.4881,18.5825" id="Fill-10"></path>
                                <path d="M171.0574,9.5981 C169.2764,9.8671 167.8064,10.7871 166.1394,11.4201 C164.6934,11.9701 163.3434,12.2861 161.8844,12.7951 C157.8654,14.1981 158.6974,21.1001 162.8964,21.5101 C164.8154,21.6971 166.6314,21.5611 168.5114,21.1511 C170.5904,20.6981 172.9254,20.2431 174.6024,18.8011 C178.1874,15.7171 175.9924,8.8521 171.0574,9.5981" id="Fill-12"></path>
                                <path d="M23.159,69.5469 C20.291,69.9569 17.527,71.1469 15.323,73.1369 C13.553,74.7359 12.883,77.7169 14.502,79.7549 C16.017,81.6619 18.854,82.3339 20.787,80.6569 C21.124,80.3649 21.475,80.1049 21.836,79.8499 C21.964,79.7789 22.214,79.6349 22.384,79.5589 C22.651,79.4399 22.924,79.3479 23.196,79.2519 C22.895,79.3839 24.011,79.0879 24.223,79.0619 C26.58,78.7749 28.601,76.3279 28.203,73.7699 C27.812,71.2549 25.677,69.1869 23.159,69.5469" id="Fill-14"></path>
                                <path d="M31.2303,91.9756 C29.4993,89.7966 26.8213,89.4906 24.6243,91.0266 C22.7423,92.3426 20.8333,93.6056 18.8883,94.8166 C16.9613,96.0156 16.7553,99.0966 17.7563,100.9456 C18.8673,102.9956 21.2443,103.9136 23.3543,103.0426 C25.8403,102.0166 28.2233,100.6096 30.3663,98.9326 C32.3383,97.3886 32.8533,94.0186 31.2303,91.9756" id="Fill-16"></path>
                                <path d="M51.1551,129.8506 C49.3631,127.5956 46.8751,127.5236 44.6131,128.9116 C42.8131,130.0156 41.0721,131.2176 39.3181,132.4006 C37.2701,133.7826 36.9401,137.3486 38.4661,139.2676 C40.2301,141.4886 42.7551,141.6236 44.9861,140.2036 C46.7701,139.0676 48.5631,137.9536 50.3001,136.7396 C52.3311,135.3186 52.7031,131.7986 51.1551,129.8506" id="Fill-18"></path>
                                <path d="M72.701,146.668 C71.889,144.558 69.088,142.914 67.001,144.103 C63.837,145.905 60.745,148.028 58.234,150.763 C55.643,153.587 59.449,158.907 62.744,157.028 C65.321,155.559 67.654,154.013 70.298,152.661 C72.419,151.576 73.637,149.096 72.701,146.668" id="Fill-20"></path>
                                <path d="M79.4031,166.7505 C77.3271,164.5515 74.4181,165.0485 72.5241,167.1555 C71.5421,168.2495 71.2291,168.5745 70.0111,169.7185 C68.9681,170.6985 67.8861,171.6285 66.7771,172.5225 C64.9341,174.0095 64.4121,177.1465 65.9611,179.0965 C67.5551,181.1035 70.1751,181.5135 72.2041,179.9925 C74.6151,178.1835 76.8741,176.1865 78.9811,173.9965 C80.9241,171.9765 81.5471,169.0205 79.4031,166.7505" id="Fill-22"></path>
                                <path d="M89.9695,179.3208 C87.2975,181.4428 82.8255,188.0818 80.4275,190.5318 C78.6605,192.3378 77.9585,195.0388 79.5885,197.2858 C81.0115,199.2478 84.1495,199.9338 86.0025,198.2068 C88.8025,195.5978 93.9495,189.1208 96.4255,186.1608 C99.9185,181.9868 94.0545,176.0768 89.9695,179.3208" id="Fill-24"></path>
                                <path d="M112.7488,194.6489 C110.9128,192.3379 108.4138,192.3099 106.0998,193.6939 C102.9738,195.5649 96.2448,202.8029 94.6218,206.1649 C93.6158,208.2479 94.7098,210.9259 96.5078,212.0379 C98.5498,213.3009 100.7238,212.6299 102.2768,210.9059 C102.7278,210.4059 107.1798,205.8149 107.6168,205.3019 C107.7298,205.1679 107.9148,204.9629 107.9868,204.8789 C108.1908,204.6749 108.3968,204.4739 108.6088,204.2789 C109.6398,203.3329 110.7678,202.4869 111.8798,201.6499 C113.8948,200.1359 114.3608,196.6769 112.7488,194.6489" id="Fill-26"></path>
                                <path d="M126.1385,206.4971 C124.1175,204.9901 121.1805,205.1651 119.6395,207.3541 C117.7195,210.0831 115.7515,212.7521 113.5445,215.2321 C112.0475,216.9141 112.5275,219.8331 113.9505,221.3391 C115.3675,222.8421 118.1455,223.3981 119.7435,221.8001 C122.3605,219.1851 124.8845,216.4451 126.9885,213.3501 C128.3945,211.2801 128.2385,208.0611 126.1385,206.4971" id="Fill-28"></path>
                                <path d="M136.8416,223.3555 C134.9236,226.9855 132.6426,230.7905 132.0286,234.9635 C131.2446,240.2785 138.7046,242.5495 140.6526,237.5355 C141.8986,234.3255 143.3966,231.3205 144.3146,227.9825 C146.6396,219.5245 139.4776,218.3645 136.8416,223.3555" id="Fill-30"></path>
                                <path d="M249.3318,250.8648 C248.0258,255.1868 247.0398,259.6318 245.9408,264.0178 C244.6858,269.0238 252.9358,271.5368 254.3018,266.5118 C255.4858,262.1528 256.8048,257.8028 257.7798,253.3848 C258.9068,248.2868 250.8538,245.8258 249.3318,250.8648" id="Fill-78"></path>
                                <path d="M235.7703,249.3726 C233.3953,248.9986 231.6613,250.7396 231.1293,253.0086 C230.3773,256.2216 229.8633,259.4976 229.2753,262.7486 C228.8693,264.9956 230.6063,267.2396 232.6863,267.5666 C234.9863,267.9296 236.7573,266.2356 237.2413,263.9986 C237.9383,260.7696 238.7133,257.5486 239.2473,254.2836 C239.6213,251.9856 237.9183,249.7106 235.7703,249.3726" id="Fill-80"></path>
                                <path d="M216.4344,252.6519 C214.4984,251.0729 211.6684,251.4839 210.1714,253.4789 C207.7474,256.7069 205.8384,260.3139 204.2124,264.0529 C203.1854,266.4139 204.4214,269.3759 206.6494,270.3789 C209.0154,271.4439 211.5744,270.1959 212.6394,267.8449 C213.9894,264.8659 215.5844,262.0469 217.2534,259.2559 C218.5344,257.1149 218.4754,254.3159 216.4344,252.6519" id="Fill-82"></path>
                                <path d="M199.2469,234.0366 C196.9879,233.0196 194.5299,234.2086 193.5179,236.4596 L189.9699,244.3466 C188.9589,246.5916 190.1889,249.4476 192.3009,250.3976 C194.5599,251.4146 197.0179,250.2256 198.0299,247.9746 C199.2139,245.3456 200.3949,242.7166 201.5789,240.0876 C202.5889,237.8426 201.3589,234.9866 199.2469,234.0366" id="Fill-84"></path>
                                <path d="M171.7039,229.5933 C169.5899,228.6413 166.5959,229.6543 165.8139,232.0843 C164.8219,235.1703 162.9169,242.2513 162.8139,245.5283 C162.7389,247.9703 163.9849,250.2873 166.4589,250.6763 C168.8369,251.0503 171.9719,245.4343 172.3909,243.0243 C172.8209,240.5513 173.2649,238.1713 174.0999,235.8133 C174.9479,233.4213 174.0089,230.6303 171.7039,229.5933" id="Fill-86"></path>
                                <path d="M163.4724,205.5703 C161.3334,204.6083 158.2884,205.6303 157.5024,208.0943 C156.2564,212.0013 155.0114,215.9083 153.7654,219.8143 C153.0014,222.2103 153.8054,224.9223 156.1374,225.9713 C158.2584,226.9253 161.1594,225.8973 161.9674,223.5063 C163.2794,219.6293 164.5904,215.7523 165.9014,211.8753 C166.7264,209.4373 165.8314,206.6323 163.4724,205.5703" id="Fill-88"></path>
                                <path d="M150.034,188.1939 C148.151,186.6589 145.375,187.0469 143.921,189.0009 C142.054,191.5099 140.415,194.2219 138.699,196.8489 C137.35,198.9129 137.544,201.7819 139.51,203.3859 C141.332,204.8719 144.346,204.6379 145.709,202.5679 C147.435,199.9459 149.263,197.3699 150.833,194.6409 C152.049,192.5279 152.049,189.8369 150.034,188.1939" id="Fill-90"></path>
                                <path d="M131.7312,182.3267 C129.5382,181.4537 126.8632,182.3587 125.9602,184.7667 C125.7402,185.3567 125.5082,185.9417 125.2512,186.5147 C125.1222,186.8007 124.9802,187.0807 124.8482,187.3647 C124.7782,187.5047 124.7072,187.6437 124.6362,187.7837 C124.7902,187.5257 124.7882,187.5307 124.6322,187.7967 C123.9752,188.9527 123.2042,190.0317 122.3792,191.0587 C120.9192,192.8797 121.3162,196.0777 123.1722,197.4607 C125.1902,198.9627 127.6462,198.5767 129.2432,196.6597 C131.2682,194.2277 132.8972,191.4077 134.0792,188.4207 C134.9632,186.1807 133.9692,183.2177 131.7312,182.3267" id="Fill-92"></path>
                                <path d="M117.3933,171.3828 C115.4503,169.7978 113.0273,170.4028 111.4723,172.1638 C109.2403,174.6948 107.6353,177.9948 106.1603,181.0598 C105.2583,182.9328 106.2253,185.4058 107.8723,186.3908 C109.4643,187.3428 112.0563,187.2088 113.1093,185.3628 C114.6483,182.6638 116.5403,180.2538 118.1673,177.6258 C119.4083,175.6218 119.3023,172.9398 117.3933,171.3828" id="Fill-94"></path>
                                <path d="M98.8162,157.3711 C96.7532,155.8341 94.2032,156.2131 92.5742,158.1951 C91.5452,159.4461 90.5172,160.6971 89.4892,161.9481 C87.9982,163.7631 88.4352,167.0151 90.2892,168.3951 C91.1952,169.0701 92.3312,169.5211 93.4562,169.3341 C94.6742,169.1301 95.5632,168.5321 96.4022,167.5881 C97.4782,166.3761 98.5552,165.1651 99.6312,163.9531 C100.3502,163.1441 100.6432,161.6121 100.5242,160.5501 C100.3942,159.3931 99.7372,158.0571 98.8162,157.3711" id="Fill-96"></path>
                                <path d="M96.1717,128.0762 C94.6097,126.1102 91.5137,125.2832 89.5227,127.1212 C86.7417,129.6892 84.0517,132.4082 81.4727,135.1982 C79.8787,136.9222 80.4007,140.1012 81.8997,141.6432 C83.4867,143.2752 86.2137,143.7352 88.0147,142.1292 C90.5257,139.8902 92.9667,137.5182 95.3027,135.0772 C97.0517,133.2502 97.9677,130.3352 96.1717,128.0762" id="Fill-98"></path>
                                <path d="M73.5086,126.1167 C71.5626,124.0557 68.6606,124.4137 66.9046,126.5057 C65.6286,128.0237 64.3546,129.5407 63.0786,131.0587 C61.7116,132.6867 62.0876,135.3557 63.4596,136.8077 C64.7976,138.2237 67.4056,138.7417 68.9136,137.2417 C70.3106,135.8517 71.7066,134.4627 73.1036,133.0737 C73.9826,132.1987 74.5586,131.3117 74.7836,130.0517 C75.0436,128.6027 74.4646,127.1297 73.5086,126.1167" id="Fill-100"></path>
                                <path d="M67.0672,106.6714 C65.4062,104.5804 62.9912,104.4194 60.8882,105.7844 C58.6902,107.2124 56.6142,108.8424 54.5412,110.4624 C52.7332,111.8744 52.2642,114.9634 53.7502,116.8324 C55.3682,118.8684 57.7512,119.0514 59.7992,117.7004 C61.9912,116.2554 64.1932,114.8144 66.2592,113.1764 C68.0952,111.7214 68.5912,108.5894 67.0672,106.6714" id="Fill-102"></path>
                                <path d="M55.0135,90.3594 C52.0705,91.0894 49.0795,91.7214 46.1835,92.6354 C44.3095,93.2264 43.3735,95.7054 43.8565,97.5574 C44.3735,99.5484 46.1445,100.9654 48.1565,100.7224 C50.7905,100.4034 53.4065,99.8154 56.0165,99.3304 C58.2905,98.9084 60.0545,96.8674 59.7695,94.3404 C59.5225,92.1434 57.2765,89.7984 55.0135,90.3594" id="Fill-104"></path>
                                <path d="M60.1814,66.8198 C55.9334,66.7828 51.6264,67.2298 47.4804,68.1908 C42.4164,69.3638 43.0794,77.2128 48.4414,76.7778 C52.6944,76.4328 56.9334,76.1178 61.1954,75.8868 C63.5294,75.7598 65.2514,73.1848 64.9884,70.8438 C64.6844,68.1488 62.5284,66.8398 60.1814,66.8198" id="Fill-106"></path>
                                <path d="M85.6717,84.0391 C84.7447,81.6351 82.1117,80.5161 79.8527,81.4201 C77.2217,82.4731 74.4417,83.4681 71.9757,84.8981 C70.2447,85.9021 69.0917,87.6301 69.6567,89.8021 C70.1497,91.6951 71.9637,93.3231 73.9407,92.9551 C77.0777,92.3691 80.1937,91.2001 83.2177,90.1571 C85.5087,89.3671 86.5387,86.2901 85.6717,84.0391" id="Fill-108"></path>
                                <path d="M91.8064,105.3076 C90.9254,103.0216 88.3684,101.8816 86.2054,102.7866 C82.5454,104.3206 79.2084,107.0466 76.6144,110.1366 C73.5594,113.7726 78.8224,119.3776 82.3644,116.2276 C84.6144,114.2256 86.8814,112.6446 89.4454,111.1956 C91.4854,110.0416 92.7504,107.7586 91.8064,105.3076" id="Fill-110"></path>
                                <path d="M116.7693,134.8692 C115.2063,132.7132 112.4503,132.5192 110.4193,133.9582 C107.2033,136.2372 104.1363,139.3552 101.8353,142.6372 C100.5833,144.4222 100.6953,146.9602 102.2263,148.5342 C103.6153,149.9612 106.2613,150.5402 107.8203,148.9792 C110.4443,146.3492 113.0993,143.9222 115.9393,141.5552 C117.8513,139.9612 118.2763,136.9472 116.7693,134.8692" id="Fill-112"></path>
                                <path d="M132.1443,150.3042 C130.1003,148.7812 127.7503,149.2402 126.1173,151.0992 C124.2073,153.2712 122.5143,155.6162 121.0373,158.1352 C119.8733,160.1172 119.8023,162.9232 121.8163,164.4232 C123.5593,165.7212 126.5093,165.7482 127.7803,163.6362 C129.2833,161.1352 131.0013,158.8092 132.9323,156.6602 C134.4783,154.9392 133.9143,151.6222 132.1443,150.3042" id="Fill-114"></path>
                                <path d="M151.8162,154.6577 C150.1552,153.9097 148.0862,154.4587 146.9912,155.9717 C146.0752,157.2367 145.3152,158.6177 144.3722,159.8627 C143.4292,161.1037 142.3702,162.2647 141.3502,163.4347 C139.9112,165.0887 140.3472,167.8957 141.7442,169.3737 C143.2592,170.9787 145.6392,171.1687 147.3792,169.8217 C150.6712,167.2707 153.1952,163.3977 154.2722,159.2487 C154.7412,157.4417 153.3372,155.3417 151.8162,154.6577" id="Fill-116"></path>
                                <path d="M167.6053,174.9131 C165.3773,174.0261 162.6233,174.9401 161.7153,177.4041 C160.8783,179.6751 160.0413,181.9411 159.2763,184.2421 C158.4903,186.6071 159.2983,189.5891 161.7053,190.5461 C163.9533,191.4411 166.7683,190.5241 167.6743,188.0211 C168.5013,185.7431 169.2493,183.4391 170.0013,181.1331 C170.7653,178.7951 169.9883,175.8611 167.6053,174.9131" id="Fill-118"></path>
                                <path d="M181.4861,207.023 C179.3811,210.456 177.8361,214.596 176.9991,218.591 C175.9961,223.382 182.8631,225.132 184.6601,220.877 C185.9831,217.739 187.4031,214.64 188.7231,211.504 C190.6151,207.009 184.1321,202.709 181.4861,207.023" id="Fill-120"></path>
                                <path d="M210.1765,208.4756 C208.1045,206.7856 205.6975,207.5166 204.0215,209.2876 C201.1915,212.2786 199.1325,216.5356 197.2555,220.2256 C196.1505,222.4016 197.5485,225.3246 199.5715,226.2356 C201.9435,227.3026 204.0985,225.9786 205.2605,223.8286 C206.9505,220.7026 209.2015,218.0096 210.9815,214.9676 C212.2205,212.8496 212.1965,210.1216 210.1765,208.4756" id="Fill-122"></path>
                                <path d="M225.0935,225.4746 C222.6195,224.3616 220.3255,225.7336 219.1235,227.9996 C217.6145,230.8476 216.1685,233.8376 214.9675,236.8466 C214.1075,239.0016 214.9345,241.6036 216.8665,242.7586 C218.6245,243.8086 221.5245,243.6746 222.6765,241.6196 C224.4525,238.4526 226.0895,235.1376 227.5235,231.7796 C228.5305,229.4186 227.3255,226.4786 225.0935,225.4746" id="Fill-124"></path>
                                <path d="M190.6394,178.9473 C188.4814,177.3403 186.2094,177.9253 184.4614,179.7623 C182.2324,182.1063 176.1314,188.6093 174.2434,191.2623 C172.9064,193.1433 173.2104,195.9313 175.0034,197.3933 C176.8664,198.9113 179.3474,198.4073 180.8174,196.6263 C183.0694,193.8973 189.1574,187.8683 191.4474,185.4613 C193.0804,183.7443 192.4144,180.2693 190.6394,178.9473" id="Fill-126"></path>
                                <path d="M247.2947,218.8174 C244.8297,218.4294 243.1107,220.2284 242.5317,222.5474 C241.7277,225.7784 241.0667,229.0444 240.3747,232.3034 C239.8887,234.5954 241.7897,236.9224 243.8767,237.2504 C246.2907,237.6294 247.9907,235.8664 248.5517,233.5874 C249.3487,230.3504 250.1777,227.1224 250.8607,223.8554 C251.3497,221.5194 249.4247,219.1524 247.2947,218.8174" id="Fill-128"></path>
                                <path d="M262.1609,207.5928 C260.6619,210.6048 259.1299,213.5478 257.2059,216.2848 C255.7509,218.3578 256.2739,221.3048 258.4109,222.6288 C260.7039,224.0478 263.0149,222.8688 264.2339,220.6368 C265.9989,217.4058 267.7079,214.1518 268.9829,210.6628 C270.7169,205.9258 264.3489,203.1968 262.1609,207.5928" id="Fill-146"></path>
                                <path d="M234.6746,200.502 C232.1926,199.384 229.8656,200.757 228.6646,203.044 C226.9626,206.285 224.8916,209.307 223.2676,212.587 C222.1736,214.799 223.3616,217.763 225.3026,218.922 C227.3846,220.167 230.0146,219.729 231.5256,217.702 C233.9036,214.511 235.5856,210.556 237.1196,206.849 C238.1096,204.46 236.9406,201.521 234.6746,200.502" id="Fill-148"></path>
                                <path d="M253.0008,191.6143 C251.2598,191.1253 248.8008,191.9373 248.2438,193.9823 C247.4938,196.7393 246.5198,198.8543 244.8408,200.9263 C243.0698,203.1123 243.9468,206.5743 246.1748,207.9543 C248.7168,209.5283 251.2758,208.2203 252.6268,205.7483 C254.2338,202.8083 255.3358,199.6133 255.9048,196.2673 C256.2538,194.2173 254.8588,192.1353 253.0008,191.6143" id="Fill-150"></path>
                                <path d="M211.9666,185.0449 C210.5406,183.0779 207.3906,182.3869 205.5316,184.1219 C203.0096,186.4739 200.3956,188.7529 197.9856,191.2319 C196.1646,193.1039 195.4306,195.8839 197.1176,198.2109 C198.6016,200.2569 201.8126,200.9239 203.7456,199.1629 C206.3006,196.8349 208.6816,194.2759 211.1256,191.8209 C212.9126,190.0249 213.5936,187.2879 211.9666,185.0449" id="Fill-152"></path>
                                <path d="M227.3045,176.8784 C225.4055,177.8264 224.0785,179.4374 222.6235,180.9834 C221.5015,182.1764 220.3785,183.3604 219.3125,184.6094 C217.6685,186.5314 218.2045,190.0864 220.1725,191.5524 C222.4525,193.2514 224.9165,192.6634 226.7575,190.6834 C227.8145,189.5454 228.8135,188.3594 229.8185,187.1704 C230.9545,185.8234 232.1995,184.5284 232.8445,182.8224 C234.1355,179.4064 230.7635,175.1514 227.3045,176.8784" id="Fill-154"></path>
                                <path d="M212.117,159.3906 C210.596,157.4766 207.684,156.7506 205.746,158.4756 C203.748,160.2536 201.594,161.7996 199.525,163.4806 C197.587,165.0566 197.026,168.3526 198.665,170.4146 C200.444,172.6536 203,172.7996 205.25,171.3596 C207.493,169.9246 209.43,168.0416 211.284,166.0986 C212.957,164.3456 213.839,161.5576 212.117,159.3906" id="Fill-156"></path>
                                <path d="M185.0408,156.1148 C182.1508,156.4288 179.2818,158.5958 176.7808,160.0378 C174.6738,161.2528 173.1138,163.7728 174.2428,166.3648 C175.1798,168.5158 178.0078,170.4008 180.2618,169.0738 C181.7838,168.1768 183.3158,167.2938 184.8168,166.3578 C186.2918,165.4388 187.7538,164.6148 188.8268,163.1638 C191.0408,160.1738 188.5748,155.7308 185.0408,156.1148" id="Fill-158"></path>
                                <path d="M175.8084,135.3482 C174.3764,133.8762 171.5974,133.2462 169.9944,134.8862 C168.5424,136.3702 167.0324,137.8072 165.4194,139.0972 C163.8004,140.3922 161.9944,141.4122 160.4004,142.7372 C156.3384,146.1122 160.0574,153.2262 164.9714,151.1582 C169.3714,149.3062 173.2794,145.2892 176.2144,141.4772 C177.5894,139.6912 177.3444,136.9272 175.8084,135.3482" id="Fill-160"></path>
                                <path d="M146.8933,130.1685 C145.3143,128.1805 142.7043,127.7615 140.6943,129.2785 C138.9973,130.5605 137.0153,131.7385 135.7393,133.5015 C134.5793,135.1025 134.4613,137.6705 135.7383,139.2775 C136.9773,140.8365 139.1553,141.6875 140.9983,140.8085 C142.9643,139.8705 144.4783,138.1845 146.0823,136.6965 C147.8093,135.0955 148.5043,132.1965 146.8933,130.1685" id="Fill-162"></path>
                                <path d="M135.5457,110.3755 C133.6977,108.8685 130.9887,109.2565 129.5607,111.1655 C127.8297,113.4785 125.9387,115.7785 123.9777,117.7985 C122.4867,119.3335 121.8837,121.6075 123.2677,123.5145 C124.5057,125.2215 127.0817,125.6975 128.6957,124.2935 C131.3997,121.9415 133.9337,119.3855 136.3277,116.6865 C137.8977,114.9175 137.2507,111.7655 135.5457,110.3755" id="Fill-164"></path>
                                <path d="M111.9695,112.2969 C110.5785,110.8239 107.8845,110.2979 106.3155,111.8479 C104.1865,113.9489 102.0395,116.1619 100.1615,118.5189 C97.1615,122.2849 102.3585,127.8799 105.9965,124.7009 C108.2455,122.7369 110.3575,120.4869 112.3655,118.2569 C113.8335,116.6249 113.3515,113.7599 111.9695,112.2969" id="Fill-166"></path>
                                <path d="M113.5887,88.9116 C112.1117,87.0536 109.4017,86.4406 107.5187,88.0396 C106.6157,88.8066 105.7857,89.6556 104.8567,90.3886 C104.3947,90.7526 103.9207,91.0986 103.4347,91.4256 C103.2447,91.5526 103.0527,91.6746 102.8597,91.7966 C102.8137,91.8216 102.6997,91.8846 102.4987,91.9996 C100.6607,93.0196 99.3397,95.2506 100.3057,97.4696 C101.2147,99.5576 103.4297,100.6736 105.5077,99.8106 C108.0517,98.7536 110.8267,97.3316 112.7957,95.3046 C114.4037,93.6476 115.2217,90.9656 113.5887,88.9116" id="Fill-168"></path>
                                <path d="M85.9783,53.6758 C82.4493,54.1598 79.0953,55.5208 76.0083,57.3418 C74.0873,58.4738 72.8563,60.5798 73.7643,62.9358 C74.5693,65.0258 77.0733,66.2958 79.0853,65.3318 C81.6433,64.1068 84.2573,63.3468 86.9853,62.6788 C89.2403,62.1268 91.0463,60.3008 90.7503,57.6718 C90.4793,55.2658 88.2873,53.3598 85.9783,53.6758" id="Fill-170"></path>
                                <path d="M109.5486,69.1192 C108.5266,67.2982 106.0656,65.9962 104.1026,67.0782 C101.2766,68.6352 98.5456,70.3902 95.7896,72.0802 C93.9856,73.1862 93.7586,76.1402 94.7226,77.8582 C95.7156,79.6262 98.0946,80.8782 99.9996,79.8352 C102.8336,78.2842 105.6826,76.7672 108.4466,75.0832 C110.3116,73.9472 110.5416,70.8882 109.5486,69.1192" id="Fill-172"></path>
                                <path d="M120.3094,44.9351 C119.4034,42.5821 116.8694,41.5471 114.6684,42.3961 C111.8924,43.4681 109.2064,45.2051 106.8204,47.0171 C103.2934,49.6931 106.6714,56.3011 110.7124,54.1881 C113.0804,52.9521 115.5104,51.9621 117.9314,50.8651 C120.0754,49.8931 121.2064,47.2631 120.3094,44.9351" id="Fill-174"></path>
                                <path d="M131.5955,64.8779 C127.9655,65.5759 124.4285,66.7549 120.8805,67.8059 C116.1855,69.1959 118.2345,77.7969 123.0415,76.6659 C126.6395,75.8199 130.2845,75.0889 133.7935,73.8929 C138.5245,72.2799 136.5335,63.9269 131.5955,64.8779" id="Fill-176"></path>
                                <path d="M134.7801,93.5029 C133.8241,91.7389 131.3191,90.4089 129.4461,91.5039 C127.0121,92.9279 124.8821,94.5129 122.8781,96.5529 C121.2771,98.1829 120.4831,100.8539 122.0921,102.8779 C123.4981,104.6459 126.3081,105.4109 128.0991,103.7399 C129.8431,102.1129 131.7531,100.6859 133.7011,99.3429 C135.4901,98.1099 135.7711,95.3339 134.7801,93.5029" id="Fill-178"></path>
                                <path d="M165.3748,105.7749 C163.9098,103.7549 161.1248,103.4039 159.2178,104.8909 C156.4458,107.0519 153.5938,109.6039 151.2668,112.2849 C149.8948,113.8649 150.2768,116.6059 151.6458,118.0119 C153.2188,119.6299 155.2718,119.6159 157.0798,118.4439 C159.6978,116.7479 162.3098,114.4499 164.5698,112.2579 C166.3088,110.5719 166.9128,107.8959 165.3748,105.7749" id="Fill-180"></path>
                                <path d="M177.9793,111.8154 C175.1663,114.4324 172.5603,117.2604 169.6573,119.7814 C165.8473,123.0914 170.3173,129.3024 174.3573,126.2514 C177.6713,123.7474 180.9923,121.1104 183.8353,118.0204 C187.0973,114.4754 181.5113,108.5294 177.9793,111.8154" id="Fill-182"></path>
                                <path d="M206.6238,134.8442 C205.3098,133.0332 202.4138,132.4012 200.7018,133.9942 C198.1668,136.3552 195.7238,138.8232 193.2528,141.2582 C191.6528,142.8342 191.0738,145.2912 192.5068,147.2672 C193.7858,149.0312 196.5468,149.6002 198.2138,148.0862 C200.7698,145.7652 203.3558,143.4752 205.8498,141.0792 C207.5278,139.4652 208.0988,136.8782 206.6238,134.8442" id="Fill-184"></path>
                                <path d="M160.4363,87.0859 C158.9943,85.2699 156.1193,84.4939 154.2803,86.2019 C151.9553,88.3609 149.6193,90.4849 147.4363,92.8049 C145.9943,94.3379 146.5133,97.1529 147.8163,98.5329 C149.2903,100.0939 151.5563,100.2439 153.2493,98.9649 C155.4663,97.2909 157.5283,95.3969 159.6313,93.5689 C161.3953,92.0359 162.0023,89.0569 160.4363,87.0859" id="Fill-186"></path>
                                <path d="M158.1336,66.5938 C157.1416,64.7618 154.6226,63.4758 152.6876,64.5528 C150.0146,66.0398 147.1336,67.6598 144.7046,69.5658 C140.9326,72.5278 144.4516,79.0758 148.8396,77.1818 C151.6446,75.9708 154.4446,74.2038 157.0316,72.5578 C158.8966,71.3708 159.1156,68.4068 158.1336,66.5938" id="Fill-188"></path>
                                <path d="M146.0984,47.3804 C144.7034,44.8104 141.9944,44.6034 139.7614,45.9814 C137.0364,47.6624 134.3114,49.3444 131.5864,51.0264 C129.8444,52.1014 129.6194,54.9514 130.5544,56.6174 C131.5054,58.3114 133.8294,59.5634 135.6604,58.5314 C138.4464,56.9604 141.2314,55.3904 144.0164,53.8194 C146.2854,52.5404 147.4964,49.9574 146.0984,47.3804" id="Fill-190"></path>
                                <path d="M160.7898,28.5889 C157.5368,29.2059 154.4478,30.3199 151.4448,31.7489 C146.7528,33.9809 149.5948,41.1489 154.4418,39.5289 C156.8578,38.7219 159.3238,38.1989 161.8038,37.6559 C164.0878,37.1549 165.8898,35.2199 165.5968,32.6129 C165.3338,30.2869 163.0988,28.1509 160.7898,28.5889" id="Fill-192"></path>
                                <path d="M170.8533,46.3936 C166.9743,46.8816 162.9373,47.9606 159.3323,49.5306 C155.2493,51.3086 156.7163,58.8896 161.3493,57.8036 C164.8533,56.9826 168.3463,56.1696 171.8603,55.3966 C177.1763,54.2266 176.4363,45.6906 170.8533,46.3936" id="Fill-194"></path>
                                <path d="M193.7215,24.9111 C192.8005,22.5221 190.4815,21.8421 188.3195,22.4801 C184.7725,23.5271 181.4755,25.1431 178.2425,26.9801 C176.3275,28.0691 175.1355,30.2061 176.0245,32.5131 C176.8215,34.5811 179.2935,35.8311 181.2855,34.8811 C184.6125,33.2941 188.0435,31.9861 191.4435,30.5901 C193.5275,29.7341 194.5595,27.0861 193.7215,24.9111" id="Fill-196"></path>
                                <path d="M212.0564,34.6607 C208.4444,35.8747 204.9394,38.1947 201.6314,40.1167 C199.5174,41.3457 198.1774,43.6807 199.1684,46.2557 C200.0114,48.4407 202.8574,50.0727 205.0084,48.8837 C208.6874,46.8497 212.8604,44.8667 216.1004,42.1107 C219.7884,38.9727 216.4064,33.1987 212.0564,34.6607" id="Fill-200"></path>
                                <path d="M190.6687,44.7715 C187.4547,46.6545 184.1937,48.4715 181.0477,50.4765 C179.0437,51.7535 178.9327,55.0745 180.2507,56.8915 C181.8327,59.0725 184.3047,58.9975 186.3437,57.7665 C189.1997,56.0425 191.9647,54.1375 194.7587,52.3045 C198.6657,49.7415 194.7557,42.3775 190.6687,44.7715" id="Fill-202"></path>
                                <path d="M178.5652,70.5713 C175.5802,71.5583 172.1222,73.2593 169.6772,75.3113 C168.1022,76.6323 167.6172,78.9903 168.6562,80.8403 C169.7552,82.7983 171.7012,83.3463 173.7062,82.7333 C176.4472,81.8943 179.3142,80.4903 181.8842,79.1893 C187.0042,76.5963 183.9652,68.7843 178.5652,70.5713" id="Fill-204"></path>
                                <path d="M184.2869,91.645 C181.1539,93.325 178.1049,95.282 175.1729,97.321 C171.4809,99.889 175.0489,106.54 179.0809,104.521 C182.2579,102.931 185.4199,101.19 188.4059,99.234 C192.3569,96.645 188.4789,89.398 184.2869,91.645" id="Fill-206"></path>
                                <path d="M206.5633,73.5474 C204.6153,72.0964 202.5153,72.6014 200.9433,74.2894 C201.2353,73.9754 200.8783,74.3524 200.7773,74.4544 C200.5723,74.6584 200.3703,74.8654 200.1663,75.0714 C199.7073,75.5354 199.2403,75.9884 198.7533,76.4204 C197.8393,77.2324 196.8733,77.9864 195.8983,78.7144 C194.3423,79.8784 194.0283,82.2324 194.9383,83.9134 C195.8093,85.5214 197.9893,86.6154 199.6863,85.6934 C202.6163,84.0994 205.1183,82.0854 207.2973,79.4744 C208.6823,77.8174 208.2573,74.8094 206.5633,73.5474" id="Fill-208"></path>
                                <path d="M207.031,57.9033 C205.473,55.9433 203.332,55.8993 201.367,57.0903 C199.139,58.4413 197.195,60.0853 195.409,62.0313 C194.042,63.5213 194.51,66.1893 195.773,67.5273 C197.181,69.0183 199.37,69.1773 200.987,67.9413 C202.759,66.5873 204.489,65.1793 206.29,63.8673 C208.025,62.6043 208.389,59.6133 207.031,57.9033" id="Fill-210"></path>
                                <path d="M230.409,57.3521 C229.51,55.2881 227.127,53.9171 225.027,54.9301 C222.72,56.0441 220.655,57.5231 218.806,59.3471 C217.263,60.8701 216.547,63.4521 218.06,65.3561 C219.429,67.0781 222.023,67.7101 223.767,66.1751 C224.541,65.4941 225.344,64.8541 226.189,64.2751 C226.612,63.9861 227.041,63.7041 227.472,63.4301 C227.612,63.3421 228.975,62.5191 228.139,63.0101 C230.014,61.9081 231.423,59.6821 230.409,57.3521" id="Fill-212"></path>
                                <path d="M198.8728,116.4365 C196.3218,118.4675 193.5768,120.3835 191.1968,122.6335 C189.7938,123.9595 189.2318,125.9865 190.2448,127.7905 C191.1198,129.3495 193.2688,130.5135 194.9548,129.5555 C198.0908,127.7735 201.0198,125.5455 204.0018,123.4955 C208.4808,120.4135 203.2278,112.9685 198.8728,116.4365" id="Fill-214"></path>
                                <path d="M221.2449,99.9556 C220.0649,98.3286 217.3749,97.6916 215.8389,99.1796 C213.7049,101.2456 211.4999,103.2126 209.1459,104.9966 C207.4679,106.2696 207.2059,108.9616 208.4419,110.6676 C209.7509,112.4716 212.1269,112.6936 213.8279,111.4406 C216.2049,109.6896 218.4669,107.7886 220.5379,105.6496 C222.0199,104.1196 222.6239,101.8566 221.2449,99.9556" id="Fill-216"></path>
                                <path d="M243.7976,76.9605 C242.4976,75.3245 240.0486,74.7355 238.3906,76.1845 C236.9436,77.4495 235.4946,78.7145 234.0466,79.9805 C232.5206,81.3145 231.9866,83.8925 233.3486,85.6065 C234.6516,87.2445 237.0306,87.7765 238.6916,86.3725 L243.0906,82.6535 C244.6576,81.3295 245.1606,78.6755 243.7976,76.9605" id="Fill-218"></path>
                                <path d="M215.7254,89.3828 C214.3044,87.8778 212.2274,87.8118 210.5914,88.9738 C208.2444,90.6428 206.1414,92.8828 204.3414,95.1748 C202.9714,96.9188 203.3194,99.9358 205.0954,101.2588 C207.0794,102.7368 209.2704,102.2498 210.8664,100.4978 C211.7384,99.5418 212.6014,98.5778 213.4724,97.6208 C213.5434,97.5428 213.6624,97.4148 213.7084,97.3638 C213.8744,97.1928 214.0414,97.0238 214.2084,96.8538 C214.8604,96.1868 215.4734,95.4998 216.0834,94.7938 C217.3914,93.2818 217.0014,90.7338 215.7254,89.3828" id="Fill-220"></path>
                                <path d="M199.4383,101.9341 C198.1683,100.5901 195.7393,100.1291 194.3043,101.5261 C192.8313,102.9611 191.3963,104.4351 189.9613,105.9151 C189.2003,106.7021 188.6253,107.4431 188.4663,108.6031 C188.3273,109.6211 188.6013,110.9171 189.2413,111.7221 C190.4923,113.2961 193.1623,114.1061 194.7543,112.5131 C196.4573,110.8111 198.1423,109.0981 199.7963,107.3451 C201.1623,105.8991 200.6673,103.2351 199.4383,101.9341" id="Fill-222"></path>
                                <path d="M232.6707,72.252 C231.4077,70.512 228.6947,69.958 227.0497,71.445 C224.8967,73.392 222.6107,75.146 220.3117,76.892 C218.4987,78.267 218.2147,81.171 219.5507,83.014 C220.9847,84.991 223.5037,85.161 225.3647,83.848 C227.7267,82.183 229.8767,80.23 231.9357,78.171 C233.5007,76.606 234.0887,74.208 232.6707,72.252" id="Fill-224"></path>
                                <path d="M247.2908,101.3237 C245.8978,99.5717 243.4218,99.0587 241.6478,100.5137 C239.5408,102.2427 237.5868,104.1027 235.7198,106.1147 C234.3178,107.6247 234.8098,110.3587 236.0908,111.7157 C237.3858,113.0867 239.9478,113.6127 241.4048,112.1377 C243.0688,110.4537 244.7678,108.8057 246.5538,107.2647 C248.1748,105.8657 248.7238,103.1257 247.2908,101.3237" id="Fill-226"></path>
                                <path d="M228.4168,125.1675 C226.4568,123.7075 224.1898,124.1405 222.6248,125.9315 C220.5988,128.2505 218.4348,130.4995 216.6278,133.0155 C215.3768,134.7575 215.5498,137.2185 217.0088,138.7645 C218.3338,140.1675 220.9738,140.7165 222.4628,139.1975 C224.8808,136.7325 226.9928,133.9705 229.1738,131.2745 C230.5738,129.5435 230.1828,126.4825 228.4168,125.1675" id="Fill-228"></path>
                                <path d="M238.5867,149.5147 C237.1627,148.0517 234.8327,147.7187 233.2127,149.0877 C231.4927,150.5397 230.0837,152.4267 228.6317,154.1627 C227.2587,155.8037 225.8797,157.4357 224.5597,159.1247 C223.0837,161.0137 223.5447,164.0317 225.3507,165.5037 C227.3237,167.1127 229.8257,166.5187 231.3997,164.7047 C232.7277,163.1757 233.9977,161.5967 235.2757,160.0207 C236.5407,158.4617 237.9657,156.9467 238.9617,155.1797 C240.0027,153.3337 240.1707,151.1427 238.5867,149.5147" id="Fill-230"></path>
                                <path d="M248.8416,124.793 C246.9456,123.38 244.5386,123.7 243.0496,125.558 C241.8956,126.998 240.7396,128.438 239.5856,129.878 C238.1776,131.634 238.5606,134.719 240.3516,136.054 C242.2426,137.463 244.7336,137.186 246.2076,135.281 C247.3376,133.821 248.4686,132.361 249.5986,130.901 C250.9616,129.14 250.6346,126.128 248.8416,124.793" id="Fill-232"></path>
                                <path d="M262.6082,92.3213 C260.6542,90.8653 258.4712,91.3353 256.9022,93.0743 C255.0252,95.1543 253.1672,97.2383 251.3842,99.4083 C249.9462,101.1603 250.3672,104.2973 252.1562,105.6293 C254.1432,107.1103 256.4712,106.6853 258.0552,104.8513 C259.8832,102.7333 261.6222,100.5453 263.3542,98.3393 C264.7092,96.6133 264.3662,93.6313 262.6082,92.3213" id="Fill-234"></path>
                                <path d="M249.0408,163.6831 C246.8038,162.6761 244.7908,163.9281 243.6898,165.9461 C242.2628,168.5621 240.7938,171.1601 239.4368,173.8191 C238.3658,175.9161 239.7218,178.7401 241.6698,179.6171 C243.9578,180.6461 246.0398,179.3701 247.1598,177.2951 C248.5718,174.6771 249.8758,171.9921 251.2168,169.3321 C252.2508,167.2841 250.9468,164.5401 249.0408,163.6831" id="Fill-236"></path>
                                <path d="M259.1297,142.3823 C257.7837,140.9573 255.4087,140.6043 253.8767,141.9653 C252.7317,142.9813 251.6677,144.0863 250.5877,145.1783 C249.7547,146.0183 249.2017,146.8503 248.9867,148.0533 C248.7397,149.4323 249.2907,150.8353 250.2017,151.7983 C251.0087,152.6533 251.9577,153.0803 253.0987,153.1023 C254.5207,153.1303 255.5387,152.4963 256.4857,151.4283 C257.5097,150.2753 258.5457,149.1403 259.4967,147.9203 C260.7617,146.2983 260.4917,143.8243 259.1297,142.3823" id="Fill-238"></path>
                                <path d="M266.4744,118.916 C265.1514,117.516 262.7004,117.088 261.2004,118.497 C259.7074,119.898 258.2144,121.3 256.7224,122.702 C254.8334,124.476 254.4294,127.38 256.3314,129.395 C257.1484,130.259 258.1084,130.69 259.2614,130.713 C260.7124,130.741 261.7084,130.089 262.6864,129.02 L266.8424,124.475 C268.2234,122.965 267.7534,120.271 266.4744,118.916" id="Fill-240"></path>
                            </g>
                        </g>
                    </g>
                </g>
            </g>
        </g>
    </g>
</svg>