<?xml version="1.0" encoding="UTF-8"?>
<svg width="228px" height="106px" viewBox="0 0 228 106" version="1.1" xmlns="http://www.w3.org/2000/svg" xmlns:xlink="http://www.w3.org/1999/xlink">
    <!-- Generator: Sketch 44.1 (41455) - http://www.bohemiancoding.com/sketch -->
    <title>bottom right</title>
    <desc>Created with Sketch.</desc>
    <defs>
        <rect id="path-1" x="0" y="0" width="396" height="191"></rect>
    </defs>
    <g id="Job-Post" stroke="none" stroke-width="1" fill="none" fill-rule="evenodd">
        <g id="jobs-post" transform="translate(-996.000000, -1588.000000)">
            <g id="Desc" transform="translate(-67.000000, 419.000000)">
                <g id="bg2">
                    <g id="bottom-right" transform="translate(1000.000000, 1084.000000)">
                        <mask id="mask-2" fill="white">
                            <use xlink:href="#path-1"></use>
                        </mask>
                        <g id="Mask"></g>
                        <g mask="url(#mask-2)" fill-opacity="0.6" fill="#F7F8F8">
                            <g transform="translate(229.500000, 219.000000) scale(-1, 1) translate(-229.500000, -219.000000) translate(63.000000, 85.000000)">
                                <path d="M108.5556,90.8847 C106.4256,95.5997 105.0706,101.1487 105.0356,106.3347 C105.0126,109.9467 110.9926,111.3137 112.1866,107.7237 C113.6386,103.3507 115.0676,99.1317 116.8696,94.8847 C119.1766,89.4507 111.0136,85.4387 108.5556,90.8847" id="Fill-43"></path>
                                <path d="M137.5488,92.1923 C135.7368,96.0453 133.9078,99.8863 132.0338,103.7093 C129.4848,108.9143 137.5378,112.7963 140.1518,107.6133 C142.0688,103.8093 144.0278,100.0313 146.0058,96.2593 C148.8048,90.9223 140.1318,86.7033 137.5488,92.1923" id="Fill-47"></path>
                                <path d="M153.6386,96.5595 C151.3726,100.6995 149.6216,105.1255 147.7186,109.4405 C145.3886,114.7245 153.1136,118.4565 155.8066,113.3305 C158.0006,109.1565 160.3776,105.0305 162.2086,100.6795 C164.5836,95.0385 156.5856,91.1745 153.6386,96.5595" id="Fill-49"></path>
                                <path d="M180.7314,100.8793 C178.4184,99.8883 175.5534,100.6893 174.4484,103.0803 C173.8324,104.4123 173.2164,105.7423 172.6024,107.0733 C171.5684,109.3063 171.0434,115.0763 173.4044,116.0873 C175.7184,117.0783 178.2104,116.6843 181.0864,111.1543 C181.7634,109.8533 182.3184,108.4913 182.9334,107.1613 C183.9654,104.9273 183.0934,101.8903 180.7314,100.8793" id="Fill-51"></path>
                                <path d="M203.912,101.9477 C201.305,101.4407 198.926,103.2007 198.338,105.7067 C197.684,108.4867 197.066,111.2737 196.46,114.0637 C195.926,116.5147 197.725,119.2957 200.244,119.6737 C202.869,120.0677 205.268,118.5007 205.855,115.8907 C206.479,113.1037 207.093,110.3157 207.673,107.5197 C208.193,105.0067 206.412,102.4347 203.912,101.9477" id="Fill-57"></path>
                                <path d="M203.9941,79.2719 C201.2161,78.3509 198.8931,80.0899 198.0871,82.6979 C197.9301,83.2089 197.8211,83.5009 197.5321,84.2209 C197.2521,84.9269 196.9521,85.6249 196.6331,86.3139 C195.9951,87.6919 195.2761,89.0269 194.5011,90.3329 C193.2861,92.3789 194.5501,95.2489 196.5621,96.2149 C198.9101,97.3429 201.1731,96.1759 202.4471,94.1539 C204.1671,91.4299 205.5341,88.5549 206.6841,85.5469 C207.6551,83.0089 206.7481,80.1839 203.9941,79.2719" id="Fill-59"></path>
                                <path d="M177.5165,76.0986 C176.4155,78.1216 175.6625,80.3386 174.8565,82.4926 C174.0285,84.7086 173.1155,86.9986 172.6725,89.3266 C172.3235,91.1696 173.4245,93.0586 175.2135,93.6216 C177.1545,94.2306 178.7725,93.3386 179.8195,91.6926 C180.9825,89.8696 181.8405,87.8236 182.7765,85.8756 C183.7175,83.9166 184.7815,81.9966 185.5495,79.9616 C187.5535,74.6466 180.2945,70.9896 177.5165,76.0986" id="Fill-61"></path>
                                <path d="M165.9433,67.3139 C163.5683,66.1719 161.2613,67.3509 159.9743,69.4049 C157.7063,73.0209 156.0843,77.1699 154.2183,81.0109 C151.7913,86.0079 159.3423,89.5929 161.9653,84.7379 C163.9963,80.9809 166.4223,77.2359 168.0353,73.2799 C168.9443,71.0469 168.2143,68.4059 165.9433,67.3139" id="Fill-63"></path>
                                <path d="M147.2568,57.3413 C145.2978,56.5023 142.6568,57.1423 141.7708,59.2623 C141.3578,60.2513 140.9598,61.2463 140.5658,62.2413 C139.9708,62.6573 139.4568,63.2183 139.0488,63.9083 C138.5808,64.6943 138.3918,65.6083 138.1458,66.4843 C138.0588,66.7973 137.9648,67.1103 137.8648,67.4213 C137.8258,67.5233 137.6918,67.9013 137.6508,68.0103 C137.1458,69.3573 136.5758,70.6923 135.9608,71.9923 C134.0978,75.9253 139.7418,79.9373 142.5258,76.2763 C144.4308,73.7713 146.4138,70.6963 147.1328,67.5093 C147.8318,65.9573 148.5208,64.3993 149.1788,62.8253 C150.0068,60.8453 149.3718,58.2453 147.2568,57.3413" id="Fill-65"></path>
                                <path d="M164.1884,39.1494 C162.3024,38.2444 159.8114,39.0454 158.9334,40.9894 C157.5444,44.0644 156.4294,47.2354 155.1274,50.3424 C154.0874,52.8304 155.1324,55.6734 157.7904,56.5544 C160.2694,57.3764 163.1914,55.8574 163.6364,53.1634 C164.1284,50.1824 165.0444,47.2564 166.0304,44.4014 C166.7214,42.3974 166.2624,40.1474 164.1884,39.1494" id="Fill-67"></path>
                                <path d="M179.8984,41.2831 C178.5524,44.7081 176.7164,47.9771 175.4674,51.4241 C174.5794,53.8751 175.2074,56.6631 177.7264,57.8741 C180.1624,59.0451 182.9484,57.9261 184.1794,55.6141 C186.0564,52.0861 187.0374,47.8311 188.0214,43.9751 C189.2184,39.2871 181.6994,36.6971 179.8984,41.2831" id="Fill-69"></path>
                                <path d="M196.6269,50.9902 C195.0899,54.1882 193.3679,57.9692 192.7509,61.4692 C191.8149,66.7872 199.3429,69.4072 201.7629,64.4582 C203.3309,61.2522 204.1689,57.2022 204.8099,53.7022 C205.6909,48.8832 198.7919,46.4862 196.6269,50.9902" id="Fill-71"></path>
                                <path d="M220.9667,57.3139 C218.6067,56.8559 216.4087,58.4499 215.8907,60.7369 C215.2977,63.3509 214.5707,65.9699 214.2577,68.6339 C213.9787,71.0199 215.3107,73.6329 217.8937,74.0219 C220.4237,74.4009 222.7107,72.8939 223.2827,70.3879 C223.8827,67.7689 224.0727,65.0529 224.3907,62.3889 C224.6667,60.0689 223.3807,57.7829 220.9667,57.3139" id="Fill-73"></path>
                                <path d="M222.4453,81.5356 C220.9803,85.6336 218.6213,89.9206 217.9693,94.2316 C217.1493,99.6596 224.8433,102.5916 227.3073,97.3256 C229.1763,93.3326 229.6253,88.5306 230.6863,84.2676 C231.8663,79.5316 224.1343,76.8086 222.4453,81.5356" id="Fill-75"></path>
                                <path d="M240.5185,48.3759 C239.4315,50.2549 238.9175,52.6229 238.1115,54.6479 C237.2855,56.7249 236.3435,58.7439 235.3025,60.7219 C233.3055,64.5139 239.0405,68.4109 241.6835,64.8859 C243.2365,62.8199 244.6855,60.6689 245.9985,58.4419 C247.2955,56.2459 248.7375,53.7809 249.1745,51.2459 C250.0935,45.9379 243.0905,43.9309 240.5185,48.3759" id="Fill-77"></path>
                                <path d="M230.665,29.2748 C229.001,33.0198 227.696,36.8448 225.753,40.4768 C224.591,42.6498 225.733,45.5338 227.889,46.5688 C230.238,47.6998 232.76,46.5858 233.983,44.4358 C236.169,40.5948 238.273,36.4548 239.292,32.1338 C240.479,27.0908 232.782,24.5098 230.665,29.2748" id="Fill-79"></path>
                                <path d="M213.1513,28.5385 C211.6673,31.9515 210.7413,35.4215 208.8543,38.6745 C207.7323,40.6085 208.8863,43.2855 210.7913,44.2005 C212.9703,45.2485 215.1513,44.1815 216.3193,42.2645 C218.4023,38.8465 220.6143,35.2535 221.6003,31.3385 C222.8423,26.4155 215.1823,23.8685 213.1513,28.5385" id="Fill-81"></path>
                                <path d="M200.4374,16.1391 C198.8504,19.7601 197.7354,23.5141 195.9344,27.0581 C193.9954,30.8791 199.8474,34.9771 202.3954,31.2741 C205.0264,27.4531 207.5734,23.4241 208.7974,18.9101 C210.1174,14.0431 202.4494,11.5451 200.4374,16.1391" id="Fill-83"></path>
                                <path d="M188.7861,17.6313 C186.3401,16.0333 183.7201,17.1453 182.2641,19.4233 C179.7291,23.3903 177.4071,27.4783 175.2931,31.6843 C172.9391,36.3653 179.9261,39.5443 182.5311,35.1653 C184.7581,31.4233 187.1721,27.8183 189.7691,24.3213 C191.3781,22.1573 191.1671,19.1873 188.7861,17.6313" id="Fill-85"></path>
                                <path d="M228.2128,1.4809 C226.8258,3.1069 225.7038,5.0169 224.4958,6.7809 C223.1878,8.6909 221.6878,10.6019 220.6788,12.6869 C218.4208,17.3509 225.1278,22.0289 228.4438,17.7549 C229.8748,15.9119 230.9528,13.7689 232.0898,11.7379 C233.1358,9.8669 234.3528,8.0079 235.1958,6.0379 C237.0288,1.7569 231.4008,-2.2571 228.2128,1.4809" id="Fill-87"></path>
                                <path d="M250.4697,4.5253 C248.2817,3.4753 246.0657,4.5383 244.8997,6.4753 C242.9147,9.7723 240.3957,12.8213 238.6677,16.2613 C237.6317,18.3213 238.4287,20.9573 240.3467,22.1683 C242.1127,23.2823 245.1377,23.3013 246.4337,21.3293 C248.7697,17.7763 250.3657,13.8073 252.4207,10.0933 C253.5117,8.1233 252.4167,5.4623 250.4697,4.5253" id="Fill-90"></path>
                                <path d="M260.3759,26.8085 C258.0229,26.0295 255.8429,27.1475 254.6249,29.2135 C253.8299,30.5625 253.3389,32.0585 252.7749,33.5125 C252.1379,35.1615 251.3129,36.7955 250.9299,38.5225 C249.9739,42.8535 256.0649,45.9785 258.8539,42.3505 C259.9919,40.8695 260.7489,39.1235 261.5519,37.4445 C262.3619,35.7465 263.1349,34.0155 263.5489,32.1715 C264.0649,29.8645 262.5419,27.5245 260.3759,26.8085" id="Fill-92"></path>
                                <path d="M275.2822,9.477 C273.0062,8.724 271.1052,9.823 269.8592,11.704 C269.6872,11.98 269.2722,12.634 269.2212,12.728 C269.0462,13.06 268.8992,13.409 268.7362,13.748 C268.4092,14.424 268.0652,15.094 267.7272,15.766 C266.9472,17.312 266.0802,18.78 265.5852,20.447 C265.0652,22.192 266.3212,24.458 267.9482,25.156 C269.8222,25.958 271.6672,25.471 273.0952,24.077 C274.3042,22.896 275.2252,20.998 276.0642,19.526 C276.9842,17.911 277.7282,16.347 278.2962,14.573 C278.9782,12.444 277.1952,10.109 275.2822,9.477" id="Fill-94"></path>
                                <path d="M269.8183,11.7631 C269.8313,11.7411 269.8453,11.7251 269.8593,11.7041 C269.9573,11.5521 269.9803,11.5131 269.8183,11.7631" id="Fill-96"></path>
                                <path d="M293.7802,17.3432 C291.4812,16.2392 288.9262,17.3092 287.7482,19.4562 C286.0582,22.5352 284.2942,25.6602 282.9302,28.9022 C281.9162,31.3112 282.7532,34.1982 285.1982,35.3722 C287.6292,36.5402 290.4512,35.4322 291.6712,33.1052 C293.3032,29.9902 294.5922,26.6382 295.8932,23.3722 C296.7962,21.1082 296.0882,18.4512 293.7802,17.3432" id="Fill-98"></path>
                                <path d="M316.0234,23.3793 C313.7634,22.2933 311.5464,23.4083 310.3274,25.3743 C308.1754,28.8373 305.6654,32.0253 303.3434,35.3723 C301.8824,37.4793 301.7694,40.2803 303.8624,42.0753 C305.7394,43.6843 308.9904,43.5963 310.5684,41.5573 C313.5254,37.7343 315.8694,33.3903 318.0194,29.0733 C319.0444,27.0123 318.0794,24.3683 316.0234,23.3793" id="Fill-100"></path>
                                <path d="M275.3564,45.4145 C273.0794,44.4395 270.6414,45.2995 269.4704,47.4755 C268.0304,50.1515 266.4084,52.8005 265.1914,55.5875 C264.2604,57.7215 265.0074,60.5605 267.2744,61.5325 C269.6744,62.5605 271.9184,61.5835 273.2234,59.4505 C274.8094,56.8545 276.0474,54.0115 277.4184,51.2965 C278.4574,49.2355 277.5164,46.3395 275.3564,45.4145" id="Fill-102"></path>
                                <path d="M294.1249,50.3046 C292.0999,49.9116 290.3559,51.0186 289.3449,52.7026 C288.4229,54.2356 287.9219,56.1146 287.3089,57.7936 C286.6289,59.6526 285.6309,61.5946 285.3399,63.5526 C284.9949,65.8756 286.2109,68.1926 288.5129,68.9146 C290.8929,69.6636 293.0119,68.5936 294.2639,66.5096 C295.3119,64.7646 295.7599,62.4086 296.3589,60.4526 C296.9809,58.4196 297.5269,56.4456 297.6569,54.3176 C297.7749,52.4146 295.8579,50.6416 294.1249,50.3046" id="Fill-104"></path>
                                <path d="M330.3095,35.5458 C328.2545,34.5588 326.3015,35.5868 325.1795,37.3428 C323.1635,40.4948 320.6515,43.3478 319.1565,46.8178 C318.1605,49.1278 318.9995,51.9148 321.3355,53.0368 C323.6485,54.1488 326.4135,53.1108 327.5555,50.8588 C329.2355,47.5478 330.2275,43.8908 332.1065,40.6738 C333.1535,38.8828 332.0735,36.3928 330.3095,35.5458" id="Fill-106"></path>
                                <path d="M306.373,64.4389 C304.589,69.3819 302.64,74.2959 301.21,79.3569 C299.786,84.3979 307.985,87.1459 309.955,82.2549 C311.917,77.3819 313.36,72.2879 314.97,67.2889 C316.543,62.4069 308.135,59.5579 306.373,64.4389" id="Fill-109"></path>
                                <path d="M253.5995,67.433 C251.1505,66.956 249.1235,68.597 248.5045,70.869 C247.4925,74.576 246.1115,78.168 245.0055,81.849 C243.5135,86.818 251.8455,89.633 253.6915,84.729 C255.1895,80.749 256.0965,76.662 257.0365,72.525 C257.5565,70.237 255.8535,67.87 253.5995,67.433" id="Fill-111"></path>
                                <path d="M266.5673,79.8671 C264.3643,84.3181 262.1013,88.9251 260.7513,93.7161 C259.3333,98.7541 267.2543,101.2631 269.3793,96.5771 C271.2843,92.3721 272.7263,87.9641 274.6563,83.7561 C277.0583,78.5131 269.1373,74.6731 266.5673,79.8671" id="Fill-113"></path>
                                <path d="M289.8964,87.5825 C287.7654,86.5585 284.8044,87.4385 283.8434,89.7025 C282.5594,92.7245 281.1664,95.6965 279.9864,98.7615 C279.0684,101.1455 279.7624,103.9135 282.2024,105.0845 C284.4194,106.1505 287.5364,105.2405 288.5294,102.8685 C289.7994,99.8325 290.8514,96.7115 292.0174,93.6335 C292.8834,91.3465 292.2404,88.7075 289.8964,87.5825" id="Fill-115"></path>
                                <path d="M248.5956,106.7426 C247.2456,108.7516 245.8986,110.7606 244.5506,112.7696 C243.8756,113.7746 243.1966,114.7756 242.5276,115.7826 C242.1416,116.3606 241.7606,116.9416 241.3836,117.5236 C237.1936,118.7046 237.0726,125.2836 241.7706,126.2646 C245.9756,127.1406 248.1976,123.8886 250.1106,120.7326 C251.9926,117.6266 253.8426,114.5006 255.7086,111.3846 C258.1686,107.2776 251.3096,102.6986 248.5956,106.7426" id="Fill-119"></path>
                                <path d="M234.2724,100.144 C232.5414,103.449 230.8004,106.742 229.1854,110.105 C226.7744,115.127 234.5254,118.872 236.9904,113.859 C238.6364,110.511 240.1524,107.109 241.6804,103.707 C243.8494,98.881 236.7314,95.451 234.2724,100.144" id="Fill-121"></path>
                                <path d="M130.8583,77.4179 C128.4353,76.6169 126.3953,77.8019 125.0893,79.8319 C124.0613,81.4279 123.7153,83.4619 123.2533,85.2869 C122.7963,87.0769 122.3823,88.8379 122.4443,90.7019 C122.5503,93.9999 126.9843,95.3769 129.0593,92.9079 C130.2573,91.4829 131.0353,89.7929 131.8563,88.1399 C132.7153,86.4099 133.6933,84.7229 134.0413,82.7989 C134.4633,80.4599 133.1043,78.1609 130.8583,77.4179" id="Fill-147"></path>
                            </g>
                        </g>
                    </g>
                </g>
            </g>
        </g>
    </g>
</svg>