<?xml version="1.0" encoding="UTF-8"?>
<svg width="266px" height="261px" viewBox="0 0 266 261" version="1.1" xmlns="http://www.w3.org/2000/svg" xmlns:xlink="http://www.w3.org/1999/xlink">
    <!-- Generator: Sketch 44.1 (41455) - http://www.bohemiancoding.com/sketch -->
    <title>top left</title>
    <desc>Created with Sketch.</desc>
    <defs>
        <rect id="path-1" x="0" y="0" width="293" height="294"></rect>
    </defs>
    <g id="Job-Post" stroke="none" stroke-width="1" fill="none" fill-rule="evenodd">
        <g id="jobs-post" transform="translate(0.000000, -440.000000)">
            <g id="Desc" transform="translate(0.000000, 419.000000)">
                <g id="bg2">
                    <g id="top-left" transform="translate(0.000000, 21.000000)">
                        <mask id="mask-2" fill="white">
                            <use xlink:href="#path-1"></use>
                        </mask>
                        <g id="Mask"></g>
                        <g mask="url(#mask-2)" fill-opacity="0.6" fill="#F7F8F8">
                            <g transform="translate(-67.000000, -7.000000)">
                                <path d="M84.2538,144.3788 C82.6538,143.3348 80.1188,143.4578 78.9038,145.1168 C77.5568,146.9558 72.9478,152.9558 71.7428,154.8958 C71.1748,155.8088 71.1988,157.3638 71.5288,158.3388 C71.8918,159.4178 72.8208,160.5518 73.8858,161.0068 C76.2458,162.0188 78.7908,161.1288 80.0028,158.8668 C80.8998,157.1898 84.9628,151.3118 85.7308,149.5718 C86.5588,147.6888 85.9938,145.5138 84.2538,144.3788" id="Fill-1"></path>
                                <path d="M107.8378,135.3676 C105.8948,134.4346 103.5888,135.3116 102.6238,137.1946 C102.0128,138.3896 101.4048,139.5886 100.7868,140.7796 C100.2668,141.7856 99.7028,143.1006 99.0428,143.7216 C96.9388,145.6896 98.1348,149.3886 100.4688,150.5116 C102.8348,151.6476 106.3938,150.2536 106.6628,147.4026 C106.4058,147.5456 106.4298,147.4076 106.7338,146.9926 C106.8658,146.6826 106.9978,146.3746 107.1308,146.0656 C107.3948,145.4466 107.6618,144.8336 107.9458,144.2226 C108.5138,143.0066 109.0928,141.7946 109.6648,140.5796 C110.5638,138.6736 109.7498,136.2866 107.8378,135.3676" id="Fill-3"></path>
                                <path d="M125.788,128.5292 C124.913,132.5212 122.402,135.7832 121.212,139.6142 C119.631,144.7032 127.32,148.0742 130.422,144.0632 C133.34,140.2882 134.025,134.8552 134.658,130.2512 C135.448,124.5142 127.041,122.8092 125.788,128.5292" id="Fill-5"></path>
                                <path d="M204.9941,150.5292 C204.1191,154.5212 201.6081,157.7832 200.4181,161.6142 C198.8361,166.7032 206.5261,170.0742 209.6281,166.0632 C212.5461,162.2882 213.2311,156.8552 213.8641,152.2512 C214.6541,146.5142 206.2471,144.8092 204.9941,150.5292" id="Fill-7"></path>
                                <path d="M154.7324,120.5922 C152.8454,120.0452 151.1534,120.9502 150.0314,122.4312 C148.6104,124.3022 147.7434,126.6142 146.7584,128.7362 C145.6694,131.0822 144.4894,133.4252 143.6774,135.8842 C142.7764,138.6202 144.6214,141.7142 147.3174,142.4952 C150.3404,143.3712 152.8164,141.5272 153.9294,138.8572 C154.8524,136.6432 155.4304,134.2982 156.0884,131.9952 C156.7754,129.5962 157.5594,127.1792 157.7184,124.6752 C157.8354,122.8542 156.4474,121.0882 154.7324,120.5922" id="Fill-9"></path>
                                <path d="M94.2343,157.0336 C92.5973,156.2476 90.1463,156.5776 89.0303,158.1266 C87.8293,159.7936 86.9503,161.6436 85.9353,163.4246 C85.0573,164.9616 83.7413,166.3226 82.9633,168.1836 C81.9663,170.5706 82.6003,173.2626 84.8173,174.7086 C86.8683,176.0466 89.9553,175.8276 91.5393,173.7816 C92.9003,172.0226 93.6233,169.8936 94.4913,167.8646 C95.3233,165.9256 96.2593,163.8806 96.6253,161.7946 C96.9593,159.8876 96.0003,157.8826 94.2343,157.0336" id="Fill-11"></path>
                                <path d="M111.2363,156.0366 C109.3873,155.4546 106.7553,156.1696 106.0393,158.2106 C105.4513,159.8906 104.7853,161.5006 103.8213,163.0046 C103.0793,164.1646 101.5983,165.9286 100.6893,167.3646 C99.2293,169.6676 100.7463,173.2796 103.1183,174.2956 C105.9493,175.5096 108.4913,174.3306 110.0523,171.8676 C111.0393,170.3096 111.5483,168.4336 112.1563,166.7046 C112.8353,164.7676 113.4883,162.8426 114.1023,160.8836 C114.7343,158.8766 113.0743,156.6146 111.2363,156.0366" id="Fill-13"></path>
                                <path d="M131.915,149.0268 C129.978,148.4178 127.219,149.1648 126.471,151.3038 C125.901,152.9298 125.231,154.4428 124.322,155.9068 C124.26,156.0048 124.168,156.1478 124.13,156.2028 C123.888,156.5508 123.642,156.8958 123.388,157.2368 C122.654,158.2198 121.903,159.1218 121.302,160.2098 C120.069,162.4348 121.124,165.3598 123.14,166.6728 C125.253,168.0508 128.117,167.7018 129.799,165.7538 C131.179,164.1548 132.066,162.0198 132.831,160.0648 C133.655,157.9528 134.19,156.4168 134.918,154.1058 C135.582,152.0018 133.84,149.6308 131.915,149.0268" id="Fill-15"></path>
                                <path d="M160.4804,144.3452 C158.1154,143.2092 155.5744,144.3282 154.3444,146.4942 C152.1424,150.3702 149.3564,153.9902 147.3464,157.9572 C146.0764,160.4672 147.2844,163.7102 149.7834,164.9102 C152.5014,166.2182 155.2964,164.9022 156.7384,162.4752 C158.9994,158.6672 160.5494,154.3972 162.6304,150.4792 C163.7944,148.2892 162.6544,145.3902 160.4804,144.3452" id="Fill-17"></path>
                                <path d="M57.9042,167.5644 C56.0602,171.5564 54.4152,176.2294 53.6472,180.6594 L53.3282,181.3014 C52.2812,183.4034 53.2182,186.3434 55.4262,187.2894 C57.5072,188.1804 60.5212,187.5364 61.4162,185.1914 L63.2582,180.3594 C63.2592,180.3564 63.2622,180.3514 63.2632,180.3474 C63.6622,179.2994 64.0422,178.2444 64.5582,177.2504 C65.4612,175.5154 66.3562,173.7804 67.2682,172.0674 C70.3992,166.1774 60.7212,161.4614 57.9042,167.5644" id="Fill-21"></path>
                                <path d="M71.4316,186.5092 C70.2656,188.8052 68.9886,191.0392 67.6976,193.2662 C66.4336,195.4472 64.8306,197.6572 63.9956,200.0392 C61.8826,206.0662 69.4966,209.7392 72.9066,204.3232 C74.2506,202.1912 74.9856,199.5562 75.9046,197.2132 C76.8436,194.8182 77.7966,192.4262 78.8686,190.0862 C81.0776,185.2602 73.8426,181.7632 71.4316,186.5092" id="Fill-23"></path>
                                <path d="M92.0566,185.6767 C91.5336,187.9677 90.8876,190.1617 89.9766,192.3297 C89.0356,194.5627 87.7186,196.6327 86.8246,198.8697 C84.3246,205.1307 92.6996,209.0147 96.1596,203.3597 C98.9276,198.8387 100.0036,192.5537 100.7736,187.3717 C101.6116,181.7227 93.3346,180.0857 92.0566,185.6767" id="Fill-25"></path>
                                <path d="M121.5771,175.642 C119.1711,175.174 117.3721,176.778 116.7021,178.928 C115.4321,183.005 113.2181,186.684 111.4591,190.552 C108.8481,196.293 117.5411,200.518 120.3131,194.809 C122.4921,190.32 123.5671,185.304 124.8641,180.513 C125.4511,178.345 123.6681,176.047 121.5771,175.642" id="Fill-27"></path>
                                <path d="M145.749,172.2734 C143.518,171.3174 140.791,172.0954 139.717,174.3864 C138.858,176.2164 138.025,178.0234 137.326,179.9224 C136.894,181.0944 135.368,187.1674 135.781,188.3914 C136.151,189.4904 137.1,190.6484 138.186,191.1134 C140.442,192.0804 144.71,186.3734 145.754,183.9744 C146.563,182.1144 147.214,180.2254 147.862,178.3024 C148.255,177.1384 148.483,176.1184 148.074,174.9044 C147.717,173.8404 146.799,172.7214 145.749,172.2734" id="Fill-29"></path>
                                <path d="M164.4833,167.9326 C161.9953,171.2196 159.8693,174.7816 158.8523,178.8016 C158.3023,180.9836 159.8573,183.3236 161.9103,183.9706 C163.9133,184.5996 166.6423,183.8146 167.4513,181.6516 C168.6283,178.5036 169.5913,175.5556 171.4143,172.4546 C173.7943,168.4056 167.3373,164.1636 164.4833,167.9326" id="Fill-31"></path>
                                <path d="M83.0966,212.9531 C81.3446,212.1101 78.7676,212.8101 78.0096,214.7341 C76.0626,219.6811 72.9366,223.8981 70.3636,228.4941 C67.2196,234.1091 76.3876,238.5861 79.4136,232.8471 C81.8606,228.2111 83.0896,222.9401 84.8796,218.0391 C85.5836,216.1071 85.0806,213.9061 83.0966,212.9531" id="Fill-35"></path>
                                <path d="M104.0556,222.3305 C102.1356,221.6955 99.3666,222.4915 98.6286,224.6005 C97.6656,227.3555 96.6086,230.0975 95.8386,232.9125 C95.1826,235.3045 97.1786,238.0885 99.5726,238.4475 C102.3626,238.8675 104.2866,237.2315 105.1096,234.7145 C105.8936,232.3185 106.4316,229.8355 107.0486,227.3915 C107.5926,225.2315 106.0566,222.9925 104.0556,222.3305" id="Fill-37"></path>
                                <path d="M119.9726,201.3593 C119.0666,203.4723 118.2106,205.6153 117.2176,207.6883 C116.2286,209.7553 114.9996,211.7403 114.1916,213.8853 C113.2216,216.4593 113.9386,219.4243 116.5766,220.6923 C118.8766,221.7973 122.4306,220.9053 123.3856,218.3083 C125.1036,213.6353 126.0836,208.6433 127.5926,203.8863 C128.9836,199.5053 121.7696,197.1753 119.9726,201.3593" id="Fill-39"></path>
                                <path d="M89.3925,122.7309 C88.6935,126.1639 88.0975,129.5019 86.8435,132.7869 C86.0175,134.9509 86.6375,137.4569 88.8545,138.5219 C90.8375,139.4749 93.7295,138.6789 94.5915,136.5139 C96.1375,132.6349 97.7065,128.6049 98.5405,124.5079 C99.7405,118.6239 90.5915,116.8489 89.3925,122.7309" id="Fill-41"></path>
                                <path d="M108.5556,90.8847 C106.4256,95.5997 105.0706,101.1487 105.0356,106.3347 C105.0126,109.9467 110.9926,111.3137 112.1866,107.7237 C113.6386,103.3507 115.0676,99.1317 116.8696,94.8847 C119.1766,89.4507 111.0136,85.4387 108.5556,90.8847" id="Fill-43"></path>
                                <path d="M119.8544,109.6718 C117.2964,109.1738 115.3234,110.8818 114.6304,113.1928 C113.5494,116.7998 112.4184,120.3328 110.8984,123.7798 C108.6814,128.8048 116.2994,132.5238 118.6194,127.4928 C120.4994,123.4118 122.1954,119.2348 123.3774,114.8928 C124.0104,112.5708 122.0934,110.1068 119.8544,109.6718" id="Fill-45"></path>
                                <path d="M137.5488,92.1923 C135.7368,96.0453 133.9078,99.8863 132.0338,103.7093 C129.4848,108.9143 137.5378,112.7963 140.1518,107.6133 C142.0688,103.8093 144.0278,100.0313 146.0058,96.2593 C148.8048,90.9223 140.1318,86.7033 137.5488,92.1923" id="Fill-47"></path>
                                <path d="M153.6386,96.5595 C151.3726,100.6995 149.6216,105.1255 147.7186,109.4405 C145.3886,114.7245 153.1136,118.4565 155.8066,113.3305 C158.0006,109.1565 160.3776,105.0305 162.2086,100.6795 C164.5836,95.0385 156.5856,91.1745 153.6386,96.5595" id="Fill-49"></path>
                                <path d="M180.7314,100.8793 C178.4184,99.8883 175.5534,100.6893 174.4484,103.0803 C173.8324,104.4123 173.2164,105.7423 172.6024,107.0733 C171.5684,109.3063 171.0434,115.0763 173.4044,116.0873 C175.7184,117.0783 178.2104,116.6843 181.0864,111.1543 C181.7634,109.8533 182.3184,108.4913 182.9334,107.1613 C183.9654,104.9273 183.0934,101.8903 180.7314,100.8793" id="Fill-51"></path>
                                <path d="M178.997,122.3876 C176.845,121.4656 173.995,122.1776 173.007,124.4846 C172.35,126.0226 171.664,127.5466 171.034,129.0956 C168.926,134.2826 169.494,137.3536 171.79,138.3346 C173.943,139.2576 177.609,137.1976 179.124,132.9856 C179.687,131.4136 180.438,129.9126 181.096,128.3746 C182.018,126.2206 181.294,123.3706 178.997,122.3876" id="Fill-53"></path>
                                <path d="M184.4335,139.3549 C183.2375,143.8259 182.2425,148.3379 180.9445,152.7839 C180.2295,155.2329 182.3365,157.8629 184.6785,158.3179 C187.3865,158.8449 189.4855,157.0379 190.2165,154.5849 C191.5345,150.1629 192.8085,145.6849 193.5195,141.1199 C194.4455,135.1849 185.9635,133.6259 184.4335,139.3549" id="Fill-55"></path>
                                <path d="M203.912,101.9477 C201.305,101.4407 198.926,103.2007 198.338,105.7067 C197.684,108.4867 197.066,111.2737 196.46,114.0637 C195.926,116.5147 197.725,119.2957 200.244,119.6737 C202.869,120.0677 205.268,118.5007 205.855,115.8907 C206.479,113.1037 207.093,110.3157 207.673,107.5197 C208.193,105.0067 206.412,102.4347 203.912,101.9477" id="Fill-57"></path>
                                <path d="M203.9941,79.2719 C201.2161,78.3509 198.8931,80.0899 198.0871,82.6979 C197.9301,83.2089 197.8211,83.5009 197.5321,84.2209 C197.2521,84.9269 196.9521,85.6249 196.6331,86.3139 C195.9951,87.6919 195.2761,89.0269 194.5011,90.3329 C193.2861,92.3789 194.5501,95.2489 196.5621,96.2149 C198.9101,97.3429 201.1731,96.1759 202.4471,94.1539 C204.1671,91.4299 205.5341,88.5549 206.6841,85.5469 C207.6551,83.0089 206.7481,80.1839 203.9941,79.2719" id="Fill-59"></path>
                                <path d="M177.5165,76.0986 C176.4155,78.1216 175.6625,80.3386 174.8565,82.4926 C174.0285,84.7086 173.1155,86.9986 172.6725,89.3266 C172.3235,91.1696 173.4245,93.0586 175.2135,93.6216 C177.1545,94.2306 178.7725,93.3386 179.8195,91.6926 C180.9825,89.8696 181.8405,87.8236 182.7765,85.8756 C183.7175,83.9166 184.7815,81.9966 185.5495,79.9616 C187.5535,74.6466 180.2945,70.9896 177.5165,76.0986" id="Fill-61"></path>
                                <path d="M165.9433,67.3139 C163.5683,66.1719 161.2613,67.3509 159.9743,69.4049 C157.7063,73.0209 156.0843,77.1699 154.2183,81.0109 C151.7913,86.0079 159.3423,89.5929 161.9653,84.7379 C163.9963,80.9809 166.4223,77.2359 168.0353,73.2799 C168.9443,71.0469 168.2143,68.4059 165.9433,67.3139" id="Fill-63"></path>
                                <path d="M147.2568,57.3413 C145.2978,56.5023 142.6568,57.1423 141.7708,59.2623 C141.3578,60.2513 140.9598,61.2463 140.5658,62.2413 C139.9708,62.6573 139.4568,63.2183 139.0488,63.9083 C138.5808,64.6943 138.3918,65.6083 138.1458,66.4843 C138.0588,66.7973 137.9648,67.1103 137.8648,67.4213 C137.8258,67.5233 137.6918,67.9013 137.6508,68.0103 C137.1458,69.3573 136.5758,70.6923 135.9608,71.9923 C134.0978,75.9253 139.7418,79.9373 142.5258,76.2763 C144.4308,73.7713 146.4138,70.6963 147.1328,67.5093 C147.8318,65.9573 148.5208,64.3993 149.1788,62.8253 C150.0068,60.8453 149.3718,58.2453 147.2568,57.3413" id="Fill-65"></path>
                                <path d="M164.1884,39.1494 C162.3024,38.2444 159.8114,39.0454 158.9334,40.9894 C157.5444,44.0644 156.4294,47.2354 155.1274,50.3424 C154.0874,52.8304 155.1324,55.6734 157.7904,56.5544 C160.2694,57.3764 163.1914,55.8574 163.6364,53.1634 C164.1284,50.1824 165.0444,47.2564 166.0304,44.4014 C166.7214,42.3974 166.2624,40.1474 164.1884,39.1494" id="Fill-67"></path>
                                <path d="M179.8984,41.2831 C178.5524,44.7081 176.7164,47.9771 175.4674,51.4241 C174.5794,53.8751 175.2074,56.6631 177.7264,57.8741 C180.1624,59.0451 182.9484,57.9261 184.1794,55.6141 C186.0564,52.0861 187.0374,47.8311 188.0214,43.9751 C189.2184,39.2871 181.6994,36.6971 179.8984,41.2831" id="Fill-69"></path>
                                <path d="M196.6269,50.9902 C195.0899,54.1882 193.3679,57.9692 192.7509,61.4692 C191.8149,66.7872 199.3429,69.4072 201.7629,64.4582 C203.3309,61.2522 204.1689,57.2022 204.8099,53.7022 C205.6909,48.8832 198.7919,46.4862 196.6269,50.9902" id="Fill-71"></path>
                                <path d="M220.9667,57.3139 C218.6067,56.8559 216.4087,58.4499 215.8907,60.7369 C215.2977,63.3509 214.5707,65.9699 214.2577,68.6339 C213.9787,71.0199 215.3107,73.6329 217.8937,74.0219 C220.4237,74.4009 222.7107,72.8939 223.2827,70.3879 C223.8827,67.7689 224.0727,65.0529 224.3907,62.3889 C224.6667,60.0689 223.3807,57.7829 220.9667,57.3139" id="Fill-73"></path>
                                <path d="M222.4453,81.5356 C220.9803,85.6336 218.6213,89.9206 217.9693,94.2316 C217.1493,99.6596 224.8433,102.5916 227.3073,97.3256 C229.1763,93.3326 229.6253,88.5306 230.6863,84.2676 C231.8663,79.5316 224.1343,76.8086 222.4453,81.5356" id="Fill-75"></path>
                                <path d="M240.5185,48.3759 C239.4315,50.2549 238.9175,52.6229 238.1115,54.6479 C237.2855,56.7249 236.3435,58.7439 235.3025,60.7219 C233.3055,64.5139 239.0405,68.4109 241.6835,64.8859 C243.2365,62.8199 244.6855,60.6689 245.9985,58.4419 C247.2955,56.2459 248.7375,53.7809 249.1745,51.2459 C250.0935,45.9379 243.0905,43.9309 240.5185,48.3759" id="Fill-77"></path>
                                <path d="M230.665,29.2748 C229.001,33.0198 227.696,36.8448 225.753,40.4768 C224.591,42.6498 225.733,45.5338 227.889,46.5688 C230.238,47.6998 232.76,46.5858 233.983,44.4358 C236.169,40.5948 238.273,36.4548 239.292,32.1338 C240.479,27.0908 232.782,24.5098 230.665,29.2748" id="Fill-79"></path>
                                <path d="M213.1513,28.5385 C211.6673,31.9515 210.7413,35.4215 208.8543,38.6745 C207.7323,40.6085 208.8863,43.2855 210.7913,44.2005 C212.9703,45.2485 215.1513,44.1815 216.3193,42.2645 C218.4023,38.8465 220.6143,35.2535 221.6003,31.3385 C222.8423,26.4155 215.1823,23.8685 213.1513,28.5385" id="Fill-81"></path>
                                <path d="M200.4374,16.1391 C198.8504,19.7601 197.7354,23.5141 195.9344,27.0581 C193.9954,30.8791 199.8474,34.9771 202.3954,31.2741 C205.0264,27.4531 207.5734,23.4241 208.7974,18.9101 C210.1174,14.0431 202.4494,11.5451 200.4374,16.1391" id="Fill-83"></path>
                                <path d="M188.7861,17.6313 C186.3401,16.0333 183.7201,17.1453 182.2641,19.4233 C179.7291,23.3903 177.4071,27.4783 175.2931,31.6843 C172.9391,36.3653 179.9261,39.5443 182.5311,35.1653 C184.7581,31.4233 187.1721,27.8183 189.7691,24.3213 C191.3781,22.1573 191.1671,19.1873 188.7861,17.6313" id="Fill-85"></path>
                                <path d="M228.2128,1.4809 C226.8258,3.1069 225.7038,5.0169 224.4958,6.7809 C223.1878,8.6909 221.6878,10.6019 220.6788,12.6869 C218.4208,17.3509 225.1278,22.0289 228.4438,17.7549 C229.8748,15.9119 230.9528,13.7689 232.0898,11.7379 C233.1358,9.8669 234.3528,8.0079 235.1958,6.0379 C237.0288,1.7569 231.4008,-2.2571 228.2128,1.4809" id="Fill-87"></path>
                                <path d="M250.4697,4.5253 C248.2817,3.4753 246.0657,4.5383 244.8997,6.4753 C242.9147,9.7723 240.3957,12.8213 238.6677,16.2613 C237.6317,18.3213 238.4287,20.9573 240.3467,22.1683 C242.1127,23.2823 245.1377,23.3013 246.4337,21.3293 C248.7697,17.7763 250.3657,13.8073 252.4207,10.0933 C253.5117,8.1233 252.4167,5.4623 250.4697,4.5253" id="Fill-90"></path>
                                <path d="M260.3759,26.8085 C258.0229,26.0295 255.8429,27.1475 254.6249,29.2135 C253.8299,30.5625 253.3389,32.0585 252.7749,33.5125 C252.1379,35.1615 251.3129,36.7955 250.9299,38.5225 C249.9739,42.8535 256.0649,45.9785 258.8539,42.3505 C259.9919,40.8695 260.7489,39.1235 261.5519,37.4445 C262.3619,35.7465 263.1349,34.0155 263.5489,32.1715 C264.0649,29.8645 262.5419,27.5245 260.3759,26.8085" id="Fill-92"></path>
                                <path d="M275.2822,9.477 C273.0062,8.724 271.1052,9.823 269.8592,11.704 C269.6872,11.98 269.2722,12.634 269.2212,12.728 C269.0462,13.06 268.8992,13.409 268.7362,13.748 C268.4092,14.424 268.0652,15.094 267.7272,15.766 C266.9472,17.312 266.0802,18.78 265.5852,20.447 C265.0652,22.192 266.3212,24.458 267.9482,25.156 C269.8222,25.958 271.6672,25.471 273.0952,24.077 C274.3042,22.896 275.2252,20.998 276.0642,19.526 C276.9842,17.911 277.7282,16.347 278.2962,14.573 C278.9782,12.444 277.1952,10.109 275.2822,9.477" id="Fill-94"></path>
                                <path d="M269.8183,11.7631 C269.8313,11.7411 269.8453,11.7251 269.8593,11.7041 C269.9573,11.5521 269.9803,11.5131 269.8183,11.7631" id="Fill-96"></path>
                                <path d="M293.7802,17.3432 C291.4812,16.2392 288.9262,17.3092 287.7482,19.4562 C286.0582,22.5352 284.2942,25.6602 282.9302,28.9022 C281.9162,31.3112 282.7532,34.1982 285.1982,35.3722 C287.6292,36.5402 290.4512,35.4322 291.6712,33.1052 C293.3032,29.9902 294.5922,26.6382 295.8932,23.3722 C296.7962,21.1082 296.0882,18.4512 293.7802,17.3432" id="Fill-98"></path>
                                <path d="M316.0234,23.3793 C313.7634,22.2933 311.5464,23.4083 310.3274,25.3743 C308.1754,28.8373 305.6654,32.0253 303.3434,35.3723 C301.8824,37.4793 301.7694,40.2803 303.8624,42.0753 C305.7394,43.6843 308.9904,43.5963 310.5684,41.5573 C313.5254,37.7343 315.8694,33.3903 318.0194,29.0733 C319.0444,27.0123 318.0794,24.3683 316.0234,23.3793" id="Fill-100"></path>
                                <path d="M275.3564,45.4145 C273.0794,44.4395 270.6414,45.2995 269.4704,47.4755 C268.0304,50.1515 266.4084,52.8005 265.1914,55.5875 C264.2604,57.7215 265.0074,60.5605 267.2744,61.5325 C269.6744,62.5605 271.9184,61.5835 273.2234,59.4505 C274.8094,56.8545 276.0474,54.0115 277.4184,51.2965 C278.4574,49.2355 277.5164,46.3395 275.3564,45.4145" id="Fill-102"></path>
                                <path d="M294.1249,50.3046 C292.0999,49.9116 290.3559,51.0186 289.3449,52.7026 C288.4229,54.2356 287.9219,56.1146 287.3089,57.7936 C286.6289,59.6526 285.6309,61.5946 285.3399,63.5526 C284.9949,65.8756 286.2109,68.1926 288.5129,68.9146 C290.8929,69.6636 293.0119,68.5936 294.2639,66.5096 C295.3119,64.7646 295.7599,62.4086 296.3589,60.4526 C296.9809,58.4196 297.5269,56.4456 297.6569,54.3176 C297.7749,52.4146 295.8579,50.6416 294.1249,50.3046" id="Fill-104"></path>
                                <path d="M330.3095,35.5458 C328.2545,34.5588 326.3015,35.5868 325.1795,37.3428 C323.1635,40.4948 320.6515,43.3478 319.1565,46.8178 C318.1605,49.1278 318.9995,51.9148 321.3355,53.0368 C323.6485,54.1488 326.4135,53.1108 327.5555,50.8588 C329.2355,47.5478 330.2275,43.8908 332.1065,40.6738 C333.1535,38.8828 332.0735,36.3928 330.3095,35.5458" id="Fill-106"></path>
                                <path d="M306.373,64.4389 C304.589,69.3819 302.64,74.2959 301.21,79.3569 C299.786,84.3979 307.985,87.1459 309.955,82.2549 C311.917,77.3819 313.36,72.2879 314.97,67.2889 C316.543,62.4069 308.135,59.5579 306.373,64.4389" id="Fill-109"></path>
                                <path d="M253.5995,67.433 C251.1505,66.956 249.1235,68.597 248.5045,70.869 C247.4925,74.576 246.1115,78.168 245.0055,81.849 C243.5135,86.818 251.8455,89.633 253.6915,84.729 C255.1895,80.749 256.0965,76.662 257.0365,72.525 C257.5565,70.237 255.8535,67.87 253.5995,67.433" id="Fill-111"></path>
                                <path d="M266.5673,79.8671 C264.3643,84.3181 262.1013,88.9251 260.7513,93.7161 C259.3333,98.7541 267.2543,101.2631 269.3793,96.5771 C271.2843,92.3721 272.7263,87.9641 274.6563,83.7561 C277.0583,78.5131 269.1373,74.6731 266.5673,79.8671" id="Fill-113"></path>
                                <path d="M289.8964,87.5825 C287.7654,86.5585 284.8044,87.4385 283.8434,89.7025 C282.5594,92.7245 281.1664,95.6965 279.9864,98.7615 C279.0684,101.1455 279.7624,103.9135 282.2024,105.0845 C284.4194,106.1505 287.5364,105.2405 288.5294,102.8685 C289.7994,99.8325 290.8514,96.7115 292.0174,93.6335 C292.8834,91.3465 292.2404,88.7075 289.8964,87.5825" id="Fill-115"></path>
                                <path d="M265.3193,113.2724 C263.8193,115.4704 262.6403,117.8574 261.2163,120.1044 C259.7703,122.3834 258.0773,124.5214 256.7713,126.8844 C254.1143,131.6874 261.0753,135.7944 264.5903,131.9874 C266.5253,129.8894 268.0033,127.1964 269.2803,124.6524 C270.5423,122.1364 271.8023,119.4604 272.4213,116.7044 C273.2643,112.9394 267.6733,109.8274 265.3193,113.2724" id="Fill-117"></path>
                                <path d="M248.5956,106.7426 C247.2456,108.7516 245.8986,110.7606 244.5506,112.7696 C243.8756,113.7746 243.1966,114.7756 242.5276,115.7826 C242.1416,116.3606 241.7606,116.9416 241.3836,117.5236 C237.1936,118.7046 237.0726,125.2836 241.7706,126.2646 C245.9756,127.1406 248.1976,123.8886 250.1106,120.7326 C251.9926,117.6266 253.8426,114.5006 255.7086,111.3846 C258.1686,107.2776 251.3096,102.6986 248.5956,106.7426" id="Fill-119"></path>
                                <path d="M234.2724,100.144 C232.5414,103.449 230.8004,106.742 229.1854,110.105 C226.7744,115.127 234.5254,118.872 236.9904,113.859 C238.6364,110.511 240.1524,107.109 241.6804,103.707 C243.8494,98.881 236.7314,95.451 234.2724,100.144" id="Fill-121"></path>
                                <path d="M212.2656,120.1747 C210.1446,124.4257 208.8686,129.7447 208.2326,134.4417 C207.4326,140.3547 216.1186,142.1307 217.3816,136.2197 C218.3266,131.8067 219.4876,127.2347 220.0926,122.7697 C220.7136,118.1857 214.4416,115.8137 212.2656,120.1747" id="Fill-123"></path>
                                <path d="M87.831,243.892 C85.617,242.945 82.716,243.681 81.693,246.04 C80.529,248.734 79.35,251.419 78.129,254.089 C77.161,256.207 77.971,259.074 80.213,260.036 C82.411,260.975 85.104,260.21 86.161,257.952 C87.404,255.294 88.685,252.659 89.981,250.026 C91.045,247.868 90.1,244.864 87.831,243.892" id="Fill-133"></path>
                                <path d="M113.2265,241.3178 C110.5435,240.7958 108.6305,242.5808 107.8535,244.9388 C106.7725,248.2248 105.7975,251.5438 104.7955,254.8558 C104.1615,256.9518 105.8495,259.2918 107.7775,259.8978 C109.6885,260.4978 112.4585,259.7658 113.1855,257.6348 C114.4275,253.9928 115.6945,250.3588 116.8485,246.6868 C117.5905,244.3248 115.4625,241.7528 113.2265,241.3178" id="Fill-135"></path>
                                <path d="M130.7314,216.7914 C129.0614,221.8094 127.5684,226.8844 126.0194,231.9404 C124.5374,236.7734 132.8564,239.6014 134.4964,234.7504 C136.1914,229.7444 137.9624,224.7554 139.5364,219.7114 C141.0984,214.6984 132.4114,211.7494 130.7314,216.7914" id="Fill-137"></path>
                                <path d="M155.1552,192.4472 C154.0042,191.9542 152.6492,191.7522 151.4482,192.2172 C150.2942,192.6632 149.0022,193.5272 148.5772,194.7502 C148.0912,196.1552 147.6042,197.5592 147.1192,198.9642 C146.6862,200.2112 145.3392,206.1352 145.7772,207.4362 C146.1632,208.5842 147.1532,209.7922 148.2872,210.2782 C150.5302,211.2392 153.8552,210.5562 154.8022,207.9962 C155.3162,206.6042 156.9452,200.4122 157.4592,199.0222 C157.9162,197.7892 158.1242,196.6032 157.6902,195.3162 C157.3012,194.1582 156.3012,192.9372 155.1552,192.4472" id="Fill-139"></path>
                                <path d="M156.9267,222.9794 C154.3437,222.4784 152.2087,224.2084 151.5547,226.6004 C150.4707,230.5714 149.5197,234.5804 148.5267,238.5754 C147.9607,240.8544 149.7427,243.2364 151.9637,243.6694 C154.4547,244.1514 156.3857,242.4884 157.0577,240.2334 C158.2387,236.2774 159.4607,232.3314 160.5497,228.3484 C161.2007,225.9614 159.2277,223.4264 156.9267,222.9794" id="Fill-141"></path>
                                <path d="M171.8828,194.7646 C169.7678,199.3926 168.0808,204.5586 166.6628,209.4456 C165.1788,214.5626 173.1108,216.9306 175.3498,212.3256 C177.5898,207.7186 179.6758,202.7426 181.2208,197.8596 C182.9308,192.4496 174.1858,189.7246 171.8828,194.7646" id="Fill-143"></path>
                                <path d="M186.8691,170.3481 C185.1011,174.3931 183.6711,178.6211 181.9601,182.7051 C179.6991,188.1001 187.2021,191.6471 190.1051,186.6211 C192.4371,182.5831 194.5721,177.7891 195.4951,173.2081 C196.5081,168.1871 188.9831,165.5061 186.8691,170.3481" id="Fill-145"></path>
                                <path d="M130.8583,77.4179 C128.4353,76.6169 126.3953,77.8019 125.0893,79.8319 C124.0613,81.4279 123.7153,83.4619 123.2533,85.2869 C122.7963,87.0769 122.3823,88.8379 122.4443,90.7019 C122.5503,93.9999 126.9843,95.3769 129.0593,92.9079 C130.2573,91.4829 131.0353,89.7929 131.8563,88.1399 C132.7153,86.4099 133.6933,84.7229 134.0413,82.7989 C134.4633,80.4599 133.1043,78.1609 130.8583,77.4179" id="Fill-147"></path>
                                <path d="M228.748,135.08 C226.106,138.373 224.659,142.804 223.052,146.663 C222.205,148.692 222.898,151.114 224.959,152.103 C226.906,153.04 229.498,152.215 230.403,150.198 C231.211,148.397 232.118,146.674 233.122,144.975 C234.11,143.3 235.38,141.698 236.175,139.927 C238.191,135.433 232.017,131.007 228.748,135.08" id="Fill-149"></path>
                                <path d="M244.8749,144.6064 C242.4019,143.5494 240.2389,144.5864 238.8639,146.7114 C237.5179,148.7924 236.6089,151.2824 235.5369,153.5194 C234.5489,155.5844 235.4079,158.4284 237.5849,159.3594 C239.8469,160.3294 242.2619,159.4714 243.4279,157.3134 C244.6069,155.1294 246.0889,152.9294 246.9809,150.6154 C247.8249,148.4214 247.2349,145.6174 244.8749,144.6064" id="Fill-151"></path>
                                <path d="M225.0947,168.9916 L224.8847,168.8736 C223.5667,168.1336 221.5687,168.3006 220.3677,169.2016 C218.3197,170.7426 217.6937,173.2006 216.7757,175.4846 C215.8737,177.7206 214.9737,179.9596 214.0737,182.1956 C212.0207,187.2926 219.5327,191.0476 221.8487,185.9356 C223.2437,182.8566 224.4717,179.5436 226.0527,176.5196 C228.4427,174.6856 227.7637,170.4906 225.0947,168.9916" id="Fill-153"></path>
                                <path d="M204.8437,190.9355 C203.1067,189.8385 200.1607,189.8335 198.8797,191.7585 C196.7827,194.9085 195.6657,198.6795 194.3387,202.2045 C193.5367,204.3325 194.1307,206.7855 196.3127,207.8345 C198.2507,208.7675 201.1087,207.9935 201.9457,205.8605 C202.5717,204.2685 203.2757,202.7395 204.0677,201.2255 C204.8487,199.7275 205.8607,198.2875 206.4897,196.7245 C207.3377,194.6155 206.8487,192.2005 204.8437,190.9355" id="Fill-155"></path>
                                <path d="M184.2949,220.5268 C181.9229,219.3868 179.5019,220.5378 178.2409,222.6478 C176.5369,225.4988 175.5199,228.8118 174.4659,231.9498 C173.7209,234.1698 174.1959,236.6418 176.4979,237.7488 C178.4319,238.6758 181.5219,237.9438 182.2989,235.7158 C183.4129,232.5298 185.0499,229.6478 186.4149,226.5778 C187.4079,224.3418 186.5479,221.6098 184.2949,220.5268" id="Fill-157"></path>
                                <path d="M158.1445,249.2158 C155.7425,248.4618 153.7485,249.5658 152.4515,251.5968 C151.5075,253.0738 151.0145,254.8758 150.3895,256.5078 C149.7525,258.1688 149.1165,259.8298 148.4805,261.4898 C147.6235,263.7258 148.2685,266.3168 150.5565,267.4148 C152.7165,268.4538 155.4485,267.5128 156.4835,265.3398 C158.1405,261.8638 160.3625,258.2768 161.2855,254.5258 C161.8365,252.2798 160.2635,249.8828 158.1445,249.2158" id="Fill-159"></path>
                                <path d="M138.5449,253.6347 C137.5009,253.1887 136.2709,253.0037 135.1809,253.4257 C133.9999,253.8827 133.2299,254.6447 132.5769,255.7257 L130.9259,258.4587 C130.3699,259.3767 130.3839,260.8887 130.7129,261.8677 C131.0729,262.9337 131.9919,264.0567 133.0459,264.5087 C135.4069,265.5187 137.8719,264.6137 139.0999,262.3887 C139.6109,261.4587 140.1239,260.5307 140.6369,259.6017 C141.1599,258.6527 141.1849,257.2437 140.8469,256.2387 C140.4909,255.1877 139.5849,254.0797 138.5449,253.6347" id="Fill-162"></path>
                            </g>
                        </g>
                    </g>
                </g>
            </g>
        </g>
    </g>
</svg>