<svg xmlns="http://www.w3.org/2000/svg" width="28" height="22" viewBox="0 0 28 26">
  <g transform="translate(0 2)">
    <path fill="#FFFFFF" fill-rule="evenodd" d="M15.6666667,0.333333333 L20.6666667,0.333333333 L20.6666667,2 L24,2 L24,3.66680556 L25.6666667,3.66680556 L25.6666667,5.33333333 L27.3334722,5.33333333 L27.3334722,18.6668056 L25.6666667,18.6668056 L25.6666667,20.3333333 L24,20.3333333 L24,22 L15.6666667,22 L15.6666667,18.6668056 L17.3334722,18.6668056 L17.3334722,17 L10.6666667,17 L10.6666667,18.6668056 L12.3334722,18.6668056 L12.3334722,22 L4,22 L4,20.3333333 L2.33347222,20.3333333 L2.33347222,18.6668056 L0.666666667,18.6668056 L0.666666667,5.33333333 L2.33347222,5.33333333 L2.33347222,3.66680556 L4,3.66680556 L4,2 L7.33347222,2 L7.33347222,0.333333333 L12.3334722,0.333333333 L12.3334722,2 L9,2 L9,3.66680556 L19,3.66680556 L19,2 L15.6666667,2 L15.6666667,0.333333333 Z M17.3333333,13.6666667 L20.6666667,13.6666667 L20.6666667,8.66666667 L17.3333333,8.66666667 L17.3333333,13.6666667 Z M7.33333333,13.6666667 L10.6666667,13.6666667 L10.6666667,8.66666667 L7.33333333,8.66666667 L7.33333333,13.6666667 Z"/>
  </g>
</svg>
