<svg xmlns="http://www.w3.org/2000/svg" width="1571" height="850" viewBox="0 0 1571 850">
  <g fill="none" fill-rule="evenodd">
    <path fill="#F9F9F9" d="M1571,2.22108696 L349.547101,0 C280.573913,0 224.658696,55.9152174 224.658696,124.876087 C224.658696,178.315217 258.28913,223.722464 305.494928,241.498551 C314.561594,244.923188 324.268841,246.327536 333.93913,246.327536 C395.730435,246.327536 451.005072,289.702174 460.7,350.717391 C473.105072,428.744928 413.149275,496.07971 337.462319,496.07971 L177.723913,496.07971 C112.877536,496.07971 51.0492754,529.673188 20.634058,586.943478 C7.46521739,611.765942 0,640.074638 0,670.12029 C0,768.239855 79.5427536,847.782609 177.65,847.782609 L1571,850.003696 L1571,2.22108696 Z" transform="matrix(1 0 0 -1 0 850.004)"/>
    <g fill="#DCDDDE" fill-opacity=".2" transform="rotate(68 751.753 991.398)">
      <path d="M68.2312264 29.9495178C66.9312264 28.3135178 64.4822264 27.7245178 62.8242264 29.1735178 61.3772264 30.4385178 59.9282264 31.7035178 58.4802264 32.9695178 56.9542264 34.3035178 56.4202264 36.8815178 57.7822264 38.5955178 59.0852264 40.2335178 61.4642264 40.7655178 63.1252264 39.3615178L67.5242264 35.6425178C69.0912264 34.3185178 69.5942264 31.6645178 68.2312264 29.9495178M59.4171011 53.6580194C58.0241011 51.9060194 55.5481011 51.3930194 53.7741011 52.8480194 51.6671011 54.5770194 49.7131011 56.4370194 47.8461011 58.4490194 46.4441011 59.9590194 46.9361011 62.6930194 48.2171011 64.0500194 49.5121011 65.4210194 52.0741011 65.9470194 53.5311011 64.4720194 55.1951011 62.7880194 56.8941011 61.1400194 58.6801011 59.5990194 60.3011011 58.2000194 60.8501011 55.4600194 59.4171011 53.6580194M103.417101 19.6580194C102.024101 17.9060194 99.5481011 17.3930194 97.7741011 18.8480194 95.6671011 20.5770194 93.7131011 22.4370194 91.8461011 24.4490194 90.4441011 25.9590194 90.9361011 28.6930194 92.2171011 30.0500194 93.5121011 31.4210194 96.0741011 31.9470194 97.5311011 30.4720194 99.1951011 28.7880194 100.894101 27.1400194 102.680101 25.5990194 104.301101 24.2000194 104.850101 21.4600194 103.417101 19.6580194M151.417101 73.6580194C150.024101 71.9060194 147.548101 71.3930194 145.774101 72.8480194 143.667101 74.5770194 141.713101 76.4370194 139.846101 78.4490194 138.444101 79.9590194 138.936101 82.6930194 140.217101 84.0500194 141.512101 85.4210194 144.074101 85.9470194 145.531101 84.4720194 147.195101 82.7880194 148.894101 81.1400194 150.680101 79.5990194 152.301101 78.2000194 152.850101 75.4600194 151.417101 73.6580194M182.417101 103.552125C181.024101 101.800125 178.548101 101.287125 176.774101 102.742125 174.667101 104.471125 172.713101 106.331125 170.846101 108.343125 169.444101 109.853125 169.936101 112.587125 171.217101 113.944125 172.512101 115.315125 175.074101 115.841125 176.531101 114.366125 178.195101 112.682125 179.894101 111.034125 181.680101 109.493125 183.301101 108.094125 183.850101 105.354125 182.417101 103.552125M50.9065249 101.294451C49.4825249 99.8314514 47.1525249 99.4984514 45.5325249 100.867451 43.8125249 102.319451 42.4035249 104.206451 40.9515249 105.942451 39.5785249 107.583451 38.1995249 109.215451 36.8795249 110.904451 35.4035249 112.793451 35.8645249 115.811451 37.6705249 117.283451 39.6435249 118.892451 42.1455249 118.298451 43.7195249 116.484451 45.0475249 114.955451 46.3175249 113.376451 47.5955249 111.800451 48.8605249 110.241451 50.2855249 108.726451 51.2815249 106.959451 52.3225249 105.113451 52.4905249 102.922451 50.9065249 101.294451M148.906525 47.2944514C147.482525 45.8314514 145.152525 45.4984514 143.532525 46.8674514 141.812525 48.3194514 140.403525 50.2064514 138.951525 51.9424514 137.578525 53.5834514 136.199525 55.2154514 134.879525 56.9044514 133.403525 58.7934514 133.864525 61.8114514 135.670525 63.2834514 137.643525 64.8924514 140.145525 64.2984514 141.719525 62.4844514 143.047525 60.9554514 144.317525 59.3764514 145.595525 57.8004514 146.860525 56.2414514 148.285525 54.7264514 149.281525 52.9594514 150.322525 51.1134514 150.490525 48.9224514 148.906525 47.2944514M61.1110419 76.877755C59.2150419 75.464755 56.8080419 75.784755 55.3190419 77.642755 54.1650419 79.082755 53.0090419 80.522755 51.8550419 81.962755 50.4470419 83.718755 50.8300419 86.803755 52.6210419 88.138755 54.5120419 89.547755 57.0030419 89.270755 58.4770419 87.365755 59.6070419 85.905755 60.7380419 84.445755 61.8680419 82.985755 63.2310419 81.224755 62.9040419 78.212755 61.1110419 76.877755M81.0890932 44.8247823C79.1350932 43.3687823 76.9520932 43.8387823 75.3830932 45.5777823 73.5060932 47.6577823 71.6480932 49.7417823 69.8650932 51.9117823 68.4270932 53.6637823 68.8480932 56.8007823 70.6370932 58.1327823 72.6240932 59.6137823 74.9520932 59.1887823 76.5360932 57.3547823 78.3640932 55.2367823 80.1030932 53.0487823 81.8350932 50.8427823 83.1900932 49.1167823 82.8470932 46.1347823 81.0890932 44.8247823M61.0408 115.6831C58.8038 114.6761 56.7908 115.9281 55.6898 117.9461 54.2628 120.5621 52.7938 123.1601 51.4368 125.8191 50.3658 127.9161 51.7218 130.7401 53.6698 131.6171 55.9578 132.6461 58.0398 131.3701 59.1598 129.2951 60.5718 126.6771 61.8758 123.9921 63.2168 121.3321 64.2508 119.2841 62.9468 116.5401 61.0408 115.6831M71.202076 94.2729944C69.856076 92.8479944 67.481076 92.4949944 65.949076 93.8559944 64.804076 94.8719944 63.740076 95.9769944 62.660076 97.0689944 61.827076 97.9089944 61.274076 98.7409944 61.059076 99.9439944 60.812076 101.322994 61.363076 102.725994 62.274076 103.688994 63.081076 104.543994 64.030076 104.970994 65.171076 104.992994 66.593076 105.020994 67.611076 104.386994 68.558076 103.318994 69.582076 102.165994 70.618076 101.030994 71.569076 99.8109944 72.834076 98.1889944 72.564076 95.7149944 71.202076 94.2729944M201.202076 92.2729944C199.856076 90.8479944 197.481076 90.4949944 195.949076 91.8559944 194.804076 92.8719944 193.740076 93.9769944 192.660076 95.0689944 191.827076 95.9089944 191.274076 96.7409944 191.059076 97.9439944 190.812076 99.3229944 191.363076 100.725994 192.274076 101.688994 193.081076 102.543994 194.030076 102.970994 195.171076 102.992994 196.593076 103.020994 197.611076 102.386994 198.558076 101.318994 199.582076 100.165994 200.618076 99.0309944 201.569076 97.8109944 202.834076 96.1889944 202.564076 93.7149944 201.202076 92.2729944M78.4744 70.916C77.1514 69.516 74.7004 69.088 73.2004 70.497 71.7074 71.898 70.2144 73.3 68.7224 74.702 66.8334 76.476 66.4294 79.38 68.3314 81.395 69.1484 82.259 70.1084 82.69 71.2614 82.713 72.7124 82.741 73.7084 82.089 74.6864 81.02L78.8424 76.475C80.2234 74.965 79.7534 72.271 78.4744 70.916M79.1394 116.4829C76.8494 115.5719 74.6014 116.6019 73.5304 118.8559 72.5664 120.8819 71.9434 123.0019 71.4524 125.2089 70.9754 127.3549 72.6384 129.5359 74.5004 130.0929 76.3334 130.6409 78.8964 129.7239 79.4924 127.6079 79.9934 125.8229 80.6534 124.0809 81.4214 122.4079 82.3984 120.2809 81.2334 117.3159 79.1394 116.4829M87.3006 137.5591C85.7566 136.6371 84.0836 136.8001 82.6196 137.8171 81.0046 138.9401 79.9746 141.0441 79.1776 142.8451 78.4356 144.5191 77.8826 146.3811 77.6686 148.2161 77.3746 150.7411 79.0686 153.4681 81.5846 153.7481 84.1806 154.0371 86.3196 152.3211 86.8136 149.6521 86.9316 149.0161 87.0466 148.3771 87.1816 147.7441 87.2286 147.5251 87.3856 147.0531 87.2376 147.5301 87.3576 147.1431 87.4896 146.7631 87.6356 146.3871 88.2156 144.8821 88.9736 143.6031 89.3726 142.0161 89.7946 140.3431 88.6126 138.3431 87.3006 137.5591M101.727297 136.049182C99.4182966 135.686182 97.7192966 137.379182 97.2072966 139.590182 96.4752966 142.750182 95.4942966 145.818182 94.3362966 148.831182 92.2472966 154.269182 100.503297 157.873182 102.256297 152.395182 103.466297 148.616182 104.434297 144.758182 105.112297 140.831182 105.498297 138.597182 103.804297 136.376182 101.727297 136.049182M129.605129 65.0491817C127.296129 64.6861817 125.597129 66.3791817 125.085129 68.5901817 124.353129 71.7501817 123.372129 74.8181817 122.214129 77.8311817 120.125129 83.2691817 128.381129 86.8731817 130.134129 81.3951817 131.344129 77.6161817 132.312129 73.7581817 132.990129 69.8311817 133.376129 67.5971817 131.682129 65.3761817 129.605129 65.0491817M165.727297 66.9956115C163.418297 66.6326115 161.719297 68.3256115 161.207297 70.5366115 160.475297 73.6966115 159.494297 76.7646115 158.336297 79.7776115 156.247297 85.2156115 164.503297 88.8196115 166.256297 83.3416115 167.466297 79.5626115 168.434297 75.7046115 169.112297 71.7776115 169.498297 69.5436115 167.804297 67.3226115 165.727297 66.9956115M96.5831044 110.325382C94.3301044 109.429382 92.1041044 110.440382 91.0531044 112.663382 90.4881044 113.860382 89.9231044 115.057382 89.3571044 116.253382 88.3581044 118.368382 89.5621044 121.351382 91.6401044 122.178382 93.8681044 123.064382 96.2541044 122.095382 97.2501044 119.805382 97.7771044 118.592382 98.3061044 117.378382 98.8331044 116.165382 99.7531044 114.049382 98.6771044 111.158382 96.5831044 110.325382M115.583104 59.3253824C113.330104 58.4293824 111.104104 59.4403824 110.053104 61.6633824 109.488104 62.8603824 108.923104 64.0573824 108.357104 65.2533824 107.358104 67.3683824 108.562104 70.3513824 110.640104 71.1783824 112.868104 72.0643824 115.254104 71.0953824 116.250104 68.8053824 116.777104 67.5923824 117.306104 66.3783824 117.833104 65.1653824 118.753104 63.0493824 117.677104 60.1583824 115.583104 59.3253824M194.583104 111.325382C192.330104 110.429382 190.104104 111.440382 189.053104 113.663382 188.488104 114.860382 187.923104 116.057382 187.357104 117.253382 186.358104 119.368382 187.562104 122.351382 189.640104 123.178382 191.868104 124.064382 194.254104 123.095382 195.250104 120.805382 195.777104 119.592382 196.306104 118.378382 196.833104 117.165382 197.753104 115.049382 196.677104 112.158382 194.583104 111.325382M99.5831044 39.3253824C97.3301044 38.4293824 95.1041044 39.4403824 94.0531044 41.6633824 93.4881044 42.8603824 92.9231044 44.0573824 92.3571044 45.2533824 91.3581044 47.3683824 92.5621044 50.3513824 94.6401044 51.1783824 96.8681044 52.0643824 99.2541044 51.0953824 100.250104 48.8053824 100.777104 47.5923824 101.306104 46.3783824 101.833104 45.1653824 102.753104 43.0493824 101.677104 40.1583824 99.5831044 39.3253824M82.5831044 16.3253824C80.3301044 15.4293824 78.1041044 16.4403824 77.0531044 18.6633824 76.4881044 19.8603824 75.9231044 21.0573824 75.3571044 22.2533824 74.3581044 24.3683824 75.5621044 27.3513824 77.6401044 28.1783824 79.8681044 29.0643824 82.2541044 28.0953824 83.2501044 25.8053824 83.7771044 24.5923824 84.3061044 23.3783824 84.8331044 22.1653824 85.7531044 20.0493824 84.6771044 17.1583824 82.5831044 16.3253824M92.5701 89.9175C90.7911 88.5915 88.1471 88.7195 86.7991 90.6785 85.7441 92.2135 84.6871 93.7495 83.6321 95.2845 82.3491 97.1475 82.5081 100.0725 84.4001 101.4815 86.1701 102.8005 88.9601 102.7425 90.2781 100.7065 91.2931 99.1385 92.3081 97.5705 93.3241 96.0025 94.5331 94.1365 94.4631 91.3275 92.5701 89.9175M96.4783 72.4707C96.5003 72.4527 96.5233 72.4347 96.5443 72.4137 96.5263 72.4307 96.5093 72.4417 96.4913 72.4547 96.4873 72.4607 96.4823 72.4657 96.4783 72.4707"/>
      <path d="M97.824 65.7627C96.436 64.0157 93.802 63.3707 92.032 64.9307 90.22 66.5297 88.525 68.3127 87.209 70.3877 85.995 72.2987 86.037 75.1407 87.976 76.5857 89.814 77.9547 92.449 77.7817 93.854 75.8097 94.426 75.0087 95.026 74.2237 95.64 73.4587 95.911 73.1207 96.197 72.7987 96.478 72.4707 96.455 72.4887 96.432 72.5057 96.41 72.5177 96.435 72.5037 96.464 72.4757 96.491 72.4547 96.508 72.4357 96.524 72.4167 96.541 72.3967 96.83 72.0577 96.715 72.2577 96.545 72.4137 96.726 72.2547 96.93 71.9947 97.067 71.8617 98.644 70.3257 99.354 67.6877 97.824 65.7627M114.926431 87.3457323C113.644431 86.0277323 111.169431 85.4727323 109.733431 86.9327323 106.660431 90.0537323 104.116431 94.1687323 102.646431 98.4007323 100.811431 103.678732 108.088431 107.004732 110.313431 101.850732 111.726431 98.5757323 113.383431 95.7857323 115.289431 92.8207323 116.388431 91.1097323 116.393431 88.8527323 114.926431 87.3457323M114.2791 113.3291C112.3001 117.9361 110.8451 122.7351 109.8201 127.6781 108.6481 133.3221 117.3171 134.7441 118.3001 129.0091 119.0291 124.7481 120.1671 120.6831 121.7211 116.6781 123.6891 111.6061 116.4191 108.3471 114.2791 113.3291M130.7459 130.5005C128.8859 129.9785 126.5859 130.8625 125.8989 132.9135 124.8379 136.0835 123.3919 139.4125 122.9119 142.7505 122.1809 147.8505 128.8819 149.5465 130.9229 145.1395 132.3169 142.1295 132.8729 138.4725 133.7049 135.2415 134.2309 133.2035 132.5099 130.9955 130.7459 130.5005M148.5437 140.5899C146.4387 139.7519 143.9887 140.6379 143.0947 142.8949 142.1887 145.1799 141.5947 147.6299 141.4287 150.1059 141.2707 152.4809 142.6587 155.0189 145.0987 155.2899 147.1857 155.5219 149.9637 153.9979 149.9987 151.4509 150.0127 150.4639 150.0797 149.4829 150.2337 148.5089 150.3007 148.0939 150.3847 147.6839 150.4727 147.2729 150.5917 146.7729 150.6017 146.7299 150.5037 147.1439 150.5837 146.8759 150.6697 146.6099 150.7617 146.3449 151.4837 144.1879 150.7367 141.4629 148.5437 140.5899M185.887703 73.6698868C185.283703 72.8388868 184.210703 72.1158868 183.208703 72.0048868 181.052703 71.7658868 179.505703 80.3618868 179.256703 82.7688868 179.179703 83.5178868 179.101703 84.2678868 179.024703 85.0178868 178.788703 87.2948868 180.264703 89.7468868 182.551703 90.0008868 184.653703 90.2338868 187.109703 88.7528868 187.261703 86.3108868 187.309703 85.5568868 186.650703 77.6878868 186.698703 76.9338868 186.771703 75.7568868 186.589703 74.6368868 185.887703 73.6698868M164.0994 143.2559C162.0944 142.9399 159.9274 144.4899 159.7184 146.6889 159.4504 149.5019 159.3674 152.3229 159.4064 155.1519 159.4374 157.4949 161.9304 159.2219 163.9754 158.9779 166.2494 158.7059 167.7674 156.5269 167.5804 154.1839 167.4134 152.0899 167.3204 149.9909 167.3814 147.8919 167.4454 145.6929 166.3294 143.6069 164.0994 143.2559M159.4334 125.7681C157.3654 124.8371 154.5844 125.8481 153.7844 128.1581 152.6014 131.5661 151.6884 135.8271 152.2494 139.4751 153.0004 144.3411 159.4974 144.4781 160.3804 139.6291 160.8644 136.9751 161.0034 134.3551 161.7324 131.7351 162.3854 129.3851 161.7524 126.8121 159.4334 125.7681M176.238459 121.042422C174.107459 120.707422 171.537459 122.392422 171.406459 124.827422 171.273459 127.303422 171.140459 129.779422 171.008459 132.256422 170.882459 134.600422 172.169459 136.834422 174.509459 137.203422 176.640459 137.538422 178.970459 135.887422 179.184459 133.540422 179.408459 131.078422 179.632459 128.616422 179.856459 126.153422 180.075459 123.738422 178.593459 121.413422 176.238459 121.042422M118.238459 31.0424217C116.107459 30.7074217 113.537459 32.3924217 113.406459 34.8274217 113.273459 37.3034217 113.140459 39.7794217 113.008459 42.2564217 112.882459 44.6004217 114.169459 46.8344217 116.509459 47.2034217 118.640459 47.5384217 120.970459 45.8874217 121.184459 43.5404217 121.408459 41.0784217 121.632459 38.6164217 121.856459 36.1534217 122.075459 33.7384217 120.593459 31.4134217 118.238459 31.0424217M146.6648 115.582C144.3568 114.664 142.2248 115.725 141.1148 117.929 140.0338 120.075 139.1168 122.317 138.1488 124.523 137.2288 126.62 138.3098 129.495 140.3838 130.321 142.6258 131.213 144.8228 130.204 145.8728 127.999 146.9078 125.826 148.0028 123.673 148.9228 121.443 149.8058 119.302 148.7948 116.43 146.6648 115.582M137.6189 94.3804C135.4169 93.3894 133.3029 94.5964 132.2489 96.6514 130.5079 100.0464 129.4939 103.7684 128.6119 107.5024 127.5619 111.9404 134.5189 114.0024 135.9509 109.6914 137.0479 106.3884 138.4719 103.2504 139.8039 100.0504 140.6909 97.9194 139.6399 95.2894 137.6189 94.3804M162.836101 98.3381254C160.549101 97.4281254 157.848101 98.3841254 156.886101 100.854125 156.162101 102.713125 155.558101 104.612125 154.946101 106.515125 154.227101 108.753125 154.952101 111.551125 157.236101 112.461125 159.513101 113.366125 161.818101 112.354125 162.866101 110.079125 163.698101 108.275125 164.533101 106.479125 165.256101 104.622125 166.157101 102.307125 165.151101 99.2591254 162.836101 98.3381254"/>
    </g>
    <g fill="#DCDDDE" fill-opacity=".2" transform="rotate(103 508.353 952.212)">
      <path d="M9.95000453 44.9162645C7.23172598 45.3048608 4.6120182 46.4327379 2.5230761 48.3188517.845477413 49.8343773.21045418 52.6597568 1.74493569 54.5913648 3.18084643 56.3988115 5.86974331 57.0357303 7.70183273 55.4462766 8.02123994 55.1695202 8.35391629 54.9230933 8.6960706 54.6814054 8.81738847 54.6141119 9.05433743 54.4776292 9.21546273 54.4055968 9.46852423 54.2928091 9.7272725 54.2056118 9.98507298 54.1146234 9.69978642 54.2397325 10.7575266 53.9591849 10.9584593 53.9345422 13.1924142 53.6625248 15.1079096 51.3432683 14.7306869 48.9188065 14.3600987 46.5350999 12.3365545 44.575058 9.95000453 44.9162645M17.5999493 66.1740937C15.9593147 64.1088465 13.4211173 63.818821 11.3388098 65.2746354 9.55505799 66.5219348 7.74571568 67.719001 5.90225271 68.8667818 4.07585007 70.003189 3.88060412 72.9233481 4.82934779 74.6758227 5.882349 76.6188042 8.13525978 77.4888808 10.1351091 76.6633506 12.4913296 75.690912 14.7499271 74.3573633 16.7810537 72.7679096 18.6501072 71.3045128 19.138222 68.1104407 17.5999493 66.1740937M36.4845925 102.071862C34.7861423 99.9345826 32.4280261 99.8663413 30.2841119 101.181882 28.5780793 102.228249 26.9279667 103.367499 25.2655328 104.488742 23.3244468 105.798596 23.0116742 109.178436 24.4580107 110.997256 26.1299226 113.102311 28.5231072 113.230263 30.6376397 111.884393 32.3285076 110.807697 34.0279056 109.751852 35.674227 108.601228 37.5992004 107.25441 37.9517805 103.918169 36.4845925 102.071862M56.9057075 118.011325C56.1360972 116.011475 53.481321 114.453299 51.503271 115.580228 48.5044449 117.288156 45.5738601 119.300327 43.1939446 121.892549 40.7382055 124.569124 44.3455166 129.611398 47.468504 127.83049 49.910974 126.438178 52.1221817 124.972885 54.628154 123.691465 56.638429 122.663107 57.7928444 120.312573 56.9057075 118.011325M63.2579302 137.045435C61.2903059 134.961232 58.5331678 135.432286 56.7380424 137.429292 55.8073068 138.466181 55.5106467 138.774215 54.3562314 139.858493 53.3676803 140.787333 52.3421651 141.668783 51.2910595 142.516113 49.5442717 143.925485 49.0495223 146.898721 50.5176581 148.746923 52.0284447 150.649149 54.5116699 151.037745 56.4347477 149.596148 58.7198835 147.881585 60.8609544 145.988837 62.8579603 143.913164 64.6995277 141.998616 65.2900045 139.196932 63.2579302 137.045435M73.2727204 148.959513C70.7402099 150.970736 66.5016667 157.263153 64.2288523 159.585253 62.554097 161.296972 61.8887443 163.856969 63.4336515 165.986666 64.782365 167.846242 67.7565485 168.49643 69.5128142 166.859586 72.1666427 164.386787 77.044948 158.247913 79.3916906 155.442437 82.7023415 151.486337 77.1444666 145.884864 73.2727204 148.959513M94.8628469 163.487423C93.1226937 161.297067 90.7541518 161.270529 88.5609521 162.582278 85.5981423 164.355604 79.2204239 171.215751 77.6821512 174.402241 76.7286685 176.376499 77.7655572 178.914697 79.4696942 179.968646 81.4050933 181.165712 83.4656015 180.529741 84.9375285 178.895741 85.3649845 178.421843 89.5845717 174.070512 89.9987585 173.584293 90.1058594 173.457288 90.2812016 173.26299 90.3494429 173.183375 90.5427933 172.990025 90.7380393 172.799518 90.938972 172.614698 91.9161495 171.718083 92.9852633 170.916247 94.0392123 170.122942 95.9490209 168.687979 96.3906938 165.409553 94.8628469 163.487423M107.553549 174.717098C105.638054 173.28877 102.854377 173.454634 101.393824 175.529359 99.5740558 178.115894 97.7087935 180.645562 95.617008 182.996095 94.1981576 184.590288 94.6530996 187.356904 96.0018132 188.784285 97.3448399 190.208822 99.9778168 190.735796 101.492395 189.221219 103.972776 186.742732 106.365013 184.145772 108.359176 181.212343 109.691777 179.250406 109.543921 176.199451 107.553549 174.717098M117.697903 190.69542C115.880031 194.135919 113.718108 197.742283 113.136162 201.697435 112.39309 206.73497 119.463647 208.887414 121.309953 204.135166 122.490907 201.092741 123.910705 198.244614 124.780782 195.080872 126.984407 187.064414 120.196293 185.964971 117.697903 190.69542M224.31565 216.768621C223.077829 220.864995 222.143302 225.077948 221.101674 229.23498 219.91219 233.979646 227.731506 236.361457 229.026196 231.598783 230.148386 227.467341 231.398529 223.344429 232.32263 219.157067 233.390795 214.325203 225.758195 211.992678 224.31565 216.768621M211.462116 215.35432C209.211101 214.999844 207.567623 216.649957 207.063396 218.800506 206.350653 221.845774 205.863486 224.950753 205.306182 228.032038 204.921377 230.161735 206.567699 232.288589 208.539114 232.598518 210.719044 232.942568 212.397591 231.337002 212.856324 229.216783 213.516938 226.15635 214.25148 223.103499 214.757603 220.008946 215.112078 217.830911 213.497982 215.674675 211.462116 215.35432M193.13563 218.462427C191.300697 216.965857 188.618435 217.355402 187.199585 219.246254 184.902128 222.305739 183.092785 225.724439 181.551669 229.268248 180.578283 231.505994 181.749758 234.313365 183.861448 235.264004 186.103933 236.273407 188.529342 235.090558 189.538745 232.86229 190.818269 230.038806 192.330004 227.366969 193.911875 224.721671 195.126002 222.69244 195.070082 220.039559 193.13563 218.462427M176.845389 200.818923C174.704318 199.855014 172.374636 200.981944 171.415466 203.115432L168.052686 210.590698C167.094465 212.7185 168.260254 215.425405 170.261999 216.325811 172.403069 217.289719 174.732752 216.16279 175.691921 214.029301 176.814111 211.537546 177.933458 209.045791 179.055649 206.554035 180.012923 204.426234 178.847134 201.719329 176.845389 200.818923M150.740247 196.607581C148.736607 195.70528 145.898906 196.665397 145.157729 198.968541 144.217516 201.893439 142.411965 208.604781 142.314342 211.710708 142.243257 214.025226 143.424211 216.221269 145.769058 216.589962 148.022916 216.944437 150.994256 211.621616 151.391383 209.337428 151.798935 206.993528 152.219756 204.737774 153.011166 202.502872 153.814897 200.235744 152.924917 197.590446 150.740247 196.607581M142.938465 173.838681C140.91113 172.926902 138.025092 173.895549 137.280124 176.230918 136.09917 179.933956 134.919165 183.636995 133.738211 187.339085 133.014095 189.610004 133.776123 192.180427 135.986383 193.174665 137.996658 194.078862 140.746214 193.104528 141.512033 190.838348 142.755541 187.163743 143.998101 183.489139 145.240662 179.814534 146.022593 177.503808 145.174316 174.84524 142.938465 173.838681M130.201605 157.369401C128.416906 155.914534 125.785824 156.282279 124.407729 158.134272 122.638194 160.512292 121.084757 163.082714 119.458339 165.572574 118.179763 167.528825 118.363635 170.248051 120.227002 171.768316 121.953886 173.17674 124.810543 172.954956 126.102388 170.993019 127.738284 168.507898 129.470855 166.066376 130.958894 163.479841 132.111414 161.477148 132.111414 158.92663 130.201605 157.369401M112.854287 151.808493C110.775771 150.981067 108.240417 151.838823 107.384557 154.121115 107.176042 154.680315 106.956153 155.234775 106.71257 155.777862 106.590304 156.048932 106.455717 156.314315 106.330608 156.583489 106.264263 156.71618 106.196969 156.847924 106.129675 156.980615 106.275636 156.736084 106.27374 156.740823 106.125884 156.992936 105.503182 158.088588 104.772432 159.11126 103.9905 160.084647 102.606718 161.810583 102.982993 164.841634 104.742102 166.152436 106.654754 167.576025 108.982541 167.210176 110.496171 165.393251 112.415458 163.088212 113.959417 160.415427 115.079712 157.584361 115.917563 155.461298 114.975454 152.652979 112.854287 151.808493M99.2648848 141.43591C97.4233174 139.933653 95.126808 140.50707 93.6529854 142.176138 91.5375051 144.57501 90.0162927 147.702736 88.6182938 150.60773 87.7633819 152.382952 88.6799005 154.726851 90.2409203 155.66043 91.7498113 156.562732 94.2064982 156.435727 95.2045273 154.686096 96.6631851 152.127995 98.4564149 149.843807 99.9984788 147.352999 101.174693 145.453617 101.074227 142.911628 99.2648848 141.43591M81.6575862 128.155678C79.7022833 126.698916 77.2854038 127.058131 75.7414443 128.936662 74.7661624 130.122355 73.7918282 131.308048 72.8174941 132.49374 71.4043304 134.21399 71.8185172 137.296222 73.5757308 138.60418 74.4344338 139.243942 75.5111299 139.671398 76.5774003 139.49416 77.7318157 139.30081 78.5744062 138.734028 79.3696069 137.839309 80.3894353 136.69058 81.4102114 135.542799 82.4300398 134.394071 83.111505 133.627304 83.3892092 132.175281 83.2764215 131.168722 83.153208 130.072122 82.5305061 128.805866 81.6575862 128.155678M79.15114 100.390093C77.6706828 98.5267266 74.7363068 97.7428994 72.8492452 99.4849482 70.2134249 101.918888 67.663854 104.495945 65.2194885 107.140295 63.7087019 108.774296 64.2034513 111.787339 65.6241973 113.24884 67.1283494 114.795643 69.7129887 115.231629 71.4199691 113.709469 73.7998845 111.587354 76.1134542 109.339182 78.3275054 107.025612 79.9852003 105.293989 80.8533814 102.531164 79.15114 100.390093M57.6711474 98.5328873C55.8267367 96.57948 53.076233 96.9187909 51.4119035 98.9015799 50.202516 100.340334 48.995024 101.77814 47.7856365 103.216894 46.4899995 104.759906 46.8463708 107.289573 48.1467467 108.665773 49.4148976 110.007852 51.8867492 110.49881 53.3160254 109.077116 54.6400962 107.75968 55.9632193 106.443192 57.2872901 105.126703 58.1204027 104.297382 58.6663331 103.456687 58.8795871 102.262464 59.1260141 100.889108 58.5772403 99.4930045 57.6711474 98.5328873M51.5660151 80.1027123C49.9917262 78.1208711 47.7027991 77.968276 45.7095844 79.2620173 43.6263291 80.6154698 41.6587049 82.1603771 39.6939241 83.6958064 37.9803091 85.0340942 37.5357929 87.9618356 38.9442175 89.7332661 40.4777512 91.6629785 42.7363488 91.8364251 44.6774347 90.5559529 46.7550033 89.1863879 48.8420498 87.820614 50.800196 86.2681244 52.5403493 84.8890814 53.010456 81.9205847 51.5660151 80.1027123M40.141568 64.642266C37.3522048 65.334157 34.5173474 65.933164 31.7725305 66.7994494 29.9963611 67.3595968 29.1092241 69.7091828 29.5670095 71.4645007 30.05702 73.3515623 31.7355665 74.694589 33.6425318 74.4642746 36.1390261 74.1619278 38.6184601 73.6046238 41.0922073 73.1449428 43.2474951 72.7449729 44.919407 70.8105216 44.6492852 68.4154414 44.4151796 66.3331339 42.2864301 64.1105526 40.141568 64.642266M45.0396823 42.3315304C41.0134455 42.296462 36.9312887 42.7201267 33.001727 43.6309585 28.2020887 44.7427231 28.8304774 52.1819729 33.9125588 51.7696817 37.9435346 51.4426921 41.9612413 51.1441364 46.0007473 50.9251956 48.2129029 50.8048255 49.8450074 48.3642511 49.5957371 46.145461 49.3076071 43.5911511 47.2641592 42.3504863 45.0396823 42.3315304M69.1992834 58.6519118C68.3206766 56.3734105 65.8251301 55.312827 63.6840592 56.1696344 61.1904083 57.1676635 58.5555357 58.1107204 56.2182711 59.4660685 54.5776365 60.4176555 53.4848278 62.0554468 54.0203325 64.1140594 54.4875959 65.908237 56.2068976 67.4512487 58.08069 67.1024598 61.0539257 66.5470514 64.0072576 65.439078 66.8733923 64.4505269 69.0447926 63.7017682 70.0210224 60.7854003 69.1992834 58.6519118M75.0137267 78.8101083C74.1787185 76.6434469 71.7552045 75.5629596 69.705122 76.4207149 66.2361891 77.8746337 63.0733943 80.4583253 60.6148118 83.3870145 57.7192954 86.8332003 62.7075451 92.1455961 66.0646381 89.1600391 68.1971788 87.2625518 70.345832 85.7640865 72.7759806 84.3907303 74.7094842 83.2969739 75.908446 81.1331559 75.0137267 78.8101083M98.6734602 106.828471C97.1920552 104.785023 94.5799298 104.60115 92.6549564 105.965029 89.6068449 108.125055 86.699955 111.080283 84.5190767 114.190949 83.3324362 115.882765 83.4385894 118.28827 84.8896648 119.780101 86.2061533 121.132606 88.7140212 121.68138 90.1916349 120.20187 92.6786513 117.709167 95.1950493 115.408867 97.8867896 113.165434 99.6989753 111.654647 100.101789 108.79799 98.6734602 106.828471M113.245822 121.4577C111.308527 120.014207 109.081207 120.449245 107.533456 122.211198 105.723166 124.26981 104.118547 126.492392 102.718653 128.879889 101.615419 130.758421 101.548125 133.417936 103.456986 134.83963 105.108994 136.069869 107.904992 136.095459 109.10964 134.093714 110.534178 131.723277 112.162491 129.518704 113.992685 127.48189 115.457977 125.850734 114.92342 122.706895 113.245822 121.4577M131.890767 125.583929C130.316478 124.874978 128.355489 125.395318 127.317652 126.829333 126.449471 128.028295 125.729146 129.337201 124.835375 130.517207 123.941603 131.693421 122.937887 132.793812 121.971136 133.902734 120.607257 135.470388 121.020496 138.130851 122.344567 139.531693 123.780478 141.052906 126.036232 141.232987 127.685397 139.956306 130.805541 137.538478 133.197778 133.867665 134.218554 129.93526 134.66307 128.222593 133.332365 126.232222 131.890767 125.583929M146.855611 144.781914C144.743922 143.941219 142.133692 144.807504 141.273093 147.142873 140.479788 149.295318 139.686483 151.443023 138.961419 153.623901 138.216452 155.865439 138.982271 158.691766 141.263615 159.598806 143.39426 160.447084 146.062306 159.577955 146.921009 157.205622 147.704836 155.046543 148.413787 152.862821 149.12653 150.677204 149.850646 148.461257 149.114209 145.680424 146.855611 144.781914M160.011776 175.215544C158.016666 178.469327 156.552321 182.393202 155.759016 186.179647 154.808377 190.720537 161.316891 192.37918 163.02008 188.346308 164.274014 185.372125 165.619884 182.434905 166.870975 179.462617 168.664204 175.202275 162.519644 171.126753 160.011776 175.215544M187.204418 176.592312C185.240585 174.990537 182.959241 175.683376 181.370735 177.361923 178.688473 180.19678 176.736961 184.231547 174.957948 187.728914 173.910634 189.791318 175.235652 192.561725 177.153043 193.425167 179.401215 194.436465 181.443715 193.181584 182.545054 191.143822 184.146829 188.181013 186.280317 185.628598 187.967394 182.745403 189.141713 180.737972 189.118966 178.152384 187.204418 176.592312M201.342689 192.703894C198.997842 191.648998 196.823599 192.949374 195.684348 195.097079 194.254124 197.796402 192.883611 200.630311 191.745308 203.482229 190.930204 205.524729 191.714031 207.990894 193.545173 209.085598 195.211398 210.080784 197.960006 209.953779 199.051867 208.006059 200.735152 205.004389 202.286694 201.862446 203.645833 198.679747 204.600264 196.442001 203.45817 193.655481 201.342689 192.703894M168.687236 148.605512C166.641892 147.082404 164.4885 147.636864 162.831753 149.377965 160.719116 151.599599 154.936613 157.763115 153.147175 160.277618 151.879972 162.060422 152.168102 164.702877 153.8675 166.088554 155.633243 167.527308 157.984725 167.049619 159.377985 165.361595 161.512421 162.77506 167.282602 157.060799 169.453055 154.779454 171.000806 153.152088 170.369573 149.858498 168.687236 148.605512M222.384895 186.394228C220.048578 186.026483 218.419317 187.731568 217.870543 189.929506 217.108515 192.991835 216.482022 196.087336 215.826148 199.176203 215.365519 201.348551 217.167279 203.554072 219.145329 203.864949 221.433308 204.224164 223.044561 202.5532 223.576274 200.393173 224.331668 197.325158 225.117391 194.265672 225.764735 191.169223 226.228207 188.955172 224.4037 186.711739 222.384895 186.394228M210.423616 169.034967C208.071187 167.975332 205.865666 169.276655 204.727363 171.444264 203.114215 174.516071 201.151329 177.38031 199.612109 180.48908 198.57522 182.585605 199.701202 185.394872 201.540874 186.493367 203.514185 187.673373 206.006888 187.258238 207.439007 185.337056 209.692866 182.31264 211.287058 178.564107 212.740977 175.050628 213.679295 172.786343 212.571322 170.000771 210.423616 169.034967M227.793113 160.611242C226.143 160.14777 223.81237 160.91738 223.284448 162.855623 222.573601 165.468696 221.650448 167.473284 220.059099 169.437117 218.380552 171.508999 219.211769 174.790268 221.323458 176.098226 223.732756 177.590057 226.158165 176.35034 227.438637 174.007389 228.961745 171.220869 230.006216 168.192661 230.545512 165.021336 230.876293 163.078355 229.554118 161.105044 227.793113 160.611242M188.901068 154.384792C187.549511 152.520477 184.563954 151.86555 182.802001 153.509976 180.41166 155.739192 177.934122 157.899219 175.649934 160.248805 173.923998 162.023079 173.228315 164.657951 174.827247 166.863472 176.233776 168.802663 179.277149 169.434842 181.109238 167.765774 183.530856 165.559305 185.787558 163.133895 188.103972 160.807057 189.797683 159.104815 190.443132 156.510698 188.901068 154.384792M203.438266 146.644617C201.638402 147.543127 200.380677 149.070026 199.001634 150.535319 197.938207 151.666039 196.873832 152.78823 195.863482 153.972027 194.305305 155.79369 194.813324 159.163105 196.678586 160.552573 198.839561 162.162879 201.17493 161.605575 202.919822 159.728939 203.921642 158.650347 204.86849 157.526261 205.821025 156.399332 206.897721 155.122651 208.077727 153.895255 208.689055 152.278315 209.91266 149.040645 206.716692 145.007773 203.438266 146.644617M189.043616 130.069752C187.602019 128.255671 184.842037 127.567571 183.005209 129.202519 181.111513 130.8877 179.06996 132.352992 177.108971 133.946237 175.272142 135.439964 174.740429 138.563899 176.293866 140.518254 177.979995 142.640369 180.402561 142.778747 182.535102 141.413921 184.661008 140.053834 186.496889 138.269134 188.254102 136.427567 189.839765 134.766081 190.675721 132.123626 189.043616 130.069752M163.380906 126.964963C160.641776 127.26257 157.922549 129.316444 155.552112 130.683166 153.555106 131.834738 152.076545 134.223183 153.146606 136.67987 154.034691 138.718579 156.715057 140.505174 158.851389 139.247449 160.293935 138.397276 161.745958 137.560373 163.1686 136.673236 164.566598 135.802211 165.952276 135.021227 166.969261 133.645976 169.067681 130.812066 166.730416 126.601009 163.380906 126.964963M154.630475 107.282465C153.273232 105.887309 150.639307 105.290198 149.11999 106.844583 147.74379 108.251112 146.312619 109.613095 144.783824 110.835752 143.249342 112.063147 141.537623 113.029899 140.026837 114.285729 136.17689 117.48454 139.701743 124.227159 144.359211 122.267118 148.529513 120.5118 152.2335 116.704504 155.01528 113.091506 156.3185 111.398742 156.08629 108.779035 154.630475 107.282465M127.224863 102.373167C125.728293 100.488948 123.254546 100.091822 121.349476 101.529628 119.741067 102.744703 117.862535 103.861206 116.653148 105.53217 115.553705 107.049591 115.441865 109.483531 116.6522 111.006639 117.826519 112.484253 119.890818 113.290827 121.637606 112.457715 123.500973 111.568682 124.935936 109.970698 126.4562 108.560378 128.093044 107.042957 128.751762 104.295297 127.224863 102.373167M116.469655 83.6134429C114.718128 82.1851146 112.150549 82.5528594 110.797096 84.3622017 109.156462 86.5544535 107.36418 88.734384 105.505552 90.6489317 104.092388 92.1037983 103.520867 94.2590861 104.832617 96.0665329 106.005988 97.6844204 108.44751 98.1355712 109.977253 96.8048658 112.540093 94.57565 114.941808 92.1530837 117.210831 89.5949827 118.69887 87.9183318 118.085646 84.9308792 116.469655 83.6134429M94.1242296 85.4345379C92.8058455 84.0384346 90.2524834 83.539894 88.7653917 85.0089776 86.7475343 87.0002967 84.7126166 89.097769 82.9326559 91.3317238 80.0892683 94.9011231 85.0149635 100.204041 88.4630448 97.1909979 90.5946377 95.3295268 92.5963826 93.1969861 94.4995567 91.0834013 95.8909211 89.5365984 95.4340834 86.8211633 94.1242296 85.4345379M95.6589006 63.2700472C94.2590061 61.5090425 91.6904793 60.9280436 89.9057797 62.4435692 89.04992 63.1705286 88.2632495 63.9752073 87.3827471 64.6699417 86.9448654 65.0149394 86.4956102 65.3428768 86.0349814 65.652806 85.8549002 65.7731761 85.6729233 65.8888072 85.4899987 66.0044383 85.4464001 66.0281332 85.3383514 66.0878443 85.1478444 66.1968408 83.4057956 67.1635926 82.1537573 69.2781252 83.0693281 71.3812842 83.9308745 73.360282 86.0302424 74.4180222 87.9997622 73.6000744 90.4109549 72.5982541 93.0410884 71.2504884 94.9072985 69.3293062 96.4313543 67.7588084 97.2066513 65.2168199 95.6589006 63.2700472M69.4898776 29.8737015C66.1451059 30.3324347 62.9661986 31.6223849 60.0403527 33.3483212 58.2196369 34.4212261 57.0529002 36.4172842 57.9134988 38.6502913 58.6764745 40.6311846 61.0497554 41.8348854 62.9567206 40.9212102 65.3811825 39.7601602 67.8587209 39.0398354 70.444308 38.4067077 72.5815877 37.8835244 74.293307 36.1528491 74.0127595 33.6610938 73.7559068 31.3806969 71.6783382 29.574198 69.4898776 29.8737015M91.8297105 44.5108922C90.8610632 42.784956 88.5285375 41.5509257 86.6680142 42.5764409 83.9895431 44.052159 81.4011126 45.7155408 78.7889872 47.3173158 77.0791634 48.365578 76.8640138 51.165367 77.777689 52.7936803 78.7188503 54.4693834 80.9736567 55.6560239 82.7792078 54.6674728 85.4652613 53.1974414 88.1655317 51.759635 90.7852395 50.1635468 92.5528788 49.0868507 92.7708718 46.1875431 91.8297105 44.5108922M102.028752 21.5893022C101.170049 19.3591385 98.7683345 18.3781697 96.6822358 19.1828484 94.0511545 20.1988856 91.5053748 21.845207 89.2439338 23.5626132 85.9010578 26.0989149 89.1027123 32.36195 92.9327554 30.3592573 95.177136 29.1877816 97.4802799 28.2494637 99.7748937 27.2097317 101.806968 26.2884741 102.878925 23.7957709 102.028752 21.5893022M112.725671 40.4910056C109.285172 41.1525671 105.932818 42.2700185 102.570039 43.2661519 98.1201369 44.5835882 100.062171 52.7355804 104.618225 51.6636233 108.028395 50.861788 111.483111 50.1689492 114.808927 49.0353854 119.292949 47.5065906 117.405887 39.5896517 112.725671 40.4910056M115.744022 67.6216624C114.837929 65.9497504 112.463701 64.6891819 110.688479 65.7270184 108.381544 67.0766797 106.362738 68.5789362 104.463356 70.5124398 102.945934 72.057347 102.193384 74.5889098 103.718388 76.5072486 105.050989 78.1829517 107.714295 78.9080156 109.411798 77.3242487 111.064754 75.7821848 112.875044 74.4296801 114.72135 73.1567902 116.416957 71.9881579 116.683288 69.3570766 115.744022 67.6216624M144.741552 79.2530133C143.353031 77.3384656 140.71342 77.0057893 138.905973 78.4151617 136.278683 80.4633486 133.575569 82.8821236 131.370048 85.4231644 130.069672 86.9206818 130.43173 89.5185903 131.729263 90.8511913 133.220146 92.384725 135.165971 92.3714559 136.879586 91.2606391 139.360915 89.6531773 141.836558 87.4751424 143.978577 85.3975739 145.626794 83.79959 146.199262 81.2632883 144.741552 79.2530133M156.688045 84.9781742C154.021896 87.458556 151.551939 90.1389227 148.800488 92.5283161 145.189386 95.6655204 149.426033 101.552281 153.255129 98.6605554 156.396124 96.2872745 159.543754 93.7879368 162.238338 90.8592476 165.330048 87.4993112 160.03566 81.863717 156.688045 84.9781742M183.837184 106.804776C182.59178 105.088317 179.846963 104.48931 178.224337 105.999149 175.821674 108.236895 173.506209 110.576055 171.164206 112.883938 169.647732 114.377665 169.098958 116.706399 170.45715 118.579244 171.669381 120.251156 174.286245 120.790452 175.866221 119.355489 178.288787 117.155654 180.739787 114.985202 183.10359 112.714283 184.693992 111.18454 185.235183 108.732593 183.837184 106.804776M140.060862 61.5396563C138.694141 59.818459 135.969228 59.0829694 134.226231 60.7018047 132.022606 62.748096 129.808554 64.7612144 127.739516 66.9601008 126.372794 68.4130719 126.8647 71.0811173 128.099679 72.3890756 129.49673 73.8685849 131.644435 74.0107543 133.249053 72.7985234 135.350317 71.2119131 137.304672 69.4167877 139.297887 67.6842169 140.969799 66.2312458 141.545111 63.4077619 140.060862 61.5396563M137.878373 42.1173285C136.938159 40.3809665 134.550662 39.162101 132.716677 40.1828772 130.183218 41.5922496 127.452618 43.1276789 125.150422 44.9341779 121.575336 47.7415492 124.91063 53.9477166 129.069558 52.1525912 131.728125 51.0048104 134.381954 49.3300551 136.833902 47.7699831 138.601541 46.6449494 138.809108 43.8356825 137.878373 42.1173285M126.47146 23.9069474C125.149285 21.471112 122.581706 21.2749183 120.465278 22.580981 117.882534 24.1742258 115.29979 25.7684185 112.717046 27.3626111 111.065986 28.3814917 110.852732 31.0827099 111.738921 32.6617378 112.640275 34.267304 114.842952 35.4539445 116.578367 34.4758191 119.218926 32.9868318 121.858537 31.4987923 124.498149 30.009805 126.648698 28.7975741 127.796479 26.3494173 126.47146 23.9069474M140.395908 6.09644132C137.312728 6.68123137 134.384987 7.73707597 131.538756 9.09147627 127.091698 11.2069566 129.785333 18.0007574 134.3793 16.4653281 136.669175 15.7004569 139.006439 15.2047596 141.356973 14.6901065 143.521739 14.2152607 145.229667 12.3812757 144.951963 9.9103719 144.702693 7.7057987 142.584369 5.68130673 140.395908 6.09644132M149.934052 22.9716624C146.257552 23.4341868 142.4313 24.4568586 139.014496 25.9448981 135.144645 27.6300791 136.535062 34.8153196 140.9262 33.7860133 144.247277 33.0078729 147.557928 32.2373148 150.888482 31.5046686 155.926965 30.3957475 155.225596 22.3053619 149.934052 22.9716624M171.608437 2.61063767C170.735517.346353341 168.537579-.29814785 166.488444.306545915 163.126612 1.29888819 160.001729 2.83052631 156.937505 4.57162733 155.122476 5.60377703 153.992703 7.6292168 154.835294 9.81578187 155.590687 11.7758237 157.933639 12.9605686 159.821648 12.0601625 162.974965 10.5560104 166.226852 9.31629345 169.449358 7.99317041 171.424565 7.18185715 172.40269 4.67209369 171.608437 2.61063767M188.98618 11.8512683C185.562741 13.0018925 182.240717 15.2007789 179.105408 17.0224425 177.101768 18.1872837 175.831721 20.400387 176.770987 22.8409614 177.569979 24.9118954 180.267406 26.4586982 182.306115 25.3317689 185.793056 23.4039521 189.748208 21.5244729 192.819066 18.9123475 196.314538 15.9381641 193.109092 10.4655907 188.98618 11.8512683M168.715006 21.4342427C165.66879 23.2189424 162.578028 24.9410875 159.596262 26.8414182 157.696879 28.0517535 157.591674 31.1993836 158.840869 32.9215287 160.340282 34.9886715 162.683233 34.9175868 164.615789 33.7508501 167.322694 32.11685 169.94335 30.3112989 172.591491 28.573989 176.29453 26.1447882 172.588648 19.1652194 168.715006 21.4342427M157.243359 45.8871866C154.414188 46.8226611 151.13671 48.4348619 148.819349 50.379739 147.326571 51.6317774 146.86689 53.86668 147.85165 55.6201024 148.893277 57.4758867 150.737688 57.9952788 152.638019 57.41428 155.235927 56.6190792 157.953258 55.2883738 160.389093 54.0552914 165.241808 51.5976567 162.361457 44.1934754 157.243359 45.8871866M162.666363 65.8607524C159.696918 67.4530495 156.807088 69.307886 154.028151 71.2404418 150.528889 73.6743816 153.910624 79.9781719 157.732137 78.064572 160.743285 76.5575766 163.740215 74.907464 166.570334 73.0535753 170.315075 70.5997318 166.639523 63.7310551 162.666363 65.8607524M183.779842 48.7079219C181.933536 47.3326701 179.943165 47.811307 178.45323 49.4111864 178.729986 49.1135785 178.391623 49.4708976 178.295896 49.5675727 178.101597 49.7609231 177.910143 49.9571169 177.716792 50.1523628 177.281754 50.5921401 176.839133 51.0214916 176.377557 51.4309394 175.511271 52.2005497 174.5957 52.9151878 173.671599 53.6051832 172.196829 54.7084175 171.899221 56.939529 172.761715 58.5327739 173.587246 60.0568296 175.653441 61.0937183 177.26185 60.2198505 180.038892 58.7090639 182.410277 56.800203 184.475525 54.325508 185.788222 52.7550103 185.385409 49.9040403 183.779842 48.7079219M184.223127 33.8805085C182.746461 32.0228286 180.71723 31.9811256 178.854811 33.1099505 176.743122 34.3904227 174.900606 35.9485991 173.207843 37.7930099 171.912206 39.2052257 172.355774 41.7339451 173.552841 43.002096 174.887337 44.4152596 176.962062 44.5659592 178.494648 43.3944835 180.174143 42.1111679 181.813829 40.7766713 183.52081 39.5331631 185.165236 38.3360969 185.510233 35.5012395 184.223127 33.8805085M176.490818 89.3580337C174.072991 91.2830071 171.471291 93.098984 169.215537 95.2315247 167.88578 96.488302 167.353118 98.4094842 168.313236 100.119308 169.142557 101.596922 171.17937 102.700156 172.777354 101.792168 175.749642 100.103195 178.525736 97.9915063 181.352063 96.0485247 185.597241 93.1274179 180.618469 86.0710776 176.490818 89.3580337M197.695002 73.7375048C196.576603 72.1954409 194.027032 71.5916949 192.571218 73.0020152 190.548621 74.9601614 188.458732 76.8244759 186.22762 78.5153437 184.637219 79.7218879 184.388896 82.2733544 185.560372 83.8902941 186.801037 85.6001179 189.053 85.8105285 190.6652 84.6229403 192.918111 82.9633498 195.062025 81.1615898 197.024911 79.1342544 198.429544 77.6841268 199.002013 75.5392647 197.695002 73.7375048M192.463643 63.7166486C191.116825 62.2902158 189.148253 62.2276613 187.597659 63.3290001 185.373182 64.9108714 183.379967 67.0339341 181.673935 69.2062823 180.375454 70.8592383 180.705287 73.7187384 182.388573 74.9726723 184.269 76.3735146 186.345621 75.911938 187.858303 74.2513997 188.684781 73.3453068 189.502729 72.4316316 190.328259 71.524591 190.395552 71.4506629 190.50834 71.329345 190.551939 71.2810074 190.709273 71.1189343 190.867555 70.9587568 191.025837 70.7976315 191.6438 70.1654517 192.224798 69.5143159 192.802954 68.845172 194.042671 67.4121047 193.67303 64.9971208 192.463643 63.7166486M177.026797 75.6127189C175.823096 74.3388812 173.5209 73.9019473 172.160813 75.2260182 170.76471 76.5861052 169.404622 77.9831564 168.044535 79.3858942 167.323263 80.1318096 166.77828 80.8341263 166.627581 81.9335695 166.495837 82.8984257 166.755533 84.1267692 167.362122 84.8897449 168.547815 86.3815756 171.07843 87.1492902 172.587321 85.6394514 174.201417 84.0263028 175.798453 82.4027285 177.366108 80.7412423 178.660797 79.3707295 178.191638 76.8458013 177.026797 75.6127189M208.524328 47.4801471C207.327262 45.8309823 204.755892 45.3059034 203.196768 46.7152759 201.156163 48.5606344 198.989502 50.2230684 196.810519 51.87792 195.092165 53.1811393 194.822991 55.9335385 196.089246 57.6803263 197.448386 59.5541187 199.835884 59.715244 201.599732 58.470788 203.838426 56.8927079 205.876187 55.0416626 207.827698 53.0901509 209.310999 51.6068503 209.868303 49.3340358 208.524328 47.4801471M204.492499 97.6332394C202.63482 96.2494575 200.486166 96.6598531 199.002866 98.3573555 197.082631 100.555294 195.031601 102.686887 193.318934 105.071541 192.133241 106.722602 192.29721 109.055127 193.680044 110.52042 194.935874 111.850177 197.438055 112.370517 198.849323 110.930815 201.141093 108.594499 203.142838 105.976686 205.209981 103.421429 206.536895 101.780794 206.166307 98.879591 204.492499 97.6332394M214.131489 120.709415C212.781827 119.32279 210.573463 119.007174 209.038034 120.304706 207.407825 121.680906 206.07238 123.469397 204.696181 125.11477 203.394857 126.670103 202.087847 128.216906 200.836756 129.817733 199.437809 131.60812 199.874743 134.468568 201.586463 135.863723 203.456464 137.388727 205.827849 136.825736 207.31968 135.106434 208.578353 133.657254 209.782053 132.160685 210.993337 130.666958 212.192298 129.189345 213.542907 127.753434 214.486912 126.078679 215.473568 124.329047 215.632797 122.252427 214.131489 120.709415M224.039841 134.138166C221.919622 133.183736 220.011709 134.370376 218.968186 136.283028 217.615681 138.762462 216.223369 141.224836 214.93721 143.745025 213.922121 145.732553 215.207332 148.409128 217.053638 149.240345 219.222195 150.215627 221.195506 149.00624 222.257037 147.039563 223.595325 144.558234 224.831251 142.013402 226.102245 139.492265 227.082266 137.551179 225.84634 134.950427 224.039841 134.138166"/>
    </g>
    <g fill="#DCDDDE" fill-opacity=".2" transform="rotate(46 310.263 1166.51)">
      <path d="M15.4246 50.0161C13.4256 50.2881 11.5836 51.1331 9.6216 51.5831 7.6786 52.0291 5.6876 52.1481 3.7016 52.2091-1.1324 52.3561-1.2984 60.9871 3.5946 61.2231 8.0776 61.4381 13.6376 61.7971 17.8576 59.9901 22.9376 57.8141 21.0056 49.2551 15.4246 50.0161M54.3201 43.4775C53.3091 40.8535 50.5251 39.7595 48.0831 40.6705 45.1221 41.7745 42.2671 42.6925 39.1521 43.1935 33.4631 44.1095 34.4451 53.1535 40.2021 52.5815 44.0731 52.1955 48.0231 51.4015 51.6901 50.0345 54.1251 49.1265 55.2651 45.9325 54.3201 43.4775M85.0721 36.1358C83.7901 33.8528 81.4331 33.0988 79.0781 33.8888 76.3591 34.8008 73.9181 36.3498 71.1091 37.0648 68.7951 37.6528 66.9301 39.4958 67.2361 42.2148 67.5101 44.6418 69.7771 46.7068 72.1451 46.3238 76.1491 45.6758 80.3261 44.8148 83.8601 42.6988 85.9201 41.4658 86.1571 38.0688 85.0721 36.1358M117.7371 27.0127C116.6751 24.2577 113.9651 23.4187 111.4601 24.1877 107.2651 25.4757 102.8221 26.6467 98.7801 28.3807 94.2151 30.3387 96.1331 37.3687 100.8951 37.0547 105.6141 36.7437 110.6351 35.1887 115.0911 33.6127 117.5551 32.7397 118.6771 29.4547 117.7371 27.0127M150.4881 18.5825C149.4671 15.9315 146.6741 14.8545 144.2111 15.7575 141.6481 16.6965 139.1751 17.4575 136.4721 17.8075 134.0321 18.1225 132.1861 20.5225 132.4781 23.1165 132.7891 25.8705 135.0711 27.4375 137.5401 27.3535 141.0421 27.2345 144.5911 26.5725 147.8411 25.1815 150.2491 24.1515 151.4711 21.1365 150.4881 18.5825M171.0574 9.5981C169.2764 9.8671 167.8064 10.7871 166.1394 11.4201 164.6934 11.9701 163.3434 12.2861 161.8844 12.7951 157.8654 14.1981 158.6974 21.1001 162.8964 21.5101 164.8154 21.6971 166.6314 21.5611 168.5114 21.1511 170.5904 20.6981 172.9254 20.2431 174.6024 18.8011 178.1874 15.7171 175.9924 8.8521 171.0574 9.5981M23.159 69.5469C20.291 69.9569 17.527 71.1469 15.323 73.1369 13.553 74.7359 12.883 77.7169 14.502 79.7549 16.017 81.6619 18.854 82.3339 20.787 80.6569 21.124 80.3649 21.475 80.1049 21.836 79.8499 21.964 79.7789 22.214 79.6349 22.384 79.5589 22.651 79.4399 22.924 79.3479 23.196 79.2519 22.895 79.3839 24.011 79.0879 24.223 79.0619 26.58 78.7749 28.601 76.3279 28.203 73.7699 27.812 71.2549 25.677 69.1869 23.159 69.5469M31.2303 91.9756C29.4993 89.7966 26.8213 89.4906 24.6243 91.0266 22.7423 92.3426 20.8333 93.6056 18.8883 94.8166 16.9613 96.0156 16.7553 99.0966 17.7563 100.9456 18.8673 102.9956 21.2443 103.9136 23.3543 103.0426 25.8403 102.0166 28.2233 100.6096 30.3663 98.9326 32.3383 97.3886 32.8533 94.0186 31.2303 91.9756M51.1551 129.8506C49.3631 127.5956 46.8751 127.5236 44.6131 128.9116 42.8131 130.0156 41.0721 131.2176 39.3181 132.4006 37.2701 133.7826 36.9401 137.3486 38.4661 139.2676 40.2301 141.4886 42.7551 141.6236 44.9861 140.2036 46.7701 139.0676 48.5631 137.9536 50.3001 136.7396 52.3311 135.3186 52.7031 131.7986 51.1551 129.8506M72.701 146.668C71.889 144.558 69.088 142.914 67.001 144.103 63.837 145.905 60.745 148.028 58.234 150.763 55.643 153.587 59.449 158.907 62.744 157.028 65.321 155.559 67.654 154.013 70.298 152.661 72.419 151.576 73.637 149.096 72.701 146.668M79.4031 166.7505C77.3271 164.5515 74.4181 165.0485 72.5241 167.1555 71.5421 168.2495 71.2291 168.5745 70.0111 169.7185 68.9681 170.6985 67.8861 171.6285 66.7771 172.5225 64.9341 174.0095 64.4121 177.1465 65.9611 179.0965 67.5551 181.1035 70.1751 181.5135 72.2041 179.9925 74.6151 178.1835 76.8741 176.1865 78.9811 173.9965 80.9241 171.9765 81.5471 169.0205 79.4031 166.7505M89.9695 179.3208C87.2975 181.4428 82.8255 188.0818 80.4275 190.5318 78.6605 192.3378 77.9585 195.0388 79.5885 197.2858 81.0115 199.2478 84.1495 199.9338 86.0025 198.2068 88.8025 195.5978 93.9495 189.1208 96.4255 186.1608 99.9185 181.9868 94.0545 176.0768 89.9695 179.3208M112.7488 194.6489C110.9128 192.3379 108.4138 192.3099 106.0998 193.6939 102.9738 195.5649 96.2448 202.8029 94.6218 206.1649 93.6158 208.2479 94.7098 210.9259 96.5078 212.0379 98.5498 213.3009 100.7238 212.6299 102.2768 210.9059 102.7278 210.4059 107.1798 205.8149 107.6168 205.3019 107.7298 205.1679 107.9148 204.9629 107.9868 204.8789 108.1908 204.6749 108.3968 204.4739 108.6088 204.2789 109.6398 203.3329 110.7678 202.4869 111.8798 201.6499 113.8948 200.1359 114.3608 196.6769 112.7488 194.6489M126.1385 206.4971C124.1175 204.9901 121.1805 205.1651 119.6395 207.3541 117.7195 210.0831 115.7515 212.7521 113.5445 215.2321 112.0475 216.9141 112.5275 219.8331 113.9505 221.3391 115.3675 222.8421 118.1455 223.3981 119.7435 221.8001 122.3605 219.1851 124.8845 216.4451 126.9885 213.3501 128.3945 211.2801 128.2385 208.0611 126.1385 206.4971M136.8416 223.3555C134.9236 226.9855 132.6426 230.7905 132.0286 234.9635 131.2446 240.2785 138.7046 242.5495 140.6526 237.5355 141.8986 234.3255 143.3966 231.3205 144.3146 227.9825 146.6396 219.5245 139.4776 218.3645 136.8416 223.3555M406.1814 145.9165C405.9344 140.5305 397.2944 140.2645 397.1124 145.7445 396.9944 149.2825 396.6194 153.1325 397.0124 156.6505 397.3264 159.4595 399.8684 161.5885 402.5324 161.2705 405.4484 160.9225 406.9024 158.3195 406.8864 155.4795 406.8684 152.3125 406.3274 149.0945 406.1814 145.9165M275.9226 256.7061C273.4036 256.3101 271.3086 258.1801 270.8316 260.6941 270.3186 263.4051 269.4356 273.9631 269.0046 276.6901 268.6356 279.0241 270.3796 281.1491 272.5316 281.6741 277.7206 282.9391 277.1326 275.1051 277.7206 272.8151 278.4086 270.1311 279.1276 264.7981 279.7356 262.0921 280.2936 259.6031 278.1746 257.0601 275.9226 256.7061M305.5711 260.6089C302.9761 260.2009 300.8421 262.1259 300.3421 264.7049 299.6751 268.1539 299.0891 271.6169 298.4911 275.0809 298.0501 277.6389 299.9891 280.1839 302.3691 280.5579 304.9381 280.9619 307.0511 279.0559 307.5461 276.5029 308.2131 273.0519 308.8891 269.6059 309.4871 266.1419 309.9331 263.5569 307.9741 260.9869 305.5711 260.6089M325.9744 260.9756C323.9234 260.3996 321.0954 261.3586 320.4204 263.7406 319.4324 267.2326 318.6744 270.7546 318.1034 274.3506 317.6874 276.9666 319.6064 279.5516 322.0574 279.9366 324.6434 280.3446 326.8774 278.4146 327.3384 275.8006 327.8954 272.6406 328.6164 269.5226 329.3664 266.4086 329.9304 264.0606 328.0244 261.5516 325.9744 260.9756M345.9695 265.8994C345.7415 263.5264 343.5345 261.7384 341.3155 262.0034 339.0125 262.2784 337.4335 264.5014 337.6425 266.8864 337.8665 269.4424 338.0915 271.9994 338.3155 274.5554 338.5255 276.9474 340.7815 278.7454 343.0035 278.4804 345.3075 278.2044 346.9325 275.9614 346.7025 273.5614 346.4575 271.0074 346.2135 268.4534 345.9695 265.8994M454.2508 254.1509C452.5898 250.0019 450.5168 245.8589 447.7758 242.3809 444.4638 238.1779 438.1818 243.1439 441.3708 247.5319 443.5948 250.5909 445.7318 253.6059 447.3928 257.0519 449.5208 261.4689 456.1338 258.8559 454.2508 254.1509M438.698 272.6245C437.337 269.1495 436.024 265.6545 434.506 262.2515 432.015 256.6775 423.947 259.9995 426.062 265.8225 427.338 269.3335 428.821 272.7525 430.256 276.1945 432.613 281.8525 440.949 278.3685 438.698 272.6245M414.573 259.2217C414.029 257.0987 411.403 256.0647 409.584 256.5807 407.672 257.1237 406.017 259.1617 406.41 261.3887 406.877 264.0327 407.234 266.6817 407.343 269.3687 407.442 271.8387 409.962 273.6697 412.166 273.4067 414.635 273.1117 416.085 270.8247 415.972 268.3467 415.83 265.2177 415.346 262.2477 414.573 259.2217M393.2791 272.4351C392.2311 269.3801 391.2301 266.3031 390.0631 263.2951 389.1391 260.9131 386.4471 259.6931 384.1841 260.6501 381.8021 261.6571 380.9291 264.3811 381.7061 266.8311 382.6811 269.9121 383.8261 272.9331 384.9221 275.9701 386.9931 281.7141 395.2531 278.1871 393.2791 272.4351M371.9803 275.4419C371.4623 273.0069 370.9463 270.5729 370.4283 268.1389 369.9173 265.7339 368.0083 263.5459 365.4523 263.9719 363.2863 264.3339 360.9463 266.6199 361.5263 269.1929L363.1683 276.4859C363.7033 278.8579 365.5433 281.0349 368.0943 280.6089 370.2633 280.2469 372.5233 277.9959 371.9803 275.4419M377.7615 256.8267C377.0395 252.7497 376.0545 248.7287 375.0445 244.7207 374.4355 242.3057 371.4365 241.1347 369.3745 241.7197 367.2385 242.3257 365.2705 244.6657 365.7685 247.1817 366.5705 251.2397 367.4525 255.2877 368.5435 259.2727 370.0395 264.7427 378.7495 262.4137 377.7615 256.8267M403.5769 254.231C402.8909 250.616 402.2249 247.001 401.3829 243.421 400.8069 240.98 399.0549 239.004 396.4739 239.312 394.2839 239.574 392.0869 241.988 392.6009 244.462 393.4339 248.468 394.4669 252.42 395.4729 256.381 396.6979 261.203 404.5089 259.136 403.5769 254.231M429.6746 246.1358C428.9216 242.9648 428.1676 239.7928 427.4136 236.6218 426.7826 233.9648 424.8026 231.9968 422.0276 232.7338 419.2736 233.4648 418.4086 236.1728 419.0756 238.8348 419.8686 241.9958 420.6606 245.1568 421.4536 248.3178 421.9906 250.4578 424.6536 251.4948 426.4786 250.9768 428.3116 250.4578 430.1986 248.3408 429.6746 246.1358M456.5125 230.3301C455.5715 226.8931 454.0265 223.7311 452.0585 220.8151 450.8025 218.9551 448.2115 218.5111 446.4115 219.6261 444.7285 220.6701 443.4325 223.2961 444.5115 225.3351 445.9565 228.0661 447.2045 230.8991 448.2685 233.8171 449.1315 236.1881 451.8695 237.3561 454.0675 236.4271 456.4915 235.4021 457.1835 232.7781 456.5125 230.3301M436.7869 214.3613C434.7959 211.8123 433.4669 209.4823 433.1589 206.1403 432.9199 203.5323 430.4779 201.5703 428.0469 201.8613 425.3999 202.1763 423.9319 204.5953 424.0139 207.2243 424.1839 212.6603 426.3319 217.6823 429.9659 221.5083 431.6589 223.2913 434.8409 222.6963 436.3409 221.0763 437.9649 219.3213 438.3599 216.3753 436.7869 214.3613M453.0437 197.7564C452.1727 195.3424 449.3747 194.1584 447.1457 195.1014 444.6457 196.1584 444.0207 198.7994 444.6577 201.3034 445.4057 204.2434 445.6317 207.2694 446.0247 210.2704 446.8937 216.8994 456.2517 215.7394 455.7767 209.1144 455.5007 205.2584 454.3457 201.3634 453.0437 197.7564M358.7596 243.415C358.5846 241.062 356.3166 239.303 354.1556 239.561 351.7636 239.847 350.4606 242.023 350.5246 244.391 350.6166 247.862 350.5206 251.31 350.2576 254.769 350.0686 257.274 351.5396 259.676 354.0056 260.063 356.1606 260.403 358.9386 258.67 359.0096 256.144 359.1296 251.893 359.0746 247.657 358.7596 243.415M289.5232 250.7305C286.7182 249.8935 284.3152 251.8215 283.7072 254.6695 282.9522 258.1995 282.9652 261.5785 283.0522 265.1815 283.0992 267.1145 285.0082 268.6395 286.7132 268.6425 288.6082 268.6455 290.1102 267.2925 290.4562 265.3225 290.9302 262.6215 291.7782 259.9315 292.5642 257.3115 293.3932 254.5445 292.3792 251.5825 289.5232 250.7305M317.7879 237.3511C315.1679 237.0601 312.8229 238.8121 312.3869 241.5831 311.8999 244.6721 311.8519 247.8001 311.9209 250.9301 311.9759 253.4061 314.4019 255.2691 316.5569 255.3111 318.6599 255.3521 321.2599 253.5881 321.2939 251.1081 321.3299 248.4161 321.5709 245.7411 321.8339 243.0661 322.0909 240.4531 320.4209 237.6441 317.7879 237.3511M336.5867 229.916C334.1077 230.212 332.5577 232.546 332.7147 235.066 332.9337 238.583 333.1817 242.091 333.4907 245.601 333.7007 247.976 335.9387 249.76 338.1457 249.497 340.5847 249.206 341.8557 247.008 341.8167 244.614 341.7607 241.081 341.6427 237.556 341.4957 234.025 341.3907 231.512 338.8327 229.648 336.5867 229.916M299.1297 230.1533C296.8557 229.7953 294.0277 231.6073 293.9177 234.2363 293.7307 238.7183 293.6777 243.2003 293.6767 247.6883 293.6757 253.0213 302.3057 253.2023 302.5947 247.8583 302.8157 243.7963 302.9817 239.7363 303.0317 235.6673 303.0657 233.0503 301.8117 230.5753 299.1297 230.1533M263.5535 237.5972C263.0295 241.0292 262.5345 244.4802 262.4115 247.9592 262.3265 250.3752 263.5765 252.6682 266.0175 253.0532 268.3735 253.4232 270.4115 251.6642 270.8305 249.2812 271.4325 245.8622 271.8805 242.4182 272.5175 239.0052 273.6375 232.9932 264.4815 231.5222 263.5535 237.5972M249.3318 250.8648C248.0258 255.1868 247.0398 259.6318 245.9408 264.0178 244.6858 269.0238 252.9358 271.5368 254.3018 266.5118 255.4858 262.1528 256.8048 257.8028 257.7798 253.3848 258.9068 248.2868 250.8538 245.8258 249.3318 250.8648M235.7703 249.3726C233.3953 248.9986 231.6613 250.7396 231.1293 253.0086 230.3773 256.2216 229.8633 259.4976 229.2753 262.7486 228.8693 264.9956 230.6063 267.2396 232.6863 267.5666 234.9863 267.9296 236.7573 266.2356 237.2413 263.9986 237.9383 260.7696 238.7133 257.5486 239.2473 254.2836 239.6213 251.9856 237.9183 249.7106 235.7703 249.3726M216.4344 252.6519C214.4984 251.0729 211.6684 251.4839 210.1714 253.4789 207.7474 256.7069 205.8384 260.3139 204.2124 264.0529 203.1854 266.4139 204.4214 269.3759 206.6494 270.3789 209.0154 271.4439 211.5744 270.1959 212.6394 267.8449 213.9894 264.8659 215.5844 262.0469 217.2534 259.2559 218.5344 257.1149 218.4754 254.3159 216.4344 252.6519M199.2469 234.0366C196.9879 233.0196 194.5299 234.2086 193.5179 236.4596L189.9699 244.3466C188.9589 246.5916 190.1889 249.4476 192.3009 250.3976 194.5599 251.4146 197.0179 250.2256 198.0299 247.9746 199.2139 245.3456 200.3949 242.7166 201.5789 240.0876 202.5889 237.8426 201.3589 234.9866 199.2469 234.0366M171.7039 229.5933C169.5899 228.6413 166.5959 229.6543 165.8139 232.0843 164.8219 235.1703 162.9169 242.2513 162.8139 245.5283 162.7389 247.9703 163.9849 250.2873 166.4589 250.6763 168.8369 251.0503 171.9719 245.4343 172.3909 243.0243 172.8209 240.5513 173.2649 238.1713 174.0999 235.8133 174.9479 233.4213 174.0089 230.6303 171.7039 229.5933M163.4724 205.5703C161.3334 204.6083 158.2884 205.6303 157.5024 208.0943 156.2564 212.0013 155.0114 215.9083 153.7654 219.8143 153.0014 222.2103 153.8054 224.9223 156.1374 225.9713 158.2584 226.9253 161.1594 225.8973 161.9674 223.5063 163.2794 219.6293 164.5904 215.7523 165.9014 211.8753 166.7264 209.4373 165.8314 206.6323 163.4724 205.5703M150.034 188.1939C148.151 186.6589 145.375 187.0469 143.921 189.0009 142.054 191.5099 140.415 194.2219 138.699 196.8489 137.35 198.9129 137.544 201.7819 139.51 203.3859 141.332 204.8719 144.346 204.6379 145.709 202.5679 147.435 199.9459 149.263 197.3699 150.833 194.6409 152.049 192.5279 152.049 189.8369 150.034 188.1939M131.7312 182.3267C129.5382 181.4537 126.8632 182.3587 125.9602 184.7667 125.7402 185.3567 125.5082 185.9417 125.2512 186.5147 125.1222 186.8007 124.9802 187.0807 124.8482 187.3647 124.7782 187.5047 124.7072 187.6437 124.6362 187.7837 124.7902 187.5257 124.7882 187.5307 124.6322 187.7967 123.9752 188.9527 123.2042 190.0317 122.3792 191.0587 120.9192 192.8797 121.3162 196.0777 123.1722 197.4607 125.1902 198.9627 127.6462 198.5767 129.2432 196.6597 131.2682 194.2277 132.8972 191.4077 134.0792 188.4207 134.9632 186.1807 133.9692 183.2177 131.7312 182.3267M117.3933 171.3828C115.4503 169.7978 113.0273 170.4028 111.4723 172.1638 109.2403 174.6948 107.6353 177.9948 106.1603 181.0598 105.2583 182.9328 106.2253 185.4058 107.8723 186.3908 109.4643 187.3428 112.0563 187.2088 113.1093 185.3628 114.6483 182.6638 116.5403 180.2538 118.1673 177.6258 119.4083 175.6218 119.3023 172.9398 117.3933 171.3828M98.8162 157.3711C96.7532 155.8341 94.2032 156.2131 92.5742 158.1951 91.5452 159.4461 90.5172 160.6971 89.4892 161.9481 87.9982 163.7631 88.4352 167.0151 90.2892 168.3951 91.1952 169.0701 92.3312 169.5211 93.4562 169.3341 94.6742 169.1301 95.5632 168.5321 96.4022 167.5881 97.4782 166.3761 98.5552 165.1651 99.6312 163.9531 100.3502 163.1441 100.6432 161.6121 100.5242 160.5501 100.3942 159.3931 99.7372 158.0571 98.8162 157.3711M96.1717 128.0762C94.6097 126.1102 91.5137 125.2832 89.5227 127.1212 86.7417 129.6892 84.0517 132.4082 81.4727 135.1982 79.8787 136.9222 80.4007 140.1012 81.8997 141.6432 83.4867 143.2752 86.2137 143.7352 88.0147 142.1292 90.5257 139.8902 92.9667 137.5182 95.3027 135.0772 97.0517 133.2502 97.9677 130.3352 96.1717 128.0762M73.5086 126.1167C71.5626 124.0557 68.6606 124.4137 66.9046 126.5057 65.6286 128.0237 64.3546 129.5407 63.0786 131.0587 61.7116 132.6867 62.0876 135.3557 63.4596 136.8077 64.7976 138.2237 67.4056 138.7417 68.9136 137.2417 70.3106 135.8517 71.7066 134.4627 73.1036 133.0737 73.9826 132.1987 74.5586 131.3117 74.7836 130.0517 75.0436 128.6027 74.4646 127.1297 73.5086 126.1167M67.0672 106.6714C65.4062 104.5804 62.9912 104.4194 60.8882 105.7844 58.6902 107.2124 56.6142 108.8424 54.5412 110.4624 52.7332 111.8744 52.2642 114.9634 53.7502 116.8324 55.3682 118.8684 57.7512 119.0514 59.7992 117.7004 61.9912 116.2554 64.1932 114.8144 66.2592 113.1764 68.0952 111.7214 68.5912 108.5894 67.0672 106.6714M55.0135 90.3594C52.0705 91.0894 49.0795 91.7214 46.1835 92.6354 44.3095 93.2264 43.3735 95.7054 43.8565 97.5574 44.3735 99.5484 46.1445 100.9654 48.1565 100.7224 50.7905 100.4034 53.4065 99.8154 56.0165 99.3304 58.2905 98.9084 60.0545 96.8674 59.7695 94.3404 59.5225 92.1434 57.2765 89.7984 55.0135 90.3594M60.1814 66.8198C55.9334 66.7828 51.6264 67.2298 47.4804 68.1908 42.4164 69.3638 43.0794 77.2128 48.4414 76.7778 52.6944 76.4328 56.9334 76.1178 61.1954 75.8868 63.5294 75.7598 65.2514 73.1848 64.9884 70.8438 64.6844 68.1488 62.5284 66.8398 60.1814 66.8198M85.6717 84.0391C84.7447 81.6351 82.1117 80.5161 79.8527 81.4201 77.2217 82.4731 74.4417 83.4681 71.9757 84.8981 70.2447 85.9021 69.0917 87.6301 69.6567 89.8021 70.1497 91.6951 71.9637 93.3231 73.9407 92.9551 77.0777 92.3691 80.1937 91.2001 83.2177 90.1571 85.5087 89.3671 86.5387 86.2901 85.6717 84.0391M91.8064 105.3076C90.9254 103.0216 88.3684 101.8816 86.2054 102.7866 82.5454 104.3206 79.2084 107.0466 76.6144 110.1366 73.5594 113.7726 78.8224 119.3776 82.3644 116.2276 84.6144 114.2256 86.8814 112.6446 89.4454 111.1956 91.4854 110.0416 92.7504 107.7586 91.8064 105.3076M116.7693 134.8692C115.2063 132.7132 112.4503 132.5192 110.4193 133.9582 107.2033 136.2372 104.1363 139.3552 101.8353 142.6372 100.5833 144.4222 100.6953 146.9602 102.2263 148.5342 103.6153 149.9612 106.2613 150.5402 107.8203 148.9792 110.4443 146.3492 113.0993 143.9222 115.9393 141.5552 117.8513 139.9612 118.2763 136.9472 116.7693 134.8692M132.1443 150.3042C130.1003 148.7812 127.7503 149.2402 126.1173 151.0992 124.2073 153.2712 122.5143 155.6162 121.0373 158.1352 119.8733 160.1172 119.8023 162.9232 121.8163 164.4232 123.5593 165.7212 126.5093 165.7482 127.7803 163.6362 129.2833 161.1352 131.0013 158.8092 132.9323 156.6602 134.4783 154.9392 133.9143 151.6222 132.1443 150.3042M151.8162 154.6577C150.1552 153.9097 148.0862 154.4587 146.9912 155.9717 146.0752 157.2367 145.3152 158.6177 144.3722 159.8627 143.4292 161.1037 142.3702 162.2647 141.3502 163.4347 139.9112 165.0887 140.3472 167.8957 141.7442 169.3737 143.2592 170.9787 145.6392 171.1687 147.3792 169.8217 150.6712 167.2707 153.1952 163.3977 154.2722 159.2487 154.7412 157.4417 153.3372 155.3417 151.8162 154.6577M167.6053 174.9131C165.3773 174.0261 162.6233 174.9401 161.7153 177.4041 160.8783 179.6751 160.0413 181.9411 159.2763 184.2421 158.4903 186.6071 159.2983 189.5891 161.7053 190.5461 163.9533 191.4411 166.7683 190.5241 167.6743 188.0211 168.5013 185.7431 169.2493 183.4391 170.0013 181.1331 170.7653 178.7951 169.9883 175.8611 167.6053 174.9131M181.4861 207.023C179.3811 210.456 177.8361 214.596 176.9991 218.591 175.9961 223.382 182.8631 225.132 184.6601 220.877 185.9831 217.739 187.4031 214.64 188.7231 211.504 190.6151 207.009 184.1321 202.709 181.4861 207.023M210.1765 208.4756C208.1045 206.7856 205.6975 207.5166 204.0215 209.2876 201.1915 212.2786 199.1325 216.5356 197.2555 220.2256 196.1505 222.4016 197.5485 225.3246 199.5715 226.2356 201.9435 227.3026 204.0985 225.9786 205.2605 223.8286 206.9505 220.7026 209.2015 218.0096 210.9815 214.9676 212.2205 212.8496 212.1965 210.1216 210.1765 208.4756M225.0935 225.4746C222.6195 224.3616 220.3255 225.7336 219.1235 227.9996 217.6145 230.8476 216.1685 233.8376 214.9675 236.8466 214.1075 239.0016 214.9345 241.6036 216.8665 242.7586 218.6245 243.8086 221.5245 243.6746 222.6765 241.6196 224.4525 238.4526 226.0895 235.1376 227.5235 231.7796 228.5305 229.4186 227.3255 226.4786 225.0935 225.4746M190.6394 178.9473C188.4814 177.3403 186.2094 177.9253 184.4614 179.7623 182.2324 182.1063 176.1314 188.6093 174.2434 191.2623 172.9064 193.1433 173.2104 195.9313 175.0034 197.3933 176.8664 198.9113 179.3474 198.4073 180.8174 196.6263 183.0694 193.8973 189.1574 187.8683 191.4474 185.4613 193.0804 183.7443 192.4144 180.2693 190.6394 178.9473M247.2947 218.8174C244.8297 218.4294 243.1107 220.2284 242.5317 222.5474 241.7277 225.7784 241.0667 229.0444 240.3747 232.3034 239.8887 234.5954 241.7897 236.9224 243.8767 237.2504 246.2907 237.6294 247.9907 235.8664 248.5517 233.5874 249.3487 230.3504 250.1777 227.1224 250.8607 223.8554 251.3497 221.5194 249.4247 219.1524 247.2947 218.8174M278.2049 218.0552C277.5479 222.6492 277.0559 227.2872 276.7299 231.9222 276.3089 237.9442 284.6299 239.3572 285.6029 233.3152 286.3399 228.7382 286.9149 224.1122 287.3189 219.4862 287.8619 213.2942 279.0939 211.8492 278.2049 218.0552M386.2537 231.0742C385.0447 226.8022 384.5627 222.4532 384.4457 218.0122 384.3837 215.6702 381.9617 213.9952 379.9097 214.2152 377.4847 214.4752 376.3537 216.6612 376.3317 218.9732 376.2867 223.8072 376.7207 228.6302 377.5047 233.3962 378.6257 240.2052 388.1707 237.8552 386.2537 231.0742M407.8103 222.5488C406.8563 218.9428 405.1863 215.5698 403.0263 212.5958 401.6663 210.7248 399.0023 210.3438 397.2333 211.7648 395.3183 213.3028 395.2943 215.8538 396.4753 217.8638 397.7433 220.0228 398.5693 222.4528 398.9743 224.8938 399.4503 227.7678 401.9063 229.7518 404.6833 229.0148 407.5733 228.2478 408.5553 225.3618 407.8103 222.5488M417.1873 202.7813C416.3943 198.5573 415.3973 193.6533 413.7633 189.6983 411.8673 185.1073 405.7813 187.0163 405.9533 191.7723 406.1113 196.1293 407.2883 200.9203 408.3223 205.1343 409.6183 210.4203 418.1963 208.1483 417.1873 202.7813M437.0301 190.606C436.0521 186.831 434.9251 183.044 433.6911 179.352 432.2101 174.915 425.1161 176.679 425.9981 181.394 426.7921 185.635 427.7611 189.897 428.8421 194.069 429.4721 196.503 432.5781 197.517 434.6011 196.661 437.0341 195.632 437.6621 193.047 437.0301 190.606M326.0623 207.2881C325.2703 203.0631 320.4763 202.5231 318.5633 206.1251 317.2243 208.6471 317.1233 218.0251 317.0273 220.8581 316.9303 223.6791 318.5153 226.2001 321.4223 226.2551 324.2773 226.3091 326.0193 223.8671 325.9453 221.0281 325.8763 218.4381 326.5363 209.8191 326.0623 207.2881M364.5906 218.7212C364.0816 213.7622 356.8216 213.5332 356.2476 218.5622 355.8506 222.0442 355.5376 225.5822 355.5896 229.0952 355.6256 231.5812 358.1236 233.5442 360.2996 233.5472 362.4596 233.5512 365.0466 231.8272 365.1126 229.2762 365.2046 225.7572 364.9486 222.2212 364.5906 218.7212M299.6687 203.5855C299.3837 206.8805 298.3277 209.9695 297.9557 213.2225 297.3817 218.2535 304.3307 220.5665 306.2007 215.6815 307.6147 211.9855 307.5357 207.6655 307.4957 203.7345 307.4477 199.0225 300.0697 198.9325 299.6687 203.5855M262.1609 207.5928C260.6619 210.6048 259.1299 213.5478 257.2059 216.2848 255.7509 218.3578 256.2739 221.3048 258.4109 222.6288 260.7039 224.0478 263.0149 222.8688 264.2339 220.6368 265.9989 217.4058 267.7079 214.1518 268.9829 210.6628 270.7169 205.9258 264.3489 203.1968 262.1609 207.5928M234.6746 200.502C232.1926 199.384 229.8656 200.757 228.6646 203.044 226.9626 206.285 224.8916 209.307 223.2676 212.587 222.1736 214.799 223.3616 217.763 225.3026 218.922 227.3846 220.167 230.0146 219.729 231.5256 217.702 233.9036 214.511 235.5856 210.556 237.1196 206.849 238.1096 204.46 236.9406 201.521 234.6746 200.502M253.0008 191.6143C251.2598 191.1253 248.8008 191.9373 248.2438 193.9823 247.4938 196.7393 246.5198 198.8543 244.8408 200.9263 243.0698 203.1123 243.9468 206.5743 246.1748 207.9543 248.7168 209.5283 251.2758 208.2203 252.6268 205.7483 254.2338 202.8083 255.3358 199.6133 255.9048 196.2673 256.2538 194.2173 254.8588 192.1353 253.0008 191.6143M211.9666 185.0449C210.5406 183.0779 207.3906 182.3869 205.5316 184.1219 203.0096 186.4739 200.3956 188.7529 197.9856 191.2319 196.1646 193.1039 195.4306 195.8839 197.1176 198.2109 198.6016 200.2569 201.8126 200.9239 203.7456 199.1629 206.3006 196.8349 208.6816 194.2759 211.1256 191.8209 212.9126 190.0249 213.5936 187.2879 211.9666 185.0449M227.3045 176.8784C225.4055 177.8264 224.0785 179.4374 222.6235 180.9834 221.5015 182.1764 220.3785 183.3604 219.3125 184.6094 217.6685 186.5314 218.2045 190.0864 220.1725 191.5524 222.4525 193.2514 224.9165 192.6634 226.7575 190.6834 227.8145 189.5454 228.8135 188.3594 229.8185 187.1704 230.9545 185.8234 232.1995 184.5284 232.8445 182.8224 234.1355 179.4064 230.7635 175.1514 227.3045 176.8784M212.117 159.3906C210.596 157.4766 207.684 156.7506 205.746 158.4756 203.748 160.2536 201.594 161.7996 199.525 163.4806 197.587 165.0566 197.026 168.3526 198.665 170.4146 200.444 172.6536 203 172.7996 205.25 171.3596 207.493 169.9246 209.43 168.0416 211.284 166.0986 212.957 164.3456 213.839 161.5576 212.117 159.3906M185.0408 156.1148C182.1508 156.4288 179.2818 158.5958 176.7808 160.0378 174.6738 161.2528 173.1138 163.7728 174.2428 166.3648 175.1798 168.5158 178.0078 170.4008 180.2618 169.0738 181.7838 168.1768 183.3158 167.2938 184.8168 166.3578 186.2918 165.4388 187.7538 164.6148 188.8268 163.1638 191.0408 160.1738 188.5748 155.7308 185.0408 156.1148M175.8084 135.3482C174.3764 133.8762 171.5974 133.2462 169.9944 134.8862 168.5424 136.3702 167.0324 137.8072 165.4194 139.0972 163.8004 140.3922 161.9944 141.4122 160.4004 142.7372 156.3384 146.1122 160.0574 153.2262 164.9714 151.1582 169.3714 149.3062 173.2794 145.2892 176.2144 141.4772 177.5894 139.6912 177.3444 136.9272 175.8084 135.3482M146.8933 130.1685C145.3143 128.1805 142.7043 127.7615 140.6943 129.2785 138.9973 130.5605 137.0153 131.7385 135.7393 133.5015 134.5793 135.1025 134.4613 137.6705 135.7383 139.2775 136.9773 140.8365 139.1553 141.6875 140.9983 140.8085 142.9643 139.8705 144.4783 138.1845 146.0823 136.6965 147.8093 135.0955 148.5043 132.1965 146.8933 130.1685M135.5457 110.3755C133.6977 108.8685 130.9887 109.2565 129.5607 111.1655 127.8297 113.4785 125.9387 115.7785 123.9777 117.7985 122.4867 119.3335 121.8837 121.6075 123.2677 123.5145 124.5057 125.2215 127.0817 125.6975 128.6957 124.2935 131.3997 121.9415 133.9337 119.3855 136.3277 116.6865 137.8977 114.9175 137.2507 111.7655 135.5457 110.3755M111.9695 112.2969C110.5785 110.8239 107.8845 110.2979 106.3155 111.8479 104.1865 113.9489 102.0395 116.1619 100.1615 118.5189 97.1615 122.2849 102.3585 127.8799 105.9965 124.7009 108.2455 122.7369 110.3575 120.4869 112.3655 118.2569 113.8335 116.6249 113.3515 113.7599 111.9695 112.2969M113.5887 88.9116C112.1117 87.0536 109.4017 86.4406 107.5187 88.0396 106.6157 88.8066 105.7857 89.6556 104.8567 90.3886 104.3947 90.7526 103.9207 91.0986 103.4347 91.4256 103.2447 91.5526 103.0527 91.6746 102.8597 91.7966 102.8137 91.8216 102.6997 91.8846 102.4987 91.9996 100.6607 93.0196 99.3397 95.2506 100.3057 97.4696 101.2147 99.5576 103.4297 100.6736 105.5077 99.8106 108.0517 98.7536 110.8267 97.3316 112.7957 95.3046 114.4037 93.6476 115.2217 90.9656 113.5887 88.9116M85.9783 53.6758C82.4493 54.1598 79.0953 55.5208 76.0083 57.3418 74.0873 58.4738 72.8563 60.5798 73.7643 62.9358 74.5693 65.0258 77.0733 66.2958 79.0853 65.3318 81.6433 64.1068 84.2573 63.3468 86.9853 62.6788 89.2403 62.1268 91.0463 60.3008 90.7503 57.6718 90.4793 55.2658 88.2873 53.3598 85.9783 53.6758M109.5486 69.1192C108.5266 67.2982 106.0656 65.9962 104.1026 67.0782 101.2766 68.6352 98.5456 70.3902 95.7896 72.0802 93.9856 73.1862 93.7586 76.1402 94.7226 77.8582 95.7156 79.6262 98.0946 80.8782 99.9996 79.8352 102.8336 78.2842 105.6826 76.7672 108.4466 75.0832 110.3116 73.9472 110.5416 70.8882 109.5486 69.1192M120.3094 44.9351C119.4034 42.5821 116.8694 41.5471 114.6684 42.3961 111.8924 43.4681 109.2064 45.2051 106.8204 47.0171 103.2934 49.6931 106.6714 56.3011 110.7124 54.1881 113.0804 52.9521 115.5104 51.9621 117.9314 50.8651 120.0754 49.8931 121.2064 47.2631 120.3094 44.9351M131.5955 64.8779C127.9655 65.5759 124.4285 66.7549 120.8805 67.8059 116.1855 69.1959 118.2345 77.7969 123.0415 76.6659 126.6395 75.8199 130.2845 75.0889 133.7935 73.8929 138.5245 72.2799 136.5335 63.9269 131.5955 64.8779M134.7801 93.5029C133.8241 91.7389 131.3191 90.4089 129.4461 91.5039 127.0121 92.9279 124.8821 94.5129 122.8781 96.5529 121.2771 98.1829 120.4831 100.8539 122.0921 102.8779 123.4981 104.6459 126.3081 105.4109 128.0991 103.7399 129.8431 102.1129 131.7531 100.6859 133.7011 99.3429 135.4901 98.1099 135.7711 95.3339 134.7801 93.5029M165.3748 105.7749C163.9098 103.7549 161.1248 103.4039 159.2178 104.8909 156.4458 107.0519 153.5938 109.6039 151.2668 112.2849 149.8948 113.8649 150.2768 116.6059 151.6458 118.0119 153.2188 119.6299 155.2718 119.6159 157.0798 118.4439 159.6978 116.7479 162.3098 114.4499 164.5698 112.2579 166.3088 110.5719 166.9128 107.8959 165.3748 105.7749M177.9793 111.8154C175.1663 114.4324 172.5603 117.2604 169.6573 119.7814 165.8473 123.0914 170.3173 129.3024 174.3573 126.2514 177.6713 123.7474 180.9923 121.1104 183.8353 118.0204 187.0973 114.4754 181.5113 108.5294 177.9793 111.8154M206.6238 134.8442C205.3098 133.0332 202.4138 132.4012 200.7018 133.9942 198.1668 136.3552 195.7238 138.8232 193.2528 141.2582 191.6528 142.8342 191.0738 145.2912 192.5068 147.2672 193.7858 149.0312 196.5468 149.6002 198.2138 148.0862 200.7698 145.7652 203.3558 143.4752 205.8498 141.0792 207.5278 139.4652 208.0988 136.8782 206.6238 134.8442M160.4363 87.0859C158.9943 85.2699 156.1193 84.4939 154.2803 86.2019 151.9553 88.3609 149.6193 90.4849 147.4363 92.8049 145.9943 94.3379 146.5133 97.1529 147.8163 98.5329 149.2903 100.0939 151.5563 100.2439 153.2493 98.9649 155.4663 97.2909 157.5283 95.3969 159.6313 93.5689 161.3953 92.0359 162.0023 89.0569 160.4363 87.0859M158.1336 66.5938C157.1416 64.7618 154.6226 63.4758 152.6876 64.5528 150.0146 66.0398 147.1336 67.6598 144.7046 69.5658 140.9326 72.5278 144.4516 79.0758 148.8396 77.1818 151.6446 75.9708 154.4446 74.2038 157.0316 72.5578 158.8966 71.3708 159.1156 68.4068 158.1336 66.5938M146.0984 47.3804C144.7034 44.8104 141.9944 44.6034 139.7614 45.9814 137.0364 47.6624 134.3114 49.3444 131.5864 51.0264 129.8444 52.1014 129.6194 54.9514 130.5544 56.6174 131.5054 58.3114 133.8294 59.5634 135.6604 58.5314 138.4464 56.9604 141.2314 55.3904 144.0164 53.8194 146.2854 52.5404 147.4964 49.9574 146.0984 47.3804M160.7898 28.5889C157.5368 29.2059 154.4478 30.3199 151.4448 31.7489 146.7528 33.9809 149.5948 41.1489 154.4418 39.5289 156.8578 38.7219 159.3238 38.1989 161.8038 37.6559 164.0878 37.1549 165.8898 35.2199 165.5968 32.6129 165.3338 30.2869 163.0988 28.1509 160.7898 28.5889M170.8533 46.3936C166.9743 46.8816 162.9373 47.9606 159.3323 49.5306 155.2493 51.3086 156.7163 58.8896 161.3493 57.8036 164.8533 56.9826 168.3463 56.1696 171.8603 55.3966 177.1763 54.2266 176.4363 45.6906 170.8533 46.3936M193.7215 24.9111C192.8005 22.5221 190.4815 21.8421 188.3195 22.4801 184.7725 23.5271 181.4755 25.1431 178.2425 26.9801 176.3275 28.0691 175.1355 30.2061 176.0245 32.5131 176.8215 34.5811 179.2935 35.8311 181.2855 34.8811 184.6125 33.2941 188.0435 31.9861 191.4435 30.5901 193.5275 29.7341 194.5595 27.0861 193.7215 24.9111M199.5047 2.6445C198.5857.2575 196.2797-.4035 194.1237.2225 190.9147 1.1555 187.6117 2.6325 184.7957 4.4905 183.0057 5.6725 182.7157 8.5465 183.7177 10.3305 184.8077 12.2715 187.0127 13.1655 189.0507 12.3295 191.8157 11.1955 194.5857 9.7065 197.2357 8.3025 199.2247 7.2485 200.3967 4.9585 199.5047 2.6445M212.0564 34.6607C208.4444 35.8747 204.9394 38.1947 201.6314 40.1167 199.5174 41.3457 198.1774 43.6807 199.1684 46.2557 200.0114 48.4407 202.8574 50.0727 205.0084 48.8837 208.6874 46.8497 212.8604 44.8667 216.1004 42.1107 219.7884 38.9727 216.4064 33.1987 212.0564 34.6607M190.6687 44.7715C187.4547 46.6545 184.1937 48.4715 181.0477 50.4765 179.0437 51.7535 178.9327 55.0745 180.2507 56.8915 181.8327 59.0725 184.3047 58.9975 186.3437 57.7665 189.1997 56.0425 191.9647 54.1375 194.7587 52.3045 198.6657 49.7415 194.7557 42.3775 190.6687 44.7715M178.5652 70.5713C175.5802 71.5583 172.1222 73.2593 169.6772 75.3113 168.1022 76.6323 167.6172 78.9903 168.6562 80.8403 169.7552 82.7983 171.7012 83.3463 173.7062 82.7333 176.4472 81.8943 179.3142 80.4903 181.8842 79.1893 187.0042 76.5963 183.9652 68.7843 178.5652 70.5713M184.2869 91.645C181.1539 93.325 178.1049 95.282 175.1729 97.321 171.4809 99.889 175.0489 106.54 179.0809 104.521 182.2579 102.931 185.4199 101.19 188.4059 99.234 192.3569 96.645 188.4789 89.398 184.2869 91.645M206.5633 73.5474C204.6153 72.0964 202.5153 72.6014 200.9433 74.2894 201.2353 73.9754 200.8783 74.3524 200.7773 74.4544 200.5723 74.6584 200.3703 74.8654 200.1663 75.0714 199.7073 75.5354 199.2403 75.9884 198.7533 76.4204 197.8393 77.2324 196.8733 77.9864 195.8983 78.7144 194.3423 79.8784 194.0283 82.2324 194.9383 83.9134 195.8093 85.5214 197.9893 86.6154 199.6863 85.6934 202.6163 84.0994 205.1183 82.0854 207.2973 79.4744 208.6823 77.8174 208.2573 74.8094 206.5633 73.5474M207.031 57.9033C205.473 55.9433 203.332 55.8993 201.367 57.0903 199.139 58.4413 197.195 60.0853 195.409 62.0313 194.042 63.5213 194.51 66.1893 195.773 67.5273 197.181 69.0183 199.37 69.1773 200.987 67.9413 202.759 66.5873 204.489 65.1793 206.29 63.8673 208.025 62.6043 208.389 59.6133 207.031 57.9033M230.409 57.3521C229.51 55.2881 227.127 53.9171 225.027 54.9301 222.72 56.0441 220.655 57.5231 218.806 59.3471 217.263 60.8701 216.547 63.4521 218.06 65.3561 219.429 67.0781 222.023 67.7101 223.767 66.1751 224.541 65.4941 225.344 64.8541 226.189 64.2751 226.612 63.9861 227.041 63.7041 227.472 63.4301 227.612 63.3421 228.975 62.5191 228.139 63.0101 230.014 61.9081 231.423 59.6821 230.409 57.3521M198.8728 116.4365C196.3218 118.4675 193.5768 120.3835 191.1968 122.6335 189.7938 123.9595 189.2318 125.9865 190.2448 127.7905 191.1198 129.3495 193.2688 130.5135 194.9548 129.5555 198.0908 127.7735 201.0198 125.5455 204.0018 123.4955 208.4808 120.4135 203.2278 112.9685 198.8728 116.4365M221.2449 99.9556C220.0649 98.3286 217.3749 97.6916 215.8389 99.1796 213.7049 101.2456 211.4999 103.2126 209.1459 104.9966 207.4679 106.2696 207.2059 108.9616 208.4419 110.6676 209.7509 112.4716 212.1269 112.6936 213.8279 111.4406 216.2049 109.6896 218.4669 107.7886 220.5379 105.6496 222.0199 104.1196 222.6239 101.8566 221.2449 99.9556M243.7976 76.9605C242.4976 75.3245 240.0486 74.7355 238.3906 76.1845 236.9436 77.4495 235.4946 78.7145 234.0466 79.9805 232.5206 81.3145 231.9866 83.8925 233.3486 85.6065 234.6516 87.2445 237.0306 87.7765 238.6916 86.3725L243.0906 82.6535C244.6576 81.3295 245.1606 78.6755 243.7976 76.9605M215.7254 89.3828C214.3044 87.8778 212.2274 87.8118 210.5914 88.9738 208.2444 90.6428 206.1414 92.8828 204.3414 95.1748 202.9714 96.9188 203.3194 99.9358 205.0954 101.2588 207.0794 102.7368 209.2704 102.2498 210.8664 100.4978 211.7384 99.5418 212.6014 98.5778 213.4724 97.6208 213.5434 97.5428 213.6624 97.4148 213.7084 97.3638 213.8744 97.1928 214.0414 97.0238 214.2084 96.8538 214.8604 96.1868 215.4734 95.4998 216.0834 94.7938 217.3914 93.2818 217.0014 90.7338 215.7254 89.3828M199.4383 101.9341C198.1683 100.5901 195.7393 100.1291 194.3043 101.5261 192.8313 102.9611 191.3963 104.4351 189.9613 105.9151 189.2003 106.7021 188.6253 107.4431 188.4663 108.6031 188.3273 109.6211 188.6013 110.9171 189.2413 111.7221 190.4923 113.2961 193.1623 114.1061 194.7543 112.5131 196.4573 110.8111 198.1423 109.0981 199.7963 107.3451 201.1623 105.8991 200.6673 103.2351 199.4383 101.9341M232.6707 72.252C231.4077 70.512 228.6947 69.958 227.0497 71.445 224.8967 73.392 222.6107 75.146 220.3117 76.892 218.4987 78.267 218.2147 81.171 219.5507 83.014 220.9847 84.991 223.5037 85.161 225.3647 83.848 227.7267 82.183 229.8767 80.23 231.9357 78.171 233.5007 76.606 234.0887 74.208 232.6707 72.252M247.2908 101.3237C245.8978 99.5717 243.4218 99.0587 241.6478 100.5137 239.5408 102.2427 237.5868 104.1027 235.7198 106.1147 234.3178 107.6247 234.8098 110.3587 236.0908 111.7157 237.3858 113.0867 239.9478 113.6127 241.4048 112.1377 243.0688 110.4537 244.7678 108.8057 246.5538 107.2647 248.1748 105.8657 248.7238 103.1257 247.2908 101.3237M228.4168 125.1675C226.4568 123.7075 224.1898 124.1405 222.6248 125.9315 220.5988 128.2505 218.4348 130.4995 216.6278 133.0155 215.3768 134.7575 215.5498 137.2185 217.0088 138.7645 218.3338 140.1675 220.9738 140.7165 222.4628 139.1975 224.8808 136.7325 226.9928 133.9705 229.1738 131.2745 230.5738 129.5435 230.1828 126.4825 228.4168 125.1675M238.5867 149.5147C237.1627 148.0517 234.8327 147.7187 233.2127 149.0877 231.4927 150.5397 230.0837 152.4267 228.6317 154.1627 227.2587 155.8037 225.8797 157.4357 224.5597 159.1247 223.0837 161.0137 223.5447 164.0317 225.3507 165.5037 227.3237 167.1127 229.8257 166.5187 231.3997 164.7047 232.7277 163.1757 233.9977 161.5967 235.2757 160.0207 236.5407 158.4617 237.9657 156.9467 238.9617 155.1797 240.0027 153.3337 240.1707 151.1427 238.5867 149.5147M248.8416 124.793C246.9456 123.38 244.5386 123.7 243.0496 125.558 241.8956 126.998 240.7396 128.438 239.5856 129.878 238.1776 131.634 238.5606 134.719 240.3516 136.054 242.2426 137.463 244.7336 137.186 246.2076 135.281 247.3376 133.821 248.4686 132.361 249.5986 130.901 250.9616 129.14 250.6346 126.128 248.8416 124.793M262.6082 92.3213C260.6542 90.8653 258.4712 91.3353 256.9022 93.0743 255.0252 95.1543 253.1672 97.2383 251.3842 99.4083 249.9462 101.1603 250.3672 104.2973 252.1562 105.6293 254.1432 107.1103 256.4712 106.6853 258.0552 104.8513 259.8832 102.7333 261.6222 100.5453 263.3542 98.3393 264.7092 96.6133 264.3662 93.6313 262.6082 92.3213M249.0408 163.6831C246.8038 162.6761 244.7908 163.9281 243.6898 165.9461 242.2628 168.5621 240.7938 171.1601 239.4368 173.8191 238.3658 175.9161 239.7218 178.7401 241.6698 179.6171 243.9578 180.6461 246.0398 179.3701 247.1598 177.2951 248.5718 174.6771 249.8758 171.9921 251.2168 169.3321 252.2508 167.2841 250.9468 164.5401 249.0408 163.6831M259.1297 142.3823C257.7837 140.9573 255.4087 140.6043 253.8767 141.9653 252.7317 142.9813 251.6677 144.0863 250.5877 145.1783 249.7547 146.0183 249.2017 146.8503 248.9867 148.0533 248.7397 149.4323 249.2907 150.8353 250.2017 151.7983 251.0087 152.6533 251.9577 153.0803 253.0987 153.1023 254.5207 153.1303 255.5387 152.4963 256.4857 151.4283 257.5097 150.2753 258.5457 149.1403 259.4967 147.9203 260.7617 146.2983 260.4917 143.8243 259.1297 142.3823M266.4744 118.916C265.1514 117.516 262.7004 117.088 261.2004 118.497 259.7074 119.898 258.2144 121.3 256.7224 122.702 254.8334 124.476 254.4294 127.38 256.3314 129.395 257.1484 130.259 258.1084 130.69 259.2614 130.713 260.7124 130.741 261.7084 130.089 262.6864 129.02L266.8424 124.475C268.2234 122.965 267.7534 120.271 266.4744 118.916M267.1394 164.4829C264.8494 163.5719 262.6014 164.6019 261.5304 166.8559 260.5664 168.8819 259.9434 171.0019 259.4524 173.2089 258.9754 175.3549 260.6384 177.5359 262.5004 178.0929 264.3334 178.6409 266.8964 177.7239 267.4924 175.6079 267.9934 173.8229 268.6534 172.0809 269.4214 170.4079 270.3984 168.2809 269.2334 165.3159 267.1394 164.4829M275.3006 185.5591C273.7566 184.6371 272.0836 184.8001 270.6196 185.8171 269.0046 186.9401 267.9746 189.0441 267.1776 190.8451 266.4356 192.5191 265.8826 194.3811 265.6686 196.2161 265.3746 198.7411 267.0686 201.4681 269.5846 201.7481 272.1806 202.0371 274.3196 200.3211 274.8136 197.6521 274.9316 197.0161 275.0466 196.3771 275.1816 195.7441 275.2286 195.5251 275.3856 195.0531 275.2376 195.5301 275.3576 195.1431 275.4896 194.7631 275.6356 194.3871 276.2156 192.8821 276.9736 191.6031 277.3726 190.0161 277.7946 188.3431 276.6126 186.3431 275.3006 185.5591M289.3279 183.8125C287.0189 183.4495 285.3199 185.1425 284.8079 187.3535 284.0759 190.5135 283.0949 193.5815 281.9369 196.5945 279.8479 202.0325 288.1039 205.6365 289.8569 200.1585 291.0669 196.3795 292.0349 192.5215 292.7129 188.5945 293.0989 186.3605 291.4049 184.1395 289.3279 183.8125M285.0349 158.457C282.7819 157.561 280.5559 158.572 279.5049 160.795 278.9399 161.992 278.3749 163.189 277.8089 164.385 276.8099 166.5 278.0139 169.483 280.0919 170.31 282.3199 171.196 284.7059 170.227 285.7019 167.937 286.2289 166.724 286.7579 165.51 287.2849 164.297 288.2049 162.181 287.1289 159.29 285.0349 158.457M280.5701 137.9175C278.7911 136.5915 276.1471 136.7195 274.7991 138.6785 273.7441 140.2135 272.6871 141.7495 271.6321 143.2845 270.3491 145.1475 270.5081 148.0725 272.4001 149.4815 274.1701 150.8005 276.9601 150.7425 278.2781 148.7065 279.2931 147.1385 280.3081 145.5705 281.3241 144.0025 282.5331 142.1365 282.4631 139.3275 280.5701 137.9175M284.4783 120.4707C284.5003 120.4527 284.5233 120.4347 284.5443 120.4137 284.5263 120.4307 284.5093 120.4417 284.4913 120.4547 284.4873 120.4607 284.4823 120.4657 284.4783 120.4707"/>
      <path d="M285.824 113.7627C284.436 112.0157 281.802 111.3707 280.032 112.9307 278.22 114.5297 276.525 116.3127 275.209 118.3877 273.995 120.2987 274.037 123.1407 275.976 124.5857 277.814 125.9547 280.449 125.7817 281.854 123.8097 282.426 123.0087 283.026 122.2237 283.64 121.4587 283.911 121.1207 284.197 120.7987 284.478 120.4707 284.455 120.4887 284.432 120.5057 284.41 120.5177 284.435 120.5037 284.464 120.4757 284.491 120.4547 284.508 120.4357 284.524 120.4167 284.541 120.3967 284.83 120.0577 284.715 120.2577 284.545 120.4137 284.726 120.2547 284.93 119.9947 285.067 119.8617 286.644 118.3257 287.354 115.6877 285.824 113.7627M312.3572 129.4253C311.0752 128.1073 308.6002 127.5523 307.1642 129.0123 304.0912 132.1333 301.5472 136.2483 300.0772 140.4803 298.2422 145.7583 305.5192 149.0843 307.7442 143.9303 309.1572 140.6553 310.8142 137.8653 312.7202 134.9003 313.8192 133.1893 313.8242 130.9323 312.3572 129.4253M302.2791 161.3291C300.3001 165.9361 298.8451 170.7351 297.8201 175.6781 296.6481 181.3221 305.3171 182.7441 306.3001 177.0091 307.0291 172.7481 308.1671 168.6831 309.7211 164.6781 311.6891 159.6061 304.4191 156.3471 302.2791 161.3291M318.7459 178.5005C316.8859 177.9785 314.5859 178.8625 313.8989 180.9135 312.8379 184.0835 311.3919 187.4125 310.9119 190.7505 310.1809 195.8505 316.8819 197.5465 318.9229 193.1395 320.3169 190.1295 320.8729 186.4725 321.7049 183.2415 322.2309 181.2035 320.5099 178.9955 318.7459 178.5005M336.5437 188.5899C334.4387 187.7519 331.9887 188.6379 331.0947 190.8949 330.1887 193.1799 329.5947 195.6299 329.4287 198.1059 329.2707 200.4809 330.6587 203.0189 333.0987 203.2899 335.1857 203.5219 337.9637 201.9979 337.9987 199.4509 338.0127 198.4639 338.0797 197.4829 338.2337 196.5089 338.3007 196.0939 338.3847 195.6839 338.4727 195.2729 338.5917 194.7729 338.6017 194.7299 338.5037 195.1439 338.5837 194.8759 338.6697 194.6099 338.7617 194.3449 339.4837 192.1879 338.7367 189.4629 336.5437 188.5899M344.6824 210.105C344.0784 209.274 343.0054 208.551 342.0034 208.44 339.8474 208.201 338.3004 216.797 338.0514 219.204 337.9744 219.953 337.8964 220.703 337.8194 221.453 337.5834 223.73 339.0594 226.182 341.3464 226.436 343.4484 226.669 345.9044 225.188 346.0564 222.746 346.1044 221.992 345.4454 214.123 345.4934 213.369 345.5664 212.192 345.3844 211.072 344.6824 210.105M352.0994 191.2559C350.0944 190.9399 347.9274 192.4899 347.7184 194.6889 347.4504 197.5019 347.3674 200.3229 347.4064 203.1519 347.4374 205.4949 349.9304 207.2219 351.9754 206.9779 354.2494 206.7059 355.7674 204.5269 355.5804 202.1839 355.4134 200.0899 355.3204 197.9909 355.3814 195.8919 355.4454 193.6929 354.3294 191.6069 352.0994 191.2559M374.8396 196.3692C374.6806 194.1142 372.4066 192.2042 370.2866 192.5582 367.9436 192.9492 366.6136 194.9122 366.6946 197.3342 366.7596 199.2592 366.8236 201.1832 366.8886 203.1082 366.9666 205.4292 369.4446 207.3712 371.5596 207.0182 373.8916 206.6292 375.4196 204.5962 375.2446 202.1182 375.1106 200.2022 374.9746 198.2862 374.8396 196.3692M395.1072 193.5484C394.5762 191.5114 392.0712 190.5144 390.3152 191.0124 388.3362 191.5734 387.0872 193.4464 387.2672 195.6294 387.5302 198.8354 387.8092 202.0384 388.6092 205.1544 389.1792 207.3764 391.9242 208.4584 393.8312 207.9184 395.9812 207.3084 397.3572 205.2634 397.1532 202.8864 396.8832 199.7574 395.8952 196.5694 395.1072 193.5484M347.4334 173.7681C345.3654 172.8371 342.5844 173.8481 341.7844 176.1581 340.6014 179.5661 339.6884 183.8271 340.2494 187.4751 341.0004 192.3411 347.4974 192.4781 348.3804 187.6291 348.8644 184.9751 349.0034 182.3551 349.7324 179.7351 350.3854 177.3851 349.7524 174.8121 347.4334 173.7681M364.3592 169.3374C362.2282 169.0024 359.6582 170.6874 359.5272 173.1224 359.3942 175.5984 359.2612 178.0744 359.1292 180.5514 359.0032 182.8954 360.2902 185.1294 362.6302 185.4984 364.7612 185.8334 367.0912 184.1824 367.3052 181.8354 367.5292 179.3734 367.7532 176.9114 367.9772 174.4484 368.1962 172.0334 366.7142 169.7084 364.3592 169.3374M384.324 171.3721C381.974 171.0021 379.658 172.7891 379.337 175.2781 378.908 178.6001 378.664 181.9461 378.369 185.2841 377.851 191.1671 386.371 192.5611 387.03 186.6441 387.401 183.3151 387.822 179.9921 388.058 176.6481 388.235 174.1501 386.79 171.7601 384.324 171.3721M406.2527 175.1436C406.0747 172.7546 403.6827 170.7286 401.4297 171.1046 398.9387 171.5206 397.5477 173.5986 397.6237 176.1656 397.6927 178.5186 397.8537 180.8546 398.0507 183.1996 398.2477 185.5526 400.5697 187.5546 402.8067 187.1816 405.2807 186.7686 406.6097 184.7246 406.5587 182.1916 406.5107 179.8356 406.4287 177.4936 406.2527 175.1436M334.6648 163.582C332.3568 162.664 330.2248 163.725 329.1148 165.929 328.0338 168.075 327.1168 170.317 326.1488 172.523 325.2288 174.62 326.3098 177.495 328.3838 178.321 330.6258 179.213 332.8228 178.204 333.8728 175.999 334.9078 173.826 336.0028 171.673 336.9228 169.443 337.8058 167.302 336.7948 164.43 334.6648 163.582M325.6189 142.3804C323.4169 141.3894 321.3029 142.5964 320.2489 144.6514 318.5079 148.0464 317.4939 151.7684 316.6119 155.5024 315.5619 159.9404 322.5189 162.0024 323.9509 157.6914 325.0479 154.3884 326.4719 151.2504 327.8039 148.0504 328.6909 145.9194 327.6399 143.2894 325.6189 142.3804M349.4939 153.2197C347.2069 152.3097 344.5059 153.2657 343.5439 155.7357 342.8199 157.5947 342.2159 159.4937 341.6039 161.3967 340.8849 163.6347 341.6099 166.4327 343.8939 167.3427 346.1709 168.2477 348.4759 167.2357 349.5239 164.9607 350.3559 163.1567 351.1909 161.3607 351.9139 159.5037 352.8149 157.1887 351.8089 154.1407 349.4939 153.2197"/>
    </g>
    <rect width="1571" height="850"/>
  </g>
</svg>
