<svg xmlns="http://www.w3.org/2000/svg" width="1773" height="795" viewBox="0 0 1773 795">
  <g fill="#F3F3F3" fill-opacity=".3" fill-rule="evenodd">
    <g transform="rotate(-180 886.5 209.5)">
      <path d="M49.5687 35.0701C50.7487 33.3941 50.7117 30.6721 48.9767 29.3071 47.0557 27.7931 40.7957 22.6281 38.7607 21.2631 37.8017 20.6201 36.1337 20.5891 35.0757 20.9051 33.9057 21.2531 32.6557 22.2081 32.1277 23.3321 30.9547 25.8241 31.8127 28.5861 34.1937 29.9691 35.9577 30.9941 42.1087 35.5701 43.9447 36.4581 45.9327 37.4161 48.2867 36.8931 49.5687 35.0701M58.347 60.6907C59.421 58.6417 58.567 56.1377 56.584 55.0327 55.326 54.3327 54.063 53.6367 52.808 52.9287 51.749 52.3327 50.36 51.6807 49.719 50.9487 47.688 48.6197 43.677 49.7627 42.385 52.2237 41.078 54.7167 42.441 58.5847 45.487 58.9807 45.344 58.6997 45.491 58.7307 45.924 59.0727 46.251 59.2247 46.576 59.3777 46.904 59.5307 47.558 59.8377 48.204 60.1477 48.849 60.4747 50.131 61.1287 51.41 61.7947 52.691 62.4547 54.701 63.4887 57.29 62.7057 58.347 60.6907M65.1898 80.1038C60.9418 79.0158 57.5378 76.2028 53.4748 74.7828 48.0778 72.8968 44.1758 81.0148 48.3598 84.4898 52.2988 87.7598 58.0978 88.6978 63.0108 89.5488 69.1328 90.6108 71.2758 81.6618 65.1898 80.1038M72.4339 111.5169C73.0909 109.5159 72.1839 107.6659 70.6389 106.4079 68.6849 104.8149 66.2389 103.7979 64.0009 102.6639 61.5269 101.4079 59.0579 100.0549 56.4519 99.0939 53.5519 98.0239 50.1649 99.8859 49.2269 102.7479 48.1749 105.9559 50.0589 108.6799 52.8799 109.9729 55.2189 111.0449 57.7129 111.7519 60.1569 112.5439 62.7029 113.3709 65.2649 114.3009 67.9449 114.5649 69.8919 114.7579 71.8379 113.3369 72.4339 111.5169M35.6263 45.2957C36.5303 43.5707 36.2683 40.9297 34.6483 39.6757 32.9063 38.3247 30.9563 37.3137 29.0843 36.1587 27.4703 35.1607 26.0603 33.6977 24.0923 32.7947 21.5703 31.6367 18.6613 32.2157 17.0263 34.5377 15.5163 36.6867 15.6353 40.0037 17.7703 41.7777 19.6053 43.3037 21.8593 44.1577 24.0033 45.1657 26.0513 46.1297 28.2093 47.2107 30.4323 47.6797 32.4643 48.1087 34.6493 47.1567 35.6263 45.2957M36.0589 63.5593C36.7519 61.6003 36.0839 58.7493 33.9219 57.9073 32.1439 57.2133 30.4419 56.4383 28.8649 55.3493 27.6489 54.5103 25.8139 52.8573 24.3079 51.8283 21.8929 50.1773 17.9629 51.6673 16.7859 54.1733 15.3779 57.1633 16.5449 59.9313 19.1289 61.6983 20.7619 62.8133 22.7539 63.4313 24.5859 64.1463 26.6369 64.9463 28.6759 65.7193 30.7539 66.4513 32.8819 67.2033 35.3709 65.5083 36.0589 63.5593M42.8001 85.991C43.5261 83.938 42.8281 80.951 40.5631 80.069 38.8401 79.398 37.2431 78.623 35.7081 77.594 35.6051 77.523 35.4551 77.419 35.3981 77.376 35.0321 77.103 34.6731 76.827 34.3171 76.541 33.2901 75.718 32.3511 74.88 31.2071 74.195 28.8671 72.79 25.6921 73.811 24.2091 75.922 22.6521 78.136 22.9191 81.22 24.9451 83.096 26.6081 84.636 28.8631 85.666 30.9321 86.559 33.1641 87.522 34.7921 88.154 37.2421 89.02 39.4731 89.81 42.0801 88.031 42.8001 85.991M46.7503 116.7898C48.0583 114.2968 46.9523 111.5308 44.6763 110.1308 40.6033 107.6248 36.8263 104.5028 32.6473 102.1998 30.0043 100.7438 26.4803 101.9168 25.1013 104.5518 23.5983 107.4178 24.9033 110.4628 27.4513 112.0988 31.4493 114.6648 35.9703 116.4878 40.0933 118.8658 42.3973 120.1948 45.5483 119.0818 46.7503 116.7898M25.6956 5.9529C21.4836 3.8279 16.5356 1.8889 11.8136.8989L11.1366.5329C8.9236-.6681 5.7346.2269 4.6376 2.5589 3.6056 4.7559 4.1826 8.0109 6.6636 9.0579L11.7756 11.2149C11.7796 11.2159 11.7846 11.2189 11.7886 11.2209 12.8966 11.6859 14.0136 12.1329 15.0596 12.7249 16.8866 13.7569 18.7136 14.7819 20.5166 15.8239 26.7146 19.4009 32.1326 9.2019 25.6956 5.9529M21.3099 120.198C17.8789 117.407 14.1389 114.995 9.8669 113.755 7.5479 113.083 4.9819 114.662 4.2099 116.839 3.4609 118.963 4.2009 121.918 6.4899 122.865 9.8209 124.245 12.9459 125.388 16.2019 127.458 20.4549 130.161 25.2449 123.398 21.3099 120.198M72.5873 41.3889C68.9323 40.5109 65.3753 39.7469 61.8993 38.2809 59.6103 37.3129 56.9003 37.8849 55.6763 40.2209 54.5793 42.3109 55.3243 45.4409 57.6143 46.4469 61.7153 48.2489 65.9783 50.0819 70.3393 51.1299 76.6043 52.6359 78.8493 42.8949 72.5873 41.3889M106.016 63.1248C101.039 60.6658 95.141 59.0048 89.582 58.7738 85.709 58.6128 84.02 64.9718 87.825 66.3868 92.459 68.1078 96.929 69.7978 101.416 71.8898 107.155 74.5648 111.763 65.9648 106.016 63.1248M85.4486 74.5349C86.0786 71.8109 84.3216 69.6319 81.8686 68.8039 78.0426 67.5089 74.2976 66.1649 70.6566 64.4049 65.3516 61.8409 61.0806 69.8679 66.3866 72.5429 70.6926 74.7109 75.1086 76.6869 79.7186 78.1169 82.1846 78.8819 84.8986 76.9189 85.4486 74.5349M103.5277 94.159C99.4647 92.072 95.4147 89.968 91.3857 87.816 85.9007 84.887 81.4367 93.376 86.8957 96.371 90.9027 98.569 94.8807 100.812 98.8507 103.073 104.4677 106.273 109.3167 97.134 103.5277 94.159M98.2425 111.2444C93.8885 108.6604 89.2085 106.6174 84.6525 104.4154 79.0755 101.7204 74.7845 109.8604 80.1795 112.9404 84.5735 115.4494 88.9085 118.1514 93.5055 120.2774 99.4635 123.0354 103.9065 114.6054 98.2425 111.2444M92.597 140.1277C93.746 137.6847 92.995 134.5837 90.472 133.3087 89.068 132.5987 87.664 131.8887 86.26 131.1807 83.905 129.9887 77.738 129.2097 76.566 131.7027 75.416 134.1467 75.745 136.8327 81.567 140.1237 82.937 140.8987 84.376 141.5437 85.78 142.2527 88.135 143.4427 91.425 142.6217 92.597 140.1277M69.6009 137.4627C70.6699 135.1897 70.0129 132.1077 67.5769 130.9627 65.9529 130.1997 64.3429 129.4077 62.7059 128.6747 57.2239 126.2207 53.9099 126.7137 52.7719 129.1397 51.7019 131.4127 53.7729 135.4207 58.2329 137.2017 59.8969 137.8647 61.4789 138.7267 63.1029 139.4887 65.3779 140.5577 68.4609 139.8877 69.6009 137.4627M50.8734 142.6951C46.1234 141.2461 41.3234 140.0101 36.6044 138.4521 34.0054 137.5941 31.1064 139.7551 30.5314 142.2491 29.8654 145.1321 31.7244 147.4501 34.3264 148.3251 39.0194 149.9031 43.7724 151.4371 48.6404 152.3711 54.9694 153.5851 56.9584 144.5511 50.8734 142.6951M33.0423 164.8421C28.2933 163.3931 23.4933 162.1571 18.7743 160.5991 16.1753 159.7411 13.2763 161.9021 12.7013 164.3951 12.0353 167.2791 13.8943 169.5971 16.4963 170.4721 21.1883 172.0501 25.9423 173.5841 30.8103 174.5171 37.1393 175.7321 39.1283 166.6981 33.0423 164.8421M90.5834 164.9383C91.2254 162.1623 89.4274 159.5453 86.7624 158.8213 83.8064 158.0173 80.8414 157.2503 77.8714 156.4953 75.2644 155.8303 72.2154 157.6563 71.7154 160.3423 71.1934 163.1413 72.7844 165.7723 75.5624 166.4993 78.5264 167.2723 81.4924 168.0343 84.4694 168.7613 87.1444 169.4133 89.9684 167.6003 90.5834 164.9383M114.8939 165.8758C115.9859 162.9318 114.2069 160.3768 111.4419 159.4138 110.8999 159.2258 110.5899 159.0988 109.8299 158.7628 109.0819 158.4358 108.3459 158.0878 107.6189 157.7198 106.1649 156.9848 104.7599 156.1638 103.3889 155.2838 101.2409 153.9048 98.1169 155.1528 97.0049 157.2738 95.7079 159.7478 96.8739 162.2178 98.9949 163.6598 101.8519 165.6048 104.8829 167.1788 108.0649 168.5238 110.7499 169.6598 113.8139 168.7938 114.8939 165.8758M119.2875 137.6092C117.1605 136.3532 114.8105 135.4632 112.5315 134.5182 110.1855 133.5472 107.7665 132.4822 105.2865 131.9212 103.3225 131.4762 101.2565 132.5872 100.5855 134.4842 99.8595 136.5422 100.7555 138.3102 102.4805 139.4942 104.3925 140.8082 106.5545 141.8062 108.6075 142.8812 110.6735 143.9632 112.6915 145.1762 114.8455 146.0762 120.4695 148.4232 124.6615 140.7792 119.2875 137.6092M129.14 125.531C130.453 123.027 129.276 120.51 127.121 119.053 123.329 116.486 118.941 114.592 114.893 112.448 109.626 109.658 105.499 117.62 110.607 120.614 114.56 122.931 118.483 125.672 122.664 127.55 125.025 128.608 127.884 127.925 129.14 125.531M140.5326 105.8714C141.5056 103.8034 140.9176 100.9484 138.6786 99.9174 137.6336 99.4374 136.5816 98.9744 135.5286 98.5134 135.1046 97.8604 134.5216 97.2884 133.7996 96.8254 132.9726 96.2944 132.0006 96.0574 131.0706 95.7614 130.7386 95.6554 130.4056 95.5434 130.0766 95.4254 129.9686 95.3794 129.5676 95.2204 129.4526 95.1724 128.0276 94.5804 126.6176 93.9214 125.2456 93.2124 121.0976 91.0684 116.5866 96.9684 120.4076 100.0894 123.0216 102.2264 126.2436 104.4674 129.6346 105.3574 131.2726 106.1644 132.9176 106.9614 134.5796 107.7254 136.6726 108.6884 139.4836 108.1044 140.5326 105.8714M159.4037 124.7034C160.4457 122.7164 159.6797 120.0154 157.6277 119.0014 154.3827 117.3974 151.0247 116.0834 147.7417 114.5714 145.1137 113.3624 142.0257 114.3774 140.9817 117.1924 140.0077 119.8204 141.5257 123.0094 144.3987 123.5874 147.5767 124.2264 150.6797 125.3184 153.7037 126.4814 155.8267 127.2984 158.2577 126.8894 159.4037 124.7034M156.5277 141.4656C152.9067 139.8946 149.4687 137.8046 145.8207 136.3356 143.2257 135.2916 140.2137 135.8606 138.8207 138.5166 137.4737 141.0836 138.5697 144.1116 141.0027 145.5186 144.7147 147.6636 149.2397 148.8736 153.3377 150.0736 158.3187 151.5316 161.3787 143.5686 156.5277 141.4656M145.4935 159.0359C142.1225 157.2679 138.1335 155.2809 134.4025 154.4889 128.7355 153.2859 125.6445 161.2579 130.8605 164.0379 134.2395 165.8389 138.5505 166.8889 142.2795 167.7059 147.4135 168.8329 150.2425 161.5259 145.4935 159.0359M137.8021 184.8933C138.3821 182.3793 136.7541 179.9643 134.3221 179.3233 131.5411 178.5893 128.7611 177.7113 125.9161 177.2763 123.3681 176.8883 120.5161 178.2183 120.0021 180.9733 119.5011 183.6713 121.0321 186.1793 123.6981 186.8873 126.4831 187.6273 129.3881 187.9343 132.2331 188.3733 134.7091 188.7563 137.2091 187.4623 137.8021 184.8933M111.7757 185.5711C107.4367 183.8471 102.9287 181.1581 98.3317 180.2981 92.5417 179.2151 89.1097 187.3541 94.6637 190.1931 98.8757 192.3461 104.0067 193.0061 108.5387 194.3041 113.5727 195.7461 116.7807 187.5591 111.7757 185.5711M146.6537 206.1887C144.6787 204.9527 142.1607 204.3137 140.0187 203.3727 137.8227 202.4087 135.6927 201.3237 133.6117 200.1337 129.6207 197.8517 125.2267 203.8537 128.9077 206.8187 131.0647 208.5607 133.3167 210.1957 135.6557 211.6867 137.9617 213.1587 140.5507 214.7967 143.2537 215.3597 148.9097 216.5437 151.3237 209.1117 146.6537 206.1887M167.5033 196.3396C163.5493 194.4156 159.4973 192.8736 155.6753 190.6546 153.3893 189.3276 150.2543 190.4446 149.0633 192.7156 147.7643 195.1926 148.8633 197.9376 151.1223 199.3296 155.1593 201.8166 159.5203 204.2276 164.1133 205.4816 169.4773 206.9426 172.5323 198.7876 167.5033 196.3396M168.9486 177.5921C165.3446 175.8731 161.6576 174.7501 158.2416 172.6061 156.2086 171.3311 153.2966 172.4671 152.2436 174.4751 151.0386 176.7731 152.1006 179.1501 154.1116 180.4741 157.6996 182.8351 161.4696 185.3411 165.6296 186.5451 170.8606 188.0611 173.8796 179.9451 168.9486 177.5921M182.7191 164.426C178.8961 162.59 174.9121 161.253 171.1791 159.19 167.1561 156.967 162.5421 163.088 166.4171 165.959 170.4161 168.922 174.6411 171.803 179.4351 173.285 184.6041 174.882 187.5701 166.754 182.7191 164.426M181.555 151.8792C183.36 149.3162 182.266 146.4662 179.877 144.8202 175.719 141.9552 171.422 139.3122 166.992 136.8872 162.061 134.1902 158.391 141.5592 162.989 144.5172 166.917 147.0452 170.694 149.7672 174.344 152.6832 176.605 154.4882 179.797 154.3742 181.555 151.8792M197.3958 194.7522C195.7048 193.2042 193.6978 191.9292 191.8518 190.5682 189.8528 189.0942 187.8598 187.4142 185.6628 186.2542 180.7468 183.6602 175.4788 190.6752 179.9378 194.3902 181.8598 195.9922 184.1178 197.2302 186.2518 198.5242 188.2198 199.7152 190.1668 201.0892 192.2488 202.0672 196.7698 204.1932 201.2848 198.3092 197.3958 194.7522M193.2982 218.4978C194.5062 216.1918 193.4482 213.7758 191.4152 212.4538 187.9542 210.2028 184.7802 207.3878 181.1552 205.4068 178.9862 204.2188 176.1302 204.9738 174.7602 206.9848 173.4992 208.8358 173.3662 212.0788 175.4312 213.5418 179.1532 216.1798 183.3502 218.0388 187.2552 220.3808 189.3262 221.6248 192.2212 220.5508 193.2982 218.4978M169.0345 228.2835C169.9585 225.7915 168.8415 223.4115 166.6715 222.0285 165.2555 221.1255 163.6695 220.5425 162.1315 219.8855 160.3885 219.1395 158.6655 218.1945 156.8285 217.7185 152.2205 216.5315 148.6415 222.9445 152.4285 226.0695 153.9725 227.3465 155.8165 228.2225 157.5875 229.1465 159.3765 230.0785 161.2045 230.9715 163.1665 231.4845 165.6205 232.1255 168.1855 230.5795 169.0345 228.2835M187.0599 244.9129C187.9529 242.5009 186.8449 240.4219 184.8749 239.0159 184.5849 238.8209 183.9009 238.3509 183.8009 238.2939 183.4519 238.0929 183.0829 237.9239 182.7259 237.7359 182.0129 237.3599 181.3079 236.9659 180.5999 236.5789 178.9709 235.6839 177.4299 234.6989 175.6609 234.1059 173.8089 233.4849 171.3319 234.7459 170.5229 236.4639 169.5929 238.4429 170.0469 240.4379 171.4879 242.0229 172.7079 243.3629 174.7079 244.4209 176.2559 245.3759 177.9539 246.4219 179.6029 247.2789 181.4829 247.9539 183.7399 248.7639 186.3099 246.9399 187.0599 244.9129"/>
      <path d="M184.8138 238.9695C184.8358 238.9845 184.8528 239.0015 184.8758 239.0165 185.0348 239.1265 185.0758 239.1525 184.8138 238.9695M177.933 264.4495C179.204 262.0265 178.152 259.2475 175.894 257.9035 172.656 255.9765 169.37 253.9685 165.947 252.3845 163.401 251.2075 160.274 251.9965 158.923 254.5745 157.579 257.1365 158.662 260.2035 161.113 261.5975 164.391 263.4645 167.937 264.9715 171.39 266.4895 173.784 267.5415 176.659 266.8825 177.933 264.4495M170.6283 288.0696C171.8773 285.6876 170.7653 283.2696 168.7033 281.8876 165.0703 279.4516 161.7463 276.6406 158.2443 274.0276 156.0403 272.3816 153.0403 272.1556 151.0373 274.3326 149.2423 276.2836 149.2153 279.7726 151.3423 281.5406 155.3303 284.8536 159.9003 287.5286 164.4483 289.9956 166.6193 291.1726 169.4913 290.2366 170.6283 288.0696M148.5247 243.6467C149.6557 241.2427 148.8247 238.5967 146.5357 237.2597 143.7187 235.6157 140.9407 233.7777 137.9977 232.3697 135.7457 231.2907 132.6717 231.9847 131.5457 234.3787 130.3527 236.9137 131.3157 239.3567 133.5547 240.8337 136.2787 242.6327 139.2807 244.0667 142.1397 245.6367 144.3117 246.8277 147.4527 245.9277 148.5247 243.6467M142.4652 263.5564C142.9632 261.4004 141.8412 259.4894 140.0732 258.3424 138.4642 257.2974 136.4682 256.6894 134.6912 255.9694 132.7242 255.1714 130.6792 254.0284 128.5902 253.6424 126.1112 253.1854 123.5822 254.4034 122.7222 256.8434 121.8292 259.3674 122.8992 261.6784 125.0852 263.0984 126.9172 264.2874 129.4262 264.8564 131.5002 265.5724 133.6582 266.3154 135.7542 266.9744 138.0302 267.1934 140.0672 267.3914 142.0392 265.4024 142.4652 263.5564M124.9398 306.9715C125.4368 304.8155 124.3158 302.9045 122.5478 301.7575 120.9388 300.7115 118.9428 300.1035 117.1658 299.3835 115.1978 298.5855 113.1528 297.4435 111.0648 297.0575 108.5858 296.6005 106.0558 297.8185 105.1958 300.2585 104.3028 302.7825 105.3728 305.0935 107.5588 306.5135 109.3918 307.7025 111.9008 308.2715 113.9748 308.9875 116.1318 309.7305 118.2288 310.3885 120.5048 310.6085 122.5408 310.8055 124.5138 308.8175 124.9398 306.9715M122.0687 331.8865C122.5657 329.7305 121.4447 327.8195 119.6757 326.6725 118.0677 325.6265 116.0717 325.0185 114.2947 324.2985 112.3267 323.5005 110.2817 322.3585 108.1937 321.9725 105.7147 321.5155 103.1847 322.7335 102.3247 325.1735 101.4317 327.6975 102.5017 330.0085 104.6877 331.4285 106.5197 332.6175 109.0297 333.1865 111.1037 333.9025 113.2607 334.6455 115.3577 335.3035 117.6327 335.5235 119.6697 335.7205 121.6427 333.7325 122.0687 331.8865M148.5062 319.8015C149.0032 317.6455 147.8822 315.7345 146.1142 314.5875 144.5052 313.5425 142.5092 312.9345 140.7322 312.2145 138.7642 311.4155 136.7202 310.2735 134.6312 309.8875 132.1522 309.4305 129.6232 310.6485 128.7622 313.0885 127.8702 315.6125 128.9392 317.9235 131.1262 319.3435 132.9582 320.5325 135.4672 321.1015 137.5412 321.8175 139.6992 322.5605 141.7952 323.2195 144.0712 323.4385 146.1072 323.6365 148.0802 321.6475 148.5062 319.8015M114.7367 353.5164C113.1277 352.4714 111.1317 351.8634 109.3537 351.1424 107.3867 350.3444 105.3417 349.2024 103.2537 348.8164 100.7747 348.3594 98.2457 349.5774 97.3847 352.0174 96.4927 354.5404 97.5607 356.8514 99.7487 358.2724 101.5807 359.4614 104.0897 360.0304 106.1637 360.7464 108.3217 361.4894 110.4177 362.1484 112.6937 362.3674 114.7287 362.5654 116.7027 360.5764 117.1287 358.7304 117.6267 356.5744 116.5047 354.6634 114.7367 353.5164M157.0482 302.929C158.1842 300.763 157.1542 298.631 155.3142 297.362 152.0102 295.084 149.0442 292.283 145.3802 290.55 142.9412 289.396 139.9212 290.192 138.6302 292.654 137.3522 295.092 138.3612 298.096 140.7342 299.404 144.2202 301.328 148.1042 302.529 151.4832 304.663 153.3632 305.852 156.0752 304.788 157.0482 302.929M126.9652 276.1868C121.7332 274.0888 116.5362 271.8138 111.1632 270.0928 105.8122 268.3768 102.5592 277.0648 107.7282 279.3598 112.8802 281.6448 118.2882 283.3828 123.5882 285.2958 128.7632 287.1648 132.1332 278.2568 126.9652 276.1868M125.7308 219.4978C126.3338 216.8908 124.6498 214.6568 122.2378 213.9078 118.3008 212.6838 114.5008 211.0678 110.5958 209.7448 105.3238 207.9598 101.9928 216.7868 107.1828 218.9498 111.3938 220.7038 115.7418 221.8298 120.1418 222.9918 122.5758 223.6348 125.1768 221.8978 125.7308 219.4978M111.9134 232.9343C107.2234 230.4053 102.3684 227.8083 97.2814 226.1813 91.9344 224.4723 88.9464 232.8703 93.8914 235.3223 98.3284 237.5233 103.0014 239.2353 107.4404 241.4603 112.9724 244.2323 117.3874 235.8843 111.9134 232.9343M102.767 257.656C103.946 255.41 103.112 252.202 100.721 251.087 97.529 249.597 94.394 247.992 91.153 246.613 88.63 245.54 85.637 246.18 84.289 248.751 83.063 251.089 83.922 254.464 86.428 255.617 89.636 257.093 92.944 258.338 96.201 259.703 98.621 260.718 101.473 260.126 102.767 257.656M76.142 230.3465C73.842 228.6555 71.327 227.3035 68.971 225.6925 66.581 224.0555 64.352 222.1605 61.868 220.6725 56.817 217.6445 52.153 224.9525 56.104 228.8635 58.281 231.0165 61.112 232.7015 63.792 234.1655 66.443 235.6135 69.264 237.0645 72.197 237.8305 76.202 238.8765 79.748 232.9975 76.142 230.3465M83.7699 212.6619C81.6659 211.1399 79.5629 209.6199 77.4589 208.0999 76.4069 207.3389 75.3589 206.5729 74.3039 205.8179 73.6999 205.3829 73.0909 204.9529 72.4809 204.5269 71.3709 199.9909 64.3219 199.6139 63.0929 204.6139 61.9969 209.0889 65.4009 211.5929 68.7119 213.7619 71.9729 215.8969 75.2549 217.9959 78.5269 220.1139 82.8369 222.9049 88.0039 215.7229 83.7699 212.6619M91.3812 197.5535C87.9022 195.5745 84.4362 193.5855 80.8912 191.7265 75.5972 188.9545 71.2912 197.1235 76.5732 199.9535 80.1022 201.8445 83.6932 203.5965 87.2832 205.3625 92.3762 207.8675 96.3212 200.3655 91.3812 197.5535M70.7279 173.2112C66.2489 170.7782 60.5939 169.2102 55.5819 168.3532 49.2719 167.2742 47.0419 176.5192 53.3319 178.0952 58.0289 179.2722 62.8869 180.6892 67.6519 181.5052 72.5439 182.3422 75.3219 175.7072 70.7279 173.2112M119.6195 87.5393C120.5695 84.9723 119.3745 82.7403 117.2485 81.2643 115.5745 80.1023 113.4065 79.6553 111.4685 79.0903 109.5645 78.5353 107.6915 78.0253 105.6915 78.0213 102.1515 78.0123 100.5095 82.7133 103.0785 85.0313 104.5615 86.3693 106.3445 87.2663 108.0865 88.2073 109.9085 89.1933 111.6825 90.3053 113.7305 90.7493 116.2235 91.2903 118.7385 89.9193 119.6195 87.5393M54.1292 190.3235C50.6972 187.3675 46.0012 185.6505 41.9232 183.7825 39.7792 182.7995 37.1552 183.4515 36.0192 185.6235 34.9412 187.6765 35.7292 190.4855 37.8582 191.5315 39.7582 192.4645 41.5712 193.5015 43.3562 194.6415 45.1152 195.7645 46.7842 197.1855 48.6542 198.1035 53.3982 200.4335 58.3742 193.9795 54.1292 190.3235M43.3109 207.2551C44.5379 204.6441 43.5049 202.2861 41.2789 200.7321 39.0979 199.2111 36.4619 198.1441 34.1039 196.9111 31.9269 195.7741 28.8449 196.5891 27.7649 198.8871 26.6419 201.2761 27.4699 203.8971 29.7409 205.2281 32.0389 206.5741 34.3409 208.2451 36.7899 209.2881 39.1099 210.2751 42.1389 209.7481 43.3109 207.2551M22.8021 216.0896C23.4021 213.8836 22.3271 211.1746 19.9431 210.5486 18.8301 210.2576 17.7141 209.9836 16.5981 209.7126 16.0671 209.1436 15.3941 208.6816 14.6011 208.3506 13.6961 207.9706 12.6971 207.9066 11.7291 207.7766 11.3831 207.7306 11.0361 207.6776 10.6921 207.6186 10.5771 207.5916 10.1561 207.5046 10.0331 207.4786 8.5281 207.1426 7.0241 206.7376 5.5501 206.2776 1.0931 204.8866-2.3259 211.4806 1.9801 213.8906 4.9251 215.5406 8.4881 217.1886 11.9821 217.4766 13.7351 217.9866 15.4921 218.4856 17.2631 218.9496 19.4891 219.5346 22.1571 218.4706 22.8021 216.0896M44.6576 231.3587C45.3386 229.2217 44.1156 226.6937 41.9186 226.0517 38.4446 225.0367 34.9086 224.3247 31.4126 223.4057 28.6146 222.6717 25.7506 224.2077 25.2116 227.1607 24.7086 229.9177 26.7576 232.7957 29.6866 232.8647 32.9286 232.9437 36.1736 233.4797 39.3526 234.0997 41.5856 234.5357 43.9076 233.7117 44.6576 231.3587M44.7357 248.366C40.8967 247.448 37.1487 245.986 33.2997 245.173 30.5647 244.595 27.6957 245.678 26.7857 248.536 25.9057 251.299 27.5097 254.091 30.1497 255.053 34.1777 256.521 38.8447 256.927 43.0887 257.397 48.2487 257.969 49.8787 249.595 44.7357 248.366M36.9212 267.5852C33.2932 266.4302 29.0202 265.1662 25.2082 265.0332 19.4192 264.8322 17.7592 273.2202 23.3782 275.0522 27.0192 276.2392 31.4462 276.5242 35.2612 276.6822 40.5122 276.8992 42.0292 269.2122 36.9212 267.5852M33.8363 294.3855C33.9703 291.8095 31.9483 289.7135 29.4413 289.5045 26.5753 289.2635 23.6853 288.8825 20.8083 288.9485 18.2323 289.0085 15.6533 290.8135 15.6253 293.6155 15.6023 296.3595 17.5443 298.5635 20.2913 298.7985 23.1633 299.0445 26.0773 298.8405 28.9553 298.7795 31.4613 298.7265 33.6973 297.0195 33.8363 294.3855M46.2503 313.8201C44.0923 312.9451 41.5003 312.7541 39.2283 312.1991 36.8973 311.6311 34.6113 310.9331 32.3553 310.1231 28.0283 308.5681 24.7443 315.2411 28.8843 317.5231 31.3113 318.8631 33.8123 320.0821 36.3743 321.1451 38.9013 322.1941 41.7353 323.3571 44.4943 323.4431 50.2713 323.6271 51.3573 315.8881 46.2503 313.8201M65.0736 300.5003C60.8456 299.2923 56.5876 298.4773 52.4386 296.9563 49.9566 296.0453 47.0626 297.6893 46.2846 300.1343 45.4346 302.7983 46.9946 305.3113 49.4616 306.2903 53.8686 308.0373 58.5816 309.6543 63.3236 310.0913 68.8586 310.5993 70.4516 302.0383 65.0736 300.5003M63.2406 281.7869C59.3926 280.7199 55.5676 280.2539 51.8306 278.7359 49.6076 277.8329 46.9366 279.4579 46.2486 281.6179 45.4616 284.0899 46.9206 286.2459 49.1316 287.2019 53.0736 288.9039 57.2206 290.7169 61.5266 291.1799 66.9426 291.7649 68.5066 283.2469 63.2406 281.7869M74.516 266.4295C70.432 265.2845 66.278 264.6595 62.243 263.2775 57.895 261.7865 54.413 268.6155 58.729 270.7695 63.181 272.9935 67.842 275.0965 72.821 275.7245 78.188 276.3995 79.698 267.8805 74.516 266.4295M71.1918 254.2752C72.5238 251.4382 70.9518 248.8212 68.3138 247.6142 63.7198 245.5152 59.0308 243.6582 54.2468 242.0402 48.9218 240.2392 46.5868 248.1352 51.6288 250.2502 55.9368 252.0562 60.1288 254.0812 64.2298 256.3182 66.7698 257.7042 69.8938 257.0372 71.1918 254.2752M94.2045 293.513C92.2695 292.283 90.0725 291.376 88.0185 290.356 85.7945 289.251 83.5395 287.943 81.1745 287.182 75.8825 285.481 71.9125 293.304 76.9495 296.188 79.1205 297.433 81.5585 298.259 83.8855 299.163 86.0305 299.994 88.1865 301.009 90.4055 301.612 95.2265 302.92 98.6515 296.341 94.2045 293.513M102.4369 280.2381C100.5019 279.0081 98.3059 278.1011 96.2509 277.0811 94.0269 275.9761 91.7719 274.6681 89.4069 273.9071 84.1149 272.2061 80.1459 280.0291 85.1819 282.9131 87.3529 284.1581 89.7909 284.9841 92.1189 285.8881 94.2629 286.7191 96.4189 287.7341 98.6379 288.3371 103.4589 289.6451 106.8839 283.0661 102.4369 280.2381M94.3246 317.8425C95.1136 315.3625 93.6526 313.1665 91.4206 312.2175 87.6216 310.6005 84.0076 308.3805 80.0936 307.0585 77.7506 306.2655 75.0686 307.5055 74.0686 309.7235 73.1486 311.7655 73.5806 314.9825 75.8686 316.0655 79.9926 318.0155 84.4466 319.1175 88.7006 320.7465 90.9566 321.6115 93.6196 320.0515 94.3246 317.8425M72.1293 331.6931C72.6053 329.0781 71.0923 326.9281 68.7153 325.9431 67.1633 325.3001 65.5003 325.0021 63.8713 324.6211 62.0243 324.1901 60.1653 323.5581 58.2733 323.4081 53.5283 323.0391 51.1183 329.9761 55.3903 332.3961 57.1333 333.3851 59.1013 333.9281 61.0043 334.5301 62.9293 335.1381 64.8843 335.6991 66.9043 335.8641 69.4333 336.0691 71.6923 334.1011 72.1293 331.6931M92.7679 344.9397C93.2279 342.4097 91.7769 340.5547 89.5919 339.5117 89.2729 339.3707 88.5169 339.0267 88.4089 338.9877 88.0309 338.8507 87.6379 338.7467 87.2529 338.6237 86.4859 338.3777 85.7229 338.1117 84.9579 337.8537 83.1999 337.2557 81.5099 336.5537 79.6649 336.2757 77.7339 335.9857 75.5129 337.6587 75.0149 339.4907 74.4429 341.6007 75.2359 343.4877 76.9309 344.7977 78.3659 345.9057 80.5189 346.5997 82.2079 347.2717 84.0619 348.0067 85.8339 348.5647 87.8039 348.9027 90.1669 349.3087 92.3809 347.0657 92.7679 344.9397"/>
      <path d="M89.5228 339.4763C89.5488 339.4873 89.5678 339.5003 89.5918 339.5123 89.7688 339.5923 89.8138 339.6113 89.5228 339.4763M87.1722 365.7644C88.0022 363.1574 86.4842 360.6034 84.0262 359.6724 80.5032 358.3374 76.9202 356.9294 73.2732 355.9644 70.5612 355.2474 67.6182 356.5674 66.7362 359.3404 65.8582 362.0964 67.4562 364.9294 70.1112 365.8764 73.6642 367.1464 77.4182 368.0144 81.0822 368.9094 83.6222 369.5294 86.3392 368.3814 87.1722 365.7644M84.0804 390.2942C84.8964 387.7312 83.3804 385.5432 81.1104 384.5402 77.1104 382.7722 73.3484 380.5812 69.4454 378.6152 66.9894 377.3782 63.9954 377.6762 62.4014 380.1672 60.9724 382.4002 61.5514 385.8412 63.9534 387.2122 68.4554 389.7842 73.4214 391.6242 78.3284 393.2642 80.6714 394.0462 83.3364 392.6252 84.0804 390.2942M54.598 350.3845C55.294 347.8205 54.017 345.3585 51.53 344.4395 48.471 343.3095 45.415 341.9825 42.273 341.1065 39.867 340.4355 36.961 341.6535 36.268 344.2065 35.534 346.9085 36.907 349.1475 39.368 350.2145 42.362 351.5115 45.568 352.4035 48.657 353.4525 51.001 354.2485 53.938 352.8175 54.598 350.3845M52.2044 371.0515C52.3194 368.8425 50.8834 367.1555 48.9434 366.3325 47.1774 365.5815 45.1054 365.3295 43.2294 364.9295 41.1544 364.4855 38.9424 363.7155 36.8184 363.6975 34.2984 363.6785 32.0184 365.3165 31.5954 367.8685 31.1534 370.5095 32.6084 372.5995 35.0084 373.6185 37.0184 374.4715 39.5894 374.5965 41.7564 374.9415 44.0104 375.2985 46.1884 375.5825 48.4684 375.4035 50.5074 375.2445 52.1054 372.9435 52.2044 371.0515M73.0257 407.405C73.7677 405.075 72.3837 403.153 70.3497 402.224 66.7007 400.553 63.2947 398.31 59.3837 397.24 56.7827 396.528 53.9467 397.835 53.1027 400.484 52.2667 403.107 53.7827 405.89 56.3457 406.766 60.1137 408.056 64.1467 408.564 67.8447 410.079 69.9047 410.924 72.3887 409.405 73.0257 407.405M39.8792 415.8606C40.6222 413.5306 39.2372 411.6086 37.2042 410.6786 33.5552 409.0086 30.1492 406.7656 26.2382 405.6956 23.6372 404.9836 20.8012 406.2906 19.9572 408.9396 19.1212 411.5626 20.6372 414.3456 23.2002 415.2216 26.9682 416.5116 31.0012 417.0196 34.6992 418.5346 36.7582 419.3796 39.2432 417.8606 39.8792 415.8606M39.0169 386.1736C33.4989 385.0166 27.9869 383.6786 22.3969 382.9166 16.8289 382.1556 15.1329 391.2766 20.6219 392.6386 26.0939 393.9946 31.7209 394.7676 37.2729 395.7306 42.6939 396.6736 44.4649 387.3156 39.0169 386.1736M27.9574 330.5608C28.0984 327.8878 26.0524 325.9808 23.5464 325.6618 19.4564 325.1398 15.4344 324.2088 11.3584 323.5838 5.8554 322.7418 4.1084 332.0128 9.5954 333.2408 14.0474 334.2378 18.5234 334.5908 23.0604 334.9718 25.5684 335.1828 27.8284 333.0198 27.9574 330.5608"/>
    </g>
    <g transform="translate(978 489)">
      <path d="M84.2538 144.3788C82.6538 143.3348 80.1188 143.4578 78.9038 145.1168 77.5568 146.9558 72.9478 152.9558 71.7428 154.8958 71.1748 155.8088 71.1988 157.3638 71.5288 158.3388 71.8918 159.4178 72.8208 160.5518 73.8858 161.0068 76.2458 162.0188 78.7908 161.1288 80.0028 158.8668 80.8998 157.1898 84.9628 151.3118 85.7308 149.5718 86.5588 147.6888 85.9938 145.5138 84.2538 144.3788M107.8378 135.3676C105.8948 134.4346 103.5888 135.3116 102.6238 137.1946 102.0128 138.3896 101.4048 139.5886 100.7868 140.7796 100.2668 141.7856 99.7028 143.1006 99.0428 143.7216 96.9388 145.6896 98.1348 149.3886 100.4688 150.5116 102.8348 151.6476 106.3938 150.2536 106.6628 147.4026 106.4058 147.5456 106.4298 147.4076 106.7338 146.9926 106.8658 146.6826 106.9978 146.3746 107.1308 146.0656 107.3948 145.4466 107.6618 144.8336 107.9458 144.2226 108.5138 143.0066 109.0928 141.7946 109.6648 140.5796 110.5638 138.6736 109.7498 136.2866 107.8378 135.3676M125.788 128.5292C124.913 132.5212 122.402 135.7832 121.212 139.6142 119.631 144.7032 127.32 148.0742 130.422 144.0632 133.34 140.2882 134.025 134.8552 134.658 130.2512 135.448 124.5142 127.041 122.8092 125.788 128.5292M204.9941 150.5292C204.1191 154.5212 201.6081 157.7832 200.4181 161.6142 198.8361 166.7032 206.5261 170.0742 209.6281 166.0632 212.5461 162.2882 213.2311 156.8552 213.8641 152.2512 214.6541 146.5142 206.2471 144.8092 204.9941 150.5292M154.7324 120.5922C152.8454 120.0452 151.1534 120.9502 150.0314 122.4312 148.6104 124.3022 147.7434 126.6142 146.7584 128.7362 145.6694 131.0822 144.4894 133.4252 143.6774 135.8842 142.7764 138.6202 144.6214 141.7142 147.3174 142.4952 150.3404 143.3712 152.8164 141.5272 153.9294 138.8572 154.8524 136.6432 155.4304 134.2982 156.0884 131.9952 156.7754 129.5962 157.5594 127.1792 157.7184 124.6752 157.8354 122.8542 156.4474 121.0882 154.7324 120.5922M94.2343 157.0336C92.5973 156.2476 90.1463 156.5776 89.0303 158.1266 87.8293 159.7936 86.9503 161.6436 85.9353 163.4246 85.0573 164.9616 83.7413 166.3226 82.9633 168.1836 81.9663 170.5706 82.6003 173.2626 84.8173 174.7086 86.8683 176.0466 89.9553 175.8276 91.5393 173.7816 92.9003 172.0226 93.6233 169.8936 94.4913 167.8646 95.3233 165.9256 96.2593 163.8806 96.6253 161.7946 96.9593 159.8876 96.0003 157.8826 94.2343 157.0336M111.2363 156.0366C109.3873 155.4546 106.7553 156.1696 106.0393 158.2106 105.4513 159.8906 104.7853 161.5006 103.8213 163.0046 103.0793 164.1646 101.5983 165.9286 100.6893 167.3646 99.2293 169.6676 100.7463 173.2796 103.1183 174.2956 105.9493 175.5096 108.4913 174.3306 110.0523 171.8676 111.0393 170.3096 111.5483 168.4336 112.1563 166.7046 112.8353 164.7676 113.4883 162.8426 114.1023 160.8836 114.7343 158.8766 113.0743 156.6146 111.2363 156.0366M131.915 149.0268C129.978 148.4178 127.219 149.1648 126.471 151.3038 125.901 152.9298 125.231 154.4428 124.322 155.9068 124.26 156.0048 124.168 156.1478 124.13 156.2028 123.888 156.5508 123.642 156.8958 123.388 157.2368 122.654 158.2198 121.903 159.1218 121.302 160.2098 120.069 162.4348 121.124 165.3598 123.14 166.6728 125.253 168.0508 128.117 167.7018 129.799 165.7538 131.179 164.1548 132.066 162.0198 132.831 160.0648 133.655 157.9528 134.19 156.4168 134.918 154.1058 135.582 152.0018 133.84 149.6308 131.915 149.0268M160.4804 144.3452C158.1154 143.2092 155.5744 144.3282 154.3444 146.4942 152.1424 150.3702 149.3564 153.9902 147.3464 157.9572 146.0764 160.4672 147.2844 163.7102 149.7834 164.9102 152.5014 166.2182 155.2964 164.9022 156.7384 162.4752 158.9994 158.6672 160.5494 154.3972 162.6304 150.4792 163.7944 148.2892 162.6544 145.3902 160.4804 144.3452M46.9052 194.3701C44.6652 193.2921 41.6552 194.2371 40.6212 196.5701 38.6752 200.9671 36.9682 205.7321 34.3442 209.7781 32.5022 212.6211 34.8402 216.5321 37.6362 217.4581 40.7672 218.4971 44.2292 216.5731 44.8672 213.2661 45.6952 208.9661 47.6082 204.7501 49.1072 200.6501 49.9772 198.2671 49.3562 195.5481 46.9052 194.3701M57.9042 167.5644C56.0602 171.5564 54.4152 176.2294 53.6472 180.6594L53.3282 181.3014C52.2812 183.4034 53.2182 186.3434 55.4262 187.2894 57.5072 188.1804 60.5212 187.5364 61.4162 185.1914L63.2582 180.3594C63.2592 180.3564 63.2622 180.3514 63.2632 180.3474 63.6622 179.2994 64.0422 178.2444 64.5582 177.2504 65.4612 175.5154 66.3562 173.7804 67.2682 172.0674 70.3992 166.1774 60.7212 161.4614 57.9042 167.5644M71.4316 186.5092C70.2656 188.8052 68.9886 191.0392 67.6976 193.2662 66.4336 195.4472 64.8306 197.6572 63.9956 200.0392 61.8826 206.0662 69.4966 209.7392 72.9066 204.3232 74.2506 202.1912 74.9856 199.5562 75.9046 197.2132 76.8436 194.8182 77.7966 192.4262 78.8686 190.0862 81.0776 185.2602 73.8426 181.7632 71.4316 186.5092M92.0566 185.6767C91.5336 187.9677 90.8876 190.1617 89.9766 192.3297 89.0356 194.5627 87.7186 196.6327 86.8246 198.8697 84.3246 205.1307 92.6996 209.0147 96.1596 203.3597 98.9276 198.8387 100.0036 192.5537 100.7736 187.3717 101.6116 181.7227 93.3346 180.0857 92.0566 185.6767M121.5771 175.642C119.1711 175.174 117.3721 176.778 116.7021 178.928 115.4321 183.005 113.2181 186.684 111.4591 190.552 108.8481 196.293 117.5411 200.518 120.3131 194.809 122.4921 190.32 123.5671 185.304 124.8641 180.513 125.4511 178.345 123.6681 176.047 121.5771 175.642M145.749 172.2734C143.518 171.3174 140.791 172.0954 139.717 174.3864 138.858 176.2164 138.025 178.0234 137.326 179.9224 136.894 181.0944 135.368 187.1674 135.781 188.3914 136.151 189.4904 137.1 190.6484 138.186 191.1134 140.442 192.0804 144.71 186.3734 145.754 183.9744 146.563 182.1144 147.214 180.2254 147.862 178.3024 148.255 177.1384 148.483 176.1184 148.074 174.9044 147.717 173.8404 146.799 172.7214 145.749 172.2734M164.4833 167.9326C161.9953 171.2196 159.8693 174.7816 158.8523 178.8016 158.3023 180.9836 159.8573 183.3236 161.9103 183.9706 163.9133 184.5996 166.6423 183.8146 167.4513 181.6516 168.6283 178.5036 169.5913 175.5556 171.4143 172.4546 173.7943 168.4056 167.3373 164.1636 164.4833 167.9326M59.6484 212.1166C57.2944 211.1096 54.4914 211.9436 53.3424 214.3246 52.1424 216.8156 50.9424 219.3076 49.7414 221.7986 48.6154 224.1346 49.5984 227.3616 52.0604 228.4166 54.4164 229.4236 57.6194 228.6606 58.6794 226.0976L61.8564 218.4196C62.7984 216.1396 62.0834 213.1606 59.6484 212.1166M83.0966 212.9531C81.3446 212.1101 78.7676 212.8101 78.0096 214.7341 76.0626 219.6811 72.9366 223.8981 70.3636 228.4941 67.2196 234.1091 76.3876 238.5861 79.4136 232.8471 81.8606 228.2111 83.0896 222.9401 84.8796 218.0391 85.5836 216.1071 85.0806 213.9061 83.0966 212.9531M104.0556 222.3305C102.1356 221.6955 99.3666 222.4915 98.6286 224.6005 97.6656 227.3555 96.6086 230.0975 95.8386 232.9125 95.1826 235.3045 97.1786 238.0885 99.5726 238.4475 102.3626 238.8675 104.2866 237.2315 105.1096 234.7145 105.8936 232.3185 106.4316 229.8355 107.0486 227.3915 107.5926 225.2315 106.0566 222.9925 104.0556 222.3305M119.9726 201.3593C119.0666 203.4723 118.2106 205.6153 117.2176 207.6883 116.2286 209.7553 114.9996 211.7403 114.1916 213.8853 113.2216 216.4593 113.9386 219.4243 116.5766 220.6923 118.8766 221.7973 122.4306 220.9053 123.3856 218.3083 125.1036 213.6353 126.0836 208.6433 127.5926 203.8863 128.9836 199.5053 121.7696 197.1753 119.9726 201.3593M89.3925 122.7309C88.6935 126.1639 88.0975 129.5019 86.8435 132.7869 86.0175 134.9509 86.6375 137.4569 88.8545 138.5219 90.8375 139.4749 93.7295 138.6789 94.5915 136.5139 96.1375 132.6349 97.7065 128.6049 98.5405 124.5079 99.7405 118.6239 90.5915 116.8489 89.3925 122.7309M108.5556 90.8847C106.4256 95.5997 105.0706 101.1487 105.0356 106.3347 105.0126 109.9467 110.9926 111.3137 112.1866 107.7237 113.6386 103.3507 115.0676 99.1317 116.8696 94.8847 119.1766 89.4507 111.0136 85.4387 108.5556 90.8847M119.8544 109.6718C117.2964 109.1738 115.3234 110.8818 114.6304 113.1928 113.5494 116.7998 112.4184 120.3328 110.8984 123.7798 108.6814 128.8048 116.2994 132.5238 118.6194 127.4928 120.4994 123.4118 122.1954 119.2348 123.3774 114.8928 124.0104 112.5708 122.0934 110.1068 119.8544 109.6718M137.5488 92.1923C135.7368 96.0453 133.9078 99.8863 132.0338 103.7093 129.4848 108.9143 137.5378 112.7963 140.1518 107.6133 142.0688 103.8093 144.0278 100.0313 146.0058 96.2593 148.8048 90.9223 140.1318 86.7033 137.5488 92.1923M153.6386 96.5595C151.3726 100.6995 149.6216 105.1255 147.7186 109.4405 145.3886 114.7245 153.1136 118.4565 155.8066 113.3305 158.0006 109.1565 160.3776 105.0305 162.2086 100.6795 164.5836 95.0385 156.5856 91.1745 153.6386 96.5595M180.7314 100.8793C178.4184 99.8883 175.5534 100.6893 174.4484 103.0803 173.8324 104.4123 173.2164 105.7423 172.6024 107.0733 171.5684 109.3063 171.0434 115.0763 173.4044 116.0873 175.7184 117.0783 178.2104 116.6843 181.0864 111.1543 181.7634 109.8533 182.3184 108.4913 182.9334 107.1613 183.9654 104.9273 183.0934 101.8903 180.7314 100.8793M178.997 122.3876C176.845 121.4656 173.995 122.1776 173.007 124.4846 172.35 126.0226 171.664 127.5466 171.034 129.0956 168.926 134.2826 169.494 137.3536 171.79 138.3346 173.943 139.2576 177.609 137.1976 179.124 132.9856 179.687 131.4136 180.438 129.9126 181.096 128.3746 182.018 126.2206 181.294 123.3706 178.997 122.3876M184.4335 139.3549C183.2375 143.8259 182.2425 148.3379 180.9445 152.7839 180.2295 155.2329 182.3365 157.8629 184.6785 158.3179 187.3865 158.8449 189.4855 157.0379 190.2165 154.5849 191.5345 150.1629 192.8085 145.6849 193.5195 141.1199 194.4455 135.1849 185.9635 133.6259 184.4335 139.3549M203.912 101.9477C201.305 101.4407 198.926 103.2007 198.338 105.7067 197.684 108.4867 197.066 111.2737 196.46 114.0637 195.926 116.5147 197.725 119.2957 200.244 119.6737 202.869 120.0677 205.268 118.5007 205.855 115.8907 206.479 113.1037 207.093 110.3157 207.673 107.5197 208.193 105.0067 206.412 102.4347 203.912 101.9477M203.9941 79.2719C201.2161 78.3509 198.8931 80.0899 198.0871 82.6979 197.9301 83.2089 197.8211 83.5009 197.5321 84.2209 197.2521 84.9269 196.9521 85.6249 196.6331 86.3139 195.9951 87.6919 195.2761 89.0269 194.5011 90.3329 193.2861 92.3789 194.5501 95.2489 196.5621 96.2149 198.9101 97.3429 201.1731 96.1759 202.4471 94.1539 204.1671 91.4299 205.5341 88.5549 206.6841 85.5469 207.6551 83.0089 206.7481 80.1839 203.9941 79.2719M177.5165 76.0986C176.4155 78.1216 175.6625 80.3386 174.8565 82.4926 174.0285 84.7086 173.1155 86.9986 172.6725 89.3266 172.3235 91.1696 173.4245 93.0586 175.2135 93.6216 177.1545 94.2306 178.7725 93.3386 179.8195 91.6926 180.9825 89.8696 181.8405 87.8236 182.7765 85.8756 183.7175 83.9166 184.7815 81.9966 185.5495 79.9616 187.5535 74.6466 180.2945 70.9896 177.5165 76.0986M165.9433 67.3139C163.5683 66.1719 161.2613 67.3509 159.9743 69.4049 157.7063 73.0209 156.0843 77.1699 154.2183 81.0109 151.7913 86.0079 159.3423 89.5929 161.9653 84.7379 163.9963 80.9809 166.4223 77.2359 168.0353 73.2799 168.9443 71.0469 168.2143 68.4059 165.9433 67.3139M147.2568 57.3413C145.2978 56.5023 142.6568 57.1423 141.7708 59.2623 141.3578 60.2513 140.9598 61.2463 140.5658 62.2413 139.9708 62.6573 139.4568 63.2183 139.0488 63.9083 138.5808 64.6943 138.3918 65.6083 138.1458 66.4843 138.0588 66.7973 137.9648 67.1103 137.8648 67.4213 137.8258 67.5233 137.6918 67.9013 137.6508 68.0103 137.1458 69.3573 136.5758 70.6923 135.9608 71.9923 134.0978 75.9253 139.7418 79.9373 142.5258 76.2763 144.4308 73.7713 146.4138 70.6963 147.1328 67.5093 147.8318 65.9573 148.5208 64.3993 149.1788 62.8253 150.0068 60.8453 149.3718 58.2453 147.2568 57.3413M164.1884 39.1494C162.3024 38.2444 159.8114 39.0454 158.9334 40.9894 157.5444 44.0644 156.4294 47.2354 155.1274 50.3424 154.0874 52.8304 155.1324 55.6734 157.7904 56.5544 160.2694 57.3764 163.1914 55.8574 163.6364 53.1634 164.1284 50.1824 165.0444 47.2564 166.0304 44.4014 166.7214 42.3974 166.2624 40.1474 164.1884 39.1494M179.8984 41.2831C178.5524 44.7081 176.7164 47.9771 175.4674 51.4241 174.5794 53.8751 175.2074 56.6631 177.7264 57.8741 180.1624 59.0451 182.9484 57.9261 184.1794 55.6141 186.0564 52.0861 187.0374 47.8311 188.0214 43.9751 189.2184 39.2871 181.6994 36.6971 179.8984 41.2831M196.6269 50.9902C195.0899 54.1882 193.3679 57.9692 192.7509 61.4692 191.8149 66.7872 199.3429 69.4072 201.7629 64.4582 203.3309 61.2522 204.1689 57.2022 204.8099 53.7022 205.6909 48.8832 198.7919 46.4862 196.6269 50.9902M220.9667 57.3139C218.6067 56.8559 216.4087 58.4499 215.8907 60.7369 215.2977 63.3509 214.5707 65.9699 214.2577 68.6339 213.9787 71.0199 215.3107 73.6329 217.8937 74.0219 220.4237 74.4009 222.7107 72.8939 223.2827 70.3879 223.8827 67.7689 224.0727 65.0529 224.3907 62.3889 224.6667 60.0689 223.3807 57.7829 220.9667 57.3139M222.4453 81.5356C220.9803 85.6336 218.6213 89.9206 217.9693 94.2316 217.1493 99.6596 224.8433 102.5916 227.3073 97.3256 229.1763 93.3326 229.6253 88.5306 230.6863 84.2676 231.8663 79.5316 224.1343 76.8086 222.4453 81.5356M240.5185 48.3759C239.4315 50.2549 238.9175 52.6229 238.1115 54.6479 237.2855 56.7249 236.3435 58.7439 235.3025 60.7219 233.3055 64.5139 239.0405 68.4109 241.6835 64.8859 243.2365 62.8199 244.6855 60.6689 245.9985 58.4419 247.2955 56.2459 248.7375 53.7809 249.1745 51.2459 250.0935 45.9379 243.0905 43.9309 240.5185 48.3759M230.665 29.2748C229.001 33.0198 227.696 36.8448 225.753 40.4768 224.591 42.6498 225.733 45.5338 227.889 46.5688 230.238 47.6998 232.76 46.5858 233.983 44.4358 236.169 40.5948 238.273 36.4548 239.292 32.1338 240.479 27.0908 232.782 24.5098 230.665 29.2748M213.1513 28.5385C211.6673 31.9515 210.7413 35.4215 208.8543 38.6745 207.7323 40.6085 208.8863 43.2855 210.7913 44.2005 212.9703 45.2485 215.1513 44.1815 216.3193 42.2645 218.4023 38.8465 220.6143 35.2535 221.6003 31.3385 222.8423 26.4155 215.1823 23.8685 213.1513 28.5385M200.4374 16.1391C198.8504 19.7601 197.7354 23.5141 195.9344 27.0581 193.9954 30.8791 199.8474 34.9771 202.3954 31.2741 205.0264 27.4531 207.5734 23.4241 208.7974 18.9101 210.1174 14.0431 202.4494 11.5451 200.4374 16.1391M188.7861 17.6313C186.3401 16.0333 183.7201 17.1453 182.2641 19.4233 179.7291 23.3903 177.4071 27.4783 175.2931 31.6843 172.9391 36.3653 179.9261 39.5443 182.5311 35.1653 184.7581 31.4233 187.1721 27.8183 189.7691 24.3213 191.3781 22.1573 191.1671 19.1873 188.7861 17.6313M228.2128 1.4809C226.8258 3.1069 225.7038 5.0169 224.4958 6.7809 223.1878 8.6909 221.6878 10.6019 220.6788 12.6869 218.4208 17.3509 225.1278 22.0289 228.4438 17.7549 229.8748 15.9119 230.9528 13.7689 232.0898 11.7379 233.1358 9.8669 234.3528 8.0079 235.1958 6.0379 237.0288 1.7569 231.4008-2.2571 228.2128 1.4809M250.4697 4.5253C248.2817 3.4753 246.0657 4.5383 244.8997 6.4753 242.9147 9.7723 240.3957 12.8213 238.6677 16.2613 237.6317 18.3213 238.4287 20.9573 240.3467 22.1683 242.1127 23.2823 245.1377 23.3013 246.4337 21.3293 248.7697 17.7763 250.3657 13.8073 252.4207 10.0933 253.5117 8.1233 252.4167 5.4623 250.4697 4.5253M260.3759 26.8085C258.0229 26.0295 255.8429 27.1475 254.6249 29.2135 253.8299 30.5625 253.3389 32.0585 252.7749 33.5125 252.1379 35.1615 251.3129 36.7955 250.9299 38.5225 249.9739 42.8535 256.0649 45.9785 258.8539 42.3505 259.9919 40.8695 260.7489 39.1235 261.5519 37.4445 262.3619 35.7465 263.1349 34.0155 263.5489 32.1715 264.0649 29.8645 262.5419 27.5245 260.3759 26.8085M275.2822 9.477C273.0062 8.724 271.1052 9.823 269.8592 11.704 269.6872 11.98 269.2722 12.634 269.2212 12.728 269.0462 13.06 268.8992 13.409 268.7362 13.748 268.4092 14.424 268.0652 15.094 267.7272 15.766 266.9472 17.312 266.0802 18.78 265.5852 20.447 265.0652 22.192 266.3212 24.458 267.9482 25.156 269.8222 25.958 271.6672 25.471 273.0952 24.077 274.3042 22.896 275.2252 20.998 276.0642 19.526 276.9842 17.911 277.7282 16.347 278.2962 14.573 278.9782 12.444 277.1952 10.109 275.2822 9.477"/>
      <path d="M269.8183 11.7631C269.8313 11.7411 269.8453 11.7251 269.8593 11.7041 269.9573 11.5521 269.9803 11.5131 269.8183 11.7631M293.7802 17.3432C291.4812 16.2392 288.9262 17.3092 287.7482 19.4562 286.0582 22.5352 284.2942 25.6602 282.9302 28.9022 281.9162 31.3112 282.7532 34.1982 285.1982 35.3722 287.6292 36.5402 290.4512 35.4322 291.6712 33.1052 293.3032 29.9902 294.5922 26.6382 295.8932 23.3722 296.7962 21.1082 296.0882 18.4512 293.7802 17.3432M316.0234 23.3793C313.7634 22.2933 311.5464 23.4083 310.3274 25.3743 308.1754 28.8373 305.6654 32.0253 303.3434 35.3723 301.8824 37.4793 301.7694 40.2803 303.8624 42.0753 305.7394 43.6843 308.9904 43.5963 310.5684 41.5573 313.5254 37.7343 315.8694 33.3903 318.0194 29.0733 319.0444 27.0123 318.0794 24.3683 316.0234 23.3793M275.3564 45.4145C273.0794 44.4395 270.6414 45.2995 269.4704 47.4755 268.0304 50.1515 266.4084 52.8005 265.1914 55.5875 264.2604 57.7215 265.0074 60.5605 267.2744 61.5325 269.6744 62.5605 271.9184 61.5835 273.2234 59.4505 274.8094 56.8545 276.0474 54.0115 277.4184 51.2965 278.4574 49.2355 277.5164 46.3395 275.3564 45.4145M294.1249 50.3046C292.0999 49.9116 290.3559 51.0186 289.3449 52.7026 288.4229 54.2356 287.9219 56.1146 287.3089 57.7936 286.6289 59.6526 285.6309 61.5946 285.3399 63.5526 284.9949 65.8756 286.2109 68.1926 288.5129 68.9146 290.8929 69.6636 293.0119 68.5936 294.2639 66.5096 295.3119 64.7646 295.7599 62.4086 296.3589 60.4526 296.9809 58.4196 297.5269 56.4456 297.6569 54.3176 297.7749 52.4146 295.8579 50.6416 294.1249 50.3046M330.3095 35.5458C328.2545 34.5588 326.3015 35.5868 325.1795 37.3428 323.1635 40.4948 320.6515 43.3478 319.1565 46.8178 318.1605 49.1278 318.9995 51.9148 321.3355 53.0368 323.6485 54.1488 326.4135 53.1108 327.5555 50.8588 329.2355 47.5478 330.2275 43.8908 332.1065 40.6738 333.1535 38.8828 332.0735 36.3928 330.3095 35.5458M306.373 64.4389C304.589 69.3819 302.64 74.2959 301.21 79.3569 299.786 84.3979 307.985 87.1459 309.955 82.2549 311.917 77.3819 313.36 72.2879 314.97 67.2889 316.543 62.4069 308.135 59.5579 306.373 64.4389M253.5995 67.433C251.1505 66.956 249.1235 68.597 248.5045 70.869 247.4925 74.576 246.1115 78.168 245.0055 81.849 243.5135 86.818 251.8455 89.633 253.6915 84.729 255.1895 80.749 256.0965 76.662 257.0365 72.525 257.5565 70.237 255.8535 67.87 253.5995 67.433M266.5673 79.8671C264.3643 84.3181 262.1013 88.9251 260.7513 93.7161 259.3333 98.7541 267.2543 101.2631 269.3793 96.5771 271.2843 92.3721 272.7263 87.9641 274.6563 83.7561 277.0583 78.5131 269.1373 74.6731 266.5673 79.8671M289.8964 87.5825C287.7654 86.5585 284.8044 87.4385 283.8434 89.7025 282.5594 92.7245 281.1664 95.6965 279.9864 98.7615 279.0684 101.1455 279.7624 103.9135 282.2024 105.0845 284.4194 106.1505 287.5364 105.2405 288.5294 102.8685 289.7994 99.8325 290.8514 96.7115 292.0174 93.6335 292.8834 91.3465 292.2404 88.7075 289.8964 87.5825M265.3193 113.2724C263.8193 115.4704 262.6403 117.8574 261.2163 120.1044 259.7703 122.3834 258.0773 124.5214 256.7713 126.8844 254.1143 131.6874 261.0753 135.7944 264.5903 131.9874 266.5253 129.8894 268.0033 127.1964 269.2803 124.6524 270.5423 122.1364 271.8023 119.4604 272.4213 116.7044 273.2643 112.9394 267.6733 109.8274 265.3193 113.2724M248.5956 106.7426C247.2456 108.7516 245.8986 110.7606 244.5506 112.7696 243.8756 113.7746 243.1966 114.7756 242.5276 115.7826 242.1416 116.3606 241.7606 116.9416 241.3836 117.5236 237.1936 118.7046 237.0726 125.2836 241.7706 126.2646 245.9756 127.1406 248.1976 123.8886 250.1106 120.7326 251.9926 117.6266 253.8426 114.5006 255.7086 111.3846 258.1686 107.2776 251.3096 102.6986 248.5956 106.7426M234.2724 100.144C232.5414 103.449 230.8004 106.742 229.1854 110.105 226.7744 115.127 234.5254 118.872 236.9904 113.859 238.6364 110.511 240.1524 107.109 241.6804 103.707 243.8494 98.881 236.7314 95.451 234.2724 100.144M212.2656 120.1747C210.1446 124.4257 208.8686 129.7447 208.2326 134.4417 207.4326 140.3547 216.1186 142.1307 217.3816 136.2197 218.3266 131.8067 219.4876 127.2347 220.0926 122.7697 220.7136 118.1857 214.4416 115.8137 212.2656 120.1747M8.7587 212.123C5.1007 214.741 2.4267 218.988.4857 222.973-2.0273 228.13 5.9097 231.952 8.5167 226.835 10.1277 223.675 12.4737 221.502 14.7587 218.853 18.0657 215.02 12.9937 209.091 8.7587 212.123M33.7245 180.6533C30.0665 183.2723 27.3945 187.5203 25.4525 191.5043 22.9385 196.6623 30.8765 200.4833 33.4845 195.3673 35.0935 192.2073 37.4395 190.0343 39.7245 187.3833 43.0335 183.5523 37.9595 177.6233 33.7245 180.6533M27.5624 230.3027C25.3614 229.3597 22.2134 230.0487 21.2574 232.5107 20.1904 235.2627 19.1214 238.0137 18.0514 240.7657 17.1894 242.9867 17.7984 245.8357 20.1874 246.8577 22.3804 247.7977 25.2734 247.0697 26.2824 244.7227 27.4454 242.0167 28.6084 239.3117 29.7714 236.6057 30.7454 234.3387 29.9764 231.3377 27.5624 230.3027M62.1474 239.6699C59.7454 238.5169 57.3124 239.6859 56.0324 241.8119 53.5494 245.9319 52.2234 250.8819 51.0144 255.4989 50.4384 257.7039 52.2154 260.0289 54.3524 260.4439 56.7344 260.9069 58.6934 259.3119 59.3004 257.1079 60.4154 253.0609 62.4594 249.5239 64.2914 245.7839 65.3764 243.5639 64.3674 240.7359 62.1474 239.6699M87.831 243.892C85.617 242.945 82.716 243.681 81.693 246.04 80.529 248.734 79.35 251.419 78.129 254.089 77.161 256.207 77.971 259.074 80.213 260.036 82.411 260.975 85.104 260.21 86.161 257.952 87.404 255.294 88.685 252.659 89.981 250.026 91.045 247.868 90.1 244.864 87.831 243.892M113.2265 241.3178C110.5435 240.7958 108.6305 242.5808 107.8535 244.9388 106.7725 248.2248 105.7975 251.5438 104.7955 254.8558 104.1615 256.9518 105.8495 259.2918 107.7775 259.8978 109.6885 260.4978 112.4585 259.7658 113.1855 257.6348 114.4275 253.9928 115.6945 250.3588 116.8485 246.6868 117.5905 244.3248 115.4625 241.7528 113.2265 241.3178M130.7314 216.7914C129.0614 221.8094 127.5684 226.8844 126.0194 231.9404 124.5374 236.7734 132.8564 239.6014 134.4964 234.7504 136.1914 229.7444 137.9624 224.7554 139.5364 219.7114 141.0984 214.6984 132.4114 211.7494 130.7314 216.7914M155.1552 192.4472C154.0042 191.9542 152.6492 191.7522 151.4482 192.2172 150.2942 192.6632 149.0022 193.5272 148.5772 194.7502 148.0912 196.1552 147.6042 197.5592 147.1192 198.9642 146.6862 200.2112 145.3392 206.1352 145.7772 207.4362 146.1632 208.5842 147.1532 209.7922 148.2872 210.2782 150.5302 211.2392 153.8552 210.5562 154.8022 207.9962 155.3162 206.6042 156.9452 200.4122 157.4592 199.0222 157.9162 197.7892 158.1242 196.6032 157.6902 195.3162 157.3012 194.1582 156.3012 192.9372 155.1552 192.4472M156.9267 222.9794C154.3437 222.4784 152.2087 224.2084 151.5547 226.6004 150.4707 230.5714 149.5197 234.5804 148.5267 238.5754 147.9607 240.8544 149.7427 243.2364 151.9637 243.6694 154.4547 244.1514 156.3857 242.4884 157.0577 240.2334 158.2387 236.2774 159.4607 232.3314 160.5497 228.3484 161.2007 225.9614 159.2277 223.4264 156.9267 222.9794M171.8828 194.7646C169.7678 199.3926 168.0808 204.5586 166.6628 209.4456 165.1788 214.5626 173.1108 216.9306 175.3498 212.3256 177.5898 207.7186 179.6758 202.7426 181.2208 197.8596 182.9308 192.4496 174.1858 189.7246 171.8828 194.7646M186.8691 170.3481C185.1011 174.3931 183.6711 178.6211 181.9601 182.7051 179.6991 188.1001 187.2021 191.6471 190.1051 186.6211 192.4371 182.5831 194.5721 177.7891 195.4951 173.2081 196.5081 168.1871 188.9831 165.5061 186.8691 170.3481M130.8583 77.4179C128.4353 76.6169 126.3953 77.8019 125.0893 79.8319 124.0613 81.4279 123.7153 83.4619 123.2533 85.2869 122.7963 87.0769 122.3823 88.8379 122.4443 90.7019 122.5503 93.9999 126.9843 95.3769 129.0593 92.9079 130.2573 91.4829 131.0353 89.7929 131.8563 88.1399 132.7153 86.4099 133.6933 84.7229 134.0413 82.7989 134.4633 80.4599 133.1043 78.1609 130.8583 77.4179M228.748 135.08C226.106 138.373 224.659 142.804 223.052 146.663 222.205 148.692 222.898 151.114 224.959 152.103 226.906 153.04 229.498 152.215 230.403 150.198 231.211 148.397 232.118 146.674 233.122 144.975 234.11 143.3 235.38 141.698 236.175 139.927 238.191 135.433 232.017 131.007 228.748 135.08M244.8749 144.6064C242.4019 143.5494 240.2389 144.5864 238.8639 146.7114 237.5179 148.7924 236.6089 151.2824 235.5369 153.5194 234.5489 155.5844 235.4079 158.4284 237.5849 159.3594 239.8469 160.3294 242.2619 159.4714 243.4279 157.3134 244.6069 155.1294 246.0889 152.9294 246.9809 150.6154 247.8249 148.4214 247.2349 145.6174 244.8749 144.6064M225.0947 168.9916L224.8847 168.8736C223.5667 168.1336 221.5687 168.3006 220.3677 169.2016 218.3197 170.7426 217.6937 173.2006 216.7757 175.4846 215.8737 177.7206 214.9737 179.9596 214.0737 182.1956 212.0207 187.2926 219.5327 191.0476 221.8487 185.9356 223.2437 182.8566 224.4717 179.5436 226.0527 176.5196 228.4427 174.6856 227.7637 170.4906 225.0947 168.9916M204.8437 190.9355C203.1067 189.8385 200.1607 189.8335 198.8797 191.7585 196.7827 194.9085 195.6657 198.6795 194.3387 202.2045 193.5367 204.3325 194.1307 206.7855 196.3127 207.8345 198.2507 208.7675 201.1087 207.9935 201.9457 205.8605 202.5717 204.2685 203.2757 202.7395 204.0677 201.2255 204.8487 199.7275 205.8607 198.2875 206.4897 196.7245 207.3377 194.6155 206.8487 192.2005 204.8437 190.9355M184.2949 220.5268C181.9229 219.3868 179.5019 220.5378 178.2409 222.6478 176.5369 225.4988 175.5199 228.8118 174.4659 231.9498 173.7209 234.1698 174.1959 236.6418 176.4979 237.7488 178.4319 238.6758 181.5219 237.9438 182.2989 235.7158 183.4129 232.5298 185.0499 229.6478 186.4149 226.5778 187.4079 224.3418 186.5479 221.6098 184.2949 220.5268M158.1445 249.2158C155.7425 248.4618 153.7485 249.5658 152.4515 251.5968 151.5075 253.0738 151.0145 254.8758 150.3895 256.5078 149.7525 258.1688 149.1165 259.8298 148.4805 261.4898 147.6235 263.7258 148.2685 266.3168 150.5565 267.4148 152.7165 268.4538 155.4485 267.5128 156.4835 265.3398 158.1405 261.8638 160.3625 258.2768 161.2855 254.5258 161.8365 252.2798 160.2635 249.8828 158.1445 249.2158M138.5449 253.6347C137.5009 253.1887 136.2709 253.0037 135.1809 253.4257 133.9999 253.8827 133.2299 254.6447 132.5769 255.7257L130.9259 258.4587C130.3699 259.3767 130.3839 260.8887 130.7129 261.8677 131.0729 262.9337 131.9919 264.0567 133.0459 264.5087 135.4069 265.5187 137.8719 264.6137 139.0999 262.3887 139.6109 261.4587 140.1239 260.5307 140.6369 259.6017 141.1599 258.6527 141.1849 257.2437 140.8469 256.2387 140.4909 255.1877 139.5849 254.0797 138.5449 253.6347"/>
    </g>
    <g transform="matrix(-1 0 0 1 395 489)">
      <path d="M53.6019 206.5634C51.3289 206.1334 49.1819 207.6804 48.7039 209.8994 48.3999 211.3074 48.1029 212.7184 47.7909 214.1244 47.5309 215.3114 47.3109 216.8304 46.7969 217.6564 45.1619 220.2774 47.4239 223.7824 50.1549 224.2994 52.9209 224.8234 56.2229 222.3934 55.7139 219.3634 55.4879 219.5824 55.4739 219.4334 55.6749 218.9184 55.7259 218.5614 55.7769 218.2054 55.8289 217.8474 55.9309 217.1324 56.0389 216.4234 56.1649 215.7114 56.4159 214.2944 56.6799 212.8774 56.9379 211.4594 57.3409 209.2354 55.8369 206.9864 53.6019 206.5634M70.1771 194.3593C70.3741 198.7393 68.6761 202.8163 68.5021 207.1163 68.2711 212.8293 77.1731 214.1943 79.2791 209.1793 81.2581 204.4583 80.4651 198.6373 79.8471 193.6903 79.0781 187.5243 69.8931 188.0833 70.1771 194.3593M98.1136 178.2724C96.0086 178.2274 94.5036 179.6344 93.7506 181.4794 92.7966 183.8124 92.5366 186.4484 92.1036 188.9194 91.6236 191.6534 91.0496 194.4094 90.8886 197.1824 90.7116 200.2674 93.4796 202.9644 96.4906 203.0274 99.8666 203.0994 101.9226 200.5024 102.3376 197.4274 102.6806 194.8774 102.6306 192.2854 102.6756 189.7174 102.7236 187.0414 102.8676 184.3184 102.3386 181.6784 101.9556 179.7594 100.0296 178.3124 98.1136 178.2724M45.4984 232.7851C43.5844 232.4231 41.1354 233.4441 40.4074 235.3581 39.6234 237.4181 39.2254 239.5791 38.6654 241.7061 38.1814 243.5421 37.1924 245.3171 36.9014 247.4621 36.5294 250.2121 37.9324 252.8261 40.6294 253.7121 43.1254 254.5321 46.2644 253.4511 47.3394 250.8911 48.2634 248.6911 48.4234 246.2851 48.7624 243.9411 49.0874 241.7011 49.4914 239.3221 49.2924 237.0591 49.1114 234.9891 47.5624 233.1771 45.4984 232.7851M62.8431 227.0478C60.7661 226.9558 58.2351 228.4248 58.0591 230.7388 57.9131 232.6428 57.6681 234.4958 57.0861 236.3218 56.6381 237.7298 55.5921 239.9678 55.0461 241.7078 54.1711 244.4988 56.7421 247.8238 59.4831 248.2198 62.7521 248.6948 65.0601 246.7708 65.9971 243.7848 66.5881 241.8968 66.5981 239.8118 66.7481 237.8508 66.9151 235.6558 67.0611 233.4798 67.1551 231.2788 67.2541 229.0238 64.9071 227.1378 62.8431 227.0478M82.3353 214.06C80.1593 213.964 77.5053 215.502 77.3223 217.927 77.1833 219.77 76.9063 221.523 76.3693 223.292 76.3323 223.411 76.2753 223.584 76.2513 223.652 76.0973 224.081 75.9383 224.505 75.7693 224.93 75.2803 226.151 74.7523 227.295 74.4303 228.588 73.7693 231.236 75.6713 233.976 78.1223 234.779 80.6943 235.623 83.5663 234.469 84.7713 231.984 85.7583 229.944 86.0873 227.486 86.3383 225.248 86.6083 222.831 86.7383 221.09 86.8533 218.494 86.9583 216.129 84.4963 214.154 82.3353 214.06M110.6449 201.3032C107.8789 200.7802 105.5549 202.6432 104.8799 205.2292 103.6699 209.8552 101.7849 214.3782 100.7989 219.0472 100.1769 222.0002 102.3269 225.0282 105.2489 225.5802 108.4289 226.1832 110.9609 224.0462 111.7839 221.1312 113.0729 216.5592 113.4989 211.7042 114.5719 207.0662 115.1709 204.4742 113.1869 201.7852 110.6449 201.3032M121.3206 224.6455C119.6516 228.7415 118.4336 233.0215 118.4936 237.4705 118.5266 239.8835 120.7846 241.8785 123.0916 241.9815 125.3416 242.0795 127.9536 240.5105 128.1926 238.0445 128.5416 234.4565 128.7236 231.1335 129.7556 227.4165 131.1006 222.5595 123.2346 219.9495 121.3206 224.6455M30.9876 198.5683C31.2136 202.3203 31.5186 205.9453 31.1296 209.6973 30.8706 212.1693 32.2076 214.5953 34.7996 215.0853 37.1186 215.5253 39.8946 213.9003 40.1896 211.4163 40.7176 206.9673 41.2296 202.3563 40.9606 197.8793 40.5756 191.4473 30.6026 192.1383 30.9876 198.5683M42.0345 160.2553C41.1325 165.7333 41.2635 171.8593 42.6625 177.2433 43.6385 180.9953 50.2135 180.7573 50.4585 176.7053 50.7535 171.7713 51.0665 167.0023 51.7595 162.1003 52.6465 155.8313 43.0755 153.9293 42.0345 160.2553M58.9447 176.603C56.1557 176.795 54.5827 179.111 54.5057 181.699 54.3827 185.736 54.1887 189.71 53.5667 193.706 52.6597 199.527 61.5847 201.273 62.5947 195.418 63.4147 190.667 64.0167 185.867 64.0417 181.04 64.0537 178.458 61.3847 176.434 58.9447 176.603M72.4466 153.5883C71.6346 158.0843 70.8016 162.5713 69.9176 167.0523 68.7156 173.1533 78.1356 174.9483 79.4116 168.8533 80.3446 164.3803 81.3306 159.9213 82.3366 155.4643 83.7596 149.1573 73.6036 147.1843 72.4466 153.5883M90.3304 153.664C89.1274 158.581 88.5384 163.655 87.7594 168.654 86.8074 174.775 95.8454 176.507 97.2184 170.449 98.3374 165.514 99.6584 160.58 100.3514 155.563 101.2534 149.059 91.8934 147.267 90.3304 153.664M119.6048 150.645C116.9328 150.258 114.1858 151.88 113.7018 154.665 113.4318 156.216 113.1618 157.765 112.8938 159.315 112.4408 161.916 113.4918 168.041 116.2188 168.436 118.8918 168.823 121.3658 167.725 122.8168 161.197 123.1588 159.662 123.3558 158.096 123.6258 156.547 124.0778 153.947 122.3328 151.04 119.6048 150.645M123.7591 173.4199C121.2731 173.0589 118.5171 174.5869 118.1311 177.2509 117.8751 179.0269 117.5861 180.7959 117.3631 182.5759 116.6131 188.5359 118.0511 191.5619 120.7031 191.9439 123.1901 192.3049 126.4191 189.1549 126.8231 184.3699 126.9731 182.5849 127.3351 180.8209 127.5911 179.0449 127.9501 176.5569 126.4111 173.8029 123.7591 173.4199M134.2239 189.8086C134.2219 194.7736 134.4389 199.7256 134.3249 204.6936 134.2609 207.4306 137.1719 209.5736 139.7259 209.3966 142.6779 209.1936 144.3539 206.7396 144.4329 203.9956 144.5739 199.0466 144.6559 194.0526 144.1289 189.1236 143.4459 182.7156 134.2249 183.4466 134.2239 189.8086M143.9251 145.3388C141.0821 145.5348 139.1041 148.0168 139.1881 150.7768 139.2801 153.8388 139.4111 156.8998 139.5541 159.9598 139.6781 162.6478 142.3141 165.0318 145.0291 164.7278 147.8591 164.4098 149.9111 162.1218 149.7971 159.2538 149.6731 156.1918 149.5361 153.1318 149.3631 150.0738 149.2081 147.3248 146.6501 145.1518 143.9251 145.3388M137.7357 121.811C134.6007 121.625 132.6747 124.071 132.5597 126.997 132.5387 127.57 132.5067 127.903 132.4077 128.729 132.3127 129.539 132.1947 130.345 132.0537 131.147 131.7747 132.752 131.3987 134.335 130.9577 135.903 130.2637 138.361 132.3687 140.985 134.7217 141.43 137.4657 141.95 139.4897 140.114 140.2507 137.665 141.2777 134.366 141.8997 131.007 142.2597 127.572 142.5627 124.671 140.8407 121.994 137.7357 121.811M109.4154 125.8476C108.8344 128.2486 108.6674 130.7556 108.4284 133.2116 108.1834 135.7376 107.8704 138.3636 108.0564 140.8986 108.2024 142.9076 109.8684 144.5596 111.8784 144.6486 114.0584 144.7436 115.4874 143.3706 116.1174 141.3746 116.8174 139.1626 117.1424 136.8056 117.5714 134.5276 118.0054 132.2356 118.5764 129.9516 118.8104 127.6296 119.4154 121.5656 110.8814 119.7836 109.4154 125.8476M94.9896 119.9443C92.2126 119.4173 90.1476 121.2773 89.3826 123.7633 88.0316 128.1393 87.4986 132.8883 86.6286 137.3863 85.4946 143.2373 94.3136 144.8643 95.6886 139.1053 96.7536 134.6493 98.2306 130.0973 98.8086 125.5493 99.1336 122.9833 97.6456 120.4483 94.9896 119.9443M72.8636 114.7773C70.6006 114.4493 68.0416 115.8433 67.7086 118.2863 67.5536 119.4263 67.4176 120.5673 67.2836 121.7083 66.7826 122.3043 66.4056 123.0283 66.1736 123.8553 65.9056 124.7993 65.9626 125.7993 65.9496 126.7753 65.9466 127.1243 65.9356 127.4743 65.9196 127.8243 65.9066 127.9403 65.8716 128.3703 65.8596 128.4943 65.7086 130.0293 65.4886 131.5713 65.2106 133.0893 64.3676 137.6823 71.3276 140.2783 73.1986 135.7133 74.4806 132.5893 75.6846 128.8543 75.5486 125.3513 75.8426 123.5483 76.1256 121.7443 76.3726 119.9303 76.6826 117.6493 75.3046 115.1293 72.8636 114.7773M85.3763 91.2358C83.1723 90.8188 80.8113 92.3388 80.4393 94.5968 79.8523 98.1678 79.5723 101.7638 79.0843 105.3448 78.6933 108.2118 80.5643 110.8698 83.5623 111.0478 86.3583 111.2138 88.9673 108.8308 88.6833 105.9148 88.3683 102.6878 88.5073 99.4018 88.7383 96.1708 88.9003 93.9008 87.8023 91.6958 85.3763 91.2358M102.2493 89.1005C101.8023 93.0225 100.8043 96.9195 100.4633 100.8385 100.2203 103.6245 101.6433 106.3405 104.5903 106.8985 107.4373 107.4385 110.0153 105.5075 110.6513 102.7705 111.6213 98.5945 111.4603 93.9125 111.4133 89.6435 111.3563 84.4535 102.8473 83.8485 102.2493 89.1005M122.2728 94.5336C121.5648 98.2746 120.8268 102.6696 121.1558 106.4696 121.6568 112.2406 130.1838 112.8726 131.3228 107.0736 132.0608 103.3166 131.8088 98.8866 131.5028 95.0806 131.0848 89.8416 123.2698 89.2656 122.2728 94.5336M149.2493 94.354C146.6763 94.532 144.8403 96.793 144.9363 99.307 145.0443 102.181 145.0153 105.096 145.4283 107.944 145.7993 110.494 147.9033 112.835 150.6873 112.524 153.4143 112.216 155.3673 110.021 155.2683 107.265 155.1643 104.385 154.6103 101.517 154.2013 98.667 153.8463 96.186 151.8803 94.172 149.2493 94.354M157.4847 119.0522C157.0997 123.7052 155.8407 128.8012 156.3597 133.4502 157.0107 139.3042 165.7977 140.2142 166.8927 134.0742 167.7247 129.4182 166.8617 124.3172 166.7817 119.6032 166.6937 114.3672 157.9267 113.6852 157.4847 119.0522M167.0394 79.6796C166.4334 81.9286 166.5554 84.5246 166.2804 86.8466 165.9984 89.2286 165.5814 91.5816 165.0504 93.9196 164.0294 98.4026 171.0524 100.8556 172.8154 96.4706 173.8514 93.8996 174.7604 91.2686 175.5054 88.5966 176.2404 85.9616 177.0524 83.0076 176.8044 80.2586 176.2884 74.5036 168.4754 74.3606 167.0394 79.6796M151.5403 62.6064C150.8533 66.9494 150.5593 71.2744 149.5503 75.5774 148.9463 78.1514 150.9293 80.8244 153.4493 81.3014 156.1973 81.8224 158.5023 79.9704 159.1763 77.4034 160.3773 72.8174 161.4133 67.9434 161.2733 63.1834 161.1073 57.6274 152.4163 57.0824 151.5403 62.6064M133.1859 66.6889C132.5919 70.6379 132.5919 74.4909 131.5379 78.3849 130.9109 80.6999 132.8469 83.1549 135.0739 83.5769 137.6229 84.0599 139.5869 82.3499 140.2679 80.0409 141.4809 75.9209 142.7789 71.5849 142.7179 67.2539 142.6429 61.8079 133.9989 61.2859 133.1859 66.6889M116.5775 57.354C115.9355 61.546 115.8175 65.746 114.9325 69.919 113.9795 74.416 121.1795 77.045 122.7965 72.501 124.4655 67.812 125.9885 62.931 126.0095 57.913 126.0305 52.503 117.3905 52.036 116.5775 57.354M104.9154 62.125C101.9364 61.146 99.5294 63.022 98.6504 65.787 97.1234 70.601 95.8474 75.48 94.8194 80.425 93.6764 85.929 101.7954 87.291 103.2854 82.031 104.5574 77.536 106.0614 73.13 107.7854 68.788 108.8534 66.1 107.8134 63.079 104.9154 62.125M141.3089 34.4746C140.3209 36.5446 139.6869 38.8346 138.9229 40.9966 138.0949 43.3386 137.0689 45.7356 136.5999 48.1756 135.5509 53.6346 143.7969 56.6286 146.0509 51.2796 147.0239 48.9746 147.5489 46.4536 148.1649 44.0346 148.7309 41.8056 149.4769 39.5416 149.8069 37.2666 150.5229 32.3216 143.5779 29.7186 141.3089 34.4746M165.2171 31.4726C162.6591 30.9886 160.6561 32.7046 159.9841 35.0356 158.8401 39.0016 157.0721 42.8586 156.2351 46.9036 155.7311 49.3256 157.2851 51.8366 159.6091 52.5616 161.7461 53.2276 164.8871 52.4096 165.6851 50.0076 167.1221 45.6786 167.6781 41.1226 168.7801 36.7036 169.3661 34.3596 167.4951 31.9046 165.2171 31.4726M181.6507 51.8295C178.9977 51.6735 177.0467 53.4345 176.3567 55.9135 175.9057 57.5315 175.8097 59.2185 175.6297 60.8815 175.4247 62.7665 175.0227 64.6895 175.1027 66.5855 175.3107 71.3395 182.4887 72.8935 184.3737 68.3605 185.1447 66.5105 185.4457 64.4915 185.8127 62.5285 186.1837 60.5445 186.5047 58.5365 186.4227 56.5105 186.3207 53.9765 184.0937 51.9725 181.6507 51.8295M192.303 29.7397C189.737 29.5887 188.071 31.2547 187.3 33.5487 187.198 33.8827 186.949 34.6747 186.922 34.7867 186.832 35.1787 186.777 35.5807 186.701 35.9777 186.55 36.7697 186.378 37.5587 186.214 38.3487 185.833 40.1677 185.341 41.9287 185.288 43.7937 185.235 45.7467 187.163 47.7487 189.042 48.0217 191.206 48.3347 192.983 47.3187 194.078 45.4777 195.004 43.9197 195.433 41.6977 195.896 39.9397 196.401 38.0107 196.74 36.1837 196.838 34.1887 196.955 31.7927 194.461 29.8657 192.303 29.7397"/>
      <path d="M187.2728 33.6216C187.2808 33.5946 187.2928 33.5746 187.2998 33.5486 187.3588 33.3646 187.3718 33.3166 187.2728 33.6216M213.6526 32.7754C210.9646 32.2674 208.6126 34.0834 207.9856 36.6344 207.0866 40.2944 206.1226 44.0214 205.6056 47.7584 205.2216 50.5374 206.8876 53.2974 209.7476 53.8384 212.5896 54.3764 215.2086 52.4474 215.8276 49.6974 216.6576 46.0164 217.0656 42.1854 217.5106 38.4394 217.8196 35.8434 216.3506 33.2854 213.6526 32.7754M238.3763 32.8774C235.7333 32.3774 233.7443 34.1464 233.0233 36.5214 231.7523 40.7064 230.0323 44.7064 228.5533 48.8174 227.6223 51.4054 228.2803 54.3404 230.9453 55.6224 233.3353 56.7714 236.6813 55.7794 237.7523 53.2294 239.7593 48.4484 240.9853 43.2964 242.0203 38.2284 242.5133 35.8074 240.7793 33.3334 238.3763 32.8774M202.3255 66.9707C199.6955 66.5897 197.4075 68.1557 196.7965 70.7357 196.0445 73.9087 195.0965 77.1027 194.6065 80.3277 194.2315 82.7967 195.7915 85.5337 198.4105 85.9137 201.1815 86.3157 203.2385 84.6817 203.9995 82.1097 204.9255 78.9807 205.4225 75.6907 206.0905 72.4977 206.5965 70.0737 204.8205 67.3317 202.3255 66.9707M223.137 66.9628C220.929 67.1158 219.429 68.7458 218.846 70.7708 218.316 72.6148 218.316 74.7018 218.145 76.6118 217.955 78.7258 217.458 81.0148 217.699 83.1258 217.984 85.6298 219.886 87.6938 222.471 87.8058 225.145 87.9238 227.044 86.2278 227.765 83.7218 228.368 81.6228 228.182 79.0568 228.262 76.8638 228.343 74.5838 228.363 72.3858 227.908 70.1448 227.504 68.1398 225.027 66.8318 223.137 66.9628M269.7747 71.0722C267.5677 71.2252 266.0667 72.8552 265.4847 74.8802 264.9537 76.7242 264.9547 78.8112 264.7837 80.7212 264.5927 82.8352 264.0967 85.1242 264.3367 87.2342 264.6217 89.7392 266.5237 91.8032 269.1087 91.9152 271.7827 92.0332 273.6817 90.3372 274.4037 87.8312 275.0057 85.7322 274.8197 83.1662 274.8997 80.9732 274.9817 78.6932 275.0007 76.4952 274.5467 74.2542 274.1427 72.2492 271.6657 70.9412 269.7747 71.0722M294.4446 66.5561C292.2376 66.7091 290.7366 68.3391 290.1546 70.3641 289.6236 72.2081 289.6246 74.2951 289.4536 76.2051 289.2626 78.3191 288.7666 80.6081 289.0066 82.7181 289.2916 85.2231 291.1936 87.2871 293.7786 87.3991 296.4526 87.5171 298.3516 85.8211 299.0736 83.3151 299.6766 81.2161 299.4896 78.6501 299.5696 76.4571 299.6516 74.1771 299.6706 71.9791 299.2166 69.7381 298.8126 67.7331 296.3356 66.4251 294.4446 66.5561M275.178 44.789C272.971 44.942 271.47 46.572 270.888 48.597 270.357 50.441 270.358 52.528 270.187 54.438 269.996 56.552 269.5 58.841 269.74 60.952 270.026 63.456 271.927 65.52 274.512 65.632 277.187 65.75 279.085 64.054 279.807 61.548 280.41 59.449 280.223 56.883 280.303 54.69 280.385 52.41 280.404 50.212 279.95 47.971 279.546 45.966 277.069 44.658 275.178 44.789M256.5491 41.5361C254.1461 41.0811 252.4051 42.6871 251.7291 44.8181 250.5131 48.6431 248.6971 52.2961 248.1091 56.3061 247.7161 58.9751 249.3571 61.6321 252.0881 62.1501 254.7931 62.6621 257.3721 60.8211 257.9321 58.1701 258.7571 54.2741 258.7731 50.2091 259.8291 46.3551 260.4191 44.2091 258.6111 41.9261 256.5491 41.5361M239.7366 78.1084C239.2556 83.7254 238.5936 89.3594 238.5136 95.0004 238.4326 100.6194 247.6916 101.1994 248.3796 95.5854 249.0626 89.9904 249.1496 84.3114 249.4346 78.6834 249.7146 73.1894 240.2116 72.5614 239.7366 78.1084M185.8704 95.8139C183.1994 95.9979 181.5544 98.2589 181.5404 100.7849 181.5164 104.9079 181.0804 109.0139 180.9524 113.1339 180.7814 118.6989 190.1964 119.3119 190.7524 113.7169 191.2024 109.1769 191.0124 104.6899 190.8414 100.1419 190.7464 97.6259 188.3264 95.6439 185.8704 95.8139M202.7503 105.1147C201.6983 110.3387 200.6293 115.7397 200.5563 121.0797 200.4793 126.6937 209.3833 127.1027 210.2883 121.6577 211.1003 116.7717 211.3753 111.8027 212.2103 106.9077 213.2493 100.8087 203.9773 99.0187 202.7503 105.1147M229.0648 106.6572C226.5728 106.1852 223.7478 107.9172 223.3778 110.5302 222.8828 114.0172 222.2608 117.4842 221.8868 120.9872 221.5958 123.7122 223.0808 126.3882 225.9328 126.9282 228.5268 127.4202 231.5038 125.6142 231.8778 122.8812 232.3538 119.3822 232.5808 115.8552 232.9368 112.3422 233.2018 109.7322 231.8038 107.1752 229.0648 106.6572M210.7025 140.0869C209.7555 142.7799 209.1945 145.5809 208.3405 148.3039 207.4725 151.0659 206.3085 153.7509 205.6085 156.5619 204.1845 162.2749 212.5365 164.6069 215.1245 159.6879 216.5505 156.9779 217.3365 153.7769 217.9555 150.7869 218.5675 147.8289 219.1345 144.7079 219.0115 141.6789 218.8455 137.5439 212.1875 135.8639 210.7025 140.0869M191.5618 137.9453C190.7198 140.4013 189.8778 142.8563 189.0378 145.3123 188.6168 146.5403 188.1888 147.7663 187.7748 148.9953 187.5348 149.7003 187.3008 150.4073 187.0708 151.1153 183.0548 153.5003 184.7498 160.3533 189.8908 160.0703 194.4918 159.8143 195.8938 155.8283 197.0038 152.0283 198.0948 148.2873 199.1468 144.5353 200.2188 140.7883 201.6318 135.8513 193.2558 133.0033 191.5618 137.9453M174.8909 135.0683C174.0119 138.9733 173.1199 142.8683 172.3749 146.8013 171.2669 152.6733 180.3359 154.4113 181.5039 148.5333 182.2839 144.6073 182.9119 140.6623 183.5559 136.7123 184.4679 131.1103 176.1409 129.5233 174.8909 135.0683M157.6263 161.9209C156.6053 166.9139 156.7533 172.7799 157.3953 177.8249 158.2013 184.1759 167.6943 183.6139 167.3693 177.1369 167.1263 172.3009 167.0643 167.2409 166.4573 162.4449 165.8313 157.5219 158.6753 156.7989 157.6263 161.9209M61.4232 140.125C58.6912 139.965 56.9042 141.758 56.1122 144.223 55.4882 146.163 55.6942 148.367 55.7182 150.386 55.7412 152.368 55.7992 154.309 56.3782 156.223 57.4022 159.612 62.3782 159.813 63.8462 156.68 64.6932 154.871 65.0312 152.904 65.4252 150.963 65.8362 148.933 66.3832 146.913 66.2112 144.823 66.0022 142.281 63.9572 140.274 61.4232 140.125M263.6693 137.4326C263.7703 141.4246 264.4403 145.2196 264.0763 149.2366 263.8603 151.6266 266.1943 153.7076 268.4613 153.7366 271.0553 153.7686 272.6923 151.7446 272.9623 149.3516 273.4403 145.0846 273.9663 140.5886 273.1543 136.3336 272.1353 130.9836 263.5313 131.9706 263.6693 137.4326M245.6917 131.124C245.7877 135.364 246.4007 139.52 246.2537 143.783 246.0957 148.377 253.6427 149.716 254.4457 144.96 255.2757 140.053 255.9287 134.982 255.0777 130.037 254.1587 124.706 245.5697 125.745 245.6917 131.124M235.0355 137.8471C231.9325 137.3991 229.8875 139.6661 229.5025 142.5411 228.8335 147.5471 228.4245 152.5751 228.2705 157.6221 228.0995 163.2411 236.3335 163.1721 236.8865 157.7331 237.3585 153.0861 238.0745 148.4871 239.0185 143.9101 239.6035 141.0771 238.0555 138.2841 235.0355 137.8471M265.8607 104.3955C265.2477 106.6055 265.0197 108.9715 264.6437 111.2335 264.2357 113.6835 263.6407 116.2215 263.6027 118.7055 263.5177 124.2635 272.1587 125.7805 273.4497 120.1215 274.0067 117.6825 274.0867 115.1095 274.2727 112.6195 274.4427 110.3255 274.7857 107.9675 274.7147 105.6685 274.5607 100.6755 267.2687 99.3175 265.8607 104.3955M250.762 100.3901C250.149 102.6001 249.922 104.9651 249.545 107.2281 249.137 109.6781 248.542 112.2161 248.504 114.7001 248.42 120.2581 257.06 121.7751 258.351 116.1161 258.908 113.6771 258.989 111.1031 259.175 108.6141 259.345 106.3201 259.687 103.9621 259.616 101.6631 259.462 96.6701 252.171 95.3121 250.762 100.3901M289.098 97.1889C286.495 97.1569 284.821 99.1949 284.564 101.6069 284.125 105.7109 283.055 109.8169 282.931 113.9449 282.856 116.4179 284.824 118.6219 287.237 118.9319 289.458 119.2169 292.41 117.8659 292.778 115.3619 293.442 110.8479 293.198 106.2659 293.516 101.7229 293.686 99.3119 291.416 97.2199 289.098 97.1889M311.1927 95.4755C311.1957 95.4475 311.2027 95.4255 311.2067 95.3995 311.2317 95.2065 311.2367 95.1585 311.1927 95.4755M155.3284 205.7373C153.8554 209.1603 153.1334 213.0263 152.2814 216.6423 150.9344 222.3693 159.9734 224.1743 161.2334 218.4323 162.0364 214.7793 162.9864 211.0303 163.1424 207.2853 163.3154 203.1283 156.8884 202.1133 155.3284 205.7373M141.178 228.2211C140.032 232.7441 138.554 237.1541 137.292 241.6401 135.926 246.4931 143.932 249.2731 145.726 244.4881 147.493 239.7721 148.6 234.8311 149.438 229.8731 150.347 224.4981 142.506 222.9811 141.178 228.2211M178.3196 177.4038C177.4696 181.7098 176.5966 186.0368 176.0156 190.3888 175.2516 196.1288 183.7926 197.9478 184.9086 192.1668 185.7416 187.8518 186.2876 183.4668 186.8496 179.1098 187.5606 173.6048 179.4146 171.8558 178.3196 177.4038M201.1146 162.5332C198.9076 162.4212 197.2076 163.8152 196.6386 165.9232 195.8856 168.7142 195.5636 171.7622 195.2546 174.6352 194.9906 177.0842 196.2666 179.4912 198.8356 180.0062 201.1526 180.4702 203.8566 178.8742 204.2066 176.4252 204.6676 173.1982 205.1406 169.7532 205.0936 166.4932 205.0636 164.3882 203.1346 162.6362 201.1146 162.5332M152.9505 6.334C151.5675 4.792 148.9405 4.253 147.1995 5.613 144.7345 7.54 142.6175 10.017 141.5615 13.002 140.7565 15.278 141.2225 18.111 143.6905 19.187 145.8365 20.122 148.9335 19.463 149.8765 17.057 150.2495 16.104 150.6795 15.179 151.2045 14.3 151.2985 14.189 151.6635 13.671 151.7925 13.509 152.1785 13.021 152.5965 12.567 153.0375 12.129 154.5935 10.586 154.3075 7.849 152.9505 6.334M249.3167 1.0127C247.4977-.4183 244.7537-.3933 243.2047 1.4727 241.3537 3.7017 239.6517 6.0607 238.1987 8.5687 237.0257 10.5927 238.1507 13.6127 240.2507 14.5277 242.6327 15.5657 244.9117 14.6087 246.2097 12.4757 246.7867 11.5277 247.3597 10.5727 247.9677 9.6437 247.9507 9.6727 248.0237 9.5667 248.2087 9.2897 248.3767 9.0447 248.5467 8.8017 248.7187 8.5587 249.0637 8.0747 249.4187 7.5987 249.7767 7.1247 251.1427 5.3207 251.2357 2.5217 249.3167 1.0127M269.0423 6.31C267.1783 4.843 264.8713 5.118 263.2333 6.747 261.2953 8.676 259.7533 10.917 258.4693 13.329 257.3663 15.398 258.3663 18.367 260.5273 19.309 262.6863 20.249 265.4903 19.532 266.5073 17.249 266.9563 16.241 267.4533 15.258 268.0213 14.31 268.2743 13.89 268.5363 13.472 268.8043 13.059 268.7873 13.104 269.4083 12.216 269.4793 12.12 270.7633 10.393 270.8773 7.753 269.0423 6.31M291.8607 17.1362C290.1767 16.0652 287.3897 16.0812 286.1317 17.9112 284.3647 20.4782 282.7547 23.1182 281.5567 26.0002 280.6287 28.2332 281.3017 31.1452 283.6857 32.1852 285.8397 33.1232 288.9187 32.4572 289.8717 30.0552 290.8777 27.5182 292.0217 25.0542 293.4147 22.7042 294.5167 20.8432 293.5717 18.2252 291.8607 17.1362M318.3392 26.7905C316.7972 25.8105 314.4342 25.8955 313.2502 27.4795 311.4982 29.8235 309.7462 32.1665 307.9942 34.5095 306.4812 36.5355 306.6742 39.3275 308.8992 40.7905 311.1762 42.2895 313.6642 41.2765 315.0242 39.1355 316.5892 36.6695 318.1542 34.2035 319.7192 31.7365 320.7482 30.1165 319.8212 27.7335 318.3392 26.7905M308.1536 48.979C305.7856 47.824 303.4416 48.983 302.1536 51.045 300.5716 53.577 298.9156 56.09 297.5156 58.729 296.3376 60.951 297.4526 63.878 299.6596 64.955 302.1206 66.155 304.5436 64.947 305.8846 62.811 307.4686 60.288 308.8176 57.606 310.2186 54.979 311.3606 52.84 310.2756 50.014 308.1536 48.979M338.136 34.0747C335.814 32.9417 333.524 34.0797 332.259 36.0977 330.272 39.2677 328.694 42.5737 327.613 46.1577 326.166 50.9577 334.102 53.6567 335.96 48.9757 337.193 45.8707 338.466 42.8407 340.159 39.9517 341.36 37.9027 340.155 35.0587 338.136 34.0747M336.8431 56.4116C335.1661 55.3446 332.4131 55.3696 331.1551 57.1816 329.2891 59.8656 327.3841 62.5196 325.6811 65.3106 324.5301 67.1956 325.5381 69.8956 327.2671 70.9956 328.9981 72.0966 331.8131 72.0606 333.1161 70.2036 334.9951 67.5276 336.6701 64.7226 338.3861 61.9406 339.5141 60.1136 338.5181 57.4766 336.8431 56.4116M353.553 46.2739C350.941 49.7589 348.787 53.6449 347.282 57.7319 346.519 59.8029 347.038 62.1629 349.163 63.1989 351.042 64.1149 353.802 63.3739 354.63 61.3169 356.147 57.5499 357.916 53.9929 359.921 50.4639 362.056 46.7069 356.181 42.7689 353.553 46.2739M352.8773 70.6049C350.7373 69.6729 348.0743 70.4049 347.0413 72.6149 346.7363 73.2659 346.4093 73.9049 346.0483 74.5269 345.9683 74.6659 345.6663 75.3569 345.5233 75.3869 345.8863 74.8409 345.9343 74.7639 345.6683 75.1549 345.5593 75.3119 345.4473 75.4679 345.3343 75.6219 344.6413 76.5789 344.1893 77.5919 344.2653 78.8069 344.3343 79.9109 344.9223 81.2109 345.8083 81.9069 346.6973 82.6069 347.8343 83.1019 348.9923 82.9769 350.1003 82.8569 351.4453 82.4069 352.0933 81.4339 353.1613 79.8299 354.1393 78.2209 354.8863 76.4409 355.7703 74.3359 355.1213 71.5839 352.8773 70.6049M378.4847 61.8164C376.5377 60.2844 374.2207 60.6194 372.5027 62.2674 370.5317 64.1564 368.9397 66.2844 367.4757 68.5814 366.2247 70.5424 367.4917 73.6184 369.5127 74.4994 371.8227 75.5054 374.2117 74.6174 375.4307 72.4614 375.6747 72.0304 375.9317 71.6094 376.1887 71.1864 376.2097 71.1564 376.2227 71.1354 376.2487 71.0994 376.4347 70.8364 376.6217 70.5724 376.8147 70.3134 377.4717 69.4334 378.1837 68.5994 378.9357 67.7984 380.4567 66.1784 380.2317 63.1904 378.4847 61.8164M366.6009 85.8442C364.9329 84.7832 362.0609 84.7602 360.8309 86.6252 358.9489 89.4832 357.1809 92.3602 355.8719 95.5312 354.9309 97.8082 355.6609 100.5062 357.9719 101.6342 360.1669 102.7042 363.0269 101.7722 364.0749 99.5322 365.3559 96.7962 366.6559 94.0702 368.1649 91.4512 369.2549 89.5632 368.3409 86.9512 366.6009 85.8442M387.5413 83.9926C385.8273 82.6446 382.8453 82.4846 381.4293 84.4526 379.8543 86.6426 378.4353 88.9206 377.2613 91.3496 376.2603 93.4226 377.1023 96.2756 379.2843 97.2266 381.4613 98.1756 384.0943 97.4156 385.1613 95.2026 385.6353 94.2236 386.1423 93.2646 386.6763 92.3176 386.9253 91.8766 387.1763 91.4366 387.4383 91.0036 387.5883 90.7566 387.7413 90.5106 387.8953 90.2656 387.6783 90.5866 387.7133 90.5326 388.0023 90.1046 389.2633 88.2296 389.5313 85.5576 387.5413 83.9926M368.721 116.9121C366.337 115.8721 363.855 116.7871 362.598 119.0201 361.393 121.1631 360.077 123.2661 359.154 125.5471 358.301 127.6501 358.79 129.9831 360.75 131.2711 362.464 132.3971 365.36 132.3351 366.64 130.4741 368.267 128.1081 369.517 125.5831 370.829 123.0351 371.928 120.9011 370.955 117.8861 368.721 116.9121M392.9095 107.6015C391.1305 106.2025 388.0035 106.0225 386.5375 108.0815L383.2065 112.7615C381.8065 114.7275 381.6095 117.6435 383.6975 119.2855 385.4595 120.6715 388.8005 120.9565 390.2215 118.7935 391.2775 117.1865 392.3335 115.5805 393.3895 113.9735 394.0675 112.9435 394.5555 112.0305 394.4735 110.7455 394.4035 109.6255 393.8075 108.3075 392.9095 107.6015M374.0355 134.3691C372.2745 133.2121 369.1825 133.2341 367.8865 135.2021 366.4695 137.3521 365.0145 139.4811 363.7105 141.7031 362.5185 143.7341 363.5515 146.4951 365.3835 147.6991 367.1795 148.8791 370.2115 148.8131 371.5535 146.8641 373.0145 144.7391 374.3535 142.5431 375.7035 140.3461 376.9315 138.3481 375.8315 135.5491 374.0355 134.3691M63.1771 262.8129C62.9241 259.7409 58.8851 258.2049 56.8311 260.6839 55.6161 262.1479 55.0191 264.0119 54.5101 265.8209 54.0311 267.5279 53.5231 269.3949 53.7201 271.1749 54.2721 276.1429 61.0051 276.5029 62.2971 271.7539 62.6701 270.3809 62.5591 268.8819 62.7391 267.4669 62.9331 265.9419 63.3031 264.3499 63.1771 262.8129M84.3079 267.7587C83.6699 263.2357 77.5429 262.7127 76.3389 267.2207 75.4469 270.5617 75.1619 274.0947 74.4249 277.4827 73.1069 283.5407 83.0319 285.3907 83.7679 279.3507 84.2239 275.6137 84.8369 271.5087 84.3079 267.7587M85.5042 240.7143C83.4882 240.6113 81.4372 241.9483 81.0932 244.0553 80.6422 246.8223 80.1212 249.5653 79.5672 252.3133 78.9912 255.1633 81.1322 257.8593 83.9902 258.0513 87.0342 258.2563 89.0962 255.8613 89.1462 252.9593 89.1932 250.1733 89.2752 247.4003 89.4272 244.6173 89.5392 242.5533 87.3862 240.8103 85.5042 240.7143M101.806 237.4834C99.883 241.2614 98.262 245.7824 97.306 249.9034 95.78 256.4804 106.337 258.5984 107.582 251.9584 108.32 248.0244 109.068 244.1244 109.865 240.2034 110.841 235.3954 104.011 233.1494 101.806 237.4834M100.5531 262.4926C98.4191 262.3846 96.3241 263.7876 95.9331 265.9926 95.6601 267.5256 95.3691 269.0576 95.0321 270.5786 94.6981 272.0946 94.1011 273.5966 93.8791 275.1236 93.4991 277.7426 95.0341 280.3526 97.7261 280.8916 100.5801 281.4636 102.6681 279.5706 103.4931 277.0456 104.5311 273.8726 104.5321 269.8896 104.6611 266.5806 104.7451 264.4156 102.5491 262.5946 100.5531 262.4926M125.8333 252.4082C124.9753 247.3702 118.5363 246.8742 117.0143 251.8132 116.2153 254.4052 115.4563 256.1992 114.2943 258.7642 113.1313 261.3342 114.1123 264.4882 116.6993 265.7492 119.4583 267.0952 122.1833 265.7432 123.6853 263.3452 125.5433 260.3752 126.4233 255.8632 125.8333 252.4082M46.3988 263.977C46.1858 259.61 39.5448 258.007 37.7988 262.273 37.2188 263.69 36.8838 265.162 36.3488 266.495 35.7858 267.9 35.1358 269.261 34.5908 270.673 33.5978 273.25 34.3138 276.23 36.9478 277.515 39.5198 278.77 42.4728 277.599 43.7888 275.159 45.5118 271.962 46.5778 267.63 46.3988 263.977M23.8509 236.2402C22.4199 239.6122 20.9899 242.9832 19.5599 246.3542 18.4699 248.9212 19.5369 251.8662 22.2769 252.7922 24.9949 253.7092 27.6579 252.0362 28.3389 249.3182 29.2319 245.7642 30.1229 242.2122 31.0159 238.6592 32.0619 234.4902 25.5469 232.2412 23.8509 236.2402M23.5765 210.3603C22.2645 209.5253 20.1015 209.2483 18.8145 210.3753 16.9505 212.0073 15.7195 214.1223 14.4065 216.2153 13.1505 218.2183 11.7765 220.1283 11.2485 222.4683 10.7825 224.5363 11.9725 226.8023 13.8485 227.7173 15.8675 228.7023 18.0545 228.0433 19.5865 226.5353 21.1475 224.9983 22.0235 222.7413 22.9755 220.7983 23.9115 218.8913 25.0985 216.8633 25.4435 214.7543 25.7225 213.0483 25.0585 211.3033 23.5765 210.3603M46.7874 119.7407C45.2894 123.2077 43.6824 126.5517 41.8934 129.8797 40.6284 132.2327 42.0674 135.1867 44.4754 135.9997 47.1624 136.9067 49.4614 135.2357 50.2404 132.6977 51.2454 129.4247 52.3904 126.2707 53.6674 123.0957 55.4914 118.5647 48.7574 115.1827 46.7874 119.7407M63.2562 97.8403C61.2242 97.1893 58.6982 98.0013 57.8002 100.0903 57.2172 101.4443 56.5692 102.7643 55.8242 104.0373 55.1262 105.2293 54.2112 106.2663 53.4152 107.7583 50.7952 112.6723 57.9102 117.2463 61.4862 113.0693 63.8632 110.2943 65.1732 106.3703 66.2342 102.9373 66.8852 100.8273 65.1952 98.4613 63.2562 97.8403M72.8587 74.5366C72.2217 75.2056 71.7367 76.0106 71.2367 76.7846 71.0837 77.0316 70.9267 77.2766 70.7697 77.5206 70.8007 77.4686 70.7087 77.6046 70.4777 77.9496 69.6707 79.0956 68.8577 80.2386 68.0227 81.3646 66.4467 83.4906 66.3007 86.7376 68.5607 88.5156 70.5397 90.0716 74.0927 90.3056 75.7127 87.9766 77.6857 85.1406 80.0277 81.8276 80.7427 78.3816 81.6997 73.7686 75.8947 71.3486 72.8587 74.5366M40.1927 142.228C37.6837 141.004 35.2877 142.252 33.9057 144.393 31.9027 147.495 30.2727 150.895 28.7697 154.264 26.1997 160.023 34.6857 164.191 37.5807 158.561 39.2687 155.277 40.9907 151.946 42.3577 148.515 43.2967 146.157 42.5947 143.399 40.1927 142.228M32.0452 173.1054C30.1152 172.1644 27.2332 172.9184 26.3942 175.0514 24.5802 179.6554 22.0962 183.9774 20.5792 188.6914 18.8982 193.9204 27.4052 196.6544 29.6192 191.7434 31.4932 187.5844 32.3882 183.0254 33.9902 178.7564 34.7922 176.6214 34.2332 174.1724 32.0452 173.1054M92.2591 53.4311C89.9281 52.2941 87.5301 53.4141 86.2801 55.4901 85.3271 57.0721 84.3881 58.6631 83.4141 60.2321 82.9591 60.9661 82.4951 61.6951 82.0361 62.4261 81.7931 62.8141 80.5741 64.0541 81.6521 63.2981 77.8331 65.9771 79.9921 71.9911 84.5851 71.8161 87.9791 71.6881 89.2931 68.8361 90.6571 66.2211 91.8501 63.9351 93.0831 61.6731 94.3191 59.4101 95.4761 57.2901 94.3601 54.4551 92.2591 53.4311M111.8324 36.2998C110.3974 35.3568 108.0224 35.1068 106.6104 36.3158 105.9284 36.9008 105.2814 37.4688 104.7624 38.2058 104.4214 38.6878 104.1164 39.1958 103.8004 39.6958 103.7634 39.7548 103.4744 40.2088 103.3524 40.4058 103.2464 40.5608 103.0754 40.8148 103.0494 40.8538 102.8654 41.1198 102.6784 41.3838 102.4894 41.6478 102.0624 42.2388 101.6214 42.8198 101.1734 43.3948 99.4984 45.5408 99.4424 48.9448 101.7264 50.7408 103.7524 52.3348 107.4164 52.5858 109.0724 50.1878 110.0604 48.7578 111.0204 47.3048 111.9014 45.8068 112.7484 44.3698 113.6864 42.7998 113.8804 41.1178 114.1024 39.1928 113.5154 37.4048 111.8324 36.2998M127.514 24.5005C125.977 27.4435 124.439 30.3865 122.901 33.3305 121.648 35.7285 122.824 38.8645 125.207 40.0275 127.581 41.1855 130.798 40.2005 131.905 37.7215 133.259 34.6885 134.613 31.6555 135.966 28.6235 138.435 23.0935 130.325 19.1225 127.514 24.5005M165.4739 11.4638C163.5299 9.7928 160.5439 10.0568 158.8639 11.9618 156.4949 14.6458 153.6359 18.2078 152.9749 21.8148 152.5939 23.8918 153.6359 26.0798 155.5499 27.0128 157.3529 27.8928 159.9809 27.5138 161.2319 25.8418 162.2919 24.4248 162.9239 22.8078 163.7859 21.2728 164.4499 20.0868 164.9809 19.3218 165.9719 18.0738 167.5439 16.0938 167.4469 13.1588 165.4739 11.4638M185.2581 6.9902C182.9491 6.2502 180.9951 7.3022 179.7451 9.2632 177.5371 12.7272 175.5171 16.7502 173.9991 20.5672 171.6031 26.5942 180.1101 30.9192 183.1421 25.0262 185.2021 21.0202 186.9981 16.4572 188.2661 12.1392 188.8951 9.9972 187.2391 7.6252 185.2581 6.9902M207.4671 5.6152C205.4591 5.2132 203.8531 6.3182 202.8071 7.9242 201.9701 9.2082 201.5011 10.7542 200.8601 12.1462 200.2081 13.5612 199.5071 14.9502 198.7711 16.3232 197.5251 18.6502 198.7121 21.7312 201.0211 22.8572 203.2791 23.9582 206.5471 23.0582 207.5541 20.6072 208.9951 17.0992 210.6421 13.3312 210.8821 9.5242 210.9991 7.6782 209.1481 5.9522 207.4671 5.6152M223.2708 12.9502C221.3968 16.0232 219.6818 19.1602 217.7118 22.1752 216.3318 24.2892 217.7938 27.4132 219.8628 28.4222 222.0248 29.4762 225.1428 28.6132 226.1088 26.2712 227.4778 22.9532 229.0928 19.7782 230.5638 16.5082 232.7438 11.6642 225.9548 8.5492 223.2708 12.9502M248.8607 20.3667C246.4647 19.3227 243.9027 20.2257 242.6547 22.5037 242.0327 23.6397 241.4167 24.7737 240.8377 25.9327 239.7277 28.1507 240.6877 31.2467 243.0157 32.2617 245.3857 33.2947 248.1617 32.4487 249.3447 30.0817 249.9237 28.9237 250.4627 27.7507 250.9967 26.5717 252.0007 24.3607 251.2027 21.3877 248.8607 20.3667M271.8968 24.5576C269.8658 23.6726 266.7728 24.2696 265.9168 26.6166L263.7778 32.4846C263.0128 34.5806 263.4788 37.2096 265.7448 38.1976 267.7958 39.0926 270.4988 38.4166 271.4578 36.2306 272.2908 34.3326 273.1228 32.4346 273.9558 30.5366 274.8948 28.3946 274.1718 25.5496 271.8968 24.5576M295.4808 38.8603C293.9228 38.3333 292.5008 38.8673 291.3478 39.9653 290.3688 40.8993 289.7798 42.2053 289.1418 43.3843 288.5798 44.4253 288.0608 45.4763 287.5848 46.5593 286.6428 48.7013 287.3688 51.5473 289.6428 52.5383 291.7928 53.4753 294.6178 52.7673 295.6238 50.4793 296.7428 47.9313 298.0478 45.0313 298.0978 42.2313 298.1258 40.7093 296.8258 39.3153 295.4808 38.8603M317.5179 57.6503C315.9259 56.6383 313.5389 56.7463 312.3089 58.3553 310.0989 61.2453 308.4559 64.6593 306.8269 67.8983 305.7259 70.0863 306.7329 72.8963 308.9139 73.9603 310.9219 74.9393 314.1529 74.1923 314.9749 71.8733 316.0949 68.7133 317.6719 65.8033 318.9309 62.7133 319.6789 60.8753 319.2639 58.7603 317.5179 57.6503M331.7679 74.2246C329.9849 73.0526 327.1139 73.1706 325.7589 75.0376 324.1069 77.3136 322.2299 79.5406 320.8509 81.9916 319.6689 84.0926 320.6609 86.8736 322.5619 88.1236 324.4889 89.3896 327.3729 89.1796 328.8719 87.2696 330.6039 85.0626 331.9309 82.4576 333.3979 80.0646 334.5949 78.1116 333.5249 75.3786 331.7679 74.2246M344.5657 83.7065C342.1087 82.6355 339.7077 83.6105 338.3797 85.8355 337.0757 88.0255 335.7317 90.1935 334.5387 92.4465 333.3807 94.6315 334.4267 97.7585 336.7107 98.7535 339.2237 99.8495 341.6557 98.8465 343.0187 96.5815 344.3317 94.4015 345.4947 92.1355 346.6947 89.8915 347.8387 87.7525 346.7967 84.6795 344.5657 83.7065M309.3978 103.7817C309.6808 101.5317 310.1058 99.3047 310.5878 97.0887 311.7718 91.6477 303.6688 90.1797 302.2078 95.4127 301.2278 98.9237 300.3668 102.5207 299.8828 106.1367 299.4128 109.6547 300.0588 112.4077 303.2238 114.3107 307.4478 116.8497 311.1568 111.2937 309.0318 107.6927 308.8708 106.5427 309.2558 104.9137 309.3978 103.7817M323.47 102.4169C321.321 102.3079 318.988 103.7539 318.673 106.0499 318.327 108.5769 317.685 111.0079 317.14 113.4929 316.583 116.0319 318.419 118.9259 321.034 119.3339 323.797 119.7639 326.202 118.1329 326.874 115.4389 327.581 112.6059 327.694 109.5699 327.736 106.6619 327.768 104.4089 325.584 102.5239 323.47 102.4169M348.386 105.2421C346.224 104.5501 344.251 105.5101 343.115 107.4151 341.119 110.7641 339.42 114.6761 338.337 118.4111 337.679 120.6791 339.416 123.1831 341.518 123.8571 343.799 124.5871 346.239 123.6271 347.348 121.4531 349.079 118.0581 350.444 113.8971 351.261 110.1651 351.719 108.0731 350.389 105.8841 348.386 105.2421M295.4222 131.5454C295.1102 125.9514 286.9832 126.6484 286.8612 132.0824 286.7862 135.4184 286.1652 138.6014 285.4512 141.8504 284.1522 147.7564 293.3582 149.5794 294.6442 143.6884 295.5052 139.7444 295.6472 135.5654 295.4222 131.5454M304.2532 129.4799C303.5142 132.6799 302.8622 136.0419 302.9422 139.3379 303.0712 144.6719 311.7332 145.4039 312.3992 139.9769 312.7552 137.0759 312.8192 134.1809 313.2952 131.2879 314.2612 125.4239 305.5912 123.6899 304.2532 129.4799M322.303 130.3603C320.114 129.9223 318.316 131.3813 317.744 133.3993 317.001 136.0273 316.594 138.6923 316.261 141.3993 315.957 143.8763 317.451 146.1783 320.082 146.3553 322.6 146.5243 324.632 144.4733 324.534 141.9573 324.442 139.5683 324.814 137.2463 325.342 134.9193 325.806 132.8783 324.316 130.7633 322.303 130.3603M347.929 136.3359C345.68 135.2389 343.359 136.3179 342.155 138.3239 340.165 141.6379 337.779 144.8399 336.026 148.2799 334.862 150.5649 335.936 153.5179 338.212 154.6279 340.718 155.8509 343.197 154.6239 344.561 152.4419 346.598 149.1839 348.108 145.5059 349.917 142.1099 351.014 140.0519 349.972 137.3329 347.929 136.3359M64.4408 286.2495C64.2658 284.2695 62.8278 282.5385 60.8528 282.1435 59.0498 281.7825 56.6268 282.7305 55.9578 284.5685 54.9108 287.4455 54.4178 289.9465 53.1558 292.6765 52.0708 295.0265 53.0018 297.9355 55.3638 299.0865 57.7598 300.2565 60.5578 299.1745 61.7738 296.8795 63.3848 293.8365 64.7478 289.7435 64.4408 286.2495M23.7347 262.2724C21.6947 261.5824 18.6887 262.4174 17.9047 264.6764 17.2027 266.7014 16.2997 268.6134 15.4477 270.5754 14.4007 272.9854 15.1987 276.1764 17.7607 277.2934 20.2157 278.3634 23.2997 277.5284 24.4797 274.9804 25.5437 272.6824 26.2697 270.1674 26.9157 267.7174 27.5247 265.4064 25.8677 262.9944 23.7347 262.2724M14.722 191.9516C12.575 190.2626 9.481 190.3626 7.636 192.4856 5.592 194.8366 4.04 197.7006 3.667 200.8186 3.364 203.3606 4.759 206.1586 7.514 206.5866 10.369 207.0316 12.463 205.3636 13.283 202.7416 12.922 203.8936 13.486 202.2906 13.57 202.0816 13.743 201.6476 13.906 201.2146 14.11 200.7916 14.285 200.4276 14.472 200.0056 14.717 199.6716 14.916 199.4386 15.19 199.1186 15.256 199.0376 16.943 197.0236 16.874 193.6446 14.722 191.9516M4.388 236.7797C2.842 239.7657 1.644 242.9347.423 246.0657-.561 248.5927.157 251.5257 2.737 252.7837 4.999 253.8877 8.495 253.0227 9.454 250.4707 10.783 246.9397 12.162 243.3777 13.11 239.7237 14.466 234.4987 6.751 232.2137 4.388 236.7797M36.3206 283.4609C33.5926 283.0359 31.6636 284.6279 30.8596 287.1019 30.1356 289.3289 29.2936 291.5549 28.7696 293.8369 28.2376 296.1569 29.7556 298.5119 31.9296 299.2479 33.9686 299.9379 36.9266 299.0989 37.7226 296.8589 38.6446 294.2629 39.2726 291.5879 39.9626 288.9219 40.5706 286.5659 38.7036 283.8319 36.3206 283.4609M80.2327 291.0449C78.6707 290.2839 76.3617 290.6019 75.2857 292.0649 74.3037 293.3979 73.6577 294.8809 72.9897 296.3869 72.7117 297.0119 72.4357 297.6359 72.1587 298.2609 71.6397 299.4309 71.4337 300.4739 71.3577 301.7529 71.2537 303.5039 72.8997 305.1669 74.4037 305.6749 76.0527 306.2329 78.0797 305.7869 79.2127 304.3889 80.3737 302.9589 80.7827 301.1979 81.3547 299.4799 81.7747 298.2189 82.3367 296.8969 82.4747 295.5719 82.6687 293.7199 81.9907 291.9019 80.2327 291.0449M97.7415 285.4453C95.9215 284.8293 93.5775 285.6083 92.7895 287.4873 91.9365 289.5203 91.0845 291.5543 90.2315 293.5883 89.2135 296.0163 90.2015 298.7883 92.7965 299.6663 95.4595 300.5673 97.7535 298.9073 98.5205 296.3863 99.1625 294.2813 99.8035 292.1763 100.4445 290.0713 101.0345 288.1333 99.4985 286.0393 97.7415 285.4453M118.6741 272.2583C116.5741 271.2343 113.6571 272.0923 112.6951 274.3173 111.5671 276.9223 110.2751 279.4403 108.9461 281.9463 107.7451 284.2123 108.8821 287.1973 111.1321 288.2953 113.4781 289.4393 116.3131 288.4003 117.4821 286.1093 118.7761 283.5723 119.8131 280.9313 120.7331 278.2383 121.5131 275.9553 121.0341 273.4093 118.6741 272.2583M18.6663 161.729C16.3703 160.729 12.8743 161.404 11.9063 164.057 11.4663 165.266 11.0253 166.475 10.5843 167.684 10.0713 169.091 9.3953 170.574 9.1973 172.063 8.9243 174.114 9.7733 176.43 11.7983 177.312 13.5923 178.094 16.3323 177.921 17.5343 176.129 19.1003 173.797 19.9683 171.093 20.9933 168.489 21.9613 166.03 21.3043 162.879 18.6663 161.729M30.0071 133.56C27.6351 132.526 24.9421 133.389 23.7391 135.718 22.5951 137.936 21.6101 140.237 20.5771 142.51 19.5761 144.714 20.3731 147.678 22.7071 148.695 25.0201 149.703 27.7391 148.88 28.8921 146.565 30.0031 144.331 31.1661 142.115 32.1641 139.827 33.1461 137.58 32.3951 134.601 30.0071 133.56M42.0775 106.226C39.6285 105.158 36.9255 106.065 35.6675 108.433 34.4575 110.71 33.5595 113.122 32.8555 115.601 32.1915 117.943 34.1545 120.697 36.4975 121.062 39.2445 121.49 41.1325 119.889 41.9585 117.421 41.6775 118.262 42.2675 116.66 42.3295 116.513 42.4945 116.111 42.6695 115.714 42.8525 115.321 43.2835 114.401 43.7665 113.51 44.2855 112.636 45.5685 110.471 44.3195 107.203 42.0775 106.226M56.7747 82.5517C54.4347 81.5317 51.6447 82.3567 50.4877 84.7167 49.4877 86.7567 48.4867 88.7977 47.4857 90.8377 46.4647 92.9197 47.3357 95.8017 49.5237 96.7557 51.8727 97.7797 54.1737 96.8477 55.4417 94.7177 56.6077 92.7587 57.7737 90.7987 58.9397 88.8387 60.2027 86.7177 58.9717 83.5097 56.7747 82.5517M74.4681 52.9277C72.1731 51.9277 69.5181 52.7517 68.3651 55.0287 67.2551 57.2217 66.1451 59.4157 65.0341 61.6097 64.0091 63.6357 64.9051 66.4777 67.0311 67.4047 69.3201 68.4027 71.5971 67.5017 72.8241 65.4087 74.0731 63.2827 75.3221 61.1567 76.5701 59.0307 77.7821 56.9637 76.6101 53.8607 74.4681 52.9277"/>
    </g>
  </g>
</svg>
