<svg xmlns="http://www.w3.org/2000/svg" width="246" height="518" viewBox="0 0 246 518">
  <g fill="none" fill-rule="evenodd">
    <g fill="#202225" transform="matrix(-1 0 0 1 246 0)">
      <path d="M61.2758804 43.3563527C62.7345739 41.2843527 62.6888352 37.9192072 60.5440613 36.2316893 58.1693578 34.3599661 50.4308653 27.9745962 47.9152372 26.2870783 46.7297397 25.4921523 44.6677899 25.4538277 43.3599106 25.8444912 41.9135789 26.2747155 40.3683528 27.4553599 39.7156492 28.8449351 38.265609 31.925737 39.3262523 35.3403337 42.269599 37.0501045 44.4502221 38.3172883 52.0539709 43.9744912 54.323599 45.072305 56.7811266 46.2566582 59.6910965 45.6100854 61.2758804 43.3563527M72.1274472 75.0305074C73.4551055 72.4973761 72.399407 69.4017389 69.9480603 68.035653 68.3929447 67.1702592 66.8316482 66.3098105 65.2802412 65.4345265 63.9711256 64.6977055 62.2540704 63.891653 61.4616784 62.9866983 58.950995 60.1074095 53.9926734 61.520474 52.3955276 64.5629513 50.7798392 67.6449895 52.4647538 72.4269084 56.2301608 72.916474 56.0533869 72.5690802 56.2351055 72.6074048 56.7703719 73.0302115 57.174603 73.2181255 57.5763618 73.4072759 57.9818291 73.5964263 58.7902915 73.9759632 59.5888643 74.3592091 60.386201 74.7634716 61.9709849 75.5719967 63.5520603 76.395357 65.135608 77.2112998 67.6203317 78.48961 70.820804 77.5216053 72.1274472 75.0305074M80.5863859 99.0304735C75.3350894 97.6854043 71.1271296 94.2077575 66.1045266 92.4522444 59.4328583 90.1206263 54.6092804 100.156722 59.7814613 104.452784 64.6507779 108.495409 71.819391 109.655037 77.8927477 110.707108 85.4606472 112.020034 88.1097829 100.956593 80.5863859 99.0304735M89.541404 137.865762C90.3535749 135.391972 89.2323588 133.10486 87.3224593 131.549623 84.9069618 129.580234 81.8832633 128.322941 79.1166905 126.921003 76.0583789 125.368239 73.0062482 123.695557 69.7847608 122.507495 66.1998362 121.184678 62.0128915 123.486626 60.8533538 127.02485 59.5528915 130.990826 61.8818563 134.358444 65.3691226 135.95695 68.2605497 137.282239 71.3435849 138.156287 74.3648111 139.135418 77.5121276 140.157819 80.6792231 141.307557 83.9921879 141.633934 86.3990322 141.872535 88.8046402 140.115786 89.541404 137.865762M44.0405518 55.9980253C45.1580593 53.8654477 44.8341799 50.6004406 42.8315668 49.0501494 40.6781397 47.3799394 38.2675869 46.1300635 35.9534563 44.7021637 33.9582603 43.4683594 32.2152452 41.6596864 29.7824412 40.5433284 26.664793 39.1117198 23.0687427 39.8275241 21.0475869 42.6981589 19.1809538 45.3549179 19.3280593 49.4556482 21.9673055 51.6488033 24.2356975 53.5353618 27.0220492 54.5911422 29.6724211 55.8373093 32.2041196 57.0290802 34.871798 58.3654955 37.6198281 58.9453093 40.1317477 59.4756721 42.832803 58.2987365 44.0405518 55.9980253M44.5753236 78.5768912C45.431997 76.1550248 44.6062281 72.6303995 41.933605 71.5894544 39.7356754 70.7314783 37.6316955 69.7733637 35.6822382 68.4270582 34.1790422 67.389822 31.9106503 65.3462563 30.0489618 64.0741274 27.0635849 62.0330344 22.205394 63.8750869 20.750409 66.9731967 19.0098663 70.6696644 20.4524894 74.0916788 23.6467809 76.27618 25.6654643 77.6546286 28.1279367 78.4186477 30.3926201 79.3025857 32.9280271 80.2916072 35.4486 81.2472492 38.0173839 82.1522038 40.6479769 83.081884 43.7248312 80.9863947 44.5753236 78.5768912M52.9086663 106.308683C53.8061337 103.770606 52.9432794 100.077847 50.1433296 98.9874511 48.0133899 98.1579093 46.039209 97.1997947 44.1416714 95.9276659 44.0143447 95.8398902 43.8289176 95.7113174 43.7584553 95.6581575 43.3060131 95.3206539 42.8622241 94.9794415 42.4221437 94.6258663 41.1525859 93.6084105 39.9918121 92.5724105 38.5776211 91.7255609 35.6849578 89.9885919 31.7600834 91.2508305 29.9268271 93.860611 28.0020935 96.5977279 28.3321538 100.410406 30.8366563 102.729661 32.8924251 104.633527 35.6800131 105.906893 38.2376714 107.010888 40.9968271 108.201422 43.0093296 108.982749 46.0379729 110.053365 48.7958925 111.030024 52.0186161 108.830687 52.9086663 106.308683M57.7918281 144.384526C59.4087528 141.302488 58.0415367 137.882946 55.2279889 136.152158 50.1930241 133.054049 45.5239688 129.194392 40.3579688 126.347247 37.0907427 124.547228 32.7344412 125.99738 31.0297477 129.25497 29.1717678 132.798139 30.7849839 136.562602 33.9347729 138.585151 38.8770241 141.757438 44.465798 144.01117 49.5625719 146.951037 52.4107327 148.594049 56.3059387 147.218073 57.7918281 144.384526M31.7644101 7.35943246C26.5576161 4.73234415 20.440993 2.33520334 14.6037467 1.11128926L13.7668523.658811933C11.0311839-.825956563 7.08900302.280511217 5.73291256 3.16350883 4.45717387 5.87960907 5.17045025 9.90369021 8.23741508 11.1980721L14.5567719 13.8647212C14.5617166 13.8659575 14.5678975 13.8696663 14.5728422 13.8721389 15.9425307 14.4470076 17.3233447 14.9996234 18.6163899 15.7314993 20.8748925 17.007337 23.133395 18.2745208 25.3622291 19.5627212 33.0240784 23.9848835 39.7217065 11.3760959 31.7644101 7.35943246M26.3428915 148.598005C22.1015548 145.147556 17.4782382 142.165656 12.1972734 140.632673 9.33056985 139.801895 6.15852965 141.753976 5.20419799 144.445351 4.27829849 147.071203 5.19307236 150.724401 8.02269045 151.895155 12.140409 153.601217 16.0034744 155.014282 20.0284794 157.573375 25.2859568 160.915031 31.2072633 152.554091 26.3428915 148.598005M89.7310342 51.1681389C85.212793 50.0826878 80.8156975 49.1381723 76.5187327 47.3257905 73.6891146 46.1290745 70.3390643 46.8362248 68.8259789 49.7241675 67.4698884 52.3079862 68.3908432 56.1775327 71.2216975 57.4212272 76.2912754 59.6489981 81.5611146 61.9150936 86.9520995 63.2107117 94.6967729 65.0725446 97.471999 53.0299718 89.7310342 51.1681389M131.054955 78.0397289C124.902482 74.9997241 117.611487 72.9462683 110.739558 72.6606883 105.951829 72.4616477 103.86392 80.3231322 108.567588 82.072464 114.29605 84.2000964 119.821779 86.2894043 125.368523 88.8756955 132.462965 92.182736 138.159286 81.5507551 131.054955 78.0397289M105.629928 92.1457714C106.408722 88.7781532 104.236752 86.084306 101.2044 85.0606687 96.4747719 83.4596902 91.8452744 81.7981341 87.3443397 79.6222869 80.7864 76.452473 75.5066714 86.3760673 82.0658472 89.6831079 87.3888422 92.3633561 92.8478171 94.8062391 98.5466111 96.574115 101.595033 97.5198668 104.950028 95.0930554 105.629928 92.1457714M127.978966 116.406592C122.956363 113.826482 117.94983 111.225356 112.969257 108.564888 106.188805 104.943833 100.670493 115.438587 107.418805 119.141236 112.372182 121.858573 117.28971 124.631542 122.197348 127.426764 129.140976 131.38285 135.135217 120.084516 127.978966 116.406592M121.445503 137.528876C116.063171 134.334337 110.277844 131.808623 104.645804 129.086342 97.7516231 125.754576 92.4471709 135.817869 99.1163668 139.625602 104.548146 142.727421 109.90699 146.067841 115.589714 148.696165 122.954879 152.105817 128.447231 141.684003 121.445503 137.528876M114.466643 173.236632C115.887015 170.216407 114.958643 166.382713 111.839759 164.80646 110.104161 163.928703 108.368563 163.050947 106.632965 162.175663 103.721759 160.702021 96.0982312 159.738961 94.6494271 162.820999 93.2278191 165.84246 93.6345226 169.163099 100.831568 173.231686 102.525136 174.189801 104.304 174.9872 106.039598 175.86372 108.950804 177.334889 113.017839 176.319906 114.466643 173.236632M86.0393035 169.941954C87.3607809 167.131896 86.5486101 163.321691 83.5372734 161.906154 81.5297156 160.962875 79.5394643 159.983744 77.5158362 159.077553 70.7390925 156.043729 66.6423889 156.653214 65.2356151 159.652421 63.9129015 162.462479 66.4730322 167.417476 71.986399 169.619285 74.043404 170.438937 75.9990422 171.504608 78.0066 172.446651 80.8189116 173.768231 84.6300573 172.939925 86.0393035 169.941954M62.8887256 176.410649C57.0168663 174.619284 51.083198 173.091245 45.2496603 171.165126 42.0368261 170.1044 38.4531377 172.775995 37.7423337 175.859269 36.9190372 179.423455 39.2170975 182.289145 42.4336402 183.370887 48.2350372 185.321732 54.110605 187.218181 60.1283337 188.372863 67.9521226 189.873704 70.4108864 178.705179 62.8887256 176.410649M40.8462603 203.790472C34.9756372 201.999107 29.0419688 200.471069 23.2084312 198.544949 19.995597 197.484224 16.4119085 200.155818 15.7011045 203.237856 14.877808 206.803279 17.1758683 209.668968 20.3924111 210.750711 26.1925719 212.701556 32.0693759 214.598004 38.0871045 215.751451 45.9108935 217.253527 48.3696573 206.085002 40.8462603 203.790472M111.977469 203.909402C112.771097 200.477497 110.548444 197.242161 107.254022 196.347096 103.599871 195.35313 99.934595 194.404905 96.2631377 193.471516 93.0404141 192.649392 89.2712985 194.906834 88.653208 198.227474 88.0079216 201.687812 89.9746854 204.940457 93.408796 205.83923 97.0728362 206.794872 100.739349 207.736915 104.419459 208.635688 107.726243 209.441741 111.217218 207.200371 111.977469 203.909402M142.029645 205.068411C143.379555 201.428812 141.180389 198.270125 137.762349 197.07959 137.092339 196.84717 136.709123 196.690163 135.769625 196.274774 134.844962 195.870512 133.935133 195.440287 133.036429 194.985337 131.239022 194.076674 129.502188 193.061691 127.807384 191.973767 125.152067 190.268941 121.290238 191.811815 119.915605 194.433958 118.312278 197.492507 119.753665 200.546111 122.375605 202.328822 125.907374 204.73338 129.654238 206.67928 133.587766 208.342073 136.906912 209.746483 140.69457 208.675867 142.029645 205.068411M147.46093 170.123068C144.831573 168.570305 141.926548 167.470018 139.109291 166.301737 136.209211 165.101312 133.218889 163.784677 130.153161 163.091126 127.725302 162.540982 125.171352 163.914486 124.341874 166.259703 123.444407 168.803961 124.552025 170.989698 126.684437 172.45345 129.048015 174.077918 131.720638 175.311722 134.258518 176.64072 136.812467 177.978371 139.30708 179.477975 141.969814 180.590624 148.922095 183.492166 154.104166 174.042066 147.46093 170.123068M159.640402 155.191069C161.263508 152.095432 159.808523 148.983723 157.144553 147.182468 152.456955 144.008945 147.032593 141.667437 142.028533 139.016859 135.517568 135.567647 130.415849 145.410883 136.730261 149.112296 141.616884 151.976749 146.466422 155.365384 151.634894 157.687112 154.553518 158.995093 158.087759 158.150716 159.640402 155.191069M173.723717 130.886361C174.926521 128.32974 174.199646 124.80017 171.431837 123.525568 170.140028 122.932156 168.839566 122.359759 167.537867 121.789836 167.013727 120.982547 166.293033 120.275397 165.400511 119.703 164.378189 119.046537 163.176621 118.75354 162.026973 118.387602 161.616561 118.256557 161.204913 118.118094 160.798209 117.972213 160.664702 117.915344 160.168993 117.718776 160.026832 117.659435 158.265274 116.927559 156.522259 116.112853 154.826219 115.236332 149.698541 112.585755 144.122129 119.879788 148.845576 123.738208 152.076953 126.380132 156.059928 129.150628 160.251817 130.250915 162.276681 131.24859 164.310199 132.233903 166.364732 133.178418 168.952058 134.368953 172.426963 133.646967 173.723717 130.886361M197.05181 154.167926C198.339911 151.711444 197.392996 148.372261 194.856353 147.118676 190.844946 145.135688 186.69385 143.51122 182.635468 141.641969 179.386785 140.147311 175.569458 141.402132 174.278885 144.882251 173.074845 148.131187 174.951368 152.073674 178.502916 152.788242 182.431498 153.578222 186.267368 154.928237 190.005579 156.366027 192.629991 157.376065 195.635147 156.870428 197.05181 154.167926M193.496554 174.890646C189.020343 172.948455 184.770353 170.364637 180.260765 168.548546 177.052875 167.257873 173.329498 167.961315 171.607498 171.244866 169.942363 174.418389 171.297217 178.161835 174.304845 179.901276 178.893549 182.55309 184.487267 184.048985 189.553137 185.532517 195.710554 187.335009 199.493267 177.490537 193.496554 174.890646M179.856286 196.612401C175.689121 194.426664 170.757995 191.970182 166.145804 190.991051 159.140367 189.50381 155.319332 199.359409 161.767251 202.796258 165.944307 205.022793 171.273482 206.320884 175.883201 207.330922 182.229754 208.724206 185.72691 199.690731 179.856286 196.612401M170.348325 228.579306C171.06531 225.471306 169.052807 222.485698 166.046415 221.693244 162.608596 220.785817 159.172013 219.700366 155.655078 219.162586 152.505289 218.68291 148.979702 220.327158 148.344305 223.733101 147.724978 227.068576 149.617571 230.169158 152.913229 231.044442 156.355993 231.959287 159.947098 232.338824 163.464033 232.88155 166.524817 233.355044 169.615269 231.755302 170.348325 228.579306M138.174986 229.417255C132.811197 227.285914 127.238493 223.961565 121.55577 222.898367 114.398282 221.559479 110.15571 231.621537 117.021458 235.131326 122.228252 237.793031 128.571096 238.608973 134.173468 240.213661 140.396403 241.996372 144.362071 231.874973 138.174986 229.417255M181.290504 254.906316C178.849046 253.378278 175.736343 252.588297 173.088443 251.424961 170.37379 250.23319 167.740725 248.89183 165.168232 247.42066 160.234634 244.599476 154.802855 252.01961 159.353237 255.685171 162.019679 257.838765 164.803559 259.860078 167.694986 261.703367 170.545619 263.523166 173.746091 265.548188 177.087488 266.244211 184.079328 267.707963 187.063468 258.519954 181.290504 254.906316M207.064381 242.730102C202.176522 240.351505 197.167517 238.445167 192.442833 235.701868 189.616924 234.061329 185.741496 235.44225 184.269205 238.249835 182.663406 241.312093 184.021969 244.705673 186.814502 246.42657 191.804964 249.50119 197.195949 252.481854 202.873728 254.032145 209.504602 255.838346 213.281135 245.756508 207.064381 242.730102M208.851033 219.553002C204.395837 217.427842 199.838038 216.039503 195.615244 213.388926 193.102088 211.812673 189.50233 213.217083 188.200631 215.699527 186.711033 218.540491 188.023857 221.479121 190.509817 223.115952 194.945234 226.034801 199.605636 229.132911 204.748149 230.621389 211.214611 232.495584 214.946641 222.461961 208.851033 219.553002M225.873862 203.276057C221.147943 201.006253 216.222998 199.353351 211.608335 196.802912 206.635179 194.054668 200.93144 201.621919 205.721641 205.17127 210.665129 208.834358 215.887993 212.396072 221.814244 214.228234 228.204063 216.202568 231.870576 206.15411 225.873862 203.276057M224.434824 187.764739C226.666131 184.596161 225.313749 181.072772 222.360513 179.037861 217.220472 175.495927 211.908603 172.228448 206.432322 169.230476 200.336714 165.896238 195.79993 175.006362 201.483889 178.663269 206.339608 181.788577 211.008663 185.153722 215.520724 188.758705 218.315729 190.990185 222.261618 190.84925 224.434824 187.764739M244.016919 240.767636C241.926537 238.85388 239.445522 237.277627 237.163532 235.595054 234.692406 233.772782 232.228697 231.695837 229.512808 230.261756 223.435743 227.054853 216.923542 235.727336 222.435672 240.320104 224.811612 242.30062 227.602909 243.83113 230.240919 245.430873 232.673723 246.903278 235.080567 248.601923 237.654295 249.811001 243.243069 252.439326 248.824426 245.165073 244.016919 240.767636M238.951544 270.123772C240.44485 267.272917 239.136971 264.286073 236.623815 262.651715 232.345393 259.868855 228.421755 256.388736 223.940599 253.939672 221.259323 252.470975 217.72879 253.404364 216.035222 255.890516 214.476398 258.178865 214.311986 262.188111 216.864699 263.996784 221.465765 267.258082 226.654016 269.556321 231.481303 272.451681 234.041433 273.98961 237.620177 272.661848 238.951544 270.123772M208.957221 282.221606C210.099452 279.140804 208.718638 276.198465 206.036126 274.488695 204.285693 273.372337 202.325111 272.651587 200.423864 271.839353 198.269201 270.917091 196.139261 269.748809 193.868397 269.160341 188.172075 267.692881 183.747784 275.621124 188.429201 279.484489 190.337864 281.063215 192.617382 282.146193 194.806658 283.288513 197.018186 284.440723 199.277925 285.544718 201.703312 286.178928 204.736899 286.971382 207.907704 285.060098 208.957221 282.221606M231.239876 302.780148C232.343786 299.798249 230.974097 297.228029 228.538821 295.489824 228.180329 295.24875 227.334781 294.6677 227.211163 294.597232 226.779736 294.34874 226.323585 294.13981 225.882268 293.907389 225.000871 293.442549 224.129364 292.955456 223.254148 292.477017 221.240409 291.370549 219.335454 290.152817 217.14865 289.419705 214.859243 288.651977 211.797223 290.210922 210.797153 292.334845 209.647505 294.781437 210.208731 297.24781 211.990067 299.207308 213.498208 300.863919 215.97057 302.1719 217.884178 303.352545 219.983213 304.64569 222.021675 305.705179 224.345695 306.539666 227.135756 307.541051 230.312741 305.286082 231.239876 302.780148"/>
      <path d="M228.46329 295.432461C228.490486 295.451005 228.511502 295.472021 228.539934 295.490566 228.736486 295.626556 228.78717 295.658699 228.46329 295.432461M219.957377 326.932795C221.528563 323.937296 220.228101 320.501683 217.436804 318.840126 213.43405 316.457821 209.37196 313.975377 205.140513 312.017115 201.993196 310.562017 198.127658 311.537439 196.457578 314.724561 194.796151 317.891902 196.134935 321.683563 199.164814 323.406933 203.217015 325.715062 207.600513 327.578131 211.869045 329.4548 214.828462 330.755363 218.382482 329.940656 219.957377 326.932795M210.927446 356.133778C212.471436 353.188966 211.096803 350.199649 208.547798 348.491114 204.056753 345.479544 199.947687 342.004369 195.618582 338.773978 192.894039 336.739066 189.185496 336.459668 186.709426 339.151042 184.490481 341.563019 184.457105 345.876389 187.086461 348.062126 192.016351 352.157911 197.665697 355.464952 203.287848 358.514847 205.971597 359.969945 209.521909 358.812789 210.927446 356.133778M183.603398 301.214775C185.001519 298.242765 183.974252 294.971577 181.144634 293.318674 177.662313 291.286235 174.228202 289.013958 170.590122 287.273281 167.806242 285.939338 164.006222 286.797314 162.614282 289.756961 161.139519 292.890923 162.329961 295.911147 165.09777 297.737128 168.465127 299.96119 172.176142 301.734011 175.710383 303.674966 178.395368 305.147371 182.278212 304.034722 183.603398 301.214775M176.11276 325.828676C176.728378 323.163263 175.341383 320.800738 173.155815 319.382728 171.1668 318.090819 168.699383 317.339163 166.502689 316.449043 164.071122 315.462495 161.543132 314.04943 158.96075 313.572227 155.896257 313.007249 152.769956 314.513034 151.70684 317.529549 150.602931 320.649912 151.925644 323.506948 154.627936 325.262461 156.892619 326.732394 159.994197 327.435836 162.558036 328.32101 165.225715 329.239564 167.81675 330.05427 170.630297 330.325015 173.148398 330.569798 175.586147 328.110843 176.11276 325.828676M154.448195 379.501759C155.062577 376.836346 153.676818 374.473821 151.49125 373.055811 149.502235 371.762666 147.034818 371.01101 144.838125 370.12089 142.405321 369.134341 139.877331 367.722513 137.296185 367.24531 134.231692 366.680332 131.104155 368.186117 130.041039 371.202632 128.93713 374.322995 130.259843 377.180031 132.962135 378.935544 135.228054 380.405477 138.329632 381.108919 140.893471 381.994093 143.559914 382.912647 146.152185 383.726117 148.965733 383.998098 151.482597 384.241644 153.921582 381.783926 154.448195 379.501759M150.898996 410.303597C151.513378 407.638184 150.127619 405.275659 147.940815 403.857649 145.953036 402.564504 143.485619 401.812847 141.288926 400.922728 138.856122 399.936179 136.328132 398.524351 133.746986 398.047148 130.682493 397.482169 127.554956 398.987955 126.49184 402.00447 125.387931 405.124833 126.710644 407.981869 129.412936 409.737382 131.677619 411.207315 134.780433 411.910757 137.344272 412.795931 140.010715 413.714484 142.602986 414.527955 145.415297 414.799936 147.933398 415.043482 150.372383 412.585764 150.898996 410.303597M183.580529 395.363191C184.194911 392.697778 182.809152 390.335253 180.623584 388.917243 178.634569 387.625334 176.167152 386.873678 173.970458 385.983558 171.537654 384.995773 169.010901 383.583945 166.428519 383.106742 163.364026 382.541764 160.237725 384.047549 159.173373 387.064064 158.070699 390.184427 159.392177 393.041463 162.095705 394.796976 164.360388 396.266909 167.461966 396.970351 170.025805 397.855525 172.693483 398.774079 175.284519 399.588785 178.098066 399.85953 180.614931 400.104313 183.053916 397.645358 183.580529 395.363191M141.835318 437.044141C139.846303 435.752232 137.378885 435.000576 135.180956 434.10922 132.749388 433.122671 130.221398 431.710843 127.640252 431.23364 124.57576 430.668662 121.449458 432.174447 120.385107 435.190962 119.282433 438.310089 120.602674 441.167125 123.307438 442.923874 125.572122 444.393807 128.673699 445.097249 131.237539 445.982423 133.905217 446.900977 136.496252 447.715683 139.3098 447.986428 141.825428 448.231211 144.265649 445.772256 144.792262 443.490089 145.40788 440.824676 144.020885 438.462151 141.835318 437.044141M194.139986 374.50411C195.544287 371.826334 194.271021 369.190592 191.996448 367.621757 187.912107 364.805518 184.245594 361.342706 179.716227 359.200239 176.701182 357.773575 172.967916 358.757652 171.372006 361.801365 169.792167 364.815408 171.039473 368.529184 173.972931 370.146234 178.282257 372.524831 183.083584 374.009599 187.260639 376.647814 189.584659 378.117747 192.937182 376.802348 194.139986 374.50411M156.951956 341.443347C150.484257 338.849638 144.059825 336.037108 137.417825 333.909476 130.803021 331.788025 126.781725 342.528798 133.171544 345.366053 139.540348 348.190946 146.225614 350.339595 152.777373 352.704593 159.174609 355.015194 163.340539 344.00244 156.951956 341.443347M155.426014 271.360049C156.171431 268.137075 154.089703 265.375232 151.108034 264.449261 146.24119 262.936058 141.543703 260.938235 136.716416 259.302641 130.19927 257.095886 126.081552 268.008502 132.497331 270.682569 137.702888 272.850999 143.077803 274.243046 148.516999 275.6796 151.525863 276.474526 154.74117 274.327113 155.426014 271.360049M138.345208 287.971283C132.54752 284.844738 126.545861 281.634127 120.257409 279.622705 113.64755 277.509908 109.953841 287.892161 116.066756 290.923512 121.55169 293.644557 127.328364 295.761063 132.815771 298.511779 139.654324 301.938738 145.112062 291.618299 138.345208 287.971283M127.038603 318.534148C128.49606 315.75747 127.465085 311.791494 124.509377 310.413045 120.563487 308.570993 116.68806 306.586768 112.681598 304.881943 109.562714 303.555418 105.862824 304.346635 104.196452 307.525103 102.680894 310.415518 103.742774 314.587952 106.840643 316.013379 110.806312 317.838124 114.895598 319.377289 118.921839 321.064807 121.913397 322.319628 125.438985 321.587752 127.038603 318.534148M94.1252864 284.772045C91.2820704 282.681501 88.1730754 281.010055 85.2606332 279.018413 82.3061608 276.994628 79.5507136 274.651883 76.4800402 272.812303 70.2360905 269.068857 64.4705427 278.103568 69.3546935 282.938647 72.0458593 285.600351 75.5454874 287.683477 78.8584523 289.493387 82.1355678 291.283516 85.6228342 293.077353 89.2485528 294.024341 94.1994573 295.317487 98.5829548 288.049415 94.1252864 284.772045M103.554751 262.908984C100.953826 261.02737 98.3541377 259.14823 95.7532131 257.269089 94.4527508 256.328282 93.1572332 255.381294 91.8530623 254.447905 91.106409 253.910125 90.3535749 253.378526 89.5995045 252.851872 88.2273437 247.24412 79.5135045 246.778043 77.9942382 252.959428 76.6393839 258.491767 80.8473437 261.587404 84.9403387 264.268888 88.9715246 266.908339 93.0286704 269.503284 97.0734543 272.121719 102.401394 275.572168 108.788741 266.693227 103.554751 262.908984M112.963694 244.230819C108.663021 241.784227 104.378418 239.325272 99.9961568 237.027033 93.4518151 233.600074 88.1288201 243.69922 94.6583276 247.197883 99.0208101 249.535683 103.459936 251.70164 107.897825 253.884905 114.193694 256.981778 119.070428 247.707229 112.963694 244.230819M87.4324794 214.136997C81.8956251 211.129135 74.9050221 209.190653 68.7092834 208.131164 60.9089819 206.797221 58.1522985 218.2266 65.9278764 220.174973 71.7342181 221.630071 77.7395849 223.381875 83.6299869 224.390677 89.6773839 225.425441 93.1114945 217.222744 87.4324794 214.136997M147.871342 108.22281C149.045714 105.049287 147.568477 102.289917 144.940357 100.465173 142.87099 99.0286191 140.19095 98.4760033 137.795231 97.7775069 135.441543 97.0913733 133.126176 96.4608721 130.653814 96.455927 126.277734 96.4448005 124.247925 102.256538 127.423673 105.122228 129.25693 106.776366 131.46104 107.885306 133.614467 109.048643 135.866789 110.267612 138.059774 111.642352 140.591472 112.191259 143.673271 112.860084 146.782266 111.165149 147.871342 108.22281M66.9134834 235.292537C62.6709106 231.638103 56.865805 229.515415 51.8246593 227.20605 49.1742874 225.99079 45.9305487 226.796842 44.5262472 229.482036 43.1936442 232.020112 44.1677548 235.492814 46.7995839 236.785959 49.1483276 237.939406 51.3895236 239.221425 53.5961065 240.63078 55.7705487 242.019119 57.8337347 243.775869 60.145393 244.910771 66.0098352 247.791296 72.1610714 239.812365 66.9134834 235.292537M53.5401075 256.224682C55.0569015 252.996763 53.7799266 250.081622 51.0281879 248.160448 48.3320774 246.280071 45.0735045 244.960964 42.1585899 243.436634 39.4674241 242.030988 35.6575146 243.038553 34.3224392 245.879517 32.934208 248.832983 33.9577658 252.073264 36.7651327 253.718749 39.6058764 255.382778 42.4515648 257.448596 45.4789719 258.738033 48.3469116 259.958238 52.0913035 259.30672 53.5401075 256.224682M28.1875206 267.14657C28.9292291 264.419343 27.6003347 261.070269 24.6532794 260.29636 23.2774101 259.936603 21.8978322 259.597863 20.5182543 259.262832 19.8618422 258.559391 19.0298925 257.988231 18.049601 257.579023 16.9308573 257.109238 15.6959126 257.030116 14.4992894 256.8694 14.0715709 256.812532 13.6426161 256.747009 13.2173698 256.674069 13.075209 256.640689 12.5547769 256.533133 12.4027266 256.50099 10.5422744 256.085601 8.68305829 255.584909 6.86092764 255.016221 1.35126935 253.29656-2.87523317 261.44857 2.44776181 264.427997 6.08831457 266.467854 10.4928271 268.505238 14.8120432 268.861286 16.9790683 269.491787 19.1510382 270.108689 21.3403146 270.682322 24.0920533 271.405544 27.3901839 270.090145 28.1875206 267.14657M55.2048724 286.023405C56.0467116 283.381481 54.5348623 280.256173 51.8189729 279.462484 47.5244804 278.207663 43.1533447 277.327433 38.8316563 276.191295 35.3728221 275.283868 31.8324 277.182789 31.1660985 280.833515 30.5442995 284.24193 33.0772342 287.799935 36.698008 287.885238 40.7057065 287.982904 44.7171136 288.645548 48.6469327 289.41204 51.4073246 289.951056 54.2777367 288.932364 55.2048724 286.023405M55.3014181 307.049136C50.5557196 305.914234 45.9225136 304.106797 41.1644533 303.101704 37.7834985 302.387136 34.2368955 303.726024 33.1119709 307.259303 32.0241317 310.675136 34.0069658 314.126821 37.2704834 315.316119 42.2498201 317.130974 48.0190764 317.632902 53.2654281 318.213952 59.6441216 318.921103 61.6590965 308.56852 55.3014181 307.049136M45.6412824 330.809388C41.1564181 329.381488 35.8742171 327.818834 31.1618955 327.65441 24.0056442 327.405918 21.9535839 337.775808 28.8996844 340.040667 33.4006191 341.508128 38.873192 341.860467 43.5892221 342.055799 50.080408 342.324071 51.9556945 332.820811 45.6412824 330.809388M41.8277879 363.941979C41.9934362 360.757329 39.4938784 358.166093 36.3947729 357.907711 32.8518784 357.609768 29.2793156 357.138747 25.7228231 357.220341 22.5384211 357.294518 19.3503106 359.525998 19.3156975 362.990045 19.2872653 366.382389 21.6879286 369.107143 25.0837176 369.397668 28.6340291 369.701792 32.2362603 369.449592 35.7939889 369.374179 38.8918583 369.308656 41.6559588 367.198332 41.8277879 363.941979M57.1737377 387.968525C54.5060593 386.886782 51.3018784 386.650653 48.4932754 385.96452 45.6117377 385.262315 42.7858281 384.399393 39.997004 383.398009 34.6480492 381.475599 30.5884312 389.725274 35.7062201 392.546458 38.7064312 394.203069 41.7981196 395.71009 44.9652151 397.024253 48.0890442 398.321107 51.5923809 399.758897 55.003004 399.865217 62.1444211 400.092692 63.4869136 390.525145 57.1737377 387.968525M80.4427417 371.501564C75.2161688 370.008142 69.9525106 369.000576 64.823596 367.120199 61.755395 365.993951 58.1778874 368.02639 57.2161387 371.049087 56.1653849 374.342528 58.0938271 377.449292 61.1434854 378.659607 66.5913347 380.819383 72.4174553 382.818442 78.2794251 383.358695 85.1216864 383.986724 87.0909226 373.402958 80.4427417 371.501564M78.1768221 348.366621C73.419998 347.047514 68.691606 346.471409 64.071998 344.59474 61.3239678 343.478382 58.0221286 345.487332 57.1716362 348.15769 56.1987618 351.213767 58.0023497 353.879179 60.7355457 355.06106 65.6085709 357.165203 70.7350131 359.406573 76.058008 359.978969 82.7531638 360.702191 84.6865508 350.171585 78.1768221 348.366621M92.1152563 329.380623C87.0666935 327.965086 81.931598 327.192413 76.943608 325.483878 71.5686935 323.640589 67.2643116 332.083124 72.5996683 334.746064 78.1031457 337.495544 83.8649849 340.095434 90.0199296 340.871816 96.6545126 341.706303 98.5211457 331.174461 92.1152563 329.380623M88.0059437 314.354543C89.6525367 310.847226 87.7092603 307.611889 84.4482151 306.119703 78.7692 303.524758 72.9727477 301.228992 67.0588583 299.228696 60.476195 297.002161 57.5897126 306.763803 63.8225367 309.378529 69.148004 311.611245 74.3300744 314.114705 79.3996523 316.880257 82.5395518 318.593737 86.4013809 317.76914 88.0059437 314.354543M116.453804 362.863327C114.061794 361.342706 111.345905 360.221403 108.806789 358.960401 106.057523 357.594315 103.269935 355.977265 100.346367 355.036458 93.8044975 352.933551 88.8968593 362.604945 95.1235025 366.170368 97.8072513 367.709532 100.82106 368.730697 103.697653 369.848291 106.349261 370.875637 109.014467 372.130458 111.757553 372.875933 117.717181 374.492983 121.951101 366.359518 116.453804 362.863327M126.63054 346.451875C124.23853 344.931255 121.523876 343.809952 118.983525 342.548949 116.234258 341.182863 113.44667 339.565813 110.523103 338.625007 103.981233 336.5221 99.0748312 346.193494 105.300238 349.758916 107.983987 351.298081 110.997796 352.319245 113.875625 353.43684 116.525997 354.464186 119.191203 355.719007 121.934288 356.464482 127.893917 358.081532 132.127836 349.948066 126.63054 346.451875M116.602269 392.941325C117.577616 389.875358 115.771556 387.160494 113.0124 385.987267 108.316149 383.988208 103.848591 381.243673 99.0101789 379.609315 96.113807 378.628947 92.7983698 380.161931 91.5621889 382.903993 90.4249025 385.42847 90.9589327 389.405573 93.7873146 390.744461 98.8853246 393.1552 104.391274 394.517578 109.649988 396.531473 112.438812 397.600852 115.730762 395.67226 116.602269 392.941325M89.1648633 410.064501C89.7532854 406.831637 87.8829437 404.173642 84.9445417 402.955909 83.0259889 402.160983 80.9702201 401.792572 78.9564814 401.321551 76.6732553 400.788716 74.375195 400.007389 72.0363407 399.821947 66.1706623 399.365761 63.1914663 407.941813 68.4724312 410.933603 70.6270945 412.156281 73.0598985 412.827579 75.4123508 413.571818 77.791999 414.323474 80.2087327 415.017026 82.7058181 415.221011 85.8321196 415.474448 88.6246523 413.041455 89.1648633 410.064501M114.677907 426.440966C115.24655 423.313185 113.452851 421.019892 110.751796 419.730455 110.357454 419.55614 109.422902 419.130861 109.289394 419.082646 108.822118 418.913276 108.336298 418.784703 107.860369 418.632641 106.912218 418.328517 105.969012 417.999667 105.023334 417.680708 102.850128 416.941414 100.760982 416.073548 98.4802281 415.729863 96.0931628 415.371343 93.347605 417.439634 92.7319869 419.704493 92.0248915 422.313037 93.0051829 424.645892 95.1005095 426.265414 96.8744291 427.635209 99.5359266 428.493185 101.623836 429.323963 103.915716 430.232627 106.106228 430.922469 108.541505 431.340331 111.4626 431.842259 114.199505 429.06929 114.677907 426.440966"/>
      <path d="M110.666376 419.686691C110.698517 419.70029 110.722004 419.716361 110.751672 419.731197 110.970476 419.830099 111.026105 419.853588 110.666376 419.686691M107.760609 452.18606C108.786639 448.963086 106.910117 445.805635 103.871584 444.654662 99.5165186 443.004232 95.0872824 441.263554 90.5789307 440.070547 87.226408 439.184137 83.5883276 440.816022 82.4980161 444.244218 81.4126492 447.651397 83.3880663 451.153769 86.6701266 452.324523 91.0622774 453.894595 95.7029005 454.967683 100.232267 456.074151 103.372167 456.840642 106.73087 455.421397 107.760609 452.18606M103.938585 482.511684C104.947309 479.343106 103.073258 476.638133 100.267128 475.398147 95.322404 473.21241 90.6718915 470.503727 85.8470774 468.073207 82.8110171 466.543932 79.1098915 466.912343 77.1394191 469.991908 75.3729166 472.752515 76.0886653 477.006543 79.0579719 478.701479 84.6232583 481.881183 90.7621327 484.155932 96.8280724 486.183426 99.7244442 487.150195 103.018866 485.393445 103.938585 482.511684M67.493005 433.172246C68.3533869 430.002432 66.7747839 426.958718 63.700402 425.82258 59.9189246 424.425587 56.1411558 422.785048 52.2570754 421.702069 49.2828241 420.872527 45.6904824 422.378313 44.833809 425.534527 43.9264523 428.874947 45.6237286 431.642971 48.6659698 432.962079 52.3670955 434.56553 56.3302915 435.668289 60.1488543 436.965143 63.0464623 437.94922 66.6771256 436.180107 67.493005 433.172246M64.5340824 458.722379C64.6762432 455.991444 62.9010874 453.905845 60.5028965 452.888389 58.319801 451.959945 55.7584342 451.648403 53.4393588 451.153893 50.8742834 450.604986 48.1398513 449.653053 45.514203 449.6308 42.3990271 449.60731 39.5805347 451.632332 39.0576302 454.78731 38.5112382 458.052317 40.3098814 460.636136 43.2767156 461.895902 45.7614392 462.950446 48.9396603 463.104981 51.6184643 463.531496 54.4048161 463.972847 57.0972181 464.32395 59.9157106 464.102656 62.4362834 463.906088 64.4117005 461.061415 64.5340824 458.722379M90.2729759 503.66537C91.1902221 500.784845 89.4793477 498.408721 86.9649558 497.26022 82.4541317 495.194401 78.2436995 492.421432 73.408996 491.098616 70.1936894 490.218387 66.6878804 491.8342 65.6445437 495.109098 64.6110965 498.351852 66.4851467 501.792411 69.6534784 502.875389 74.311408 504.470186 79.2969256 505.098215 83.8683226 506.971174 86.4148553 508.015828 89.4855286 506.137924 90.2729759 503.66537M49.2979055 514.118832C50.2163879 511.238307 48.5042774 508.862183 45.9911216 507.712446 41.4802975 505.647863 37.2698653 502.874895 32.4351618 501.552078 29.2198553 500.671849 25.7140462 502.287663 24.6707095 505.56256 23.6372623 508.805315 25.5113126 512.245873 28.6796442 513.328852 33.3375739 514.923649 38.3230915 515.551677 42.8944884 517.424637 45.4397849 518.469291 48.5116945 516.591386 49.2979055 514.118832M48.2319467 477.417482C41.4107005 475.987109 34.5968714 474.332971 27.6866201 473.390928 20.8035648 472.450121 18.707002 483.726202 25.492399 485.410011 32.2567809 487.086403 39.2127709 488.042045 46.0760472 489.232579 52.7773839 490.398389 54.9666603 478.82931 48.2319467 477.417482M34.560404 408.664664C34.7347055 405.360096 32.2054794 403.002516 29.1076101 402.608144 24.0516302 401.962808 19.0797106 400.811834 14.0410372 400.039161 7.23833367 398.998216 5.07872563 410.459738 11.8616503 411.977886 17.3651276 413.210454 22.8982734 413.64686 28.5068261 414.117882 31.6071678 414.378736 34.4009367 411.704669 34.560404 408.664664"/>
    </g>
    <rect width="246" height="518"/>
  </g>
</svg>
