<svg xmlns="http://www.w3.org/2000/svg" width="528" height="410" viewBox="0 0 528 410">
  <g fill="none" fill-rule="evenodd">
    <g fill="#202225" transform="matrix(-1 0 0 1 528 0)">
      <path d="M71.5735987 276.09654C68.6155792 275.519339 65.8215327 277.595922 65.1994767 280.574551 64.8038595 282.46455 64.4173519 284.358577 64.0113238 286.245892 63.6729669 287.839237 63.386665 289.878235 62.7177596 290.986999 60.5900158 294.505244 63.5337201 299.210108 67.0877681 299.904092 70.6873641 300.607472 74.9844957 297.345612 74.3220971 293.278355 74.027987 293.572325 74.0097677 293.372318 74.2713436 292.681018 74.3377136 292.201807 74.4040836 291.723937 74.4717549 291.243384 74.6044949 290.283618 74.7450431 289.331907 74.9090161 288.376168 75.2356605 286.474088 75.5792228 284.572007 75.9149769 282.668584 76.43943 279.683244 74.4821659 276.664346 71.5735987 276.09654M94.2315787 259.558316C94.493349 265.290106 92.2370746 270.625382 92.0058663 276.252481 91.6989173 283.728672 103.527748 285.514949 106.326166 278.952181 108.955829 272.774149 107.902104 265.156626 107.080915 258.682844 106.059081 250.613845 93.8542042 251.345368 94.2315787 259.558316M131.766537 239.001442C128.92423 238.939642 126.892081 240.871904 125.875332 243.405681 124.587179 246.609638 124.23611 250.229711 123.651446 253.623186 123.003319 257.377844 122.228267 261.162715 122.010874 264.970933 121.771877 269.207627 125.50941 272.911473 129.575057 272.997992 134.133551 273.096871 136.909695 269.530358 137.470055 265.307397 137.933196 261.805429 137.865683 258.245783 137.926444 254.719095 137.991257 251.04409 138.185695 247.304538 137.471405 243.678971 136.954254 241.043569 134.353644 239.056374 131.766537 239.001442M61.0771683 311.098449C58.6278144 310.604864 55.4938186 311.996992 54.5621939 314.606721 53.5589058 317.415519 53.0495835 320.362031 52.3329491 323.262184 51.7135723 325.76556 50.4479447 328.185763 50.0755508 331.110459 49.5995008 334.860069 51.3949259 338.424244 54.8462883 339.6323 58.0404301 340.750365 62.0574218 339.276428 63.4331038 335.785882 64.6155506 332.786194 64.8203033 329.505626 65.254123 326.309594 65.6700269 323.255367 66.1870274 320.011613 65.9323663 316.926025 65.7007398 314.103591 63.7184779 311.632939 61.0771683 311.098449M83.3805856 304.005576C80.675731 303.880011 77.3796371 305.884955 77.1504342 309.043185 76.9603 311.641832 76.6412392 314.170873 75.8833069 316.663063 75.2998814 318.584752 73.9376869 321.639255 73.226637 324.014069 72.087134 327.823326 75.4353194 332.361405 79.004894 332.90188 83.2620772 333.550177 86.2677606 330.924233 87.4880055 326.848833 88.2576584 324.272023 88.2706813 321.42634 88.4660247 318.749897 88.683507 315.754083 88.8736412 312.7842 88.9960564 309.780196 89.124983 306.702491 86.0685104 304.128411 83.3805856 304.005576M110.239894 287.005666C107.467651 286.87765 104.086432 288.928582 103.853288 292.162333 103.676201 294.619984 103.323301 296.95762 102.639158 299.316591 102.59202 299.475278 102.519401 299.705975 102.488825 299.796653 102.292628 300.368727 102.090061 300.934134 101.874753 301.500874 101.251763 303.129084 100.579086 304.654615 100.168856 306.378838 99.3267359 309.909961 101.7499 313.563766 104.872495 314.634572 108.149245 315.76005 111.808198 314.221185 113.343378 310.907423 114.600825 308.187071 115.019974 304.909314 115.33975 301.924928 115.683732 298.701845 115.849353 296.380212 115.995864 292.918431 116.129635 289.76469 112.993026 287.131016 110.239894 287.005666M148.519911 269.119098C144.762904 268.413717 141.606257 270.926385 140.689417 274.414179 139.045897 280.653365 136.485536 286.753633 135.14627 293.050814 134.301419 297.033589 137.221724 301.117518 141.190623 301.862012 145.509959 302.675292 148.949128 299.793073 150.066993 295.86155 151.817818 289.695195 152.396446 283.147152 153.853882 276.891781 154.667493 273.395894 151.972662 269.769182 148.519911 269.119098M162.716685 300.364376C160.524081 305.947398 158.923966 311.781221 159.00279 317.845398 159.046143 321.13442 162.01253 323.85369 165.043289 323.994083 167.999166 324.127662 171.430612 321.989048 171.744591 318.627784 172.203081 313.737187 172.442178 309.207796 173.797941 304.141367 175.564899 297.521069 165.231152 293.963527 162.716685 300.364376M42.0151224 265.902316C42.3297023 270.900283 42.7542459 275.729077 42.2127788 280.727044 41.8522647 284.019948 43.713297 287.251576 47.3212218 287.904296 50.5491453 288.490411 54.4131883 286.32578 54.8238125 283.016891 55.5587602 277.090463 56.2714367 270.948238 55.8970031 264.984512 55.3611038 256.416568 41.4792231 257.337036 42.0151224 265.902316M56.7739619 214.13711C55.5545065 221.346129 55.7316114 229.407912 57.6229841 236.493228 58.9424835 241.43084 67.8315293 241.117633 68.1627561 235.785223 68.5615802 229.292105 68.9847394 223.016126 69.921638 216.56512 71.1208143 208.315149 58.1813378 205.812127 56.7739619 214.13711M79.2295152 237.013185C75.5248393 237.269847 73.4353968 240.365829 73.3331164 243.825415 73.1697335 249.221995 72.91204 254.534358 72.0858269 259.87613 70.8810434 267.657526 82.7362718 269.991543 84.0778719 262.164697 85.1670917 255.813657 85.9667385 249.397113 85.9999464 242.944477 86.0158863 239.492912 82.4706084 236.787269 79.2295152 237.013185M97.5376044 206.311729C96.4473334 212.378886 95.3288657 218.433898 94.1419204 224.480813 92.527997 232.713848 105.176215 235.136123 106.889498 226.911184 108.142236 220.875065 109.466136 214.857838 110.816891 208.843309 112.727551 200.332286 99.0911064 197.669808 97.5376044 206.311729M120.528868 206.361367C118.921486 212.974745 118.134497 219.799288 117.09364 226.522957 115.821631 234.755718 127.897705 237.085263 129.732232 228.937236 131.227377 222.299648 132.992424 215.663405 133.918372 208.915527 135.123575 200.167629 122.617262 197.757385 120.528868 206.361367M160.371153 202.075942C156.695734 201.557532 152.917149 203.730301 152.251392 207.46098 151.879998 209.538641 151.508605 211.613622 151.139963 213.689943 150.516847 217.174143 151.96253 225.378959 155.713604 225.908086 159.390399 226.426496 162.793464 224.955657 164.78936 216.210998 165.259792 214.154771 165.530771 212.057017 165.902165 209.982036 166.523905 206.499175 164.123603 202.605069 160.371153 202.075942M165.810797 232.06762C162.489054 231.601927 158.806543 233.573061 158.290777 237.009646 157.948715 239.300702 157.562559 241.582729 157.264591 243.878945 156.262457 251.567401 158.183883 255.470969 161.727431 255.963752 165.05051 256.429446 169.365035 252.365916 169.904851 246.193222 170.105278 243.890555 170.588975 241.614979 170.931037 239.323923 171.410726 236.11438 169.354345 232.561694 165.810797 232.06762M180.000019 254.070835C179.997304 260.893049 180.291833 267.697401 180.137103 274.523738 180.050238 278.284544 184.001266 281.229158 187.467747 280.985949 191.474423 280.707015 193.749217 277.335068 193.856441 273.564644 194.047817 266.764414 194.159114 259.902351 193.44383 253.129603 192.516811 244.324617 180.001376 245.329056 180.000019 254.070835M193.250323 195.015025C189.501113 195.277348 186.892623 198.599209 187.003398 202.29314 187.124723 206.391261 187.29748 210.488045 187.486061 214.58349 187.649586 218.181057 191.125815 221.371757 194.706225 220.964889 198.438292 220.539284 201.144369 217.477069 200.994032 213.638593 200.830507 209.540471 200.649838 205.445026 200.421694 201.352258 200.217287 197.673049 196.843921 194.764748 193.250323 195.015025M184.039213 164.013632C179.939623 163.758935 177.421023 167.10834 177.270639 171.115028 177.243178 171.89966 177.201332 172.35565 177.071871 173.486724 176.947641 174.595889 176.793335 175.699577 176.608951 176.797788 176.244107 178.995578 175.752418 181.163243 175.175729 183.310367 174.268196 186.676204 177.020872 190.269352 180.097853 190.878708 183.686138 191.590765 186.332891 189.076657 187.328039 185.723144 188.67103 181.205692 189.48441 176.60608 189.955176 171.902398 190.351405 167.929944 188.099572 164.264221 184.039213 164.013632M146.95841 168.9919C146.154522 172.184796 145.923457 175.518652 145.59277 178.784688 145.253781 182.143811 144.820706 185.635916 145.078061 189.007008 145.28007 191.678615 147.585193 193.875476 150.366284 193.99383 153.382591 194.120163 155.359794 192.294321 156.231479 189.640002 157.200018 186.698442 157.649697 183.564058 158.243273 180.53473 158.843767 177.486785 159.633818 174.449478 159.957587 171.361637 160.794682 163.297614 148.986807 160.927876 146.95841 168.9919M126.98475 160.117967C123.37959 159.425587 120.698763 161.86928 119.705624 165.13542 117.951727 170.884667 117.259775 177.123966 116.130323 183.033498 114.65814 190.720619 126.107153 192.858194 127.892207 185.291943 129.274812 179.437591 131.192285 173.457113 131.942657 167.48189 132.364578 164.110645 130.432825 160.780129 126.98475 160.117967M97.2745274 153.062946C94.2640665 152.627881 90.8598378 154.476904 90.4168491 157.717337 90.2106532 159.229451 90.0297329 160.742891 89.8514731 162.256331 89.1849946 163.046874 88.6834728 164.007199 88.3748441 165.104145 88.0183246 166.356281 88.0941515 167.682696 88.0768576 168.977278 88.0728668 169.440197 88.0582335 169.904442 88.0369488 170.368688 88.0196549 170.522552 87.9730945 171.09291 87.957131 171.257386 87.7562562 173.293434 87.463591 175.338766 87.0937686 177.352265 85.9723286 183.444491 95.231192 186.887865 97.7201767 180.832779 99.4256168 176.689057 101.027294 171.734895 100.846373 167.088462 101.237481 164.696935 101.613954 162.304082 101.942538 159.897964 102.35493 156.872411 100.521781 153.529844 97.2745274 153.062946M114.483118 122.09354C111.5357 121.527451 108.378325 123.590894 107.880848 126.656194 107.095851 131.503928 106.721405 136.385601 106.068801 141.246911 105.545915 145.138946 108.048011 148.747257 112.057248 148.988897 115.79635 149.214247 119.285376 145.979256 118.905582 142.020703 118.484331 137.639958 118.670216 133.179119 118.979133 128.792944 119.195777 125.711354 117.727417 122.718003 114.483118 122.09354M137.468159 119.921155C136.859506 125.200279 135.50059 130.445752 135.036271 135.720837 134.705393 139.470872 136.643005 143.126685 140.655756 143.877769 144.532342 144.604625 148.042648 142.005444 148.90865 138.321364 150.22944 132.700349 150.010216 126.398244 149.946219 120.652049 149.868606 113.666161 138.282419 112.851814 137.468159 119.921155M163.562722 126.899703C162.638926 131.883529 161.675985 137.738626 162.105264 142.801053 162.758967 150.48928 173.884975 151.331242 175.371139 143.605712 176.334079 138.600571 176.00527 132.698847 175.606002 127.628426 175.060597 120.648938 164.863605 119.881581 163.562722 126.899703M199.844975 127.015077C196.360952 127.249682 193.874879 130.229697 194.004869 133.543167 194.151109 137.331121 194.111841 141.173112 194.671072 144.926797 195.173432 148.287716 198.022396 151.373172 201.792128 150.963271 205.484678 150.557325 208.129178 147.664299 207.995125 144.03187 207.854302 140.236009 207.104147 136.455964 206.550332 132.699643 206.069637 129.429666 203.407534 126.775199 199.844975 127.015077M210.700205 158.857036C210.17596 164.942012 208.461608 171.606323 209.168318 177.686069 210.05477 185.341657 222.019827 186.531712 223.510864 178.502107 224.643779 172.413207 223.468652 165.742357 223.359718 159.577608 223.23989 152.730212 211.302067 151.838324 210.700205 158.857036M222.809841 106.053297C221.995081 108.991729 222.159108 112.383533 221.789374 115.417343 221.410228 118.529546 220.849576 121.603858 220.135652 124.658573 218.762928 130.515838 228.205277 133.720806 230.575612 127.991583 231.968503 124.632442 233.190644 121.194908 234.192289 117.703806 235.180488 114.261046 236.272214 110.401496 235.93878 106.80979 235.245024 99.2905929 224.740528 99.1037562 222.809841 106.053297M203.835662 84.1329535C202.907675 89.8826681 202.510545 95.6085524 201.147607 101.305311 200.331735 104.713039 203.010334 108.251835 206.414303 108.883337 210.12625 109.573091 213.239801 107.121221 214.150227 103.722759 215.772516 97.6513361 217.171925 91.1986286 216.982816 84.8968461 216.758586 77.5412361 205.018946 76.8197084 203.835662 84.1329535M178.346 90.1184305C177.557619 95.4430646 177.557619 100.638257 176.158708 105.888732 175.326529 109.010162 177.896066 112.320361 180.851829 112.889365 184.234964 113.540618 186.841664 111.23494 187.745514 108.1216 189.355456 102.566398 191.078214 96.7199521 190.997252 90.8802483 190.897709 83.5371342 179.425046 82.8332955 178.346 90.1184305M156.326563 77.1173425C155.463935 82.833752 155.305383 88.5610708 154.116245 94.2515711 152.835739 100.383893 162.510079 103.968922 164.682774 97.7725084 166.92534 91.3783662 168.971732 84.7224036 168.999949 77.8796213 169.028165 70.5022893 157.418957 69.865466 156.326563 77.1173425M140.378886 82.3468454C136.181815 81.0541948 132.790627 83.5312249 131.552217 87.1820716 129.400848 93.5383738 127.60311 99.9805007 126.154775 106.509773 124.544419 113.777136 135.983162 115.575492 138.082402 108.6303 139.874505 102.695199 141.993469 96.8776112 144.422388 91.1445276 145.927078 87.5953501 144.461836 83.6064865 140.378886 82.3468454M189.113187 46.4047257C187.855085 49.2115494 187.047761 52.3166828 186.074897 55.2482541 185.020536 58.4238971 183.714046 61.6741175 183.11683 64.982644 181.781052 72.3847938 192.281362 76.4445185 195.151566 69.1915235 196.390567 66.0660508 197.059093 62.6476921 197.843496 59.3676407 198.564231 56.3452205 199.514174 53.2753419 199.93439 50.1905478 200.846132 43.485358 192.002492 39.9558111 189.113187 46.4047257M221.10404 42.1112955C217.693018 41.4552286 215.022073 43.7812841 214.125979 46.9409785 212.600487 52.3169321 210.242908 57.5451351 209.126791 63.028174 208.454721 66.3112198 210.526937 69.714906 213.625927 70.6976509 216.475558 71.6004207 220.663994 70.4916133 221.728105 67.2356777 223.644305 61.3676739 224.385716 55.1919693 225.855202 49.2019696 226.636617 46.0246536 224.14169 42.6968759 221.10404 42.1112955M242.672591 70.0129739C239.164352 69.8022245 236.584414 72.1812611 235.671981 75.5302853 235.075594 77.716135 234.948646 79.9952007 234.71062 82.2418434 234.439535 84.7883988 233.907944 87.3862905 234.013733 89.9477064 234.288785 96.3701596 243.780734 98.4695479 246.273395 92.3456564 247.29294 89.8463846 247.690972 87.1188009 248.176281 84.4668709 248.666879 81.7865707 249.091359 79.0738475 248.982925 76.3368071 248.848043 72.9134802 245.903133 70.2061608 242.672591 70.0129739M257.107807 39.0124249C253.776792 38.8149062 251.614098 40.9941514 250.613236 43.9948646 250.480826 44.4317601 250.15759 45.4677518 250.12254 45.6142557 250.005708 46.1270192 249.934311 46.6528635 249.835652 47.1721674 249.639634 48.2081591 249.416355 49.2402265 249.20346 50.2736021 248.708871 52.652982 248.070188 54.9564938 248.001387 57.3960449 247.932586 59.9507062 250.435391 62.5694629 252.874588 62.9265661 255.683753 63.3359921 257.990539 62.0069927 259.411998 59.5988353 260.614071 57.5608617 261.170971 54.6543295 261.772008 52.3547419 262.427567 49.8314743 262.867634 47.4416299 262.994852 44.8320296 263.146734 41.6978932 259.909184 39.1772417 257.107807 39.0124249"/>
      <path d="M251 45.2199953C251.008 45.1929953 251.02 45.1729953 251.027 45.1469953 251.086 44.9629953 251.099 44.9149953 251 45.2199953M285.801945 44.1167204C282.218039 43.4230822 279.082122 45.9027024 278.246144 49.3859133 277.047509 54.3833856 275.762209 59.4723417 275.072894 64.5749521 274.560908 68.3694809 276.782183 72.1380666 280.595416 72.876764 284.384649 73.6113652 287.876557 70.9774515 288.701869 67.2225201 289.808506 62.1963737 290.352492 56.9654129 290.94581 51.8505137 291.357799 48.3058585 289.399184 44.8130895 285.801945 44.1167204M318.922397 44.1130776C315.32268 43.4479674 312.613698 45.8011273 311.63171 48.9604008 309.900631 54.5273733 307.558022 59.848255 305.543652 65.3167912 304.275647 68.7594017 305.171831 72.6635986 308.801512 74.3689412 312.056648 75.8973645 316.613839 74.5777858 318.072521 71.1857237 320.806018 64.8259399 322.475808 57.9726442 323.885459 51.2310871 324.556916 48.0106234 322.195239 44.7196581 318.922397 44.1130776M271.030755 89.0775116C267.637423 88.5577969 264.685353 90.6939474 263.897016 94.2132759 262.926755 98.5415043 261.703607 102.898378 261.071389 107.297539 260.587549 110.665455 262.600324 114.398944 265.979464 114.917294 269.55472 115.465655 272.208745 113.236747 273.190618 109.728331 274.38538 105.460122 275.02663 100.972296 275.88851 96.6167863 276.541372 93.3102544 274.249905 89.5699448 271.030755 89.0775116M298.21785 89.0121026C295.321589 89.2174933 293.35402 91.4056428 292.589292 94.1240493 291.894085 96.5994773 291.894085 99.401114 291.669782 101.965142 291.420556 104.803024 290.768635 107.87583 291.084758 110.709685 291.458596 114.071112 293.953473 116.841873 297.344249 116.992225 300.851768 117.150631 303.34271 114.873881 304.288454 111.509769 305.079417 108.692024 304.835438 105.247366 304.940375 102.303433 305.046624 99.2427081 305.072858 96.2920624 304.476029 93.2836925 303.946097 90.5921344 300.696986 88.8362452 298.21785 89.0121026M361.217287 95.0121026C358.322364 95.2174933 356.353502 97.4056428 355.590092 100.124049 354.89358 102.599477 354.894891 105.401114 354.67059 107.965142 354.420056 110.803024 353.769452 113.87583 354.08426 116.708343 354.458095 120.071112 356.952949 122.841873 360.343694 122.992225 363.851181 123.150631 366.3421 120.873881 367.289148 117.509769 368.078791 114.692024 367.834815 111.247366 367.939751 108.303433 368.047311 105.242708 368.072233 102.292062 367.476721 99.2836925 366.946794 96.5921344 363.697712 94.8362452 361.217287 95.0121026M395.217287 89.0121026C392.322364 89.2174933 390.353502 91.4056428 389.590092 94.1240493 388.89358 96.5994773 388.894891 99.401114 388.67059 101.965142 388.420056 104.803024 387.769452 107.87583 388.08426 110.708343 388.458095 114.071112 390.952949 116.841873 394.343694 116.992225 397.851181 117.150631 400.3421 114.873881 401.289148 111.509769 402.080103 108.692024 401.834815 105.247366 401.939751 102.303433 402.047311 99.2427081 402.072233 96.2920624 401.476721 93.2836925 400.946794 90.5921344 397.697712 88.8362452 395.217287 89.0121026M368.217287 60.0121026C365.322364 60.2174933 363.353502 62.4056428 362.590092 65.1240493 361.89358 67.5994773 361.894891 70.401114 361.67059 72.9651419 361.420056 75.8030241 360.769452 78.8758303 361.08426 81.7096852 361.459407 85.0711124 363.952949 87.8418734 367.343694 87.9922248 370.852493 88.1506307 373.3421 85.8738813 374.289148 82.5097693 375.080103 79.6920235 374.834815 76.2473661 374.939751 73.3034325 375.047311 70.2427081 375.072233 67.2920624 374.476721 64.2836925 373.946794 61.5921344 370.697712 59.8362452 368.217287 60.0121026M343.43424 56.1044974C340.200888 55.4913253 337.858289 57.6556208 336.948699 60.5274226 335.312512 65.6821115 332.868997 70.6050079 332.077815 76.0090085 331.549014 79.6058359 333.757059 83.1864917 337.43175 83.8845646 341.071458 84.5745517 344.541626 82.0935629 345.295133 78.5209929 346.40521 73.2706222 346.426739 67.7925018 347.847638 62.5987316 348.641511 59.7067153 346.20876 56.6300735 343.43424 56.1044974M320.679503 105.199739C320.019248 112.756245 319.110539 120.335622 319.000725 127.924415 318.889539 135.483612 331.599106 136.263882 332.543504 128.711411 333.481039 121.184501 333.600461 113.544586 333.991672 105.973282 334.37602 98.5822463 321.331522 97.7374028 320.679503 105.199739M249.832955 129.013523C246.123665 129.258084 243.839209 132.263263 243.819767 135.620663 243.786438 141.100696 243.180953 146.558133 243.003196 152.034178 242.765723 159.430826 255.840589 160.245588 256.612721 152.809065 257.237648 146.774782 256.97379 140.810944 256.736318 134.766028 256.604389 131.421919 253.243669 128.787569 249.832955 129.013523M271.991933 141.149836C270.557657 148.278386 269.100204 155.648466 269.000677 162.935307 268.895697 170.596042 281.035232 171.154154 282.269091 163.724032 283.376155 157.05671 283.751085 150.276127 284.889507 143.596523 286.306059 135.273968 273.6648 132.831376 271.991933 141.149836M306.733004 143.106246C303.370836 142.459332 299.559388 144.833179 299.06019 148.414507 298.392343 153.193724 297.553151 157.945529 297.048555 162.746675 296.655943 166.481508 298.659482 170.149183 302.507357 170.889297 306.007143 171.563623 310.023666 169.088354 310.528261 165.342555 311.170473 160.546892 311.476738 155.712852 311.957048 150.898 312.314582 147.320784 310.428421 143.816208 306.733004 143.106246M282.352849 188.374921C281.02809 192.076593 280.243307 195.926717 279.048646 199.669626 277.8344 203.466142 276.20608 207.156818 275.226849 211.020688 273.234815 218.873511 284.918432 222.078969 288.538787 215.317541 290.533619 211.592502 291.633155 207.192556 292.499074 203.082642 293.355201 199.016713 294.148378 194.726732 293.976313 190.56321 293.744096 184.879432 284.430216 182.570183 282.352849 188.374921M256.08258 184.543651C254.944473 187.923178 253.806367 191.301329 252.670963 194.680856 252.10191 196.370619 251.523395 198.057631 250.963803 199.74877 250.639402 200.71887 250.323111 201.691723 250.012227 202.665951 244.583917 205.94778 246.874999 215.377706 253.823938 214.98829 260.042976 214.636026 261.938018 209.151175 263.438373 203.922266 264.913045 198.774542 266.335003 193.611681 267.783994 188.455701 269.693905 181.662247 258.372311 177.743316 256.08258 184.543651M234.450592 181.694809C233.288329 187.016854 232.108876 192.32527 231.123795 197.685475 229.658735 205.688303 241.650277 208.056988 243.194673 200.045982 244.226033 194.695317 245.05641 189.318758 245.907943 183.935383 247.11384 176.300532 236.103412 174.137642 234.450592 181.694809M210.986897 217.859086C209.624352 224.752827 209.821861 232.851904 210.678623 239.817441 211.754245 248.586148 224.422836 247.810205 223.989117 238.867532 223.664829 232.190557 223.582089 225.20431 222.772036 218.582563 221.936627 211.785469 212.386807 210.787236 210.986897 217.859086M81.6195051 188.013729C78.003388 187.792316 75.6380874 190.273528 74.589784 193.684677 73.763848 196.369313 74.0365128 199.419282 74.0682796 202.213241 74.0987227 204.955998 74.1754924 207.642018 74.9418657 210.290675 76.2972478 214.980486 82.8835577 215.258636 84.826625 210.923087 85.9477272 208.419733 86.3951092 205.697733 86.9166137 203.011713 87.4606196 200.202531 88.1846372 197.407188 87.9569753 194.514977 87.6803397 190.997273 84.9735463 188.21992 81.6195051 188.013729M353.002154 184.204684C353.134663 189.541098 354.013682 194.614168 353.536125 199.984002 353.25274 203.1789 356.314875 205.960733 359.289108 205.9995 362.692354 206.042276 364.840047 203.336639 365.194278 200.137731 365.821399 194.433703 366.511495 188.423553 365.446176 182.735566 364.10928 175.583808 352.821103 176.903207 353.002154 184.204684M330.00171 176.227888C330.129238 181.969536 330.943555 187.597435 330.748278 193.370229 330.538389 199.591251 340.56392 201.404474 341.630636 194.964078 342.733218 188.319203 343.600672 181.452246 342.470193 174.755913 341.249381 167.536874 329.839644 168.943848 330.00171 176.227888M315.336615 185.077835C311.055717 184.462705 308.234436 187.575426 307.70329 191.522967 306.780338 198.396493 306.216082 205.300227 306.003623 212.230048 305.767712 219.945259 317.127335 219.850518 317.890253 212.382458 318.541424 206.001859 319.529218 199.687167 320.83156 193.402683 321.638626 189.512811 319.503005 185.677861 315.336615 185.077835M356.046111 140.271885C355.219383 143.218653 354.911889 146.373428 354.404793 149.389533 353.854541 152.656312 353.052089 156.040429 353.00084 159.352543 352.886204 166.763465 364.539962 168.786202 366.28108 161.240608 367.032282 157.988496 367.140175 154.557711 367.391026 151.237596 367.620298 148.178824 368.082887 145.034716 367.987133 141.969277 367.779439 135.311714 357.945022 133.500984 356.046111 140.271885M336.046089 134.271885C335.219362 137.218653 334.913217 140.372095 334.404773 143.389533 333.854521 146.656312 333.05207 150.040429 333.000821 153.352543 332.887533 160.763465 344.539932 162.786202 346.281049 155.240608 347.032251 151.988496 347.141492 148.556377 347.392343 145.237596 347.621614 142.178824 348.082855 139.034716 347.987101 135.969277 347.779407 129.311714 337.946347 127.500984 336.046089 134.271885M387.150863 130.000495C383.711661 129.957889 381.499896 132.671363 381.160336 135.882796 380.580309 141.347024 379.166576 146.813916 379.002742 152.310099 378.903648 155.602749 381.503859 158.537242 384.692025 158.949989 387.626511 159.329449 391.526828 157.530674 392.013047 154.196749 392.890354 148.18663 392.56797 142.085973 392.988126 136.037243 393.212738 132.827142 390.21351 130.04177 387.150863 130.000495M417 128.229395C417.003 128.201395 417.01 128.179395 417.014 128.153395 417.039 127.960395 417.044 127.912395 417 128.229395M208.340725 275.894275C206.332249 280.352506 205.347783 285.387714 204.186058 290.097315 202.349386 297.556353 214.674309 299.907246 216.392353 292.428671 217.487266 287.670881 218.782617 282.788057 218.995327 277.910442 219.231217 272.496225 210.467828 271.174255 208.340725 275.894275M188.225952 306.275249C186.744268 312.239487 184.833335 318.054718 183.201672 323.970166 181.435545 330.369557 191.786649 334.035395 194.106145 327.725671 196.390732 321.506934 197.821992 314.991502 198.905458 308.453653 200.08072 301.365928 189.942948 299.365541 188.225952 306.275249M239.229321 237.534612C238.062398 243.29197 236.863899 249.077405 236.066273 254.896267 235.017415 262.57096 246.742933 265.003062 248.275035 257.27355 249.418619 251.504159 250.168196 245.641175 250.939738 239.815628 251.915835 232.455142 240.732592 230.116633 239.229321 237.534612M268.758271 217.008237C265.853247 216.861535 263.615575 218.687443 262.866613 221.448571 261.875456 225.104315 261.451615 229.096687 261.044885 232.859837 260.697388 236.067619 262.376958 239.220387 265.758475 239.894951 268.80829 240.502714 272.367504 238.41222 272.828201 235.204439 273.435005 230.977607 274.057604 226.465232 273.995739 222.195176 273.956251 219.437977 271.417152 217.143149 268.758271 217.008237M204.496216 9.03116086C202.672414 6.94165931 199.208111 6.21128231 196.912203 8.05416305 193.661535 10.6653625 190.869785 14.0218445 189.477207 18.0666967 188.41563 21.1508119 189.030158 24.989695 192.284782 26.4477389 195.114775 27.7147194 199.19888 26.8217353 200.442442 23.5614625 200.934328 22.2700909 201.501382 21.016661 202.193715 19.8255638 202.317675 19.6751522 202.799012 18.9732314 202.969128 18.7537118 203.478157 18.0924429 204.029386 17.4772459 204.610946 16.8837299 206.662889 14.7928733 206.285732 11.0840758 204.496216 9.03116086M333.091732 1.35539882C330.723541-.559129344 327.151075-.525681962 325.134403 1.97083065 322.724551 4.95299926 320.508685 8.10909426 318.616996 11.4645356 317.089845 14.1724357 318.554504 18.2128795 321.288534 19.4370537 324.389705 20.825789 327.356778 19.5454232 329.046669 16.6916926 329.797877 15.4233678 330.543876 14.1456778 331.335443 12.9027731 331.31331 12.9415721 331.40835 12.7997552 331.649205 12.4291582 331.867928 12.1013738 332.089254 11.7762653 332.313184 11.4511567 332.762346 10.8036154 333.224527 10.1667772 333.690614 9.53261485 335.469036 7.11905174 335.590114 3.37428282 333.091732 1.35539882M360.207243 8.33406214C357.805345 6.29071857 354.83261 6.67375843 352.721929 8.9427473 350.224677 11.6295978 348.2377 14.7510245 346.583173 18.1106323 345.161879 20.992485 346.450451 25.1279227 349.235054 26.4400083 352.017081 27.7493082 355.630236 26.7506188 356.940713 23.5706915 357.519282 22.1666763 358.159702 20.7974829 358.891611 19.47704 359.21762 18.8920337 359.555226 18.3098131 359.900563 17.7345568 359.878657 17.7972361 360.67886 16.5603655 360.770349 16.4266498 362.424875 14.0211595 362.571772 10.3439768 360.207243 8.33406214M391.292625 22.9802384C389.044213 21.5238151 385.323117 21.545573 383.643483 24.0341396 381.284253 27.5249321 379.134642 31.1149954 377.535119 35.0341478 376.296088 38.0707429 377.194652 42.0306915 380.377678 43.4449588 383.253616 44.7205192 387.364579 43.8148441 388.636988 40.5484305 389.980161 37.0984341 391.507586 33.7477084 393.367466 30.5520082 394.838814 28.0212856 393.577087 24.4611395 391.292625 22.9802384M425.650672 35.8742066C423.655785 34.5336817 420.598768 34.6499518 419.067026 36.8166776 416.800461 40.0229942 414.533897 43.227943 412.267332 46.4328917 410.309962 49.2042216 410.559646 53.0233496 413.438132 55.0245617 416.38389 57.0750176 419.602618 55.6893526 421.362052 52.7607161 423.386695 49.3875179 425.411337 46.0143196 427.43598 42.6397535 428.767198 40.4237838 427.567937 37.1641198 425.650672 35.8742066M413.480782 65.6220434C410.182561 64.0508751 406.917767 65.6274847 405.123803 68.4324623 402.920346 71.8767897 400.61382 75.295271 398.663858 78.8851525 397.023104 81.9077811 398.57611 85.8894344 401.650085 87.3544979 405.077839 88.9868805 408.452666 87.3436153 410.320451 84.4379742 412.526693 81.0058897 414.405621 77.3575144 416.356975 73.7839567 417.947587 70.8742346 416.436367 67.0299735 413.480782 65.6220434M452.778749 45.6052778C449.788136 44.0761137 446.838738 45.6120261 445.209484 48.3356387 442.650334 52.614059 440.617953 57.0760328 439.225682 61.913212 437.362023 68.391577 447.583171 72.0343077 449.976177 65.7165522 451.564215 61.5258598 453.203772 57.4363919 455.384266 53.537226 456.931091 50.7717739 455.379115 46.9333426 452.778749 45.6052778M451.188629 74.9369859C448.859079 73.5395755 445.034838 73.572317 443.287328 75.9454264 440.695234 79.4605618 438.048965 82.9364074 435.683298 86.5916768 434.084423 89.0603915 435.484654 92.5964816 437.886438 94.0371109 440.291001 95.4790498 444.201367 95.431902 446.011388 92.9998578 448.62154 89.4951997 450.948312 85.821595 453.332038 82.1781125 454.898963 79.7853583 453.515402 76.331777 451.188629 74.9369859M474.342534 61.8957408C470.647111 66.7479742 467.59966 72.1585277 465.470406 77.8489375 464.390924 80.7324312 465.125198 84.0183052 468.13162 85.4607481 470.790004 86.7361128 474.694816 85.7044041 475.866259 82.8404029 478.012491 77.5955353 480.515249 72.6430549 483.351896 67.7295594 486.372466 62.4986151 478.060594 57.0156609 474.342534 61.8957408M472.744129 94.5260603C469.82864 93.2869933 466.200626 94.2601661 464.79329 97.198297 464.377764 98.0637826 463.932267 98.9133146 463.440448 99.7402455 463.331458 99.925042 462.92002 100.843706 462.7252 100.883591 463.219743 100.157699 463.285137 100.05533 462.922745 100.575153 462.774245 100.78388 462.621659 100.991278 462.46771 101.196016 461.523582 102.46832 460.907787 103.815074 461.011328 105.430381 461.105332 106.898117 461.90641 108.62643 463.113477 109.551742 464.324632 110.482371 465.873656 111.140459 467.45129 110.974276 468.960805 110.814739 470.793203 110.216477 471.676024 108.922902 473.131044 106.79043 474.46345 104.651311 475.481147 102.284853 476.685489 99.4863166 475.801306 95.8276124 472.744129 94.5260603M507.081091 82.3291714C504.529237 80.262049 501.492439 80.7140634 499.240725 82.9377041 496.657415 85.4865254 494.570845 88.3578285 492.652039 91.4571627 491.012404 94.1031332 492.67301 98.2535695 495.321853 99.4422998 498.349477 100.799692 501.480643 99.6015168 503.078337 96.6924334 503.398138 96.1108865 503.734977 95.5428327 504.071817 94.9720802 504.099341 94.9316013 504.116379 94.9032661 504.150456 94.8546914 504.394239 94.4998264 504.639332 94.1436121 504.89229 93.7941443 505.753393 92.6067634 506.686583 91.48145 507.672199 90.4006635 509.665712 88.214803 509.370814 84.1831049 507.081091 82.3291714M490.37108 114.983817C488.217058 113.544839 484.508214 113.513646 482.919816 116.043046 480.489439 119.919199 478.206278 123.821121 476.515862 128.12178 475.300673 131.209954 476.24338 134.869107 479.22776 136.398954 482.06234 137.850138 485.755687 136.586116 487.109053 133.548123 488.763312 129.837432 490.442106 126.140303 492.390799 122.588293 493.798403 120.027699 492.618081 116.485182 490.37108 114.983817M519.089474 113.387017C516.832195 111.546863 512.905004 111.328447 511.040181 114.014963 508.965961 117.004531 507.097187 120.114228 505.55107 123.430055 504.232787 126.259907 505.341672 130.154536 508.215291 131.452746 511.082324 132.748226 514.549894 131.71075 515.955096 128.689784 516.579338 127.353352 517.247039 126.044221 517.950299 124.751472 518.278223 124.149463 518.608782 123.548819 518.953826 122.957731 519.151371 122.620551 519.352867 122.284737 519.55568 121.950287 519.269898 122.388484 519.315992 122.314769 519.696595 121.730506 521.357288 119.170944 521.710235 115.523398 519.089474 113.387017M492.729281 156.578383C489.685364 155.172235 486.516318 156.409375 484.911367 159.428537 483.372809 162.326013 481.692526 165.169406 480.514029 168.253467 479.424909 171.096861 480.04927 174.251229 482.55182 175.992689 484.740274 177.515115 488.437919 177.431287 490.072237 174.915093 492.149609 171.716107 493.745623 168.302142 495.420799 164.857079 496.824015 161.971772 495.581677 157.895295 492.729281 156.578383M525.960598 144.455239C523.654108 142.533148 519.599923 142.285846 517.69924 145.114713L513.380567 151.54458C511.565453 154.245674 511.310041 158.251976 514.017153 160.507926 516.301603 162.412156 520.633241 162.803718 522.475581 159.831965 523.844695 157.624103 525.213809 155.417614 526.582923 153.209751 527.461956 151.794631 528.094653 150.540257 527.988339 148.774791 527.897583 147.236019 527.124864 145.425215 525.960598 144.455239M500.142986 180.044543C497.844479 178.490271 493.808713 178.519825 492.117137 181.163565 490.267629 184.051797 488.368522 186.911819 486.666504 189.896774 485.110672 192.625146 486.458973 196.334174 488.850151 197.951584 491.194341 199.536753 495.151793 199.448091 496.90341 196.829875 498.810348 193.975227 500.558049 191.025199 502.320107 188.073829 503.922927 185.389788 502.487176 181.629712 500.142986 180.044543M84.9650655 351.507695C84.6198051 347.389939 79.1079213 345.331061 76.3048984 348.653951 74.6468299 350.616319 73.8321246 353.114853 73.1375099 355.539665 72.4838351 357.827754 71.7905851 360.33031 72.0594242 362.71625 72.8127195 369.375434 82.0010121 369.857984 83.7641599 363.49235 84.2731801 361.65196 84.1217022 359.642677 84.367342 357.745989 84.6320871 355.701855 85.1370133 353.567914 84.9650655 351.507695M113.719732 359.026978C112.844708 352.827018 104.441454 352.110109 102.790154 358.289507 101.566765 362.869225 101.175884 367.71213 100.16508 372.356274 98.3574276 380.660355 111.969683 383.196266 112.979116 374.916859 113.604525 369.794319 114.445262 364.167338 113.719732 359.026978M114.873276 323.007364C112.241504 322.87086 109.564041 324.642761 109.114969 327.435128 108.526215 331.10218 107.846079 334.737426 107.122864 338.379298 106.370929 342.156349 109.165881 345.729306 112.896836 345.98376 116.870603 346.255443 119.562425 343.081395 119.627697 339.235429 119.689053 335.543197 119.796099 331.868193 119.994527 328.179936 120.140736 325.444556 117.330119 323.134591 114.873276 323.007364M136.174314 318.106597C133.621178 323.183275 131.469002 329.258357 130.199736 334.795941 128.173691 343.633768 142.190049 346.479825 143.843016 337.557342 144.822847 332.271039 145.815954 327.030424 146.874118 321.76159 148.169938 315.300852 139.101857 312.282795 136.174314 318.106597M134.313132 352.00755C131.36063 351.867498 128.462087 353.686875 127.921118 356.546266 127.543408 358.534224 127.140794 360.520885 126.674537 362.493281 126.21243 364.459193 125.386449 366.406951 125.0793 368.387128 124.55355 371.783384 126.677304 375.167969 130.401828 375.866932 134.350488 376.608687 137.239346 374.15389 138.380777 370.879531 139.816905 366.764861 139.818289 361.599802 139.996767 357.30877 140.112985 354.50125 137.074703 352.139821 134.313132 352.00755M167.761685 338.423014C166.636925 331.677121 158.195975 331.012976 156.20077 337.626308 155.153353 341.097001 154.158373 343.499171 152.635095 346.933712 151.110507 350.374947 152.39651 354.59816 155.787834 356.286641 159.404634 358.088938 162.976864 356.278607 164.945851 353.06768 167.381522 349.090844 168.535122 343.049266 167.761685 338.423014M60.9745076 353.529787C60.696423 347.787702 52.0261894 345.679948 49.7466791 351.28923 48.9894535 353.152416 48.5520904 355.08792 47.853615 356.840657 47.1185839 358.688064 46.2699689 360.477617 45.558438 362.334229 44.2620154 365.722677 45.1967974 369.641022 48.6356463 371.330644 51.9935504 372.980819 55.8488733 371.441094 57.5669922 368.232785 59.8164746 364.02911 61.2082031 358.333046 60.9745076 353.529787M32.288113 316.878645C30.3785675 321.518096 28.4703563 326.156172 26.5621451 330.794248 25.1076345 334.32612 26.5314536 338.378073 30.1877464 339.652134 33.814682 340.913811 37.3682249 338.611972 38.2769604 334.872343 39.4685915 329.982482 40.6575539 325.095372 41.8491851 320.206887 43.2449815 314.470863 34.5512782 311.376519 32.288113 316.878645M32.3126537 281.946148C30.4851717 280.866128 27.4723335 280.507846 25.6796739 281.965549 23.0833121 284.076437 21.3686548 286.812055 19.5397799 289.519218 17.7903001 292.109971 15.8764583 294.580434 15.1410082 297.607075 14.4919178 300.281902 16.1494663 303.212829 18.7625428 304.396323 21.5748037 305.670358 24.6210714 304.817983 26.754991 302.867481 28.9293047 300.879469 30.1494833 297.960183 31.4755221 295.447037 32.7792745 292.980453 34.4326444 290.357364 34.9131941 287.629507 35.3018127 285.422905 34.3769284 283.165858 32.3126537 281.946148M62.8356048 161.011837C60.926279 165.839631 58.8780236 170.496147 56.5977941 175.130384 54.9854462 178.406934 56.8195716 182.520376 59.8887682 183.652477 63.3135735 184.915474 66.2438405 182.588608 67.2367409 179.054446 68.5176971 174.496797 69.977095 170.104855 71.6047379 165.683671 73.9295778 159.374258 65.3465339 154.664827 62.8356048 161.011837M85.6178767 131.295314C82.7638782 130.418875 79.2160433 131.512067 77.9547782 134.324478 77.135939 136.147362 76.2258056 137.924472 75.1794331 139.638307 74.1990734 141.243091 72.9139313 142.639199 71.7959279 144.647872 68.1160676 151.263568 78.1092762 157.421523 83.1318642 151.798047 86.4704245 148.062077 88.3103547 142.779214 89.8005577 138.157382 90.7149047 135.316698 88.3412543 132.131363 85.6178767 131.295314M97.1563081 99.9195854C96.2917161 100.805216 95.6334318 101.870884 94.9547882 102.895515 94.7471232 103.222497 94.5340291 103.54683 94.320935 103.869841 94.3630109 103.801002 94.2381405 103.981041 93.9246072 104.437756 92.8292764 105.954845 91.7258018 107.467962 90.592467 108.958574 88.4533823 111.772999 88.2552184 116.071417 91.3226875 118.425154 94.008759 120.485006 98.8312005 120.794778 101.030006 117.71162 103.707934 113.957289 106.8867 109.571499 107.857161 105.009643 109.156085 98.9028977 101.277032 95.6992725 97.1563081 99.9195854M54.4520167 190.643098C50.9836701 189.009663 47.6715304 190.675126 45.761106 193.532302 42.9922346 197.671938 40.7389843 202.209256 38.661294 206.705205 35.1086233 214.390622 46.8393484 219.952841 50.8412868 212.439575 53.1747141 208.057059 55.5551417 203.611822 57.4448307 199.033133 58.7428688 195.88637 57.7724506 192.205804 54.4520167 190.643098M43.8831706 231.53525C41.2596166 230.272416 37.3419572 231.284293 36.2014588 234.146806 33.7355899 240.325432 30.3589536 246.125611 28.296813 252.451858 26.0117382 259.469242 37.5757661 263.138305 40.5853768 256.547681 43.132807 250.96625 44.3494292 244.848015 46.5271149 239.118963 47.6173172 236.253766 46.8574381 232.967177 43.8831706 231.53525M123.654429 71.6251539C120.566677 70.0561937 117.390173 71.6016954 115.734364 74.4663933 114.471976 76.6494145 113.228132 78.8448549 111.937926 81.0099373 111.335211 82.0227929 110.720575 83.028749 110.112562 84.0374648 109.790673 84.5728708 108.175928 86.283962 109.603897 85.2407483 104.54507 88.9375333 107.404983 97.2363257 113.489087 96.9948411 117.98494 96.8182123 119.725526 92.8827025 121.532345 89.2742319 123.112649 86.1197525 124.745939 82.9983909 126.383202 79.8756494 127.915819 76.9502354 126.437513 73.0381841 123.654429 71.6251539M149.152614 49.0707636C147.200369 47.8107591 143.969301 47.4767176 142.048346 49.0921422 141.120519 49.8737993 140.240308 50.6327416 139.534235 51.6174958 139.070322 52.2615278 138.655385 52.9403001 138.225483 53.6083831 138.175146 53.6872169 137.781976 54.2938362 137.616001 54.5570609 137.471793 54.7641666 137.239157 55.1035527 137.203785 55.1556632 136.953462 55.5110833 136.699058 55.8638311 136.441933 56.2165789 135.861021 57.006253 135.261063 57.7825654 134.651581 58.5508608 132.372828 61.4182729 132.296643 65.9665817 135.40391 68.3663357 138.160181 70.4961842 143.144868 70.8315618 145.397773 67.6274359 146.741897 65.7167186 148.047929 63.7752696 149.246485 61.773693 150.398786 59.8536226 151.674888 57.7558421 151.938815 55.508411 152.240835 52.9362916 151.442251 50.5472269 149.152614 49.0707636M170.932945 32.2976416C168.852151 36.103212 166.770003 39.9087824 164.687855 43.7156459 162.991541 46.816481 164.583613 50.8716182 167.809724 52.3754845 171.02365 53.8728852 175.378832 52.5991894 176.877491 49.3936138 178.71054 45.4716651 180.543588 41.5497164 182.375283 37.6290608 185.71782 30.4782609 174.738484 25.3433917 170.932945 32.2976416M221.870238 15.4877902C219.262617 13.2423547 215.257291 13.5971093 213.003791 16.1569864 209.826089 19.7636585 205.991116 24.5501585 205.104471 29.397128 204.59341 32.1881332 205.991116 35.1282966 208.558496 36.3820317 210.976983 37.5645471 214.5021 37.0552592 216.180152 34.8084799 217.602003 32.9043613 218.449748 30.7314892 219.606008 28.668806 220.496677 27.0750977 221.208943 26.0471156 222.53824 24.3700937 224.646871 21.7094339 224.516759 17.7654762 221.870238 15.4877902M247.758454 9.31568168C244.64289 8.33257769 242.006332 9.73017958 240.319691 12.3354052 237.340407 16.9373946 234.614795 22.2820262 232.566537 27.3529829 229.333583 35.3599663 240.81219 41.1058106 244.903307 33.2768486 247.682892 27.9548019 250.106259 21.8927702 251.817188 16.1562255 252.665906 13.310538 250.431443 10.1592912 247.758454 9.31568168M278.392482 7.11196326C275.687466 6.56961083 273.523993 8.06040543 272.114906 10.2271169 270.987367 11.9594067 270.355568 14.04517 269.492064 15.9231664 268.613742 17.832193 267.669412 19.7061421 266.677932 21.5585049 264.999421 24.697943 266.598452 28.8546291 269.70895 30.3737555 272.750746 31.8591536 277.153132 30.6449317 278.509681 27.3382009 280.45088 22.605434 282.669586 17.5218919 282.992895 12.3857335 283.150508 9.89522955 280.65699 7.56662188 278.392482 7.11196326M299.387238 17.8094217C296.81026 21.9007685 294.451926 26.077324 291.742936 30.0914505 289.845267 32.9059989 291.855696 37.0652464 294.700823 38.4086141 297.673836 39.8118942 301.961466 38.6629087 303.289834 35.5448045 305.172376 31.1272682 307.393198 26.9001201 309.416002 22.5464903 312.413768 16.0972602 303.078065 11.9499952 299.387238 17.8094217M332.521638 27.5749817C329.267751 26.1841002 325.788428 27.3871327 324.093583 30.4220253 323.248876 31.9354748 322.412317 33.4462598 321.626006 34.9903513 320.118571 37.9453082 321.422299 42.069991 324.583838 43.4222368 327.802416 44.7984634 331.572362 43.6713698 333.178934 40.5179059 333.965245 38.9751466 334.697234 37.4124034 335.422432 35.8416667 336.785914 32.8960356 335.70219 28.935221 332.521638 27.5749817M364.621544 33.5404842C361.831581 32.3124554 357.58276 33.1408545 356.406882 36.3975591L353.468561 44.5400146C352.417689 47.4484309 353.057828 51.0964396 356.170608 52.4673916 358.988044 53.7092964 362.701126 52.7712767 364.018494 49.7379761 365.162777 47.1043053 366.305687 44.4706345 367.44997 41.8369636 368.739864 38.8647176 367.746687 34.9169866 364.621544 33.5404842M396.403023 52.2722583C394.261968 51.5712883 392.30781 52.2815691 390.723319 53.742034 389.377946 54.9843603 388.568523 56.7214889 387.691762 58.2896931 386.919444 59.6743415 386.206217 61.0722911 385.552082 62.5128043 384.257555 65.3619081 385.255248 69.1474119 388.380253 70.4655547 391.334853 71.7118713 395.21706 70.7701507 396.599538 67.7268504 398.137304 64.3377205 399.930678 60.4803905 399.999389 56.7560719 400.037868 54.7316387 398.251366 52.87746 396.403023 52.2722583M425.671151 77.8655276C423.574625 76.5266146 420.431152 76.6695026 418.811349 78.7982684 415.90097 82.6218441 413.737281 87.138691 411.592028 91.4240064 410.142106 94.3188105 411.468238 98.0365432 414.340427 99.4442542 416.984789 100.739507 421.239737 99.7511986 422.32224 96.6830768 423.797183 92.5022812 425.873956 88.6522448 427.53195 84.5640618 428.517002 82.1323206 427.970483 79.3340982 425.671151 77.8655276M445.00554 100.032667C442.508352 98.4403399 438.487361 98.6006595 436.58961 101.137242 434.275895 104.229508 431.647055 107.255202 429.715691 110.58523 428.060236 113.439735 429.449586 117.218115 432.112039 118.916416 434.810907 120.636455 438.850104 120.35114 440.949535 117.756136 443.375295 114.757616 445.23383 111.218357 447.288443 107.967129 448.964906 105.313704 447.466313 101.600538 445.00554 100.032667M461.629001 112.574767C458.440588 111.162758 455.324845 112.448201 453.601518 115.381647 451.909336 118.26895 450.165247 121.127247 448.617108 124.097609 447.114388 126.978319 448.471767 131.100965 451.435681 132.412776 454.696765 133.857745 457.852736 132.535387 459.621482 129.549205 461.325343 126.675086 462.834551 123.687585 464.391774 120.729089 465.876326 117.909026 464.524138 113.857573 461.629001 112.574767"/>
      <path d="M415.210264 138.294436C415.597576 135.332823 416.179229 132.401485 416.838892 129.484626 418.459308 122.322789 407.369582 120.390501 405.370064 127.278554 404.028841 131.899985 402.850481 136.634616 402.188081 141.394257 401.544841 146.024902 402.428954 149.6486 406.760557 152.153465 412.541503 155.495481 417.617622 148.182272 414.709358 143.442376 414.489014 141.928663 415.015923 139.784456 415.210264 138.294436M433.415927 137.007798C430.603177 136.860252 427.549595 138.817615 427.137302 141.925572 426.684435 145.34622 425.844144 148.636919 425.130812 152.000714 424.401775 155.437606 426.804851 159.35504 430.227532 159.907325 433.843926 160.48939 436.991746 158.281604 437.871304 154.634898 438.796671 150.800036 438.944573 146.690385 438.999545 142.754 439.041429 139.704249 436.182868 137.152638 433.415927 137.007798M466.168 141.305742C463.374262 140.362809 460.82475 141.670924 459.35681 144.266713 456.777578 148.830124 454.582129 154.160691 453.182675 159.250073 452.332407 162.340493 454.57696 165.752491 457.293166 166.670897 460.240676 167.665609 463.393645 166.357494 464.826696 163.39516 467.063495 158.769068 468.827349 153.09921 469.883077 148.013916 470.474905 145.163316 468.756278 142.180543 466.168 141.305742M395.869413 176.335884C395.440811 168.642683 384.276567 169.601239 384.108972 177.074398 384.005943 181.662264 383.152861 186.039714 382.172023 190.507932 380.387557 198.630213 393.034049 201.137311 394.800656 193.035658 395.983432 187.611635 396.1785 181.864427 395.869413 176.335884M407.767902 172.809098C406.776392 177.124933 405.901609 181.659258 406.008945 186.104568 406.182023 193.298526 417.803755 194.285774 418.697321 186.966387 419.174963 183.053812 419.260832 179.14933 419.899477 175.247545 421.195551 167.338777 409.563085 165.000133 407.767902 172.809098M432.587841 174.106757C429.496423 173.507607 426.957195 175.503405 426.149388 178.263871 425.100085 181.85877 424.525299 185.504281 424.055019 189.207245 423.625695 192.595587 425.735598 195.744543 429.451231 195.986665 433.007279 196.217844 435.876973 193.412237 435.738573 189.970546 435.608646 186.702581 436.134003 183.526266 436.879672 180.343112 437.534956 177.551184 435.430702 174.65803 432.587841 174.106757M465.716194 182.591801C462.678764 181.107332 459.544094 182.567443 457.918009 185.281979 455.230377 189.76651 452.007919 194.099482 449.640372 198.754517 448.06831 201.846597 449.518821 205.84262 452.592716 207.344681 455.977241 208.999654 459.325302 207.339268 461.167478 204.386568 463.918587 199.977817 465.957946 195.000718 468.401125 190.405224 469.882699 187.620322 468.475406 183.940949 465.716194 182.591801M86.9409069 382.497727C86.7031873 379.894664 84.7498113 377.618957 82.0669756 377.099659 79.6177844 376.62506 76.3263866 377.871375 75.4176185 380.287753 73.995376 384.070082 73.3256859 387.358091 71.6113879 390.947162 70.1375263 394.036656 71.4021947 397.861054 74.6107302 399.374248 77.8654513 400.912421 81.6662483 399.48994 83.31806 396.472754 85.5064388 392.472189 87.357935 387.091212 86.9409069 382.497727M31.6044248 351.314544C28.8941291 350.392285 24.9004288 351.508352 23.858825 354.527747 22.9261644 357.234377 21.72646 359.789969 20.594513 362.412392 19.2034936 365.633615 20.2636975 369.898728 23.66751 371.391718 26.9291648 372.821888 31.0264941 371.705821 32.5942142 368.300146 34.0078193 365.228623 34.9723657 361.867057 35.830626 358.592369 36.639729 355.503471 34.4382781 352.279574 31.6044248 351.314544M19.7235823 257.550493C16.8746173 255.316803 12.7690293 255.449053 10.3208037 258.256704 7.60851471 261.365885 5.54908592 265.153503 5.054133 269.277035 4.65206668 272.638811 6.50316408 276.339146 10.1589156 276.905173 13.9473622 277.493682 16.7259987 275.287764 17.814099 271.820189 17.3350695 273.3437 18.0834702 271.223744 18.1949341 270.947343 18.4244967 270.373382 18.6407898 269.800742 18.9114879 269.241328 19.1437045 268.759941 19.3918444 268.201849 19.7169475 267.760136 19.9810109 267.451995 20.3445956 267.028798 20.4321744 266.921676 22.6707416 264.258176 22.579182 259.789473 19.7235823 257.550493M5.62186688 317.369324C3.64109188 321.47109 2.10618344 325.824236.541806806 330.125184-.718919327 333.596437.201000758 337.625399 3.50656318 339.35347 6.40469581 340.869997 10.883861 339.681776 12.1125565 336.176181 13.8153055 331.325768 15.5821158 326.43277 16.7967178 321.413396 18.5340599 314.235992 8.64940332 311.097166 5.62186688 317.369324M48.0621621 380.09373C44.4776424 379.512645 41.9429876 381.689322 40.8865529 385.071923 39.9352361 388.11681 38.8288704 391.16033 38.1403483 394.280416 37.4413145 397.452458 39.4359262 400.672354 42.2925045 401.678658 44.9716965 402.622067 48.85843 401.474936 49.9043529 398.412274 51.1158365 394.862869 51.9410118 391.205449 52.8476535 387.560335 53.6465494 384.339071 51.1933609 380.600984 48.0621621 380.09373M106.941722 389.549911C104.841088 388.502898 101.735862 388.940415 100.288818 390.953267 98.9681893 392.787261 98.0994252 394.82763 97.2010747 396.899644 96.8272103 397.759543 96.4560356 398.618067 96.083516 399.477967 95.3855461 401.087698 95.1085098 402.522699 95.0063023 404.282397 94.8664394 406.691491 97.0800395 408.979512 99.1026729 409.678438 101.320308 410.446156 104.04629 409.832532 105.569989 407.909109 107.131344 405.941659 107.681382 403.518806 108.450628 401.155114 109.015459 399.420181 109.771257 397.601322 109.956845 395.778335 110.217743 393.230281 109.305944 390.729006 106.941722 389.549911M131.307629 382.282498C128.934233 381.443045 125.877508 382.504627 124.849906 385.065233 123.737539 387.835702 122.626477 390.607534 121.514111 393.379366 120.186574 396.688122 121.474989 400.465663 124.859034 401.662157 128.331756 402.889994 131.323278 400.62783 132.323495 397.192339 133.160704 394.323751 133.996609 391.455164 134.832513 388.586577 135.601911 385.945569 133.598869 383.091971 131.307629 382.282498M158.760248 365.582498C155.931108 364.191673 152.001298 365.357032 150.705283 368.379088 149.185631 371.917271 147.445037 375.337288 145.654595 378.741007 144.036597 381.81875 145.568374 385.87306 148.599595 387.364394 151.760148 388.918206 155.579486 387.507008 157.154374 384.395308 158.897663 380.949485 160.294719 377.362406 161.534152 373.704699 162.584975 370.603865 161.939662 367.145818 158.760248 365.582498M25.41314 216.587917C22.4189807 215.251777 17.8599299 216.153672 16.5975841 219.698453 16.0237905 221.313847 15.4486928 222.929241 14.8735952 224.544635 14.204604 226.424585 13.3230484 228.406082 13.0648413 230.395595 12.7088285 233.13602 13.8159893 236.230522 16.4567438 237.408998 18.7962567 238.45386 22.3694258 238.222708 23.9369256 235.828344 25.9791091 232.712463 27.1110473 229.099539 28.4477255 225.620229 29.7100714 222.334659 28.8532933 218.124479 25.41314 216.587917M39.6835341 179.567156C36.6303539 178.209217 33.1639903 179.342584 31.6155182 182.40123 30.1429895 185.314101 28.8751216 188.335976 27.5454694 191.321078 26.2570067 194.215564 27.2828856 198.108147 30.2871531 199.443761 33.26439 200.767554 36.7642201 199.686719 38.2483335 196.646459 39.6783854 193.712574 41.1753705 190.80233 42.4599716 187.797528 43.7239779 184.846571 42.7573091 180.934288 39.6835341 179.567156M56.3910524 142.607309C53.146504 141.146108 49.5654448 142.387034 47.8987883 145.626849 46.2957244 148.74216 45.1060125 152.042174 44.1733208 155.433855 43.2936229 158.638097 45.894296 162.406023 48.9984106 162.905403 52.6377631 163.490978 55.1390727 161.300546 56.2333957 157.923915 55.8611139 159.074542 56.6427731 156.882741 56.7249136 156.681621 56.9435132 156.131619 57.1753613 155.588457 57.4178082 155.050769 57.9888169 153.792057 58.6287176 152.573022 59.3163128 151.377246 61.0160904 148.415169 59.3613575 143.944006 56.3910524 142.607309M75.5474842 110.571028C72.5250157 109.215594 68.9213033 110.311901 67.4268606 113.448005 66.1352074 116.158874 64.8422625 118.871072 63.5493177 121.581941 62.2305398 124.348622 63.3555697 128.178389 66.1817069 129.446119 69.2158002 130.806869 72.1878942 129.568374 73.8257105 126.737908 75.3317781 124.134676 76.8378457 121.530116 78.3439133 118.925555 79.9752713 116.107048 78.3852462 111.844074 75.5474842 110.571028M99.6705785 71.5751964C96.7209 70.2029527 93.3085267 71.3336815 91.8266184 74.4582804 90.3999765 77.4676108 88.9733346 80.4783134 87.5454074 83.4890161 86.2280128 86.2691818 87.3796085 90.1690984 90.1120776 91.4411683 93.0540446 92.8106675 95.9805885 91.5742759 97.5576062 88.7021699 99.1628997 85.7847798 100.768193 82.8673897 102.372201 79.9499996 103.92994 77.1135719 102.423612 72.8554997 99.6705785 71.5751964"/>
    </g>
    <rect width="528" height="410"/>
  </g>
</svg>
