<svg xmlns="http://www.w3.org/2000/svg" width="401" height="352" viewBox="0 0 401 352">
  <g fill="none" fill-rule="evenodd">
    <g fill="#202225" transform="rotate(102 222.122 195.432)">
      <path d="M22.430693 72.7341898C19.5237161 73.1297364 16.8450511 74.3585485 13.9918802 75.0129455 11.1663394 75.6615257 8.27099629 75.8345773 5.38292424 75.9232844-1.64675368 76.1370541-1.88815345 88.6883884 5.22732317 89.0315833 11.7465714 89.3442396 19.8320098 89.866303 25.9687994 87.2385355 33.3562143 84.0741625 30.5466699 71.6275317 22.430693 72.7341898M78.9931334 63.2256561C77.5229215 59.4097945 73.4743855 57.8188827 69.9231911 59.143673 65.6172589 60.749127 61.4654736 62.0840969 56.9355922 62.8126588 48.66256 64.1447203 50.0905996 77.2966456 58.4625185 76.4648343 64.0917868 75.9035071 69.8359382 74.74886 75.1685466 72.7609473 78.7095614 71.4405196 80.3673671 66.7957552 78.9931334 63.2256561M123.71317 52.5492418C121.848865 49.2292678 118.421279 48.1327893 114.996602 49.2816195 111.04259 50.6078641 107.49285 52.860444 103.407958 53.9002081 100.042903 54.7552868 97.3307914 57.435406 97.7757813 61.3894181 98.1742364 64.9187992 101.470943 67.9217543 104.914525 67.3647897 110.737204 66.4224581 116.811463 65.1703785 121.95066 62.0932584 124.946344 60.3002107 125.290994 55.3602405 123.71317 52.5492418M171.21512 39.2822881C169.670743 35.2759243 165.729819 34.0558374 162.087009 35.1741292 155.986575 37.0471588 149.525495 38.7500452 143.647556 41.2716549 137.009062 44.1190089 139.798248 54.3421442 146.723222 53.8855205 153.585665 53.4332595 160.887281 51.1719543 167.367266 48.8801106 170.950453 47.6105805 172.582083 42.8334824 171.21512 39.2822881M218.842133 27.0229602C217.357379 23.1678348 213.295755 21.6016447 209.714022 22.9148013 205.986868 24.2803097 202.390593 25.3869678 198.459848 25.8959432 194.911562 26.3540211 192.227081 29.8441384 192.651711 33.6163735 193.103973 37.6212831 196.422492 39.9000388 200.012951 39.7778847 205.105613 39.6048331 210.266624 38.6421424 214.992825 36.6193286 218.494576 35.1214866 220.271627 30.7370267 218.842133 27.0229602M248.754329 13.9577062C246.164371 14.3488901 244.026674 15.6867684 241.602497 16.6072869 239.499701 17.4071054 237.53651 17.8666375 235.41481 18.6068332 229.570318 20.6470976 230.780225 30.6840933 236.886476 31.2803216 239.677116 31.55226 242.317971 31.3544866 245.051896 30.7582583 248.07521 30.0994986 251.470804 29.4378306 253.909523 27.3408518 259.122886 22.856051 255.930883 12.8728614 248.754329 13.9577062M33.6781776 101.136183C29.5074875 101.732411 25.4880357 103.462927 22.2829447 106.356816 19.7089832 108.682107 18.7346588 113.017124 21.0890337 115.980815 23.2921703 118.754004 27.4177798 119.731237 30.2287784 117.292517 30.718849 116.867886 31.2292787 116.48979 31.7542505 116.118965 31.9403901 116.015716 32.303944 115.806309 32.5511606 115.695789 32.9394362 115.522737 33.336437 115.388949 33.7319836 115.249344 33.2942647 115.441301 34.9171693 115.010853 35.225463 114.973043 38.653049 114.555684 41.5920186 110.997218 41.0132408 107.277335 40.4446425 103.619983 37.3398924 100.612665 33.6781776 101.136183M45.4155875 133.752347C42.8983404 130.583611 39.0039512 130.138621 35.8090397 132.372296 33.072206 134.286044 30.2961086 136.122718 27.4676593 137.883773 24.665386 139.627377 24.3658176 144.107815 25.8214874 146.79666 27.4371208 149.777802 30.8937912 151.112772 33.9621859 149.84615 37.5773658 148.354125 41.0427614 146.308044 44.1591453 143.869324 47.0268583 141.624015 47.7757793 136.723309 45.4155875 133.752347M74.3905413 188.83076C71.784587 185.551504 68.1664988 185.446801 64.8770632 187.465252 62.2594753 189.070706 59.727686 190.818673 57.1769919 192.53901 54.1987585 194.548736 53.7188674 199.734468 55.9380003 202.525108 58.5032365 205.754921 62.1751308 205.95124 65.4194856 203.886254 68.0138061 202.234265 70.6212146 200.614269 73.147187 198.848851 76.1006987 196.782411 76.6416669 191.663572 74.3905413 188.83076M105.722924 213.286885C104.542101 210.21849 100.468843 207.827759 97.4338953 209.556822 92.8327573 212.177318 88.3363229 215.264618 84.6847876 219.241897 80.9169152 223.348602 86.4516595 231.085029 91.2432997 228.352558 94.9908132 226.216315 98.383498 223.968098 102.228444 222.001998 105.312835 220.424174 107.08407 216.81772 105.722924 213.286885M115.469222 242.491168C112.45027 239.293348 108.219957 240.016093 105.465673 243.080125 104.037633 244.671037 103.582464 245.143657 101.811229 246.80728 100.294483 248.232411 98.7210214 249.584831 97.1082964 250.8849 94.4281772 253.047319 93.6690767 257.609193 95.9216565 260.444913 98.2396761 263.363524 102.049721 263.959752 105.000324 261.74789 108.506438 259.117214 111.791511 256.213146 114.855543 253.028414 117.681084 250.090898 118.58706 245.792237 115.469222 242.491168M130.835045 260.771094C126.949381 263.856939 120.446129 273.511476 116.95892 277.074304 114.389321 279.700617 113.368462 283.628453 115.738833 286.896076 117.808182 289.749247 122.37151 290.746839 125.066172 288.235408 129.137975 284.44136 136.622823 275.022406 140.22346 270.717928 145.303035 264.648032 136.775515 256.053618 130.835045 260.771094M163.961057 283.061455C161.291117 279.700763 157.657033 279.660045 154.291978 281.672679 149.7461 284.393516 139.960684 294.919128 137.600492 299.808201 136.137551 302.837332 137.728463 306.731721 140.343142 308.348809 143.31265 310.185483 146.474115 309.209704 148.732512 306.702637 149.388363 305.975529 155.862531 299.299226 156.498023 298.553213 156.662349 298.358348 156.931379 298.060234 157.036082 297.93808 157.332742 297.64142 157.632311 297.349123 157.940605 297.06555 159.439901 295.689863 161.080256 294.459596 162.697344 293.242418 165.627588 291.040736 166.305252 286.010604 163.961057 283.061455M183.432567 300.291291C180.493597 298.099789 176.222566 298.354276 173.98162 301.537554 171.189526 305.506108 168.32763 309.38741 165.118176 312.993864 162.941216 315.439855 163.639239 319.68471 165.708588 321.874758 167.769211 324.060444 171.809022 324.868988 174.132858 322.545152 177.93854 318.742378 181.60898 314.757828 184.66865 310.25703 186.713277 307.246804 186.486419 302.565684 183.432567 300.291291M198.997181 324.807039C196.207996 330.085841 192.89093 335.619131 191.998042 341.687573 190.857937 349.416728 201.706385 352.719252 204.539196 345.427815 206.351149 340.759783 208.529564 336.389865 209.864534 331.535694 213.245585 319.235939 202.830493 317.549049 198.997181 324.807039M383.263595 345.51754C382.501586 350.508408 381.781749 355.526906 381.602881 360.586121 381.479272 364.099506 383.297042 367.434022 386.846782 367.993895 390.272914 368.531955 393.236605 365.97399 393.845921 362.508594 394.721359 357.536631 395.372848 352.528313 396.299183 347.565076 397.927904 338.822332 384.613107 336.683181 383.263595 345.51754M362.582178 364.81149C360.682972 371.09661 359.249116 377.560598 357.650933 383.938787 355.825892 391.21859 367.82317 394.873034 369.809629 387.565601 371.53142 381.226675 373.44953 374.900838 374.867391 368.476113 376.506291 361.062522 364.795494 357.483698 362.582178 364.81149M342.860834 362.64151C339.407072 362.097633 336.885462 364.629422 336.111819 367.929037 335.018249 372.601432 334.270782 377.365442 333.415704 382.093097 332.825292 385.360719 335.351265 388.623979 338.376033 389.099507 341.720729 389.627387 344.296144 387.163946 344.999985 383.910866 346.013573 379.215204 347.14059 374.531176 347.917141 369.783162 348.461018 366.441375 345.984489 363.133035 342.860834 362.64151M314.742267 367.410319C311.926906 365.114112 307.811476 365.711795 305.634516 368.612955 302.109497 373.307163 299.3334 378.552518 296.968845 383.98983 295.475366 387.423233 297.272776 391.730619 300.512768 393.189198 303.953442 394.737937 307.67478 392.923076 309.223519 389.504215 311.18671 385.172107 313.506184 381.072674 315.93327 377.013958 317.79612 373.900483 317.710321 369.830133 314.742267 367.410319M289.747938 340.33966C286.462865 338.860723 282.888403 340.589785 281.416737 343.863224L276.25718 355.332622C274.786968 358.597336 276.575654 362.750576 279.646957 364.132081 282.93203 365.611018 286.506491 363.881956 287.978158 360.608516 289.699949 356.785384 291.417377 352.962251 293.139169 349.139118 294.607926 345.874405 292.819241 341.721165 289.747938 340.33966M249.694479 333.878144C246.620268 332.493731 242.266346 333.966851 241.12915 337.500595 239.686568 341.988304 236.916287 352.285605 236.766503 357.051069 236.657437 360.602263 238.46939 363.971681 242.067119 364.53737 245.525243 365.081247 250.084209 356.914373 250.693525 353.409713 251.318838 349.813438 251.96451 346.352405 253.17878 342.923365 254.411955 339.444881 253.046446 335.386166 249.694479 333.878144M237.724104 298.943524C234.613537 297.544569 230.185451 299.030777 229.042437 302.613964 227.230485 308.295585 225.419986 313.977205 223.608034 319.657371 222.497013 323.141671 223.666203 327.085504 227.057433 328.610976 230.141824 329.998297 234.360504 328.503364 235.53551 325.026334 237.443441 319.388341 239.349917 313.750347 241.256394 308.112353 242.456121 304.566976 241.154599 300.487901 237.724104 298.943524M218.181774 273.674494C215.443486 271.442273 211.406584 272.006508 209.292154 274.848045 206.577134 278.496672 204.193675 282.440505 201.698241 286.260729 199.736504 289.26223 200.018622 293.434374 202.87761 295.766936 205.52719 297.9279 209.910196 297.587614 211.892292 294.577388 214.402268 290.764435 217.060574 287.018375 219.343692 283.049821 221.112018 279.977064 221.112018 276.06377 218.181774 273.674494M191.565558 265.14232C188.376463 263.87279 184.486437 265.188855 183.17328 268.690606 182.853353 269.548593 182.515975 270.399309 182.142241 271.232575 181.954647 271.64848 181.748149 272.055661 181.556192 272.468658 181.454397 272.672248 181.351148 272.874384 181.247899 273.077974 181.471848 272.702787 181.468939 272.710058 181.242082 273.096879 180.286662 274.777952 179.165462 276.347051 177.965734 277.84053 175.842579 280.488657 176.419903 285.139238 179.118927 287.150418 182.053534 289.33465 185.625087 288.773323 187.94747 285.985591 190.892256 282.448939 193.261173 278.348051 194.980056 274.00431 196.265583 270.746867 194.820092 266.438026 191.565558 265.14232M170.715161 249.227531C167.88962 246.922599 164.366056 247.802399 162.104751 250.363273 158.858942 254.043893 156.524926 258.842804 154.379958 263.299974 153.068255 266.02372 154.474482 269.619995 156.869575 271.052398 159.184686 272.436811 162.954013 272.241946 164.485302 269.557464 166.723339 265.632536 169.474715 262.127877 171.840724 258.306198 173.645405 255.39195 173.491258 251.491744 170.715161 249.227531M143.700053 228.851499C140.700007 226.61637 136.991757 227.167517 134.62284 230.049772 133.126452 231.868996 131.631519 233.68822 130.136585 235.507443 127.96835 238.146845 128.603842 242.875954 131.299958 244.882771 132.617477 245.864366 134.269466 246.520218 135.905458 246.248279 137.676693 245.951619 138.96949 245.081998 140.189577 243.709219 141.754313 241.94671 143.320503 240.185655 144.885239 238.423146 145.93082 237.246685 146.356905 235.018827 146.183854 233.47445 145.994806 231.791923 145.039386 229.849091 143.700053 228.851499M139.85438 186.2504C137.582896 183.391412 133.080644 182.188776 130.185301 184.861624 126.141128 188.59605 122.229288 192.550062 118.478866 196.607323 116.160847 199.114391 116.919947 203.737342 119.099816 205.979742 121.407656 208.353022 125.373302 209.021961 127.992344 206.686491 131.64388 203.430502 135.19362 199.981103 138.590667 196.431363 141.13409 193.774511 142.466152 189.535473 139.85438 186.2504M106.897348 183.400865C104.067445 180.403727 99.8473114 180.924336 97.2937089 183.966555 95.4381299 186.174054 93.5854593 188.380099 91.7298802 190.587598 89.7419676 192.955061 90.2887526 196.836362 92.2839364 198.947883 94.2296767 201.007052 98.0222709 201.760336 100.215228 199.579013 102.246767 197.557653 104.276852 195.537748 106.308391 193.517842 107.586646 192.245404 108.424275 190.955514 108.751473 189.123203 109.129569 187.016045 108.287578 184.873985 106.897348 183.400865M97.5301643 155.123207C95.1147123 152.082443 91.6027818 151.848314 88.5445665 153.833318 85.3482008 155.909938 82.3292493 158.280309 79.3146605 160.636138 76.6854388 162.689491 76.0034117 167.181563 78.164376 169.899491 80.5172968 172.860274 83.9826924 173.126396 86.9609258 171.161751 90.1485663 169.060409 93.3507489 166.964884 96.3551582 164.582879 99.0250979 162.466996 99.7463888 157.912393 97.5301643 155.123207M80.0014865 131.402043C75.7217302 132.463621 71.3721715 133.382685 67.1607633 134.711838 64.4355634 135.571279 63.0744176 139.17628 63.7768037 141.869487 64.5286332 144.76483 67.1040489 146.825453 70.0299306 146.472079 73.8603343 146.008184 77.6645621 145.153106 81.4600647 144.447811 84.7669508 143.834132 87.332187 140.866078 86.9177356 137.191276 86.5585444 133.996364 83.2923763 130.586229 80.0014865 131.402043M87.516727 97.1703914C81.3392194 97.1165854 75.0759131 97.7666198 69.0467354 99.1641209 61.6825879 100.869916 62.6467329 112.284053 70.4442366 111.65147 76.6290152 111.149765 82.7934349 110.691687 88.9913015 110.355764 92.3854406 110.171078 94.8895998 106.426473 94.5071411 103.022155 94.0650596 99.1030439 90.9297709 97.1994757 87.516727 97.1703914M124.585117 122.210965C123.23706 118.715031 119.40811 117.087764 116.123037 118.402375 112.296996 119.933663 108.254277 121.380608 104.668181 123.460136 102.150934 124.920169 100.474224 127.433053 101.295855 130.591609 102.012784 133.344439 104.650731 135.711902 107.525715 135.176751 112.087589 134.32458 116.618925 132.624602 121.016472 131.107856 124.34808 129.959025 125.845922 125.484404 124.585117 122.210965M133.506293 153.139948C132.225129 149.815611 128.5067 148.157806 125.361232 149.473871 120.038803 151.704637 115.186086 155.668829 111.413851 160.162355 106.971222 165.449883 114.624759 173.600761 119.77559 169.019982 123.047575 166.108642 126.344282 163.809528 130.07289 161.702369 133.03949 160.024205 134.879073 156.70423 133.506293 153.139948M169.80773 196.128886C167.534792 192.993598 163.526974 192.71148 160.573462 194.804096 155.896705 198.118253 151.436626 202.652497 148.090476 207.425233 146.269798 210.021007 146.43267 213.711806 148.659074 216.000742 150.678979 218.075907 154.526834 218.917898 156.793956 216.647867 160.609817 212.823281 164.470759 209.2939 168.600732 205.851771 171.381192 203.533752 171.999233 199.150746 169.80773 196.128886M192.166294 218.574703C189.193878 216.359933 185.776471 217.027418 183.401737 219.730804 180.624186 222.889361 178.162199 226.299496 176.014322 229.962665 174.321615 232.84492 174.218366 236.925449 177.147156 239.106772 179.681854 240.994344 183.97179 241.033608 185.820098 237.962305 188.005784 234.325312 190.504126 230.942806 193.312216 227.817697 195.560433 225.314992 194.740256 220.491359 192.166294 218.574703M220.773477 224.90563C218.358025 223.817877 215.349253 224.616242 213.756887 226.81647 212.424826 228.656052 211.319622 230.664324 209.948297 232.474822 208.576971 234.279504 207.036957 235.967848 205.553657 237.66928 203.461041 240.074553 204.095079 244.156536 206.126618 246.305866 208.329755 248.639882 211.790788 248.916183 214.321123 246.957355 219.1084 243.247651 222.77884 237.615474 224.34503 231.581934 225.027057 228.954166 222.985339 225.900314 220.773477 224.90563M243.734232 254.361348C240.494239 253.071459 236.48933 254.400612 235.168902 257.983799 233.951724 261.286322 232.734545 264.581575 231.62207 267.927725 230.479057 271.366944 231.654063 275.703415 235.15436 277.095099 238.423436 278.396622 242.517053 277.063107 243.834572 273.423205 245.037209 270.110502 246.124962 266.75999 247.218532 263.406568 248.329553 260.006613 247.199627 255.739944 243.734232 254.361348M263.919907 301.056063C260.858783 306.048385 258.61202 312.068838 257.394841 317.878429 255.936263 324.845575 265.922361 327.390453 268.535587 321.202765 270.459514 316.639437 272.5245 312.132823 274.444064 307.572403 277.19544 301.035704 267.767761 294.782578 263.919907 301.056063M305.641932 303.168457C302.628797 300.710833 299.128501 301.773864 296.691235 304.34928 292.575805 308.698839 289.581576 314.889434 286.852013 320.255489 285.245105 323.419862 287.278098 327.670534 290.219976 328.995325 293.669376 330.546973 296.80321 328.621591 298.493008 325.495028 300.950633 320.94915 304.224072 317.032948 306.812576 312.609224 308.614349 309.529196 308.579447 305.562096 305.641932 303.168457M327.334465 327.888667C323.736736 326.270125 320.400766 328.265309 318.652798 331.560561 316.458387 335.702167 314.355592 340.050271 312.609079 344.426006 311.358453 347.55984 312.56109 351.343709 315.370634 353.023328 317.927145 354.550254 322.14437 354.35539 323.819626 351.366977 326.402313 346.761476 328.782864 341.940752 330.868209 337.057496 332.332604 333.624093 330.580274 329.348699 327.334465 327.888667M277.230778 260.227944C274.092581 257.89102 270.788603 258.741736 268.246634 261.41313 265.005188 264.821811 256.133019 274.278575 253.38746 278.136609 251.443174 280.871988 251.885255 284.926341 254.492663 287.052404 257.201867 289.259903 260.809776 288.526979 262.947473 285.937021 266.222366 281.968466 275.07563 273.201001 278.405784 269.700704 280.780518 267.203816 279.81201 262.150417 277.230778 260.227944M359.619795 318.207663C356.035154 317.643427 353.535357 320.259561 352.693367 323.631887 351.524177 328.330457 350.562941 333.079925 349.556624 337.819214 348.849875 341.152276 351.614339 344.536235 354.649287 345.013218 358.159763 345.564366 360.631929 343.000584 361.447744 339.686427 362.606754 334.979131 363.812299 330.284923 364.805528 325.534001 365.516639 322.136953 362.717274 318.694825 359.619795 318.207663M381.238454 301.884675C379.058585 306.264773 376.830727 310.544529 374.032816 314.524717 371.916933 317.539306 372.677487 321.824879 375.785146 323.75026 379.119662 325.813792 382.480354 324.099272 384.253043 320.853463 386.819733 316.154892 389.304988 311.422875 391.159113 306.349117 393.680722 299.460498 384.420278 295.491944 381.238454 301.884675M341.26745 291.573124C337.658087 289.947311 334.274127 291.943949 332.527614 295.26974 330.052539 299.982852 327.040859 304.377492 324.679213 309.147319 323.088301 312.364043 324.815909 316.674338 327.638542 318.359774 330.666218 320.170272 334.490805 319.533326 336.688125 316.585631 340.14625 311.945229 342.59224 306.193807 344.823007 300.80303 346.26268 297.328909 344.562702 293.054969 341.26745 291.573124M367.917695 278.648492C365.385905 277.937381 361.809989 279.118204 360.999991 282.092075 359.90933 286.101347 358.492924 289.177013 356.051296 292.190147 353.47588 295.369063 354.751227 300.403557 357.991219 302.410374 361.687835 304.69931 365.409173 302.797196 367.373818 299.202375 369.710742 294.926981 371.313288 290.280762 372.140736 285.414957 372.648258 282.433815 370.619627 279.406139 367.917695 278.648492M308.245123 269.095169C306.171412 266.234727 301.590633 265.229864 298.887246 267.752928 295.219715 271.173243 291.418395 274.4874 287.913736 278.0924 285.265609 280.814692 284.198215 284.857411 286.651477 288.241371 288.809533 291.216696 293.479019 292.186657 296.290017 289.625784 300.005538 286.24037 303.468025 282.519032 307.022128 278.948933 309.620811 276.337162 310.611132 272.356974 308.245123 269.095169M330.549736 257.219318C327.78818 258.597914 325.858436 260.940655 323.742553 263.188872 322.110923 264.923752 320.477839 266.645543 318.927645 268.461858 316.536915 271.25686 317.316374 276.426596 320.178271 278.558476 323.493882 281.029189 327.077069 280.17411 329.75428 277.294763 331.291386 275.639866 332.744147 273.915166 334.205634 272.186104 335.857622 270.227276 337.668121 268.344066 338.60609 265.863175 340.483482 260.895575 335.579867 254.707887 330.549736 257.219318M308.463837 231.788287C306.251975 229.004919 302.0173 227.949158 299.19903 230.45768 296.293507 233.043275 293.161127 235.291492 290.152355 237.736029 287.334086 240.027872 286.518271 244.820967 288.90173 247.819559 291.488779 251.075548 295.205754 251.287863 298.477739 249.193793 301.739545 247.106994 304.55636 244.368706 307.252476 241.543165 309.685378 238.993925 310.967996 234.939572 308.463837 231.788287M269.089207 227.024568C264.886524 227.481192 260.714379 230.632477 257.077386 232.729455 254.013354 234.496327 251.744778 238.16095 253.386587 241.930277 254.749187 245.058295 258.861709 247.799491 262.13951 245.869747 264.352827 244.565316 266.580685 243.281243 268.763462 241.920098 270.90843 240.583674 273.034493 239.3854 274.594867 237.275333 277.8145 232.927229 274.228404 226.466149 269.089207 227.024568M255.663307 196.825455C253.58087 194.68485 249.539605 193.768694 247.208498 196.153608 245.096977 198.311664 242.901111 200.401371 240.555462 202.27731 238.201087 204.160519 235.574774 205.643819 233.256754 207.570654 227.34973 212.478632 232.757958 222.823921 239.903973 219.816603 246.302522 217.123396 251.985596 211.281812 256.253719 205.738343 258.253265 203.141114 257.896982 199.121662 255.663307 196.825455M213.614519 189.293055C211.318313 186.402075 207.52281 185.792758 204.599837 187.998803 202.132033 189.863108 199.249778 191.576174 197.394199 194.139956 195.707309 196.468155 195.535712 200.20258 197.392745 202.539505 199.194518 204.806627 202.361799 206.044164 205.041919 204.765909 207.900906 203.401854 210.102589 200.950047 212.43515 198.786174 214.946581 196.457975 215.957261 192.242204 213.614519 189.293055M197.112663 160.509767C194.425273 158.318264 190.485803 158.8825 188.409183 161.658597 185.891936 165.022198 183.142014 168.366894 180.290298 171.304409 178.122062 173.53663 177.24517 176.843516 179.257805 179.616705 181.058124 182.099051 184.804183 182.791258 187.151287 180.749539 191.083485 177.329224 194.768468 173.612249 198.24986 169.687321 200.532978 167.114814 199.592101 162.531127 197.112663 160.509767M162.827787 163.303897C160.804973 161.161837 156.887316 160.39692 154.605652 162.650954 151.509627 165.706261 148.387426 168.92444 145.65641 172.352026 141.293763 177.828602 148.851321 185.964938 154.141757 181.341986 157.412288 178.485907 160.483591 175.213922 163.403656 171.971021 165.538444 169.597742 164.837513 165.431414 162.827787 163.303897M165.182452 129.29663C163.034576 126.594698 159.093652 125.703264 156.355364 128.028554 155.042208 129.143938 153.835209 130.378567 152.484242 131.444507 151.812395 131.973841 151.123097 132.477 150.416348 132.952528 150.140047 133.137213 149.860838 133.314628 149.580174 133.492042 149.51328 133.528397 149.347499 133.620013 149.055202 133.787248 146.382354 135.270548 144.461335 138.514903 145.866107 141.741807 147.187989 144.778209 150.409077 146.401113 153.430937 145.146125 157.130461 143.60902 161.165909 141.541125 164.02926 138.59343 166.367638 136.183795 167.557186 132.283589 165.182452 129.29663M125.03098 78.0561824C119.899053 78.7600227 115.021614 80.73921 110.532451 83.3873365 107.738903 85.0335085 105.948764 88.0960865 107.269191 91.5222183 108.439835 94.5615287 112.08119 96.4083825 115.007072 95.0065187 118.726955 93.2251047 122.528275 92.1199008 126.495375 91.1484849 129.774631 90.3457579 132.400944 87.6903603 131.970496 83.8672277 131.576404 80.3683851 128.388763 77.5966503 125.03098 78.0561824M159.307276 100.514215C157.821068 97.8660881 154.242244 95.9726995 151.387618 97.5461607 147.278005 99.8103743 143.306543 102.362523 139.298725 104.820147 136.67532 106.428509 136.345213 110.724262 137.747077 113.222604 139.191113 115.793657 142.650692 117.614335 145.420972 116.097588 149.542219 113.8421 153.685279 111.636055 157.704731 109.187156 160.416843 107.535167 160.751312 103.086722 159.307276 100.514215M174.955799 65.3453206C173.63828 61.9235515 169.953297 60.4184384 166.752569 61.6530674 162.715667 63.2119864 158.809644 65.7379588 155.339885 68.3729974 150.210867 72.2644782 155.123207 81.8739344 160.999692 78.801177 164.443275 77.0037666 167.977018 75.5640932 171.497674 73.9688188 174.615512 72.5553213 176.26023 68.7307344 174.955799 65.3453206M191.368221 94.3464503C186.089418 95.3614927 180.945858 97.0760128 175.786301 98.6043934 168.958759 100.625753 171.938447 113.133461 178.928861 111.488743 184.161129 110.258477 189.461744 109.195445 194.564587 107.456203 201.44448 105.110554 198.549137 92.9634913 191.368221 94.3464503M195.999316 135.97337C194.609086 133.408134 190.966276 131.474027 188.24253 133.066393 184.702969 135.137196 181.60549 137.442128 178.691242 140.408727 176.363043 142.779099 175.208396 146.663308 177.548229 149.606641 179.592856 152.177694 183.679202 153.290169 186.283702 150.860174 188.819854 148.494166 191.597405 146.419 194.430217 144.465989 197.031809 142.672941 197.440443 138.636039 195.999316 135.97337M240.490604 153.819503C238.360178 150.881988 234.310188 150.371558 231.536999 152.533977 227.505913 155.676536 223.358491 159.387694 219.974531 163.286446 217.979347 165.584107 218.534858 169.570112 220.525679 171.614739 222.81316 173.967659 225.798664 173.9473 228.427886 172.24296 232.235022 169.77661 236.033433 166.434823 239.31996 163.247182 241.848841 160.795375 242.727187 156.903894 240.490604 153.819503M258.820264 162.603692C254.729555 166.409374 250.93987 170.521896 246.718282 174.187973 241.177721 179.001426 247.678064 188.033559 253.553095 183.596748 258.372365 179.955392 263.201815 176.120626 267.33615 171.627099 272.079801 166.471905 263.956553 157.82514 258.820264 162.603692M300.47554 196.092531C298.564701 193.458947 294.353293 192.539882 291.863676 194.856448 288.17724 198.289851 284.624591 201.878854 281.031225 205.419869 278.70448 207.711713 277.862489 211.284721 279.94638 214.15825 281.806321 216.723487 285.821411 217.550935 288.245588 215.349253 291.962563 211.974019 295.723164 208.643865 299.349978 205.159565 301.790151 202.812461 302.620508 199.050405 300.47554 196.092531M233.30896 126.641669C231.211982 124.000814 227.031112 122.872342 224.356809 125.356142 220.975758 128.495794 217.578711 131.584548 214.404158 134.958328 212.30718 137.18764 213.061917 141.281257 214.95676 143.288074 217.100274 145.558105 220.395526 145.776237 222.857513 143.916295 226.081509 141.481938 229.080102 138.727654 232.138317 136.069348 234.703553 133.840036 235.586262 129.507928 233.30896 126.641669M229.960338 96.8417387C228.517756 94.1776158 224.854587 92.3074947 222.04068 93.8736848 218.153562 96.0361033 213.963967 98.3919325 210.431678 101.163667 204.946377 105.471054 210.063761 114.993257 216.444859 112.238973 220.523934 110.477918 224.595737 107.908319 228.357793 105.51468 231.069905 103.788526 231.388378 99.4782315 229.960338 96.8417387M212.458563 68.9013139C210.429933 65.1639799 206.490463 64.8629573 203.2432 66.8668663 199.280462 69.3114027 195.317725 71.7573932 191.354987 74.2033837 188.821744 75.7666654 188.494546 79.9111797 189.854237 82.3339028 191.237196 84.7973439 194.616793 86.6180218 197.279462 85.1172713 201.330906 82.8326987 205.380896 80.5495803 209.430887 78.2650077 212.730502 76.4050661 214.491557 72.6488273 212.458563 68.9013139M233.823026 41.5744226C229.092462 42.4716736 224.600391 44.0916697 220.233381 46.1697437 213.410202 49.4155528 217.543083 59.8393698 224.591665 57.4835406 228.10505 56.3099886 231.691146 55.5494339 235.2976 54.7597949 238.619028 54.0312329 241.239525 51.2173258 240.81344 47.4261859 240.430981 44.0436806 237.180809 40.9374762 233.823026 41.5744226M248.457524 67.466294C242.816622 68.1759512 236.945953 69.7450497 231.703506 72.0281681 225.765944 74.6137634 227.899279 85.6381714 234.636659 84.0588933 239.73223 82.8649823 244.811805 81.6827051 249.921919 80.5585965 257.652528 78.8571643 256.576409 66.4439805 248.457524 67.466294M281.712815 36.2261087C280.373483 32.7519878 277.001157 31.7631212 273.857143 32.6909107 268.699041 34.2134744 263.904492 36.5634867 259.203013 39.2348806 256.41819 40.8185214 254.684765 43.92618 255.977563 47.2810552 257.136573 50.2883729 260.731394 52.1061424 263.628191 50.7246376 268.466366 48.4167975 273.45578 46.5146836 278.400112 44.4845987 281.430698 43.2397902 282.931448 39.3890275 281.712815 36.2261087M290.122835 3.84567299C288.786411.374460501 285.43299-.58677597 282.297701.323562957 277.631123 1.68034605 272.827849 3.8282224 268.732778 6.53015487 266.129732 8.24903764 265.70801 12.4284531 267.165134 15.0227736 268.750229 17.845406 271.956774 19.1454747 274.920465 17.9297505 278.941371 16.2806701 282.969548 14.1153431 286.82322 12.0736245 289.715654 10.5408813 291.419995 7.21072775 290.122835 3.84567299M308.375712 50.4041285C303.123085 52.1695462 298.02606 55.5433262 293.215515 58.3383285 290.141303 60.1255594 288.192654 63.5211527 289.633782 67.2657577 290.859686 70.4432186 294.998383 72.8164984 298.126401 71.0874361 303.47646 68.1295617 309.544901 65.2458523 314.256559 61.2380343 319.619706 56.6747059 314.701549 48.2780654 308.375712 50.4041285M277.273386 65.107411C272.599537 67.8456988 267.857341 70.4880085 263.282378 73.4037106 260.368131 75.2607438 260.206713 80.0901937 262.123369 82.7325033 264.423938 85.9041474 268.018758 85.7950812 270.983904 84.0049419 275.137144 81.4978743 279.158049 78.7275937 283.221128 76.0620166 288.902748 72.3348622 283.216765 61.626019 277.273386 65.107411M259.672288 102.625881C255.331455 104.061192 250.302778 106.534812 246.747221 109.518863 244.456831 111.439881 243.751537 114.868922 245.262467 117.55922 246.86065 120.406574 249.690553 121.203484 252.606255 120.31205 256.59226 119.091964 260.761496 117.050245 264.49883 115.158311 271.944413 111.38753 267.525052 100.027198 259.672288 102.625881M267.992873 133.271583C263.436816 135.714665 259.002913 138.560565 254.739153 141.52571 249.370189 145.260136 254.55883 154.932123 260.422227 151.996062 265.04227 149.68386 269.6405 147.15207 273.982787 144.307625 279.728393 140.542661 274.088945 130.003961 267.992873 133.271583M300.38756 106.953772C297.554749 104.843705 294.500896 105.578084 292.214869 108.0328 292.6395 107.576176 292.120345 108.124415 291.973469 108.272745 291.675355 108.569405 291.381604 108.870428 291.084944 109.169996 290.417459 109.844752 289.73834 110.503512 289.030137 111.131733 287.700984 112.312556 286.296212 113.409035 284.878352 114.467704 282.615592 116.16041 282.158969 119.583634 283.482305 122.02817 284.748927 124.366549 287.919116 125.957461 290.38692 124.616674 294.647772 122.298654 298.286219 119.369864 301.454955 115.572907 303.469043 113.163272 302.851002 108.788992 300.38756 106.953772M301.067697 84.2038786C298.802029 81.3536161 295.688554 81.2896306 292.83102 83.0216013 289.591028 84.9862465 286.764033 87.3769769 284.166804 90.2068803 282.178891 92.3736615 282.859464 96.2535085 284.696139 98.1992489 286.743674 100.367484 289.926952 100.598705 292.278418 98.8012941 294.855288 96.8322863 297.371081 94.7847508 299.990123 92.87682 302.513187 91.0401458 303.042522 86.6905871 301.067697 84.2038786M335.064348 83.402315C333.757008 80.4008141 330.291613 78.4070846 327.23776 79.8802049 323.882885 81.500201 320.87993 83.6509858 318.191085 86.303475 315.94723 88.5182452 314.906012 92.2730297 317.10624 95.0418561 319.097061 97.5460153 322.869296 98.4650795 325.405448 96.2328587 326.531011 95.2425379 327.698746 94.3118399 328.927558 93.4698491 329.542692 93.0495808 330.16655 92.6394921 330.793317 92.241037 330.996907 92.113066 332.979003 90.9162466 331.763279 91.6302665 334.489933 90.027721 336.538922 86.7906372 335.064348 83.402315M289.203916 169.323767C285.494212 172.277279 281.50239 175.063556 278.041357 178.335541 276.001093 180.263831 275.183824 183.211526 276.656944 185.834931 277.929383 188.102053 281.054492 189.79476 283.506299 188.401621 288.066719 185.810209 292.326117 182.570217 296.662587 179.589075 303.176019 175.107183 295.537025 164.280548 289.203916 169.323767M321.737771 145.356987C320.021797 142.990978 316.109957 142.064643 313.876282 144.228515 310.772986 147.232925 307.566441 150.093367 304.143218 152.687687 301.703044 154.538904 301.322039 158.453652 303.11945 160.934543 305.023018 163.557948 308.478234 163.880784 310.951855 162.058652 314.408525 159.512321 317.697961 156.747857 320.709641 153.63729 322.864788 151.41234 323.743135 148.12145 321.737771 145.356987M354.534258 111.917155C352.643778 109.538058 349.082404 108.681525 346.671315 110.788684 344.567065 112.628266 342.459906 114.467849 340.354202 116.308886 338.135069 118.248809 337.358518 121.997777 339.33916 124.490302 341.234003 126.872308 344.693582 127.64595 347.109034 125.604232L353.506128 120.196004C355.784883 118.270623 356.516354 114.411135 354.534258 111.917155M313.711229 129.981857C311.644788 127.793262 308.624383 127.697284 306.245286 129.387082 302.832242 131.814168 299.774027 135.071611 297.156439 138.404673 295.164164 140.940825 295.670231 145.328193 298.252917 147.25212 301.138081 149.401451 304.324267 148.693248 306.645195 146.145462 307.913271 144.755232 309.168259 143.353368 310.434881 141.961684 310.53813 141.848255 310.711182 141.662116 310.778076 141.587951 311.019476 141.33928 311.26233 141.093518 311.505184 140.846301 312.453332 139.876339 313.344766 138.877293 314.231838 137.850617 316.133952 135.651843 315.566808 131.946502 313.711229 129.981857M290.026275 148.234152C288.179421 146.279686 284.647131 145.609293 282.560332 147.640832 280.418273 149.727631 278.331473 151.871145 276.244674 154.023384 275.138016 155.167852 274.301842 156.245425 274.070622 157.932316 273.868486 159.412707 274.266941 161.29737 275.197639 162.468014 277.016863 164.756949 280.899618 165.934864 283.214729 163.618298 285.691258 161.143223 288.141611 158.652152 290.546884 156.102912 292.533342 154.000117 291.813506 150.126086 290.026275 148.234152M338.353347 105.069981C336.516673 102.539646 332.571386 101.734011 330.179202 103.896429 327.048276 106.727787 323.723939 109.278481 320.380697 111.817541 317.744205 113.817088 317.331207 118.040129 319.274039 120.720249 321.359384 123.595233 325.022553 123.842449 327.728848 121.933064 331.163706 119.511796 334.290269 116.671713 337.284499 113.677483 339.560346 111.401636 340.415425 107.914427 338.353347 105.069981M359.614124 147.346499C357.588402 144.798713 353.987764 144.052701 351.407985 146.168584 348.343953 148.682923 345.502416 151.387764 342.787396 154.313646 340.748586 156.509511 341.46406 160.485336 343.32691 162.458707 345.210119 164.452436 348.935819 165.217354 351.054611 163.072386 353.474426 160.623487 355.945138 158.22694 358.542367 155.985993 360.89965 153.951546 361.698015 149.966995 359.614124 147.346499M332.16726 182.020523C329.316997 179.897369 326.020291 180.527044 323.744443 183.131544 320.798203 186.50387 317.65128 189.774401 315.023513 193.433207 313.204289 195.96645 313.455868 199.545275 315.577569 201.793492 317.504404 203.833756 321.343533 204.632121 323.50886 202.423167 327.025154 198.838526 330.096457 194.821983 333.268101 190.901418 335.304003 188.384171 334.735404 183.932817 332.16726 182.020523M346.956486 217.4266C344.885683 215.299083 341.497361 214.814829 339.141532 216.80565 336.640281 218.917171 334.591292 221.661276 332.479771 224.185794 330.483133 226.572161 328.477769 228.945441 326.558205 231.401611 324.411783 234.148624 325.082176 238.537447 327.708489 240.678052 330.577657 243.017885 334.216104 242.154081 336.505039 239.516134 338.436237 237.292638 340.283091 234.996432 342.141579 232.704588 343.981161 230.437466 346.053418 228.23433 347.501817 225.664731 349.015656 222.980249 349.259964 219.794063 346.956486 217.4266M361.869321 181.47592C359.112129 179.421113 355.611832 179.886462 353.446505 182.588395 351.76834 184.682465 350.087267 186.776535 348.409102 188.870606 346.361567 191.424208 346.918531 195.910463 349.523031 197.851841 352.272953 199.900831 355.895404 199.498013 358.038918 196.727732 359.682181 194.604578 361.326899 192.481423 362.970162 190.358268 364.952258 187.797395 364.47673 183.417297 361.869321 181.47592M362.159001 238.030507C358.905921 236.566112 355.978585 238.38679 354.377494 241.321397 352.302328 245.125625 350.166085 248.903677 348.192715 252.770436 346.63525 255.819926 348.607166 259.926631 351.439978 261.201978 354.767223 262.698366 357.7949 260.842786 359.423622 257.825289 361.476974 254.018153 363.373271 250.113584 365.323374 246.245371 366.827033 243.267137 364.930736 239.27677 362.159001 238.030507M376.830436 207.054553C374.873062 204.982296 371.4193 204.468958 369.191442 206.448145 367.526365 207.925628 365.97908 209.532536 364.408527 211.12054 363.197165 212.342081 362.392984 213.551988 362.080328 215.301409 361.721137 217.306773 362.522409 219.347037 363.8472 220.747447 365.020752 221.990801 366.400802 222.611751 368.060062 222.643744 370.127957 222.684462 371.608348 221.762489 372.98549 220.209387 374.474607 218.532676 375.981174 216.882142 377.364133 215.107999 379.203716 212.749261 378.811078 209.151532 376.830436 207.054553M388.478266 239.193589C385.148113 237.868799 381.879036 239.366641 380.321571 242.644442 378.919708 245.590683 378.013731 248.67362 377.299711 251.883074 376.606051 255.00382 379.024411 258.175464 381.73216 258.985462 384.397738 259.782373 388.124892 258.448857 388.991604 255.371737 389.720166 252.775962 390.679949 250.242719 391.796786 247.809816 393.217555 244.7167 391.523394 240.40495 388.478266 239.193589"/>
    </g>
    <rect width="401" height="352"/>
  </g>
</svg>
