<svg width="602" height="439" viewBox="0 0 602 439" fill="none" xmlns="http://www.w3.org/2000/svg">
<g clip-path="url(#clip0_106_77)">
<rect width="602" height="439" fill="#6A00BA"/>
<path d="M158.364 109.111V72.1299H122V182.979H159.016V219.933H195.979V256.887H232.942V293.841H269.905V330.782H306.868V367.736H343.831V404.69H380.794V441.644H417.757V478.599H454.72V515.553H491.683V552.507H528.646V552.8H602.572V516.152H565.569V478.599H528.606V441.644H491.643V404.69H454.72V367.736H417.717V330.782H380.754V293.841H343.791V256.887H306.868V219.933H269.852V182.979H232.889V146.025H195.926V109.111H158.364ZM158.364 330.822V293.841H122V404.69H159.016V441.644H195.979V478.599H232.942V515.553H269.905V552.507H343.844V552.8H417.77V516.152H343.844V478.599H306.868V441.644H269.852V404.69H232.889V367.736H195.926V330.782L158.364 330.822ZM159.016 552.507V515.553H122V552.507H159.016ZM750.424 -112.641V-75.6866H787.387V-112.641H750.424ZM195.926 -75.6866V-112.641H122V-38.7591H159.016V-1.80498H195.979V35.1758H232.942V72.1299H269.905V109.111H306.868V146.065H343.831V183.019H380.794V219.973H417.757V256.927H454.72V293.881H491.683V330.782H528.646V367.736H565.609V404.69H602.572V441.644H639.535V478.599H676.498V515.553H713.474V552.507H787.4V478.599H750.424V441.644H713.434V404.69H676.458V367.736H639.495V330.782H602.572V293.841H565.569V256.887H528.606V219.933H491.643V182.979H454.72V146.025H417.717V109.111H380.754V72.1299H343.791V35.1758H306.868V-1.77831H269.852V-38.7591H232.889V-75.6866H195.926ZM602.532 -112.987H528.606V-76.3393H565.569V-38.7591H602.572V-1.80498H639.535V35.1758H676.498V72.1299H713.474V109.111H751.037V146.065H788V72.1299H787.4V35.1758H750.424V-1.77831H713.421V-38.7591H676.458V-75.6866H639.495V-112.641H602.572L602.532 -112.987ZM380.754 -112.694V-112.987H306.868V-76.3393H343.831V-38.7591H380.794V-1.80498H417.757V35.1758H454.72V72.1299H491.683V109.111H528.646V146.065H565.609V183.019H602.572V219.973H639.535V256.927H676.498V293.881H713.474V330.782H750.424V367.736H787.986V293.841H787.387V256.887H750.424V219.933H713.434V182.979H676.458V146.025H639.495V109.111H602.572V72.1299H565.569V35.1758H528.606V-1.77831H491.643V-38.7591H454.72V-75.6866H417.717V-112.641L380.754 -112.694Z" fill="#121212"/>
<path d="M393.001 35.003C385.686 35.0056 378.535 37.1778 372.453 41.245C366.372 45.3121 361.633 51.0916 358.836 57.8524C356.038 64.6131 355.309 72.0517 356.738 79.2273C358.168 86.403 361.694 92.9934 366.868 98.1652C372.043 103.337 378.636 106.858 385.811 108.283C392.987 109.708 400.424 108.972 407.182 106.17C413.94 103.368 419.716 98.6239 423.778 92.5388C427.84 86.4537 430.007 79.3005 430.004 71.9837C430.004 67.1251 429.047 62.3141 427.187 57.8256C425.327 53.3372 422.601 49.2593 419.165 45.825C415.728 42.3907 411.649 39.6672 407.16 37.8103C402.671 35.9534 397.859 34.9995 393.001 35.003V35.003ZM393.001 182.873C385.686 182.875 378.535 185.048 372.453 189.115C366.372 193.182 361.633 198.961 358.836 205.722C356.038 212.483 355.309 219.921 356.738 227.097C358.168 234.273 361.694 240.863 366.868 246.035C372.043 251.207 378.636 254.728 385.811 256.153C392.987 257.577 400.424 256.842 407.182 254.04C413.94 251.237 419.716 246.494 423.778 240.409C427.84 234.323 430.007 227.17 430.004 219.853C429.987 210.053 426.08 200.659 419.141 193.738C412.203 186.816 402.801 182.932 393.001 182.939V182.873ZM393.001 478.745C385.686 478.748 378.536 480.92 372.455 484.987C366.374 489.053 361.635 494.832 358.837 501.592C356.039 508.352 355.309 515.79 356.737 522.965C358.166 530.14 361.69 536.731 366.864 541.903C372.037 547.075 378.628 550.597 385.803 552.024C392.978 553.45 400.415 552.717 407.173 549.916C413.931 547.116 419.707 542.374 423.771 536.291C427.835 530.208 430.004 523.056 430.004 515.739C429.987 505.937 426.08 496.543 419.142 489.619C412.204 482.695 402.802 478.809 393.001 478.812V478.745ZM540.986 478.745C533.673 478.745 526.525 480.913 520.443 484.976C514.362 489.038 509.621 494.811 506.819 501.567C504.017 508.323 503.281 515.758 504.703 522.932C506.125 530.107 509.641 536.698 514.807 541.875C519.974 547.051 526.558 550.58 533.729 552.015C540.9 553.45 548.336 552.726 555.096 549.937C561.856 547.147 567.637 542.416 571.71 536.341C575.782 530.266 577.963 523.12 577.976 515.806C577.976 505.995 574.079 496.585 567.142 489.647C560.205 482.71 550.797 478.812 540.986 478.812V478.745ZM393.001 -113C385.689 -112.995 378.543 -110.821 372.466 -106.755C366.389 -102.688 361.653 -96.9105 358.859 -90.1527C356.064 -83.3949 355.336 -75.9601 356.765 -68.7883C358.195 -61.6165 361.719 -55.0297 366.891 -49.8605C372.064 -44.6913 378.652 -41.1719 385.824 -39.7471C392.996 -38.3224 400.429 -39.0562 407.184 -41.856C413.939 -44.6558 419.713 -49.3957 423.774 -55.4766C427.836 -61.5574 430.004 -68.7063 430.004 -76.0192C429.987 -85.8202 426.08 -95.2133 419.141 -102.135C412.203 -109.057 402.801 -112.94 393.001 -112.933V-113ZM244.976 182.939C237.66 182.942 230.51 185.114 224.428 189.181C218.347 193.249 213.608 199.028 210.811 205.789C208.013 212.55 207.284 219.988 208.713 227.164C210.143 234.339 213.668 240.93 218.843 246.102C224.018 251.273 230.611 254.794 237.786 256.219C244.962 257.644 252.399 256.909 259.157 254.106C265.915 251.304 271.69 246.56 275.753 240.475C279.815 234.39 281.982 227.237 281.979 219.92C281.979 215.061 281.022 210.25 279.162 205.762C277.302 201.274 274.576 197.196 271.14 193.761C267.703 190.327 263.624 187.604 259.135 185.747C254.645 183.89 249.834 182.936 244.976 182.939V182.939ZM244.976 330.876C237.661 330.878 230.511 333.05 224.43 337.117C218.348 341.183 213.609 346.962 210.812 353.722C208.014 360.482 207.284 367.92 208.712 375.095C210.141 382.27 213.665 388.861 218.839 394.033C224.012 399.206 230.603 402.728 237.778 404.154C244.953 405.58 252.39 404.847 259.148 402.047C265.906 399.246 271.682 394.505 275.746 388.421C279.81 382.338 281.979 375.186 281.979 367.87C281.979 363.01 281.022 358.199 279.162 353.71C277.303 349.221 274.577 345.142 271.141 341.706C267.704 338.271 263.625 335.546 259.136 333.688C254.646 331.83 249.835 330.874 244.976 330.876V330.876ZM244.976 -112.933C237.664 -112.928 230.518 -110.755 224.441 -106.688C218.363 -102.621 213.628 -96.8439 210.834 -90.0861C208.039 -83.3283 207.311 -75.8935 208.74 -68.7217C210.17 -61.5499 213.694 -54.9631 218.866 -49.7939C224.038 -44.6247 230.627 -41.1053 237.799 -39.6805C244.971 -38.2558 252.404 -38.9896 259.159 -41.7894C265.914 -44.5892 271.688 -49.3291 275.749 -55.41C279.811 -61.4909 281.979 -68.6397 281.979 -75.9526C281.979 -80.8113 281.022 -85.6222 279.162 -90.1107C277.302 -94.5991 274.576 -98.6771 271.14 -102.111C267.703 -105.546 263.624 -108.269 259.135 -110.126C254.645 -111.983 249.834 -112.937 244.976 -112.933V-112.933ZM836.93 -38.9719C844.242 -38.9771 851.388 -41.1505 857.466 -45.2172C863.543 -49.2839 868.278 -55.0613 871.073 -61.8191C873.867 -68.5769 874.596 -76.0117 873.166 -83.1835C871.736 -90.3553 868.212 -96.9422 863.04 -102.111C857.868 -107.281 851.279 -110.8 844.107 -112.225C836.935 -113.649 829.502 -112.916 822.747 -110.116C815.992 -107.316 810.219 -102.576 806.157 -96.4953C802.095 -90.4144 799.927 -83.2656 799.927 -75.9526C799.927 -71.0906 800.886 -66.2764 802.748 -61.7853C804.61 -57.2942 807.34 -53.2145 810.781 -49.7797C814.221 -46.3448 818.305 -43.6222 822.799 -41.7677C827.293 -39.9132 832.109 -38.9631 836.97 -38.9719H836.93ZM244.976 478.812C237.661 478.815 230.511 480.987 224.43 485.053C218.348 489.12 213.609 494.898 210.812 501.658C208.014 508.418 207.284 515.856 208.712 523.031C210.141 530.207 213.665 536.797 218.839 541.97C224.012 547.142 230.603 550.664 237.778 552.09C244.953 553.517 252.39 552.783 259.148 549.983C265.906 547.183 271.682 542.441 275.746 536.358C279.81 530.274 281.979 523.122 281.979 515.806C281.979 510.947 281.022 506.135 279.162 501.646C277.303 497.157 274.577 493.078 271.141 489.643C267.704 486.207 263.625 483.483 259.136 481.624C254.646 479.766 249.835 478.81 244.976 478.812V478.812ZM244.976 35.003C237.66 35.0056 230.51 37.1778 224.428 41.245C218.347 45.3121 213.608 51.0916 210.811 57.8524C208.013 64.6131 207.284 72.0517 208.713 79.2273C210.143 86.403 213.668 92.9934 218.843 98.1652C224.018 103.337 230.611 106.858 237.786 108.283C244.962 109.708 252.399 108.972 259.157 106.17C265.915 103.368 271.69 98.6239 275.753 92.5388C279.815 86.4537 281.982 79.3005 281.979 71.9837C281.979 67.1251 281.022 62.3141 279.162 57.8256C277.302 53.3372 274.576 49.2593 271.14 45.825C267.703 42.3907 263.624 39.6672 259.135 37.8103C254.645 35.9534 249.834 34.9995 244.976 35.003V35.003ZM540.947 330.876C533.632 330.884 526.485 333.06 520.407 337.13C514.329 341.2 509.595 346.98 506.801 353.74C504.008 360.501 503.281 367.938 504.712 375.111C506.144 382.285 509.67 388.873 514.845 394.043C520.02 399.212 526.611 402.732 533.785 404.156C540.959 405.58 548.394 404.845 555.151 402.044C561.908 399.243 567.682 394.501 571.745 388.418C575.808 382.336 577.976 375.185 577.976 367.87C577.976 358.058 574.079 348.649 567.142 341.711C560.205 334.773 550.797 330.876 540.986 330.876H540.947ZM392.961 330.876C385.646 330.878 378.496 333.05 372.415 337.117C366.334 341.183 361.595 346.962 358.797 353.722C355.999 360.482 355.269 367.92 356.697 375.095C358.126 382.27 361.65 388.861 366.824 394.033C371.997 399.206 378.588 402.728 385.763 404.154C392.938 405.58 400.375 404.847 407.133 402.047C413.891 399.246 419.668 394.505 423.731 388.421C427.795 382.338 429.964 375.186 429.964 367.87C429.964 358.063 426.071 348.657 419.14 341.72C412.209 334.783 402.807 330.883 393.001 330.876H392.961ZM836.93 330.876C829.614 330.876 822.463 333.045 816.38 337.11C810.297 341.175 805.556 346.953 802.756 353.713C799.956 360.472 799.224 367.911 800.651 375.087C802.078 382.263 805.601 388.855 810.774 394.029C815.947 399.202 822.538 402.726 829.714 404.153C836.889 405.58 844.326 404.848 851.085 402.048C857.844 399.248 863.621 394.506 867.686 388.423C871.75 382.339 873.92 375.186 873.92 367.87C873.92 358.065 870.028 348.662 863.1 341.725C856.171 334.789 846.773 330.886 836.97 330.876H836.93ZM836.93 478.745C829.614 478.745 822.463 480.915 816.38 484.98C810.297 489.045 805.556 494.823 802.756 501.582C799.956 508.342 799.224 515.781 800.651 522.957C802.078 530.133 805.601 536.725 810.774 541.898C815.947 547.072 822.538 550.595 829.714 552.023C836.889 553.45 844.326 552.718 851.085 549.918C857.844 547.118 863.621 542.376 867.686 536.292C871.75 530.209 873.92 523.056 873.92 515.739C873.902 505.947 870.003 496.56 863.076 489.638C856.15 482.716 846.762 478.823 836.97 478.812L836.93 478.745ZM540.986 182.939C533.67 182.939 526.518 185.109 520.435 189.175C514.352 193.24 509.611 199.019 506.811 205.779C504.012 212.54 503.28 219.979 504.709 227.155C506.137 234.332 509.661 240.924 514.836 246.097C520.01 251.27 526.602 254.792 533.778 256.218C540.954 257.644 548.392 256.91 555.151 254.108C561.91 251.306 567.686 246.562 571.749 240.477C575.812 234.391 577.979 227.237 577.976 219.92C577.976 215.063 577.019 210.253 575.16 205.765C573.301 201.277 570.576 197.2 567.141 193.766C563.706 190.332 559.629 187.608 555.141 185.75C550.653 183.893 545.843 182.938 540.986 182.939V182.939ZM836.97 35.0696C829.654 35.0696 822.501 37.2396 816.418 41.3051C810.335 45.3707 805.594 51.1492 802.795 57.9097C799.995 64.6703 799.264 72.1092 800.692 79.2857C802.12 86.4623 805.645 93.054 810.819 98.2271C815.994 103.4 822.586 106.923 829.762 108.349C836.938 109.774 844.376 109.04 851.134 106.238C857.893 103.436 863.669 98.6922 867.732 92.6068C871.795 86.5214 873.962 79.3676 873.96 72.0503C873.967 67.1877 873.015 62.3714 871.159 57.8769C869.303 53.3825 866.58 49.298 863.144 45.8571C859.709 42.4163 855.629 39.6865 851.138 37.8241C846.646 35.9616 841.832 35.003 836.97 35.003V35.0696ZM836.97 182.939C829.654 182.939 822.501 185.109 816.418 189.175C810.335 193.24 805.594 199.019 802.795 205.779C799.995 212.54 799.264 219.979 800.692 227.155C802.12 234.332 805.645 240.924 810.819 246.097C815.994 251.27 822.586 254.792 829.762 256.218C836.938 257.644 844.376 256.91 851.134 254.108C857.893 251.306 863.669 246.562 867.732 240.477C871.795 234.391 873.962 227.237 873.96 219.92C873.956 210.111 870.057 200.705 863.121 193.77C856.184 186.835 846.778 182.939 836.97 182.939ZM688.972 35.0696C681.656 35.0722 674.505 37.2445 668.423 41.3116C662.342 45.3788 657.603 51.1581 654.806 57.9189C652.009 64.6797 651.279 72.1183 652.709 79.2939C654.138 86.4695 657.664 93.06 662.839 98.2319C668.014 103.404 674.606 106.925 681.782 108.349C688.957 109.774 696.395 109.039 703.153 106.237C709.91 103.434 715.686 98.6905 719.748 92.6054C723.81 86.5203 725.977 79.3671 725.974 72.0503C725.983 67.1861 725.032 62.368 723.176 57.8718C721.32 53.3757 718.596 49.2899 715.159 45.8485C711.721 42.4071 707.639 39.6777 703.145 37.8167C698.652 35.9556 693.835 34.9995 688.972 35.003V35.0696ZM688.972 -112.8C681.659 -112.795 674.513 -110.622 668.436 -106.555C662.359 -102.488 657.624 -96.7107 654.829 -89.9529C652.034 -83.1951 651.306 -75.7603 652.736 -68.5885C654.165 -61.4167 657.689 -54.8298 662.861 -49.6607C668.034 -44.4915 674.622 -40.972 681.794 -39.5473C688.966 -38.1225 696.4 -38.8564 703.155 -41.6562C709.91 -44.456 715.683 -49.1959 719.745 -55.2768C723.807 -61.3576 725.974 -68.5064 725.974 -75.8194C725.992 -80.6892 725.048 -85.5146 723.196 -90.0184C721.344 -94.5223 718.62 -98.6159 715.182 -102.064C711.744 -105.513 707.659 -108.248 703.161 -110.113C698.663 -111.979 693.841 -112.937 688.972 -112.933V-112.8ZM688.972 183.073C681.656 183.075 674.505 185.247 668.423 189.315C662.342 193.382 657.603 199.161 654.806 205.922C652.009 212.683 651.279 220.121 652.709 227.297C654.138 234.473 657.664 241.063 662.839 246.235C668.014 251.407 674.606 254.928 681.782 256.353C688.957 257.777 696.395 257.042 703.153 254.24C709.91 251.437 715.686 246.693 719.748 240.608C723.81 234.523 725.977 227.37 725.974 220.053C725.992 215.184 725.048 210.358 723.196 205.854C721.344 201.351 718.62 197.257 715.182 193.808C711.744 190.36 707.659 187.625 703.161 185.759C698.663 183.894 693.841 182.936 688.972 182.939V183.073ZM540.986 35.2028C533.662 35.2029 526.502 37.3781 520.414 41.4525C514.327 45.527 509.586 51.3173 506.793 58.0895C503.999 64.8617 503.279 72.3109 504.724 79.4928C506.169 86.6747 509.713 93.266 514.907 98.4311C520.102 103.596 526.712 107.103 533.902 108.506C541.091 109.909 548.535 109.146 555.29 106.313C562.045 103.481 567.807 98.7059 571.846 92.5943C575.885 86.4827 578.018 79.3094 577.976 71.9837C577.976 67.1262 577.019 62.3163 575.16 57.8287C573.301 53.3411 570.576 49.2639 567.141 45.8297C563.706 42.3955 559.629 39.6718 555.141 37.8141C550.653 35.9565 545.843 35.0012 540.986 35.003V35.2028ZM540.986 -112.667C533.662 -112.664 526.504 -110.486 520.42 -106.409C514.335 -102.332 509.598 -96.5398 506.81 -89.7666C504.021 -82.9935 503.306 -75.5447 504.756 -68.3649C506.206 -61.185 509.756 -54.5975 514.954 -49.4378C520.152 -44.278 526.766 -40.7785 533.956 -39.3829C541.145 -37.9873 548.588 -38.7585 555.339 -41.5988C562.09 -44.4391 567.845 -49.2204 571.875 -55.3365C575.905 -61.4526 578.029 -68.628 577.976 -75.9526C577.976 -80.8101 577.019 -85.62 575.16 -90.1076C573.301 -94.5952 570.576 -98.6725 567.141 -102.107C563.706 -105.541 559.629 -108.265 555.141 -110.122C550.653 -111.98 545.843 -112.935 540.986 -112.933V-112.667ZM688.972 331.142C681.656 331.145 674.506 333.317 668.425 337.383C662.344 341.45 657.605 347.228 654.807 353.988C652.009 360.748 651.279 368.186 652.708 375.362C654.136 382.537 657.66 389.127 662.834 394.3C668.008 399.472 674.599 402.994 681.773 404.42C688.948 405.847 696.385 405.113 703.143 402.313C709.901 399.513 715.678 394.771 719.742 388.688C723.805 382.604 725.974 375.452 725.974 368.136C726.01 363.255 725.078 358.414 723.234 353.894C721.39 349.374 718.67 345.264 715.23 341.8C711.791 338.337 707.7 335.588 703.193 333.713C698.686 331.838 693.853 330.874 688.972 330.876V331.142ZM688.972 479.012C681.656 479.014 674.506 481.186 668.425 485.253C662.344 489.319 657.605 495.098 654.807 501.858C652.009 508.618 651.279 516.056 652.708 523.231C654.136 530.407 657.66 536.997 662.834 542.169C668.008 547.342 674.599 550.864 681.773 552.29C688.948 553.716 696.385 552.983 703.143 550.183C709.901 547.382 715.678 542.641 719.742 536.557C723.805 530.474 725.974 523.322 725.974 516.006C726.001 511.13 725.063 506.297 723.215 501.785C721.367 497.272 718.646 493.17 715.207 489.713C711.768 486.257 707.68 483.514 703.177 481.643C698.675 479.772 693.847 478.81 688.972 478.812V479.012Z" fill="#F2FF48"/>
<path d="M166.508 -156L204.973 -71.6685L263.942 -143.172L279.274 -51.7613L354.754 -105.566L345.892 -13.2955L432.728 -45.7268L400.295 41.0995L492.556 32.25L438.76 107.715L530.162 123.054L458.674 182.034L543 220.5L458.674 258.966L530.162 317.946L438.76 333.268L492.556 408.75L400.295 399.9L432.728 486.727L345.892 454.295L354.754 546.566L279.274 492.761L263.942 584.172L204.973 512.668L166.508 597L128.027 512.668L69.058 584.172L53.7261 492.761L-21.7542 546.566L-12.892 454.295L-99.728 486.727L-67.2951 399.9L-159.556 408.75L-105.76 333.268L-197.162 317.946L-125.674 258.966L-210 220.5L-125.674 182.034L-197.162 123.054L-105.76 107.715L-159.556 32.25L-67.2951 41.0995L-99.728 -45.7268L-12.892 -13.2955L-21.7542 -105.566L53.7261 -51.7613L69.058 -143.172L128.027 -71.6685L166.508 -156Z" fill="#FF8B20"/>
</g>
<defs>
<clipPath id="clip0_106_77">
<rect width="602" height="439" fill="white"/>
</clipPath>
</defs>
</svg>
