<?xml version="1.0" encoding="UTF-8"?>
<svg width="16px" height="16px" viewBox="0 0 16 16" version="1.1" xmlns="http://www.w3.org/2000/svg" xmlns:xlink="http://www.w3.org/1999/xlink">
    <!-- Generator: Sketch 50.2 (55047) - http://www.bohemiancoding.com/sketch -->
    <title>Combined Shape</title>
    <desc>Created with Sketch.</desc>
    <defs></defs>
    <g id="Symbols" stroke="none" stroke-width="1" fill="none" fill-rule="evenodd">
        <g id="details/article/black" transform="translate(-2.000000, -3.000000)" fill="#273B49">
            <path d="M10,19 C5.581722,19 2,15.418278 2,11 C2,6.581722 5.581722,3 10,3 C14.418278,3 18,6.581722 18,11 C18,15.418278 14.418278,19 10,19 Z M5.625,7.575 L5.625,8.667 L15.375,8.667 L15.375,7.575 L5.625,7.575 Z M5.625,12.983 L15.375,12.983 L15.375,11.917 L5.625,11.917 L5.625,12.983 Z M12.125,9.733 L5.625,9.733 L5.625,10.825 L12.125,10.825 L12.125,9.733 Z M12.125,14.075 L5.625,14.075 L5.625,15.167 L12.125,15.167 L12.125,14.075 Z" id="Combined-Shape"></path>
        </g>
    </g>
</svg>