<?xml version="1.0" encoding="UTF-8"?>
<svg width="16px" height="16px" viewBox="0 0 16 16" version="1.1" xmlns="http://www.w3.org/2000/svg" xmlns:xlink="http://www.w3.org/1999/xlink">
    <!-- Generator: Sketch 50.2 (55047) - http://www.bohemiancoding.com/sketch -->
    <title>Combined Shape</title>
    <desc>Created with Sketch.</desc>
    <defs></defs>
    <g id="Symbols" stroke="none" stroke-width="1" fill="none" fill-rule="evenodd">
        <g id="details/audio/black" transform="translate(-2.000000, -3.000000)" fill="#fff">
            <path d="M10,19 C5.581722,19 2,15.418278 2,11 C2,6.581722 5.581722,3 10,3 C14.418278,3 18,6.581722 18,11 C18,15.418278 14.418278,19 10,19 Z M10,5 C9.0933288,5 8.2533372,5.2266644 7.48,5.68 C6.72444067,6.12444667 6.12444667,6.72444067 5.68,7.48 C5.2266644,8.2533372 5,9.0933288 5,10 L5,13.9066667 C5,14.2000015 5.0755548,14.4755543 5.22666667,14.7333333 C5.37777853,14.9911124 5.58222093,15.1955548 5.84,15.3466667 C6.09777907,15.4977785 6.37333187,15.5733333 6.66666667,15.5733333 L8.33333333,15.5733333 L8.33333333,11.12 L6.12,11.12 L6.12,10 C6.12,9.28888533 6.2933316,8.63555853 6.64,8.04 C6.9866684,7.4533304 7.4533304,6.9866684 8.04,6.64 C8.63555853,6.2933316 9.28888533,6.12 10,6.12 C10.7111147,6.12 11.3644415,6.2933316 11.96,6.64 C12.5466696,6.9866684 13.0133316,7.4533304 13.36,8.04 C13.7066684,8.63555853 13.88,9.28888533 13.88,10 L13.88,11.12 L11.6666667,11.12 L11.6666667,15.5733333 L13.3333333,15.5733333 C13.6266681,15.5733333 13.9022209,15.4977785 14.16,15.3466667 C14.4177791,15.1955548 14.6222215,14.9911124 14.7733333,14.7333333 C14.9244452,14.4755543 15,14.2000015 15,13.9066667 L15,10 C15,9.0933288 14.7733356,8.2533372 14.32,7.48 C13.8755533,6.72444067 13.2755593,6.12444667 12.52,5.68 C11.7466628,5.2266644 10.9066712,5 10,5 Z" id="Combined-Shape"></path>
        </g>
    </g>
</svg>
