<?xml version="1.0" encoding="UTF-8"?><!-- Generator: Adobe Illustrator 25.4.1, SVG Export Plug-In . SVG Version: 6.00 Build 0)  --><svg xmlns="http://www.w3.org/2000/svg" xmlns:xlink="http://www.w3.org/1999/xlink" id="_x35_" style="enable-background:new 0 0 272 272;" version="1.1" viewBox="0 0 272 272" x="0px" xml:space="preserve" y="0px">
<style type="text/css">
	.st0{fill:#007F9B;}
	.st1{fill:#0F1211;}
	.st2{fill:#013D5B;}
	.st3{fill:#2B2A30;}
	.st4{fill:#00A3C4;}
	.st5{opacity:0.86;fill:#B3CDDE;enable-background:new    ;}
	.st6{fill:#303C51;}
	.st7{fill:#C9C9CD;}
	.st8{fill:#EBEBEB;}
	.st9{opacity:0.7;fill:#007F9B;enable-background:new    ;}
	.st10{clip-path:url(#SVGID_00000103951875545744705300000001257704116647318663_);}
	.st11{filter:url(#Adobe_OpacityMaskFilter);}
	.st12{clip-path:url(#SVGID_00000023249000071669751110000014454294301932072887_);}
	.st13{clip-path:url(#SVGID_00000104666572469592482450000003659774607534080431_);}
	
		.st14{clip-path:url(#SVGID_00000173851862894686146410000007898631427509134483_);fill:url(#SVGID_00000111176354205437062540000015110813439692200075_);}
	
		.st15{clip-path:url(#SVGID_00000023249000071669751110000014454294301932072887_);mask:url(#SVGID_00000088133862051731769220000006002521991044879776_);fill:url(#SVGID_00000175294416431402601040000008667237280568294535_);}
	.st16{fill:url(#SVGID_00000157272483034027941160000007628921355884021142_);}
	.st17{clip-path:url(#SVGID_00000092439285513313015260000018087624881088871818_);}
	.st18{filter:url(#Adobe_OpacityMaskFilter_00000005953275238289467530000007939711856882998684_);}
	.st19{clip-path:url(#SVGID_00000177481513612626730180000011035771913818011286_);}
	.st20{clip-path:url(#SVGID_00000163774435991440063580000014407668868011582126_);}
	
		.st21{clip-path:url(#SVGID_00000038383109657885002050000010672616176010629287_);fill:url(#SVGID_00000149350290007554760390000014442690711731653250_);}
	
		.st22{clip-path:url(#SVGID_00000177481513612626730180000011035771913818011286_);mask:url(#SVGID_00000154394188282340431310000001062563270615254695_);fill:url(#SVGID_00000147910043248863568230000011325170966104268201_);}
	.st23{fill:url(#SVGID_00000084524665873564790330000002885918722764992165_);}
	.st24{opacity:0.5;fill:#FFFFFF;enable-background:new    ;}
	.st25{fill:#014E74;}
	.st26{opacity:0.39;fill:url(#SVGID_00000121277152145172796770000009183113846305899707_);enable-background:new    ;}
	.st27{fill:#FDFFFF;}
	.st28{enable-background:new    ;}
	.st29{fill:#59A545;}
</style>
<g id="_x31_">
</g>
<g id="_x32_">
</g>
<g id="_x33_">
</g>
<g id="_x34_">
	<g id="Group">
		<g>
			<path class="st0" d="M238,103.7c0,0-0.7-5.7,7.5-4.9c0,0,18.4,1.1,20.1,11.1c0,0-0.3,6.7-10.9,6.8c0,0-12.5-0.7-15.5-3.7     C239.3,113.1,237.6,107.8,238,103.7z"/>
			<path class="st1" d="M238.5,118.3c0,0,1.2-3.5,0-7.7c0,0-1.6-4.8-0.5-6.9c0,0,5.1,8.3,4.8,11c0,0-0.6,4.1-1,5.5L238.5,118.3z"/>
			<path class="st1" d="M244.7,121.6c0,0,10.1-8.6,12.7-9.2c0,0,5.2-1.6,7.9-0.9c0,0,0.5,4.6-10.5,5.5c0,0-4.3,3.3-8,6.4     L244.7,121.6z"/>
			<path class="st0" d="M28.9,103.6c0,0,0.7-5.7-7.5-4.9c0,0-18.4,1.1-20.1,11.1c0,0,0.3,6.7,10.9,6.8c0,0,12.5-0.7,15.5-3.7     C27.7,112.9,29.4,107.6,28.9,103.6z"/>
			<path class="st2" d="M28.4,118.1c0,0-1.2-3.5,0-7.7c0,0,1.6-4.8,0.5-6.9c0,0-5.1,8.3-4.8,11c0,0,0.6,4.1,1,5.5L28.4,118.1z"/>
			<path class="st2" d="M22.2,121.4c0,0-10.1-8.6-12.7-9.2c0,0-5.2-1.6-7.9-0.9c0,0-0.5,4.6,10.5,5.5c0,0,4.3,3.3,8,6.4L22.2,121.4z     "/>
			<path class="st2" d="M253.6,210.1h-23.4c-3.5,0-6.4,2.9-6.4,6.4v13c0,3.5,2.9,6.4,6.4,6.4h23.4c3.5,0,6.4-2.9,6.4-6.4v-13     C259.9,213,257.1,210.1,253.6,210.1z"/>
			<path class="st2" d="M14.1,210h25.8c2.9,0,5.2,2.3,5.2,5.2v14.2c0,3.5-2.9,6.4-6.4,6.4H15.3c-3.5,0-6.4-2.9-6.4-6.4v-14.2     C8.9,212.3,11.2,210,14.1,210z"/>
			<path class="st2" d="M260.2,211.2c0,0-0.8,6.8-5.4,8.2c0,0-4.2,2-15.4,2c0,0-43.9-0.1-55.9,0H83.2c0,0-48.3-0.5-63.3-1.1     c0,0-6.5-0.4-10.1-4.6c0,0-1.5-2.6-1.4-4.9L260.2,211.2z"/>
			<path class="st3" d="M156.9,114.9c0,0,8.3-6.5,9.5-15.1c0,0-0.2-12.9,10.5-16.7c0,0,22-6.5,24.5,15.8c0,0,2.2,8,7.5,11.7l4.1,4.2     L156.9,114.9L156.9,114.9z"/>
			<path class="st3" d="M105.2,113.8c0,0-5-5.3-6.3-13.9c0,0,0.2-12.9-10.5-16.7c0,0-22-6.5-24.5,15.8c0,0-2.2,8-7.5,11.7l-4.1,4.2     L105.2,113.8z"/>
			<path class="st4" d="M261,137.2c-2.5-2.6-8.5-10-8.5-10c-6.4-6.7-16.9-11-16.9-11c-7.9-27.2-28.5-47.1-28.5-47.1     c-3.5-3.9-7.2-4.1-7.2-4.1c-11.1-2.4-80.8-3.3-80.8-3.3c-24.8-0.4-53.2,2.8-53.2,2.8C60,63,47,83,47,83     c-7.9,10.9-15.6,32.4-15.6,32.4c-6.3,2.3-14.9,10.1-14.9,10.1c-2.7,4.4-8.3,10.2-8.3,10.2c-0.9,2.4-1.7,33.4-1.7,33.4     c0,2.7,1.9,41.8,1.9,41.8c2.6,0.7,9.1,0.6,9.1,0.6l46,1.3c7.9-0.2,134.6,0.2,134.6,0.2h52.3c10.4-0.4,9.8-1.8,9.8-1.8     c0.7-3.7,2.4-42.7,2.4-42.7C263.5,149.5,261,137.2,261,137.2z M186.1,113.7c-6.9-0.6-80.9,0.1-80.9,0.1c-29.7-0.2-66,1.6-66,1.6     c3.5-17.3,21-43.3,21-43.3c26.9-2.5,80.1-2,80.1-2c37.9-0.6,65.6,2.8,65.6,2.8c6.9,6.7,20.5,42.3,20.5,42.3     C219.7,116,186.1,113.7,186.1,113.7z"/>
			<path class="st5" d="M201.9,72.8c0,0-29.6-3.4-67.5-2.8c0,0-52-0.1-73.7,2c0,0-16.6,23.4-21.9,43.4c0,0,32.6-1.8,62.3-1.6     c0,0,73.9-0.7,80.9-0.1c0,0,33.6,2.3,40.4,1.4C222.3,115.1,208.8,79.5,201.9,72.8z"/>
			<path class="st6" d="M206,72.8c0,0,1-0.6,3,0c0,0,18.3,24.4,22.4,42.6l-4.9-0.3C226.5,115.1,212.3,81.7,206,72.8z"/>
			<path class="st0" d="M134.8,144.6c17.2-0.1,35.5-0.4,35.5-0.4c16.6,1,23.7-1.3,23.7-1.3c5.9-2.5,13.9-10.4,13.9-10.4     s-6.5,5.7-3.3,2.8c3.3-2.8,17.7-15.5,17.7-15.5c5.5-4.7,10.2-4.5,10.2-4.5c-36.1-2-65.2-2.5-93.7-2.4l-5.3-0.1     c-28.3,0.9-59.5,0.9-97,2.1c0,0,3.8,0.3,9.5,4.9c0,0,14.4,12.7,17.7,15.5s-3.3-2.8-3.3-2.8s8,7.8,13.9,10.4c0,0,7.1,2.3,23.7,1.3     c0,0,18.3,0.3,35.5,0.4H134.8z"/>
			<path class="st7" d="M26.9,180.7c0,0,172.5,4.6,191,1.3c0,0,26.3-3.2,31.3,4.2c0,0,1.5,5.1,2,10.2c0.9-5.9-2-15.6-2-15.6     c-5.1-7.4-31.3-4.2-31.3-4.2c-18.5,3.3-191-1.3-191-1.3c-9.6,0-9.5,17.6-9.5,17.6c-0.2,1.2-0.1,2.1,0.1,2.9     C17.8,190.9,19.5,180.7,26.9,180.7z"/>
			<path class="st8" d="M20,199c8.1,3.7,27,4.6,27,4.6c7.7,1.5,10.3-2.8,10.3-2.8c118.1,11,153.2-0.1,153.2-0.1     c0.9,2.6,4.6,3.3,4.6,3.3c23.8,1.2,33.4-3.3,33.4-3.3c1.6-0.5,2.5-2.2,2.8-4.3c-0.5-5.1-2-10.2-2-10.2     c-5.1-7.4-31.3-4.2-31.3-4.2c-18.5,3.3-191-1.3-191-1.3c-7.3,0-9,10.2-9.4,15.1C18.1,198.1,20,199,20,199z"/>
			<ellipse class="st9" cx="133.2" cy="159.6" rx="56.9" ry="5.8"/>
			<path class="st7" d="M210,151.9c0,0-1.4-2.2,3-8c0,0,9.8-14,18.6-17.2c0,0,8.8-5.4,18.7,2.6c0,0,5.1,3.3,4.3,14.9     c0,0-0.9,7.5-6.9,8.7c0,0-14.3,4-28.4,3C219.1,155.9,211.9,154.9,210,151.9z"/>
			<g>
				<g>
					<defs>
						<polygon id="SVGID_1_" points="1,1 2,1 1,2       "/>
					</defs>
					<defs>
						<polygon id="SVGID_00000081637870276324189500000015981948700736750526_" points="-1,-1 -2,-1 -1,-2       "/>
					</defs>
					<clipPath id="SVGID_00000121971410548357476760000000332045648756584612_">
						<use style="overflow:visible;" xlink:href="#SVGID_1_"/>
					</clipPath>
					
						<clipPath id="SVGID_00000100362570644761219120000003026593411267580294_" style="clip-path:url(#SVGID_00000121971410548357476760000000332045648756584612_);">
						<use style="overflow:visible;" xlink:href="#SVGID_00000081637870276324189500000015981948700736750526_"/>
					</clipPath>
					<defs>
						<filter filterUnits="userSpaceOnUse" height="25.6" id="Adobe_OpacityMaskFilter" width="25.6" x="226.1" y="127.2">
							<feColorMatrix type="matrix" values="1 0 0 0 0  0 1 0 0 0  0 0 1 0 0  0 0 0 1 0"/>
						</filter>
					</defs>
					
						<mask height="25.6" id="SVGID_00000026161825054743974190000009753819105923802255_" maskUnits="userSpaceOnUse" width="25.6" x="226.1" y="127.2">
						<g class="st11">
							<g>
								<defs>
									<polygon id="SVGID_00000101104986074620842060000005613383997705655965_" points="1,1 2,1 1,2          "/>
								</defs>
								<defs>
									<polygon id="SVGID_00000183214901673956583360000004556617515695680693_" points="-1,-1 -2,-1 -1,-2          "/>
								</defs>
								
									<clipPath id="SVGID_00000049926821783264034330000008179715824965830846_" style="clip-path:url(#SVGID_00000100362570644761219120000003026593411267580294_);">
									<use style="overflow:visible;" xlink:href="#SVGID_00000101104986074620842060000005613383997705655965_"/>
								</clipPath>
								
									<clipPath id="SVGID_00000030476946916273464070000012460616583167804600_" style="clip-path:url(#SVGID_00000049926821783264034330000008179715824965830846_);">
									<use style="overflow:visible;" xlink:href="#SVGID_00000183214901673956583360000004556617515695680693_"/>
								</clipPath>
								
									<radialGradient cx="238.9" cy="133.9633" gradientTransform="matrix(1 0 0 -1 0 274)" gradientUnits="userSpaceOnUse" id="SVGID_00000145036005985633664070000002589987380118881958_" r="12.7754">
									<stop offset="0.2235" style="stop-color:#FFFFFF"/>
									<stop offset="0.2545" style="stop-color:#DCDCDC"/>
									<stop offset="0.3006" style="stop-color:#AEAEAE"/>
									<stop offset="0.3511" style="stop-color:#858585"/>
									<stop offset="0.405" style="stop-color:#616161"/>
									<stop offset="0.4629" style="stop-color:#434343"/>
									<stop offset="0.5264" style="stop-color:#2A2A2A"/>
									<stop offset="0.5977" style="stop-color:#171717"/>
									<stop offset="0.6811" style="stop-color:#0A0A0A"/>
									<stop offset="0.7879" style="stop-color:#020202"/>
									<stop offset="1" style="stop-color:#000000"/>
								</radialGradient>
								
									<circle cx="238.9" cy="140" r="12.8" style="clip-path:url(#SVGID_00000030476946916273464070000012460616583167804600_);fill:url(#SVGID_00000145036005985633664070000002589987380118881958_);"/>
							</g>
						</g>
					</mask>
					
						<radialGradient cx="238.9" cy="133.9633" gradientTransform="matrix(1 0 0 -1 0 274)" gradientUnits="userSpaceOnUse" id="SVGID_00000116211986748430134210000005789145494452938400_" r="12.7754">
						<stop offset="0.2235" style="stop-color:#FFFFFF"/>
						<stop offset="0.2545" style="stop-color:#DCDCDC"/>
						<stop offset="0.3006" style="stop-color:#AEAEAE"/>
						<stop offset="0.3511" style="stop-color:#858585"/>
						<stop offset="0.405" style="stop-color:#616161"/>
						<stop offset="0.4629" style="stop-color:#434343"/>
						<stop offset="0.5264" style="stop-color:#2A2A2A"/>
						<stop offset="0.5977" style="stop-color:#171717"/>
						<stop offset="0.6811" style="stop-color:#0A0A0A"/>
						<stop offset="0.7879" style="stop-color:#020202"/>
						<stop offset="1" style="stop-color:#000000"/>
					</radialGradient>
					
						<circle cx="238.9" cy="140" r="12.8" style="clip-path:url(#SVGID_00000100362570644761219120000003026593411267580294_);mask:url(#SVGID_00000026161825054743974190000009753819105923802255_);fill:url(#SVGID_00000116211986748430134210000005789145494452938400_);"/>
				</g>
			</g>
			
				<radialGradient cx="238.9" cy="133.9633" gradientTransform="matrix(1 0 0 -1 0 274)" gradientUnits="userSpaceOnUse" id="SVGID_00000036238350558907850180000007911734494529732760_" r="12.7754">
				<stop offset="0.2235" style="stop-color:#FFFFFF"/>
				<stop offset="0.3371" style="stop-color:#FFFFFF"/>
				<stop offset="1" style="stop-color:#FFFFFF"/>
			</radialGradient>
			<circle cx="238.9" cy="140" r="12.8" style="fill:url(#SVGID_00000036238350558907850180000007911734494529732760_);"/>
			<g>
				<g>
					<defs>
						<polygon id="SVGID_00000101071937748188250580000002305508838816158356_" points="1,1 2,1 1,2       "/>
					</defs>
					<defs>
						<polygon id="SVGID_00000161597804835116347410000014215024059837014955_" points="-1,-1 -2,-1 -1,-2       "/>
					</defs>
					<clipPath id="SVGID_00000150812937358524438410000008599860346135509915_">
						<use style="overflow:visible;" xlink:href="#SVGID_00000101071937748188250580000002305508838816158356_"/>
					</clipPath>
					
						<clipPath id="SVGID_00000169544295671829262640000012036793083466461099_" style="clip-path:url(#SVGID_00000150812937358524438410000008599860346135509915_);">
						<use style="overflow:visible;" xlink:href="#SVGID_00000161597804835116347410000014215024059837014955_"/>
					</clipPath>
					<defs>
						
							<filter filterUnits="userSpaceOnUse" height="18.4" id="Adobe_OpacityMaskFilter_00000044860882302099024730000002241976300024206216_" width="18.4" x="215" y="137.3">
							<feColorMatrix type="matrix" values="1 0 0 0 0  0 1 0 0 0  0 0 1 0 0  0 0 0 1 0"/>
						</filter>
					</defs>
					
						<mask height="18.4" id="SVGID_00000147941043682831201680000013060813963187799196_" maskUnits="userSpaceOnUse" width="18.4" x="215" y="137.3">
						<g style="filter:url(#Adobe_OpacityMaskFilter_00000044860882302099024730000002241976300024206216_);">
							<g>
								<defs>
									<polygon id="SVGID_00000149383060617989077360000017827934584002495122_" points="1,1 2,1 1,2          "/>
								</defs>
								<defs>
									<polygon id="SVGID_00000106107796089535647460000010538477536055937212_" points="-1,-1 -2,-1 -1,-2          "/>
								</defs>
								
									<clipPath id="SVGID_00000083081108871271561600000009225758623957770425_" style="clip-path:url(#SVGID_00000169544295671829262640000012036793083466461099_);">
									<use style="overflow:visible;" xlink:href="#SVGID_00000149383060617989077360000017827934584002495122_"/>
								</clipPath>
								
									<clipPath id="SVGID_00000057828678746085578030000016404468037277655716_" style="clip-path:url(#SVGID_00000083081108871271561600000009225758623957770425_);">
									<use style="overflow:visible;" xlink:href="#SVGID_00000106107796089535647460000010538477536055937212_"/>
								</clipPath>
								
									<radialGradient cx="224.239" cy="127.5" gradientTransform="matrix(1 0 0 -1 0 274)" gradientUnits="userSpaceOnUse" id="SVGID_00000094610444966742098970000016394065051577565335_" r="9.2008">
									<stop offset="0.2235" style="stop-color:#FFFFFF"/>
									<stop offset="0.2545" style="stop-color:#DCDCDC"/>
									<stop offset="0.3006" style="stop-color:#AEAEAE"/>
									<stop offset="0.3511" style="stop-color:#858585"/>
									<stop offset="0.405" style="stop-color:#616161"/>
									<stop offset="0.4629" style="stop-color:#434343"/>
									<stop offset="0.5264" style="stop-color:#2A2A2A"/>
									<stop offset="0.5977" style="stop-color:#171717"/>
									<stop offset="0.6811" style="stop-color:#0A0A0A"/>
									<stop offset="0.7879" style="stop-color:#020202"/>
									<stop offset="1" style="stop-color:#000000"/>
								</radialGradient>
								
									<circle cx="224.2" cy="146.5" r="9.2" style="clip-path:url(#SVGID_00000057828678746085578030000016404468037277655716_);fill:url(#SVGID_00000094610444966742098970000016394065051577565335_);"/>
							</g>
						</g>
					</mask>
					
						<radialGradient cx="224.239" cy="127.5" gradientTransform="matrix(1 0 0 -1 0 274)" gradientUnits="userSpaceOnUse" id="SVGID_00000142168091499221897310000005343567860225404845_" r="9.2008">
						<stop offset="0.2235" style="stop-color:#FFFFFF"/>
						<stop offset="0.2545" style="stop-color:#DCDCDC"/>
						<stop offset="0.3006" style="stop-color:#AEAEAE"/>
						<stop offset="0.3511" style="stop-color:#858585"/>
						<stop offset="0.405" style="stop-color:#616161"/>
						<stop offset="0.4629" style="stop-color:#434343"/>
						<stop offset="0.5264" style="stop-color:#2A2A2A"/>
						<stop offset="0.5977" style="stop-color:#171717"/>
						<stop offset="0.6811" style="stop-color:#0A0A0A"/>
						<stop offset="0.7879" style="stop-color:#020202"/>
						<stop offset="1" style="stop-color:#000000"/>
					</radialGradient>
					
						<circle cx="224.2" cy="146.5" r="9.2" style="clip-path:url(#SVGID_00000169544295671829262640000012036793083466461099_);mask:url(#SVGID_00000147941043682831201680000013060813963187799196_);fill:url(#SVGID_00000142168091499221897310000005343567860225404845_);"/>
				</g>
			</g>
			
				<radialGradient cx="224.239" cy="127.5" gradientTransform="matrix(1 0 0 -1 0 274)" gradientUnits="userSpaceOnUse" id="SVGID_00000072997508356978627990000016683362978726487172_" r="9.2008">
				<stop offset="0.2235" style="stop-color:#FFFFFF"/>
				<stop offset="0.3371" style="stop-color:#FFFFFF"/>
				<stop offset="1" style="stop-color:#FFFFFF"/>
			</radialGradient>
			<circle cx="224.2" cy="146.5" r="9.2" style="fill:url(#SVGID_00000072997508356978627990000016683362978726487172_);"/>
			<path class="st24" d="M210.4,151.7c0,0-1.4-2.2,2.9-7.9c0,0,9.6-13.7,18.2-16.9c0,0,8.6-5.3,18.3,2.5c0,0,5,3.3,4.2,14.6     c0,0-0.9,7.4-6.8,8.5c0,0-14.1,3.9-27.9,3C219.3,155.6,212.3,154.6,210.4,151.7z"/>
			<path class="st7" d="M60,151c0,0,1.4-2.2-3-8c0,0-9.8-14-18.6-17.2c0,0-8.8-5.4-18.7,2.6c0,0-5.1,3.3-4.3,14.9     c0,0,0.9,7.5,6.9,8.7c0,0,14.3,4,28.4,3C50.8,154.9,58,153.9,60,151z"/>
			<path class="st8" d="M60,150.7c0,0,1.3-2-2.8-7.1c0,0-9.2-12.4-17.4-15.3c0,0-8.2-4.8-17.5,2.3c0,0-4.8,3-4,13.2     c0,0,0.9,6.7,6.5,7.7c0,0,13.4,3.5,26.6,2.7C51.4,154.2,58.2,153.3,60,150.7z"/>
			<path class="st0" d="M60.7,72c0.1-0.1-1.1-0.4-2.5,0l-0.3,0.3c-1,1.3-17.9,25-21.7,42.7c0,0.1,0.1,0.3,0.2,0.3h3.3     c0.1,0,0.2-0.1,0.2-0.2c0.3-1.8,2.2-15.6,19.4-41.1C59.3,74,60.4,72.3,60.7,72z"/>
			<g>
				
					<ellipse class="st8" cx="197.2" cy="109.1" rx="62.5" ry="65.2" transform="matrix(0.8495 -0.5276 0.5276 0.8495 -27.8715 120.4689)"/>
				<path class="st25" d="M137.5,147c0.7,1.1,1.4,2.3,2.2,3.3L83,198.2l8.3,9.9l56.6-47.9c23.4,23.6,60.4,29.1,89.3,11.2      c33.6-20.9,43.6-65.9,22.3-100.3c-21.4-34.4-66.1-45.4-99.8-24.5C126.1,67.6,116.1,112.5,137.5,147z M165,55.1      c28.8-17.9,67.2-8.2,85.7,21.5s10.1,68.5-18.7,86.3c-28.8,17.9-67.2,8.2-85.7-21.5S136.2,73,165,55.1z"/>
				<g>
					
						<linearGradient gradientTransform="matrix(-0.6455 -0.7638 0.7638 -0.6455 -5323.04 -1812.0726)" gradientUnits="userSpaceOnUse" id="SVGID_00000170243584286470492940000008709600963830865281_" x1="-5098.2852" x2="-4968.0435" y1="2975.6914" y2="2975.6914">
						<stop offset="2.777780e-02" style="stop-color:#FFFFFF"/>
						<stop offset="0.2321" style="stop-color:#D9EBE5"/>
						<stop offset="0.2843" style="stop-color:#FEFCF9"/>
						<stop offset="0.7758" style="stop-color:#FCFDFD"/>
						<stop offset="0.9362" style="stop-color:#DDEDE7"/>
					</linearGradient>
					
						<path d="       M164.3,56.1c-29.3,18.2-37.7,57.8-18.7,88.3c19,30.6,58.2,40.6,87.5,22.4s37.7-57.8,18.7-88.3       C232.8,47.9,193.7,37.9,164.3,56.1z" style="opacity:0.39;fill:url(#SVGID_00000170243584286470492940000008709600963830865281_);enable-background:new    ;"/>
					<path class="st25" d="M51.6,227.5l3,3.5l77.7-65.7l-2.8-3.3c-2.2-2.6-6.1-2.9-8.7-0.7l-68.5,57.9       C49.8,221.2,49.5,225,51.6,227.5z"/>
					<path class="st2" d="M54.2,230.6l2.2,2.7c2.5,3,6.9,3.3,9.9,0.8l67-56.7c2.9-2.5,3.3-6.9,0.8-9.8l-2.3-2.7L54.2,230.6z"/>
					<path class="st27" d="M196.6,56.8c0,0,42.7-10.5,50.6,29.9C247.2,86.7,236.9,61.3,196.6,56.8z"/>
					<g class="st28">
						<path class="st29" d="M196.5,152.3v-11.8c-6.9-0.1-12.7-1.3-17.6-3.8l-1.9-12.5c2.9,1.4,6,2.6,9.4,3.4        c3.4,0.8,6.8,1.2,10.1,1.2v-15.4l-2.4-0.7c-5.9-1.6-10.2-3.8-12.9-6.7c-2.7-2.8-4.1-6.5-4.1-11c0-5.4,1.8-9.8,5.3-13.1        c3.5-3.3,8.5-5.3,14.9-5.9V64h6.2v11.8c5.6,0.2,11,1.5,16.1,3.9v11.7c-5.8-2.3-11.2-3.7-16.1-4v14l1.8,0.5        c4.1,1.3,7.5,2.7,10.1,4.4c2.6,1.7,4.4,3.7,5.6,6c1.2,2.3,1.8,5.2,1.8,8.5c0,5.6-1.7,10-5.1,13.3c-3.4,3.2-8.4,5.2-14.9,6        v12.2H196.5z M191.9,94.1c0,1.4,0.4,2.5,1.2,3.3c0.8,0.8,2.2,1.6,4.1,2.2V88c-1.7,0.5-3,1.2-3.9,2.3        C192.4,91.4,191.9,92.6,191.9,94.1z M207.9,121.5c0-3-1.7-5.2-5.1-6.5v12.9C206.2,126.8,207.9,124.6,207.9,121.5z"/>
					</g>
				</g>
			</g>
		</g>
	</g>
</g>
</svg>
