<?xml version="1.0" encoding="UTF-8" standalone="no"?>
<svg xmlns="http://www.w3.org/2000/svg" fill="none" height="136" viewBox="0 0 136 136" width="136">
<g clip-path="url(#clip0_324_26368)">
<g clip-path="url(#clip1_324_26368)">
<path d="M37.6828 91.265C36.6816 91.265 35.7566 90.9929 34.9296 90.5576L40.7407 125.947C41.1652 128.515 43.3852 130.398 45.986 130.398H86.0222C88.6231 130.398 90.8431 128.515 91.2675 125.947L97.0787 90.5576C96.2516 90.9929 95.3266 91.265 94.3254 91.265H37.6828V91.265Z" fill="#255F82"/>
<path d="M99.6144 91.2649H32.3832C32.035 91.2649 31.752 90.982 31.752 90.6338V80.0452C31.752 79.697 32.035 79.4141 32.3832 79.4141H99.6144C99.9626 79.4141 100.246 79.697 100.246 80.0452V90.6338C100.246 90.982 99.9626 91.2649 99.6144 91.2649Z" fill="#013D58"/>
<path d="M67.6533 97.4248H65.1721C64.6192 97.4248 64.171 97.873 64.171 98.426V121.127C64.171 121.68 64.6192 122.128 65.1721 122.128H67.6533C68.2062 122.128 68.6545 121.68 68.6545 121.127V98.426C68.6545 97.873 68.2062 97.4248 67.6533 97.4248Z" fill="#013D58"/>
<path d="M78.5026 100.733H76.2064C75.6535 100.733 75.2053 101.181 75.2053 101.734V118.297C75.2053 118.85 75.6535 119.298 76.2064 119.298H78.5026C79.0555 119.298 79.5038 118.85 79.5038 118.297V101.734C79.5038 101.181 79.0555 100.733 78.5026 100.733Z" fill="#013D58"/>
<path d="M56.6189 100.124H54.3227C53.7698 100.124 53.3215 100.572 53.3215 101.125V117.688C53.3215 118.241 53.7698 118.689 54.3227 118.689H56.6189C57.1718 118.689 57.6201 118.241 57.6201 117.688V101.125C57.6201 100.572 57.1718 100.124 56.6189 100.124Z" fill="#013D58"/>
<path clip-rule="evenodd" d="M65.2163 73.8209C53.9095 73.8209 44.6922 64.8973 44.2351 53.6994C44.2133 53.2315 44.616 52.8179 45.0948 52.8397C56.2819 53.2967 65.2163 62.5141 65.2163 73.8209ZM66.7842 73.8209C78.0909 73.8209 87.3083 64.8974 87.7653 53.6994C87.7871 53.2315 87.3845 52.8179 86.9056 52.8397C75.7186 53.2968 66.7842 62.5141 66.7842 73.8209Z" fill="#309042" fill-rule="evenodd"/>
<path d="M68.6559 79.4143H63.3453V46.7563H68.6559V79.4143Z" fill="#59A545"/>
<g clip-path="url(#clip2_324_26368)">
<path d="M59.2067 47.7127C68.5125 51.4375 79.0759 46.9131 82.8007 37.6073C86.5254 28.3015 82.0011 17.7381 72.6953 14.0133C63.3895 10.2886 52.8261 14.8129 49.1013 24.1187C45.3766 33.4245 49.9009 43.9879 59.2067 47.7127Z" fill="#F9C606"/>
<path d="M69.1247 34.0216C68.233 34.8631 67.0413 35.3166 65.8109 35.2828L65.6286 35.2825C64.8473 35.244 64.0871 35.0125 63.4165 34.609C62.7459 34.2055 62.1861 33.6427 61.7873 32.9711C61.4604 32.4492 61.2467 31.8652 61.1601 31.2569C61.0428 30.4933 61.1141 29.7134 61.3676 28.9848C61.6211 28.2562 62.0493 27.6008 62.6151 27.0752C63.5087 26.2369 64.699 25.7838 65.9287 25.8139L66.111 25.8143C67.3411 25.8764 68.5001 26.4141 69.3415 27.3129C69.5978 27.5871 69.9525 27.749 70.3276 27.7631C70.7028 27.7772 71.0676 27.6423 71.3419 27.3881C71.6162 27.1339 71.7775 26.7812 71.7902 26.4076C71.8029 26.034 71.6661 25.6701 71.4098 25.396C70.3668 24.2821 69.0109 23.5075 67.5204 23.1742L67.5837 21.0109C67.6033 20.6799 67.5065 20.352 67.3099 20.0836C67.1134 19.8151 66.8293 19.6229 66.5066 19.5399C66.302 19.4893 66.0889 19.4849 65.8827 19.527C65.6766 19.5692 65.4828 19.6569 65.3154 19.7836C65.1481 19.9103 65.0114 20.0727 64.9156 20.2592C64.8198 20.4456 64.7674 20.6512 64.7619 20.8609L64.6924 23.07C63.706 23.2205 62.7599 23.5637 61.9085 24.0799C61.0571 24.5961 60.317 25.2751 59.731 26.078C59.1015 26.923 58.663 27.8941 58.4456 28.9249C58.0248 30.8774 58.3966 32.9192 59.4801 34.6055C60.5636 36.2918 62.271 37.4857 64.2298 37.9268L64.1559 40.0858C64.1406 40.4159 64.239 40.7418 64.4349 41.0093C64.6308 41.2769 64.9124 41.4701 65.233 41.5568C65.4375 41.6075 65.6507 41.6119 65.8569 41.5697C66.063 41.5276 66.2569 41.44 66.4243 41.3133C66.5916 41.1866 66.7282 41.024 66.824 40.8376C66.9197 40.6511 66.9722 40.4455 66.9777 40.2359L67.0368 38.0226C68.5457 37.7933 69.9483 37.1158 71.0614 36.0786C71.2116 35.9558 71.3347 35.8035 71.4231 35.6311C71.5115 35.4587 71.5634 35.27 71.5755 35.0765C71.5876 34.8831 71.5595 34.689 71.4933 34.5065C71.427 34.324 71.3239 34.1568 71.1902 34.0153C71.0566 33.8739 70.8953 33.7611 70.7163 33.6841C70.5374 33.6071 70.3447 33.5675 70.15 33.5677C69.9554 33.5679 69.763 33.6079 69.5848 33.6853C69.4066 33.7626 69.2464 33.8757 69.1142 34.0174L69.1247 34.0216Z" fill="#FFE7A7"/>
</g>
</g>
</g>
<defs>
<clipPath id="clip0_324_26368">
<rect fill="white" height="136" width="136"/>
</clipPath>
<clipPath id="clip1_324_26368">
<rect fill="white" height="136" width="136"/>
</clipPath>
<clipPath id="clip2_324_26368">
<rect fill="white" height="37" transform="translate(47.5 12.4116)" width="37"/>
</clipPath>
</defs>
</svg>
