<?xml version="1.0" encoding="UTF-8"?>
<svg width="17px" height="17px" viewBox="0 0 17 17" version="1.1" xmlns="http://www.w3.org/2000/svg" xmlns:xlink="http://www.w3.org/1999/xlink">
    <!-- Generator: Sketch 50.2 (55047) - http://www.bohemiancoding.com/sketch -->
    <title>play_circle_filled - material</title>
    <desc>Created with Sketch.</desc>
    <defs></defs>
    <g id="Symbols" stroke="none" stroke-width="1" fill="none" fill-rule="evenodd">
        <g id="details/Video/black" transform="translate(-1.000000, -2.000000)" fill="#273B49">
            <path d="M8.06461538,14.2761538 L12.8723077,10.68 L8.06461538,7.06461538 L8.06461538,14.2761538 Z M9.68,2.68 C11.1415458,2.68 12.4940963,3.04538096 13.7376923,3.77615385 C14.9428265,4.468465 15.891535,5.41717346 16.5838462,6.62230769 C17.314619,7.86590365 17.68,9.21845423 17.68,10.68 C17.68,12.1415458 17.314619,13.4940963 16.5838462,14.7376923 C15.891535,15.9428265 14.9428265,16.891535 13.7376923,17.5838462 C12.4940963,18.314619 11.1415458,18.68 9.68,18.68 C8.21845423,18.68 6.86590365,18.314619 5.62230769,17.5838462 C4.41717346,16.8787144 3.468465,15.9235958 2.77615385,14.7184615 C2.04538096,13.4748656 1.68,12.1287252 1.68,10.68 C1.68,9.23127481 2.04538096,7.88513442 2.77615385,6.64153846 C3.48128558,5.43640423 4.43640423,4.48128558 5.64153846,3.77615385 C6.88513442,3.04538096 8.23127481,2.68 9.68,2.68 Z" id="play_circle_filled---material"></path>
        </g>
    </g>
</svg>