<svg id="_2" data-name="2" xmlns="http://www.w3.org/2000/svg" viewBox="0 0 520 100"><defs><style>.cls-1{fill:none;}.cls-2,.cls-3,.cls-4,.cls-5,.cls-6,.cls-7{fill:#dc143c;}.cls-3{opacity:0.6;}.cls-4{opacity:0.8;}.cls-5{opacity:0.4;}.cls-6{opacity:0.2;}.cls-7{opacity:0.1;}.cls-8{fill:#0f1626;}</style></defs><path class="cls-1" d="M66.48,55.57A6.34,6.34,0,0,0,65,54c-8.36-6.62-20-11.49-29.39-11C27,43.44,23.1,45.05,19,46.29A49,49,0,0,0,24.5,55.1C30.51,51.74,47.16,45.72,66.48,55.57Z"/><path class="cls-1" d="M35.84,41.18c11,.73,22.78,6.39,29.37,12.24a13.2,13.2,0,0,1,1.27,1.39c-4-7.5-19.16-17.65-32-19.31a46.9,46.9,0,0,0-6.14-.41,130.39,130.39,0,0,0-13.19,1.34,44.56,44.56,0,0,0,2.48,7.25C24.5,41.92,30.28,40.81,35.84,41.18Z"/><path class="cls-1" d="M58.94,55.85c1.57,0,6.72.33,7.2.44,0,0-.24-.37-1.46-.84a41,41,0,0,0-19.86-3.62c-6.16.31-12.29,2.32-18.3,5.24a50.1,50.1,0,0,0,6.91,6.27c7.5-5.36,15.13-7,23.23-7.44C57.41,55.87,58.18,55.85,58.94,55.85Z"/><path class="cls-1" d="M95.93,42.4a30.79,30.79,0,0,0-7.66,1.15c-3.58,1-6.6,2.63-8,2.49s-2.82-.43-4.15-.49a7.8,7.8,0,0,0-1.9-.06,8.38,8.38,0,0,0-6.46,4.32c-.82,1.52-.26,3.9.9,5.34a4,4,0,0,0,.64.65,5,5,0,0,0-1.12,1.07C64.92,61,61.9,67,61.94,80.37L52.51,96.79s-.68,1.14.18.8c.37-.15,6.26-5,8.92-7.38,8.45-7.52,17.32-14.26,18-25.63a21.39,21.39,0,0,0-.06-4.28c-.12-3.52,0-7.43.86-9.8a4.55,4.55,0,0,1,2.71-3,55.65,55.65,0,0,1,10.17-4.11,25.74,25.74,0,0,1,2.92-.6,4.51,4.51,0,0,0,1.23-.15C97.3,42.41,96.26,42.39,95.93,42.4Z"/><path class="cls-1" d="M66.08,57c-.37-.06-2.81-.16-2.84-.16-1.16-.06-4.89-.08-6.42.06-8,.74-14.55,2.53-21.56,7.76a48.63,48.63,0,0,0,5.79,3.42A41.24,41.24,0,0,1,66.08,57Z"/><path class="cls-1" d="M62.65,63.34a21.58,21.58,0,0,1,3.21-5.65A33.16,33.16,0,0,0,56,60.25c-6.36,2.73-8.81,5.09-12.69,8.87,5.38,2.37,11,2.31,17.69.9A36.33,36.33,0,0,1,62.65,63.34Z"/><path class="cls-2" d="M50,0a50,50,0,1,0,50,50A50,50,0,0,0,50,0ZM15.16,36.43a130.39,130.39,0,0,1,13.19-1.34,46.9,46.9,0,0,1,6.14.41c12.83,1.66,28,11.81,32,19.31a13.2,13.2,0,0,0-1.27-1.39c-6.59-5.85-18.37-11.51-29.37-12.24-5.56-.37-11.34.74-18.2,2.5A44.56,44.56,0,0,1,15.16,36.43ZM19,46.29c4.11-1.24,8-2.85,16.62-3.3,9.43-.5,21,4.37,29.39,11a6.34,6.34,0,0,1,1.48,1.59c-19.32-9.85-36-3.83-42-.47A49,49,0,0,1,19,46.29Zm7.53,10.78c6-2.92,12.14-4.93,18.3-5.24a41,41,0,0,1,19.86,3.62c1.22.47,1.46.84,1.46.84-.48-.11-5.63-.44-7.2-.44-.76,0-1.53,0-2.28,0-8.1.42-15.73,2.08-23.23,7.44A50.1,50.1,0,0,1,26.52,57.07Zm8.74,7.58c7-5.23,13.58-7,21.56-7.76,1.53-.14,5.26-.12,6.42-.06,0,0,2.47.1,2.84.16a41.24,41.24,0,0,0-25,11.08A48.63,48.63,0,0,1,35.26,64.65Zm8,4.47C47.17,65.34,49.62,63,56,60.25a33.16,33.16,0,0,1,9.88-2.56,21.58,21.58,0,0,0-3.21,5.65A36.33,36.33,0,0,0,61,70C54.25,71.43,48.67,71.49,43.29,69.12Zm50-25.77a55.65,55.65,0,0,0-10.17,4.11,4.55,4.55,0,0,0-2.71,3c-.9,2.37-1,6.28-.86,9.8a21.39,21.39,0,0,1,.06,4.28c-.67,11.37-9.54,18.11-18,25.63-2.66,2.38-8.55,7.23-8.92,7.38-.86.34-.18-.8-.18-.8l9.43-16.42c0-13.41,3-19.34,6.29-23.5a5,5,0,0,1,1.12-1.07,4,4,0,0,1-.64-.65c-1.16-1.44-1.72-3.82-.9-5.34a8.38,8.38,0,0,1,6.46-4.32,7.8,7.8,0,0,1,1.9.06c1.33.06,2.8.35,4.15.49s4.37-1.5,8-2.49a30.79,30.79,0,0,1,7.66-1.15c.33,0,1.37,0,1.5.2a4.51,4.51,0,0,1-1.23.15A25.74,25.74,0,0,0,93.28,43.35Z"/><path class="cls-3" d="M65,54c-8.36-6.62-20-11.49-29.39-11C27,43.44,23.1,45.05,19,46.29A49,49,0,0,0,24.5,55.1c6-3.36,22.66-9.38,42,.47A6.34,6.34,0,0,0,65,54Z"/><path class="cls-4" d="M35.84,41.18c11,.73,22.78,6.39,29.37,12.24a13.2,13.2,0,0,1,1.27,1.39c-4-7.5-19.16-17.65-32-19.31a46.9,46.9,0,0,0-6.14-.41,130.39,130.39,0,0,0-13.19,1.34,44.56,44.56,0,0,0,2.48,7.25C24.5,41.92,30.28,40.81,35.84,41.18Z"/><path class="cls-5" d="M64.68,55.45a41,41,0,0,0-19.86-3.62c-6.16.31-12.29,2.32-18.3,5.24a50.1,50.1,0,0,0,6.91,6.27c7.5-5.36,15.13-7,23.23-7.44.75,0,1.52,0,2.28,0,1.57,0,6.72.33,7.2.44C66.14,56.29,65.9,55.92,64.68,55.45Z"/><path class="cls-6" d="M56.82,56.89c-8,.74-14.55,2.53-21.56,7.76a48.63,48.63,0,0,0,5.79,3.42A41.24,41.24,0,0,1,66.08,57c-.37-.06-2.81-.16-2.84-.16C62.08,56.77,58.35,56.75,56.82,56.89Z"/><path class="cls-7" d="M43.29,69.12c5.38,2.37,11,2.31,17.69.9a36.33,36.33,0,0,1,1.67-6.68,21.58,21.58,0,0,1,3.21-5.65A33.16,33.16,0,0,0,56,60.25C49.62,63,47.17,65.34,43.29,69.12Z"/><path class="cls-2" d="M220,84.74a.41.41,0,0,1,.42-.41h8.67a.41.41,0,0,1,.42.41v.64a.42.42,0,0,1-.42.42h-7.39v6H228a.44.44,0,0,1,.42.42v.64a.43.43,0,0,1-.42.41h-6.31v6a.44.44,0,0,1-.42.42h-.86a.42.42,0,0,1-.42-.42Z"/><path class="cls-2" d="M233.54,84.74a.41.41,0,0,1,.42-.41h5.7a4.73,4.73,0,0,1,4.8,4.68,4.92,4.92,0,0,1-3.26,4.49l3,5.59a.41.41,0,0,1-.37.64h-1.06a.47.47,0,0,1-.48-.33l-2.86-5.7h-4.2v5.61a.44.44,0,0,1-.42.42H234a.42.42,0,0,1-.42-.42Zm6,7.51a3.16,3.16,0,1,0,0-6.32h-4.27v6.32Z"/><path class="cls-2" d="M249.38,84.74a.41.41,0,0,1,.42-.41h8.67a.41.41,0,0,1,.42.41v.64a.42.42,0,0,1-.42.42h-7.39v5.37h6.31a.44.44,0,0,1,.42.42v.64a.41.41,0,0,1-.42.41h-6.31v5.61h7.39a.42.42,0,0,1,.42.42v.64a.42.42,0,0,1-.42.42H249.8a.42.42,0,0,1-.42-.42Z"/><path class="cls-2" d="M263.22,84.74a.41.41,0,0,1,.42-.41h8.67a.41.41,0,0,1,.42.41v.64a.42.42,0,0,1-.42.42h-7.39v5.37h6.31a.44.44,0,0,1,.42.42v.64a.41.41,0,0,1-.42.41h-6.31v5.61h7.39a.42.42,0,0,1,.42.42v.64a.42.42,0,0,1-.42.42h-8.67a.42.42,0,0,1-.42-.42Z"/><path class="cls-2" d="M287.18,85.8h-3.83a.42.42,0,0,1-.42-.42v-.64a.41.41,0,0,1,.42-.41h9.33a.41.41,0,0,1,.42.41v.64a.42.42,0,0,1-.42.42h-3.83V99.31a.44.44,0,0,1-.42.42h-.83a.44.44,0,0,1-.42-.42Z"/><path class="cls-2" d="M303.16,84.11a7.92,7.92,0,1,1-7.9,7.94A7.9,7.9,0,0,1,303.16,84.11Zm0,14.3a6.38,6.38,0,1,0-6.36-6.36A6.39,6.39,0,0,0,303.16,98.41Z"/><path class="cls-2" d="M329.89,84.11a7.76,7.76,0,0,1,5.32,2,.42.42,0,0,1,0,.62l-.59.59c-.18.22-.35.2-.57,0a6.46,6.46,0,0,0-4.21-1.65,6.33,6.33,0,0,0,0,12.65,5.91,5.91,0,0,0,4.21-1.65.38.38,0,0,1,.57,0l.51.51a.42.42,0,0,1,0,.59,7.76,7.76,0,0,1-5.23,2.14,7.92,7.92,0,1,1,0-15.84Z"/><path class="cls-2" d="M339.75,84.74a.43.43,0,0,1,.42-.41H341a.41.41,0,0,1,.42.41v6.43h8.93V84.74a.41.41,0,0,1,.42-.41h.86a.42.42,0,0,1,.41.41V99.31a.43.43,0,0,1-.41.42h-.86a.42.42,0,0,1-.42-.42V92.64h-8.93v6.67a.42.42,0,0,1-.42.42h-.86a.44.44,0,0,1-.42-.42Z"/><path class="cls-2" d="M364.75,84.11a7.92,7.92,0,1,1-7.9,7.94A7.9,7.9,0,0,1,364.75,84.11Zm0,14.3a6.38,6.38,0,1,0-6.36-6.36A6.4,6.4,0,0,0,364.75,98.41Z"/><path class="cls-2" d="M384.42,84.11a7.92,7.92,0,1,1-7.9,7.94A7.9,7.9,0,0,1,384.42,84.11Zm0,14.3a6.38,6.38,0,1,0-6.35-6.36A6.39,6.39,0,0,0,384.42,98.41Z"/><path class="cls-2" d="M396.06,97.42l.33-.42c.22-.29.4-.4.7-.13a6.46,6.46,0,0,0,3.79,1.61A2.67,2.67,0,0,0,403.83,96c0-1.52-1.32-2.4-3.85-3.48s-3.87-2-3.87-4.47c0-1.49,1.18-3.91,4.68-3.91a7.18,7.18,0,0,1,3.76,1.12.5.5,0,0,1,.14.75l-.22.37c-.18.31-.42.31-.77.11a5.2,5.2,0,0,0-2.93-.88c-2.33,0-3,1.5-3,2.42,0,1.56,1.13,2.25,3,3,3,1.21,4.89,2.33,4.89,4.88,0,2.29-2.18,4-4.75,4a7.23,7.23,0,0,1-4.65-1.78C396,98,395.75,97.81,396.06,97.42Z"/><path class="cls-2" d="M410,84.74a.41.41,0,0,1,.41-.41h8.67a.41.41,0,0,1,.42.41v.64a.42.42,0,0,1-.42.42h-7.39v5.37H418a.44.44,0,0,1,.42.42v.64a.41.41,0,0,1-.42.41h-6.31v5.61h7.39a.42.42,0,0,1,.42.42v.64a.42.42,0,0,1-.42.42h-8.67a.41.41,0,0,1-.41-.42Z"/><path class="cls-8" d="M120.14,29.38a.36.36,0,0,1,.37-.37H142a.36.36,0,0,1,.37.37v.21A.36.36,0,0,1,142,30H121.09V47.62H139.5a.36.36,0,0,1,.37.37v.21a.36.36,0,0,1-.37.37H121.09V65.65a.36.36,0,0,1-.37.37h-.21a.36.36,0,0,1-.37-.37Z"/><path class="cls-8" d="M120.72,66.27h-.21a.6.6,0,0,1-.62-.62V29.38a.6.6,0,0,1,.62-.62H142a.62.62,0,0,1,.62.62v.21a.62.62,0,0,1-.62.62h-20.7V47.37H139.5a.61.61,0,0,1,.62.62v.21a.61.61,0,0,1-.62.62H121.34V65.65A.61.61,0,0,1,120.72,66.27Zm-.21-37a.11.11,0,0,0-.12.12V65.65a.11.11,0,0,0,.12.12h.21a.11.11,0,0,0,.12-.12V48.32H139.5a.11.11,0,0,0,.12-.12V48a.12.12,0,0,0-.12-.12H120.84V29.71H142a.12.12,0,0,0,.12-.12v-.21a.11.11,0,0,0-.12-.12Z"/><path class="cls-8" d="M120.72,66.41h-.21a.75.75,0,0,1-.76-.76V29.38a.75.75,0,0,1,.76-.76H142a.75.75,0,0,1,.76.76v.21a.76.76,0,0,1-.76.76H121.48V47.23h18a.75.75,0,0,1,.76.76v.21a.75.75,0,0,1-.76.76h-18V65.65A.75.75,0,0,1,120.72,66.41Zm-.19-37V65.65h.19l0-17.46h18.8l0-.19L120.7,48V29.57H142l0-.19Z"/><path class="cls-8" d="M120.72,66.66h-.21a1,1,0,0,1-1-1V29.38a1,1,0,0,1,1-1H142a1,1,0,0,1,1,1v.21a1,1,0,0,1-1,1H121.73V47H139.5a1,1,0,0,1,1,1v.21a1,1,0,0,1-1,1H121.73V65.65A1,1,0,0,1,120.72,66.66Zm-.21-37.79a.51.51,0,0,0-.51.51V65.65a.51.51,0,0,0,.51.51h.21a.5.5,0,0,0,.51-.51V48.71H139.5a.51.51,0,0,0,.51-.51V48a.51.51,0,0,0-.51-.51H121.23V30.1H142a.51.51,0,0,0,.51-.51v-.21a.51.51,0,0,0-.51-.51Zm-.23,37.06V29.15l22,0,.07.69H121V47.76l18.75,0,.07.69H121l0,17.43Z"/><path class="cls-8" d="M154.29,29.38a.36.36,0,0,1,.37-.37H167.2c6.61,0,12.06,4.76,12.06,11.31a11.5,11.5,0,0,1-9.63,11.37l8.25,13.81a.27.27,0,0,1,0,.42l-.48.26c-.16.06-.26-.05-.32-.16l-8.41-14.17a12.46,12.46,0,0,1-1.37,0H155.19V65.65a.35.35,0,0,1-.32.37h-.21a.36.36,0,0,1-.37-.37Zm13,21.63a10.79,10.79,0,0,0,11.11-10.69c0-6-5-10.36-11.16-10.36h-12V51Z"/><path class="cls-8" d="M177.27,66.44a.51.51,0,0,1-.46-.3l-8.32-14c-.42,0-.81,0-1.24,0H155.44v13.5a.6.6,0,0,1-.57.62h-.21a.61.61,0,0,1-.62-.62V29.38a.61.61,0,0,1,.62-.62H167.2c6.9,0,12.31,5.08,12.31,11.56A11.73,11.73,0,0,1,170,51.87l8.06,13.5a.57.57,0,0,1,.11.43.55.55,0,0,1-.24.33l-.49.27A.51.51,0,0,1,177.27,66.44Zm-8.51-14.86L177.29,66l.42-.25s0,0,0-.06l-8.44-14.13.35-.06A11.27,11.27,0,0,0,179,40.32c0-6.2-5.19-11.06-11.81-11.06H154.66a.11.11,0,0,0-.12.12V65.65a.11.11,0,0,0,.12.12h.21s.07,0,.07-.12v-14h12.31a12.18,12.18,0,0,0,1.35,0Zm-1.51-.32H154.94V29.71H167.2c6.5,0,11.41,4.56,11.41,10.61A11,11,0,0,1,167.25,51.26Zm-11.81-.5h11.81a10.55,10.55,0,0,0,10.86-10.44c0-5.76-4.69-10.11-10.91-10.11H155.44Z"/><path class="cls-8" d="M177.26,66.57a.62.62,0,0,1-.57-.37l-8.27-13.94c-.4,0-.78,0-1.17,0H155.58V65.65a.74.74,0,0,1-.71.76h-.21a.75.75,0,0,1-.76-.76V29.38a.75.75,0,0,1,.76-.76H167.2c7,0,12.45,5.14,12.45,11.7A11.86,11.86,0,0,1,170.24,52l8,13.34a.67.67,0,0,1,.12.53.63.63,0,0,1-.29.41l-.5.28A.72.72,0,0,1,177.26,66.57Zm-8.43-15.13,8.5,14.32.19-.11L169,51.41l.55-.1a11.12,11.12,0,0,0,9.31-11c0-6.13-5.13-10.93-11.67-10.93H154.68V65.65l.19,0-.07-14.11h12.45a9.72,9.72,0,0,0,1.33-.06Zm-1.58,0H154.8V29.57h12.4c6.47,0,11.55,4.72,11.55,10.75A11.17,11.17,0,0,1,167.25,51.39Zm-11.67-.77h11.67A10.41,10.41,0,0,0,178,40.32c0-5.69-4.63-10-10.77-10H155.58Z"/><path class="cls-8" d="M177.26,66.83a.89.89,0,0,1-.8-.52l-8.18-13.79c-.35,0-.68,0-1,0H155.83V65.65a1,1,0,0,1-1,1h-.21a1,1,0,0,1-1-1V29.38a1,1,0,0,1,1-1H167.2c7.12,0,12.7,5.25,12.7,12a12,12,0,0,1-9.27,11.81l7.8,13a1,1,0,0,1,.15.7.92.92,0,0,1-.4.58l-.52.29A1.13,1.13,0,0,1,177.26,66.83ZM168.55,52l8.35,14.07a.43.43,0,0,0,.55.22l.47-.27a.38.38,0,0,0,.17-.24.45.45,0,0,0-.08-.34L169.85,51.8l.34-.08a11.55,11.55,0,0,0,9.21-11.4c0-6.42-5.36-11.45-12.2-11.45H154.66a.51.51,0,0,0-.51.51V65.65a.51.51,0,0,0,.51.51h.21a.49.49,0,0,0,.46-.51V52h11.92c.39,0,.76,0,1.15,0Zm8.69,14.1L168.7,51.7h-.09a10.24,10.24,0,0,1-1.36.06h-12.2l.08,14.09-.7.07V29.14H167.2c6.68,0,11.92,4.91,11.92,11.18a11.38,11.38,0,0,1-9.52,11.24l-.19,0,8.45,14.15Zm-22.19-15h12.2A10.92,10.92,0,0,0,178.5,40.32c0-5.89-5-10.5-11.3-10.5H155.05Zm12.2-.27H155.33V30.1H167.2c6.28,0,11,4.39,11,10.22A10.66,10.66,0,0,1,167.25,50.87Zm-11.42-.5h11.42a10.16,10.16,0,0,0,10.47-10c0-5.54-4.53-9.72-10.52-9.72H155.83Z"/><path class="cls-8" d="M204.87,28.11c0-.11.16-.22.26-.22h.11c.1,0,.21.11.26.22l16,37.54a.22.22,0,0,1-.16.32l-.47.16c-.16.05-.21,0-.27-.16l-4.7-11H194.24l-4.76,11c0,.11-.11.21-.27.16l-.47-.16a.22.22,0,0,1-.16-.32ZM215.44,54,205.18,29.8,194.66,54Z"/><path class="cls-8" d="M220.76,66.4c-.25,0-.36-.23-.41-.31L215.7,55.17H194.4l-4.69,10.9c-.14.28-.33.38-.58.3l-.47-.16a.47.47,0,0,1-.32-.64L204.65,28a.56.56,0,0,1,.48-.35h.11a.61.61,0,0,1,.49.35l16,37.57a.51.51,0,0,1,0,.41.52.52,0,0,1-.31.24l-.47.16ZM205.09,28.21,188.81,65.75l.43.13v0l4.82-11.19h22l4.77,11.2h0l.43-.14-16-37.54-.06-.06h-.08S205.12,28.17,205.09,28.21Zm10.73,26.06H194.28l.15-.35,10.76-24.76ZM195,53.77h20l-9.89-23.34Z"/><path class="cls-8" d="M220.76,66.53a.57.57,0,0,1-.53-.38l-4.62-10.84H194.49l-4.66,10.82a.56.56,0,0,1-.74.37l-.48-.16a.61.61,0,0,1-.4-.81l16.31-37.6a.73.73,0,0,1,.61-.43h.11a.73.73,0,0,1,.61.43l16,37.57a.63.63,0,0,1,0,.52.6.6,0,0,1-.38.32l-.48.16A.56.56,0,0,1,220.76,66.53ZM194,54.53h22.15l4.75,11.18.17-.06-15.86-37.3L189,65.65l.16,0ZM216,54.41h-22l11.12-25.6Zm-20.77-.78h19.6l-9.68-22.85Z"/><path class="cls-8" d="M189.29,66.78a1,1,0,0,1-.28,0l-.47-.16a.87.87,0,0,1-.57-1.13l16.32-37.62a1,1,0,0,1,.84-.58h.11a1,1,0,0,1,.83.56l16,37.59a.92.92,0,0,1,0,.73.88.88,0,0,1-.53.45l-.48.16a.93.93,0,0,1-.28,0,.83.83,0,0,1-.76-.52l-4.55-10.7H194.66l-4.6,10.67A.85.85,0,0,1,189.29,66.78Zm15.84-39a.51.51,0,0,0-.39.29l-16.3,37.59a.36.36,0,0,0,.26.48l.47.15c.13,0,.29.06.44-.24l4.72-11h21.45l4.68,11c.11.23.25.23.3.23a.25.25,0,0,0,.12,0l.48-.16a.34.34,0,0,0,.24-.19.46.46,0,0,0,0-.33L205.62,28a.47.47,0,0,0-.38-.28h0l.22.51,16,37.54-.65.21L216,54.78H194.14L189.31,66l-.64-.21,16.5-38ZM194.45,54.16h21.2L205.19,29.44Zm20.79-.28H194.88l10.3-23.73Zm-19.6-.5h18.84l-9.3-22Z"/><path class="cls-8" d="M247.83,28.48a18.88,18.88,0,0,1,12.86,4.92.32.32,0,0,1,.05.42l-.27.32a.28.28,0,0,1-.42,0,17.63,17.63,0,0,0-12.22-4.71,18.09,18.09,0,1,0,0,36.17c7.09,0,11.38-2.75,12.43-3.65V49.52h-12a.36.36,0,0,1-.37-.37v-.21a.35.35,0,0,1,.37-.31h12.59a.35.35,0,0,1,.37.31V62.32c-.37.58-5,4.23-13.39,4.23a19,19,0,1,1,0-38.07Z"/><path class="cls-8" d="M247.83,66.8a19.13,19.13,0,0,1-19.44-19.23,19.41,19.41,0,0,1,19.44-19.34,19.16,19.16,0,0,1,13,5,.59.59,0,0,1,.1.76l-.28.34a.53.53,0,0,1-.79,0,17.41,17.41,0,0,0-12-4.63,18,18,0,0,0-18,17.89,17.69,17.69,0,0,0,18,17.78c7.43,0,11.53-3,12.18-3.52V49.77H248.26a.61.61,0,0,1-.62-.62v-.21a.6.6,0,0,1,.62-.56h12.59a.61.61,0,0,1,.62.56V62.4l0,.06C261.08,63,256.51,66.8,247.83,66.8Zm0-38.07a18.91,18.91,0,0,0-18.94,18.84A18.64,18.64,0,0,0,247.83,66.3c8.08,0,12.59-3.41,13.14-4.06V48.94a.16.16,0,0,0-.12-.06H248.26a.13.13,0,0,0-.12.06v.21a.11.11,0,0,0,.12.12h12.25v12.8l-.08.07c-.18.16-4.46,3.71-12.6,3.71a18.19,18.19,0,0,1-18.49-18.28,18.46,18.46,0,0,1,18.49-18.39A17.84,17.84,0,0,1,260.21,34l.06,0,.28-.32s0,0,0-.09A18.69,18.69,0,0,0,247.83,28.73Z"/><path class="cls-8" d="M247.84,66.94a19.27,19.27,0,0,1-19.59-19.37,19.55,19.55,0,0,1,19.59-19.48,19.28,19.28,0,0,1,13.1,5,.71.71,0,0,1,.12.94l-.29.34a.65.65,0,0,1-1,0,17.25,17.25,0,0,0-11.94-4.59A17.82,17.82,0,0,0,230,47.57a17.56,17.56,0,0,0,17.86,17.64c7.21,0,11.25-2.83,12-3.44V49.91H248.26a.75.75,0,0,1-.76-.76v-.21a.74.74,0,0,1,.76-.7h12.59a.74.74,0,0,1,.76.7v13.5l-.06.09C261.19,63.08,256.57,66.94,247.84,66.94Zm0-38.07A18.77,18.77,0,0,0,229,47.57a18.5,18.5,0,0,0,18.81,18.59c7.87,0,12.35-3.27,13-4V48.94L248.26,49l0,.14h12.37v13l-.13.12C260.34,62.4,256,66,247.84,66A18.33,18.33,0,0,1,229.2,47.57,18.6,18.6,0,0,1,247.84,29a18,18,0,0,1,12.41,4.75l.13-.15A18.55,18.55,0,0,0,247.84,28.87Z"/><path class="cls-8" d="M247.83,67.19A19.52,19.52,0,0,1,228,47.57a19.8,19.8,0,0,1,19.83-19.73A19.56,19.56,0,0,1,261.1,32.9a1,1,0,0,1,.17,1.28l-.3.36a.93.93,0,0,1-1.37.05,17,17,0,0,0-11.77-4.52,17.57,17.57,0,0,0-17.6,17.5A17.31,17.31,0,0,0,247.83,65c6.89,0,10.85-2.61,11.79-3.32V50.16H248.26a1,1,0,0,1-1-1v-.21a1,1,0,0,1,1-.95h12.59a1,1,0,0,1,1,.95V62.51l-.1.16C261.4,63.23,256.68,67.19,247.83,67.19Zm0-38.85A19.3,19.3,0,0,0,228.5,47.57a19,19,0,0,0,19.33,19.12c8.63,0,13.16-3.76,13.5-4.29l0,0V48.94a.5.5,0,0,0-.51-.45H248.26a.5.5,0,0,0-.51.45v.21a.5.5,0,0,0,.51.51h11.86V61.89L260,62c-.75.59-4.88,3.5-12.2,3.5a17.81,17.81,0,0,1-18.1-17.89,18.07,18.07,0,0,1,18.1-18,17.47,17.47,0,0,1,12.11,4.65.42.42,0,0,0,.66,0l.27-.33a.48.48,0,0,0-.11-.61A19,19,0,0,0,247.83,28.34Zm0,38.07a18.74,18.74,0,0,1-19.05-18.84,19,19,0,0,1,19.05-18.95,18.77,18.77,0,0,1,12.71,4.83l.19.16-.45.54-.19-.17a17.78,17.78,0,0,0-12.26-4.69,18.35,18.35,0,0,0-18.38,18.28,18.08,18.08,0,0,0,18.38,18.17c8.1,0,12.35-3.53,12.52-3.68l0,0V49.39H248.06l-.09-.63,13.11-.08v13.6l-.07.07C260.28,63.16,255.63,66.41,247.83,66.41Z"/><path class="cls-8" d="M275.93,29.38a.36.36,0,0,1,.37-.37h12.53c6.62,0,12.06,4.76,12.06,11.31a11.5,11.5,0,0,1-9.62,11.37l8.25,13.81a.28.28,0,0,1-.06.42l-.47.26a.25.25,0,0,1-.32-.16l-8.41-14.17a12.55,12.55,0,0,1-1.37,0H276.83V65.65a.35.35,0,0,1-.32.37h-.21a.36.36,0,0,1-.37-.37Zm13,21.63A10.78,10.78,0,0,0,300,40.32c0-6-5-10.36-11.16-10.36h-12V51Z"/><path class="cls-8" d="M298.9,66.44a.51.51,0,0,1-.45-.3l-8.32-14c-.43,0-.82,0-1.24,0H277.08v13.5a.6.6,0,0,1-.57.62h-.21a.61.61,0,0,1-.62-.62V29.38a.61.61,0,0,1,.62-.62h12.53c6.91,0,12.31,5.08,12.31,11.56a11.73,11.73,0,0,1-9.48,11.55l8.07,13.5a.57.57,0,0,1,.1.43.53.53,0,0,1-.23.33l-.49.27A.52.52,0,0,1,298.9,66.44Zm-8.51-14.86L298.92,66l.42-.25a.12.12,0,0,0,0-.06l-8.44-14.13.35-.06a11.26,11.26,0,0,0,9.42-11.13c0-6.2-5.18-11.06-11.81-11.06H276.3a.11.11,0,0,0-.12.12V65.65a.11.11,0,0,0,.12.12h.21s.07,0,.07-.12v-14h12.31a11.92,11.92,0,0,0,1.34,0Zm-1.5-.32H276.58V29.71h12.25c6.51,0,11.41,4.56,11.41,10.61A11,11,0,0,1,288.89,51.26Zm-11.81-.5h11.81a10.54,10.54,0,0,0,10.85-10.44c0-5.76-4.69-10.11-10.91-10.11H277.08Z"/><path class="cls-8" d="M298.9,66.57a.63.63,0,0,1-.58-.37l-8.27-13.94c-.39,0-.77,0-1.16,0H277.22V65.65a.74.74,0,0,1-.71.76h-.21a.75.75,0,0,1-.76-.76V29.38a.75.75,0,0,1,.76-.76h12.53c7,0,12.45,5.14,12.45,11.7A11.85,11.85,0,0,1,291.88,52l8,13.34a.71.71,0,0,1,.12.53.61.61,0,0,1-.29.41l-.5.28A.72.72,0,0,1,298.9,66.57Zm-8.43-15.13L299,65.76l.19-.11-8.5-14.24.55-.1a11.11,11.11,0,0,0,9.3-11c0-6.13-5.12-10.93-11.67-10.93H276.32V65.65l.19,0-.07-14.11h12.45a9.72,9.72,0,0,0,1.33-.06Zm-1.58,0H276.44V29.57h12.39c6.48,0,11.55,4.72,11.55,10.75A11.17,11.17,0,0,1,288.89,51.39Zm-11.67-.77h11.67a10.4,10.4,0,0,0,10.71-10.3c0-5.69-4.63-10-10.77-10H277.22Z"/><path class="cls-8" d="M298.9,66.82a.87.87,0,0,1-.8-.51l-8.18-13.79c-.35,0-.68,0-1,0H277.47V65.65a1,1,0,0,1-1,1h-.21a1,1,0,0,1-1-1V29.38a1,1,0,0,1,1-1h12.53c7.12,0,12.7,5.25,12.7,12a12,12,0,0,1-9.26,11.81l7.8,13a.93.93,0,0,1,.14.71.87.87,0,0,1-.39.57l-.52.29A1.09,1.09,0,0,1,298.9,66.82ZM290.19,52l8.35,14.07a.43.43,0,0,0,.55.22l.47-.26a.42.42,0,0,0,.16-.25.4.4,0,0,0-.08-.34L291.49,51.8l.34-.08a11.56,11.56,0,0,0,9.2-11.4c0-6.42-5.36-11.45-12.2-11.45H276.3a.5.5,0,0,0-.51.51V65.65a.5.5,0,0,0,.51.51h.21a.48.48,0,0,0,.46-.51V52h11.92c.39,0,.76,0,1.14,0Zm8.68,14.1-8.53-14.4h-.09a12.27,12.27,0,0,1-1.36,0h-12.2l.07,14.1-.69.07V29.14h12.76c6.69,0,11.92,4.91,11.92,11.18a11.38,11.38,0,0,1-9.51,11.24l-.19,0,8.45,14.15Zm-22.18-15h12.2a10.92,10.92,0,0,0,11.24-10.82c0-5.89-5-10.5-11.3-10.5H276.69Zm12.2-.27H277V30.1h11.86c6.29,0,11,4.39,11,10.22A10.65,10.65,0,0,1,288.89,50.87Zm-11.42-.5h11.42a10.15,10.15,0,0,0,10.46-10c0-5.54-4.52-9.72-10.52-9.72H277.47Z"/><path class="cls-8" d="M326.51,28.11c.05-.11.15-.22.26-.22h.11c.1,0,.21.11.26.22l16,37.54A.22.22,0,0,1,343,66l-.47.16c-.16.05-.22,0-.27-.16l-4.7-11H315.88l-4.76,11c-.06.11-.11.21-.27.16l-.47-.16a.22.22,0,0,1-.16-.32ZM337.08,54,326.82,29.8,316.3,54Z"/><path class="cls-8" d="M342.4,66.4a.47.47,0,0,1-.41-.32l-4.65-10.91H316l-4.69,10.9c-.14.28-.33.38-.58.3l-.47-.16a.47.47,0,0,1-.32-.63L326.28,28a.6.6,0,0,1,.49-.35h.11a.58.58,0,0,1,.48.35l16,37.57a.47.47,0,0,1-.31.65l-.47.16ZM326.73,28.21,310.45,65.75l.43.13v0l4.82-11.19h22l4.77,11.2h0l.44-.14-16-37.54-.06-.06h-.08S326.75,28.17,326.73,28.21Zm10.73,26.06H315.92l.15-.35,10.76-24.76Zm-20.78-.5h20l-9.89-23.34Z"/><path class="cls-8" d="M342.39,66.53a.58.58,0,0,1-.53-.39l-4.61-10.83H316.13l-4.66,10.82a.56.56,0,0,1-.74.37l-.48-.16a.61.61,0,0,1-.4-.81l16.31-37.6a.73.73,0,0,1,.61-.43h.11a.75.75,0,0,1,.61.42l16,37.58a.61.61,0,0,1-.39.84l-.48.16A.66.66,0,0,1,342.39,66.53Zm-26.77-12h22.14l4.76,11.18.17-.06-15.87-37.3-16.18,37.3.17,0Zm22.05-.12h-22l11.12-25.6Zm-20.78-.78H336.5l-9.68-22.85Z"/><path class="cls-8" d="M342.4,66.78a.81.81,0,0,1-.76-.53l-4.56-10.69H316.3l-4.6,10.67a.82.82,0,0,1-1.05.5l-.47-.15a.86.86,0,0,1-.57-1.13l16.32-37.62a1,1,0,0,1,.84-.58h.11a1,1,0,0,1,.83.56l16,37.59a.88.88,0,0,1-.54,1.18l-.48.16A.9.9,0,0,1,342.4,66.78ZM316,55.06h21.44l4.68,11c.16.31.3.26.43.21l.48-.16a.36.36,0,0,0,.23-.52L327.26,28a.52.52,0,0,0-.38-.27h0L343,65.8l-.65.21L337.6,54.78H315.78L310.94,66l-.64-.21,16.51-38h0c-.23,0-.36.24-.39.29l-16.3,37.59a.36.36,0,0,0,.25.48l.48.15c.13,0,.29.06.44-.24Zm.12-.9h21.2L326.83,29.44Zm20.78-.28H316.51l.15-.35,10.16-23.38Zm-19.6-.5h18.85l-9.3-22Z"/><path class="cls-8" d="M354.38,28.48a.38.38,0,0,1,.69-.22L382.41,64.7V29.38a.36.36,0,0,1,.37-.37H383a.36.36,0,0,1,.37.37V66.45a.38.38,0,0,1-.69.21L355.33,30.22V65.65A.36.36,0,0,1,355,66h-.21a.36.36,0,0,1-.37-.37Z"/><path class="cls-8" d="M383,67.08a.61.61,0,0,1-.51-.28L355.58,31V65.65a.61.61,0,0,1-.62.62h-.21a.61.61,0,0,1-.62-.62V28.48a.63.63,0,0,1,.45-.61.63.63,0,0,1,.7.25L382.16,64V29.38a.61.61,0,0,1,.62-.62H383a.6.6,0,0,1,.62.62V66.45a.62.62,0,0,1-.45.6A.57.57,0,0,1,383,67.08Zm-27.9-37.61,27.79,37c.05.08.11.08.15.06a.11.11,0,0,0,.09-.12V29.38a.11.11,0,0,0-.12-.12h-.21a.11.11,0,0,0-.12.12V65.45l-27.79-37a.13.13,0,0,0-.15-.06.14.14,0,0,0-.09.13V65.65a.11.11,0,0,0,.12.12H355a.11.11,0,0,0,.12-.12Z"/><path class="cls-8" d="M383,67.22a.75.75,0,0,1-.63-.34L355.72,31.39V65.65a.75.75,0,0,1-.76.76h-.21a.75.75,0,0,1-.76-.76V28.48a.76.76,0,0,1,.55-.74.74.74,0,0,1,.85.31L382,63.54V29.38a.75.75,0,0,1,.76-.76H383a.75.75,0,0,1,.76.76V66.45a.77.77,0,0,1-.55.74A.83.83,0,0,1,383,67.22Zm-28-38.17L383,66.43l0-37.05h-.19l0,36.48-28-37.36V65.65l.19,0Z"/><path class="cls-8" d="M383,67.47a1,1,0,0,1-.84-.45L356,32.14V65.65a1,1,0,0,1-1,1h-.21a1,1,0,0,1-1-1V28.48a1,1,0,0,1,1.86-.57l26.17,34.88V29.38a1,1,0,0,1,1-1H383a1,1,0,0,1,1,1V66.45a1,1,0,0,1-.72,1A1.54,1.54,0,0,1,383,67.47ZM355.47,30.64l27.08,36.09a.51.51,0,0,0,.52.23l-.29-.38L355.19,29.8l0,36.06-.69.07V28a.53.53,0,0,0-.28.47V65.65a.5.5,0,0,0,.51.51H355a.5.5,0,0,0,.51-.51Zm27.75-1.54,0,37.8a.51.51,0,0,0,.26-.45V29.38a.51.51,0,0,0-.51-.51h-.21a.5.5,0,0,0-.51.51V64.29L355.19,28.2a.51.51,0,0,0-.52-.24l.3.4,27.58,36.76,0-35.95Z"/><path class="cls-8" d="M406.43,30h-11a.37.37,0,0,1-.38-.37v-.21a.36.36,0,0,1,.38-.37h23.05a.35.35,0,0,1,.37.37v.21a.36.36,0,0,1-.37.37h-11.1V65.65A.36.36,0,0,1,407,66h-.22a.36.36,0,0,1-.37-.37Z"/><path class="cls-8" d="M407,66.27h-.21a.61.61,0,0,1-.62-.62V30.21H395.43a.61.61,0,0,1-.61-.62v-.21a.61.61,0,0,1,.61-.62h23.06a.6.6,0,0,1,.62.62v.21a.62.62,0,0,1-.62.62H407.64V65.65A.6.6,0,0,1,407,66.27Zm-11.59-37c-.07,0-.11,0-.11.12v.21a.11.11,0,0,0,.11.12h11.25V65.65c0,.08.05.12.13.12H407a.11.11,0,0,0,.12-.12V29.71h11.35a.11.11,0,0,0,.12-.12v-.21a.11.11,0,0,0-.12-.12Z"/><path class="cls-8" d="M407,66.41h-.22a.75.75,0,0,1-.76-.76V30.35h-10.6a.75.75,0,0,1-.76-.76v-.21a.75.75,0,0,1,.76-.76h23.05a.75.75,0,0,1,.76.76v.21a.75.75,0,0,1-.76.76H407.78v35.3A.75.75,0,0,1,407,66.41Zm-.59-36.84h.39V65.65h.2l0-36.07h11.49l0-.19h-23l0,.2Z"/><path class="cls-8" d="M407,66.66h-.22a1,1,0,0,1-1-1V30.6H395.44a1,1,0,0,1-1-1v-.21a1,1,0,0,1,1-1h23.05a1,1,0,0,1,1,1v.21a1,1,0,0,1-1,1H408V65.65A1,1,0,0,1,407,66.66ZM395.44,28.87a.5.5,0,0,0-.51.51v.21a.51.51,0,0,0,.51.51h10.85V65.65a.51.51,0,0,0,.51.51H407a.51.51,0,0,0,.51-.51V30.1h11a.51.51,0,0,0,.51-.51v-.21a.5.5,0,0,0-.51-.51Zm11.13,37.06V29.82l-11.34,0-.07-.69,23.54,0,.07.69H407.25l0,36Z"/><path class="cls-8" d="M430.54,29.38a.36.36,0,0,1,.37-.37h.21a.36.36,0,0,1,.37.37V65.65a.36.36,0,0,1-.37.37h-.21a.36.36,0,0,1-.37-.37Z"/><path class="cls-8" d="M431.12,66.27h-.21a.62.62,0,0,1-.62-.62V29.38a.62.62,0,0,1,.62-.62h.21a.61.61,0,0,1,.62.62V65.65A.61.61,0,0,1,431.12,66.27Zm-.21-37a.11.11,0,0,0-.12.12V65.65a.11.11,0,0,0,.12.12h.21a.11.11,0,0,0,.12-.12V29.38a.11.11,0,0,0-.12-.12Z"/><path class="cls-8" d="M431.12,66.41h-.21a.75.75,0,0,1-.76-.76V29.38a.75.75,0,0,1,.76-.76h.21a.75.75,0,0,1,.76.76V65.65A.75.75,0,0,1,431.12,66.41Zm-.19-37V65.65h.19l0-36.26Z"/><path class="cls-8" d="M431.12,66.66h-.21a1,1,0,0,1-1-1V29.38a1,1,0,0,1,1-1h.21a1,1,0,0,1,1,1V65.65A1,1,0,0,1,431.12,66.66Zm-.21-37.79a.51.51,0,0,0-.51.51V65.65a.51.51,0,0,0,.51.51h.21a.5.5,0,0,0,.51-.51V29.38a.5.5,0,0,0-.51-.51Zm-.23,37.06V29.17l.67-.07,0,36.76Z"/><path class="cls-8" d="M464.39,28.48a18.87,18.87,0,0,1,12.85,4.92.31.31,0,0,1,.05.42l-.26.32a.28.28,0,0,1-.42,0,17.63,17.63,0,0,0-12.22-4.71,18.09,18.09,0,1,0,0,36.17,17.9,17.9,0,0,0,12.22-4.92.27.27,0,0,1,.42,0l.26.32a.25.25,0,0,1,0,.37,18.4,18.4,0,0,1-12.9,5.18,19,19,0,1,1,0-38.07Z"/><path class="cls-8" d="M464.39,66.8a19.14,19.14,0,0,1-19.45-19.23,19.42,19.42,0,0,1,19.45-19.34,19.16,19.16,0,0,1,13,5,.58.58,0,0,1,.1.76l-.28.33a.52.52,0,0,1-.79,0,17.37,17.37,0,0,0-12-4.63,18,18,0,0,0-18,17.89A17.83,17.83,0,0,0,476.44,60.5a.57.57,0,0,1,.45-.16.46.46,0,0,1,.35.2l.24.3a.47.47,0,0,1,.14.35.51.51,0,0,1-.15.36A18.59,18.59,0,0,1,464.39,66.8Zm0-38.07a18.92,18.92,0,0,0-18.95,18.84A18.65,18.65,0,0,0,464.39,66.3a18.08,18.08,0,0,0,12.73-5.11l-.28-.35s0,0-.06,0a18.32,18.32,0,0,1-30.89-13.29,18.47,18.47,0,0,1,18.5-18.39A17.86,17.86,0,0,1,476.77,34l.05,0,.28-.32s0,0,0-.09A18.69,18.69,0,0,0,464.39,28.73Z"/><path class="cls-8" d="M464.39,66.94A19.28,19.28,0,0,1,444.8,47.57a19.56,19.56,0,0,1,19.59-19.48,19.24,19.24,0,0,1,13.1,5,.72.72,0,0,1,.13.93l-.29.35a.66.66,0,0,1-1,0,17.25,17.25,0,0,0-11.94-4.59,17.82,17.82,0,0,0-17.86,17.75A17.69,17.69,0,0,0,476.34,60.4a.74.74,0,0,1,.56-.2.56.56,0,0,1,.45.27l.24.28a.64.64,0,0,1,0,.9A18.72,18.72,0,0,1,464.39,66.94Zm0-38.07a18.78,18.78,0,0,0-18.81,18.7,18.5,18.5,0,0,0,18.81,18.59,18,18,0,0,0,12.56-5L476.8,61a18.44,18.44,0,0,1-31.05-13.43A18.6,18.6,0,0,1,464.39,29a18,18,0,0,1,12.42,4.75l.12-.15A18.5,18.5,0,0,0,464.39,28.87Z"/><path class="cls-8" d="M464.39,67.19a19.53,19.53,0,0,1-19.84-19.62,19.81,19.81,0,0,1,19.84-19.73,19.52,19.52,0,0,1,13.26,5.06,1,1,0,0,1,.17,1.27l-.3.37a1,1,0,0,1-.7.33.88.88,0,0,1-.67-.28,16.93,16.93,0,0,0-11.76-4.52,17.57,17.57,0,0,0-17.61,17.5,17.44,17.44,0,0,0,29.4,12.64,1,1,0,0,1,.75-.26.83.83,0,0,1,.63.38l.22.26a.86.86,0,0,1,.23.6.91.91,0,0,1-.27.64A19,19,0,0,1,464.39,67.19Zm0-38.85a19.31,19.31,0,0,0-19.34,19.23,19,19,0,0,0,19.34,19.12,18.46,18.46,0,0,0,13-5.22.39.39,0,0,0,.12-.28.42.42,0,0,0-.09-.26l-.26-.3a.36.36,0,0,0-.28-.18.45.45,0,0,0-.36.12,17.93,17.93,0,0,1-30.24-13,18.08,18.08,0,0,1,18.11-18,17.43,17.43,0,0,1,12.1,4.65.47.47,0,0,0,.32.15.49.49,0,0,0,.34-.16l.27-.33a.47.47,0,0,0-.11-.61A19,19,0,0,0,464.39,28.34Zm0,38.07a18.74,18.74,0,0,1-19.06-18.84,19,19,0,0,1,19.06-18.95,18.73,18.73,0,0,1,12.7,4.83l.19.16-.44.54-.2-.17a17.74,17.74,0,0,0-12.25-4.69A18.36,18.36,0,0,0,446,47.57a18.19,18.19,0,0,0,30.63,13.25l.18-.17.5.51-.18.18A18.21,18.21,0,0,1,464.39,66.41Z"/><path class="cls-8" d="M502.74,28.11a.35.35,0,0,1,.27-.22h.1c.11,0,.21.11.27.22l16,37.54a.22.22,0,0,1-.16.32l-.48.16c-.16.05-.21,0-.26-.16l-4.71-11H492.11l-4.76,11c-.05.11-.1.21-.26.16l-.48-.16a.22.22,0,0,1-.16-.32ZM513.32,54,503.06,29.8,492.54,54Z"/><path class="cls-8" d="M518.63,66.4c-.17,0-.3-.11-.4-.32l-4.65-10.91h-21.3l-4.7,10.9a.44.44,0,0,1-.57.3l-.48-.16a.46.46,0,0,1-.31-.64L502.52,28a.58.58,0,0,1,.49-.36h.1a.6.6,0,0,1,.49.35l16,37.57a.47.47,0,0,1-.31.65l-.48.16A.45.45,0,0,1,518.63,66.4ZM503,28.21,486.68,65.75l.44.13v0L492,54.67h22l4.77,11.2h0l.43-.14-16-37.54s0-.06-.06-.06H503S503,28.17,503,28.21ZM513.7,54.27H492.15l.16-.35,10.75-24.76Zm-20.78-.5h20l-9.88-23.34Z"/><path class="cls-8" d="M487.17,66.53a.71.71,0,0,1-.21,0l-.47-.16a.6.6,0,0,1-.4-.81l16.3-37.59a.74.74,0,0,1,.62-.44h.1a.73.73,0,0,1,.62.43l16,37.57a.61.61,0,0,1-.39.84l-.48.16a.57.57,0,0,1-.74-.36l-4.61-10.83H492.37l-4.66,10.82A.61.61,0,0,1,487.17,66.53Zm4.69-12H514l4.76,11.17.17,0-15.87-37.3-16.18,37.3.16,0Zm22-.12h-22l11.13-25.6Zm-20.78-.78h19.6l-9.67-22.85Z"/><path class="cls-8" d="M487.17,66.78a1,1,0,0,1-.29,0l-.47-.16a.85.85,0,0,1-.56-1.13l16.31-37.61a1,1,0,0,1,.85-.59h.1a1,1,0,0,1,.84.57l16,37.58a.87.87,0,0,1-.54,1.18l-.49.16a.81.81,0,0,1-1-.49l-4.56-10.69H492.54l-4.6,10.67A.86.86,0,0,1,487.17,66.78Zm5-11.72h21.44l4.68,11c.1.2.24.28.43.21l.48-.16a.36.36,0,0,0,.23-.52L503.5,28a.52.52,0,0,0-.39-.28h0L519.26,65.8l-.64.21-4.78-11.23H492L487.18,66l-.64-.21.11-.25,16.4-37.8h0a.48.48,0,0,0-.39.3L486.31,65.63a.37.37,0,0,0,.26.48l.47.15a.32.32,0,0,0,.13,0s.18,0,.32-.27Zm.11-.9h21.21L503.06,29.44Zm20.79-.28H492.75l.15-.35,10.16-23.38Zm-19.6-.5h18.85l-9.31-22Z"/></svg>