<?xml version="1.0" encoding="utf-8"?>
<!-- Generator: Adobe Illustrator 27.0.0, SVG Export Plug-In . SVG Version: 6.00 Build 0)  -->
<svg version="1.1" id="Layer_1" xmlns="http://www.w3.org/2000/svg" xmlns:xlink="http://www.w3.org/1999/xlink" x="0px" y="0px"
	 viewBox="0 0 786.2 394.5" style="enable-background:new 0 0 786.2 394.5;" xml:space="preserve">
<style type="text/css">
	.st0{fill:#FBFF3F;}
	.st1{fill:#1D1D1B;}
	.st2{fill:#FFFFFF;}
	.st3{fill:none;}
</style>
<rect x="12.2" y="17" class="st0" width="758.5" height="204.7"/>
<path class="st1" d="M729.1,125.1c-1.4,0.2-2.9,0.4-4.5,0.5s-3.2,0.2-4.9,0.2c-1.7,0.1-3.2,0.1-4.6,0.1c-2.8,0-5.2,0-7.3-0.1
	c-2.1-0.1-3.7-0.1-4.9-0.1c0.3-1.3,0.8-2.7,1.5-4.3c0.7-1.6,1.4-3.1,2.1-4.6c0.7-1.5,1.4-2.8,2.1-3.9c0.7-1.1,1.2-1.8,1.5-2.2
	c0.3-0.2,0.8-0.4,1.5-0.6c0.7-0.2,1.5-0.3,2.5-0.4c1-0.1,1.9-0.2,3-0.2c1-0.1,1.9-0.1,2.8-0.1c4,0,7.2,0.8,9.4,2.2
	c2.2,1.5,3.4,4.3,3.4,8.5v2.1c0,0.6-0.1,1.3-0.3,2.1C731.6,124.6,730.5,124.8,729.1,125.1 M743.8,162.5c-1.1,0.8-2.2,1.5-3.4,2.3
	s-2.6,1.6-4.2,2.2s-3.4,1.2-5.4,1.7s-4.2,0.6-6.8,0.6c-4,0-7.3-0.9-10.2-2.8c-2.8-1.9-5.2-4.3-7-7.2c-1.9-2.9-3.2-6.3-4.2-10.1
	c-0.9-3.8-1.4-7.6-1.4-11.4c0-0.6,0-1.4,0.1-2.2s0.2-1.7,0.4-2.6h44c0.1-1.1,0.2-2.1,0.2-3v-2.9c0-8.6-2.1-14.9-6.3-18.8
	s-10.8-5.8-19.8-5.8c-4.3,0-8.4,0.9-12.4,2.6s-7.5,4.3-10.6,7.6s-5.6,7.4-7.4,12.2c-1.9,4.8-2.8,10.3-2.8,16.5s0.9,11.4,2.7,16
	c1.8,4.6,4.3,8.4,7.4,11.6c3.1,3.1,6.7,5.5,10.7,7.1c4,1.6,8.3,2.4,12.8,2.4c3.3,0,6.3-0.3,9.1-1c2.8-0.6,5.3-1.5,7.5-2.6
	c2.2-1.1,4.2-2.2,6-3.4c1.8-1.2,3.3-2.5,4.6-3.8L743.8,162.5L743.8,162.5z M679.1,162.1c-2.5,2.4-5.4,4.3-8.9,5.4
	c-3.5,1.2-6.7,1.8-9.8,1.8c-2.7,0-5.3-0.6-7.9-1.9c-2.6-1.3-5-3.1-7-5.6c-2.1-2.4-3.8-5.5-5.1-9.3c-1.3-3.7-2-8.1-2-13.1
	c0-3.1,0.4-6.2,1.1-9.4c0.7-3.1,1.7-6.1,2.7-8.7c1.1-2.7,2.1-4.9,3.2-6.8c1.1-1.9,1.9-3,2.6-3.4c0.6-0.4,1.5-0.7,2.6-0.9
	s2.3-0.3,3.5-0.4c1.2-0.1,2.3-0.2,3.3-0.2h2.1c0.8,0,2,0,3.4,0.1c1.4,0.1,3,0.2,4.8,0.6c0.1,0.8,0.3,2.2,0.5,4.2
	c0.2,1.9,0.3,3.9,0.3,6.1v1.6l11.5-1.1c0.6-1.6,1-2.9,1.2-3.8c0.2-1,0.2-2.2,0.2-3.8c0-2.1-0.6-3.9-1.8-5.4c-1.2-1.4-2.9-2.6-5-3.4
	s-4.5-1.4-7.2-1.7s-5.5-0.5-8.4-0.5c-4.3,0-8.5,0.8-12.7,2.5s-8,4.1-11.3,7.3c-3.4,3.2-6.1,7.1-8.2,11.8c-2.1,4.6-3.1,9.9-3.1,15.9
	s0.8,11.7,2.6,16.5c1.7,4.8,4,8.8,7,12.1c3,3.2,6.5,5.7,10.5,7.4c4,1.7,8.3,2.6,12.9,2.6c5.5,0,10.6-1.1,15.1-3.2
	c4.5-2.1,8.3-4.9,11.4-8.1L679.1,162.1L679.1,162.1z M622.5,177.2v-6.2l-14.5-1.6c0.5-4.7,0.9-9.3,1.2-13.8s0.4-9.1,0.4-13.7
	c0-3.4-0.1-6.8-0.2-10.1c-0.1-3.4-0.3-6.7-0.6-10.2c-0.3-3.7-1.2-6.8-2.6-9.3s-3.2-4.5-5.4-5.9c-2.2-1.4-4.6-2.4-7.3-3
	c-2.7-0.6-5.4-0.9-8.3-0.9s-5.3,0.3-7.5,1s-4.3,1.5-6.2,2.5s-3.6,2.2-5.2,3.4c-1.6,1.3-3.2,2.6-4.6,4l-1-11.5
	c-1.4,0.8-3.4,1.4-5.9,1.9s-5.2,1-8.1,1.4s-5.6,0.8-8.2,1.1s-4.8,0.6-6.4,0.8v6.2h16.5v56.1l-14.7,1.6v6.2l21.9-1l18.4,1V171
	l-12.5-1.6v-47.5c1.5-1.5,3-2.9,4.6-4.2c1.5-1.3,3.2-2.7,5-4.2c0.7-0.3,2.4-0.7,5-1c2.6-0.4,5.2-0.6,7.9-0.6c2.9,0,5.1,0.4,6.8,1.2
	c1.7,0.8,2.9,2.2,3.7,4.2c0.8,2,1.3,4.7,1.5,8.1c0.2,3.4,0.3,7.7,0.3,12.8c0,3.1-0.1,6.4-0.2,10c-0.1,3.6-0.2,6.9-0.4,10.1
	c-0.2,3.1-0.3,5.8-0.5,7.8s-0.3,3.2-0.4,3.3l-12.5,1.6v6.2l18.9-1L622.5,177.2L622.5,177.2z M512.3,125c-1.4,0.2-2.9,0.4-4.5,0.5
	s-3.2,0.2-4.9,0.2c-1.6,0.1-3.2,0.1-4.6,0.1c-2.8,0-5.2,0-7.3-0.1c-2.1-0.1-3.7-0.1-4.9-0.1c0.3-1.3,0.8-2.7,1.5-4.3
	c0.7-1.6,1.4-3.1,2.1-4.6c0.7-1.5,1.4-2.8,2.1-3.9c0.7-1.1,1.2-1.8,1.5-2.2c0.3-0.2,0.8-0.4,1.5-0.6c0.7-0.2,1.5-0.3,2.5-0.4
	c1-0.1,1.9-0.2,3-0.2c1-0.1,1.9-0.1,2.8-0.1c4,0,7.2,0.8,9.4,2.2c2.2,1.5,3.4,4.3,3.4,8.5v2.1c0,0.6-0.1,1.3-0.3,2.1
	C514.8,124.6,513.7,124.8,512.3,125 M527,162.5c-1.1,0.8-2.2,1.5-3.4,2.3s-2.6,1.6-4.2,2.2s-3.4,1.2-5.4,1.7c-2,0.4-4.2,0.6-6.8,0.6
	c-4,0-7.3-0.9-10.1-2.8c-2.8-1.9-5.2-4.3-7-7.2c-1.9-2.9-3.2-6.3-4.2-10.1c-0.9-3.8-1.4-7.6-1.4-11.4c0-0.6,0-1.4,0.1-2.2
	s0.2-1.7,0.4-2.6h44c0.1-1.1,0.2-2.1,0.2-3v-2.9c0-8.6-2.1-14.9-6.3-18.8s-10.8-5.8-19.8-5.8c-4.3,0-8.4,0.9-12.4,2.6
	s-7.5,4.3-10.6,7.6s-5.6,7.4-7.4,12.2c-1.9,4.8-2.8,10.3-2.8,16.5s0.9,11.4,2.7,16c1.8,4.6,4.3,8.4,7.4,11.6
	c3.1,3.1,6.7,5.5,10.7,7.1c4,1.6,8.3,2.4,12.8,2.4c3.3,0,6.3-0.3,9.1-1s5.3-1.5,7.5-2.6c2.2-1.1,4.2-2.2,6-3.4
	c1.8-1.2,3.3-2.5,4.6-3.8L527,162.5L527,162.5z M441.1,158.6c-2.4,3-5.3,5.4-9,7.3c-3.6,1.9-7.4,2.8-11.4,2.8c-2.4,0-4.7-0.6-7-1.8
	c-2.3-1.2-4.4-3.1-6.2-5.6c-1.9-2.5-3.4-5.6-4.6-9.2c-1.2-3.6-1.8-7.8-1.8-12.6c0-2.9,0.3-5.8,1-8.6c0.6-2.9,1.4-5.5,2.3-8
	c0.9-2.4,1.9-4.6,3-6.5c1.1-1.9,2.1-3.2,3-4.1c0.4-0.3,1.2-0.6,2.2-0.8c1.1-0.2,2.3-0.4,3.6-0.6c1.3-0.2,2.7-0.3,4-0.4
	c1.3-0.1,2.4-0.2,3.3-0.2c6,0,10.4,0.9,13.2,2.6s4.2,5.4,4.2,10.9L441.1,158.6L441.1,158.6z M468.1,168.7h-10.5
	c-1,0-1.8-0.2-2.5-0.7c-0.7-0.5-1-1.7-1-3.8V57.6c-1.6,0.8-3.6,1.5-6.2,2.1c-2.5,0.5-5.2,1-8,1.4c-2.8,0.4-5.6,0.7-8.3,1
	c-2.7,0.3-5,0.6-7,1v5.6l16.5-0.8v36.8c-3.1-1-6-1.5-8.6-1.8c-2.7-0.2-5.5-0.3-8.6-0.3c-5.3,0-10.3,0.9-14.8,2.8s-8.5,4.5-11.8,7.8
	s-6,7.4-7.8,12.1c-1.9,4.7-2.8,9.9-2.8,15.5c0,4.5,0.6,9,1.9,13.5s3.2,8.6,5.7,12.1c2.5,3.6,5.6,6.5,9.2,8.7
	c3.6,2.2,7.8,3.4,12.6,3.4c5.9,0,11-1.2,15.4-3.7s7.9-5.3,10.5-8.5c0.1,1.5,0.3,3.4,0.6,5.6s0.6,4.2,0.8,5.8
	c4.5-0.6,8.7-1.2,12.8-1.8c4-0.6,8-1,12-1.4L468.1,168.7L468.1,168.7z M385.6,177.2v-6.2l-14.5-1.6v-67.4c-0.6,0.6-2.4,1.2-5.3,1.7
	s-6,0.8-9.4,1.1c-3.4,0.3-6.6,0.5-9.8,0.6c-3.1,0.2-5.4,0.2-6.6,0.2h-18.5v-9.4c0-4.6,0.4-8.6,1.2-12.2c0.8-3.5,1.8-6.5,2.9-8.9
	c1.1-2.4,2.2-4.3,3.2-5.7c1-1.4,1.8-2.3,2.3-2.7c0.1-0.1,0.7-0.2,1.8-0.4c1.1-0.2,2.3-0.3,3.8-0.4c1.5-0.1,3.2-0.2,5-0.3
	c1.9-0.1,3.7-0.2,5.5-0.2c3.6,0,6.5,0.3,8.6,0.8c0.3,1.8,0.7,4.2,1.3,7.1c0.5,2.9,0.8,5.9,0.8,9l8.8-0.8c0.6-0.7,1.2-1.7,1.8-2.8
	c0.5-1.1,1-2.3,1.4-3.5c0.4-1.2,0.8-2.4,1-3.7c0.3-1.2,0.4-2.3,0.4-3.3c0-1.3-0.5-2.5-1.5-3.8c-1-1.2-2.6-2.3-4.9-3.4
	c-2.2-1-5.1-1.8-8.5-2.5c-3.4-0.6-7.5-1-12.3-1c-5.4,0-10.3,1.2-14.5,3.5c-4.3,2.3-7.9,5.5-11,9.5c-3,4-5.5,8.6-7.3,13.8
	c-1.8,5.2-2.9,10.8-3.2,16.6c-0.1,1.8-0.5,3-1,3.6s-2.1,0.9-4.6,0.9c-1.1,0-2.5,0-4.3,0.1c-1.8,0.1-2.8,0.2-2.9,0.4
	c-0.4,0.8-0.7,1.5-0.9,2.3s-0.2,1.5-0.2,2.2v1.3c0,0.3,0.1,0.8,0.3,1.3l13.8-1.1v57.2l-14.7,1.6v6.2l22.1-1l20.1,1v-6.2l-14.4-1.6
	v-57.2c2.5,0.2,4.9,0.4,7.4,0.6c2.5,0.2,4.6,0.2,6.2,0.2h11.2c3.6,0,7.5-0.1,11.7-0.3v56.8l-12.8,1.6v6.2l19.2-1L385.6,177.2
	L385.6,177.2z M294.8,177.2v-6.2l-14.5-1.6c0.5-4.7,0.9-9.3,1.2-13.8c0.3-4.5,0.4-9.1,0.4-13.7c0-3.4-0.1-6.8-0.2-10.1
	c-0.1-3.4-0.3-6.7-0.6-10.2c-0.3-3.7-1.2-6.8-2.6-9.3s-3.2-4.5-5.4-5.9c-2.2-1.4-4.6-2.4-7.3-3c-2.7-0.6-5.4-0.9-8.3-0.9
	s-5.3,0.3-7.5,1s-4.3,1.5-6.2,2.5c-1.9,1-3.6,2.2-5.2,3.4c-1.6,1.3-3.1,2.6-4.6,4l-1-11.5c-1.4,0.8-3.4,1.4-5.9,1.9s-5.2,1-8.1,1.4
	s-5.6,0.8-8.2,1.1s-4.8,0.6-6.4,0.8v6.2h16.5v56.1l-14.7,1.6v6.2l21.9-1l18.4,1v-6.2l-12.5-1.6v-47.5c1.5-1.5,3-2.9,4.6-4.2
	c1.5-1.3,3.2-2.7,5-4.2c0.7-0.3,2.4-0.7,5-1c2.6-0.4,5.2-0.6,7.9-0.6c2.9,0,5.1,0.4,6.8,1.2c1.6,0.8,2.9,2.2,3.7,4.2
	c0.8,2,1.3,4.7,1.5,8.1c0.2,3.4,0.3,7.7,0.3,12.8c0,3.1-0.1,6.4-0.2,10c-0.1,3.6-0.2,6.9-0.4,10.1c-0.2,3.1-0.3,5.8-0.5,7.8
	s-0.3,3.2-0.4,3.3l-12.5,1.6v6.2l18.9-1L294.8,177.2L294.8,177.2z M187.8,140.4v1.9c0,3.2-0.3,6.2-0.9,9.1c-0.6,2.9-1.2,5.5-2,7.8
	c-0.8,2.4-1.5,4.3-2.2,5.8c-0.7,1.5-1.2,2.4-1.5,2.7c-0.4,0.4-1.2,0.9-2.3,1.4c-1.1,0.5-2.4,0.9-3.8,1.3s-2.9,0.7-4.5,1
	s-2.9,0.4-4.1,0.4c-2.6,0-5.1-0.7-7.8-2.2s-4.9-3.5-7-6.3c-2-2.8-3.7-6.2-5-10.2c-1.3-4.1-1.9-8.7-1.9-14.1c0-3.1,0.3-6.1,0.8-8.9
	c0.5-2.9,1.1-5.5,1.8-7.8c0.7-2.3,1.4-4.2,2.2-5.8c0.7-1.5,1.3-2.5,1.8-3c0.4-0.4,1.2-0.9,2.4-1.4c1.2-0.5,2.5-1,4-1.4
	c1.5-0.4,3-0.8,4.6-1c1.5-0.3,2.9-0.4,4.1-0.4c2.6,0,5,0.7,7.4,2c2.4,1.3,4.6,3.2,6.5,5.8s3.5,5.6,4.8,9.2c1.3,3.6,2.1,7.7,2.4,12.3
	C187.8,139.1,187.8,139.7,187.8,140.4 M199.9,124.8c-1.8-4.7-4.2-8.8-7.3-12.1c-3.1-3.3-6.8-5.9-11.2-7.7c-4.4-1.8-9.1-2.7-14.2-2.7
	c-5.8,0-10.9,1-15.5,3c-4.6,2-8.4,4.7-11.6,8.2c-3.1,3.5-5.5,7.5-7.2,12.2c-1.6,4.6-2.5,9.6-2.5,15c0,5.9,0.9,11.1,2.6,15.8
	c1.7,4.7,4.1,8.7,7.3,12c3.1,3.3,6.9,5.9,11.1,7.7s8.9,2.7,14.1,2.7c5.5,0,10.6-0.9,15.1-2.8c4.5-1.9,8.4-4.5,11.7-7.9
	c3.2-3.4,5.8-7.4,7.6-12.1c1.8-4.6,2.7-9.8,2.7-15.4S201.7,129.5,199.9,124.8 M124,146.4h-6.7c-0.4,4.1-0.8,7.7-1.3,11
	c-0.4,3.3-0.9,5.9-1.4,7.8c-0.2,0.5-1.2,1.1-2.8,1.8s-3.7,1.4-6.2,2s-5.2,1.2-8.2,1.6c-3,0.4-6,0.6-8.9,0.6
	c-5.5,0-10.7-1.4-15.6-4.1c-4.8-2.7-9.1-6.3-12.6-10.8c-3.6-4.5-6.4-9.6-8.5-15.4c-2.1-5.8-3.1-11.7-3.1-17.8c0-6.4,1-12.4,3-18.2
	c2-5.7,4.8-10.7,8.2-14.9c3.5-4.3,7.5-7.7,12-10.2s9.3-3.8,14.5-3.8c10.4,0,18.1,1.9,22.9,5.7s7.5,9.2,8,16.4h6.7l-0.8-24.6v-7.4
	h-6.9l-1.1,6.4c-1.5-0.4-3.5-0.8-5.9-1.3c-2.4-0.4-5-0.8-7.8-1.2c-2.7-0.4-5.5-0.7-8.2-1c-2.8-0.3-5.2-0.4-7.4-0.4
	c-7.2,0-14.1,1.4-20.6,4.3s-12.2,6.8-17,11.8s-8.7,10.9-11.6,17.6s-4.3,13.9-4.3,21.6c0,8.7,1.6,16.5,4.9,23.3
	c3.2,6.8,7.5,12.4,12.7,17s11.1,8.1,17.8,10.5c6.6,2.4,13.2,3.6,19.8,3.6c2.6,0,5.3-0.1,8.3-0.3c3-0.2,6.1-0.6,9.3-1.1
	c3.2-0.5,6.4-1.2,9.6-1.9c3.2-0.7,6.3-1.7,9.3-2.9L124,146.4L124,146.4z"/>
<path class="st2" d="M619.6,372.8V251.1h-24v52h-16.5v-52h-24v121.7h24v-50.2h16.5v50.2H619.6z M548.5,342.2
	c-5.6,7-10.7,7.9-13.7,7.9c-9.9,0-16.7-13.5-16.7-38.5c0-28.2,6.5-38.1,15.5-38.1c3.2,0,9.3,1,14.9,8.5l1-24.8
	c-6-5.4-15.7-7.1-21.8-7.1c-26,0-34.6,27.4-34.6,62.5c0,37.5,11.3,61.2,35.7,61.2c8.1,0,15.9-2.2,20.8-6L548.5,342.2L548.5,342.2z
	 M465.9,287.4c0,15.3-4.4,17.9-9.1,17.9H455v-36.1h1.8C461.3,269.3,465.9,272.5,465.9,287.4 M491.7,372.8
	c-2-13.1-9.7-43.5-16.5-58.2c13.1-6.5,15.7-19.5,15.7-30.6c0-21.1-10.3-32.8-33-32.8c-8.3,0-15.5,0.2-26.8,1v120.7h24v-53.6
	c5.4,15.3,10.5,41.3,12.3,53.6H491.7L491.7,372.8z M392.4,285.4l5.2,45.9h-11.7L392.4,285.4z M427,372.8l-21.8-121.7h-24.4
	l-23,121.7h22.8l3.4-22h15.7l2.8,22H427L427,372.8z M357.1,372.8v-19.5H335v-31.8h20.1v-19.5H335v-31.2h21.4v-19.5H311v121.7
	L357.1,372.8L357.1,372.8z M305.5,342.6c0-30-24.6-42.7-24.6-60c0-7.2,3.4-11.5,10.1-11.5c4.8,0,9.3,3.2,13.1,8.1l1-24.8
	c-5-2.2-13.7-4.2-21.1-4.2c-17.9,0-28,10.9-28,29.4c0,27.6,24.4,37.3,24.4,62c0,5.6-3.2,9.5-9.1,9.5c-5.4,0-9.9-1.4-14.1-6.2
	l-1,24.8c4.8,2.4,13.7,4.2,20.8,4.2C295.3,373.8,305.5,361.9,305.5,342.6 M253.2,372.8v-19.5H231v-31.8h20.1v-19.5H231v-31.2h21.4
	v-19.5H207v121.7L253.2,372.8L253.2,372.8z M176.2,287.4c0,15.3-4.4,17.9-9.1,17.9h-1.8v-36.1h1.8
	C171.6,269.3,176.2,272.5,176.2,287.4 M202,372.8c-2-13.1-9.7-43.5-16.5-58.2c13.1-6.5,15.7-19.5,15.7-30.6
	c0-21.1-10.3-32.8-33-32.8c-8.3,0-15.5,0.2-26.8,1v120.7h24v-53.6c5.4,15.3,10.5,41.3,12.3,53.6H202L202,372.8z M112.7,372.8V251.1
	H89.6c1,35.9,1.2,49,1.2,66.3l-20-66.3h-22v121.7H72c-1-36.1-1.2-45.3-1.2-65.1l20.9,65.1H112.7L112.7,372.8z M40.4,251.1h-24v121.7
	h24L40.4,251.1L40.4,251.1z"/>
<rect x="12.2" y="17" class="st3" width="758.5" height="356.8"/>
</svg>
