<svg xmlns="http://www.w3.org/2000/svg" width="30.94629" height="32.85156" viewBox="0 0 30.94629 32.85156"><title>Asset 1</title><path fill="#fff" d="M27.47949,12.58691c-.67553.72284-1.0899,1.1045-1.90991,1.13507a.938.938,0,0,0-.09595-.01934A3.137,3.137,0,0,1,22.29,10.62158V5.85205a.99974.99974,0,0,0-1-1H20.17938L19.67285,3.125a4.3846,4.3846,0,0,0-8.39941-.00049l-.50592,1.72754H9.65625a.99974.99974,0,0,0-1,1v4.76953a3.13675,3.13675,0,0,1-3.18262,3.08106.94048.94048,0,0,0-.09588.01934c-.82-.03057-1.2345-.41223-1.91095-1.13555A4.42924,4.42924,0,0,0,0,10.80518v2c.89258,0,1.30176.39306,2.00586,1.147a4.91269,4.91269,0,0,0,2.46777,1.65826V31.85156a.99942.99942,0,0,0,1,1h20a.99942.99942,0,0,0,1-1V15.61041a4.91075,4.91075,0,0,0,2.4668-1.65826c.7041-.75342,1.11328-1.147,2.00586-1.147v-2A4.4265,4.4265,0,0,0,27.47949,12.58691ZM13.19336,3.68652a2.384,2.384,0,0,1,4.55957.00049l.34161,1.165H12.85205Zm11.28027,27.165h-18V15.60791a5.11744,5.11744,0,0,0,4.18262-4.98633V6.85205H20.29v3.76953a5.117,5.117,0,0,0,4.18359,4.98633Z"/><path fill="#fff" d="M19.13764,16.736H14.25328L9.154,26.96766h2.828l.02784-.05584,1.71991-3.46093c.18277-.00095.72786-.00328,1.33814-.00328.37511,0,.77437.00144,1.12813.00378h.05251A3.06838,3.06838,0,0,0,19.419,21.66778c.21393-.41248.63508-1.264,1.11207-2.25032a2.77974,2.77974,0,0,0,.31623-1.19187A1.54367,1.54367,0,0,0,19.13764,16.736Zm-1.24488,2.30328c-.4695,1.00757-.82588,1.75805-.86489,1.84114a.868.868,0,0,1-.8618.596l-.013.00048-1.47166-.00247,1.44811-3.17651,1.57033.00229c.2288.0135.32741.04833.33443.25078A1.23888,1.23888,0,0,1,17.89276,19.03926Z"/></svg>