<svg xmlns="http://www.w3.org/2000/svg" viewBox="0 0 150 150"><title>Icons</title><g style="isolation:isolate"><path d="M123.98246,85.5l-2.07951,1v4h3.934A9.60822,9.60822,0,0,0,123.98246,85.5Z" style="fill:#fff"/><path d="M101.20649,77.5h5.87364a1.65434,1.65434,0,0,1,1.50257,2.34653l-.04156.09022A2.6879,2.6879,0,0,1,106.09984,81.5H99.53792Z" style="fill:#8fd8f2"/><path d="M106.1,82H99.538a.49993.49993,0,0,1-.46143-.69238l1.66846-4A.49965.49965,0,0,1,101.20646,77H107.08a2.1545,2.1545,0,0,1,1.957,3.05566l-.043.09278A3.19634,3.19634,0,0,1,106.1,82Zm-5.81152-1H106.1a2.19356,2.19356,0,0,0,1.98682-1.27246l.043-.09277A1.1544,1.1544,0,0,0,107.08,78h-5.54053Z" style="fill:#2d2d2d"/><polygon points="81.936 85.5 27.442 86.012 28.312 96.5 36.313 96.497 85.335 97.85 81.936 85.5" style="fill:#8fd8f2"/><path d="M85.33537,98.3501H85.3217l-49.02246-1.353L28.31242,97a.49983.49983,0,0,1-.498-.4585l-.87011-10.48828a.49939.49939,0,0,1,.49316-.5415L81.93107,85H81.936a.49975.49975,0,0,1,.48193.36719l3.39941,12.3501a.49969.49969,0,0,1-.48193.63281Zm-49.02246-2.353,48.36133,1.33447L81.55607,86.00342l-53.5708.50342L28.77287,96Z" style="fill:#2d2d2d"/><circle cx="109.40295" cy="98" r="8.5" style="fill:#2d2d2d"/><path d="M109.40275,107a9,9,0,1,1,9-9A9.01047,9.01047,0,0,1,109.40275,107Zm0-17a8,8,0,1,0,8,8A8.00917,8.00917,0,0,0,109.40275,90Z" style="fill:#2d2d2d"/><path d="M109.0732,94.21788a5.57414,5.57414,0,0,0-5.49187,4.637,5.57719,5.57719,0,1,1,10.98374,0A5.57413,5.57413,0,0,0,109.0732,94.21788Z" style="fill:#8fd8f2"/><path d="M114.56486,99.355h0a.5.5,0,0,1-.49316-.416,5.0704,5.0704,0,0,0-9.99756,0,.49974.49974,0,0,1-.98535,0,6.07724,6.07724,0,1,1,11.96875,0A.49993.49993,0,0,1,114.56486,99.355Zm-5.4917-6.51709a5.08453,5.08453,0,0,0-4.65234,3.04443,6.08288,6.08288,0,0,1,9.30469-.001A5.085,5.085,0,0,0,109.07316,92.83789Z" style="fill:#2d2d2d"/><circle cx="108.90295" cy="97.5" r="2" style="fill:#8fd8f2"/><path d="M108.90275,100a2.5,2.5,0,1,1,2.5-2.5A2.50295,2.50295,0,0,1,108.90275,100Zm0-4a1.5,1.5,0,1,0,1.5,1.5A1.50164,1.50164,0,0,0,108.90275,96Z" style="fill:#2d2d2d"/><path d="M33.959,89.5h3.52149c3.23509,0,5.85769,3.80556,5.85769,8.5s-2.6226,8.5-5.85769,8.5H33.959c-3.23509,0-5.85784-3.80556-5.85784-8.5S30.72393,89.5,33.959,89.5Z" style="fill:#2d2d2d"/><path d="M37.48039,107H33.95891c-3.50586,0-6.35791-4.0376-6.35791-9s2.85205-9,6.35791-9h3.52148c3.50586,0,6.35791,4.0376,6.35791,9S40.98625,107,37.48039,107ZM33.95891,90c-2.95459,0-5.35791,3.58887-5.35791,8s2.40332,8,5.35791,8h3.52148c2.95459,0,5.35791-3.58887,5.35791-8s-2.40332-8-5.35791-8Z" style="fill:#2d2d2d"/><ellipse cx="33.90295" cy="98" rx="4" ry="5.5" style="fill:#fff"/><path d="M33.90275,104c-2.48144,0-4.5-2.69141-4.5-6s2.01856-6,4.5-6,4.5,2.69141,4.5,6S36.3842,104,33.90275,104Zm0-11c-1.92968,0-3.5,2.24316-3.5,5s1.57032,5,3.5,5,3.5-2.24316,3.5-5S35.83244,93,33.90275,93Z" style="fill:#2d2d2d"/><path d="M64.79653,89.5H68.318c3.2351,0,5.85785,3.80556,5.85785,8.5s-2.62275,8.5-5.85785,8.5H64.79653c-3.23525,0-5.8577-3.80556-5.8577-8.5S61.56128,89.5,64.79653,89.5Z" style="fill:#2d2d2d"/><path d="M68.31779,107H64.79631c-3.50537,0-6.35742-4.0376-6.35742-9s2.852-9,6.35742-9h3.52148c3.50586,0,6.35791,4.0376,6.35791,9S71.82365,107,68.31779,107ZM64.79631,90c-2.9541,0-5.35742,3.58887-5.35742,8s2.40332,8,5.35742,8h3.52148c2.95459,0,5.35791-3.58887,5.35791-8s-2.40332-8-5.35791-8Z" style="fill:#2d2d2d"/><path d="M64.83669,94.21788c-1.90143,0-3.47619,2.00549-3.78472,4.637a8.0479,8.0479,0,0,1-.05875-.94011c0-3.08016,1.72077-5.5771,3.84347-5.5771s3.84344,2.49694,3.84344,5.5771a8.0479,8.0479,0,0,1-.05875.94011C68.31284,96.22337,66.73809,94.21788,64.83669,94.21788Z" style="fill:#8fd8f2"/><path d="M68.6215,99.355a.5.5,0,0,1-.49658-.44189c-.28027-2.39161-1.69385-4.19532-3.28808-4.19532-1.59473,0-3.00831,1.80371-3.28809,4.19532a.49966.49966,0,0,1-.49658.44189h0a.49993.49993,0,0,1-.49658-.44141,8.45937,8.45937,0,0,1-.0625-.999c0-3.35059,1.94873-6.07666,4.34375-6.07666S69.1801,94.564,69.1801,97.91455a8.55173,8.55173,0,0,1-.062.998.49968.49968,0,0,1-.49659.44238Zm-3.78466-6.51709A3.3,3.3,0,0,0,62.04,95.13525a3.468,3.468,0,0,1,5.59375,0A3.30057,3.30057,0,0,0,64.83684,92.83789Z" style="fill:#2d2d2d"/><ellipse cx="64.40295" cy="97.5" rx="1.5" ry="2" style="fill:#8fd8f2"/><path d="M64.40275,100a2.5625,2.5625,0,1,1,2-2.5A2.29488,2.29488,0,0,1,64.40275,100Zm0-4c-.542,0-1,.687-1,1.5s.458,1.5,1,1.5,1-.687,1-1.5S64.94475,96,64.40275,96Z" style="fill:#2d2d2d"/><path d="M62.2707,62.5H90.13444c2.56887,0,3.4746.4644,4.41071,2.03572C95.64957,66.38957,104.56185,81.5,104.56185,81.5H73.06292Z" style="fill:#8fd8f2"/><path d="M104.56193,82h-31.499a.5002.5002,0,0,1-.43457-.25293l-10.792-19A.49993.49993,0,0,1,62.27092,62H90.1342c2.70068,0,3.78662.51123,4.84082,2.27979,1.104,1.854,10.01758,16.9663,10.01758,16.9663A.5.5,0,0,1,104.56193,82Zm-31.208-1h30.33251c-1.81542-3.07764-8.61572-14.60449-9.5708-16.2085C93.31437,63.44727,92.62687,63,90.1342,63H63.1298Z" style="fill:#2d2d2d"/><circle cx="78.40295" cy="98" r="8.5" style="fill:#259ed9"/><path d="M78.40275,107a9,9,0,1,1,9-9A9.01047,9.01047,0,0,1,78.40275,107Zm0-17a8,8,0,1,0,8,8A8.00917,8.00917,0,0,0,78.40275,90Z" style="fill:#2d2d2d"/><circle cx="78.40295" cy="98" r="5.5" style="fill:#fff"/><path d="M78.40275,104a6,6,0,1,1,6-6A6.00657,6.00657,0,0,1,78.40275,104Zm0-11a5,5,0,1,0,5,5A5.00589,5.00589,0,0,0,78.40275,93Z" style="fill:#2d2d2d"/><polygon points="94.904 65.5 61.209 65.5 73.125 81.5 104.481 81.5 94.904 65.5" style="fill:#fff"/><path d="M104.48088,82h-31.356a.49976.49976,0,0,1-.40088-.20117l-11.91552-16A.50013.50013,0,0,1,61.20939,65H94.90422a.50032.50032,0,0,1,.4292.24316l9.57666,16a.5001.5001,0,0,1-.4292.75684Zm-31.105-1H103.599L94.62053,66H62.205Z" style="fill:#2d2d2d"/><path d="M62.43979,62.5a3.52179,3.52179,0,0,1,3.34764,2.37727C66.51524,66.38147,73.19687,81.5,73.19687,81.5h31.53028a79.75083,79.75083,0,0,1,13.61064,1.86008c2.64051.63143,4.557,1.25715,5.70827,2.42345L121.903,86.5v4h4v10H94.1241l.00044-.00075L94.1241,100.5H86.00228A2.09933,2.09933,0,0,1,83.903,98.40067v-2.518a6.01771,6.01771,0,0,0-6.00007-6.00006h0A6.01755,6.01755,0,0,0,71.903,95.88254v2.44493A2.17254,2.17254,0,0,1,69.73042,100.5H42.94883a2.338,2.338,0,0,1-2.324-2.36022c.00587-5.70408-2.76238-8.50222-6.14686-8.50222-3.995,0-4.83074,3.7708-5.60693,6.20627a1.153,1.153,0,0,1-2.01675.35381l-1.78438-2.34175A5.70347,5.70347,0,0,1,23.903,90.39908V81.7747c0-1.8443,1.105-2.07813,3.20512-2.934a15.38658,15.38658,0,0,0,6.88932-5.5486c.88455-1.29336,1.44734-2.15417,3.108-4.63314a12.6641,12.6641,0,0,1,4.655-4.163l-1.18859-.70634A.69345.69345,0,0,1,40.92606,62.5H62.43979Z" style="fill:#8fd8f2"/><path d="M125.90275,101H86.00236a2.60224,2.60224,0,0,1-2.59961-2.59912V95.88281a5.5,5.5,0,0,0-11-.00049v2.44532A2.67528,2.67528,0,0,1,69.73039,101H42.94865a2.78787,2.78787,0,0,1-1.98584-.82422,2.85633,2.85633,0,0,1-.83789-2.03662c.00293-2.8999-.73047-5.16846-2.12158-6.561A4.87485,4.87485,0,0,0,34.478,90.1377c-3.3252,0-4.22656,2.92871-4.95117,5.28222l-.1792.57569a1.65351,1.65351,0,0,1-2.89112.50537l-1.78418-2.3418a6.2395,6.2395,0,0,1-1.26953-3.76025v-8.624c0-2,1.16211-2.46094,2.92041-3.15869l.59571-.23828a14.90742,14.90742,0,0,0,6.67675-5.3833c.55811-.8169.99366-1.46973,1.6753-2.49072l1.41894-2.12305A13.06331,13.06331,0,0,1,40.767,64.4873l-.45068-.26806A1.1934,1.1934,0,0,1,40.92619,62H62.43986a4.00578,4.00578,0,0,1,3.79785,2.65967C66.91252,66.05518,72.55559,78.81348,73.52238,81H104.727A80.9061,80.9061,0,0,1,118.454,82.87354c2.7666.6621,4.72608,1.3208,5.94776,2.55908a.4999.4999,0,0,1-.19727.82519l-1.80176.602V90h3.5a.49971.49971,0,0,1,.5.5v10A.49971.49971,0,0,1,125.90275,101Zm-48-11.61719a6.50753,6.50753,0,0,1,6.5,6.5v2.51807A1.60126,1.60126,0,0,0,86.00236,100h39.40039V91h-3.5a.49972.49972,0,0,1-.5-.5v-4a.50011.50011,0,0,1,.34131-.47412l1.29248-.43213a15.01767,15.01767,0,0,0-4.81494-1.74756,79.90716,79.90716,0,0,0-13.51318-1.84668L73.1967,82a.5004.5004,0,0,1-.45752-.29785c-.06641-.15137-6.686-15.12793-7.40186-16.60694C64.62639,63.62646,63.76018,63,62.43986,63H40.92619a.19366.19366,0,0,0-.09912.35986l1.18848.70655a.49948.49948,0,0,1-.021.87109,12.18272,12.18272,0,0,0-4.47363,4l-1.41846,2.12158c-.68408,1.0249-1.12109,1.68018-1.69238,2.51514a15.88915,15.88915,0,0,1-7.11377,5.72949l-.604.24219c-1.77734.70508-2.28955.96435-2.28955,2.229v8.624a5.23436,5.23436,0,0,0,1.06494,3.15429l1.78418,2.34131a.6357.6357,0,0,0,.62793.24756.64818.64818,0,0,0,.51465-.4502l.17627-.56591c.73438-2.38477,1.84375-5.98828,5.90723-5.98828a5.855,5.855,0,0,1,4.23291,1.73388c1.58252,1.584,2.41748,4.09766,2.41406,7.26856a1.86455,1.86455,0,0,0,.54541,1.3291A1.79516,1.79516,0,0,0,42.94865,100H69.73039a1.674,1.674,0,0,0,1.67236-1.67236V95.88232A6.50711,6.50711,0,0,1,77.90275,89.38281Z" style="fill:#2d2d2d"/><path d="M86.57116,84.98644a8.20624,8.20624,0,0,1,2.85412.011c2.17359.3408,7.8601,1.50258,7.8601,1.50258l1.09891,4H87.623s-2.12062-2.386-3.81694-4.28518A7.0473,7.0473,0,0,1,86.57116,84.98644Z" style="fill:#fff"/><path d="M98.3842,91H87.623a.49849.49849,0,0,1-.37354-.168c-.00049,0-2.1206-2.38574-3.8164-4.28418a.50057.50057,0,0,1,.08545-.74219A7.59573,7.59573,0,0,1,86.477,84.49512h0a8.63764,8.63764,0,0,1,3.02588.0083c2.16016.33887,7.82568,1.49512,7.88281,1.50683a.49927.49927,0,0,1,.38184.35743l1.09863,4A.49983.49983,0,0,1,98.3842,91ZM87.84758,90h9.88086l-.84375-3.07129c-1.20264-.24365-5.68506-1.147-7.53711-1.437a7.66951,7.66951,0,0,0-2.68213-.01416,6.18957,6.18957,0,0,0-2.10059.83642C85.90422,87.81445,87.38176,89.47607,87.84758,90Z" style="fill:#2d2d2d"/><path d="M121.90275,91h-24a.5.5,0,0,1,0-1h23.5V87h-24.5a.5.5,0,0,1,0-1h25a.49971.49971,0,0,1,.5.5v4A.49971.49971,0,0,1,121.90275,91Z" style="fill:#2d2d2d"/><line x1="55.90295" y1="83.5" x2="51.90295" y2="83.5" style="fill:#8fd8f2"/><path d="M55.90275,84h-4a.5.5,0,0,1,0-1h4a.5.5,0,0,1,0,1Z" style="fill:#2d2d2d"/><line x1="40.90295" y1="83.5" x2="36.90295" y2="83.5" style="fill:#8fd8f2"/><path d="M40.90275,84h-4a.5.5,0,0,1,0-1h4a.5.5,0,0,1,0,1Z" style="fill:#2d2d2d"/><path d="M35.59694,78.184a1.47374,1.47374,0,0,1,.11752-1.3921l1.20095-1.841c.38326-.59218.68516-1.05328.94637-1.45092.47074-.716.82694-1.25271,1.36619-2.09448C42.34682,66.53692,44.48642,65.5,50.86131,65.5h8.539c2.89541,0,4.81248,1.91478,5.90246,4.41775.37684.86532.92894,2.16391,1.52754,3.58225,1.52356,3.61131,3.348,8,3.348,8H37.938a1.37416,1.37416,0,0,1-1.26051-.82694Z" style="fill:#fff"/><path d="M70.17814,82H37.93791a1.87312,1.87312,0,0,1-1.71924-1.12842L35.13859,78.3833h0a1.969,1.969,0,0,1,.15674-1.86475l1.20117-1.84082c.3833-.59179.68555-1.05419.94727-1.45214l.22021-.335c.36963-.561.69239-1.05126,1.14307-1.75439C42.00285,66.147,44.25578,65,50.86125,65h8.53906c2.77735,0,5.03613,1.67578,6.36084,4.71826.37744.8667.93067,2.167,1.52979,3.5874,1.52392,3.61231,3.34912,8.00245,3.34912,8.00245A.50023.50023,0,0,1,70.17814,82ZM36.05559,77.98486l1.08056,2.48877A.87319.87319,0,0,0,37.93791,81H69.42863c-.57373-1.37695-1.90283-4.56543-3.05859-7.30566-.59815-1.41651-1.14942-2.71289-1.52588-3.57666C64.02629,68.23926,62.41838,66,59.40031,66H50.86125c-6.23145,0-8.22217,1.00781-11.2124,5.67529-.45313.708-.77783,1.20117-1.14942,1.76514l-.21972.33447c-.26075.39649-.562.85694-.94483,1.44776l-1.20166,1.84228a.97262.97262,0,0,0-.07763.91992Z" style="fill:#2d2d2d"/><line x1="52.80667" y1="65.75041" x2="50.79309" y2="81.13109" style="fill:#8fd8f2"/><path d="M50.79338,81.63086a.501.501,0,0,1-.4961-.56494L52.311,65.68555a.49984.49984,0,1,1,.99121.12988L51.2885,81.1958A.49945.49945,0,0,1,50.79338,81.63086Z" style="fill:#2d2d2d"/><path d="M23.903,82.5H25.296a1.0356,1.0356,0,0,1,.95161.62706l1.33017,3.09843A.914.914,0,0,1,26.738,87.5H23.903Z" style="fill:#fff"/><path d="M26.7382,88H23.90275a.49972.49972,0,0,1-.5-.5v-5a.49972.49972,0,0,1,.5-.5h1.39307a1.53372,1.53372,0,0,1,1.41113.92969l1.33057,3.09863A1.41382,1.41382,0,0,1,26.7382,88Zm-2.33545-1H26.7382a.41374.41374,0,0,0,.38037-.57715L25.788,83.32422A.53453.53453,0,0,0,25.29582,83h-.89307Z" style="fill:#2d2d2d"/><path d="M68.33585,77.5H62.4622a1.65434,1.65434,0,0,0-1.50256,2.34653l.04156.09022A2.6879,2.6879,0,0,0,63.4425,81.5h6.56192Z" style="fill:#8fd8f2"/><path d="M70.00432,82h-6.562a3.19656,3.19656,0,0,1-2.895-1.85449,2.19206,2.19206,0,0,1,.10059-2.15283A2.145,2.145,0,0,1,62.46232,77h5.87354a.49964.49964,0,0,1,.46142.30762l1.66846,4A.49993.49993,0,0,1,70.00432,82Zm-7.542-4A1.15438,1.15438,0,0,0,61.414,79.63721,2.233,2.233,0,0,0,63.4423,81h5.81153l-1.251-3Z" style="fill:#2d2d2d"/><path d="M122.68142,100.5l-.449-3.83508A2.44983,2.44983,0,0,0,119.79917,94.5H100.71142a3.7779,3.7779,0,0,0-3.41608,2.16455L95.48392,100.5Z" style="fill:#8fd8f2"/><path d="M122.68156,101H95.48381a.5.5,0,0,1-.45215-.71338l1.81152-3.83545A4.29524,4.29524,0,0,1,100.71135,94h19.08789a2.94992,2.94992,0,0,1,2.92969,2.60693l.44921,3.835a.49975.49975,0,0,1-.49658.55811Zm-26.40869-1h25.84668l-.38379-3.27686A1.95024,1.95024,0,0,0,119.79924,95H100.71135a3.29178,3.29178,0,0,0-2.96387,1.87793Z" style="fill:#2d2d2d"/><circle cx="78.40295" cy="98" r="8.5" style="fill:#2d2d2d"/><path d="M78.40275,107a9,9,0,1,1,9-9A9.01047,9.01047,0,0,1,78.40275,107Zm0-17a8,8,0,1,0,8,8A8.00917,8.00917,0,0,0,78.40275,90Z" style="fill:#2d2d2d"/><circle cx="78.40295" cy="98" r="5.5" style="fill:#fff"/><path d="M78.40275,104a6,6,0,1,1,6-6A6.00657,6.00657,0,0,1,78.40275,104Zm0-11a5,5,0,1,0,5,5A5.00589,5.00589,0,0,0,78.40275,93Z" style="fill:#2d2d2d"/><rect x="61.40295" y="86" width="17" height="24" transform="translate(139.8059 196) rotate(-180)" style="fill:none"/><path d="M125.903,90.5a5.92048,5.92048,0,0,0-1.85689-4.71647" style="fill:#8fd8f2"/><path d="M125.90373,90.99951a.44465.44465,0,0,1-.05664-.00342.50078.50078,0,0,1-.44141-.55175,5.46737,5.46737,0,0,0-1.6958-4.29.5002.5002,0,1,1,.67188-.74121,6.38561,6.38561,0,0,1,2.01758,5.144A.49922.49922,0,0,1,125.90373,90.99951Z" style="fill:#2d2d2d"/></g></svg>