<svg xmlns="http://www.w3.org/2000/svg" viewBox="0 0 150 150"><title>Icons</title><g style="isolation:isolate"><path d="M88.183,49.65674c7.7524-10.06,23.5288-.8061,15.81539,12.3371-3.3824,5.763-3.348,9.4531-1.80619,14.8461,1.8882,6.6053-.1982,12.1719-6.9413,12.1719C95.25093,89.01184,78.253,62.54234,88.183,49.65674Z" style="fill:#2d2d2d"/><polygon points="48.591 36.5 66.359 36.5 66.359 36.5 77.948 105.5 19.278 105.5 19.278 65.836 48.591 36.5" style="fill:#fff"/><path d="M77.94805,106H19.27813a.49971.49971,0,0,1-.5-.5V65.83643a.50048.50048,0,0,1,.14648-.35352L48.23809,36.14648A.49963.49963,0,0,1,48.59161,36H66.35918a.49971.49971,0,0,1,.49317.417l11.58887,69a.50021.50021,0,0,1-.49317.583Zm-58.16992-1h57.5791L65.93633,37H48.79864L19.77813,66.04346Z" style="fill:#2d2d2d"/><polygon points="16.414 68.5 33.994 68.5 65.96 36.5 48.38 36.5 16.414 68.5" style="fill:#fff"/><path d="M33.99493,69H16.41387a.5.5,0,0,1-.35351-.85352l31.96582-32A.49962.49962,0,0,1,48.37969,36H65.95977a.5.5,0,0,1,.35352.85352l-31.96485,32A.49962.49962,0,0,1,33.99493,69Zm-16.375-1h16.168L64.75372,37h-16.167Z" style="fill:#2d2d2d"/><rect x="76.27766" y="41.5" width="9" height="25" transform="translate(161.55532 108) rotate(-180)" style="fill:#fff"/><path d="M85.27813,67h-9a.49971.49971,0,0,1-.5-.5v-25a.49971.49971,0,0,1,.5-.5h9a.49971.49971,0,0,1,.5.5v25A.49971.49971,0,0,1,85.27813,67Zm-8.5-1h8V42h-8Z" style="fill:#2d2d2d"/><polygon points="65.756 36.405 95.236 65.761 95.278 65.783 95.278 105.5 36.278 105.5 36.278 65.782 65.756 36.405" style="fill:#8fd8f2"/><path d="M95.27813,106h-59a.49971.49971,0,0,1-.5-.5V65.78174a.49764.49764,0,0,1,.14746-.354L65.40313,36.05078a.49924.49924,0,0,1,.70508-.00049l29.457,29.332a.55539.55539,0,0,1,.21289.40039V105.5A.49971.49971,0,0,1,95.27813,106Zm-58.5-1h58V66.01025L65.75567,37.11035,36.77813,65.98926Z" style="fill:#2d2d2d"/><rect x="47.27766" y="76.5" width="13" height="19" transform="translate(107.55532 172) rotate(-180)" style="fill:#fff"/><path d="M60.27813,96h-13a.49971.49971,0,0,1-.5-.5v-19a.49971.49971,0,0,1,.5-.5h13a.49971.49971,0,0,1,.5.5v19A.49971.49971,0,0,1,60.27813,96Zm-12.5-1h12V77h-12Z" style="fill:#2d2d2d"/><rect x="72.27766" y="76.5" width="13" height="29" transform="translate(157.55532 182) rotate(-180)" style="fill:#fff"/><path d="M85.27813,106h-13a.49971.49971,0,0,1-.5-.5v-29a.49971.49971,0,0,1,.5-.5h13a.49971.49971,0,0,1,.5.5v29A.49971.49971,0,0,1,85.27813,106Zm-12.5-1h12V77h-12Z" style="fill:#2d2d2d"/><line x1="66.22811" y1="36.42007" x2="98.57052" y2="68.76247" style="fill:#fff"/><path d="M98.57012,69.2627a.49835.49835,0,0,1-.35351-.14649L65.87481,36.77344a.49995.49995,0,0,1,.707-.707l32.3418,32.34277a.5.5,0,0,1-.35352.85352Z" style="fill:#2d2d2d"/><path d="M117.05363,90.5h3.69226a1.2544,1.2544,0,0,1,.97624,1.687h0A2.91335,2.91335,0,0,1,120.136,93.5h-4.142Z" style="fill:#8fd8f2"/><path d="M120.13555,94H115.994a.50038.50038,0,0,1-.47168-.6665l1.05957-3A.50121.50121,0,0,1,117.05352,90h3.69238a.50527.50527,0,0,1,.10157.01025,1.888,1.888,0,0,1,1.29492.98243,1.60994,1.60994,0,0,1,.03418,1.40332,3.41675,3.41675,0,0,1-1.84082,1.5625A.50712.50712,0,0,1,120.13555,94ZM116.701,93h3.32813a2.30763,2.30763,0,0,0,1.23925-1.022.60231.60231,0,0,0-.01953-.53516A.87231.87231,0,0,0,120.68926,91H117.407Z" style="fill:#2d2d2d"/><polygon points="104.147 95.5 69.469 95.826 70.023 102.5 75.114 102.498 106.31 103.359 104.147 95.5" style="fill:#8fd8f2"/><path d="M106.31036,103.85889h-.01368l-31.19629-.86084L70.02227,103a.49983.49983,0,0,1-.49805-.4585l-.55371-6.67431a.50017.50017,0,0,1,.49317-.54151L104.14141,95a.49641.49641,0,0,1,.48731.36719l2.16406,7.85888a.5003.5003,0,0,1-.48242.63282Zm-31.19629-1.86084,30.53515.84228-1.88281-6.83691-33.75488.31738L70.48223,102Z" style="fill:#0a3360"/><circle cx="121.77766" cy="104" r="5.5" style="fill:#8fd8f2"/><path d="M121.77813,110a6,6,0,1,1,6-6A6.00657,6.00657,0,0,1,121.77813,110Zm0-11a5,5,0,1,0,5,5A5.00588,5.00588,0,0,0,121.77813,99Z" style="fill:#2d2d2d"/><path d="M122.11933,101.70534a3.6216,3.6216,0,0,0-3.56815,3.01273,3.62358,3.62358,0,1,1,7.13631,0A3.6216,3.6216,0,0,0,122.11933,101.70534Z" style="fill:#8fd8f2"/><path d="M118.55157,105.21826a.50116.50116,0,0,1-.49317-.41553,4.18436,4.18436,0,0,1-.0625-.69531,4.12354,4.12354,0,0,1,8.24707,0,4.18329,4.18329,0,0,1-.0625.69531.50115.50115,0,0,1-.49316.41553h0a.50007.50007,0,0,1-.49317-.416,3.11875,3.11875,0,0,0-6.14941-.00049.50048.50048,0,0,1-.49316.4165Zm3.56738-4.01269a4.11883,4.11883,0,0,1,2.03711.53564,3.11812,3.11812,0,0,0-4.07227-.00146A4.12055,4.12055,0,0,1,122.119,101.20557Z" style="fill:#0a3360"/><circle cx="122.27766" cy="104.5" r="1" style="fill:#8fd8f2"/><path d="M122.27813,106a1.5,1.5,0,1,1,1.5-1.5A1.50164,1.50164,0,0,1,122.27813,106Zm0-2a.5.5,0,1,0,.5.5A.50065.50065,0,0,0,122.27813,104Z" style="fill:#0a3360"/><path d="M73.32113,98.5h2.27861c2.0933,0,3.79027,2.46242,3.79027,5.5s-1.697,5.5-3.79027,5.5H73.32113c-2.09329,0-3.79037-2.46242-3.79037-5.5S71.22784,98.5,73.32113,98.5Z" style="fill:#fff"/><path d="M75.59942,110H73.3211c-2.36524,0-4.29-2.69141-4.29-6s1.9248-6,4.29-6h2.27832c2.36621,0,4.291,2.69141,4.291,6S77.96563,110,75.59942,110ZM73.3211,99c-1.81446,0-3.29,2.24316-3.29,5s1.47558,5,3.29,5h2.27832c1.81445,0,3.291-2.24316,3.291-5s-1.47656-5-3.291-5Z" style="fill:#2d2d2d"/><path d="M93.35675,98.5h2.27861c2.09329,0,3.79037,2.46242,3.79037,5.5s-1.69708,5.5-3.79037,5.5H93.35675c-2.0934,0-3.79027-2.46242-3.79027-5.5S91.26335,98.5,93.35675,98.5Z" style="fill:#8fd8f2"/><path d="M95.63555,110H93.35723c-2.36621,0-4.291-2.69141-4.291-6s1.9248-6,4.291-6h2.27832c2.36524,0,4.29,2.69141,4.29,6S98.00079,110,95.63555,110ZM93.35723,99c-1.81445,0-3.291,2.24316-3.291,5s1.47656,5,3.291,5h2.27832c1.81445,0,3.29-2.24316,3.29-5s-1.47559-5-3.29-5Z" style="fill:#2d2d2d"/><path d="M93.37816,101.70534c-1.23538,0-2.25853,1.303-2.459,3.01273a5.22839,5.22839,0,0,1-.03817-.61081c0-2.00123,1.118-3.62353,2.49716-3.62353s2.49715,1.6223,2.49715,3.62353a5.22839,5.22839,0,0,1-.03817.61081C95.63668,103.00834,94.61353,101.70534,93.37816,101.70534Z" style="fill:#8fd8f2"/><path d="M90.91875,105.21826h-.001a.50016.50016,0,0,1-.4961-.44385,5.967,5.967,0,0,1-.041-.667c0-2.3125,1.3164-4.12353,2.99707-4.12353s2.998,1.811,2.998,4.12353a5.5678,5.5678,0,0,1-.043.66944.49915.49915,0,0,1-.4961.4414h0a.50086.50086,0,0,1-.49707-.44189c-.1709-1.46582-1.01465-2.5708-1.96191-2.5708-.94629,0-1.79,1.10547-1.96289,2.57129A.49915.49915,0,0,1,90.91875,105.21826Zm2.459-4.23437a1.493,1.493,0,0,0-1.042.47509,2.3249,2.3249,0,0,1,2.085,0A1.497,1.497,0,0,0,93.37774,100.98389Z" style="fill:#0a3360"/><circle cx="93.27766" cy="104.5" r="1" style="fill:#8fd8f2"/><path d="M93.27813,106a1.5,1.5,0,1,1,1.5-1.5A1.50164,1.50164,0,0,1,93.27813,106Zm0-2a.5.5,0,1,0,.5.5A.50065.50065,0,0,0,93.27813,104Z" style="fill:#0a3360"/><path d="M91.679,81.5h18.59428c1.71428,0,2.3187.30991,2.94339,1.3585L119.55629,93.5H98.53614Z" style="fill:#8fd8f2"/><path d="M119.55645,94H98.53594a.50148.50148,0,0,1-.43457-.25195l-6.85742-12A.50023.50023,0,0,1,91.67852,81h18.59473c1.85254,0,2.64062.37451,3.373,1.60254l6.33985,10.6416A.5002.5002,0,0,1,119.55645,94ZM98.826,93h19.85059l-5.88965-9.88574C112.28008,82.26465,111.868,82,110.27325,82H92.53985Z" style="fill:#0a3360"/><circle cx="101.77766" cy="104" r="5.5" style="fill:#fff"/><path d="M101.77813,110a6,6,0,1,1,6-6A6.00657,6.00657,0,0,1,101.77813,110Zm0-11a5,5,0,1,0,5,5A5.00588,5.00588,0,0,0,101.77813,99Z" style="fill:#2d2d2d"/><path d="M110.435,81.5H92.50854l6.01845,12h21.02014l-6.10092-10.28508A3.50109,3.50109,0,0,0,110.435,81.5Z" style="fill:#fff"/><path d="M119.54668,94H98.52715a.50062.50062,0,0,1-.44726-.27588l-6.01856-12A.5.5,0,0,1,92.5086,81h17.92676a4.01776,4.01776,0,0,1,3.44043,1.95947l6.10058,10.28565A.49947.49947,0,0,1,119.54668,94ZM98.83575,93h19.833l-5.65234-9.53027A3.01581,3.01581,0,0,0,110.43536,82H93.31914Z" style="fill:#2d2d2d"/><path d="M130.27766,99.5h3v6h-20.1859l.0003-.00049-.0003.00049h-5.41454a1.39955,1.39955,0,0,1-1.39956-1.39956v-1.49868a4.0118,4.0118,0,0,0-4-4h0a4.0117,4.0117,0,0,0-3.99995,3.99994v2.43762a.46072.46072,0,0,1-.46072.46072H77.871a.49545.49545,0,0,1-.48639-.54484c.35169-4.23933-1.61132-6.31564-4.057-6.31564-3.351,0-3.38345,3.81234-4.15486,4.85242a.2223.2223,0,0,1-.3525.0058l-2.27561-2.82924a1.20949,1.20949,0,0,1-.267-.75805V93.67349c0-1.16482.73668-1.3125,2.13675-1.853a10.21029,10.21029,0,0,0,4.59288-3.50438c.5897-.81686.96489-1.36053,2.072-2.9262a8.30106,8.30106,0,0,1,3.10333-2.62928l-.75326-.42408a.44664.44664,0,0,1,.22811-.8365s12.15153-.01221,13.25239-.01221a2.35024,2.35024,0,0,1,2.234,1.58647c.4857,1.00381,4.63,10.42574,4.63,10.42574h21.04156a53.22112,53.22112,0,0,1,9.083,1.24132,7.94562,7.94562,0,0,1,3.80939,1.61727A4.74078,4.74078,0,0,1,133.27766,99.5" style="fill:#8fd8f2"/><path d="M133.27813,106H107.67754a1.90185,1.90185,0,0,1-1.89941-1.89941v-1.499a3.5,3.5,0,1,0-7,0v2.4375A.96181.96181,0,0,1,97.81719,106H77.8709a.98384.98384,0,0,1-.72265-.31787,1.00845,1.00845,0,0,1-.26172-.769,6.15385,6.15385,0,0,0-1.15918-4.748,3.1718,3.1718,0,0,0-2.39942-1.02539c-1.94629,0-2.55468,1.396-3.14746,3.2207a5.21781,5.21781,0,0,1-.60644,1.4292.7146.7146,0,0,1-.56446.292.73364.73364,0,0,1-.5791-.271l-2.27539-2.82862a1.71431,1.71431,0,0,1-.37695-1.07129v-6.2373c0-1.395.91016-1.73682,2.0625-2.16992l.39453-.14942a9.732,9.732,0,0,0,4.37793-3.3457c.376-.52148.6709-.93945,1.1416-1.6084l.916-1.29883a8.65671,8.65671,0,0,1,2.49316-2.34082A.93348.93348,0,0,1,76.73028,81.71.94374.94374,0,0,1,77.657,81c-.001,0,12.15234-.01221,13.25293-.01221A2.86726,2.86726,0,0,1,93.59454,82.856c.44043.91162,3.78418,8.50439,4.50585,10.144h20.71485a54.17864,54.17864,0,0,1,9.19922,1.25488c1.874.44824,3.20508.89746,4.04883,1.75244A5.18223,5.18223,0,0,1,133.77813,99.5v6A.49971.49971,0,0,1,133.27813,106Zm-31.001-7.89844a4.50576,4.50576,0,0,1,4.501,4.5v1.499a.90023.90023,0,0,0,.89941.89941h25.10059v-5h-2.5a.5.5,0,0,1,0-1h2.45215a4.60411,4.60411,0,0,0-1.35059-2.26416,7.55653,7.55653,0,0,0-3.59765-1.5083,53.18226,53.18226,0,0,0-8.98536-1.228L97.77422,94a.50067.50067,0,0,1-.458-.29883c-.041-.09375-4.14649-9.4248-4.62208-10.40918A1.85742,1.85742,0,0,0,90.91,81.98779c-1.01856,0-11.501.01026-13.05958.01221l.57715.3252a.49972.49972,0,0,1-.0205.88232,7.83418,7.83418,0,0,0-2.91993,2.47119l-.915,1.29688c-.47363.67285-.76953,1.09326-1.15918,1.63281a10.72223,10.72223,0,0,1-4.81835,3.67822l-.40235.15283c-1.21875.458-1.41406.5791-1.41406,1.23389v6.2373a.7109.7109,0,0,0,.15625.44434l2.01269,2.50244c.09375-.22461.18653-.51025.28223-.80566.50586-1.55811,1.27051-3.91211,4.09863-3.91211a4.14758,4.14758,0,0,1,3.13477,1.34814c.78613.853,1.66992,2.50147,1.41992,5.50879L97.81719,105l-.03906-2.39844A4.50471,4.50471,0,0,1,102.27715,98.10156Z" style="fill:#2d2d2d"/><path d="M129.71954,100a.49971.49971,0,0,1-.5-.5V96.62109a.49917.49917,0,0,1,.27832-.44824l1.39746-.69092a.50007.50007,0,0,1,.44336.89649l-1.11914.55322V99.5A.49972.49972,0,0,1,129.71954,100Z" style="fill:#2d2d2d"/><path d="M107.49939,95.91775a5.33177,5.33177,0,0,1,1.85438.00714c1.41221.22142,5.02985.696,5.02985.696l.791,2.87907h-6.99176s-1.3778-1.55025-2.47993-2.78415A4.57893,4.57893,0,0,1,107.49939,95.91775Z" style="fill:#fff"/><path d="M115.17461,100h-6.99218a.50031.50031,0,0,1-.374-.168s-1.376-1.5498-2.47851-2.7832a.4992.4992,0,0,1,.08593-.74219,5.09584,5.09584,0,0,1,1.98926-.87988h0a5.79556,5.79556,0,0,1,2.02539.0039c1.41016.2212,5.01758.69434,5.01856.69483a.49974.49974,0,0,1,.417.36328l.791,2.87891a.50044.50044,0,0,1-.48243.63232ZM108.407,99h6.11132l-.52929-1.92676c-.92481-.12207-3.55567-.47314-4.71289-.65429a4.80216,4.80216,0,0,0-1.68164-.00977h-.001a3.71452,3.71452,0,0,0-1.124.41455C107.25372,97.70312,108.077,98.62891,108.407,99Zm-.90723-3.082h0Z" style="fill:#2d2d2d"/><path d="M75.01365,92.96256l-2.02172-4.6717c.50888-.72384.91509-1.32149,1.925-2.78015A8.4007,8.4007,0,0,1,78.04,82.80777l-.75793-.43618a.4605.4605,0,0,1,.22945-.85983s10.69164-.0098,13.812-.01176h.0241a4.48367,4.48367,0,0,1,1.8194.26336,2.007,2.007,0,0,1,.25179.12972c.03214.02077.06094.04781.09151.07054a3.13713,3.13713,0,0,1,.82025,1.08948c.06.1211.11992.241.18126.38132l.01371.02979c.08935.20457.32312.72109.60647,1.34657.52593,1.17727,1.2243,2.75388,1.88739,4.25486.928,2.16369,1.95519,4.43436,1.95519,4.43436H75.83183A.89152.89152,0,0,1,75.01365,92.96256Z" style="fill:#fff"/><path d="M98.97442,94H75.83184a1.39293,1.39293,0,0,1-1.27734-.83838v-.00049L72.533,88.48975a.501.501,0,0,1,.04981-.48633c.30957-.44092.58105-.83447.97558-1.40528l.94727-1.37207a8.76686,8.76686,0,0,1,2.53027-2.41943l-.00293-.00146a.96068.96068,0,0,1,.47852-1.79346L91.32305,81a4.89862,4.89862,0,0,1,2.04785.30664,2.11157,2.11157,0,0,1,.33985.18018l.09179.0708a3.62991,3.62991,0,0,1,.97657,1.27441c.07226.147.13086.26514.19043.40235.10253.23291.33593.74707.61718,1.36962.52832,1.18067,1.22657,2.75782,1.88965,4.25928.92774,2.16406,1.95313,4.4292,1.95313,4.43067A.49978.49978,0,0,1,98.97442,94ZM75.47247,92.76318A.39147.39147,0,0,0,75.83184,93H98.201c-.376-.84131-1.03027-2.3125-1.6416-3.73779-.66016-1.49512-1.3584-3.07032-1.88379-4.24756-.28418-.625-.51758-1.144-.6084-1.34912-.06738-.15235-.11914-.25782-.1709-.3628a2.71089,2.71089,0,0,0-.69922-.9497l-.15136-.09375c-.00684-.00342-.10157-.04834-.1084-.05225A4.12875,4.12875,0,0,0,91.34747,82l-13.83594.01172.77734.3623a.5.5,0,0,1-.02051.87842,7.92476,7.92476,0,0,0-2.94043,2.543L74.38164,87.166c-.32714.47314-.57031.82519-.81933,1.1831Z" style="fill:#2d2d2d"/><line x1="85.78989" y1="81.4694" x2="84.25382" y2="93.20264" style="fill:#fff"/><path d="M84.25469,93.70264a.48019.48019,0,0,1-.06543-.0044.50033.50033,0,0,1-.43164-.56054l1.53613-11.7334a.50677.50677,0,0,1,.56055-.43067.50033.50033,0,0,1,.43164.56055l-1.53613,11.7334A.50017.50017,0,0,1,84.25469,93.70264Z" style="fill:#2d2d2d"/><path d="M97.48043,90.5H91.91394a1.2544,1.2544,0,0,0-.97624,1.687h0A2.91335,2.91335,0,0,0,92.52385,93.5h6.01622Z" style="fill:#8fd8f2"/><path d="M98.53985,94H92.52422a.507.507,0,0,1-.20019-.0415,3.41675,3.41675,0,0,1-1.84082-1.5625,1.60991,1.60991,0,0,1,.03418-1.40332,1.888,1.888,0,0,1,1.29492-.98243A.50509.50509,0,0,1,91.91387,90h5.56641a.50121.50121,0,0,1,.47168.3335l1.05957,3A.50038.50038,0,0,1,98.53985,94Zm-5.90918-1h5.20215l-.70606-2H91.97051a.87233.87233,0,0,0-.55957.44287.60238.60238,0,0,0-.01953.53516A2.30762,2.30762,0,0,0,92.63067,93Z" style="fill:#2d2d2d"/><circle cx="101.77766" cy="104" r="5.5" style="fill:#fff"/><path d="M101.77813,110a6,6,0,1,1,6-6A6.00657,6.00657,0,0,1,101.77813,110Zm0-11a5,5,0,1,0,5,5A5.00588,5.00588,0,0,0,101.77813,99Z" style="fill:#2d2d2d"/><path d="M130.27813,100h-15a.5.5,0,0,1,0-1h15a.5.5,0,0,1,0,1Z" style="fill:#2d2d2d"/></g></svg>