<svg xmlns="http://www.w3.org/2000/svg" width="50" height="50" viewBox="0 0 50 50"><title>Discount</title><path d="M25.70015,12.1897a3.81992,3.81992,0,0,0,2.92566-2.927h9.39972L33.19381,19.77637a.80028.80028,0,0,0,.395,1.06054.78823.78823,0,0,0,.332.07227.79955.79955,0,0,0,.728-.4668L39.54049,9.794l4.89843,10.64941a.80009.80009,0,0,0,1.4541-.668L40.6606,8.40332a1.296,1.296,0,0,0-1.01483-.72.74935.74935,0,0,0-.1004-.02026H28.62459a3.80908,3.80908,0,0,0-7.449,0H10.25533c-.01929,0-.0354.00964-.05432.011-.03443.00049-.0672-.00952-.10193-.0061a1.1797,1.1797,0,0,0-1,.80566L3.90523,19.77539a.80009.80009,0,0,0,1.4541.668L10.2524,9.7959l4.89746,10.64746a.80009.80009,0,1,0,1.4541-.668L11.76693,9.2627H21.1744a3.82034,3.82034,0,0,0,2.92614,2.927v25.032H7.44625v8.126H42.352v-8.126H25.70015ZM22.687,8.46484a2.21314,2.21314,0,1,1,2.21338,2.21289A2.2161,2.2161,0,0,1,22.687,8.46484ZM40.7524,43.74805H9.04586V38.82129H40.7524Z" fill="#2d2d2d"/><path d="M10.44625,31.09863a7.53563,7.53563,0,0,0,7.43457-7.61816.79943.79943,0,0,0-.79981-.79H3.62838a.80005.80005,0,0,0-.79981.78516v.18847A7.53532,7.53532,0,0,0,10.354,31.09961C10.38472,31.09961,10.41549,31.09961,10.44625,31.09863ZM4.47164,24.29h11.7666a5.93666,5.93666,0,0,1-5.81152,5.209H10.354A5.93536,5.93536,0,0,1,4.47164,24.29Z" fill="#2d2d2d"/><path d="M46.371,22.69043H32.91793a.79972.79972,0,0,0-.79981.793v.18066A7.53606,7.53606,0,0,0,39.644,31.09961c.03076,0,.06152,0,.09229-.001a7.53563,7.53563,0,0,0,7.43457-7.61816A.79943.79943,0,0,0,46.371,22.69043ZM39.71675,29.499H39.644a5.93551,5.93551,0,0,1-5.8833-5.209H45.52828A5.93666,5.93666,0,0,1,39.71675,29.499Z" fill="#2d2d2d"/></svg>