<svg xmlns="http://www.w3.org/2000/svg" width="623.898" height="545" viewBox="0 0 623.898 545">
  <g id="Group_7205" data-name="Group 7205" transform="translate(-0.102 -1507)">
    <path id="Path_11247" data-name="Path 11247" d="M0,0H564V545H0Z" transform="translate(60 1507)" fill="#f3f9fc"/>
    <g id="Group_6821" data-name="Group 6821" transform="translate(7978 -1868.669)">
      <path id="Path_11797" data-name="Path 11797" d="M906.037,483.454a24.22,24.22,0,0,1,8.877,32.911l-7.145,12.414a33.055,33.055,0,0,1,8.661,2.887H728.776c-5.2-6.207-7.145-12.7-3.32-19.271l32.118-23.312c-8.011-.289,4.619-7,.289-14.435l-34.355-59.472A24.109,24.109,0,0,1,765.225,391h.072l.938,1.732,21.219-36.737A28.653,28.653,0,0,1,826.5,345.529h0a28.653,28.653,0,0,1,10.465,39.046l-3.392,5.774a45.228,45.228,0,0,1,59.183-12.775h0a45.3,45.3,0,0,1,16.528,61.637l-24.756,42.944A24.04,24.04,0,0,1,906.037,483.454Z" transform="translate(-8376.383 3388.877)" fill="#7ee0ca"/>
      <path id="Path_11799" data-name="Path 11799" d="M1193.607,483.538a24.235,24.235,0,0,1,8.805,32.984l-7.145,12.414a33.049,33.049,0,0,1,8.661,2.887H1016.347c-5.2-6.207-7.145-12.7-3.32-19.271l32.045-23.312c-8.011-.289,4.619-7,.289-14.435l-34.355-59.472a24.14,24.14,0,1,1,41.789-24.178h0l.072.072,1.01,1.732,21.147-36.665a28.653,28.653,0,0,1,39.046-10.465h0a28.652,28.652,0,0,1,10.465,39.046l-3.392,5.774a45.228,45.228,0,0,1,59.183-12.775h0a45.3,45.3,0,0,1,16.528,61.637l-24.828,42.944A23.492,23.492,0,0,1,1193.607,483.538Z" transform="translate(-8871.478 3388.793)" fill="#8e4d8c"/>
      <path id="Path_11800" data-name="Path 11800" d="M1184.991,120.337a23.359,23.359,0,0,1,18.765,11.62l.938,1.66,20.642-35.654a27.882,27.882,0,0,1,37.891-10.177h0a27.882,27.882,0,0,1,10.177,37.891l-3.248,5.63a43.9,43.9,0,0,1,57.451-12.486h0a43.973,43.973,0,0,1,16.023,59.832L1319.6,220.3a23.309,23.309,0,0,1,30.674,12.2,23.663,23.663,0,0,1-1.227,21l-6.929,11.981a31.286,31.286,0,0,1,10.321,3.825,33.418,33.418,0,0,1,12.2,45.47l-28.148,48.718a33.483,33.483,0,0,1,12.991,25.766,38.85,38.85,0,0,1-2.887,14.29,29.685,29.685,0,0,1-1.516,3.031l-2.526,4.4a38.513,38.513,0,0,1-31.612,16.456h-54.78l12.053-20.858a33.364,33.364,0,0,1-8.589-43.016l25.044-43.3-.866-.433a23.493,23.493,0,0,1-11.62-22.158,44.177,44.177,0,0,1-33.2,10.537c-.577.433-1.227.866-1.876,1.3l-15.445,8.95a15.185,15.185,0,0,1-20.642-5.557l-15.951-27.643ZM1210.757,233.8l5.2-9.022a24.383,24.383,0,0,1-13.064-4.547Z" transform="translate(-9152.818 3460.554)" fill="#7ee0ca"/>
      <path id="Path_11805" data-name="Path 11805" d="M1062.273,82.44V79.625c0-14.724-11.837-26.993-26.56-26.7A25.912,25.912,0,0,0,1013.7,65.84a11.516,11.516,0,0,1-15.734,4.114c-.361-.217-.65-.433-1.01-.65l-.216-.144A11.719,11.719,0,0,1,991.975,61a39.094,39.094,0,0,0-39.912-34.211c-21.364.577-38.036,18.621-38.036,39.985V89.657A15.463,15.463,0,0,1,898.582,105.1h-5.269A13.707,13.707,0,0,0,879.6,118.816h0a13.707,13.707,0,0,0,13.713,13.713h191.551a13.707,13.707,0,0,0,13.713-13.713h0a13.707,13.707,0,0,0-13.713-13.713h0a22.686,22.686,0,0,1-22.591-22.663Z" transform="translate(-8661.883 3496.51)" fill="#fff"/>
      <path id="Path_11806" data-name="Path 11806" d="M742.735,26.575h0c0-14,10.826-25.838,24.756-26.488a26.128,26.128,0,0,1,27.426,24.684v1.371h0A12.49,12.49,0,0,0,807.4,38.628h12.414a10.627,10.627,0,0,1,10.61,10.61h0a10.627,10.627,0,0,1-10.61,10.61H730.61A10.627,10.627,0,0,1,720,49.238h0a10.627,10.627,0,0,1,10.61-10.61h0a12.09,12.09,0,0,0,12.125-12.053Z" transform="translate(-8278.489 3503.946)" fill="#fff"/>
      <rect id="Rectangle_3972" data-name="Rectangle 3972" width="118.727" height="230.019" transform="translate(-7977.827 3686.049)" fill="#743573"/>
      <rect id="Rectangle_3973" data-name="Rectangle 3973" width="224.245" height="171.847" transform="translate(-7977.899 3748.769)" fill="#fff"/>
      <rect id="Rectangle_3974" data-name="Rectangle 3974" width="267.911" height="88.053" transform="translate(-7811.845 3660.716)" fill="#2d95e5"/>
      <rect id="Rectangle_3975" data-name="Rectangle 3975" width="57.306" height="169.97" transform="translate(-7977.827 3748.769)" fill="#8fd8f2"/>
      <rect id="Rectangle_3976" data-name="Rectangle 3976" width="37.17" height="98.518" transform="translate(-7977.827 3795.393)" fill="#007cb9"/>
      <path id="Path_11807" data-name="Path 11807" d="M1265.27,161.6H1111.9l81.124,148.174H1348.7Z" transform="translate(-9089.728 3438.995)" fill="#2862a4"/>
      <path id="Path_11808" data-name="Path 11808" d="M1213.434,161.6l83.506,148.174-63.08,9.888L1130,309.774Z" transform="translate(-9051.026 3438.995)" fill="#fff"/>
      <path id="Path_11809" data-name="Path 11809" d="M819.684,244.9l49.656,88.053H770.1Z" transform="translate(-8363.569 3415.816)" fill="#2d95e5"/>
      <path id="Path_11810" data-name="Path 11810" d="M1227.5,161.6h153.37l-83.506,148.174H1227.5Z" transform="translate(-9205.327 3438.995)" fill="#2d95e5"/>
      <rect id="Rectangle_3977" data-name="Rectangle 3977" width="57.739" height="123.346" transform="translate(-7865.957 3795.393)" fill="#2c4a7a"/>
      <circle id="Ellipse_700" data-name="Ellipse 700" cx="28.87" cy="28.87" r="28.87" transform="translate(-7865.957 3686.843)" fill="#ffa452"/>
      <rect id="Rectangle_3978" data-name="Rectangle 3978" width="245.032" height="171.703" transform="translate(-7753.511 3748.769)" fill="#fff"/>
      <rect id="Rectangle_3979" data-name="Rectangle 3979" width="245.537" height="10.97" transform="translate(-7754.017 3748.769)" fill="#d7f2f9"/>
      <path id="Path_11811" data-name="Path 11811" d="M996.2,367.3l96.569,171.558-95.992-.072Z" transform="translate(-8750.228 3381.757)" fill="#91d8e8"/>
      <line id="Line_2221" data-name="Line 2221" x1="70.153" transform="translate(-7874.401 3715.713)" fill="none" stroke="#fff" stroke-miterlimit="10" stroke-width="1"/>
      <line id="Line_2222" data-name="Line 2222" y1="73.979" transform="translate(-7837.087 3674.718)" fill="none" stroke="#fff" stroke-miterlimit="10" stroke-width="1"/>
      <line id="Line_2223" data-name="Line 2223" x1="193.932" transform="translate(-7727.958 3896.076)" fill="none" stroke="#ce80ce" stroke-miterlimit="10" stroke-width="1"/>
      <line id="Line_2224" data-name="Line 2224" x1="193.932" transform="translate(-7727.958 3862.515)" fill="none" stroke="#ce80ce" stroke-miterlimit="10" stroke-width="1"/>
      <line id="Line_2225" data-name="Line 2225" x1="193.932" transform="translate(-7727.958 3828.954)" fill="none" stroke="#ce80ce" stroke-miterlimit="10" stroke-width="1"/>
      <path id="Path_11812" data-name="Path 11812" d="M1213,314.087h-12.847L1130,188.287l6.279-11.187Z" transform="translate(-8967.087 3434.682)" fill="#d7f2f9"/>
      <line id="Line_2226" data-name="Line 2226" x1="37.17" transform="translate(-7977.827 3844.688)" fill="none" stroke="#90d8e8" stroke-miterlimit="10" stroke-width="1"/>
      <rect id="Rectangle_3980" data-name="Rectangle 3980" width="194.293" height="124.934" transform="translate(-7727.958 3795.61)" fill="#007cb9"/>
      <path id="Path_11813" data-name="Path 11813" d="M1020.941,442.7l-118.8,114.035H831.7V431.8Z" transform="translate(-8559.659 3363.81)" fill="#2c4a7a"/>
      <rect id="Rectangle_3981" data-name="Rectangle 3981" width="194.293" height="123.923" transform="translate(-7727.958 3795.61)" fill="none"/>
      <rect id="Rectangle_3982" data-name="Rectangle 3982" width="62.575" height="29.231" transform="translate(-7725.875 3870.31)" fill="#292852"/>
      <rect id="Rectangle_3983" data-name="Rectangle 3983" width="8.517" height="41.139" transform="translate(-7702.416 3878.322)" fill="#292852"/>
      <ellipse id="Ellipse_701" data-name="Ellipse 701" cx="14.218" cy="20.57" rx="14.218" ry="20.57" transform="translate(-7708.118 3878.322)" fill="#292852"/>
      <ellipse id="Ellipse_702" data-name="Ellipse 702" cx="14.218" cy="20.57" rx="14.218" ry="20.57" transform="translate(-7716.636 3878.322)" fill="#292852"/>
      <ellipse id="Ellipse_703" data-name="Ellipse 703" cx="9.527" cy="13.857" rx="9.527" ry="13.857" transform="translate(-7711.944 3885.034)" fill="#d7f2f9"/>
      <path id="Path_11814" data-name="Path 11814" d="M1054.827,560.491c-4.691,0-8.589,4.98-9.383,11.476-.072-.794-.144-1.588-.144-2.31,0-7.65,4.258-13.857,9.527-13.857s9.527,6.207,9.527,13.857c0,.794-.072,1.588-.144,2.31C1063.416,565.4,1059.518,560.491,1054.827,560.491Z" transform="translate(-8757.244 3329.306)" fill="#4ebee5"/>
      <ellipse id="Ellipse_704" data-name="Ellipse 704" cx="3.176" cy="4.691" rx="3.176" ry="4.691" transform="translate(-7705.592 3894.2)" fill="none" stroke="#259ed9" stroke-miterlimit="10" stroke-width="1"/>
      <rect id="Rectangle_3984" data-name="Rectangle 3984" width="8.517" height="41.139" transform="translate(-7631.884 3878.322)" fill="#292852"/>
      <ellipse id="Ellipse_705" data-name="Ellipse 705" cx="14.218" cy="20.57" rx="14.218" ry="20.57" transform="translate(-7637.586 3878.322)" fill="#292852"/>
      <ellipse id="Ellipse_706" data-name="Ellipse 706" cx="14.218" cy="20.57" rx="14.218" ry="20.57" transform="translate(-7646.104 3878.322)" fill="#292852"/>
      <ellipse id="Ellipse_707" data-name="Ellipse 707" cx="9.527" cy="13.857" rx="9.527" ry="13.857" transform="translate(-7641.413 3885.034)" fill="#007cb9"/>
      <path id="Path_11815" data-name="Path 11815" d="M989.28,463.344h0a1.408,1.408,0,0,1-1.01,1.371l-5.99,1.8,17.394,27.21a9.73,9.73,0,0,1,1.516,5.269v22.518L978.6,544.107h-14s.217-26.777-17.322-26.777-17.827,26.777-17.827,26.777H912.558L891.7,461.9h96.136a1.448,1.448,0,0,1,1.443,1.443Z" transform="translate(-8583.207 3355.434)" fill="#d7f2f9"/>
      <path id="Path_11816" data-name="Path 11816" d="M891.7,468.3h7.65l17.394,27.21a9.731,9.731,0,0,1,1.516,5.269v13.857H899.711v-3.1a13.282,13.282,0,0,1,3.176-8.589l2.31-2.67c2.237-2.67,2.743-5.774.866-8.733Z" transform="translate(-8500.265 3353.653)" fill="#ff527b"/>
      <path id="Path_11817" data-name="Path 11817" d="M1051.216,463.344h0a1.407,1.407,0,0,1-1.01,1.371l-5.991,1.8,17.394,27.21a9.73,9.73,0,0,1,1.516,5.269v22.518l-22.663,22.591h-9.671a4.559,4.559,0,0,1-4.547-4.186c-.722-7.506-3.9-19.92-17.105-19.92s-16.672,12.486-17.538,19.992a4.66,4.66,0,0,1-4.547,4.114H983.3V461.9h66.473a1.551,1.551,0,0,1,1.443,1.443Z" transform="translate(-8711.267 3355.434)" fill="#d7f2f9"/>
      <path id="Path_11818" data-name="Path 11818" d="M996.8,544.1V461.891h66.473a1.46,1.46,0,1,1,.433,2.887l-5.99,1.8,9.166,14.291-39.768,39.768a15.5,15.5,0,0,0-4.475-.505c-13.28,0-16.672,12.486-17.538,19.992a4.66,4.66,0,0,1-4.547,4.114Z" transform="translate(-8724.768 3355.443)" fill="#4ebee5"/>
      <path id="Path_11819" data-name="Path 11819" d="M959.688,513.3H896.247a4.528,4.528,0,0,0-4.547,4.547h0v24.395h72.535V517.847a4.528,4.528,0,0,0-4.547-4.547Z" transform="translate(-8546.248 3341.132)" fill="#fff"/>
      <path id="Path_11820" data-name="Path 11820" d="M979.2,500.778,959.133,468.3H900.6l18.91,32.478Z" transform="translate(-8567.636 3353.653)" fill="#ffb061"/>
      <path id="Path_11821" data-name="Path 11821" d="M983.3,468.3h7.651l17.394,27.21a9.73,9.73,0,0,1,1.516,5.269v13.857H991.311v-3.1a13.282,13.282,0,0,1,3.176-8.589l2.31-2.67a8.035,8.035,0,0,0,.722-9.383Z" transform="translate(-8657.992 3353.653)" fill="#ff527b"/>
      <path id="Path_11822" data-name="Path 11822" d="M983.3,519.407a6.207,6.207,0,0,1,6.207-6.207h.217v13.785H983.3Z" transform="translate(-8637.853 3341.16)" fill="#ffb061"/>
      <path id="Path_11823" data-name="Path 11823" d="M898.123,519.407a6.207,6.207,0,0,0-6.207-6.207H891.7v13.785h6.424v-7.578Z" transform="translate(-8480.125 3341.16)" fill="#ffb061"/>
      <path id="Path_11824" data-name="Path 11824" d="M891.7,569.567,907.867,553.4H980.4l-16.311,16.311Z" transform="translate(-8562.417 3329.974)" fill="#4ebee5"/>
      <path id="Path_11825" data-name="Path 11825" d="M982.4,487.354H924.3L912.1,468.3h58.461Z" transform="translate(-8579.137 3353.653)" fill="#ff8f2f"/>
      <path id="Path_11826" data-name="Path 11826" d="M913,537.63h41.789l-1.083-7.723a7.229,7.229,0,0,0-7.145-6.207H921.228a7.229,7.229,0,0,0-7.145,6.207Z" transform="translate(-8552.173 3338.238)" fill="#91d8e8"/>
      <path id="Path_11827" data-name="Path 11827" d="M913,539.327h41.789l-1.083-5.269c-.505-2.454-3.537-4.258-7.145-4.258H921.228c-3.609,0-6.64,1.8-7.145,4.258Z" transform="translate(-8552.173 3336.541)" fill="#d7f2f9"/>
      <path id="Path_11828" data-name="Path 11828" d="M1019.46,553.4h-8.733a1.217,1.217,0,0,0-1.227,1.227v.866a1.217,1.217,0,0,0,1.227,1.227h8.733a1.216,1.216,0,0,0,1.227-1.227v-.938A1.2,1.2,0,0,0,1019.46,553.4Z" transform="translate(-8687.731 3329.974)" fill="#ff8f2f"/>
      <path id="Path_11829" data-name="Path 11829" d="M1008.953,487.354l4.691-4.763-9.094-14.291H996.9Z" transform="translate(-8671.594 3353.653)" fill="#d33575"/>
      <path id="Path_11830" data-name="Path 11830" d="M917.137,487.354l4.908-4.763L912.951,468.3H905.3Z" transform="translate(-8513.866 3353.653)" fill="#d33575"/>
      <path id="Path_11831" data-name="Path 11831" d="M1034.529,468.3h33.85l7.434,13.569a12.787,12.787,0,0,1-5.052,17.322,12.938,12.938,0,0,1-6.135,1.588h-30.1Z" transform="translate(-8762.498 3353.653)" fill="#292852"/>
      <path id="Path_11832" data-name="Path 11832" d="M933.565,508.8h8.3a4.322,4.322,0,0,1,3.031,1.3l1.732,1.877H931.4l.65-2.093A1.56,1.56,0,0,1,933.565,508.8Z" transform="translate(-8557.292 3342.384)" fill="#fff"/>
      <rect id="Rectangle_3985" data-name="Rectangle 3985" width="22.157" height="9.022" transform="translate(-7629.356 3864.392)" fill="#d7f2f9"/>
      <rect id="Rectangle_3986" data-name="Rectangle 3986" width="22.157" height="7.073" transform="translate(-7629.356 3866.341)" fill="#fff"/>
      <line id="Line_2227" data-name="Line 2227" y2="36.087" transform="translate(-7704.438 3819.932)" fill="none" stroke="#4ebee5" stroke-miterlimit="10" stroke-width="1"/>
      <path id="Path_11833" data-name="Path 11833" d="M1082.736,513.3v10.465a6.582,6.582,0,0,1-4.764,6.351c-6.279,1.8-16.672,7.939-16.672,28.292" transform="translate(-8787.177 3341.132)" fill="none" stroke="#91d8e8" stroke-miterlimit="10" stroke-width="1"/>
      <rect id="Rectangle_3987" data-name="Rectangle 3987" width="45.686" height="6.712" transform="translate(-7660.614 3892.901)" fill="#007cb9"/>
      <rect id="Rectangle_3988" data-name="Rectangle 3988" width="7.723" height="6.784" transform="translate(-7614.847 3892.828)" fill="#3179c9"/>
      <circle id="Ellipse_708" data-name="Ellipse 708" cx="3.392" cy="3.392" r="3.392" transform="translate(-7610.516 3892.828)" fill="#292852"/>
      <circle id="Ellipse_709" data-name="Ellipse 709" cx="3.392" cy="3.392" r="3.392" transform="translate(-7618.24 3892.828)" fill="#3179c9"/>
      <path id="Path_11834" data-name="Path 11834" d="M965.546,565.465h-1.083a6.773,6.773,0,0,0-4.763,1.949h0a4.821,4.821,0,0,1-3.392,1.443H926.5v-3.392l6.063-2.165,31.612.361Z" transform="translate(-8572.676 3327.219)" fill="#4ebee5"/>
      <rect id="Rectangle_3989" data-name="Rectangle 3989" width="7.723" height="6.784" transform="translate(-7653.975 3892.828)" fill="#3179c9"/>
      <circle id="Ellipse_710" data-name="Ellipse 710" cx="3.392" cy="3.392" r="3.392" transform="translate(-7649.644 3892.828)" fill="#292852"/>
      <circle id="Ellipse_711" data-name="Ellipse 711" cx="3.392" cy="3.392" r="3.392" transform="translate(-7657.368 3892.828)" fill="#3179c9"/>
      <path id="Path_11835" data-name="Path 11835" d="M1005.311,565.187h-1.01a7,7,0,0,0-4.908,2.021L994.7,571.9h-14l13.208-9.094,8.517-.505Z" transform="translate(-8651.566 3327.497)" fill="#4ebee5"/>
      <line id="Line_2228" data-name="Line 2228" x1="10.321" transform="translate(-7721.619 3858.69)" fill="none" stroke="#91d8e8" stroke-miterlimit="10" stroke-width="1"/>
      <path id="Path_11836" data-name="Path 11836" d="M880.2,563.768l12.847-12.847a11.97,11.97,0,0,0,3.537-8.444V532.3l8.228,19.992Z" transform="translate(-8478.514 3335.845)" fill="#007cb9"/>
      <rect id="Rectangle_3990" data-name="Rectangle 3990" width="194.293" height="123.923" transform="translate(-7727.958 3795.61)" fill="none"/>
      <path id="Path_11837" data-name="Path 11837" d="M828.3,444.908H1018.19a1.787,1.787,0,0,0,1.8-1.8h0v-1.3a1.787,1.787,0,0,0-1.8-1.8H828.3" transform="translate(-8556.259 3361.528)" fill="#4ebee5"/>
      <path id="Path_11838" data-name="Path 11838" d="M1020.579,437.646l-9.022-5.846H830.4v5.846Z" transform="translate(-8558.359 3363.81)" fill="#292852"/>
      <circle id="Ellipse_712" data-name="Ellipse 712" cx="2.959" cy="2.959" r="2.959" transform="translate(-7738.8 3897.809)" fill="#fff"/>
      <circle id="Ellipse_713" data-name="Ellipse 713" cx="2.959" cy="2.959" r="2.959" transform="translate(-7750.351 3897.809)" fill="#fff"/>
      <circle id="Ellipse_714" data-name="Ellipse 714" cx="2.237" cy="2.237" r="2.237" transform="translate(-7741.977 3899.035)" fill="#fff"/>
      <path id="Path_11839" data-name="Path 11839" d="M1109.878,569.761s-2.526,7.217,2.382,9.816l-4.114-.361a11.408,11.408,0,0,1-.072-9.816Z" transform="translate(-8849.689 3325.521)" fill="#4ebee5"/>
      <circle id="Ellipse_715" data-name="Ellipse 715" cx="2.31" cy="2.31" r="2.31" transform="translate(-7753.095 3899.108)" fill="#fff"/>
      <path id="Path_11840" data-name="Path 11840" d="M1112.42,564.749a.844.844,0,0,0,.794-.577c.072-.217,1.732-6.279-.289-9.527a4.006,4.006,0,0,0-2.959-1.949.807.807,0,0,0-.289,1.588,2.818,2.818,0,0,1,1.877,1.227c1.371,2.165.577,6.64.144,8.228a.821.821,0,0,0,.577,1.01h.144Z" transform="translate(-8852.81 3330.173)" fill="#53d5db"/>
      <path id="Path_11841" data-name="Path 11841" d="M1191.2,573s-7.362,6.64-7.795,7.65l3.9,12.486a1.56,1.56,0,0,0,1.516,1.083h4.836v-.505a2.434,2.434,0,0,0-2.454-2.454h0l-2.093-7,1.66-.361a4.039,4.039,0,0,0,3.031-2.743l2.237-7.073Z" transform="translate(-8988.659 3324.52)" fill="#f46c0f"/>
      <path id="Path_11842" data-name="Path 11842" d="M1161.334,578.11l-6.351,15.518a1.01,1.01,0,0,0,.578,1.371.915.915,0,0,0,.433.072h5.341v-.722a2.1,2.1,0,0,0-2.093-2.093l11.62-16.456Z" transform="translate(-8942.919 3323.741)" fill="#f46c0f"/>
      <path id="Path_11843" data-name="Path 11843" d="M1157.166,553.8h38.4l-1.155,5.052a10.774,10.774,0,0,1,1.588,5.413,10.473,10.473,0,0,1-10.465,10.465h-28.365a10.465,10.465,0,1,1,0-20.931" transform="translate(-8962.094 3329.862)" fill="#ff8f2f"/>
      <path id="Path_11844" data-name="Path 11844" d="M1143.222,544l-18.693,2.021-5.63.65-7.867,9.816,23.1-2.526,1.3-.144a8.947,8.947,0,0,0,7.795-9.816h0" transform="translate(-8883.617 3332.589)" fill="#ff8f2f"/>
      <path id="Path_11845" data-name="Path 11845" d="M1129.2,544.407l5.052-6.207.577,5.63" transform="translate(-8888.286 3334.203)" fill="#f46c0f"/>
      <path id="Path_11846" data-name="Path 11846" d="M1137,545.279l4.98-6.279.65,5.7" transform="translate(-8901.718 3333.98)" fill="#ff8f2f"/>
      <path id="Path_11847" data-name="Path 11847" d="M1115.283,547.9a8.919,8.919,0,0,0,.433-3.9l-4.691.505,4.258,3.392Z" transform="translate(-8856.106 3332.589)" fill="#292852"/>
      <path id="Path_11848" data-name="Path 11848" d="M1134.495,550.177a.654.654,0,1,1-.722-.577h0a.656.656,0,0,1,.722.577" transform="translate(-8890.838 3331.031)" fill="#292852"/>
      <path id="Path_11849" data-name="Path 11849" d="M1130.695,549.773a.654.654,0,1,1-.722-.577h0a.611.611,0,0,1,.722.577" transform="translate(-8884.295 3331.146)" fill="#292852"/>
      <path id="Path_11850" data-name="Path 11850" d="M1137,569.816a1.516,1.516,0,1,0,1.516-1.516h0a1.48,1.48,0,0,0-1.516,1.516h0" transform="translate(-8899.119 3325.828)" fill="#ffcc8f"/>
      <path id="Path_11851" data-name="Path 11851" d="M1153.391,554.739c-.217.072-21.58,14.363-21.58,14.363l-8.011-13.208,15.662-9.094Z" transform="translate(-8902.954 3331.81)" fill="#ff8f2f"/>
      <path id="Path_11852" data-name="Path 11852" d="M1148.8,562.97l-2.021,1.3-8.083-12.342,2.093-1.227Z" transform="translate(-8909.12 3330.725)" fill="#ff527b"/>
      <path id="Path_11853" data-name="Path 11853" d="M1151.21,570.9l-2.526,6.424a2.93,2.93,0,0,0,1.588,3.753h.072l.144.072,11.981,4.042-1.443,4.114a3.783,3.783,0,0,0,4.691-2.6l.217-.866a3.763,3.763,0,0,0-2.382-4.619l-8.3-3.031Z" transform="translate(-8933.47 3325.104)" fill="#ff8f2f"/>
      <path id="Path_11854" data-name="Path 11854" d="M1214.123,549.173c-8.3,0-12.2-7.795-12.486-11.837,0-.722-1.588.938-1.01,4.475s2.959,8.589,6.207,10.321,7.29-2.959,7.29-2.959" transform="translate(-9019.093 3334.49)" fill="#ff8f2f"/>
      <path id="Path_11855" data-name="Path 11855" d="M1184.523,553.8h4.547c-1.949,5.7-5.485,7.795-9.455,5.2-6.351-4.186-7.795,7.65-18.4,4.908-8.877-2.31-6.063-8.444-5.2-10.032l28.509-.072Z" transform="translate(-8961.128 3329.862)" fill="#292852"/>
      <path id="Path_11856" data-name="Path 11856" d="M1212.765,575.5c-.072,0-2.237,3.537-3.609,5.7a4.985,4.985,0,0,1-2.887,2.237l-4.908,1.588-3.031,6.207a2.434,2.434,0,0,1,2.454,2.454h0v.505h-5.052a1.756,1.756,0,0,1-1.732-1.732,2.112,2.112,0,0,1,.144-.65l3.392-8.805a3.818,3.818,0,0,1,2.454-2.021l1.443-.361L1198.4,572.9" transform="translate(-9013.043 3324.548)" fill="#ff8f2f"/>
      <path id="Path_11857" data-name="Path 11857" d="M1119.9,551.2" transform="translate(-8866.642 3330.586)" fill="none" stroke="#292852" stroke-linecap="round" stroke-linejoin="round" stroke-width="1.17"/>
      <path id="Path_11858" data-name="Path 11858" d="M1112.01,567.333l-1.8-.433-.505,1.949,1.949.433Z" transform="translate(-8851.388 3326.217)" fill="#ffbf61"/>
      <path id="Path_11859" data-name="Path 11859" d="M1098.8,576.4h22.807l-3.825,20.57h-15.156Z" transform="translate(-8853.121 3323.574)" fill="#fc5a81"/>
      <path id="Path_11860" data-name="Path 11860" d="M1110.231,591.708a11.3,11.3,0,0,0,11.331-11.331h0V578.5a.543.543,0,0,0-.361-.505c-.217-.072-.433.144-.505.361v2.021a10.465,10.465,0,1,1-20.931,0V578.5a.393.393,0,0,0-.505-.361.341.341,0,0,0-.361.361v1.877a11.351,11.351,0,0,0,11.331,11.331Z" transform="translate(-8853.148 3323.134)" fill="#c7e5f2"/>
      <circle id="Ellipse_716" data-name="Ellipse 716" cx="3.103" cy="3.103" r="3.103" transform="translate(-7747.319 3897.52)" fill="#fff"/>
      <circle id="Ellipse_717" data-name="Ellipse 717" cx="1.516" cy="1.516" r="1.516" transform="translate(-7742.555 3898.458)" fill="#fff"/>
      <path id="Path_11861" data-name="Path 11861" d="M1388.5,520.4a65.663,65.663,0,0,1,37.17,59.183H1388.5Z" transform="translate(-9366.327 3339.156)" fill="#7ee0ca"/>
      <rect id="Rectangle_3991" data-name="Rectangle 3991" width="13.424" height="4.619" transform="translate(-7736.707 3915.924)" fill="#ffbf61"/>
      <path id="Path_11862" data-name="Path 11862" d="M1116.5,587.421h198.7c11.837,0,17.25-10.9,22.085-20.5,3.32-6.568,6.568-13.136,11.115-14.724a.551.551,0,0,0,.144.361,1.914,1.914,0,0,0,1.443.866h-.072c-4.4.722-7.795,7.434-11.187,14.218-5.052,10.032-10.682,21.364-23.529,21.364H1116.5Z" transform="translate(-9094.327 3330.308)" fill="#53d5db"/>
      <path id="Path_11863" data-name="Path 11863" d="M1212.061,523.366a.341.341,0,0,0,.361-.361v-8.444a.361.361,0,1,0-.722,0v8.444A.387.387,0,0,0,1212.061,523.366Z" transform="translate(-9025.475 3340.881)" fill="#2d95e5"/>
      <path id="Path_11864" data-name="Path 11864" d="M1117.3,546.2s-.144,5.557-2.815,5.918-2.887-2.67-2.887-2.67" transform="translate(-8858.053 3331.977)" fill="none" stroke="#292852" stroke-linecap="round" stroke-linejoin="round" stroke-width="1"/>
    </g>
  </g>
</svg>
