<svg xmlns="http://www.w3.org/2000/svg" width="50" height="50.001" viewBox="0 0 50 50.001">
  <g id="Group_6870" data-name="Group 6870" transform="translate(-167.955 -35.864)">
    <path id="Path_13473" data-name="Path 13473" d="M0,0H50V50H0Z" transform="translate(167.955 35.864)" fill="none"/>
    <path id="Path_12444" data-name="Path 12444" d="M209.273,36.233a.464.464,0,0,0,.79-.369h-.923A.461.461,0,0,0,209.273,36.233Z" fill="#8fd8f2"/>
    <path id="Path_12445" data-name="Path 12445" d="M201.268,44.7a.463.463,0,1,0-.328-.136A.461.461,0,0,0,201.268,44.7Z" fill="#8fd8f2"/>
    <path id="Path_12446" data-name="Path 12446" d="M217.607,43.911a.463.463,0,0,0,.348.79v-.925A.46.46,0,0,0,217.607,43.911Z" fill="#8fd8f2"/>
    <circle id="Ellipse_925" data-name="Ellipse 925" cx="0.484" cy="0.484" r="0.484" transform="translate(209.118 43.755)" fill="#8fd8f2"/>
    <circle id="Ellipse_926" data-name="Ellipse 926" cx="0.484" cy="0.484" r="0.484" transform="translate(215.446 37.426)" fill="#8fd8f2"/>
    <path id="Path_12447" data-name="Path 12447" d="M217.593,36.247a.478.478,0,0,0,.362.141v-.524h-.5A.481.481,0,0,0,217.593,36.247Z" fill="#8fd8f2"/>
    <circle id="Ellipse_927" data-name="Ellipse 927" cx="0.484" cy="0.484" r="0.484" transform="translate(202.789 50.083)" fill="#8fd8f2"/>
    <path id="Path_12448" data-name="Path 12448" d="M216.272,46.462a.484.484,0,1,0-.684,0A.483.483,0,0,0,216.272,46.462Z" fill="#8fd8f2"/>
    <circle id="Ellipse_928" data-name="Ellipse 928" cx="0.484" cy="0.484" r="0.484" transform="translate(210.999 50.083)" fill="#8fd8f2"/>
    <circle id="Ellipse_929" data-name="Ellipse 929" cx="0.968" cy="0.968" r="0.968" transform="translate(212.739 39.166)" fill="#8fd8f2"/>
    <circle id="Ellipse_930" data-name="Ellipse 930" cx="0.968" cy="0.968" r="0.968" transform="translate(204.529 47.376)" fill="#8fd8f2"/>
    <circle id="Ellipse_931" data-name="Ellipse 931" cx="0.968" cy="0.968" r="0.968" transform="translate(212.739 47.376)" fill="#8fd8f2"/>
    <circle id="Ellipse_932" data-name="Ellipse 932" cx="0.484" cy="0.484" r="0.484" transform="translate(207.236 37.426)" fill="#8fd8f2"/>
    <path id="Path_12449" data-name="Path 12449" d="M203.615,42.7a.484.484,0,1,0-.684,0A.483.483,0,0,0,203.615,42.7Z" fill="#8fd8f2"/>
    <path id="Path_12450" data-name="Path 12450" d="M207.943,46.581a.484.484,0,1,0-.684,0A.483.483,0,0,0,207.943,46.581Z" fill="#8fd8f2"/>
    <path id="Path_12451" data-name="Path 12451" d="M211.928,42.6a.484.484,0,1,0-.684,0A.483.483,0,0,0,211.928,42.6Z" fill="#8fd8f2"/>
    <circle id="Ellipse_933" data-name="Ellipse 933" cx="0.968" cy="0.968" r="0.968" transform="translate(204.529 39.166)" fill="#8fd8f2"/>
    <circle id="Ellipse_934" data-name="Ellipse 934" cx="0.464" cy="0.464" r="0.464" transform="translate(209.138 52.108)" fill="#8fd8f2"/>
    <path id="Path_12452" data-name="Path 12452" d="M201.268,60.441a.464.464,0,1,0,.328.136A.465.465,0,0,0,201.268,60.441Z" fill="#8fd8f2"/>
    <path id="Path_12453" data-name="Path 12453" d="M217.607,60.577a.463.463,0,0,0,.348.791v-.926A.463.463,0,0,0,217.607,60.577Z" fill="#8fd8f2"/>
    <circle id="Ellipse_935" data-name="Ellipse 935" cx="0.484" cy="0.484" r="0.484" transform="translate(209.118 60.421)" fill="#8fd8f2"/>
    <circle id="Ellipse_936" data-name="Ellipse 936" cx="0.484" cy="0.484" r="0.484" transform="translate(215.446 54.093)" fill="#8fd8f2"/>
    <path id="Path_12454" data-name="Path 12454" d="M217.593,52.23a.483.483,0,0,0,.362.825v-.966A.478.478,0,0,0,217.593,52.23Z" fill="#8fd8f2"/>
    <circle id="Ellipse_937" data-name="Ellipse 937" cx="0.484" cy="0.484" r="0.484" transform="translate(202.789 66.75)" fill="#8fd8f2"/>
    <path id="Path_12455" data-name="Path 12455" d="M216.272,63.129a.484.484,0,1,0-.684,0A.485.485,0,0,0,216.272,63.129Z" fill="#8fd8f2"/>
    <circle id="Ellipse_938" data-name="Ellipse 938" cx="0.484" cy="0.484" r="0.484" transform="translate(210.999 66.75)" fill="#8fd8f2"/>
    <circle id="Ellipse_939" data-name="Ellipse 939" cx="0.968" cy="0.968" r="0.968" transform="translate(212.739 55.833)" fill="#8fd8f2"/>
    <circle id="Ellipse_940" data-name="Ellipse 940" cx="0.968" cy="0.968" r="0.968" transform="translate(204.529 64.043)" fill="#8fd8f2"/>
    <circle id="Ellipse_941" data-name="Ellipse 941" cx="0.968" cy="0.968" r="0.968" transform="translate(212.739 64.043)" fill="#8fd8f2"/>
    <circle id="Ellipse_942" data-name="Ellipse 942" cx="0.484" cy="0.484" r="0.484" transform="translate(207.236 54.093)" fill="#8fd8f2"/>
    <circle id="Ellipse_943" data-name="Ellipse 943" cx="0.484" cy="0.484" r="0.484" transform="translate(202.789 58.54)" fill="#8fd8f2"/>
    <path id="Path_12456" data-name="Path 12456" d="M207.943,63.248a.484.484,0,1,0-.684,0A.483.483,0,0,0,207.943,63.248Z" fill="#8fd8f2"/>
    <path id="Path_12457" data-name="Path 12457" d="M211.244,58.578a.484.484,0,1,0,.684,0A.483.483,0,0,0,211.244,58.578Z" fill="#8fd8f2"/>
    <circle id="Ellipse_944" data-name="Ellipse 944" cx="0.968" cy="0.968" r="0.968" transform="translate(204.529 55.833)" fill="#8fd8f2"/>
    <circle id="Ellipse_945" data-name="Ellipse 945" cx="0.464" cy="0.464" r="0.464" transform="translate(209.138 68.775)" fill="#8fd8f2"/>
    <path id="Path_12458" data-name="Path 12458" d="M209.273,85.577a.459.459,0,0,0-.133.287h.923a.464.464,0,0,0-.79-.287Z" fill="#8fd8f2"/>
    <path id="Path_12459" data-name="Path 12459" d="M201.268,77.108a.464.464,0,1,0,.328.136A.461.461,0,0,0,201.268,77.108Z" fill="#8fd8f2"/>
    <path id="Path_12460" data-name="Path 12460" d="M217.607,77.244a.463.463,0,0,0,.348.791v-.926A.463.463,0,0,0,217.607,77.244Z" fill="#8fd8f2"/>
    <circle id="Ellipse_946" data-name="Ellipse 946" cx="0.484" cy="0.484" r="0.484" transform="translate(209.118 77.088)" fill="#8fd8f2"/>
    <circle id="Ellipse_947" data-name="Ellipse 947" cx="0.484" cy="0.484" r="0.484" transform="translate(215.446 70.76)" fill="#8fd8f2"/>
    <path id="Path_12461" data-name="Path 12461" d="M217.593,68.9a.483.483,0,0,0,.362.825v-.965A.481.481,0,0,0,217.593,68.9Z" fill="#8fd8f2"/>
    <path id="Path_12462" data-name="Path 12462" d="M217.593,85.563a.48.48,0,0,0-.14.3h.5v-.442A.481.481,0,0,0,217.593,85.563Z" fill="#8fd8f2"/>
    <circle id="Ellipse_948" data-name="Ellipse 948" cx="0.484" cy="0.484" r="0.484" transform="translate(202.789 83.416)" fill="#8fd8f2"/>
    <path id="Path_12463" data-name="Path 12463" d="M216.272,79.795a.484.484,0,1,0-.684,0A.483.483,0,0,0,216.272,79.795Z" fill="#8fd8f2"/>
    <circle id="Ellipse_949" data-name="Ellipse 949" cx="0.484" cy="0.484" r="0.484" transform="translate(210.999 83.416)" fill="#8fd8f2"/>
    <circle id="Ellipse_950" data-name="Ellipse 950" cx="0.968" cy="0.968" r="0.968" transform="translate(212.739 72.499)" fill="#8fd8f2"/>
    <circle id="Ellipse_951" data-name="Ellipse 951" cx="0.968" cy="0.968" r="0.968" transform="translate(204.529 80.709)" fill="#8fd8f2"/>
    <circle id="Ellipse_952" data-name="Ellipse 952" cx="0.968" cy="0.968" r="0.968" transform="translate(212.739 80.709)" fill="#8fd8f2"/>
    <circle id="Ellipse_953" data-name="Ellipse 953" cx="0.484" cy="0.484" r="0.484" transform="translate(207.236 70.76)" fill="#8fd8f2"/>
    <circle id="Ellipse_954" data-name="Ellipse 954" cx="0.484" cy="0.484" r="0.484" transform="translate(202.789 75.207)" fill="#8fd8f2"/>
    <path id="Path_12464" data-name="Path 12464" d="M207.943,79.915a.484.484,0,1,0-.684,0A.485.485,0,0,0,207.943,79.915Z" fill="#8fd8f2"/>
    <path id="Path_12465" data-name="Path 12465" d="M211.244,75.245a.484.484,0,1,0,.684,0A.483.483,0,0,0,211.244,75.245Z" fill="#8fd8f2"/>
    <circle id="Ellipse_955" data-name="Ellipse 955" cx="0.968" cy="0.968" r="0.968" transform="translate(204.529 72.499)" fill="#8fd8f2"/>
    <path id="Path_12466" data-name="Path 12466" d="M192.607,36.233a.463.463,0,0,0,.789-.369h-.923A.462.462,0,0,0,192.607,36.233Z" fill="#8fd8f2"/>
    <path id="Path_12467" data-name="Path 12467" d="M184.6,44.7a.463.463,0,1,0-.328-.136A.459.459,0,0,0,184.6,44.7Z" fill="#8fd8f2"/>
    <circle id="Ellipse_956" data-name="Ellipse 956" cx="0.484" cy="0.484" r="0.484" transform="translate(192.451 43.755)" fill="#8fd8f2"/>
    <circle id="Ellipse_957" data-name="Ellipse 957" cx="0.484" cy="0.484" r="0.484" transform="translate(198.779 37.426)" fill="#8fd8f2"/>
    <path id="Path_12468" data-name="Path 12468" d="M200.926,36.247a.483.483,0,0,0,.684,0,.485.485,0,0,0,.14-.383h-.964A.481.481,0,0,0,200.926,36.247Z" fill="#8fd8f2"/>
    <circle id="Ellipse_958" data-name="Ellipse 958" cx="0.484" cy="0.484" r="0.484" transform="translate(186.123 50.083)" fill="#8fd8f2"/>
    <path id="Path_12469" data-name="Path 12469" d="M199.6,46.462a.484.484,0,1,0-.684,0A.483.483,0,0,0,199.6,46.462Z" fill="#8fd8f2"/>
    <circle id="Ellipse_959" data-name="Ellipse 959" cx="0.484" cy="0.484" r="0.484" transform="translate(194.332 50.083)" fill="#8fd8f2"/>
    <circle id="Ellipse_960" data-name="Ellipse 960" cx="0.968" cy="0.968" r="0.968" transform="translate(196.072 39.166)" fill="#8fd8f2"/>
    <circle id="Ellipse_961" data-name="Ellipse 961" cx="0.968" cy="0.968" r="0.968" transform="translate(187.862 47.376)" fill="#8fd8f2"/>
    <circle id="Ellipse_962" data-name="Ellipse 962" cx="0.968" cy="0.968" r="0.968" transform="translate(196.072 47.376)" fill="#8fd8f2"/>
    <circle id="Ellipse_963" data-name="Ellipse 963" cx="0.484" cy="0.484" r="0.484" transform="translate(190.569 37.426)" fill="#8fd8f2"/>
    <circle id="Ellipse_964" data-name="Ellipse 964" cx="0.484" cy="0.484" r="0.484" transform="translate(186.123 41.873)" fill="#8fd8f2"/>
    <path id="Path_12470" data-name="Path 12470" d="M191.276,46.581a.484.484,0,1,0-.684,0A.483.483,0,0,0,191.276,46.581Z" fill="#8fd8f2"/>
    <path id="Path_12471" data-name="Path 12471" d="M195.262,42.6a.484.484,0,1,0-.685,0A.485.485,0,0,0,195.262,42.6Z" fill="#8fd8f2"/>
    <circle id="Ellipse_965" data-name="Ellipse 965" cx="0.968" cy="0.968" r="0.968" transform="translate(187.862 39.166)" fill="#8fd8f2"/>
    <circle id="Ellipse_966" data-name="Ellipse 966" cx="0.464" cy="0.464" r="0.464" transform="translate(192.471 52.108)" fill="#8fd8f2"/>
    <path id="Path_12472" data-name="Path 12472" d="M184.6,60.441a.464.464,0,0,0,0,.928.459.459,0,0,0,.328-.136.464.464,0,0,0-.328-.792Z" fill="#8fd8f2"/>
    <circle id="Ellipse_967" data-name="Ellipse 967" cx="0.484" cy="0.484" r="0.484" transform="translate(192.451 60.421)" fill="#8fd8f2"/>
    <circle id="Ellipse_968" data-name="Ellipse 968" cx="0.484" cy="0.484" r="0.484" transform="translate(198.779 54.093)" fill="#8fd8f2"/>
    <path id="Path_12473" data-name="Path 12473" d="M201.268,53.056a.484.484,0,1,0-.342-.142A.483.483,0,0,0,201.268,53.056Z" fill="#8fd8f2"/>
    <circle id="Ellipse_969" data-name="Ellipse 969" cx="0.484" cy="0.484" r="0.484" transform="translate(186.123 66.75)" fill="#8fd8f2"/>
    <path id="Path_12474" data-name="Path 12474" d="M199.6,63.129a.484.484,0,1,0-.684,0A.485.485,0,0,0,199.6,63.129Z" fill="#8fd8f2"/>
    <circle id="Ellipse_970" data-name="Ellipse 970" cx="0.484" cy="0.484" r="0.484" transform="translate(194.332 66.75)" fill="#8fd8f2"/>
    <circle id="Ellipse_971" data-name="Ellipse 971" cx="0.968" cy="0.968" r="0.968" transform="translate(196.072 55.833)" fill="#8fd8f2"/>
    <circle id="Ellipse_972" data-name="Ellipse 972" cx="0.968" cy="0.968" r="0.968" transform="translate(187.862 64.043)" fill="#8fd8f2"/>
    <circle id="Ellipse_973" data-name="Ellipse 973" cx="0.968" cy="0.968" r="0.968" transform="translate(196.072 64.043)" fill="#8fd8f2"/>
    <circle id="Ellipse_974" data-name="Ellipse 974" cx="0.484" cy="0.484" r="0.484" transform="translate(190.569 54.093)" fill="#8fd8f2"/>
    <circle id="Ellipse_975" data-name="Ellipse 975" cx="0.484" cy="0.484" r="0.484" transform="translate(186.123 58.54)" fill="#8fd8f2"/>
    <path id="Path_12475" data-name="Path 12475" d="M191.276,63.248a.484.484,0,1,0-.684,0A.483.483,0,0,0,191.276,63.248Z" fill="#8fd8f2"/>
    <path id="Path_12476" data-name="Path 12476" d="M194.577,58.578a.484.484,0,1,0,.685,0A.483.483,0,0,0,194.577,58.578Z" fill="#8fd8f2"/>
    <circle id="Ellipse_976" data-name="Ellipse 976" cx="0.968" cy="0.968" r="0.968" transform="translate(187.862 55.833)" fill="#8fd8f2"/>
    <circle id="Ellipse_977" data-name="Ellipse 977" cx="0.464" cy="0.464" r="0.464" transform="translate(192.471 68.775)" fill="#8fd8f2"/>
    <path id="Path_12477" data-name="Path 12477" d="M192.607,85.577a.46.46,0,0,0-.134.287h.923a.463.463,0,0,0-.789-.287Z" fill="#8fd8f2"/>
    <path id="Path_12478" data-name="Path 12478" d="M184.6,77.108a.464.464,0,1,0,.328.136A.463.463,0,0,0,184.6,77.108Z" fill="#8fd8f2"/>
    <circle id="Ellipse_978" data-name="Ellipse 978" cx="0.484" cy="0.484" r="0.484" transform="translate(192.451 77.088)" fill="#8fd8f2"/>
    <circle id="Ellipse_979" data-name="Ellipse 979" cx="0.484" cy="0.484" r="0.484" transform="translate(198.779 70.76)" fill="#8fd8f2"/>
    <path id="Path_12479" data-name="Path 12479" d="M201.268,69.722a.483.483,0,1,0-.342-.141A.482.482,0,0,0,201.268,69.722Z" fill="#8fd8f2"/>
    <path id="Path_12480" data-name="Path 12480" d="M201.268,85.421a.484.484,0,0,0-.482.443h.964a.484.484,0,0,0-.482-.443Z" fill="#8fd8f2"/>
    <circle id="Ellipse_980" data-name="Ellipse 980" cx="0.484" cy="0.484" r="0.484" transform="translate(186.123 83.416)" fill="#8fd8f2"/>
    <circle id="Ellipse_981" data-name="Ellipse 981" cx="0.484" cy="0.484" r="0.484" transform="translate(198.779 78.969)" fill="#8fd8f2"/>
    <circle id="Ellipse_982" data-name="Ellipse 982" cx="0.484" cy="0.484" r="0.484" transform="translate(194.332 83.416)" fill="#8fd8f2"/>
    <circle id="Ellipse_983" data-name="Ellipse 983" cx="0.968" cy="0.968" r="0.968" transform="translate(196.072 72.499)" fill="#8fd8f2"/>
    <circle id="Ellipse_984" data-name="Ellipse 984" cx="0.968" cy="0.968" r="0.968" transform="translate(187.862 80.709)" fill="#8fd8f2"/>
    <circle id="Ellipse_985" data-name="Ellipse 985" cx="0.968" cy="0.968" r="0.968" transform="translate(196.072 80.709)" fill="#8fd8f2"/>
    <circle id="Ellipse_986" data-name="Ellipse 986" cx="0.484" cy="0.484" r="0.484" transform="translate(190.569 70.76)" fill="#8fd8f2"/>
    <circle id="Ellipse_987" data-name="Ellipse 987" cx="0.484" cy="0.484" r="0.484" transform="translate(186.123 75.207)" fill="#8fd8f2"/>
    <path id="Path_12481" data-name="Path 12481" d="M191.276,79.915a.484.484,0,1,0-.684,0A.485.485,0,0,0,191.276,79.915Z" fill="#8fd8f2"/>
    <path id="Path_12482" data-name="Path 12482" d="M194.577,75.245a.484.484,0,1,0,.685,0A.483.483,0,0,0,194.577,75.245Z" fill="#8fd8f2"/>
    <circle id="Ellipse_988" data-name="Ellipse 988" cx="0.968" cy="0.968" r="0.968" transform="translate(187.862 72.499)" fill="#8fd8f2"/>
    <path id="Path_12483" data-name="Path 12483" d="M175.94,36.233a.464.464,0,0,0,.79-.369h-.924A.462.462,0,0,0,175.94,36.233Z" fill="#8fd8f2"/>
    <path id="Path_12484" data-name="Path 12484" d="M168.263,43.911a.461.461,0,0,0-.308-.135V44.7a.463.463,0,0,0,.308-.79Z" fill="#8fd8f2"/>
    <circle id="Ellipse_989" data-name="Ellipse 989" cx="0.484" cy="0.484" r="0.484" transform="translate(175.784 43.755)" fill="#8fd8f2"/>
    <circle id="Ellipse_990" data-name="Ellipse 990" cx="0.484" cy="0.484" r="0.484" transform="translate(182.113 37.426)" fill="#8fd8f2"/>
    <path id="Path_12485" data-name="Path 12485" d="M184.259,36.247a.484.484,0,0,0,.824-.383h-.963A.48.48,0,0,0,184.259,36.247Z" fill="#8fd8f2"/>
    <path id="Path_12486" data-name="Path 12486" d="M168.416,35.864h-.461v.524a.482.482,0,0,0,.461-.524Z" fill="#8fd8f2"/>
    <path id="Path_12487" data-name="Path 12487" d="M170.282,50.909a.484.484,0,1,0-.684,0A.483.483,0,0,0,170.282,50.909Z" fill="#8fd8f2"/>
    <path id="Path_12488" data-name="Path 12488" d="M182.938,46.462a.484.484,0,1,0-.684,0A.483.483,0,0,0,182.938,46.462Z" fill="#8fd8f2"/>
    <circle id="Ellipse_991" data-name="Ellipse 991" cx="0.484" cy="0.484" r="0.484" transform="translate(177.666 50.083)" fill="#8fd8f2"/>
    <circle id="Ellipse_992" data-name="Ellipse 992" cx="0.968" cy="0.968" r="0.968" transform="translate(179.405 39.166)" fill="#8fd8f2"/>
    <circle id="Ellipse_993" data-name="Ellipse 993" cx="0.968" cy="0.968" r="0.968" transform="translate(171.196 47.376)" fill="#8fd8f2"/>
    <circle id="Ellipse_994" data-name="Ellipse 994" cx="0.968" cy="0.968" r="0.968" transform="translate(179.405 47.376)" fill="#8fd8f2"/>
    <path id="Path_12489" data-name="Path 12489" d="M174.729,38.252a.484.484,0,1,0-.685,0A.483.483,0,0,0,174.729,38.252Z" fill="#8fd8f2"/>
    <circle id="Ellipse_995" data-name="Ellipse 995" cx="0.484" cy="0.484" r="0.484" transform="translate(169.456 41.873)" fill="#8fd8f2"/>
    <path id="Path_12490" data-name="Path 12490" d="M174.609,46.581a.484.484,0,1,0-.684,0A.483.483,0,0,0,174.609,46.581Z" fill="#8fd8f2"/>
    <path id="Path_12491" data-name="Path 12491" d="M178.6,42.6a.484.484,0,1,0-.684,0A.483.483,0,0,0,178.6,42.6Z" fill="#8fd8f2"/>
    <circle id="Ellipse_996" data-name="Ellipse 996" cx="0.968" cy="0.968" r="0.968" transform="translate(171.196 39.166)" fill="#8fd8f2"/>
    <circle id="Ellipse_997" data-name="Ellipse 997" cx="0.464" cy="0.464" r="0.464" transform="translate(175.804 52.108)" fill="#8fd8f2"/>
    <path id="Path_12492" data-name="Path 12492" d="M168.263,60.577a.466.466,0,0,0-.308-.135v.926a.463.463,0,0,0,.308-.791Z" fill="#8fd8f2"/>
    <circle id="Ellipse_998" data-name="Ellipse 998" cx="0.484" cy="0.484" r="0.484" transform="translate(175.784 60.421)" fill="#8fd8f2"/>
    <circle id="Ellipse_999" data-name="Ellipse 999" cx="0.484" cy="0.484" r="0.484" transform="translate(182.113 54.093)" fill="#8fd8f2"/>
    <path id="Path_12493" data-name="Path 12493" d="M184.6,53.056a.484.484,0,1,0-.342-.142A.483.483,0,0,0,184.6,53.056Z" fill="#8fd8f2"/>
    <path id="Path_12494" data-name="Path 12494" d="M168.277,52.23a.483.483,0,0,0-.322-.141v.966a.483.483,0,0,0,.322-.825Z" fill="#8fd8f2"/>
    <path id="Path_12495" data-name="Path 12495" d="M170.282,67.576a.484.484,0,1,0-.684,0A.485.485,0,0,0,170.282,67.576Z" fill="#8fd8f2"/>
    <path id="Path_12496" data-name="Path 12496" d="M182.938,63.129a.484.484,0,1,0-.684,0A.485.485,0,0,0,182.938,63.129Z" fill="#8fd8f2"/>
    <circle id="Ellipse_1000" data-name="Ellipse 1000" cx="0.484" cy="0.484" r="0.484" transform="translate(177.666 66.75)" fill="#8fd8f2"/>
    <circle id="Ellipse_1001" data-name="Ellipse 1001" cx="0.968" cy="0.968" r="0.968" transform="translate(179.405 55.833)" fill="#8fd8f2"/>
    <circle id="Ellipse_1002" data-name="Ellipse 1002" cx="0.968" cy="0.968" r="0.968" transform="translate(171.196 64.043)" fill="#8fd8f2"/>
    <circle id="Ellipse_1003" data-name="Ellipse 1003" cx="0.968" cy="0.968" r="0.968" transform="translate(179.405 64.043)" fill="#8fd8f2"/>
    <path id="Path_12497" data-name="Path 12497" d="M174.044,54.235a.484.484,0,1,0,.685,0A.485.485,0,0,0,174.044,54.235Z" fill="#8fd8f2"/>
    <path id="Path_12498" data-name="Path 12498" d="M170.282,59.366a.484.484,0,1,0-.684,0A.483.483,0,0,0,170.282,59.366Z" fill="#8fd8f2"/>
    <path id="Path_12499" data-name="Path 12499" d="M174.609,63.248a.484.484,0,1,0-.684,0A.483.483,0,0,0,174.609,63.248Z" fill="#8fd8f2"/>
    <path id="Path_12500" data-name="Path 12500" d="M177.911,58.578a.484.484,0,1,0,.684,0A.483.483,0,0,0,177.911,58.578Z" fill="#8fd8f2"/>
    <circle id="Ellipse_1004" data-name="Ellipse 1004" cx="0.968" cy="0.968" r="0.968" transform="translate(171.196 55.833)" fill="#8fd8f2"/>
    <circle id="Ellipse_1005" data-name="Ellipse 1005" cx="0.464" cy="0.464" r="0.464" transform="translate(175.804 68.775)" fill="#8fd8f2"/>
    <path id="Path_12501" data-name="Path 12501" d="M175.94,85.577a.466.466,0,0,0-.134.287h.924a.464.464,0,0,0-.79-.287Z" fill="#8fd8f2"/>
    <path id="Path_12502" data-name="Path 12502" d="M168.263,77.244a.466.466,0,0,0-.308-.135v.926a.463.463,0,0,0,.308-.791Z" fill="#8fd8f2"/>
    <circle id="Ellipse_1006" data-name="Ellipse 1006" cx="0.484" cy="0.484" r="0.484" transform="translate(175.784 77.088)" fill="#8fd8f2"/>
    <circle id="Ellipse_1007" data-name="Ellipse 1007" cx="0.484" cy="0.484" r="0.484" transform="translate(182.113 70.76)" fill="#8fd8f2"/>
    <path id="Path_12503" data-name="Path 12503" d="M184.6,69.722a.483.483,0,1,0-.342-.141A.482.482,0,0,0,184.6,69.722Z" fill="#8fd8f2"/>
    <path id="Path_12504" data-name="Path 12504" d="M168.277,68.9a.482.482,0,0,0-.322-.14v.965a.483.483,0,0,0,.322-.825Z" fill="#8fd8f2"/>
    <path id="Path_12505" data-name="Path 12505" d="M184.6,85.421a.485.485,0,0,0-.342.142.479.479,0,0,0-.139.3h.963a.484.484,0,0,0-.482-.443Z" fill="#8fd8f2"/>
    <path id="Path_12506" data-name="Path 12506" d="M168.277,85.563a.483.483,0,0,0-.322-.141v.442h.461A.479.479,0,0,0,168.277,85.563Z" fill="#8fd8f2"/>
    <path id="Path_12507" data-name="Path 12507" d="M170.282,84.242a.484.484,0,1,0-.684,0A.483.483,0,0,0,170.282,84.242Z" fill="#8fd8f2"/>
    <path id="Path_12508" data-name="Path 12508" d="M182.938,79.795a.484.484,0,1,0-.684,0A.483.483,0,0,0,182.938,79.795Z" fill="#8fd8f2"/>
    <circle id="Ellipse_1008" data-name="Ellipse 1008" cx="0.484" cy="0.484" r="0.484" transform="translate(177.666 83.416)" fill="#8fd8f2"/>
    <circle id="Ellipse_1009" data-name="Ellipse 1009" cx="0.968" cy="0.968" r="0.968" transform="translate(179.405 72.499)" fill="#8fd8f2"/>
    <circle id="Ellipse_1010" data-name="Ellipse 1010" cx="0.968" cy="0.968" r="0.968" transform="translate(171.196 80.709)" fill="#8fd8f2"/>
    <circle id="Ellipse_1011" data-name="Ellipse 1011" cx="0.968" cy="0.968" r="0.968" transform="translate(179.405 80.709)" fill="#8fd8f2"/>
    <path id="Path_12509" data-name="Path 12509" d="M174.044,70.9a.484.484,0,1,0,.685,0A.486.486,0,0,0,174.044,70.9Z" fill="#8fd8f2"/>
    <path id="Path_12510" data-name="Path 12510" d="M170.282,76.033a.484.484,0,1,0-.684,0A.485.485,0,0,0,170.282,76.033Z" fill="#8fd8f2"/>
    <path id="Path_12511" data-name="Path 12511" d="M174.609,79.915a.484.484,0,1,0-.684,0A.485.485,0,0,0,174.609,79.915Z" fill="#8fd8f2"/>
    <path id="Path_12512" data-name="Path 12512" d="M177.911,75.245a.484.484,0,1,0,.684,0A.483.483,0,0,0,177.911,75.245Z" fill="#8fd8f2"/>
    <circle id="Ellipse_1012" data-name="Ellipse 1012" cx="0.968" cy="0.968" r="0.968" transform="translate(171.196 72.499)" fill="#8fd8f2"/>
  </g>
</svg>
