<svg id="Layer_1" data-name="Layer 1" xmlns="http://www.w3.org/2000/svg" viewBox="0 0 29.11 26.74"><defs><style>.cls-1{fill:#fff;}</style></defs><title>error</title><path class="cls-1" d="M63.79,54.79,55,39.49a5.72,5.72,0,0,0-9.9,0l-8.84,15.3a5.73,5.73,0,0,0,5,8.58H58.83a5.63,5.63,0,0,0,2.86-.77A5.71,5.71,0,0,0,63.79,54.79Zm-5,7H41.17a4.12,4.12,0,0,1-3.57-6.18l8.83-15.3a4.12,4.12,0,0,1,7.14,0l8.83,15.3a4.12,4.12,0,0,1-3.57,6.18Z" transform="translate(-35.45 -36.63)"/><path class="cls-1" d="M50,55.21H50a1.15,1.15,0,0,0-1.13,1.16v0a1.19,1.19,0,0,0,2.37,0v-.08A1.15,1.15,0,0,0,50,55.21Z" transform="translate(-35.45 -36.63)"/><path class="cls-1" d="M50,53.48a1,1,0,0,0,1-1V44.73a1,1,0,1,0-2,0v7.75A1,1,0,0,0,50,53.48Z" transform="translate(-35.45 -36.63)"/></svg>