<svg xmlns="http://www.w3.org/2000/svg" width="18" height="16" viewBox="0 0 18 16">
  <path id="Alert" d="M17.649,12.657,11.128,1.194A2.675,2.675,0,0,0,8.954,0a2.732,2.732,0,0,0-2.3,1.194L.26,12.657a2.093,2.093,0,0,0,.128,2.269A2.565,2.565,0,0,0,2.561,16H15.475a2.675,2.675,0,0,0,2.174-1.194A1.888,1.888,0,0,0,17.649,12.657ZM7.676,5.493A1.17,1.17,0,0,1,8.954,4.3a1.17,1.17,0,0,1,1.279,1.194V8.836A1.17,1.17,0,0,1,8.954,10.03,1.17,1.17,0,0,1,7.676,8.836Zm1.279,8.716A1.317,1.317,0,1,1,10.361,12.9,1.374,1.374,0,0,1,8.954,14.209Z" transform="translate(0.014)" fill="#d61f5f"/>
</svg>
