<svg id="Layer_1" data-name="Layer 1" xmlns="http://www.w3.org/2000/svg" viewBox="0 0 18.51 19.11"><defs><style>.cls-1{fill:#fff;}</style></defs><title>flood</title><path class="cls-1" d="M41.62,44.65a6.25,6.25,0,0,0,4.19-2.06A6.25,6.25,0,0,0,50,44.65a6.25,6.25,0,0,0,4.19-2.06,6.25,6.25,0,0,0,4.19,2.06h0a.88.88,0,0,0,0-1.75c-1.38,0-2.68-1.18-3.53-2.16,0,0,0,0-.05,0l0-.05-.08,0a.75.75,0,0,0-.17-.1l-.14,0-.19,0-.14,0-.18,0-.14.08s-.07,0-.1.06,0,0,0,.05,0,0,0,0c-.85,1-2.15,2.16-3.53,2.16s-2.68-1.18-3.53-2.16c0,0,0,0-.06,0a.13.13,0,0,0,0-.05l-.08,0a.75.75,0,0,0-.17-.1l-.14,0-.19,0-.14,0-.18,0-.14.08a.53.53,0,0,0-.1.06l0,.05s0,0-.05,0c-.85,1-2.15,2.16-3.53,2.16a.88.88,0,1,0,0,1.75Z" transform="translate(-40.74 -40.45)"/><path class="cls-1" d="M41.62,52.11A6.21,6.21,0,0,0,45.81,50,6.21,6.21,0,0,0,50,52.11,6.21,6.21,0,0,0,54.19,50a6.21,6.21,0,0,0,4.19,2.07.88.88,0,1,0,0-1.75c-1.38,0-2.68-1.18-3.53-2.16l-.06-.05,0,0-.07,0a.81.81,0,0,0-.18-.1l-.14,0-.18,0-.17,0-.14,0a.64.64,0,0,0-.18.1l-.07,0s0,0,0,0l-.07.05c-.85,1-2.15,2.16-3.53,2.16s-2.68-1.18-3.53-2.16l-.06-.05,0,0-.07,0a.81.81,0,0,0-.18-.1l-.14,0-.18,0-.17,0-.14,0a.64.64,0,0,0-.18.1l-.07,0s0,0,0,0l-.07.05c-.85,1-2.15,2.16-3.53,2.16a.88.88,0,1,0,0,1.75Z" transform="translate(-40.74 -40.45)"/><path class="cls-1" d="M58.38,57.81c-1.38,0-2.68-1.17-3.53-2.15,0,0,0,0-.06,0l0,0-.07,0a.81.81,0,0,0-.18-.1l-.14,0-.18,0-.17,0-.14,0a1.08,1.08,0,0,0-.18.11l-.07,0s0,0,0,0a.2.2,0,0,0-.07.06c-.85,1-2.15,2.15-3.53,2.15s-2.68-1.17-3.53-2.15c0,0,0,0-.06,0l0,0-.07,0a.81.81,0,0,0-.18-.1l-.14,0-.18,0-.17,0-.14,0a1.08,1.08,0,0,0-.18.11l-.07,0s0,0,0,0a.2.2,0,0,0-.07.06c-.85,1-2.15,2.15-3.53,2.15a.88.88,0,1,0,0,1.75,6.2,6.2,0,0,0,4.19-2.06A6.2,6.2,0,0,0,50,59.56a6.2,6.2,0,0,0,4.19-2.06,6.2,6.2,0,0,0,4.19,2.06.88.88,0,1,0,0-1.75Z" transform="translate(-40.74 -40.45)"/></svg>