<svg xmlns="http://www.w3.org/2000/svg" viewBox="0 0 30.999 28.405">
  <defs>
    <style>
      .cls-1 {
        fill: #fff;
      }
    </style>
  </defs>
  <g id="Group_6428" data-name="Group 6428" transform="translate(0.001)">
    <path id="Path_8595" data-name="Path 8595" class="cls-1" d="M29.647,3.256a.841.841,0,1,0-1.5.761,10.847,10.847,0,0,1-1.9,12.463,11.22,11.22,0,0,1-6.187,3.233,8.277,8.277,0,0,0,4.184-7.182A12.531,12.531,0,0,0,.056,7.932a.855.855,0,0,0,.47,1.1.847.847,0,0,0,1.1-.481,10.828,10.828,0,0,1,17.99-3.435,8.325,8.325,0,0,0-1.88-.66c-.022,0-.034-.022-.056-.022a2.2,2.2,0,0,0-.269-.034,7.581,7.581,0,0,0-1.432-.145,8.262,8.262,0,0,0-3.558.817,11.344,11.344,0,0,0-1.846.906A12.438,12.438,0,0,0,4.721,16.759a12.59,12.59,0,0,0,8.234,11.59.84.84,0,0,0,.291.056.835.835,0,0,0,.28-1.622A10.91,10.91,0,0,1,6.4,16.737a10.707,10.707,0,0,1,1.41-5.5A8.086,8.086,0,0,0,9.387,17.52a.234.234,0,0,0,.045.067l.067.067a8.365,8.365,0,0,0,.917.973,7.022,7.022,0,0,0,1.376,1.141,12.286,12.286,0,0,0,6.41,1.768,12.918,12.918,0,0,0,9.252-3.9A12.5,12.5,0,0,0,29.647,3.256ZM15.976,19.131a6.559,6.559,0,0,1-4.419-1.712c-.28-.291-.548-.582-.772-.828a6.565,6.565,0,0,1,2.26-9.957,8.067,8.067,0,0,1,4.274-.548,6.592,6.592,0,0,1-1.343,13.045Z" transform="translate(0 0)"/>
    <path id="Path_8596" data-name="Path 8596" class="cls-1" d="M14.816,16.781a5.046,5.046,0,1,1,5.046-5.046A5.047,5.047,0,0,1,14.816,16.781Zm0-8.3a3.256,3.256,0,1,0,3.256,3.256A3.259,3.259,0,0,0,14.816,8.48Z" transform="translate(1.16 0.794)"/>
  </g>
</svg>
