<svg xmlns="http://www.w3.org/2000/svg" width="16" height="16" viewBox="0 0 16 16">
  <path id="Tool_Tip" d="M8,0a8,8,0,1,0,8,8A8.024,8.024,0,0,0,8,0Zm.8,11.5a.975.975,0,0,1-1.1,1,.975.975,0,0,1-1.1-1h0a.975.975,0,0,1,1.1-1,.975.975,0,0,1,1.1,1ZM10.9,6c0,1.5-1.1,2.2-2.4,2.4v.4a.669.669,0,0,1-.7.6H7.7A.749.749,0,0,1,7,8.8l-.1-1c0-.4.2-.7.6-.7C8.5,6.9,9,6.6,9,6H9c0-.5-.4-.9-1.1-.9a2.389,2.389,0,0,0-1.4.5.764.764,0,0,1-.5.2A.789.789,0,0,1,5.2,5a1.08,1.08,0,0,1,.3-.7A3.773,3.773,0,0,1,8,3.4c1.7,0,2.9.9,2.9,2.6Z" fill="#86318c"/>
</svg>
