<svg xmlns="http://www.w3.org/2000/svg" viewBox="0 0 16.3693 18.1655"><title>LogIn</title><path d="M16.2725,15.6943l-.002-.0068a5.787,5.787,0,0,0-4.958-3.5967c-.0439-.002-.19-.0078-.7988-.0117-.0635,0-.2627-.2237-.2627-.6114v-.621a5.79,5.79,0,0,0,1.6006-2.78,1.0489,1.0489,0,0,0,.2177-.1079,1.8687,1.8687,0,0,0,.7149-1.1958,1.811,1.811,0,0,0-.1309-1.3077,3.7318,3.7318,0,0,0,.2276-1.2939A3.17,3.17,0,0,0,10.6084.9331a3.0943,3.0943,0,0,0-.56-.0947A3.8532,3.8532,0,0,0,7.6821.0009,3.6691,3.6691,0,0,0,4.4536,1.5678,5.2975,5.2975,0,0,0,3.8657,5.25a1.5635,1.5635,0,0,0-.2866,1.4863,1.7061,1.7061,0,0,0,.936,1.3174A5.8142,5.8142,0,0,0,6.12,10.85v.6211c0,.373-.1894.6123-.2886.6133-.75.0068-.8286.0136-.85.0156A5.76,5.76,0,0,0,.0977,15.6963,1.4817,1.4817,0,0,0,0,16.2754c0,.69.8247,1.1455,2.6816,1.4765a33.059,33.059,0,0,0,5.1651.4073c.1108,0,.2221-.001.3325-.002a33.2984,33.2984,0,0,0,5.5122-.4063c1.85-.3291,2.6748-.7841,2.6738-1.4511A1.42,1.42,0,0,0,16.2725,15.6943ZM10.3174,1.937A2.14,2.14,0,0,1,11.835,4.1391a2.653,2.653,0,0,1-.0528.5576A2.2563,2.2563,0,0,0,9.7959,3.1352h-.001a1.4167,1.4167,0,0,0-.8755.3531,2.3506,2.3506,0,0,1-1.4375.4785h-.01c-.1294.0088-.252.0122-.3955.0136a1.504,1.504,0,0,1-.8287-.1665.9649.9649,0,0,0-.5112-.165,1.0528,1.0528,0,0,0-.9116.6475,4.5314,4.5314,0,0,1,.5288-2.18A2.56,2.56,0,0,1,7.6572,1.05a2.8241,2.8241,0,0,1,1.71.5805.9427.9427,0,0,0,.7314.272A.5682.5682,0,0,1,10.3174,1.937ZM5.375,6.3247a3.82,3.82,0,0,1,.3979-1.5684,2.45,2.45,0,0,0,1.3292.2769c.1347,0,.28-.0054.4106-.0152A3.3862,3.3862,0,0,0,9.58,4.3008a.4066.4066,0,0,1,.2265-.1128c.6016,0,1.1309.8012,1.2061,1.8266a.631.631,0,0,0,.6318.6289h.001a.5741.5741,0,0,0,.0938-.0117.8578.8578,0,0,1-.2266.4194.6557.6557,0,0,0-.3486.0845.6154.6154,0,0,0-.2735.398c-.4267,1.87-1.5146,3.1255-2.7085,3.1255-1.1894,0-2.2734-1.253-2.7016-3.12a.6008.6008,0,0,0-.2422-.393.5941.5941,0,0,0-.3843-.1A.5718.5718,0,0,1,4.76,6.9223.57.57,0,0,0,5.375,6.3247ZM7.1724,11.52a2.88,2.88,0,0,0,2.0288,0,1.604,1.604,0,0,0,1,1.5645,2.5247,2.5247,0,0,1-4.0323-.0049A1.61,1.61,0,0,0,7.1724,11.52Zm-.3951,3.3418a3.5663,3.5663,0,0,0,4.61-1.709,4.7671,4.7671,0,0,1,3.9014,2.92.6686.6686,0,0,1,.03.1231c-.4277.331-2.872.918-7.1333.918-4.2514,0-6.7-.587-7.1352-.919a.6356.6356,0,0,1,.0254-.1113A4.6553,4.6553,0,0,1,4.981,13.1523,3.5449,3.5449,0,0,0,6.7773,14.8613Z" transform="translate(0.001 0.0063)" style="fill:white"/></svg>