<svg id="Layer_1" data-name="Layer 1" xmlns="http://www.w3.org/2000/svg" viewBox="0 0 28.2 28.2"><defs><style>.cls-1{fill:#fff;}</style></defs><title>misc</title><path class="cls-1" d="M50,35.9A14.1,14.1,0,1,0,64.1,50,14.1,14.1,0,0,0,50,35.9Zm0,26.6A12.5,12.5,0,1,1,62.5,50,12.5,12.5,0,0,1,50,62.5Z" transform="translate(-35.9 -35.9)"/><path class="cls-1" d="M50,42.79a1.5,1.5,0,0,0-1.5,1.5v.1A1.46,1.46,0,0,0,50,45.81h.06a1.46,1.46,0,0,0,1.44-1.48v0A1.5,1.5,0,0,0,50,42.79Z" transform="translate(-35.9 -35.9)"/><path class="cls-1" d="M50,47.48a1.12,1.12,0,0,0-1.12,1.13v8.18a1.13,1.13,0,1,0,2.25,0V48.61A1.13,1.13,0,0,0,50,47.48Z" transform="translate(-35.9 -35.9)"/></svg>