<svg xmlns="http://www.w3.org/2000/svg" width="150" height="150" viewBox="0 0 150 150"><title>MoreChoices</title><path d="M61.78132,69.109a7.32769,7.32769,0,1,1,7.32783-7.32769A7.33606,7.33606,0,0,1,61.78132,69.109Z" fill="#ffa452"/><path d="M61.78132,95.54636a7.32769,7.32769,0,1,1,7.32783-7.32768A7.33605,7.33605,0,0,1,61.78132,95.54636Z" fill="#7ee0ca"/><path d="M88.21868,95.54636a7.32769,7.32769,0,1,1,7.32783-7.32768A7.33605,7.33605,0,0,1,88.21868,95.54636Z" fill="#ffcc8f"/><path d="M88.21856,69.109a7.32769,7.32769,0,1,1,7.32783-7.32769A7.33606,7.33606,0,0,1,88.21856,69.109Z" fill="#8fd8f2"/><path d="M61.78132,69.109a7.32769,7.32769,0,1,1,7.32783-7.32769A7.33606,7.33606,0,0,1,61.78132,69.109Z" fill="#ffa452" stroke="#2d2d2d"/><path d="M61.78132,95.54636a7.32769,7.32769,0,1,1,7.32783-7.32768A7.33605,7.33605,0,0,1,61.78132,95.54636Z" fill="#7ee0ca" stroke="#2d2d2d"/><path d="M88.21868,95.54636a7.32769,7.32769,0,1,1,7.32783-7.32768A7.33605,7.33605,0,0,1,88.21868,95.54636Z" fill="#ffcc8f" stroke="#2d2d2d"/><path d="M88.21856,69.109a7.32769,7.32769,0,1,1,7.32783-7.32769A7.33606,7.33606,0,0,1,88.21856,69.109Z" fill="#8fd8f2" stroke="#2d2d2d"/></svg>