<svg xmlns="http://www.w3.org/2000/svg" xmlns:xlink="http://www.w3.org/1999/xlink" width="440.711" height="460.966" viewBox="0 0 440.711 460.966"><defs><clipPath id="a"><path d="M1621.876,468.939H1475.095l80.864,91.211H1702.74Z" transform="translate(-1475.095 -468.939)" fill="none"/></clipPath><clipPath id="b"><ellipse cx="17.437" cy="17.437" rx="17.437" ry="17.437" fill="none"/></clipPath><clipPath id="c"><rect width="202" height="123" transform="translate(1140 477)" fill="#fff" stroke="#707070" stroke-width="1"/></clipPath><clipPath id="d"><path d="M1426.841,734.185l-13.941,27.2-23.016,6.5a6.993,6.993,0,0,0-5.093,6.73v29.845h6.874a2.42,2.42,0,0,0,2.42-2.42V783.461a4.731,4.731,0,0,1,4.731-4.731h19.5a4.731,4.731,0,0,1,4.731,4.731v17.69a3.309,3.309,0,0,0,3.309,3.309h32V734.185Z" transform="translate(-1384.79 -734.185)" fill="none"/></clipPath><clipPath id="e"><rect width="218.585" height="123.021" fill="none"/></clipPath></defs><g transform="translate(-1149.601 -204.874)"><g transform="translate(1149.601 300.874)"><path d="M1587.445,416.419a52.527,52.527,0,0,0-99.606-2.806,52.521,52.521,0,0,0-96.031-6,32.674,32.674,0,0,0-51.074,8.808Z" transform="translate(-1340.734 -379.12)" fill="#fff"/></g><g transform="translate(1343.601 204.874)"><path d="M1587.445,416.419a52.527,52.527,0,0,0-99.606-2.806,52.521,52.521,0,0,0-96.031-6,32.674,32.674,0,0,0-51.074,8.808Z" transform="translate(-1340.734 -379.12)" fill="#fff"/></g><path d="M1452.956,3311.954l12.762-21.6h59.162l-20.247,17.8s-3.254,3.218-10.068,3.092-12.862,0-12.862,0" transform="translate(-188 -2663)" fill="none" stroke="#2d2d2d" stroke-linecap="round" stroke-linejoin="round" stroke-width="1"/><g transform="translate(1225.985 369.158)"><g transform="translate(9.045 2.887)"><path d="M1508.509,701.774H1350.463l-.256-152.229,71.615-78.488,86.687,91.217Z" transform="translate(-1350.463 -473.95)" fill="#f6fafc"/></g><g transform="translate(167.091 91.212)"><rect width="128.386" height="139.5" fill="#fff"/></g><g transform="translate(80.862 0)"><path d="M1621.876,468.939H1475.095l80.864,91.211H1702.74Z" transform="translate(-1475.095 -468.939)" fill="#d1e2e5" stroke="#2d2d2d" stroke-width="1"/></g><g transform="translate(63.425 46.372)"><ellipse cx="17.437" cy="17.437" rx="17.437" ry="17.437" fill="#e4b9e4"/></g><g transform="translate(63.425 46.372)"><ellipse cx="17.437" cy="17.437" rx="17.437" ry="17.437" fill="#d1e2e5" stroke="#2d2d2d" stroke-width="1"/></g><g transform="translate(178.03 116.352)"><rect width="106.509" height="72.366" fill="#d1e2e5" stroke="#2d2d2d" stroke-width="1"/></g></g><g transform="translate(1339.728 639.195)"><ellipse cx="8.341" cy="8.341" rx="8.341" ry="8.341" fill="#fff" stroke="#2d2d2d" stroke-width="1"/></g><g transform="translate(1257.48 639.195)"><ellipse cx="8.341" cy="8.341" rx="8.341" ry="8.341" fill="#fff" stroke="#2d2d2d" stroke-width="1"/></g><path d="M-1426.6-3220.951h-2.862a6.054,6.054,0,0,1-6.054-6.054v-3.023h26.24v6.935a8.793,8.793,0,0,1-8.793,8.793A8.8,8.8,0,0,1-1426.6-3220.951Zm17.323-.689v-8.388h23.517l-9.2,8.388Z" transform="translate(2722.522 3857.39)" fill="#d1e2e5" stroke="#2d2d2d" stroke-linejoin="round" stroke-miterlimit="10" stroke-width="1"/><g transform="translate(1247.516 629.23)"><path d="M1390.435,920.273a18.305,18.305,0,1,0,18.305,18.305A18.305,18.305,0,0,0,1390.435,920.273Zm0,31.249a12.944,12.944,0,1,1,12.944-12.944A12.944,12.944,0,0,1,1390.435,951.522Z" transform="translate(-1372.131 -920.273)" fill="#2d2d2d"/></g><g transform="translate(1329.764 629.23)"><path d="M1533.17,920.273a18.305,18.305,0,1,0,18.3,18.305A18.305,18.305,0,0,0,1533.17,920.273Zm0,31.249a12.944,12.944,0,1,1,12.943-12.944A12.944,12.944,0,0,1,1533.17,951.522Z" transform="translate(-1514.865 -920.273)" fill="#2d2d2d"/></g><g transform="translate(1269.917 615.859)"><path d="M1435.076,908.571h-16.52l-5.938-4.367a3.952,3.952,0,0,1-.014-6.358h0a3.952,3.952,0,0,1,4.044-.4l9.087,4.3a7.916,7.916,0,0,0,3.381.759h10.374Z" transform="translate(-1411.007 -897.068)" fill="#2d2d2d"/></g><g transform="translate(1330.15 616.278)"><path d="M1533.454,929.918a.865.865,0,0,1-.754-.442l-17.054-30.393a.865.865,0,0,1,1.508-.846l17.054,30.393a.866.866,0,0,1-.754,1.288Z" transform="translate(-1515.535 -897.795)" fill="#2d2d2d"/></g><g transform="translate(1262.426 644.927)"><rect width="34.396" height="6.323" rx="3.162" fill="#91b0bf" stroke="#2d2d2d" stroke-width="1"/></g><g transform="translate(1290.368 617.142)"><path d="M1446.5,909.515l8.394-7.481a10.806,10.806,0,0,1,7.191-2.74h25.061l5.75,10.22Z" transform="translate(-1446.5 -899.295)" fill="#91b0bf" stroke="#2d2d2d" stroke-width="1"/></g><g transform="translate(1325.091 615.739)"><path d="M1507.908,903.78a1.152,1.152,0,0,1-.812-1.97l4.642-4.614a1.153,1.153,0,1,1,1.625,1.635l-4.643,4.614A1.148,1.148,0,0,1,1507.908,903.78Z" transform="translate(-1506.756 -896.86)" fill="#2d2d2d"/></g><g transform="translate(1331.838 614.028)"><path d="M2.585,0H4.574a0,0,0,0,1,0,0V5.171a0,0,0,0,1,0,0H2.585A2.585,2.585,0,0,1,0,2.585v0A2.585,2.585,0,0,1,2.585,0Z" fill="#91b0bf" stroke="#2d2d2d" stroke-width="1"/></g><g transform="translate(1300 631)" fill="#fff" stroke="#2d2d2d" stroke-width="1"><circle cx="4.5" cy="4.5" r="4.5" stroke="none"/><circle cx="4.5" cy="4.5" r="4" fill="none"/></g><line y1="95" x2="86" transform="translate(1219.5 369.5)" fill="none" stroke="#2d2d2d" stroke-width="1"/><line y2="151" transform="translate(1234.5 448.5)" fill="none" stroke="#2d2d2d" stroke-width="1"/><g transform="translate(52)" clip-path="url(#c)"><g transform="translate(1172.607 571.419)"><path d="M1342.178,819.947h5.893c5.414,0,9.8,6.368,9.8,14.225s-4.389,14.225-9.8,14.225h-5.893c-5.414,0-9.8-6.368-9.8-14.225S1336.764,819.947,1342.178,819.947Z" transform="translate(-1332.376 -819.947)" fill="#405e7c" stroke="#2d2d2d" stroke-width="1"/><g transform="translate(9.114 4.674)"><ellipse cx="6.582" cy="9.551" rx="6.582" ry="9.551" fill="#405e7c"/></g><g transform="translate(9.114 4.674)"><path d="M1354.774,831.278c3.256,0,5.953,3.434,6.481,7.941a13.758,13.758,0,0,0,.1-1.61c0-5.275-2.947-9.551-6.582-9.551s-6.582,4.276-6.582,9.551a13.839,13.839,0,0,0,.1,1.61C1348.821,834.712,1351.518,831.278,1354.774,831.278Z" transform="translate(-1348.192 -828.058)" fill="#405e7c"/></g></g><g transform="translate(1187.013 537.154)"><rect width="5.639" height="14.6" rx="2.819" fill="#91b0bf" stroke="#2d2d2d" stroke-width="1"/></g><g transform="translate(1172.607 485.957)"><path d="M1425.061,671.634h-70.406a8.28,8.28,0,0,0-7.19,4.175l-14.517,25.435a4.3,4.3,0,0,0,3.736,6.433h88.378Z" transform="translate(-1332.375 -671.634)" fill="#d1e2e5" stroke="#2d2d2d" stroke-width="1"/></g><path d="M-1343.137-2995.638v-70.275h-49.152a4.3,4.3,0,0,1-3.736-6.433l14.518-25.435a8.28,8.28,0,0,1,7.19-4.176h129.466a14.7,14.7,0,0,1,14.7,14.7v91.622Z" transform="translate(2619.508 3587.914)" fill="#fff" stroke="#2d2d2d" stroke-miterlimit="10" stroke-width="1"/><g transform="translate(1250.877 495.24)"><rect width="33.324" height="16.741" rx="7.971" fill="#91b0bf" stroke="#2d2d2d" stroke-width="1"/></g><g transform="translate(1291.524 525.105)"><rect width="37.628" height="24.099" rx="5.611" fill="#d1e2e5" stroke="#2d2d2d" stroke-width="1"/></g><g transform="translate(1159.625 522.001)"><path d="M1351.9,734.185l-13.941,27.2-23.017,6.5a6.993,6.993,0,0,0-5.093,6.73v29.845h116.745V734.185Z" transform="translate(-1309.847 -734.185)" fill="#ddecf6" stroke="#2d2d2d" stroke-width="1"/></g><path d="M1351.9,734.185l-13.941,27.2-23.017,6.5a6.993,6.993,0,0,0-5.093,6.73v29.845h116.745V734.185Z" transform="translate(-150.222 -212.184)" fill="none"/><g transform="translate(1208.137 564.165)"><rect width="48.058" height="28.11" fill="#2d2d2d"/></g><g transform="translate(1167.851 560.198)"><path d="M8.132,0h9.576a8.132,8.132,0,0,1,8.132,8.132V22.442a0,0,0,0,1,0,0H0a0,0,0,0,1,0,0V8.132A8.132,8.132,0,0,1,8.132,0Z" fill="#91b0bf" stroke="#2d2d2d" stroke-width="1"/></g><g transform="translate(1202.81 522.001)"><path d="M1426.841,734.185l-13.941,27.2-23.016,6.5a6.993,6.993,0,0,0-5.093,6.73v29.845h6.874a2.42,2.42,0,0,0,2.42-2.42V783.461a4.731,4.731,0,0,1,4.731-4.731h19.5a4.731,4.731,0,0,1,4.731,4.731v17.69a3.309,3.309,0,0,0,3.309,3.309h32V734.185Z" transform="translate(-1384.79 -734.185)" fill="#fff" stroke="#2d2d2d" stroke-width="1"/></g><g transform="translate(1156.596 582.641)"><rect width="50.181" height="10.995" rx="5.497" fill="#fff" stroke="#2d2d2d" stroke-width="1"/></g><g transform="translate(1187.735 525.637)"><path d="M1401.813,764.062l12.078-23.567h-43.184l-12.078,23.567Z" transform="translate(-1358.629 -740.495)" fill="#91b0bf" stroke="#2d2d2d" stroke-width="1"/></g><g transform="translate(1236.801 525.637)"><path d="M1471.544,740.5h-14.315a3.508,3.508,0,0,0-3.124,1.909l-10.192,19.885a1.217,1.217,0,0,0,1.083,1.772h29.241V743.19A2.694,2.694,0,0,0,1471.544,740.5Z" transform="translate(-1443.778 -740.496)" fill="#d1e2e5" stroke="#2d2d2d" stroke-width="1"/></g><g transform="translate(1271.622 522.001)"><rect width="4.749" height="70.624" fill="#2d2d2d"/></g><g transform="translate(1214.381 571.419)"><path d="M1414.673,819.947h5.893c5.414,0,9.8,6.368,9.8,14.225s-4.389,14.225-9.8,14.225h-5.893c-5.414,0-9.8-6.368-9.8-14.225S1409.259,819.947,1414.673,819.947Z" transform="translate(-1404.87 -819.947)" fill="#405e7c" stroke="#2d2d2d" stroke-width="1"/><g transform="translate(9.114 4.674)"><ellipse cx="6.582" cy="9.551" rx="6.582" ry="9.551" fill="#fff" stroke="#2d2d2d" stroke-width="1"/></g></g><g transform="translate(1240.178 537.154)"><rect width="5.639" height="14.6" rx="2.819" fill="#fff" stroke="#2d2d2d" stroke-width="1"/></g><path d="M-1343.137-2995.638v-70.275h-49.152a4.3,4.3,0,0,1-3.736-6.433l14.518-25.435a8.28,8.28,0,0,1,7.19-4.176h129.466a14.7,14.7,0,0,1,14.7,14.7v91.622Z" transform="translate(2619.508 3587.914)" fill="none" stroke="#2d2d2d" stroke-miterlimit="10" stroke-width="1"/><path d="M1399.625,3181.007h4.062v8.63h-4.062" transform="translate(-240 -2616)" fill="none" stroke="#2d2d2d" stroke-width="1"/><path d="M1399.625,3181.007h4.062v8.63h-4.062" transform="translate(2602.313 3754.644) rotate(180)" fill="none" stroke="#2d2d2d" stroke-width="1"/></g><g transform="translate(1302.877 476.849)"><g transform="translate(0)" clip-path="url(#e)"><g transform="translate(7.922 8.956)"><path d="M-1468.442-2913.27a35.054,35.054,0,0,1-12.83-47.884l63.679-110.294a35.052,35.052,0,0,1,47.883-12.831,35.053,35.053,0,0,1,12.83,47.883l-8.355,14.471a25.919,25.919,0,0,1,30.954-3.791,25.908,25.908,0,0,1,9.483,35.392l-29.608,51.283a25.909,25.909,0,0,1-35.393,9.484,25.922,25.922,0,0,1-12.193-28.7l-18.568,32.16a35.043,35.043,0,0,1-30.39,17.532A34.886,34.886,0,0,1-1468.442-2913.27Z" transform="translate(1498.798 3101.805)" fill="#d1e2e5" stroke="#000" stroke-miterlimit="10" stroke-width="1"/></g></g></g><line y2="54" transform="translate(1393.5 460.5)" fill="none" stroke="#2d2d2d" stroke-width="1"/><line x2="299" transform="translate(1201.5 600.5)" fill="none" stroke="#707070" stroke-width="1"/></g></svg>