<svg xmlns="http://www.w3.org/2000/svg" xmlns:xlink="http://www.w3.org/1999/xlink" width="390.975" height="397.649" viewBox="0 0 390.975 397.649"><defs><clipPath id="a"><path d="M782.254,372.55H575.31l-82,111.281H700.258Z" transform="translate(-493.313 -372.55)" fill="none"/></clipPath><clipPath id="b"><rect width="152.135" height="99.83" fill="none"/></clipPath><clipPath id="c"><rect width="166.852" height="95.446" fill="none"/></clipPath><clipPath id="d"><path d="M1127.411,874.418l-3.057-.415a12.04,12.04,0,0,1-7.092-3.621l-14.6-15.316a11.8,11.8,0,0,0-8.541-3.657h-74.686v56.859H1122.9a6.114,6.114,0,0,0,4.147-1.621l3.5-3.229a10.726,10.726,0,0,0,3.452-7.883V881.967A7.617,7.617,0,0,0,1127.411,874.418Z" transform="translate(-1019.431 -851.409)" fill="none" stroke="#2d2d2d" stroke-width="1"/></clipPath><clipPath id="e"><path d="M956.536,878.177,976.1,858.834a4.559,4.559,0,0,1,3.205-1.317h23.96a4.507,4.507,0,0,1,3.434,1.588l13.316,15.67a3.309,3.309,0,0,1,.788,2.143h0a3.309,3.309,0,0,1-3.309,3.309H957.378A1.2,1.2,0,0,1,956.536,878.177Z" transform="translate(-956.178 -857.517)" fill="none"/></clipPath><clipPath id="f"><path d="M0,0H14.34A3.76,3.76,0,0,1,18.1,3.76v0a3.76,3.76,0,0,1-3.76,3.76H0a0,0,0,0,1,0,0V0A0,0,0,0,1,0,0Z" fill="none"/></clipPath><clipPath id="g"><path d="M0,0H8.79a3.76,3.76,0,0,1,3.76,3.76v0a3.76,3.76,0,0,1-3.76,3.76H0a0,0,0,0,1,0,0V0A0,0,0,0,1,0,0Z" transform="translate(12.55 7.519) rotate(-180)" fill="none" stroke="#2d2d2d" stroke-width="1"/></clipPath></defs><g transform="translate(153.475 -268.421)"><g transform="translate(-89.399 268.421)"><path d="M1643.358,424.872a64.431,64.431,0,0,0-122.18-3.442,64.424,64.424,0,0,0-117.795-7.363,40.079,40.079,0,0,0-62.65,10.8Z" transform="translate(-1340.734 -379.12)" fill="#fff"/></g><g transform="translate(-33)"><g transform="translate(102.463 570.222)"><rect width="132.624" height="94.987" transform="translate(0 0)" fill="#91b0bf" stroke="#2d2d2d" stroke-width="1"/></g><g transform="translate(-109.236 467)"><rect width="204.504" height="198.569" transform="translate(0 0)" fill="#d1e2e5" stroke="#2d2d2d" stroke-width="1"/></g><g transform="translate(-119.486 366.965)"><path d="M782.254,372.55H575.31l-82,111.281H700.258Z" transform="translate(-493.313 -372.55)" fill="#d1e2e5" stroke="#2d2d2d" stroke-width="1"/></g><g transform="translate(156.115 415.448)"><g transform="translate(0 0)"><rect width="24.404" height="54.014" fill="#d1e2e5" stroke="#2d2d2d" stroke-width="1"/></g></g><g transform="translate(156.15 489.31)"><g transform="translate(0 0)"><rect width="24.404" height="54.014" fill="#d1e2e5" stroke="#2d2d2d" stroke-width="1"/></g></g><g transform="translate(116.743 489.31)"><g transform="translate(0 0)"><rect width="24.404" height="54.014" fill="#d1e2e5" stroke="#2d2d2d" stroke-width="1"/></g></g><g transform="translate(195.557 489.31)"><g transform="translate(0 0)"><rect width="24.404" height="54.014" fill="#d1e2e5" stroke="#2d2d2d" stroke-width="1"/></g></g><g transform="translate(-89.822 488.225)"><g transform="translate(0)"><g transform="translate(0 0)"><rect width="78.092" height="54.231" fill="#fff" stroke="#2d2d2d" stroke-width="1"/></g><g transform="translate(58.76)"><path d="M686.042,661.348l-8.713,13.287h16.054V620.4H676.4C670.781,632.988,675.728,648.674,686.042,661.348Z" transform="translate(-674.05 -620.404)" fill="#91b0bf" stroke="#2d2d2d" stroke-width="1"/></g><path d="M561.287,661.348,570,674.635H553.946V620.4H570.93C576.548,632.988,571.6,648.674,561.287,661.348Z" transform="translate(-553.946 -620.404)" fill="#91b0bf" stroke="#2d2d2d" stroke-width="1"/></g><g transform="translate(87.583)"><g transform="translate(0 0)"><rect width="78.092" height="54.231" fill="#fff" stroke="#2d2d2d" stroke-width="1"/></g><g transform="translate(58.76)"><path d="M865.06,661.348l-8.713,13.287H872.4V620.4H855.417C849.8,632.988,854.746,648.674,865.06,661.348Z" transform="translate(-853.068 -620.404)" fill="#91b0bf" stroke="#2d2d2d" stroke-width="1"/></g><path d="M740.305,661.348l8.713,13.287H732.964V620.4h16.984C755.566,632.988,750.618,648.674,740.305,661.348Z" transform="translate(-732.964 -620.404)" fill="#91b0bf" stroke="#2d2d2d" stroke-width="1"/></g></g><g transform="translate(-89.822 570.222)"><g transform="translate(0 0)"><g transform="translate(0 0)"><rect width="78.092" height="54.231" fill="#fff" stroke="#2d2d2d" stroke-width="1"/></g></g><g transform="translate(87.583 0)"><g transform="translate(0 0)"><rect width="78.092" height="54.231" fill="#fff" stroke="#2d2d2d" stroke-width="1"/></g></g></g><g transform="translate(-78.162 565.384)"><g transform="translate(0 0)" clip-path="url(#b)"><g transform="translate(16.063 10.182)"><path d="M9100.106-3052.562,9085.418-3078a20.506,20.506,0,0,1-9.647,22.707,20.5,20.5,0,0,1-28-7.5l-23.424-40.572a20.5,20.5,0,0,1,7.5-28,20.509,20.509,0,0,1,24.487,3l-6.608-11.446a27.731,27.731,0,0,1,10.149-37.882,27.732,27.732,0,0,1,37.882,10.149l50.379,87.257a27.733,27.733,0,0,1-10.151,37.882,27.61,27.61,0,0,1-13.84,3.72A27.719,27.719,0,0,1,9100.106-3052.562Z" transform="translate(-9014.099 3191.566)" fill="#91b0bf" stroke="#2d2d2d" stroke-width="1"/></g></g></g><path d="M0,0,.12,193.709" transform="translate(242.5 471.5)" fill="none" stroke="#2d2d2d" stroke-width="1"/><line x2="79" y2="115" transform="translate(170.5 366.5)" fill="none" stroke="#2d2d2d" stroke-width="1"/><g transform="translate(102.463 570.222)" clip-path="url(#c)"><g transform="translate(115.42 75.559)"><ellipse cx="5.49" cy="7.967" rx="5.49" ry="7.967" fill="#2861a4"/></g><g transform="translate(115.421 75.559)"><path d="M1188.381,945.133c-2.716,0-4.966,2.865-5.407,6.624a11.519,11.519,0,0,1-.084-1.343c0-4.4,2.458-7.967,5.49-7.967s5.49,3.567,5.49,7.967a11.493,11.493,0,0,1-.083,1.343C1193.347,948,1191.1,945.133,1188.381,945.133Z" transform="translate(-1182.891 -942.447)" fill="#4ebee5"/></g><g transform="translate(46.459 75.559)"><ellipse cx="5.49" cy="7.967" rx="5.49" ry="7.967" fill="#2861a4"/></g><g transform="translate(46.459 75.559)"><path d="M1047.424,945.133c-2.716,0-4.966,2.865-5.407,6.624a11.518,11.518,0,0,1-.084-1.343c0-4.4,2.458-7.967,5.491-7.967s5.49,3.567,5.49,7.967a11.545,11.545,0,0,1-.084,1.343C1052.39,948,1050.14,945.133,1047.424,945.133Z" transform="translate(-1041.934 -942.447)" fill="#4ebee5"/></g><g transform="translate(49.854 80.595)"><path d="M1050.969,958.6c-1.155,0-2.1-1.315-2.1-2.93s.94-2.931,2.1-2.931,2.1,1.315,2.1,2.931S1052.124,958.6,1050.969,958.6Zm0-5.372c-.886,0-1.606,1.1-1.606,2.442s.721,2.441,1.606,2.441,1.607-1.1,1.607-2.441S1051.854,953.23,1050.969,953.23Z" transform="translate(-1048.873 -952.741)" fill="#4ebee5"/></g><g transform="translate(35.449 31.02)"><path d="M1127.411,874.418l-3.057-.415a12.04,12.04,0,0,1-7.092-3.621l-14.6-15.316a11.8,11.8,0,0,0-8.541-3.657h-74.686v56.859H1122.9a6.114,6.114,0,0,0,4.147-1.621l3.5-3.229a10.726,10.726,0,0,0,3.452-7.883V881.967A7.617,7.617,0,0,0,1127.411,874.418Z" transform="translate(-1019.431 -851.409)" fill="#f4f9fd"/></g><g transform="translate(105.816 67.973)"><path d="M1178.388,926.941h-5.68c-5.218,0-9.448,6.138-9.448,13.71s4.23,13.71,9.448,13.71h5.68c5.218,0,9.448-6.138,9.448-13.71S1183.606,926.941,1178.388,926.941Z" transform="translate(-1163.26 -926.941)" fill="#405e7c" stroke="#2d2d2d" stroke-width="1"/><g transform="translate(3.104 4.504)"><ellipse cx="6.344" cy="9.205" rx="6.344" ry="9.205" fill="#2d2d2d"/></g><g transform="translate(3.104 4.504)"><path d="M1175.948,939.251c-3.139,0-5.738,3.31-6.247,7.653a13.27,13.27,0,0,1-.1-1.551c0-5.084,2.84-9.205,6.344-9.205s6.343,4.121,6.343,9.205a13.3,13.3,0,0,1-.1,1.551C1181.686,942.561,1179.087,939.251,1175.948,939.251Z" transform="translate(-1169.605 -936.148)" fill="#8ed8f1"/></g><g transform="translate(7.026 10.323)"><path d="M1180.043,954.814c-1.335,0-2.421-1.519-2.421-3.385s1.086-3.386,2.421-3.386,2.421,1.519,2.421,3.386S1181.378,954.814,1180.043,954.814Zm0-6.207c-1.023,0-1.856,1.266-1.856,2.821s.833,2.82,1.856,2.82,1.856-1.265,1.856-2.82S1181.067,948.607,1180.043,948.607Z" transform="translate(-1177.622 -948.042)" fill="#8ed8f1"/></g></g><g transform="translate(38.553 67.973)"><path d="M1040.9,926.941h-5.679c-5.218,0-9.448,6.138-9.448,13.71s4.23,13.71,9.448,13.71h5.679c5.218,0,9.448-6.138,9.448-13.71S1046.12,926.941,1040.9,926.941Z" transform="translate(-1025.775 -926.941)" fill="#405e7c" stroke="#2d2d2d" stroke-width="1"/><g transform="translate(3.104 4.504)"><ellipse cx="6.344" cy="9.205" rx="6.344" ry="9.205" fill="#2d2d2d"/></g><g transform="translate(3.104 4.504)"><path d="M1038.464,939.251c-3.139,0-5.737,3.31-6.247,7.653a13.324,13.324,0,0,1-.1-1.551c0-5.084,2.84-9.205,6.344-9.205s6.344,4.121,6.344,9.205a13.269,13.269,0,0,1-.1,1.551C1044.2,942.561,1041.6,939.251,1038.464,939.251Z" transform="translate(-1032.12 -936.148)" fill="#8ed8f1"/></g><g transform="translate(7.026 10.323)"><path d="M1042.558,954.814c-1.335,0-2.421-1.519-2.421-3.385s1.086-3.386,2.421-3.386,2.421,1.519,2.421,3.386S1043.893,954.814,1042.558,954.814Zm0-6.207c-1.023,0-1.856,1.266-1.856,2.821s.833,2.82,1.856,2.82,1.856-1.265,1.856-2.82S1043.582,948.607,1042.558,948.607Z" transform="translate(-1040.137 -948.042)" fill="#8ed8f1"/></g></g><g transform="translate(35.449 31.02)"><g clip-path="url(#d)"><g transform="translate(45.75 25.698)"><rect width="73.15" height="35.814" fill="#f4f9fd"/></g><path d="M56,0H0" transform="translate(57.588 48.258)" fill="none" stroke="#2d2d2d" stroke-width="1"/></g></g><g transform="translate(-3.216 63.729)"><rect width="83.906" height="24.15" fill="#2d2d2d"/></g><g transform="translate(-9.48 67.973)"><path d="M942.723,926.941h-5.68c-5.218,0-9.448,6.138-9.448,13.71s4.23,13.71,9.448,13.71h5.68c5.218,0,9.448-6.138,9.448-13.71S947.941,926.941,942.723,926.941Z" transform="translate(-927.595 -926.941)" fill="#405e7c" stroke="#2d2d2d" stroke-width="1"/><g transform="translate(3.104 4.504)"><ellipse cx="6.344" cy="9.205" rx="6.344" ry="9.205" fill="#91b0bf" stroke="#2d2d2d" stroke-width="1"/></g></g><g transform="translate(69.717 34.61)"><path d="M1079.932,857.686l13.2,12.884a3.976,3.976,0,0,0,2.778,1.131h38.745a1.352,1.352,0,0,0,.944-2.319l-12.96-12.65a2.768,2.768,0,0,0-1.932-.787h-40.067A1.015,1.015,0,0,0,1079.932,857.686Z" transform="translate(-1079.624 -855.946)" fill="#d1e2e5" stroke="#2d2d2d" stroke-width="1"/></g><g transform="translate(57.783 67.973)"><path d="M1080.207,926.941h-5.679c-5.218,0-9.448,6.138-9.448,13.71s4.23,13.71,9.448,13.71h5.679c5.218,0,9.448-6.138,9.448-13.71S1085.425,926.941,1080.207,926.941Z" transform="translate(-1065.08 -926.941)" fill="#405e7c" stroke="#2d2d2d" stroke-width="1"/><g transform="translate(3.104 4.504)"><ellipse cx="6.344" cy="9.205" rx="6.344" ry="9.205" fill="#91b0bf" stroke="#2d2d2d" stroke-width="1"/></g></g><g transform="translate(-1.546 31.02)"><path d="M1032.327,874.418,1029.27,874a12.04,12.04,0,0,1-7.092-3.621l-14.6-15.316a11.8,11.8,0,0,0-8.541-3.657H974.06a6.567,6.567,0,0,0-4.478,1.764l-25.769,24.019.2,9.307a7.469,7.469,0,0,1,.939-.063c6.029,0,10.918,7.252,10.918,16.2,0,1.154-.01,2.259-.019,3.339a2.278,2.278,0,0,0,2.278,2.3h41.821a2.337,2.337,0,0,0,2.337-2.337v-3.3c0-8.946,4.888-16.2,10.918-16.2s10.918,7.252,10.918,16.2q0,.85-.058,1.677a3.662,3.662,0,0,0,3.629,3.958h.123a6.114,6.114,0,0,0,4.146-1.621l3.5-3.229a10.726,10.726,0,0,0,3.452-7.883V881.967A7.618,7.618,0,0,0,1032.327,874.418Z" transform="translate(-943.813 -851.409)" fill="#91b0bf" stroke="#2d2d2d" stroke-width="1"/></g><g transform="translate(6.216 34.61)"><g transform="translate(-956.178 -857.517)" fill="#91b0bf"><path d="M 1015.865356445312 879.1246337890625 L 957.34619140625 879.1246337890625 C 956.9321899414062 879.1246337890625 956.7701416015625 878.8084716796875 956.7302856445312 878.7116088867188 C 956.6904907226562 878.61474609375 956.5835571289062 878.2760009765625 956.8781127929688 877.98486328125 L 975.9204711914062 859.1546020507812 C 976.6626586914062 858.4209594726562 977.64599609375 858.016845703125 978.6893920898438 858.016845703125 L 1002.014282226562 858.016845703125 C 1003.156494140625 858.016845703125 1004.235961914062 858.5161743164062 1004.975891113281 859.3867797851562 L 1017.9384765625 874.6412963867188 C 1018.356201171875 875.1328125 1018.586242675781 875.7586669921875 1018.586242675781 876.4036254882812 C 1018.586242675781 877.9039916992188 1017.365661621094 879.1246337890625 1015.865356445312 879.1246337890625 Z" stroke="none"/><path d="M 1015.865356445312 878.6246337890625 C 1017.089965820312 878.6246337890625 1018.086242675781 877.6282958984375 1018.086242675781 876.4036254882812 C 1018.086242675781 875.877197265625 1017.898498535156 875.3662719726562 1017.557495117188 874.9650268554688 L 1004.594909667969 859.7105712890625 C 1003.950134277344 858.9519653320312 1003.009521484375 858.516845703125 1002.014282226562 858.516845703125 L 978.6893920898438 858.516845703125 C 977.7785034179688 858.516845703125 976.919921875 858.86962890625 976.2720336914062 859.5101318359375 L 957.2296142578125 878.3404541015625 C 957.2080078125 878.3618774414062 957.1505126953125 878.4186401367188 957.1928100585938 878.5216064453125 C 957.235107421875 878.6246337890625 957.3157958984375 878.6246337890625 957.34619140625 878.6246337890625 L 1015.865356445312 878.6246337890625 M 1015.865356445312 879.6246337890625 L 957.34619140625 879.6246337890625 C 956.3046264648438 879.6246337890625 955.785400390625 878.3619384765625 956.526611328125 877.6292724609375 L 975.5689086914062 858.799072265625 C 976.4000244140625 857.9774780273438 977.5211181640625 857.516845703125 978.6893920898438 857.516845703125 L 1002.014282226562 857.516845703125 C 1003.30126953125 857.516845703125 1004.523498535156 858.0823974609375 1005.356872558594 859.06298828125 L 1018.319519042969 874.3175048828125 C 1018.814453125 874.89990234375 1019.086242675781 875.6390380859375 1019.086242675781 876.4036254882812 C 1019.086242675781 878.182373046875 1017.644287109375 879.6246337890625 1015.865356445312 879.6246337890625 Z" stroke="none" fill="#2d2d2d"/></g></g><g transform="translate(93.561 61.578)"><path d="M0,0H14.34A3.76,3.76,0,0,1,18.1,3.76v0a3.76,3.76,0,0,1-3.76,3.76H0a0,0,0,0,1,0,0V0A0,0,0,0,1,0,0Z" fill="#d1e2e5" stroke="#2d2d2d" stroke-width="1"/></g><g transform="translate(88.417 61.578)"><path d="M3.76,0H5.144a0,0,0,0,1,0,0V7.519a0,0,0,0,1,0,0H3.76A3.76,3.76,0,0,1,0,3.76v0A3.76,3.76,0,0,1,3.76,0Z" fill="#91b0bf" stroke="#2d2d2d" stroke-width="1"/></g><line y1="21" transform="translate(38.037 35.278)" fill="none" stroke="#2d2d2d" stroke-width="1"/><path d="M0,21V-4.52" transform="translate(38.037 67.278)" fill="none" stroke="#2d2d2d" stroke-width="1"/><line x2="7" transform="translate(26.037 65.278)" fill="none" stroke="#2d2d2d" stroke-width="1"/><line x2="7" transform="translate(43.037 65.278)" fill="none" stroke="#2d2d2d" stroke-width="1"/></g><g transform="translate(239.934 631.8)"><g transform="translate(0 0)"><path d="M0,0H8.79a3.76,3.76,0,0,1,3.76,3.76v0a3.76,3.76,0,0,1-3.76,3.76H0a0,0,0,0,1,0,0V0A0,0,0,0,1,0,0Z" transform="translate(12.55 7.519) rotate(-180)" fill="#d1e2e5" stroke="#2d2d2d" stroke-width="1"/></g></g><g transform="translate(220.812 638.587)"><rect width="14.825" height="5.438" transform="translate(0 0)" fill="#fff" stroke="#2d2d2d" stroke-width="1"/></g><line y2="95" transform="translate(102.5 570.5)" fill="none" stroke="#2d2d2d" stroke-width="1"/><path d="M-1609.531-2559.141h-56.386a6.111,6.111,0,0,0,4.073-1.62l3.5-3.229a10.756,10.756,0,0,0,3.452-7.883v-13.568a7.617,7.617,0,0,0-1.88-5.011,7.615,7.615,0,0,0-4.712-2.538l-3.057-.415a12.082,12.082,0,0,1-7.093-3.621l-14.6-15.316a11.852,11.852,0,0,0-8.54-3.657h56.46a11.858,11.858,0,0,1,8.542,3.657l14.6,15.316a12.078,12.078,0,0,0,7.092,3.621l3.057.416a7.612,7.612,0,0,1,4.712,2.537,7.617,7.617,0,0,1,1.88,5.011v13.568a10.757,10.757,0,0,1-3.452,7.883l-3.5,3.229A6.1,6.1,0,0,1-1609.531-2559.141Z" transform="translate(1850.917 3217.242)" fill="none" stroke="#2d2d2d" stroke-width="1"/><line x2="178" transform="translate(92.5 665.57)" fill="none" stroke="#2d2d2d" stroke-width="1"/></g></g></svg>