<svg xmlns="http://www.w3.org/2000/svg" width="50" height="50" viewBox="0 0 50 50"><title>Discount</title><path d="M27.98652,28.53845a9.98485,9.98485,0,0,1-3.87256-.78223.80062.80062,0,0,1-.47851-.87207l1.55029-9.06445a.7999.7999,0,0,1,.34424-.53028.7906.7906,0,0,1,.62158-.11523l5.1001,1.15723a.80077.80077,0,0,1,.52539,1.16211c-.01611.03125-1.63574,3.07714-.47119,5.56054a2.388,2.388,0,0,1-1.833,3.37207A9.86143,9.86143,0,0,1,27.98652,28.53845Zm-2.6626-2.03418a8.3909,8.3909,0,0,0,3.91846.33886.81984.81984,0,0,0,.22949-.06738.78791.78791,0,0,0,.3833-1.0459,7.91834,7.91834,0,0,1,.0918-6.05371l-3.32666-.75488Z" fill="#2d2d2d"/><path d="M20.91787,45.35549l7.19-27.40135-8.62744,1.99693L14.84679,42.63856Z" fill="#fff"/><path d="M20.91767,46.15563a.80948.80948,0,0,1-.32666-.06933l-6.0708-2.7168a.80007.80007,0,0,1-.457-.89062l4.6333-22.6875A.79915.79915,0,0,1,19.3,19.17224l8.62744-1.99707a.79992.79992,0,0,1,.9541.98242L21.6916,45.559a.7997.7997,0,0,1-.42822.51855A.80853.80853,0,0,1,20.91767,46.15563ZM15.759,42.17126l4.62451,2.06934,6.61426-25.208-6.83642,1.582Z" fill="#2d2d2d"/><path d="M43.99923,14.24752c.68613-3.16473,1.69714-8.04417,2.091-11.03078a.43276.43276,0,0,0-.52056-.47666C23.87312,7.30091,10.79523,13.18885,7.69949,14.67526a1.86524,1.86524,0,0,0-.96335,1.09254L3.92639,24.15817a.40641.40641,0,0,0,.46035.52432l8.03539-1.52028a1.67332,1.67332,0,0,1,1.95805,1.938L11.16652,43.16037a1.3986,1.3986,0,0,0,1.07,1.61059L23.049,47.23326a1.46885,1.46885,0,0,0,1.35471-2.48111l-6.62174-6.495,2.87624-13.51065A5.02493,5.02493,0,0,1,24.63828,20.858l15.60541-2.949A4.74271,4.74271,0,0,0,43.998,14.25254Z" fill="#fff"/><path d="M23.37617,48.0697a2.30119,2.30119,0,0,1-.50537-.05664l-10.812-2.46192a2.19367,2.19367,0,0,1-1.67969-2.53125l3.21338-18.06054a.8834.8834,0,0,0-.00147-.31641.87123.87123,0,0,0-1.02-.69434L4.53584,25.46911a1.25562,1.25562,0,0,1-.59131-.03808,1.20575,1.20575,0,0,1-.7793-1.51856l2.812-8.39844a2.6823,2.6823,0,0,1,1.376-1.56054C10.82734,12.28552,23.83955,6.4906,45.405,1.95642a1.23349,1.23349,0,0,1,1.479,1.36035c-.38916,2.95019-1.3584,7.66406-2.103,11.10058-.0044.01953-.00928.04-.01563.05957l-.00146.00489a5.50262,5.50262,0,0,1-4.37159,4.21289L24.78681,21.64392a4.21685,4.21685,0,0,0-3.34619,3.26953L18.656,37.99353l6.30761,6.1875a2.2685,2.2685,0,0,1-1.5874,3.88867ZM12.73847,22.33239a2.47339,2.47339,0,0,1,2.4292,2.90821L11.9543,43.30017a.5977.5977,0,0,0,.45751.69043l10.815,2.46191a.67167.67167,0,0,0,.80127-.50293.66485.66485,0,0,0-.18457-.626l-6.62159-6.49511a.79888.79888,0,0,1-.22216-.73828l2.87646-13.51075a5.81345,5.81345,0,0,1,4.61328-4.50781l15.606-2.94922a3.93387,3.93387,0,0,0,3.1206-3.03906l.00147-.00586c.6958-3.209,1.58838-7.53906,2.00781-10.44727C24.1418,8.10974,11.45234,13.7611,8.0456,15.39587a1.07527,1.07527,0,0,0-.55078.625l-2.59521,7.751,7.37353-1.39551A2.50978,2.50978,0,0,1,12.73847,22.33239Z" fill="#2d2d2d"/><path d="M6.321,18.597a.79994.79994,0,0,1-.21191-1.57129l18.41455-5.07129A3.28925,3.28925,0,0,0,26.79121,9.6986l.72021-2.53125a.8.8,0,0,1,1.53907.4375l-.72022,2.53125a4.89919,4.89919,0,0,1-3.37988,3.36036L6.53389,18.56872A.803.803,0,0,1,6.321,18.597Z" fill="#2d2d2d"/><path d="M4.82295,22.27966a.79963.79963,0,0,1-.20948-1.57129C24.465,15.307,44.238,10.57849,44.43574,10.53161a.80013.80013,0,1,1,.37109,1.55664c-.19677.04688-19.94628,4.76953-39.77343,10.16309A.78536.78536,0,0,1,4.82295,22.27966Z" fill="#2d2d2d"/></svg>