<svg xmlns="http://www.w3.org/2000/svg" width="15.002" height="18" viewBox="0 0 15.002 18"><g transform="translate(-3.07 -0.054)" fill="none"><path d="M16.322,14.693c-.169.118-.388.286-.635.476a8.241,8.241,0,0,1-2.2,1.385A1.554,1.554,0,0,1,13.1,16.5a11.317,11.317,0,0,1-6.2-4.752A10.873,10.873,0,0,1,4.613,4.338C4.692,3.516,6.547,1.8,7.62,1.558a.181.181,0,0,1,.037,0c.157,0,.4.19.627.5a4.53,4.53,0,0,1,.883,2.893l-1.19.773a.9.9,0,0,0-.38.886c.064.386.327,1.1,1.807,3.209s2.046,2.6,2.414,2.8a.988.988,0,0,0,1.024-.048,9.436,9.436,0,0,1,1.27-.765,3.564,3.564,0,0,1,2.355,1.971C16.726,14.41,16.433,14.615,16.322,14.693Z" stroke="none"/><path d="M 13.491868019104 16.55368423461914 C 13.88355731964111 16.55368423461914 15.14765739440918 15.58289337158203 15.68687725067139 15.16890335083008 C 15.93422794342041 14.97848320007324 16.15360832214355 14.81035327911377 16.32210731506348 14.69284343719482 C 16.43274688720703 14.61511325836182 16.72588729858398 14.40962314605713 16.4664478302002 13.77749347686768 C 16.04826736450195 12.76001739501953 14.71387195587158 11.80496788024902 14.15450477600098 11.80496788024902 C 14.13975238800049 11.80496788024902 14.1254711151123 11.80563640594482 14.1118278503418 11.80698299407959 C 13.96812725067139 11.8479528427124 13.31763744354248 12.24447345733643 12.84136772155762 12.57228374481201 C 12.68280124664307 12.68334293365479 12.48696422576904 12.74069309234619 12.28972721099854 12.74069309234619 C 12.12630271911621 12.74069309234619 11.96191501617432 12.70131683349609 11.81698799133301 12.62049293518066 C 11.44881725311279 12.41320323944092 10.87589740753174 11.91906356811523 9.402597427368164 9.816583633422852 C 7.922937393188477 7.706263065338135 7.659687519073486 6.992783069610596 7.596097469329834 6.607113361358643 C 7.539507389068604 6.263633251190186 7.685117721557617 5.924363136291504 7.97634744644165 5.721283435821533 L 9.166057586669922 4.948153495788574 C 9.333287239074707 4.692643165588379 9.027437210083008 3.058983325958252 8.283467292785645 2.055053234100342 C 8.05391788482666 1.744103312492371 7.813567638397217 1.553683280944824 7.65650749206543 1.553683280944824 C 7.643787384033203 1.553683280944824 7.631067752838135 1.555493235588074 7.619627475738525 1.557903289794922 C 6.54691743850708 1.800753235816956 4.692087650299072 3.515763282775879 4.612607479095459 4.338313102722168 C 4.377967357635498 6.801753044128418 5.126387596130371 9.218792915344238 6.897917747497559 11.74672317504883 C 8.659907341003418 14.25897312164307 10.80531787872314 15.90227317810059 13.102707862854 16.49824333190918 C 13.25468730926514 16.53681373596191 13.37613773345947 16.55368423461914 13.491868019104 16.55368423461914 M 13.491868019104 18.05368423461914 C 13.24757766723633 18.05368423461914 13.006667137146 18.02142333984375 12.73372745513916 17.9521541595459 L 12.72988796234131 17.9511833190918 L 12.72605800628662 17.9501838684082 C 10.07948780059814 17.26363372802734 7.639487743377686 15.41634368896484 5.669857501983643 12.60803318023682 C 3.684247493743896 9.774622917175293 2.850087642669678 7.023203372955322 3.119367599487305 4.196083068847656 C 3.195597648620605 3.407143354415894 3.735847473144531 2.544253349304199 4.725307464599609 1.62937331199646 C 5.136197566986084 1.24945330619812 6.208457469940186 0.339423269033432 7.288427352905273 0.09492328017950058 L 7.299407482147217 0.09244327992200851 L 7.310417652130127 0.09012328088283539 C 7.425187587738037 0.06594327837228775 7.541627407073975 0.05368328094482422 7.65650749206543 0.05368328094482422 C 8.319847106933594 0.05368328094482422 8.953948020935059 0.4376832842826843 9.490257263183594 1.164173245429993 C 10.08250713348389 1.963373303413391 10.38803768157959 2.909013271331787 10.51729774475098 3.401363372802734 C 10.88620758056641 4.806543350219727 10.65968799591064 5.405113220214844 10.42113780975342 5.769593238830566 L 10.24819755554199 6.033833503723145 L 9.983407974243164 6.205903053283691 L 9.213169097900391 6.706440925598145 C 9.384670257568359 7.056436061859131 9.769244194030762 7.726700305938721 10.63077735900879 8.955443382263184 C 11.55097198486328 10.26860237121582 12.05503749847412 10.85499000549316 12.31850051879883 11.11630630493164 C 12.74470329284668 10.83614253997803 13.34966850280762 10.46450424194336 13.70055770874023 10.36446285247803 L 13.83006763458252 10.32754325866699 L 13.96408748626709 10.3142728805542 C 14.02652740478516 10.30809307098389 14.09059715270996 10.30496311187744 14.15450763702393 10.30496311187744 C 14.96728801727295 10.30496311187744 15.77121734619141 10.81345367431641 16.30251693725586 11.24001312255859 C 16.7165470123291 11.57243347167969 17.46863746643066 12.27003288269043 17.85383796691895 13.20728302001953 C 18.30129814147949 14.29751300811768 18.05099678039551 15.31139373779297 17.1845874786377 15.92009353637695 L 17.18245697021484 15.92158317565918 L 17.18014717102051 15.92320346832275 C 17.04145812988281 16.01991271972656 16.83621788024902 16.17710304260254 16.60189819335938 16.35749244689941 C 14.88748741149902 17.67374420166016 14.19057750701904 18.05368423461914 13.491868019104 18.05368423461914 Z" stroke="none" fill="#fff"/></g></svg>