<svg id="Layer_1" data-name="Layer 1" xmlns="http://www.w3.org/2000/svg" viewBox="0 0 21.2 25.19"><defs><style>.cls-1{fill:#fff;}</style></defs><title>power-outage</title><path class="cls-1" d="M45.59,57.85a9,9,0,0,1,3-16.73.8.8,0,0,0,.66-.92.79.79,0,0,0-.91-.66,10.59,10.59,0,0,0-3.51,19.7.76.76,0,0,0,.39.1h0a.81.81,0,0,0,.7-.4A.8.8,0,0,0,45.59,57.85Z" transform="translate(-39.4 -37.4)"/><path class="cls-1" d="M55.08,40.7a.8.8,0,1,0-.77,1.4,8.94,8.94,0,0,1,4.62,9,9.05,9.05,0,0,1-7.39,7.78.79.79,0,0,0-.66.78.81.81,0,0,0,.79.81l.14,0a10.65,10.65,0,0,0,8.71-9.16A10.54,10.54,0,0,0,55.08,40.7Z" transform="translate(-39.4 -37.4)"/><path class="cls-1" d="M55.82,47.37a.8.8,0,0,0-.8-.8H49.63l4-8a.8.8,0,1,0-1.43-.71L47.62,47a.73.73,0,0,0-.09.35.8.8,0,0,0,.81.8h5.32L46.29,61.41a.87.87,0,0,0-.1.39.8.8,0,0,0,1.5.39l8-14.43A.76.76,0,0,0,55.82,47.37Z" transform="translate(-39.4 -37.4)"/></svg>