<svg xmlns="http://www.w3.org/2000/svg" viewBox="0 0 150 150"><title>Icons</title><g style="isolation:isolate"><rect x="54.87667" y="51.5" width="7" height="12" transform="translate(116.75334 115) rotate(-180)" style="fill:#8fd8f2"/><path d="M61.87669,64h-7a.49971.49971,0,0,1-.5-.5v-12a.49971.49971,0,0,1,.5-.5h7a.49972.49972,0,0,1,.5.5v12A.49972.49972,0,0,1,61.87669,64Zm-6.5-1h6V52h-6Z" style="fill:#2d2d2d"/><path d="M37.73037,109.48237c-5.989,0-7.84214-4.94406-6.16515-10.81072,1.3694-4.79059,1.39978-8.06754-1.60417-13.18612C23.11016,73.812,37.12237,65.59289,44.00794,74.52789,52.82762,85.97268,37.73037,109.48237,37.73037,109.48237Z" style="fill:#2d2d2d"/><path d="M37.7302,109.98242a6.93367,6.93367,0,0,1-5.81641-2.5376c-1.5791-2.09326-1.87353-5.25781-.82959-8.91015C32.406,93.91113,32.51047,90.81738,29.53,85.73828,25.89719,79.54883,27.94993,74.2959,31.59592,71.835A9.31441,9.31441,0,0,1,44.404,74.22266c3.71631,4.82226,3.7998,12.51464.24219,22.24609a76.26933,76.26933,0,0,1-6.49512,13.28369A.49983.49983,0,0,1,37.7302,109.98242Zm-.97168-38.72021a8.2707,8.2707,0,0,0-4.603,1.40185c-3.25879,2.19922-5.06738,6.938-1.76318,12.56836,3.14648,5.36084,3.02539,8.77832,1.65381,13.57666-.9419,3.29541-.69922,6.22363.666,8.03369A5.78716,5.78716,0,0,0,37.4553,108.979C38.97776,106.5127,51.655,85.26953,43.612,74.833A8.56653,8.56653,0,0,0,36.75852,71.26221Z" style="fill:#2d2d2d"/><polyline points="104.877 42.5 74.278 42.5 67.709 58.5 47.073 58.5 37.877 83.842 37.877 109.5 121.877 109.5 121.877 83.845 104.967 43.153" style="fill:#8fd8f2"/><path d="M121.87669,110h-84a.49971.49971,0,0,1-.5-.5V83.8418a.5068.5068,0,0,1,.02978-.17041l9.19678-25.3418A.50035.50035,0,0,1,47.07346,58h20.3003l6.44189-15.68994A.49974.49974,0,0,1,74.278,42h30.59864a.50018.50018,0,0,1,.41748.77539.5.5,0,0,1,.13427.186L122.3386,83.65332a.50758.50758,0,0,1,.03809.19189V109.5A.49972.49972,0,0,1,121.87669,110Zm-83.5-1h83V83.94482L104.50461,43.34521A.4991.4991,0,0,1,104.49045,43H74.6135L68.17161,58.68994A.49974.49974,0,0,1,67.7092,59H47.42405L38.37669,83.92969Z" style="fill:#2d2d2d"/><polygon points="57.877 109.5 37.877 109.5 37.877 83.863 47.073 58.541 57.877 83.358 57.877 109.5" style="fill:#fff"/><path d="M57.87669,110h-20a.49971.49971,0,0,1-.5-.5V83.86279a.49825.49825,0,0,1,.03027-.1709l9.19678-25.32128a.50088.50088,0,0,1,.4541-.32911.49419.49419,0,0,1,.47412.3003L58.33518,83.1582a.5011.5011,0,0,1,.04151.19971V109.5A.49972.49972,0,0,1,57.87669,110Zm-19.5-1h19V83.46191L47.11545,59.89062,38.37669,83.95068Z" style="fill:#2d2d2d"/><line x1="88.87667" y1="109.5" x2="88.87667" y2="81.5" style="fill:#8fd8f2"/><path d="M88.87669,110a.49971.49971,0,0,1-.5-.5v-28a.5.5,0,0,1,1,0v28A.49972.49972,0,0,1,88.87669,110Z" style="fill:#2d2d2d"/><polygon points="58.668 85.5 60.619 76.095 74.412 42.5 105.116 42.5 87.462 85.5 58.668 85.5" style="fill:#259ed9"/><path d="M87.46165,86h-28.793a.50056.50056,0,0,1-.48975-.60156l1.9502-9.40479L73.94944,42.31006A.49973.49973,0,0,1,74.41184,42h30.70459a.49972.49972,0,0,1,.4624.68994l-17.65478,43A.49974.49974,0,0,1,87.46165,86Zm-28.1792-1H87.1262l17.24463-42H74.74729l-13.666,33.28516Z" style="fill:#2d2d2d"/><polygon points="58.479 85.5 47.073 58.5 83.555 58.5 72.47 85.5 58.479 85.5" style="fill:#8fd8f2"/><path d="M72.47,86H58.47922a.499.499,0,0,1-.46044-.30566l-11.40577-27A.49994.49994,0,0,1,47.07346,58H83.5554a.49973.49973,0,0,1,.4624.68994l-11.08545,27A.49974.49974,0,0,1,72.47,86ZM58.81077,85H72.1345L82.80979,59H47.82737Z" style="fill:#2d2d2d"/><line x1="72.87667" y1="85.5" x2="72.87667" y2="109.5" style="fill:#8fd8f2"/><path d="M72.87669,110a.49971.49971,0,0,1-.5-.5v-24a.5.5,0,0,1,1,0v24A.49972.49972,0,0,1,72.87669,110Z" style="fill:#2d2d2d"/><rect x="41.87667" y="87.5" width="12" height="17" transform="translate(95.75334 192) rotate(-180)" style="fill:#fff"/><path d="M53.87669,105h-12a.49971.49971,0,0,1-.5-.5v-17a.49971.49971,0,0,1,.5-.5h12a.49972.49972,0,0,1,.5.5v17A.49972.49972,0,0,1,53.87669,105Zm-11.5-1h11V88h-11Z" style="fill:#2d2d2d"/><rect x="98.87667" y="88.5" width="12" height="21" transform="translate(209.75334 198) rotate(-180)" style="fill:#fff"/><path d="M110.87669,110h-12a.49971.49971,0,0,1-.5-.5v-21a.49971.49971,0,0,1,.5-.5h12a.49972.49972,0,0,1,.5.5v21A.49972.49972,0,0,1,110.87669,110Zm-11.5-1h11V89h-11Z" style="fill:#2d2d2d"/><line x1="47.87667" y1="87.5" x2="47.87667" y2="104.5" style="fill:#fff"/><path d="M47.87669,105a.49971.49971,0,0,1-.5-.5v-17a.5.5,0,0,1,1,0v17A.49972.49972,0,0,1,47.87669,105Z" style="fill:#2d2d2d"/><line x1="53.87667" y1="99.5" x2="41.87667" y2="99.5" style="fill:#fff"/><path d="M53.87669,100h-12a.5.5,0,1,1,0-1h12a.5.5,0,0,1,0,1Z" style="fill:#2d2d2d"/><path d="M104.87665,66.96517a5.78154,5.78154,0,0,1,6,5.53483h-12A5.78151,5.78151,0,0,1,104.87665,66.96517Z" style="fill:#fff"/><path d="M110.87669,73h-12a.49971.49971,0,0,1-.5-.5,6.51794,6.51794,0,0,1,13,0A.49972.49972,0,0,1,110.87669,73ZM99.40354,72h10.94629a5.57026,5.57026,0,0,0-10.94629,0Z" style="fill:#2d2d2d"/><rect x="98.87667" y="72.5" width="12" height="7" transform="translate(209.75334 152) rotate(-180)" style="fill:#fff"/><path d="M110.87669,80h-12a.49971.49971,0,0,1-.5-.5v-7a.49971.49971,0,0,1,.5-.5h12a.49972.49972,0,0,1,.5.5v7A.49972.49972,0,0,1,110.87669,80Zm-11.5-1h11V73h-11Z" style="fill:#2d2d2d"/><path d="M72.45993,98.87589A10.62416,10.62416,0,0,1,83.08411,109.5H61.83588A10.62409,10.62409,0,0,1,72.45993,98.87589Z" style="fill:#259ed9"/><path d="M83.0842,110H61.83567a.49971.49971,0,0,1-.5-.5,11.12427,11.12427,0,0,1,22.24853,0A.49971.49971,0,0,1,83.0842,110Zm-20.73632-1H82.572a10.12443,10.12443,0,0,0-20.22412,0Z" style="fill:#2d2d2d"/><line x1="104.87667" y1="72.5" x2="104.87667" y2="79.5" style="fill:#fff"/><path d="M104.87669,80a.49971.49971,0,0,1-.5-.5v-7a.5.5,0,0,1,1,0v7A.49972.49972,0,0,1,104.87669,80Z" style="fill:#2d2d2d"/><line x1="107.87667" y1="97.5" x2="107.87667" y2="101.5" style="fill:#fff"/><path d="M107.87669,102a.49971.49971,0,0,1-.5-.5v-4a.5.5,0,0,1,1,0v4A.49972.49972,0,0,1,107.87669,102Z" style="fill:#2d2d2d"/></g></svg>