<svg xmlns="http://www.w3.org/2000/svg" viewBox="0 0 150 150"><title>Icons</title><g style="isolation:isolate"><path d="M66.13455,77.82965l-.20425-.56977a1.17036,1.17036,0,0,0-1.37221-.74372l-2.19141.5206a12.428,12.428,0,0,1-9.32811-1.47168l-2.00518-1.21892a1.00789,1.00789,0,0,0-1.31057.23162h0a1.00789,1.00789,0,0,0,.173,1.42884L56.45832,82.332l9.0911-3.2627A.96946.96946,0,0,0,66.13455,77.82965Z" style="fill:#8fd8f2"/><path d="M56.45825,82.832a.50019.50019,0,0,1-.34716-.14014l-6.5625-6.32519a1.45382,1.45382,0,0,1-.53565-.97852,1.49648,1.49648,0,0,1,.31934-1.12256,1.51279,1.51279,0,0,1,1.96093-.34667L53.2981,75.1377a11.85483,11.85483,0,0,0,8.95263,1.41259l2.19141-.5205a1.67116,1.67116,0,0,1,1.959,1.061l.2041.56982a1.47133,1.47133,0,0,1-.88672,1.8794L56.6272,82.80273A.50618.50618,0,0,1,56.45825,82.832ZM50.5105,74.69971a.508.508,0,0,0-.30957.91113l6.38037,6.14551,8.79932-3.15772a.46957.46957,0,0,0,.2832-.60009v-.00049l-.2041-.56983a.67139.67139,0,0,0-.78662-.42578l-2.19092.52051a12.84544,12.84544,0,0,1-9.70361-1.53076l-2.00489-1.21875A.504.504,0,0,0,50.5105,74.69971Z" style="fill:#2d2d2d"/><line x1="87.58739" y1="71.6406" x2="90.6362" y2="76.4764" style="fill:#8fd8f2"/><path d="M90.63648,76.97656a.49882.49882,0,0,1-.42334-.2334l-3.04883-4.83593A.49988.49988,0,1,1,88.01,71.374L91.05884,76.21a.50006.50006,0,0,1-.42236.7666Z" style="fill:#2d2d2d"/><path d="M45.60632,81.53979h0a14.28861,14.28861,0,0,0-10.62978.572c-.19409.079-.39224.18978-.56949.28231-2.35095,1.22668-5.535.00093-7.05053-1.4865A19.66334,19.66334,0,0,1,60.68367,95.062l-5.39379.00008A13.93819,13.93819,0,0,0,45.60632,81.53979Z" style="fill:#8fd8f2"/><path d="M60.68384,95.562h-5.394a.49971.49971,0,0,1-.5-.5A13.44794,13.44794,0,0,0,45.44507,82.0127a13.14884,13.14884,0,0,0-4.439-.73438,13.31336,13.31336,0,0,0-5.82129,1.28809c-.15918.06543-.30127.1416-.43409.21191l-.11279.05908c-2.42969,1.26953-5.85449.17139-7.63135-1.57275a.5.5,0,0,1,.00293-.7168A20.1631,20.1631,0,0,1,61.18384,95.062.49971.49971,0,0,1,60.68384,95.562Zm-4.894-.5h0Zm-.00733-.5h4.395A19.16256,19.16256,0,0,0,28.09986,80.896c1.46337,1.15918,4.11865,2.07714,6.07568,1.05468l.10742-.05615c.16162-.08594.335-.17627.5044-.2456a14.786,14.786,0,0,1,10.97851-.583l.00147.00049A14.40219,14.40219,0,0,1,55.78247,94.562Z" style="fill:#2d2d2d"/><path d="M89.07217,70.62084,86.9994,67.62648a6.101,6.101,0,0,0-8.81506-1.30171L67.69,74.67478a1.98658,1.98658,0,0,0-.7189,1.20622l-.50948,2.86092Z" style="fill:#8fd8f2"/><path d="M66.46167,79.2417a.49992.49992,0,0,1-.49219-.5874l.50928-2.86084a2.48493,2.48493,0,0,1,.90039-1.51026L77.8728,65.93359a6.60141,6.60141,0,0,1,9.5376,1.40821l2.07276,2.99414a.50021.50021,0,0,1-.24219.75537L66.63062,79.2124A.50643.50643,0,0,1,66.46167,79.2417ZM81.96411,65.49609a5.53676,5.53676,0,0,0-3.46826,1.21973l-10.49414,8.3501a1.48475,1.48475,0,0,0-.53857.90283l-.35791,2.01074,21.18506-7.60937-1.70215-2.459a5.54613,5.54613,0,0,0-3.78711-2.353A5.7084,5.7084,0,0,0,81.96411,65.49609Z" style="fill:#2d2d2d"/><path d="M92.64,95a14.5,14.5,0,1,0,14.5-14.5A14.5,14.5,0,0,0,92.64,95Zm6.5,0a8,8,0,1,1,8,8A8,8,0,0,1,99.14,95Z" style="fill:#2d2d2d"/><path d="M107.13989,110a15,15,0,1,1,15-15A15.017,15.017,0,0,1,107.13989,110Zm0-29a14,14,0,1,0,14,14A14.01573,14.01573,0,0,0,107.13989,81Zm0,22.5a8.5,8.5,0,1,1,8.5-8.5A8.50951,8.50951,0,0,1,107.13989,103.5Zm0-16a7.5,7.5,0,1,0,7.5,7.5A7.5082,7.5082,0,0,0,107.13989,87.5Z" style="fill:#2d2d2d"/><path d="M26.50608,95a14.5,14.5,0,1,0,14.5-14.5A14.5,14.5,0,0,0,26.50608,95Zm6.5,0a8,8,0,1,1,8,8A8,8,0,0,1,33.00608,95Z" style="fill:#2d2d2d"/><path d="M41.00611,110a15,15,0,1,1,15-15A15.017,15.017,0,0,1,41.00611,110Zm0-29a14,14,0,1,0,14,14A14.01572,14.01572,0,0,0,41.00611,81Zm0,22.5a8.5,8.5,0,1,1,8.5-8.5A8.5095,8.5095,0,0,1,41.00611,103.5Zm0-16a7.5,7.5,0,1,0,7.5,7.5A7.5082,7.5082,0,0,0,41.00611,87.5Z" style="fill:#2d2d2d"/><path d="M95.83787,65.062h2.84555v7H95.83787s-2.95964-1.02435-2.95964-3.5S95.83787,65.062,95.83787,65.062Z" style="fill:#8fd8f2"/><path d="M98.68335,72.562h-2.8457a.50456.50456,0,0,1-.16358-.02734c-.13476-.04688-3.29589-1.17334-3.29589-3.97266s3.16113-3.92578,3.29589-3.97265a.5043.5043,0,0,1,.16358-.02735h2.8457a.49971.49971,0,0,1,.5.5v7A.49971.49971,0,0,1,98.68335,72.562Zm-2.7539-1h2.2539v-6h-2.2539c-.42334.16895-2.55127,1.11377-2.55127,3S95.50611,71.39307,95.92945,71.562Z" style="fill:#2d2d2d"/><path d="M27.99876,76.062h.683s1.2683.43907,1.2683,1.5-1.2683,1.5-1.2683,1.5H26.68342v-3Z" style="fill:#8fd8f2"/><path d="M28.68189,79.562H26.68335a.49971.49971,0,0,1-.5-.5v-3a.49971.49971,0,0,1,.5-.5h1.99854a.50424.50424,0,0,1,.16357.02735c.06543.02294,1.60449.57177,1.60449,1.97265s-1.53906,1.94971-1.60449,1.97266A.5045.5045,0,0,1,28.68189,79.562Zm-1.49854-1H28.5857c.21435-.09326.86425-.42383.86425-1,0-.57519-.648-.90576-.86425-1H27.18335Z" style="fill:#2d2d2d"/><path d="M105.72632,92.97168a.50052.50052,0,0,1-.437-.25586L90.81421,66.83105l-4.25-7.36181H79.68335a.5.5,0,0,1,0-1h7.16944a.4999.4999,0,0,1,.4331.25l4.398,7.61767,14.47852,25.89063a.49991.49991,0,0,1-.436.74414Z" style="fill:#2d2d2d"/><line x1="56.45832" y1="82.33197" x2="89.07217" y2="70.62084" style="fill:#8fd8f2"/><path d="M56.45825,82.832a.5.5,0,0,1-.16894-.9707L88.90308,70.1499a.50011.50011,0,1,1,.33789.94141L56.6272,82.80273A.49835.49835,0,0,1,56.45825,82.832Z" style="fill:#2d2d2d"/><path d="M63.74927,88.5127a.49717.49717,0,0,1-.30713-.10547l-7.291-5.68067a.5.5,0,1,1,.61425-.78906l7.00244,5.45605L91.99292,68.0083a.5.5,0,0,1,.56641.82422L64.03247,88.4248A.50069.50069,0,0,1,63.74927,88.5127Z" style="fill:#2d2d2d"/><line x1="63.74938" y1="88.01273" x2="65.55546" y2="100.70989" style="fill:#8fd8f2"/><path d="M65.55493,101.21a.50037.50037,0,0,1-.49463-.42969L63.25415,88.083a.50009.50009,0,0,1,.99024-.14063l1.80615,12.69727a.49951.49951,0,0,1-.49561.57031Z" style="fill:#2d2d2d"/><line x1="81.67603" y1="79.48387" x2="71.34006" y2="87.14043" style="fill:#8fd8f2"/><path d="M71.34058,87.64062a.5.5,0,0,1-.29834-.90185L81.37818,79.082a.5002.5002,0,0,1,.5957.80371L71.63794,87.54248A.49777.49777,0,0,1,71.34058,87.64062Z" style="fill:#2d2d2d"/><line x1="84.43864" y1="82.0179" x2="78.4358" y2="93.70754" style="fill:#8fd8f2"/><path d="M78.4353,94.20752A.49994.49994,0,0,1,77.991,93.479L83.9939,81.78955a.50009.50009,0,0,1,.88965.457L78.88062,93.936A.50043.50043,0,0,1,78.4353,94.20752Z" style="fill:#2d2d2d"/><circle cx="74.18342" cy="91.56201" r="5.5" style="fill:#8fd8f2"/><path d="M74.18335,97.562a6,6,0,1,1,6-6A6.00656,6.00656,0,0,1,74.18335,97.562Zm0-11a5,5,0,1,0,5,5A5.00589,5.00589,0,0,0,74.18335,86.562Z" style="fill:#2d2d2d"/><circle cx="83.18342" cy="80.56201" r="2.5" style="fill:#8fd8f2"/><path d="M83.18335,83.562a3,3,0,1,1,3-3A3.00328,3.00328,0,0,1,83.18335,83.562Zm0-5a2,2,0,1,0,2,2A2.002,2.002,0,0,0,83.18335,78.562Z" style="fill:#2d2d2d"/><path d="M79.12573,101.562H65.25318a.5.5,0,0,1-.38038-.17529L59.90357,95.562H49.18335v-1H60.134a.50007.50007,0,0,1,.38037.17529l4.96923,5.82471H78.80933L93.17261,70.23047l.90332.42773L79.57739,101.27588A.49918.49918,0,0,1,79.12573,101.562Z" style="fill:#2d2d2d"/><rect x="38.00608" y="92.06201" width="6" height="6" rx="3" transform="translate(82.01215 190.12402) rotate(180)" style="fill:#8fd8f2"/><path d="M41.00611,98.562a3.5,3.5,0,1,1,3.5-3.5A3.50424,3.50424,0,0,1,41.00611,98.562Zm0-6a2.5,2.5,0,1,0,2.5,2.5A2.50294,2.50294,0,0,0,41.00611,92.562Z" style="fill:#2d2d2d"/><rect x="104.13999" y="92.06201" width="6" height="6" rx="3" transform="translate(214.27999 190.12403) rotate(-180)" style="fill:#8fd8f2"/><path d="M107.13989,98.562a3.5,3.5,0,1,1,3.5-3.5A3.50425,3.50425,0,0,1,107.13989,98.562Zm0-6a2.5,2.5,0,1,0,2.5,2.5A2.50295,2.50295,0,0,0,107.13989,92.562Z" style="fill:#2d2d2d"/></g></svg>
