<svg id="Layer_1" data-name="Layer 1" xmlns="http://www.w3.org/2000/svg" viewBox="0 0 26.3 28.21"><defs><style>.cls-1{fill:#fff;}</style></defs><title>severe-weather</title><path class="cls-1" d="M57.19,41.8a6.83,6.83,0,0,0-7.09-5.9h-.2a6.81,6.81,0,0,0-7.08,5.9c-3.3,0-6,2.36-6,5.25v.58c0,2.89,2.68,5.24,6,5.24h1.81a.8.8,0,0,0,0-1.6H42.83c-2.41,0-4.38-1.64-4.38-3.65v-.57c0-2,2-3.65,4.36-3.65l.73,0a.83.83,0,0,0,.58-.23.77.77,0,0,0,.25-.57c0-3,2.32-5.13,5.53-5.13h.2c3.21,0,5.53,2.16,5.53,5.13a.77.77,0,0,0,.25.57.83.83,0,0,0,.58.23l.71,0c2.41,0,4.38,1.64,4.38,3.65v.57c0,2-2,3.65-4.38,3.65h-3a.8.8,0,0,0,0,1.6h3c3.3,0,6-2.35,6-5.25v-.57C63.15,44.17,60.49,41.82,57.19,41.8Z" transform="translate(-36.85 -35.89)"/><path class="cls-1" d="M53.05,57.37H47.66l4-8,0,0a.8.8,0,0,0-1.45-.69l-4.58,9.17a.78.78,0,0,0-.08.36.8.8,0,0,0,.8.8h5.32L49.5,62.91a.76.76,0,0,0-.1.39.8.8,0,0,0,1.5.39l2.85-5.13a.76.76,0,0,0,.1-.39A.8.8,0,0,0,53.05,57.37Z" transform="translate(-36.85 -35.89)"/></svg>