<svg xmlns="http://www.w3.org/2000/svg" width="50" height="50" viewBox="0 0 50 50"><title>Discount</title><path d="M38.825,7.55349a3.38766,3.38766,0,0,0-3.57519-3.04687L14.783,4.50857a3.41822,3.41822,0,0,0-3.61133,3.11914l.00342,34.81641a3.37839,3.37839,0,0,0,3.30713,3.05664c.07959,0,.15967-.00293.24023-.00977L35.21753,45.489a3.40439,3.40439,0,0,0,3.61084-3.11914Zm-3.54687,36.3379-20.61573.002a1.75447,1.75447,0,0,1-1.89111-1.52344l-.00342-34.668A1.786,1.786,0,0,1,14.5769,6.10135c.04786,0,.09668.00195.14551.00488H35.27808c.0205,0,.04052-.001.061-.00195a1.76756,1.76756,0,0,1,1.88965,1.52343l.00342,34.668A1.79258,1.79258,0,0,1,35.27808,43.89139Z" fill="#2d2d2d"/><path d="M33.37476,8.27517H16.42065a1.38,1.38,0,0,0-1.39794,1.30372l.002,25.96582a1.33951,1.33951,0,0,0,1.3164,1.24511c.01612,0,.03174,0,.04786-.001h16.96a1.362,1.362,0,0,0,1.39306-1.24317c.002-.02051.00244-.042.00244-.0625L34.73853,9.51639A1.32616,1.32616,0,0,0,33.37476,8.27517ZM16.62231,35.18924,16.62036,9.87478h16.521l.00342,25.31446Z" fill="#2d2d2d"/><path d="M26.05981,38.99392a1.73785,1.73785,0,1,0-1.13574,3.03516h.0044a1.76727,1.76727,0,0,0,1.71191-1.81445l-.001-.02344A1.72361,1.72361,0,0,0,26.05981,38.99392Z" fill="#2d2d2d"/><path d="M25.26685,21.40213c-2.44043-.50782-2.63428-1.09571-2.63428-1.8418,0-.85937.85889-1.4834,2.05176-1.4834a3.78284,3.78284,0,0,1,2.54492.87891.92066.92066,0,0,0,.58056.20312.88915.88915,0,0,0,.52149-1.59961,5.53249,5.53249,0,0,0-2.71-1.14764v-.78009a.80933.80933,0,1,0-1.61865,0v.79492a3.37831,3.37831,0,0,0-3.14258,3.23926c0,2.33691,1.97754,3.05664,3.91211,3.45215,2.35791.47851,2.54541,1.05078,2.54541,1.78027,0,.93652-.877,1.58984-2.148,1.58984a4.23329,4.23329,0,0,1-2.48194-.69647,4.63013,4.63013,0,0,1-.70068-.56036.93552.93552,0,0,0-.57715-.20215.82294.82294,0,0,0-.71533,1.36371.88542.88542,0,0,0,.15576.2027l-.001.001A6.33126,6.33126,0,0,0,24.00269,28.1v.849a.80937.80937,0,0,0,.80957.8125h.00488a.81019.81019,0,0,0,.8042-.81347v-.791a3.47414,3.47414,0,0,0,3.46435-3.36432C29.08569,22.48416,27.04419,21.76736,25.26685,21.40213Z" fill="#2d2d2d"/></svg>