<svg id="Layer_1" data-name="Layer 1" xmlns="http://www.w3.org/2000/svg" viewBox="0 0 24.38 30.1"><defs><style>.cls-1{fill:#fff;}</style></defs><title>tornado</title><path class="cls-1" d="M62.2,38.72v0c0-2.58-6.12-3.75-11.81-3.75-4.32,0-8.88.68-10.83,2.13a.92.92,0,0,0-.36.23c-2.29,2.75-1.05,5.26-.15,7.09.73,1.49,1.12,2.37.5,3.18a7.11,7.11,0,0,0-1.68,5.54A7.78,7.78,0,0,0,41.13,58a16.69,16.69,0,0,0,2.78,1.37c2.59,1.12,5.82,2.52,7.05,5.22a.78.78,0,0,0,.58.46h.14a.81.81,0,0,0,.57-.23,5.79,5.79,0,0,0,2.11-4c0-1.78-1.31-3.08-2.48-4.24a7.25,7.25,0,0,1-1.7-2.11c-1.28-3.22,1.09-4.64,4.07-6,.49-.22.92-.43,1.24-.61l.25-.15c2-1.18,6.21-3.63,6.46-8.92Zm-1.6,0h0c0,.63-3.6,2.14-10.21,2.14S40.18,39.33,40.18,38.7h0l.21-.3c.85-.71,4.29-1.84,10-1.84h0C57,36.55,60.59,38.07,60.6,38.7Zm-5.67,7.58-.26.15c-.28.17-.66.34-1.1.55-2.38,1.12-6.82,3.2-4.88,8.08a8.39,8.39,0,0,0,2.07,2.66c1,1,2,2,2,3.1a3.42,3.42,0,0,1-.92,2.07c-1.71-2.59-4.9-4-7.3-5A17.63,17.63,0,0,1,42,56.67a6.11,6.11,0,0,1-2.58-3.8,5.62,5.62,0,0,1,1.37-4.32c1.25-1.63.41-3.34-.33-4.85a6.2,6.2,0,0,1-1-3.41c1.92,1.47,6.52,2.16,10.87,2.16,3.66,0,7.5-.49,9.77-1.52C59.11,43.83,56.48,45.37,54.93,46.28Z" transform="translate(-37.82 -34.95)"/></svg>