<svg id="Layer_1" data-name="Layer 1" xmlns="http://www.w3.org/2000/svg" viewBox="0 0 21.99 28.2"><defs><style>.cls-1{fill:#fff;}</style></defs><title>wildfire</title><path class="cls-1" d="M60.31,51.44a7.36,7.36,0,0,1-.26-4.61,1.68,1.68,0,0,0,0-.5A1.57,1.57,0,0,0,58.3,45a4.75,4.75,0,0,0-2.91,1.76,10.11,10.11,0,0,0-1.15-5.53c-2.08-3.64-6.82-5-7.77-5.23a1.58,1.58,0,0,0-1.85,2.15,20.44,20.44,0,0,1,1.5,5.41A9.79,9.79,0,0,1,45.9,46c-1.21-1.94-3.33-3.59-5-3.59a1.69,1.69,0,0,0-.5.08,1.58,1.58,0,0,0-1,2,10.23,10.23,0,0,1,.15,7.19A18.61,18.61,0,0,0,39,55.8c0,4.81,4.65,8.3,11.06,8.3C58.69,64.1,61,59,61,56.05A17.15,17.15,0,0,0,60.31,51.44ZM50.06,62.5c-5.48,0-9.46-2.82-9.46-6.7a17.1,17.1,0,0,1,.52-3.69A11.72,11.72,0,0,0,40.93,44c1.33,0,3.9,2.42,4.29,4.43a.8.8,0,0,0,1.52.17,11.93,11.93,0,0,0,1-5.14,20.7,20.7,0,0,0-1.63-6c.51.13,5,1.33,6.76,4.47,1.69,3,.69,7,.36,8.28a.8.8,0,0,0,1.5.54c.49-1,2-4,3.77-4.27A8.93,8.93,0,0,0,58.79,52a15.35,15.35,0,0,1,.61,4.1C59.4,56.71,59.13,62.5,50.06,62.5Z" transform="translate(-39 -35.9)"/></svg>