<svg id="Layer_1" data-name="Layer 1" xmlns="http://www.w3.org/2000/svg" viewBox="0 0 23.08 27.11"><defs><style>.cls-1{fill:#fff;}</style></defs><title>winter-weather</title><path class="cls-1" d="M22.71,20.07l-3.17-2,1.3-.26a.74.74,0,0,0,.58-.87.75.75,0,0,0-.88-.6l-2.81.57-4.89-3.13L18,10.42l2.81.57H21a.75.75,0,0,0,.15-1.48l-1.3-.26,2.88-1.84,0,0a.75.75,0,0,0-.84-1.25L19,8l.26-1.27h0a.75.75,0,1,0-1.47-.29l-.54,2.7-5,3.2v-6L15,4.48a.75.75,0,0,0-.86-1.23L12.28,4.54V.75a.75.75,0,0,0-1.5,0V4.58L8.91,3.34l0,0a.75.75,0,0,0-.79,1.27l2.7,1.79v6l-5-3.2L5.25,6.53h0a.74.74,0,0,0-.89-.58.75.75,0,0,0-.58.88L4,8.1,1.15,6.25l0,0A.75.75,0,1,0,.34,7.51L3.22,9.35l-1.3.26a.75.75,0,0,0,.15,1.49h.15L5,10.52l5,3.23-4.74,3-2.81-.56a.75.75,0,0,0-.3,1.47l1.3.26L.34,20a.77.77,0,0,0-.34.63.76.76,0,0,0,.75.75.72.72,0,0,0,.4-.12l3.18-2-.26,1.27a.74.74,0,0,0,.59.88l.15,0a.75.75,0,0,0,.73-.6l.54-2.7,4.7-3v5.47L8.11,22.43a.75.75,0,0,0-.32.62.74.74,0,0,0,.75.74A.71.71,0,0,0,9,23.66l1.81-1.28v4a.75.75,0,0,0,1.5,0v-4l1.92,1.25A.75.75,0,0,0,15,22.31l-2.74-1.78V15.17l4.69,3,.54,2.7a.75.75,0,0,0,.73.6h.15a.75.75,0,0,0,.59-.88l-.26-1.28,3.18,2a.76.76,0,0,0,1-.23A.75.75,0,0,0,22.71,20.07Z" transform="translate(0.02 0)"/></svg>