<svg version="1.1" id="Loader" xmlns="http://www.w3.org/2000/svg" xmlns:xlink="http://www.w3.org/1999/xlink" x="0px" y="0px" width="64px" height="64px" viewBox="0 0 64 64" enable-background="new 0 0 64 64" xml:space="preserve">

<path id="dot-0" transform="rotate(270 32 32)" fill="none" stroke="#188fff" opacity="0.1" stroke-width="5.6" stroke-linecap="round" stroke-miterlimit="10" stroke-dasharray = "0.1, 176" stroke-dashoffset="0" d="M32,32m28,0a28,28 0 1,1 -56,0a28,28 0 1,1 56,0"/>
<path id="dot-30" transform="rotate(300 32 32)" fill="none" stroke="#188fff" opacity="0.1" stroke-width="5.6" stroke-linecap="round" stroke-miterlimit="10" stroke-dasharray = "0.1, 176" stroke-dashoffset="0" d="M32,32m28,0a28,28 0 1,1 -56,0a28,28 0 1,1 56,0"/>
<path id="dot-60" transform="rotate(330 32 32)" fill="none" stroke="#188fff" opacity="0.1" stroke-width="5.6" stroke-linecap="round" stroke-miterlimit="10" stroke-dasharray = "0.1, 176" stroke-dashoffset="0" d="M32,32m28,0a28,28 0 1,1 -56,0a28,28 0 1,1 56,0"/>
<path id="dot-90" transform="rotate(0 32 32)" fill="none" stroke="#188fff" opacity="0.1" stroke-width="5.6" stroke-linecap="round" stroke-miterlimit="10" stroke-dasharray = "0.1, 176" stroke-dashoffset="0" d="M32,32m28,0a28,28 0 1,1 -56,0a28,28 0 1,1 56,0"/>
<path id="dot-120" transform="rotate(30 32 32)" fill="none" stroke="#188fff" opacity="0.1" stroke-width="5.6" stroke-linecap="round" stroke-miterlimit="10" stroke-dasharray = "0.1, 176" stroke-dashoffset="0" d="M32,32m28,0a28,28 0 1,1 -56,0a28,28 0 1,1 56,0"/>
<path id="dot-150" transform="rotate(60 32 32)" fill="none" stroke="#188fff" opacity="0.1" stroke-width="5.6" stroke-linecap="round" stroke-miterlimit="10" stroke-dasharray = "0.1, 176" stroke-dashoffset="0" d="M32,32m28,0a28,28 0 1,1 -56,0a28,28 0 1,1 56,0"/>
<path id="dot-180" transform="rotate(90 32 32)" fill="none" stroke="#188fff" opacity="0.1" stroke-width="5.6" stroke-linecap="round" stroke-miterlimit="10" stroke-dasharray = "0.1, 176" stroke-dashoffset="0" d="M32,32m28,0a28,28 0 1,1 -56,0a28,28 0 1,1 56,0"/>
<path id="dot-210" transform="rotate(120 32 32)" fill="none" stroke="#188fff" opacity="0.1" stroke-width="5.6" stroke-linecap="round" stroke-miterlimit="10" stroke-dasharray = "0.1, 176" stroke-dashoffset="0" d="M32,32m28,0a28,28 0 1,1 -56,0a28,28 0 1,1 56,0"/>
<path id="dot-240" transform="rotate(150 32 32)" fill="none" stroke="#188fff" opacity="0.1" stroke-width="5.6" stroke-linecap="round" stroke-miterlimit="10" stroke-dasharray = "0.1, 176" stroke-dashoffset="0" d="M32,32m28,0a28,28 0 1,1 -56,0a28,28 0 1,1 56,0"/>
<path id="dot-270" transform="rotate(180 32 32)" fill="none" stroke="#188fff" opacity="0.1" stroke-width="5.6" stroke-linecap="round" stroke-miterlimit="10" stroke-dasharray = "0.1, 176" stroke-dashoffset="0" d="M32,32m28,0a28,28 0 1,1 -56,0a28,28 0 1,1 56,0"/>
<path id="dot-300" transform="rotate(210 32 32)" fill="none" stroke="#188fff" opacity="0.1" stroke-width="5.6" stroke-linecap="round" stroke-miterlimit="10" stroke-dasharray = "0.1, 176" stroke-dashoffset="0" d="M32,32m28,0a28,28 0 1,1 -56,0a28,28 0 1,1 56,0"/>
<path id="dot-330" transform="rotate(240 32 32)" fill="none" stroke="#188fff" opacity="0.1" stroke-width="5.6" stroke-linecap="round" stroke-miterlimit="10" stroke-dasharray = "0.1, 176" stroke-dashoffset="0" d="M32,32m28,0a28,28 0 1,1 -56,0a28,28 0 1,1 56,0"/>

<path id="ghost-0" transform="rotate(270 32 32)" fill="none" stroke="#188fff" opacity="0" stroke-width="5.6" stroke-linecap="round" stroke-miterlimit="10" stroke-dasharray = "0.1, 176" stroke-dashoffset="0" d="M32,32m28,0a28,28 0 1,1 -56,0a28,28 0 1,1 56,0"/>
    <animate xlink:href="#ghost-0" attributeType="XML" attributeName="stroke-dasharray" fill="freeze" dur="1.5s" begin="-0.375s" repeatCount="indefinite"
            values = "0.1, 176; 0.1, 176; 12, 168; 3, 174; 0.1, 176; 0.1, 176;" keyTimes = "0; 0.25; 0.4; 0.7; 0.93; 1" />
    <animate xlink:href="#ghost-0" attributeType="XML" attributeName="stroke-dashoffset" dur="1.5s" begin="-0.375s" repeatCount="indefinite"
            values = "0; 0; -10.6; -13.2; -14.8" keyTimes = "0; 0.35; 0.7; .85; 1" />
    <animate xlink:href="#ghost-0" attributeType="XML" attributeName="opacity" dur="1.5s" begin="-0.375s" repeatCount="indefinite"
            values = "0; 0; 1; 1; 0" keyTimes = "0; 0.35; 0.35; .68; 1" />

<path id="ghost-30" transform="rotate(300 32 32)" fill="none" stroke="#188fff" opacity="0" stroke-width="5.6" stroke-linecap="round" stroke-miterlimit="10" stroke-dasharray = "0.1, 176" stroke-dashoffset="0" d="M32,32m28,0a28,28 0 1,1 -56,0a28,28 0 1,1 56,0"/>
    <animate xlink:href="#ghost-30" attributeType="XML" attributeName="stroke-dasharray" fill="freeze" dur="1.5s" begin="-0.25s" repeatCount="indefinite"
            values = "0.1, 176; 0.1, 176; 12, 168; 3, 174; 0.1, 176; 0.1, 176;" keyTimes = "0; 0.25; 0.4; 0.7; 0.93; 1" />
    <animate xlink:href="#ghost-30" attributeType="XML" attributeName="stroke-dashoffset" dur="1.5s" begin="-0.25s" repeatCount="indefinite"
            values = "0; 0; -10.6; -13.2; -14.8" keyTimes = "0; 0.35; 0.7; .85; 1" />
    <animate xlink:href="#ghost-30" attributeType="XML" attributeName="opacity" dur="1.5s" begin="-0.25s" repeatCount="indefinite"
            values = "0; 0; 1; 1; 0" keyTimes = "0; 0.35; 0.35; .68; 1" />

<path id="ghost-60" transform="rotate(330 32 32)" fill="none" stroke="#188fff" opacity="0" stroke-width="5.6" stroke-linecap="round" stroke-miterlimit="10" stroke-dasharray = "0.1, 176" stroke-dashoffset="0" d="M32,32m28,0a28,28 0 1,1 -56,0a28,28 0 1,1 56,0"/>
    <animate xlink:href="#ghost-60" attributeType="XML" attributeName="stroke-dasharray" fill="freeze" dur="1.5s" begin="-0.125s" repeatCount="indefinite"
            values = "0.1, 176; 0.1, 176; 12, 168; 3, 174; 0.1, 176; 0.1, 176;" keyTimes = "0; 0.25; 0.4; 0.7; 0.93; 1" />
    <animate xlink:href="#ghost-60" attributeType="XML" attributeName="stroke-dashoffset" dur="1.5s" begin="-0.125s" repeatCount="indefinite"
            values = "0; 0; -10.6; -13.2; -14.8" keyTimes = "0; 0.35; 0.7; .85; 1" />
    <animate xlink:href="#ghost-60" attributeType="XML" attributeName="opacity" dur="1.5s" begin="-0.125s" repeatCount="indefinite"
            values = "0; 0; 1; 1; 0" keyTimes = "0; 0.35; 0.35; .68; 1" />

<path id="ghost-90" transform="rotate(0 32 32)" fill="none" stroke="#188fff" opacity="0" stroke-width="5.6" stroke-linecap="round" stroke-miterlimit="10" stroke-dasharray = "0.1, 176" stroke-dashoffset="0" d="M32,32m28,0a28,28 0 1,1 -56,0a28,28 0 1,1 56,0"/>
    <animate xlink:href="#ghost-90" attributeType="XML" attributeName="stroke-dasharray" fill="freeze" dur="1.5s" begin="0s" repeatCount="indefinite"
            values = "0.1, 176; 0.1, 176; 12, 168; 3, 174; 0.1, 176; 0.1, 176;" keyTimes = "0; 0.25; 0.4; 0.7; 0.93; 1" />
    <animate xlink:href="#ghost-90" attributeType="XML" attributeName="stroke-dashoffset" dur="1.5s" begin="0s" repeatCount="indefinite"
            values = "0; 0; -10.6; -13.2; -14.8" keyTimes = "0; 0.35; 0.7; .85; 1" />
    <animate xlink:href="#ghost-90" attributeType="XML" attributeName="opacity" dur="1.5s" begin="0s" repeatCount="indefinite"
            values = "0; 0; 1; 1; 0" keyTimes = "0; 0.35; 0.35; .68; 1" />

<path id="ghost-120" transform="rotate(30 32 32)" fill="none" stroke="#188fff" opacity="0" stroke-width="5.6" stroke-linecap="round" stroke-miterlimit="10" stroke-dasharray = "0.1, 176" stroke-dashoffset="0" d="M32,32m28,0a28,28 0 1,1 -56,0a28,28 0 1,1 56,0"/>
    <animate xlink:href="#ghost-120" attributeType="XML" attributeName="stroke-dasharray" fill="freeze" dur="1.5s" begin="0.125s" repeatCount="indefinite"
            values = "0.1, 176; 0.1, 176; 12, 168; 3, 174; 0.1, 176; 0.1, 176;" keyTimes = "0; 0.25; 0.4; 0.7; 0.93; 1" />
    <animate xlink:href="#ghost-120" attributeType="XML" attributeName="stroke-dashoffset" dur="1.5s" begin="0.125s" repeatCount="indefinite"
            values = "0; 0; -10.6; -13.2; -14.8" keyTimes = "0; 0.35; 0.7; .85; 1" />
    <animate xlink:href="#ghost-120" attributeType="XML" attributeName="opacity" dur="1.5s" begin="0.125s" repeatCount="indefinite"
            values = "0; 0; 1; 1; 0" keyTimes = "0; 0.35; 0.35; .68; 1" />

<path id="ghost-150" transform="rotate(60 32 32)" fill="none" stroke="#188fff" opacity="0" stroke-width="5.6" stroke-linecap="round" stroke-miterlimit="10" stroke-dasharray = "0.1, 176" stroke-dashoffset="0" d="M32,32m28,0a28,28 0 1,1 -56,0a28,28 0 1,1 56,0"/>
    <animate xlink:href="#ghost-150" attributeType="XML" attributeName="stroke-dasharray" fill="freeze" dur="1.5s" begin="0.25s" repeatCount="indefinite"
            values = "0.1, 176; 0.1, 176; 12, 168; 3, 174; 0.1, 176; 0.1, 176;" keyTimes = "0; 0.25; 0.4; 0.7; 0.93; 1" />
    <animate xlink:href="#ghost-150" attributeType="XML" attributeName="stroke-dashoffset" dur="1.5s" begin="0.25s" repeatCount="indefinite"
            values = "0; 0; -10.6; -13.2; -14.8" keyTimes = "0; 0.35; 0.7; .85; 1" />
    <animate xlink:href="#ghost-150" attributeType="XML" attributeName="opacity" dur="1.5s" begin="0.25s" repeatCount="indefinite"
            values = "0; 0; 1; 1; 0" keyTimes = "0; 0.35; 0.35; .68; 1" />

<path id="ghost-180" transform="rotate(90 32 32)" fill="none" stroke="#188fff" opacity="0" stroke-width="5.6" stroke-linecap="round" stroke-miterlimit="10" stroke-dasharray = "0.1, 176" stroke-dashoffset="0" d="M32,32m28,0a28,28 0 1,1 -56,0a28,28 0 1,1 56,0"/>
    <animate xlink:href="#ghost-180" attributeType="XML" attributeName="stroke-dasharray" fill="freeze" dur="1.5s" begin="0.375s" repeatCount="indefinite"
            values = "0.1, 176; 0.1, 176; 12, 168; 3, 174; 0.1, 176; 0.1, 176;" keyTimes = "0; 0.25; 0.4; 0.7; 0.93; 1" />
    <animate xlink:href="#ghost-180" attributeType="XML" attributeName="stroke-dashoffset" dur="1.5s" begin="0.375s" repeatCount="indefinite"
            values = "0; 0; -10.6; -13.2; -14.8" keyTimes = "0; 0.35; 0.7; .85; 1" />
    <animate xlink:href="#ghost-180" attributeType="XML" attributeName="opacity" dur="1.5s" begin="0.375s" repeatCount="indefinite"
            values = "0; 0; 1; 1; 0" keyTimes = "0; 0.35; 0.35; .68; 1" />

<path id="ghost-210" transform="rotate(120 32 32)" fill="none" stroke="#188fff" opacity="0" stroke-width="5.6" stroke-linecap="round" stroke-miterlimit="10" stroke-dasharray = "0.1, 176" stroke-dashoffset="0" d="M32,32m28,0a28,28 0 1,1 -56,0a28,28 0 1,1 56,0"/>
    <animate xlink:href="#ghost-210" attributeType="XML" attributeName="stroke-dasharray" fill="freeze" dur="1.5s" begin="0.5s" repeatCount="indefinite"
            values = "0.1, 176; 0.1, 176; 12, 168; 3, 174; 0.1, 176; 0.1, 176;" keyTimes = "0; 0.25; 0.4; 0.7; 0.93; 1" />
    <animate xlink:href="#ghost-210" attributeType="XML" attributeName="stroke-dashoffset" dur="1.5s" begin="0.5s" repeatCount="indefinite"
            values = "0; 0; -10.6; -13.2; -14.8" keyTimes = "0; 0.35; 0.7; .85; 1" />
    <animate xlink:href="#ghost-210" attributeType="XML" attributeName="opacity" dur="1.5s" begin="0.5s" repeatCount="indefinite"
            values = "0; 0; 1; 1; 0" keyTimes = "0; 0.35; 0.35; .68; 1" />

<path id="ghost-240" transform="rotate(150 32 32)" fill="none" stroke="#188fff" opacity="0" stroke-width="5.6" stroke-linecap="round" stroke-miterlimit="10" stroke-dasharray = "0.1, 176" stroke-dashoffset="0" d="M32,32m28,0a28,28 0 1,1 -56,0a28,28 0 1,1 56,0"/>
    <animate xlink:href="#ghost-240" attributeType="XML" attributeName="stroke-dasharray" fill="freeze" dur="1.5s" begin="0.625s" repeatCount="indefinite"
            values = "0.1, 176; 0.1, 176; 12, 168; 3, 174; 0.1, 176; 0.1, 176;" keyTimes = "0; 0.25; 0.4; 0.7; 0.93; 1" />
    <animate xlink:href="#ghost-240" attributeType="XML" attributeName="stroke-dashoffset" dur="1.5s" begin="0.625s" repeatCount="indefinite"
            values = "0; 0; -10.6; -13.2; -14.8" keyTimes = "0; 0.35; 0.7; .85; 1" />
    <animate xlink:href="#ghost-240" attributeType="XML" attributeName="opacity" dur="1.5s" begin="0.625s" repeatCount="indefinite"
            values = "0; 0; 1; 1; 0" keyTimes = "0; 0.35; 0.35; .68; 1" />

<path id="ghost-270" transform="rotate(180 32 32)" fill="none" stroke="#188fff" opacity="0" stroke-width="5.6" stroke-linecap="round" stroke-miterlimit="10" stroke-dasharray = "0.1, 176" stroke-dashoffset="0" d="M32,32m28,0a28,28 0 1,1 -56,0a28,28 0 1,1 56,0"/>
    <animate xlink:href="#ghost-270" attributeType="XML" attributeName="stroke-dasharray" fill="freeze" dur="1.5s" begin="0.75s" repeatCount="indefinite"
            values = "0.1, 176; 0.1, 176; 12, 168; 3, 174; 0.1, 176; 0.1, 176;" keyTimes = "0; 0.25; 0.4; 0.7; 0.93; 1" />
    <animate xlink:href="#ghost-270" attributeType="XML" attributeName="stroke-dashoffset" dur="1.5s" begin="0.75s" repeatCount="indefinite"
            values = "0; 0; -10.6; -13.2; -14.8" keyTimes = "0; 0.35; 0.7; .85; 1" />
    <animate xlink:href="#ghost-270" attributeType="XML" attributeName="opacity" dur="1.5s" begin="0.75s" repeatCount="indefinite"
            values = "0; 0; 1; 1; 0" keyTimes = "0; 0.35; 0.35; .68; 1" />

<path id="ghost-300" transform="rotate(210 32 32)" fill="none" stroke="#188fff" opacity="0" stroke-width="5.6" stroke-linecap="round" stroke-miterlimit="10" stroke-dasharray = "0.1, 176" stroke-dashoffset="0" d="M32,32m28,0a28,28 0 1,1 -56,0a28,28 0 1,1 56,0"/>
    <animate xlink:href="#ghost-300" attributeType="XML" attributeName="stroke-dasharray" fill="freeze" dur="1.5s" begin="0.875s" repeatCount="indefinite"
            values = "0.1, 176; 0.1, 176; 12, 168; 3, 174; 0.1, 176; 0.1, 176;" keyTimes = "0; 0.25; 0.4; 0.7; 0.93; 1" />
    <animate xlink:href="#ghost-300" attributeType="XML" attributeName="stroke-dashoffset" dur="1.5s" begin="0.875s" repeatCount="indefinite"
            values = "0; 0; -10.6; -13.2; -14.8" keyTimes = "0; 0.35; 0.7; .85; 1" />
    <animate xlink:href="#ghost-300" attributeType="XML" attributeName="opacity" dur="1.5s" begin="0.875s" repeatCount="indefinite"
            values = "0; 0; 1; 1; 0" keyTimes = "0; 0.35; 0.35; .68; 1" />

<path id="ghost-330" transform="rotate(240 32 32)" fill="none" stroke="#188fff" opacity="0" stroke-width="5.6" stroke-linecap="round" stroke-miterlimit="10" stroke-dasharray = "0.1, 176" stroke-dashoffset="0" d="M32,32m28,0a28,28 0 1,1 -56,0a28,28 0 1,1 56,0"/>
    <animate xlink:href="#ghost-330" attributeType="XML" attributeName="stroke-dasharray" fill="freeze" dur="1.5s" begin="1s" repeatCount="indefinite"
            values = "0.1, 176; 0.1, 176; 12, 168; 3, 174; 0.1, 176; 0.1, 176;" keyTimes = "0; 0.25; 0.4; 0.7; 0.93; 1" />
    <animate xlink:href="#ghost-330" attributeType="XML" attributeName="stroke-dashoffset" dur="1.5s" begin="1s" repeatCount="indefinite"
            values = "0; 0; -10.6; -13.2; -14.8" keyTimes = "0; 0.35; 0.7; .85; 1" />
    <animate xlink:href="#ghost-330" attributeType="XML" attributeName="opacity" dur="1.5s" begin="1s" repeatCount="indefinite"
            values = "0; 0; 1; 1; 0" keyTimes = "0; 0.35; 0.35; .68; 1" />

<!-- THE WORM -->
<path id="worm" fill="none" stroke="#188fff" opacity="1" stroke-width="6" stroke-linecap="round" stroke-miterlimit="10"  stroke-dasharray = "6, 170" stroke-dashoffset="44" d="M32,32m28,0a28,28 0 1,1 -56,0a28,28 0 1,1 56,0"/>
    <animate xlink:href="#worm" attributeType="XML" attributeName="stroke-dasharray" fill="freeze" dur="3s" begin="0.15s" repeatCount="indefinite"
            values = "8, 168; 50, 142; 8, 168; 50, 142; 8, 168; 50, 142; 8, 168"
            calcMode="spline"
            keyTimes = "0; 0.167; 0.334; 0.5; 0.667; 0.834; 1"
            keySplines="0.3, 0, 0.3, 1; 0, 0, 0.8, 1; 0.3, 0, 0.3, 1; 0, 0, 0.8, 1; 0.3, 0, 0.3, 1; 0, 0, 0.8, 1" />

    <animate xlink:href="#worm" attributeType="XML" attributeName="stroke-dashoffset" dur="3s" begin="0.15s" repeatCount="indefinite"
            values = "44; 37; 0; -7; -44; -51; -88" keyTimes = "0; 0.167; 0.334; 0.5; 0.667; 0.834; 1" />

    <animateTransform xlink:href="#worm" attributeType="XML" attributeName="transform" type="rotate" dur="3s" begin="0.15s" repeatCount="indefinite"
            values="0 32 32; 150 32 32; 300 32 32; 450 32 32" keyTimes = "0; 0.33; 0.67; 1" />
</svg>
