<svg width="11" height="12" fill="none" xmlns="http://www.w3.org/2000/svg"><path d="M1.403 3.374C-.978 5.83.248 8.796.918 9.767c2.981 3.728 7.848 2.252 9.463-.525.403-.73 1.908-4.752-2.028-6.933l-6.95 1.065Z" fill="#F93208"/><path d="m3.048 3.235.405-.787L5.854 2l.94.818-3.747.417Z" fill="#F93208"/><path d="M3.305.442 4.074 0l.579 1.296C4.978.766 5.834-.07 6.789.905c-.405.106-.644.323-.663.71 1.298-.35 2.686.268 2.874.76-.938-.36-2.373.869-3.579.196C5.421 3.83 4.34 3.963 3.716 4c.178-.418.479-.837.126-1.254-.653.683-1.189.892-2.842.39.418-.14 1.272-.953 2.095-.956-.58-.207-1.053-.175-1.527-.123.25-.332 1.041-1.273 2.453-.71L3.305.442Z" fill="#02902E"/></svg>