<svg xmlns="http://www.w3.org/2000/svg" width="47.63" height="57.16" viewBox="0 0 47.63 57.16">
  <title>glyph-apple</title>
  <g id="ac49d9fe-8c2c-423e-8450-c91119c044b0" data-name="fine-print block">
    <path d="M47.63,41.93c-1.87,5.43-7.47,15-13.25,15.15-3.83.08-5.06-2.27-9.44-2.27S19.2,57,15.58,57.15C9.45,57.39,0,43.28,0,31,0,19.66,7.88,14.06,14.76,14c3.69-.07,7.18,2.48,9.43,2.48s6.49-3.07,11-2.62a13.36,13.36,0,0,1,10.45,5.66C36.68,25.3,38.07,37.46,47.63,41.93ZM35.19,0C28.46.27,23,7.33,23.74,13.17,30,13.66,35.93,6.68,35.19,0Z" style="fill: #666"/>
  </g>
</svg>
