<svg xmlns="http://www.w3.org/2000/svg" width="34" height="34" viewBox="0 0 34 34">
  <title>hotmail-ornament</title>
  <g id="bd0fd5ea-877e-4db9-959e-6fc275d16e18" data-name="new artwork">
    <path d="M31.29,17.21l2.07,2.59a3.17,3.17,0,0,1,.47.84,2.8,2.8,0,0,1,.17.95,2.75,2.75,0,0,1-.16.95,3.37,3.37,0,0,1-.43.82,2.93,2.93,0,0,1-.68.63,3.12,3.12,0,0,1-.87.4l-3.19.89c0,.57,0,1.14.09,1.72s.06,1.16.06,1.74a3,3,0,0,1-.22,1.12,3.33,3.33,0,0,1-.62.91,3,3,0,0,1-.92.61,2.69,2.69,0,0,1-1.13.23,3,3,0,0,1-1-.18l-3.09-1.17L20,33A3,3,0,0,1,19,34a2.82,2.82,0,0,1-1.37.35A2.89,2.89,0,0,1,15.16,33l-1.83-2.75-3.09,1.17a3,3,0,0,1-1,.18,2.64,2.64,0,0,1-1.12-.23,2.9,2.9,0,0,1-.92-.61,3.13,3.13,0,0,1-.62-.91,2.8,2.8,0,0,1-.23-1.12q0-.87.06-1.74c0-.58.07-1.15.09-1.72l-3.19-.89a2.88,2.88,0,0,1-.87-.4,2.69,2.69,0,0,1-.67-.63,3.08,3.08,0,0,1-.44-.82,3,3,0,0,1-.16-.95,2.8,2.8,0,0,1,.17-.95,3.17,3.17,0,0,1,.47-.84l2.07-2.59L1.79,14.62a2.78,2.78,0,0,1-.64-1.79,3,3,0,0,1,.16-.95,3.08,3.08,0,0,1,.44-.82,2.52,2.52,0,0,1,.67-.63,2.88,2.88,0,0,1,.87-.4l3.19-.89c0-.57-.05-1.14-.09-1.72s-.06-1.16-.06-1.74a2.8,2.8,0,0,1,.23-1.12,3,3,0,0,1,.62-.91A2.93,2.93,0,0,1,8.1,3a2.8,2.8,0,0,1,1.12-.22,3,3,0,0,1,1,.18l3.09,1.17,1.83-2.75a2.82,2.82,0,0,1,1-1A2.89,2.89,0,0,1,17.58.1,2.82,2.82,0,0,1,19,.45a2.93,2.93,0,0,1,1.05,1l1.82,2.75L24.91,3a3,3,0,0,1,1-.18A2.85,2.85,0,0,1,27.06,3a3,3,0,0,1,.92.62,3.19,3.19,0,0,1,.62.91,3,3,0,0,1,.22,1.12q0,.87-.06,1.74c0,.58-.07,1.15-.09,1.72l3.19.89a3.12,3.12,0,0,1,.87.4,2.73,2.73,0,0,1,.68.63,3.37,3.37,0,0,1,.43.82,2.85,2.85,0,0,1-.48,2.74Zm.57,4.38a.72.72,0,0,0-.17-.45l-3.14-3.93,3.14-3.93a.72.72,0,0,0,.17-.45.7.7,0,0,0-.57-.73l-3.19-.89-1.64-.45c0-.85.08-1.69.14-2.54s.08-1.69.08-2.54a.71.71,0,0,0-.23-.51A.74.74,0,0,0,25.93,5a1.67,1.67,0,0,0-.45.11c-.23.07-.51.16-.83.28l-1,.39-1.06.42-.95.37L21,6.77,20,5.35,18.21,2.57a.7.7,0,0,0-.63-.33.73.73,0,0,0-.64.33L15.12,5.35l-.94,1.42-.64-.25-.94-.37-1.07-.42-1-.39c-.32-.12-.59-.21-.82-.28A1.79,1.79,0,0,0,9.22,5a.71.71,0,0,0-.51.22.68.68,0,0,0-.24.51c0,.85,0,1.7.09,2.54s.1,1.69.13,2.54l-1.64.45-3.19.89a.7.7,0,0,0-.57.73.72.72,0,0,0,.17.45L6.6,17.21,3.46,21.14a.72.72,0,0,0-.17.45.71.71,0,0,0,.57.73l3.19.89,1.64.45c0,.84-.08,1.69-.13,2.54s-.09,1.69-.09,2.54a.68.68,0,0,0,.24.51.71.71,0,0,0,.51.22,1.79,1.79,0,0,0,.46-.11c.23-.07.5-.16.82-.28l1-.39,1.07-.42.94-.37.64-.25.94,1.42,1.82,2.77a.71.71,0,0,0,.64.34.69.69,0,0,0,.63-.34L20,29.07,21,27.65l.64.25.95.37,1.06.42,1,.39c.32.12.6.21.83.28a1.67,1.67,0,0,0,.45.11.74.74,0,0,0,.52-.22.71.71,0,0,0,.23-.51c0-.85,0-1.7-.08-2.54s-.1-1.7-.14-2.54l1.64-.45,3.19-.89A.71.71,0,0,0,31.86,21.59ZM15.44,20l7.8-7.79,1.5,1.5L15.44,23l-5-5.05,1.5-1.5Z" style="fill: #0078d4"/>
  </g>
</svg>
