<svg xmlns="http://www.w3.org/2000/svg" width="114" height="25" viewBox="0 0 114 25">
  <title>ms-wordmark-white</title>
  <g id="ba2a8b2b-e114-47af-b3f8-ab2f6914491a" data-name="masthead constants">
    <path d="M51,4.54A1.45,1.45,0,0,0,50,5a1.37,1.37,0,0,0,0,2A1.46,1.46,0,0,0,51,7.38,1.51,1.51,0,0,0,52.07,7a1.33,1.33,0,0,0,.44-1,1.39,1.39,0,0,0-.43-1A1.49,1.49,0,0,0,51,4.54Zm8.59,4.19a5.35,5.35,0,0,0-4.18,1.63,6,6,0,0,0-1.47,4.15,5,5,0,0,0,5.2,5.19,7.65,7.65,0,0,0,1.64-.17A5.33,5.33,0,0,0,62.12,19V16.73a5.18,5.18,0,0,1-1.22.67,3.43,3.43,0,0,1-1.21.26,3.12,3.12,0,0,1-2.34-.89,3.4,3.4,0,0,1-.86-2.47,3.54,3.54,0,0,1,.9-2.55,3.08,3.08,0,0,1,2.35-.95A3.37,3.37,0,0,1,61,11a4.86,4.86,0,0,1,1.17.65V9.32A4.64,4.64,0,0,0,61,8.9,6.09,6.09,0,0,0,59.59,8.73ZM39.48,15.67h-.06L35.23,4.86H31.6V19.45h2.34V8h0l4.64,11.44h1.68L44.81,8h0V19.45h2.54V4.86H43.91Zm10.28,3.78h2.46V9H49.76Zm36.65-6.13a5.74,5.74,0,0,1-1.49-.75,1.07,1.07,0,0,1-.33-.83A.89.89,0,0,1,85,11a1.89,1.89,0,0,1,1.09-.27,3.9,3.9,0,0,1,1.29.23,5.5,5.5,0,0,1,1.14.56V9.16a5.13,5.13,0,0,0-1.14-.31,7.08,7.08,0,0,0-1.23-.12,4.46,4.46,0,0,0-2.91.91A2.85,2.85,0,0,0,82.09,12a2.8,2.8,0,0,0,.57,1.81,4.79,4.79,0,0,0,1.94,1.28,6.62,6.62,0,0,1,1.56.81,1.11,1.11,0,0,1,.41.86.81.81,0,0,1-.4.78,2.42,2.42,0,0,1-1.23.24,4,4,0,0,1-1.4-.28,6,6,0,0,1-1.45-.74v2.42a6.48,6.48,0,0,0,1.34.4,7.11,7.11,0,0,0,1.44.16,4.87,4.87,0,0,0,3.07-.89,2.89,2.89,0,0,0,1.13-2.37,2.79,2.79,0,0,0-.59-1.79A5.17,5.17,0,0,0,86.41,13.32ZM114,11V9h-2.49V5.89L109,6.64V9h-3.67V7.73a2.12,2.12,0,0,1,.42-1.43A1.49,1.49,0,0,1,107,5.82a2.15,2.15,0,0,1,.7.1,2.69,2.69,0,0,1,.43.17V4a3.23,3.23,0,0,0-.61-.14,6.22,6.22,0,0,0-.8-.05A3.74,3.74,0,0,0,104,4.84a3.63,3.63,0,0,0-1.07,2.7V9h-1.75v2h1.75v8.45h2.49V11H109v5.37a3.56,3.56,0,0,0,.77,2.5,3.08,3.08,0,0,0,2.34.83,5.63,5.63,0,0,0,1.07-.11,3.67,3.67,0,0,0,.78-.24v-2a1.92,1.92,0,0,1-.52.24,1.67,1.67,0,0,1-.52.11,1.41,1.41,0,0,1-1.1-.4,2,2,0,0,1-.35-1.36V11ZM69.13,8.82a2.76,2.76,0,0,0-1.64.48,2.82,2.82,0,0,0-1,1.34h0V9H64V19.45h2.46V14.17a3.65,3.65,0,0,1,.63-2.35,1.88,1.88,0,0,1,1.53-.76,3,3,0,0,1,.9.12,2.67,2.67,0,0,1,.56.27V9a2.58,2.58,0,0,0-.4-.1A2.75,2.75,0,0,0,69.13,8.82Zm26.53-.07a5.41,5.41,0,0,0-4.07,1.51,5.69,5.69,0,0,0-1.46,4.11,5.27,5.27,0,0,0,1.43,3.9,5.22,5.22,0,0,0,3.86,1.43,5.33,5.33,0,0,0,4-1.5,5.6,5.6,0,0,0,1.46-4,5.49,5.49,0,0,0-1.38-3.94A5,5,0,0,0,95.66,8.75Zm2,8a2.48,2.48,0,0,1-2,.87,2.62,2.62,0,0,1-2.12-.87,3.7,3.7,0,0,1-.75-2.5,3.92,3.92,0,0,1,.75-2.57,2.58,2.58,0,0,1,2.1-.9,2.52,2.52,0,0,1,2,.86,3.88,3.88,0,0,1,.73,2.55A4,4,0,0,1,97.61,16.79Zm-21.89-8a5.39,5.39,0,0,0-4.07,1.51,5.65,5.65,0,0,0-1.47,4.11,5.27,5.27,0,0,0,1.43,3.9,5.24,5.24,0,0,0,3.86,1.43,5.33,5.33,0,0,0,4-1.5,5.57,5.57,0,0,0,1.47-4,5.49,5.49,0,0,0-1.38-3.94A5,5,0,0,0,75.72,8.75Zm1.94,8a2.47,2.47,0,0,1-2,.87,2.63,2.63,0,0,1-2.13-.87,3.7,3.7,0,0,1-.74-2.5,4,4,0,0,1,.74-2.57,2.59,2.59,0,0,1,2.11-.9,2.52,2.52,0,0,1,2,.86,3.82,3.82,0,0,1,.73,2.55A4,4,0,0,1,77.66,16.79ZM0,24.31H11.55V12.76H0ZM0,11.55H11.55V0H0ZM12.76,24.31H24.31V12.76H12.76Zm0-12.76H24.31V0H12.76Z" style="fill: #fff"/>
  </g>
</svg>
