<svg xmlns="http://www.w3.org/2000/svg" width="41" height="33" viewBox="0 0 41 33">
  <title>security-feature-attachments</title>
  <g id="ab7d24c4-1850-4872-a9a4-236d0598df06" data-name="security">
    <path d="M.67.34H41.14V15.52H38.61v-10L33.79,8H28.2L38.32,2.87H3.49L20.9,11.59V14.4L3.2,5.56V23.11H20.9v2.53H.67ZM38.61,18.05h2.53v6.33a8.55,8.55,0,0,1-.7,3.45,9.07,9.07,0,0,1-1.9,2.8,9,9,0,0,1-2.8,1.9,8.85,8.85,0,0,1-6.9,0,8.9,8.9,0,0,1-4.7-4.7,8.56,8.56,0,0,1-.71-3.45V16.79a6.1,6.1,0,0,1,.5-2.45,6.35,6.35,0,0,1,1.35-2,6.53,6.53,0,0,1,2-1.36,6,6,0,0,1,2.46-.51,5.94,5.94,0,0,1,2.45.51,6.5,6.5,0,0,1,3.37,3.37,6.1,6.1,0,0,1,.5,2.45v6.32a3.83,3.83,0,0,1-.29,1.48A3.89,3.89,0,0,1,35,25.8a4,4,0,0,1-1.21.81,3.8,3.8,0,0,1-3,0,3.78,3.78,0,0,1-1.21-.81,3.89,3.89,0,0,1-.81-1.21,3.66,3.66,0,0,1-.3-1.48V18.05H31v5.06a1.27,1.27,0,0,0,2.53,0V16.79a3.92,3.92,0,0,0-.29-1.49,3.85,3.85,0,0,0-.81-1.2,4,4,0,0,0-1.21-.81,3.8,3.8,0,0,0-3,0,3.89,3.89,0,0,0-1.21.81,3.85,3.85,0,0,0-.81,1.2,3.74,3.74,0,0,0-.3,1.49v7.59a6.18,6.18,0,0,0,.5,2.46,6.35,6.35,0,0,0,1.35,2,6.53,6.53,0,0,0,2,1.36,6.4,6.4,0,0,0,4.91,0,6.5,6.5,0,0,0,3.37-3.37,6.18,6.18,0,0,0,.5-2.46Z" style="fill: #fff"/>
  </g>
</svg>
