<svg xmlns="http://www.w3.org/2000/svg" width="48" height="36" viewBox="0 0 48 36">
  <title>security-feature-onedrive</title>
  <g id="b0e0e7a3-4109-4bde-aa7f-88b288e0efea" data-name="security">
    <path d="M47.51-.07v35.4H.3V5.83H19.48l5.9-5.9ZM15.19,26.48A7.53,7.53,0,0,1,15,24.93a4.85,4.85,0,0,1,1.24-3.45,6,6,0,0,1,3.23-1.8,7.22,7.22,0,0,1,2.42-3.94,6.85,6.85,0,0,1,4.43-1.41,6.76,6.76,0,0,1,2.73.55,6.69,6.69,0,0,1,2.27,1.64q.34-.09.69-.15a5.4,5.4,0,0,1,.69-.08,3.37,3.37,0,0,0,0-.44v-.44a2.56,2.56,0,0,0-.1-.64,4.67,4.67,0,0,0-.2-.6A7,7,0,0,0,31,11.61,6.73,6.73,0,0,0,28.51,10,6.48,6.48,0,0,0,26,9.47a6,6,0,0,0-3.28.94,6.88,6.88,0,0,0-2.33,2.49,3.66,3.66,0,0,0-1.19-.48A5.51,5.51,0,0,0,18,12.26a4.87,4.87,0,0,0-2,.42,5.51,5.51,0,0,0-1.62,1.14,5.23,5.23,0,0,0-1.09,1.69,5.34,5.34,0,0,0-.39,2v.26a2.45,2.45,0,0,0,0,.27,4.1,4.1,0,0,0-1.54.43,3.6,3.6,0,0,0-1.17,1,4,4,0,0,0-.74,1.33,4.89,4.89,0,0,0-.26,1.58,3.69,3.69,0,0,0,.34,1.56,4.25,4.25,0,0,0,.9,1.31,4.33,4.33,0,0,0,1.31.91,3.7,3.7,0,0,0,1.56.35Zm22.22,2.95a2.66,2.66,0,0,0,1.21-.29,3.31,3.31,0,0,0,1-.76,3.63,3.63,0,0,0,.65-1.09,3.48,3.48,0,0,0,.23-1.23,4,4,0,0,0-.2-1.24,3.35,3.35,0,0,0-.56-1.06,2.9,2.9,0,0,0-2.12-1.09v-.32a5.37,5.37,0,0,0-.3-1.81,4.2,4.2,0,0,0-.87-1.46,4,4,0,0,0-1.38-1,4.53,4.53,0,0,0-1.83-.36,6,6,0,0,0-1.21.14,3.92,3.92,0,0,0-1.14.41A5.87,5.87,0,0,0,29,16.46a5.1,5.1,0,0,0-2.58-.65,6,6,0,0,0-2.14.37,5.36,5.36,0,0,0-1.73,1.07,5.47,5.47,0,0,0-1.2,1.63A5.82,5.82,0,0,0,20.75,21a5.53,5.53,0,0,0-1.63.3,4.5,4.5,0,0,0-1.35.78,3.83,3.83,0,0,0-.92,1.24,3.7,3.7,0,0,0-.34,1.62,4.6,4.6,0,0,0,1.14,3.3,4.29,4.29,0,0,0,3.26,1.2Z" style="fill: #fff"/>
  </g>
</svg>
