<svg xmlns="http://www.w3.org/2000/svg" width="42" height="44" viewBox="0 0 42 44">
  <title>security-feature-encryption</title>
  <g id="b534a336-cd61-4f76-9ae8-44497d78a86d" data-name="security">
    <path d="M41.54,5.62v11a22.51,22.51,0,0,1-.82,6.12,25.07,25.07,0,0,1-2.26,5.44A27.94,27.94,0,0,1,35.06,33a43.33,43.33,0,0,1-4.26,4.2A54.1,54.1,0,0,1,26,40.86C24.3,42,22.61,43.07,20.9,44.07q-2.55-1.5-5.08-3.21A52.69,52.69,0,0,1,11,37.18,42.26,42.26,0,0,1,6.75,33a27.94,27.94,0,0,1-3.4-4.79,24.58,24.58,0,0,1-2.26-5.44,22.51,22.51,0,0,1-.82-6.12v-11c1.19,0,2.35,0,3.46-.12A24.76,24.76,0,0,0,7,5a19.9,19.9,0,0,0,3.14-1,19.12,19.12,0,0,0,3.09-1.62A15.25,15.25,0,0,1,16.89.69a13.35,13.35,0,0,1,4-.57A15.38,15.38,0,0,1,23,.26a13.38,13.38,0,0,1,1.92.43,13.81,13.81,0,0,1,1.84.73q.9.45,1.83,1a19.12,19.12,0,0,0,3.09,1.62,19.9,19.9,0,0,0,3.14,1,24.76,24.76,0,0,0,3.27.48C39.19,5.58,40.35,5.62,41.54,5.62Zm-2.75,11V8.33a26.72,26.72,0,0,1-6.14-1A21.44,21.44,0,0,1,27,4.7,11.62,11.62,0,0,0,24.1,3.32a10.76,10.76,0,0,0-3.2-.45,10.74,10.74,0,0,0-3.19.45A11.62,11.62,0,0,0,14.8,4.7,21.44,21.44,0,0,1,9.16,7.3,26.72,26.72,0,0,1,3,8.33v8.3a18.89,18.89,0,0,0,.72,5.24,23,23,0,0,0,2,4.78,25.36,25.36,0,0,0,3,4.3,40.39,40.39,0,0,0,3.69,3.83,44.17,44.17,0,0,0,4.16,3.32c1.46,1,2.91,1.95,4.37,2.79,1.47-.84,2.92-1.78,4.38-2.79a44.17,44.17,0,0,0,4.16-3.32A41.67,41.67,0,0,0,33.13,31a25.36,25.36,0,0,0,3-4.3,23.57,23.57,0,0,0,2-4.78A19.27,19.27,0,0,0,38.79,16.63ZM20.9,7a6.48,6.48,0,0,1,2.67.55,7,7,0,0,1,3.66,3.66,6.48,6.48,0,0,1,.55,2.67v2.75h2.75V30.38H11.28V16.63H14V13.88A6.84,6.84,0,0,1,16,9a6.94,6.94,0,0,1,2.19-1.48A6.55,6.55,0,0,1,20.9,7Zm6.88,20.63V19.38H14v8.25Zm-11-11H25V13.88a4.09,4.09,0,0,0-.32-1.61A4.3,4.3,0,0,0,23.83,11a4.25,4.25,0,0,0-1.31-.88,4.24,4.24,0,0,0-3.23,0A4.25,4.25,0,0,0,18,11a4.3,4.3,0,0,0-.88,1.32,4.09,4.09,0,0,0-.32,1.61Z" style="fill: #fff"/>
  </g>
</svg>
