<svg width="317" height="191" fill="none" xmlns="http://www.w3.org/2000/svg"><path opacity=".7" fill-rule="evenodd" clip-rule="evenodd" d="M5.5 20.8a3.7 3.7 0 1 0 0 7.4 3.7 3.7 0 0 0 0-7.4zM.2 24.4a5.2 5.2 0 1 1 10.5 0 5.2 5.2 0 0 1-10.4 0zM305 16l11.5 8-11.5 9V16zm2 3.9v9l6-4.9-6-4.1zM299 71.4a6.6 6.6 0 1 0 0 13.2 6.6 6.6 0 0 0 0-13.2zm-8 6.6a8 8 0 1 1 16 0 8 8 0 0 1-16 0z" fill="#535A60"/><path opacity=".7" d="M19 112.6a3.6 3.6 0 1 1 7.2 0 3.6 3.6 0 0 1-7.2 0z" fill="#535A60"/><path opacity=".7" fill-rule="evenodd" clip-rule="evenodd" d="M10 63H2v-2h10v11h-2v-9z" fill="#535A60"/><g opacity=".7" fill-rule="evenodd" clip-rule="evenodd" fill="#535A60"><path d="M285.8 36.8V40h-1.6v-3.3H281v-1.5h3.3V32h1.4v3.3h3.3v1.5h-3.3z"/><path d="M284 31h2v4h4v2h-4v4h-2v-4h-4v-2h4v-4z"/></g><g opacity=".7" fill-rule="evenodd" clip-rule="evenodd" fill="#535A60"><path d="M24.8 140.8v3.2h-1.6v-3.3H20v-1.4h3.3V136h1.4v3.3H28v1.4h-3.3z"/><path d="M23 135h2v4h4v2h-4v4h-2v-4h-4v-2h4v-4z"/></g><path opacity=".7" d="M12.5 170a4.5 4.5 0 1 0 0-9 4.5 4.5 0 0 0 0 9z" stroke="#535A60" stroke-width="1.5" stroke-miterlimit="10"/><path opacity=".5" d="M275.8 59.2c-6.1-24.7-37.7-43.6-65.3-50.4C182.9 2 159.3 7.3 128 5.4 96.6 3.2 57.4-6.3 40 6.7c-17.5 13-13 48.6-4.4 79.7 8.8 31.1 21.9 57.7 44.1 77 22.5 19.2 54 31 82.7 26.7 28.9-4.3 54.8-24.6 77.5-50.2 22.8-25.5 42-56 36-80.7h-.1z" fill="#535A60"/><g opacity=".7" fill-rule="evenodd" clip-rule="evenodd" fill="#535A60"><path d="M296.8 157.8v3.2h-1.6v-3.3H292v-1.4h3.3V153h1.4v3.3h3.3v1.4h-3.3z"/><path d="M295 152h2v4h4v2h-4v4h-2v-4h-4v-2h4v-4z"/></g><circle opacity=".7" cx="283.5" cy="128.5" r="3.5" fill="#535A60"/></svg>