<svg width="150" height="150" viewBox="0 0 150 150" fill="none" xmlns="http://www.w3.org/2000/svg">
<g clip-path="url(#clip0_1465_56361)">
<g clip-path="url(#clip1_1465_56361)">
<rect width="150" height="150" fill="white"/>
<g clip-path="url(#clip2_1465_56361)">
<path d="M150 0H0V150H150V0Z" fill="#DE7176"/>
</g>
</g>
<path d="M78.4863 99H67.7949L63.5449 87.9434H44.0879L40.0703 99H29.6445L48.6035 50.3242H58.9961L78.4863 99ZM60.3906 79.7422L53.6836 61.6797L47.1094 79.7422H60.3906ZM106.875 99V93.7207C105.591 95.6022 103.898 97.0853 101.795 98.1699C99.7142 99.2546 97.5117 99.7969 95.1875 99.7969C92.819 99.7969 90.694 99.2767 88.8125 98.2363C86.931 97.196 85.5697 95.735 84.7285 93.8535C83.8874 91.972 83.4668 89.3711 83.4668 86.0508V63.7383H92.7969V79.9414C92.7969 84.8997 92.9629 87.9434 93.2949 89.0723C93.6491 90.179 94.2799 91.0645 95.1875 91.7285C96.0951 92.3704 97.2461 92.6914 98.6406 92.6914C100.234 92.6914 101.662 92.2598 102.924 91.3965C104.186 90.5111 105.049 89.4264 105.514 88.1426C105.979 86.8366 106.211 83.6602 106.211 78.6133V63.7383H115.541V99H106.875Z" fill="white"/>
</g>
<defs>
<clipPath id="clip0_1465_56361">
<rect width="150" height="150" rx="7" fill="white"/>
</clipPath>
<clipPath id="clip1_1465_56361">
<rect width="150" height="150" fill="white"/>
</clipPath>
<clipPath id="clip2_1465_56361">
<rect width="150.485" height="150" fill="white"/>
</clipPath>
</defs>
</svg>
