<svg xmlns="http://www.w3.org/2000/svg" fill="none" width="254" height="254" viewBox="0 0 254 254"><g clip-path="url(#a)"><path d="M0 0h254v254H0z" fill="#fff"/><path d="M0 0h254v254H0z" fill="#fff"/><g clip-path="url(#b)"><path d="M85.978 119.428c-.06 1.865.182 3.726.715 5.515a28.658 28.658 0 0 0 2.03 4.434c.273.425.429.913.451 1.416a2.376 2.376 0 0 1-1.203 1.826l-3.76 2.608a3.134 3.134 0 0 1-1.654.559 2.612 2.612 0 0 1-1.843-.857 14.154 14.154 0 0 1-2.256-2.869c-.626-1.043-1.266-2.285-1.917-3.726a23.045 23.045 0 0 1-8.19 6.397 23.254 23.254 0 0 1-10.197 2.173 17.195 17.195 0 0 1-6.694-.967 17.09 17.09 0 0 1-5.789-3.467 15.895 15.895 0 0 1-3.553-5.486 15.781 15.781 0 0 1-1.034-6.438c-.1-2.384.342-4.76 1.292-6.952a15.962 15.962 0 0 1 4.198-5.717 22.927 22.927 0 0 1 15.34-4.806 47.27 47.27 0 0 1 6.618.484c2.306.323 4.7.77 7.182 1.342v-4.546a13.516 13.516 0 0 0-2.97-9.912 14.42 14.42 0 0 0-10.19-2.869 29.242 29.242 0 0 0-6.73.82 48.373 48.373 0 0 0-6.731 2.124c-.708.322-1.436.596-2.181.82h-.978c-.877 0-1.316-.646-1.316-1.938v-2.944a4.03 4.03 0 0 1 .452-2.16 4.508 4.508 0 0 1 1.767-1.305 41.15 41.15 0 0 1 7.858-2.795A38.642 38.642 0 0 1 64.434 79a22.699 22.699 0 0 1 16.356 5.03 20.415 20.415 0 0 1 4.169 7.094 20.285 20.285 0 0 1 1.02 8.146v20.158Zm-25.38 9.428a20.298 20.298 0 0 0 6.468-1.156 13.659 13.659 0 0 0 5.903-3.986 9.744 9.744 0 0 0 2.105-3.727 20.79 20.79 0 0 0 .602-5.365v-2.609a54.69 54.69 0 0 0-5.753-1.043 46.946 46.946 0 0 0-5.865-.372 14.535 14.535 0 0 0-9.288 2.496 8.727 8.727 0 0 0-2.27 3.114 8.651 8.651 0 0 0-.7 3.779 8.683 8.683 0 0 0 .463 3.514 8.732 8.732 0 0 0 1.83 3.044 9.03 9.03 0 0 0 3.021 1.797c1.116.396 2.3.571 3.484.514Zm50.196 6.707a3.79 3.79 0 0 1-2.406-.597 4.822 4.822 0 0 1-1.316-2.422L92.446 84.626a11.095 11.095 0 0 1-.564-2.496 1.33 1.33 0 0 1 .38-1.15 1.355 1.355 0 0 1 1.161-.378h6.129a3.786 3.786 0 0 1 2.444.596 5.206 5.206 0 0 1 1.241 2.422l10.49 40.988 9.739-40.988a4.345 4.345 0 0 1 1.24-2.384 4.168 4.168 0 0 1 2.52-.597h5.038a4.165 4.165 0 0 1 2.519.597 4.339 4.339 0 0 1 1.203 2.422l9.814 41.509 10.829-41.51a5.16 5.16 0 0 1 1.278-2.421 3.788 3.788 0 0 1 2.444-.597h5.791a1.362 1.362 0 0 1 1.16.378 1.337 1.337 0 0 1 .381 1.15 5.06 5.06 0 0 1 0 .969c-.12.518-.271 1.028-.451 1.528l-15.04 47.918a4.83 4.83 0 0 1-1.316 2.422 3.788 3.788 0 0 1-2.406.596h-5.49a3.783 3.783 0 0 1-2.519-.634 4.675 4.675 0 0 1-1.203-2.496l-9.739-39.907-9.625 39.87a4.676 4.676 0 0 1-1.204 2.496 3.789 3.789 0 0 1-2.519.634h-5.377Zm80.314 1.639a42.822 42.822 0 0 1-9.626-1.08 28.148 28.148 0 0 1-7.219-2.497 3.766 3.766 0 0 1-1.678-1.387 3.705 3.705 0 0 1-.615-2.078v-3.13c0-1.292.476-1.938 1.428-1.938.399.006.794.082 1.166.224l1.579.633a33.147 33.147 0 0 0 6.881 2.161c2.474.504 4.994.754 7.52.746 3.18.186 6.348-.524 9.137-2.05a6.58 6.58 0 0 0 2.423-2.487 6.5 6.5 0 0 0 .81-3.363 5.947 5.947 0 0 0-.407-2.329 5.981 5.981 0 0 0-1.285-1.993 16.188 16.188 0 0 0-6.542-3.279l-9.062-2.832a19.382 19.382 0 0 1-9.738-6.26 14.597 14.597 0 0 1-3.121-8.98 13.693 13.693 0 0 1 1.692-6.893 16.708 16.708 0 0 1 4.475-5.105 19.87 19.87 0 0 1 6.392-3.204c2.554-.73 5.2-1.095 7.858-1.081a33.662 33.662 0 0 1 4.211.26c1.429.175 2.783.41 4.061.709 1.278.298 2.469.62 3.572.969.908.282 1.789.643 2.632 1.08.712.38 1.339.9 1.842 1.528.398.609.595 1.325.564 2.05v2.943c0 1.292-.476 1.938-1.428 1.938a6.667 6.667 0 0 1-2.407-.746 29.331 29.331 0 0 0-12.032-2.384 16.554 16.554 0 0 0-8.309 1.75 5.981 5.981 0 0 0-2.273 2.341 5.917 5.917 0 0 0-.698 3.174c-.019.82.136 1.635.453 2.392a5.88 5.88 0 0 0 1.39 2.005 18.616 18.616 0 0 0 6.88 3.428l8.874 2.646a19.122 19.122 0 0 1 9.663 5.962 13.927 13.927 0 0 1 2.933 8.942 15.578 15.578 0 0 1-1.654 7.192 16.426 16.426 0 0 1-4.55 5.477 20.492 20.492 0 0 1-6.956 3.466 31.293 31.293 0 0 1-8.836 1.08Z" fill="#252F3E"/><path d="M202.914 167.719c-20.567 15.054-50.421 23.065-75.914 23.065-34.395.224-67.63-12.309-93.173-35.138-1.917-1.714-.225-4.061 2.106-2.757 28.335 16.063 60.416 24.502 93.06 24.481a186.556 186.556 0 0 0 70.951-14.42c3.459-1.454 6.392 2.273 2.97 4.769Z" fill="#F90" fill-rule="evenodd" clip-rule="evenodd"/><path d="M211.487 158.031c-2.632-3.353-17.409-1.565-24.026-.782-1.993.223-2.331-1.491-.527-2.758 11.769-8.197 31.096-5.85 33.314-3.092 2.218 2.757-.602 21.947-11.618 31.113-1.692 1.416-3.309.671-2.557-1.193 2.481-6.185 8.046-19.934 5.414-23.288Z" fill="#F90" fill-rule="evenodd" clip-rule="evenodd"/><path d="M85.978 119.428c-.06 1.865.182 3.726.715 5.515a28.658 28.658 0 0 0 2.03 4.434c.273.425.429.913.451 1.416a2.376 2.376 0 0 1-1.203 1.826l-3.76 2.608a3.134 3.134 0 0 1-1.654.559 2.612 2.612 0 0 1-1.843-.857 14.154 14.154 0 0 1-2.256-2.869c-.626-1.043-1.266-2.285-1.917-3.726a23.045 23.045 0 0 1-8.19 6.397 23.254 23.254 0 0 1-10.197 2.173 17.195 17.195 0 0 1-6.694-.967 17.09 17.09 0 0 1-5.789-3.467 15.895 15.895 0 0 1-3.553-5.486 15.781 15.781 0 0 1-1.034-6.438c-.1-2.384.342-4.76 1.292-6.952a15.962 15.962 0 0 1 4.198-5.717 22.927 22.927 0 0 1 15.34-4.806 47.27 47.27 0 0 1 6.618.484c2.306.323 4.7.77 7.182 1.342v-4.546a13.516 13.516 0 0 0-2.97-9.912 14.42 14.42 0 0 0-10.19-2.869 29.242 29.242 0 0 0-6.73.82 48.373 48.373 0 0 0-6.731 2.124c-.708.322-1.436.596-2.181.82h-.978c-.877 0-1.316-.646-1.316-1.938v-2.944a4.03 4.03 0 0 1 .452-2.16 4.508 4.508 0 0 1 1.767-1.305 41.15 41.15 0 0 1 7.858-2.795A38.642 38.642 0 0 1 64.434 79a22.699 22.699 0 0 1 16.356 5.03 20.415 20.415 0 0 1 4.169 7.094 20.285 20.285 0 0 1 1.02 8.146v20.158Zm-25.38 9.428a20.298 20.298 0 0 0 6.468-1.156 13.659 13.659 0 0 0 5.903-3.986 9.744 9.744 0 0 0 2.105-3.727 20.79 20.79 0 0 0 .602-5.365v-2.609a54.69 54.69 0 0 0-5.753-1.043 46.946 46.946 0 0 0-5.865-.372 14.535 14.535 0 0 0-9.288 2.496 8.727 8.727 0 0 0-2.27 3.114 8.651 8.651 0 0 0-.7 3.779 8.683 8.683 0 0 0 .463 3.514 8.732 8.732 0 0 0 1.83 3.044 9.03 9.03 0 0 0 3.021 1.797c1.116.396 2.3.571 3.484.514Zm50.196 6.707a3.79 3.79 0 0 1-2.406-.597 4.822 4.822 0 0 1-1.316-2.422L92.446 84.626a11.095 11.095 0 0 1-.564-2.496 1.33 1.33 0 0 1 .38-1.15 1.355 1.355 0 0 1 1.161-.378h6.129a3.786 3.786 0 0 1 2.444.596 5.206 5.206 0 0 1 1.241 2.422l10.49 40.988 9.739-40.988a4.345 4.345 0 0 1 1.24-2.384 4.168 4.168 0 0 1 2.52-.597h5.038a4.165 4.165 0 0 1 2.519.597 4.339 4.339 0 0 1 1.203 2.422l9.814 41.509 10.829-41.51a5.16 5.16 0 0 1 1.278-2.421 3.788 3.788 0 0 1 2.444-.597h5.791a1.362 1.362 0 0 1 1.16.378 1.337 1.337 0 0 1 .381 1.15 5.06 5.06 0 0 1 0 .969c-.12.518-.271 1.028-.451 1.528l-15.04 47.918a4.83 4.83 0 0 1-1.316 2.422 3.788 3.788 0 0 1-2.406.596h-5.49a3.783 3.783 0 0 1-2.519-.634 4.675 4.675 0 0 1-1.203-2.496l-9.739-39.907-9.625 39.87a4.676 4.676 0 0 1-1.204 2.496 3.789 3.789 0 0 1-2.519.634h-5.377Zm80.314 1.639a42.822 42.822 0 0 1-9.626-1.08 28.148 28.148 0 0 1-7.219-2.497 3.766 3.766 0 0 1-1.678-1.387 3.705 3.705 0 0 1-.615-2.078v-3.13c0-1.292.476-1.938 1.428-1.938.399.006.794.082 1.166.224l1.579.633a33.147 33.147 0 0 0 6.881 2.161c2.474.504 4.994.754 7.52.746 3.18.186 6.348-.524 9.137-2.05a6.58 6.58 0 0 0 2.423-2.487 6.5 6.5 0 0 0 .81-3.363 5.947 5.947 0 0 0-.407-2.329 5.981 5.981 0 0 0-1.285-1.993 16.188 16.188 0 0 0-6.542-3.279l-9.062-2.832a19.382 19.382 0 0 1-9.738-6.26 14.597 14.597 0 0 1-3.121-8.98 13.693 13.693 0 0 1 1.692-6.893 16.708 16.708 0 0 1 4.475-5.105 19.87 19.87 0 0 1 6.392-3.204c2.554-.73 5.2-1.095 7.858-1.081a33.662 33.662 0 0 1 4.211.26c1.429.175 2.783.41 4.061.709 1.278.298 2.469.62 3.572.969.908.282 1.789.643 2.632 1.08.712.38 1.339.9 1.842 1.528.398.609.595 1.325.564 2.05v2.943c0 1.292-.476 1.938-1.428 1.938a6.667 6.667 0 0 1-2.407-.746 29.331 29.331 0 0 0-12.032-2.384 16.554 16.554 0 0 0-8.309 1.75 5.981 5.981 0 0 0-2.273 2.341 5.917 5.917 0 0 0-.698 3.174c-.019.82.136 1.635.453 2.392a5.88 5.88 0 0 0 1.39 2.005 18.616 18.616 0 0 0 6.88 3.428l8.874 2.646a19.122 19.122 0 0 1 9.663 5.962 13.927 13.927 0 0 1 2.933 8.942 15.578 15.578 0 0 1-1.654 7.192 16.426 16.426 0 0 1-4.55 5.477 20.492 20.492 0 0 1-6.956 3.466 31.293 31.293 0 0 1-8.836 1.08Z" fill="#252F3E"/><path d="M202.914 167.719c-20.567 15.054-50.421 23.065-75.914 23.065-34.395.224-67.63-12.309-93.173-35.138-1.917-1.714-.225-4.061 2.106-2.757 28.335 16.063 60.416 24.502 93.06 24.481a186.556 186.556 0 0 0 70.951-14.42c3.459-1.454 6.392 2.273 2.97 4.769Z" fill="#F90" fill-rule="evenodd" clip-rule="evenodd"/><path d="M211.487 158.031c-2.632-3.353-17.409-1.565-24.026-.782-1.993.223-2.331-1.491-.527-2.758 11.769-8.197 31.096-5.85 33.314-3.092 2.218 2.757-.602 21.947-11.618 31.113-1.692 1.416-3.309.671-2.557-1.193 2.481-6.185 8.046-19.934 5.414-23.288Z" fill="#F90" fill-rule="evenodd" clip-rule="evenodd"/></g></g><defs><clipPath id="a"><path d="M0 0h254v254H0z" fill="#fff"/></clipPath><clipPath id="b"><path d="M0 0h188v111.784H0z" fill="#fff" transform="translate(33 79)"/></clipPath></defs></svg>