<svg fill="none" height="64" viewBox="0 0 64 64" width="64" xmlns="http://www.w3.org/2000/svg" xmlns:xlink="http://www.w3.org/1999/xlink"><clipPath id="a"><rect height="64" rx="5" width="64"/></clipPath><clipPath id="b"><path d="m0 0h64v64h-64z"/></clipPath><clipPath id="c"><path d="m0 0h64.2069v64h-64.2069z"/></clipPath><g clip-path="url(#a)"><g clip-path="url(#b)"><path d="m0 0h64v64h-64z" fill="#ac2726"/><g clip-path="url(#c)"><path d="m63.9999 0h-63.99997629v64h63.99997629z" fill="#9b4544"/></g></g><g fill="#fff"><path d="m22.8613 21.6309 3.9239 1.2441c-.6016 2.1875-1.6042 3.8145-3.0079 4.8809-1.3945 1.0573-3.1673 1.5859-5.3183 1.5859-2.6615 0-4.849-.9069-6.5625-2.7207-1.7136-1.8229-2.57033-4.3112-2.57033-7.4649 0-3.3359.86133-5.9244 2.58403-7.7656 1.7226-1.85024 3.9876-2.77537 6.7949-2.77537 2.4518 0 4.4433.72461 5.9746 2.17387.9114.8567 1.595 2.0872 2.0508 3.6914l-4.0059.957c-.237-1.0391-.7337-1.8594-1.4902-2.4609-.7474-.6016-1.6589-.9024-2.7344-.9024-1.4857 0-2.6934.5332-3.623 1.5996-.9206 1.0664-1.3809 2.7936-1.3809 5.1817 0 2.5338.4557 4.3385 1.3672 5.414.9114 1.0756 2.0963 1.6133 3.5547 1.6133 1.0755 0 2.0006-.3418 2.7754-1.0254.7747-.6836 1.3307-1.7591 1.6679-3.2265zm7.2871 7.3691v-20.04297h4.0469v20.04297z"/><path d="m22.8613 47.6309 3.9239 1.2441c-.6016 2.1875-1.6042 3.8145-3.0079 4.8809-1.3945 1.0573-3.1673 1.5859-5.3183 1.5859-2.6615 0-4.849-.9069-6.5625-2.7207-1.7136-1.8229-2.57033-4.3112-2.57033-7.4649 0-3.3359.86133-5.9244 2.58403-7.7656 1.7226-1.8502 3.9876-2.7754 6.7949-2.7754 2.4518 0 4.4433.7246 5.9746 2.1739.9114.8567 1.595 2.0872 2.0508 3.6914l-4.0059.957c-.237-1.0391-.7337-1.8594-1.4902-2.4609-.7474-.6016-1.6589-.9024-2.7344-.9024-1.4857 0-2.6934.5332-3.623 1.5996-.9206 1.0664-1.3809 2.7936-1.3809 5.1817 0 2.5338.4557 4.3385 1.3672 5.414.9114 1.0756 2.0963 1.6133 3.5547 1.6133 1.0755 0 2.0006-.3418 2.7754-1.0254.7747-.6836 1.3307-1.7591 1.6679-3.2265zm7.3965-12.6739h7.3965c1.668 0 2.9395.1276 3.8145.3828 1.1757.3464 2.1829.9616 3.0214 1.8457.8386.8842 1.4766 1.9688 1.9141 3.254.4375 1.276.6562 2.8528.6562 4.7304 0 1.6498-.205 3.0716-.6152 4.2656-.5013 1.4584-1.2168 2.6387-2.1465 3.5411-.7018.6836-1.6497 1.2168-2.8437 1.5996-.8933.2825-2.0873.4238-3.5821.4238h-7.6152zm4.0469 3.3907v13.2753h3.0215c1.1302 0 1.9459-.0638 2.4472-.1914.6563-.164 1.1986-.442 1.627-.8339.4375-.392.793-1.0345 1.0664-1.9278.2734-.9023.4102-2.1282.4102-3.6777s-.1368-2.7389-.4102-3.5684c-.2734-.8294-.6563-1.4765-1.1484-1.9414-.4922-.4648-1.1166-.7793-1.8731-.9433-.5651-.1276-1.6725-.1914-3.3223-.1914z"/><path d="m40.959 29.3418 4.9629-20.72657h2.8847l-5.0175 20.72657z"/></g></g></svg>