<svg width="64" height="64" viewBox="0 0 64 64" fill="none" xmlns="http://www.w3.org/2000/svg">
<g clip-path="url(#clip0_1443_56380)">
<g clip-path="url(#clip1_1443_56380)">
<rect width="64" height="64" fill="#AC2726"/>
<g clip-path="url(#clip2_1443_56380)">
<path d="M63.9999 0H-7.62939e-05V64H63.9999V0Z" fill="#DE7176"/>
</g>
</g>
<path d="M22.8613 21.6309L26.7852 22.875C26.1836 25.0625 25.181 26.6895 23.7773 27.7559C22.3828 28.8132 20.61 29.3418 18.459 29.3418C15.7975 29.3418 13.61 28.4349 11.8965 26.6211C10.1829 24.7982 9.32617 22.3099 9.32617 19.1562C9.32617 15.8203 10.1875 13.2318 11.9102 11.3906C13.6328 9.54036 15.8978 8.61523 18.7051 8.61523C21.1569 8.61523 23.1484 9.33984 24.6797 10.7891C25.5911 11.6458 26.2747 12.8763 26.7305 14.4805L22.7246 15.4375C22.4876 14.3984 21.9909 13.5781 21.2344 12.9766C20.487 12.375 19.5755 12.0742 18.5 12.0742C17.0143 12.0742 15.8066 12.6074 14.877 13.6738C13.9564 14.7402 13.4961 16.4674 13.4961 18.8555C13.4961 21.3893 13.9518 23.194 14.8633 24.2695C15.7747 25.3451 16.9596 25.8828 18.418 25.8828C19.4935 25.8828 20.4186 25.541 21.1934 24.8574C21.9681 24.1738 22.5241 23.0983 22.8613 21.6309ZM30.1484 29V8.95703H34.1953V29H30.1484Z" fill="white"/>
<path d="M22.8613 47.6309L26.7852 48.875C26.1836 51.0625 25.181 52.6895 23.7773 53.7559C22.3828 54.8132 20.61 55.3418 18.459 55.3418C15.7975 55.3418 13.61 54.4349 11.8965 52.6211C10.1829 50.7982 9.32617 48.3099 9.32617 45.1562C9.32617 41.8203 10.1875 39.2318 11.9102 37.3906C13.6328 35.5404 15.8978 34.6152 18.7051 34.6152C21.1569 34.6152 23.1484 35.3398 24.6797 36.7891C25.5911 37.6458 26.2747 38.8763 26.7305 40.4805L22.7246 41.4375C22.4876 40.3984 21.9909 39.5781 21.2344 38.9766C20.487 38.375 19.5755 38.0742 18.5 38.0742C17.0143 38.0742 15.8066 38.6074 14.877 39.6738C13.9564 40.7402 13.4961 42.4674 13.4961 44.8555C13.4961 47.3893 13.9518 49.194 14.8633 50.2695C15.7747 51.3451 16.9596 51.8828 18.418 51.8828C19.4935 51.8828 20.4186 51.541 21.1934 50.8574C21.9681 50.1738 22.5241 49.0983 22.8613 47.6309ZM30.2578 34.957H37.6543C39.3223 34.957 40.5938 35.0846 41.4688 35.3398C42.6445 35.6862 43.6517 36.3014 44.4902 37.1855C45.3288 38.0697 45.9668 39.1543 46.4043 40.4395C46.8418 41.7155 47.0605 43.2923 47.0605 45.1699C47.0605 46.8197 46.8555 48.2415 46.4453 49.4355C45.944 50.8939 45.2285 52.0742 44.2988 52.9766C43.597 53.6602 42.6491 54.1934 41.4551 54.5762C40.5618 54.8587 39.3678 55 37.873 55H30.2578V34.957ZM34.3047 38.3477V51.623H37.3262C38.4564 51.623 39.2721 51.5592 39.7734 51.4316C40.4297 51.2676 40.972 50.9896 41.4004 50.5977C41.8379 50.2057 42.1934 49.5632 42.4668 48.6699C42.7402 47.7676 42.877 46.5417 42.877 44.9922C42.877 43.4427 42.7402 42.2533 42.4668 41.4238C42.1934 40.5944 41.8105 39.9473 41.3184 39.4824C40.8262 39.0176 40.2018 38.7031 39.4453 38.5391C38.8802 38.4115 37.7728 38.3477 36.123 38.3477H34.3047Z" fill="white"/>
<path d="M40.959 29.3418L45.9219 8.61523H48.8066L43.7891 29.3418H40.959Z" fill="white"/>
</g>
<defs>
<clipPath id="clip0_1443_56380">
<rect width="64" height="64" rx="5" fill="white"/>
</clipPath>
<clipPath id="clip1_1443_56380">
<rect width="64" height="64" fill="white"/>
</clipPath>
<clipPath id="clip2_1443_56380">
<rect width="64.2069" height="64" fill="white"/>
</clipPath>
</defs>
</svg>
