<svg width="254" height="254" viewBox="0 0 254 254" fill="none" xmlns="http://www.w3.org/2000/svg">
<rect width="254" height="254" fill="#00ADD8"/>
<path d="M32.1999 112.234C31.7999 112.234 31.6999 112.034 31.8999 111.734L33.9999 109.034C34.1999 108.734 34.6999 108.534 35.0999 108.534H70.7999C71.1999 108.534 71.2999 108.834 71.0999 109.134L69.3999 111.734C69.1999 112.034 68.6999 112.334 68.3999 112.334L32.1999 112.234Z" fill="white"/>
<path d="M17.1 121.434C16.7 121.434 16.6 121.234 16.8 120.934L18.9 118.234C19.1 117.934 19.6 117.734 20 117.734H65.5999C65.9999 117.734 66.1999 118.034 66.0999 118.334L65.3 120.734C65.2 121.134 64.8 121.334 64.4 121.334L17.1 121.434Z" fill="white"/>
<path d="M41.2999 130.634C40.8999 130.634 40.7999 130.334 40.9999 130.034L42.3999 127.534C42.5999 127.234 42.9999 126.934 43.3999 126.934H63.3999C63.7999 126.934 63.9999 127.234 63.9999 127.634L63.7999 130.034C63.7999 130.434 63.3999 130.734 63.0999 130.734L41.2999 130.634Z" fill="white"/>
<path d="M145.1 110.434C138.8 112.034 134.5 113.234 128.3 114.834C126.8 115.234 126.7 115.334 125.4 113.834C123.9 112.134 122.8 111.034 120.7 110.034C114.4 106.934 108.3 107.834 102.6 111.534C95.7999 115.934 92.2999 122.434 92.3999 130.534C92.4999 138.534 97.9999 145.134 105.9 146.234C112.7 147.134 118.4 144.734 122.9 139.634C123.8 138.534 124.6 137.334 125.6 135.934C122 135.934 117.5 135.934 106.3 135.934C104.2 135.934 103.7 134.634 104.4 132.934C105.7 129.834 108.1 124.634 109.5 122.034C109.8 121.434 110.5 120.434 112 120.434C117.1 120.434 135.9 120.434 148.4 120.434C148.2 123.134 148.2 125.834 147.8 128.534C146.7 135.734 144 142.334 139.6 148.134C132.4 157.634 123 163.534 111.1 165.134C101.3 166.434 92.1999 164.534 84.1999 158.534C76.7999 152.934 72.5999 145.534 71.4999 136.334C70.1999 125.434 73.3999 115.634 79.9999 107.034C87.0999 97.7343 96.4999 91.8343 108 89.7343C117.4 88.0343 126.4 89.1343 134.5 94.6343C139.8 98.1343 143.6 102.934 146.1 108.734C146.7 109.634 146.3 110.134 145.1 110.434Z" fill="white"/>
<path d="M178.2 165.734C169.1 165.534 160.8 162.934 153.8 156.934C147.9 151.834 144.2 145.334 143 137.634C141.2 126.334 144.3 116.334 151.1 107.434C158.4 97.8343 167.2 92.8343 179.1 90.7343C189.3 88.9343 198.9 89.9343 207.6 95.8343C215.5 101.234 220.4 108.534 221.7 118.134C223.4 131.634 219.5 142.634 210.2 152.034C203.6 158.734 195.5 162.934 186.2 164.834C183.5 165.334 180.8 165.434 178.2 165.734ZM202 125.334C201.9 124.034 201.9 123.034 201.7 122.034C199.9 112.134 190.8 106.534 181.3 108.734C172 110.834 166 116.734 163.8 126.134C162 133.934 165.8 141.834 173 145.034C178.5 147.434 184 147.134 189.3 144.434C197.2 140.334 201.5 133.934 202 125.334Z" fill="white"/>
</svg>
