<svg fill="none" height="150" viewBox="0 0 150 150" width="150" xmlns="http://www.w3.org/2000/svg"><path d="m0 0h150v150h-150z" fill="#380d75"/><path d="m0 0v150h150v-150z" fill="#000"/><path d="m31.6458 51.5001h-7.8959v7.8959h7.8959z" fill="#0071c5"/><g fill="#fff"><path d="m31.4582 92.6043v-28.4166h-7.5v28.4166zm49.6042.2917v-6.9583c-1.1042 0-2.0209-.0626-2.7084-.1667-.7708-.125-1.3541-.375-1.75-.7708-.3958-.3959-.6666-.9584-.7708-1.7084-.125-.7083-.1667-1.625-.1667-2.75v-9.9375h5.4167v-6.3958h-5.4167v-11.0833h-7.4791v27.4583c0 2.3125.2083 4.2917.6041 5.8542.3959 1.5625 1.0625 2.8125 2 3.7708s2.1667 1.6458 3.6459 2.0417c1.5.4166 3.4375.625 5.7083.625h.9167zm42.8956-.2917v-41.6666h-7.479v41.6666zm-63.0206-25.625c-2.0834-2.2291-5-3.375-8.7084-3.375-1.7916 0-3.4375.375-4.9166 1.0834-1.4792.7291-2.7292 1.7499-3.7292 3.0416l-.4167.5208v-.4791-3.6042h-7.375v28.4167h7.4375v-15.1459 1.0417c0-.1667 0-.3542 0-.5208.0834-2.6459.75-4.6458 1.9792-5.8958 1.3125-1.3334 2.9167-2.0209 4.75-2.0209 2.1667 0 3.8125.6667 4.8958 1.9584 1.0625 1.2708 1.625 3.1041 1.625 5.4374v.0626.0208 15.0208h7.5625v-16.125c.0417-4-1.0208-7.1875-3.1041-9.4375zm51.6456 11.3542c0-2.0417-.354-3.9792-1.083-5.75-.708-1.7708-1.729-3.3542-3.021-4.6875-1.271-1.3333-2.833-2.3958-4.625-3.1458s-3.792-1.1459-5.9375-1.1459c-2.0416 0-3.9791.3959-5.7708 1.1667s-3.375 1.8333-4.6875 3.1667c-1.3125 1.3125-2.375 2.8958-3.1667 4.6875-.7708 1.7916-1.1666 3.7291-1.1666 5.7708s.375 3.9792 1.1041 5.7708c.7292 1.7917 1.7709 3.375 3.0625 4.6875 1.2917 1.3125 2.8959 2.375 4.75 3.1459 1.8542.7708 3.8959 1.1666 6.0834 1.1666 6.3331 0 10.2921-2.875 12.6461-5.5833l-5.396-4.1042c-1.146 1.3542-3.833 3.1667-7.1876 3.1667-2.1042 0-3.8542-.4792-5.1667-1.4583-1.3125-.9584-2.2292-2.2917-2.7083-3.9375l-.0834-.2709h22.333v-2.6458zm-22.2706-2.6042c0-2.0833 2.3958-5.7083 7.5416-5.7083 5.146 0 7.542 3.625 7.542 5.7083z"/><path d="m132.5 89.0207c-.146-.3333-.354-.625-.604-.875s-.542-.4583-.875-.6041c-.334-.1459-.688-.2292-1.084-.2292-.375 0-.75.0833-1.083.2292-.333.1458-.625.3541-.875.6041s-.458.5417-.604.875c-.146.3334-.229.6875-.229 1.0834 0 .375.083.75.229 1.0833s.354.625.604.875.542.4583.875.6042c.333.1458.687.2291 1.083.2291.375 0 .75-.0833 1.084-.2291.333-.1459.625-.3542.875-.6042s.458-.5417.604-.875.229-.6875.229-1.0833c-.021-.3959-.083-.75-.229-1.0834zm-.459 1.9584c-.125.2708-.291.5208-.479.7291-.208.2084-.458.375-.729.4792-.271.125-.583.1875-.896.1875-.312 0-.604-.0625-.896-.1875-.27-.125-.52-.2917-.729-.4792-.208-.2083-.375-.4583-.479-.7291-.125-.2709-.187-.5834-.187-.8959s.062-.6041.187-.8958c.125-.2708.292-.5208.479-.7292.209-.2083.459-.375.729-.4791.271-.125.584-.1875.896-.1875.313 0 .604.0625.896.1875.271.125.521.2916.729.4791.209.1875.375.4584.479.7292.125.2708.188.5833.188.8958s-.063.625-.188.8959zm-1.583-.6459c.208-.0208.396-.1041.542-.25.146-.1458.208-.3541.208-.625 0-.3125-.083-.5416-.271-.7083-.187-.1667-.458-.25-.854-.25h-1.229v3.1667h.583v-1.2917h.417l.812 1.2917h.605zm-.312-.4583c-.084 0-.188.0208-.271.0208h-.417v-.8958h.417.271c.083 0 .166.0208.25.0625.062.0208.125.0833.166.125.042.0625.063.1458.063.25s-.021.1875-.063.25c-.041.0625-.104.1042-.166.125-.084.0208-.167.0417-.25.0625z"/></g></svg>