<svg fill="none" height="150" viewBox="0 0 150 150" width="150" xmlns="http://www.w3.org/2000/svg" xmlns:xlink="http://www.w3.org/1999/xlink"><clipPath id="a"><rect height="150" rx="7" width="150"/></clipPath><clipPath id="b"><path d="m0 0h150v150h-150z"/></clipPath><clipPath id="c"><path d="m0 0h150.485v150h-150.485z"/></clipPath><g clip-path="url(#a)"><g clip-path="url(#b)"><path d="m0 0h150v150h-150z" fill="#fff"/><g clip-path="url(#c)"><path d="m150-.00006104h-150v150.00006104h150z" fill="#cd7024"/></g></g><path d="m55.4102 99v-48.6758h20.6855c5.2018 0 8.9759.4427 11.3223 1.3281 2.3685.8633 4.261 2.4128 5.6777 4.6485s2.125 4.7923 2.125 7.6699c0 3.6523-1.0736 6.6738-3.2207 9.0645-2.1471 2.3684-5.3568 3.8626-9.6289 4.4824 2.125 1.2396 3.8737 2.6009 5.2461 4.084 1.3945 1.483 3.265 4.1172 5.6113 7.9023l5.9434 9.4961h-11.7539l-7.1055-10.5918c-2.5234-3.7852-4.25-6.1647-5.1797-7.1387-.9297-.9961-1.9147-1.6712-2.9551-2.0254-1.0403-.3763-2.6894-.5644-4.9472-.5644h-1.9922v20.3203zm9.8281-28.0898h7.2715c4.7148 0 7.6588-.1993 8.832-.5977s2.0918-1.0846 2.7559-2.0586c.664-.974.9961-2.1914.9961-3.6523 0-1.6381-.4428-2.9551-1.3282-3.9512-.8633-1.0182-2.0918-1.6602-3.6855-1.9258-.7969-.1107-3.1875-.166-7.1719-.166h-7.6699z" fill="#fff"/></g></svg>