<svg xmlns="http://www.w3.org/2000/svg" viewBox="0 0 202.2 202.2"><defs><style>.cls-1{fill:#edf2f4;}.cls-2{fill:#5f1ae5;}</style></defs><g id="Layer_2" data-name="Layer 2"><g id="page_content" data-name="page content"><path class="cls-1" d="M50.82,0H0C3.61,110,92.16,198.58,202.2,202.2V151.38A158.53,158.53,0,0,1,50.82,0Z"/><path class="cls-1" d="M49.83,1A159,159,0,0,0,96.36,105.83a159,159,0,0,0,104.8,46.54v48.75A207.37,207.37,0,0,1,61.92,140.28,207.47,207.47,0,0,1,1.07,1H49.83m1-1H0C3.61,110,92.16,198.58,202.2,202.2V151.38A158.53,158.53,0,0,1,50.82,0Z"/><path class="cls-2" d="M50.36,100.29l12.44-9,3.59,5A12.83,12.83,0,0,1,67.46,98,5.27,5.27,0,0,1,68,99.8a3.38,3.38,0,0,1-.23,1.69A3.66,3.66,0,0,1,66.5,103a3.72,3.72,0,0,1-1.29.62,3.14,3.14,0,0,1-1.21.08,3.18,3.18,0,0,1-1.1-.37,4.85,4.85,0,0,1-.95-.68l0,0a6.52,6.52,0,0,1,.45,1.28,3.45,3.45,0,0,1,0,1.28,3,3,0,0,1-.48,1.23,4.32,4.32,0,0,1-1.13,1.13,3.81,3.81,0,0,1-1.86.77,3.69,3.69,0,0,1-1.77-.25,5.47,5.47,0,0,1-1.62-1,9.09,9.09,0,0,1-1.41-1.55Zm4,1.21,1.59,2.21a3.21,3.21,0,0,0,1.64,1.35,1.91,1.91,0,0,0,1.64-.39q1.65-1.19,0-3.5l-1.51-2.09Zm5.28-3.82,1.46,2a3.29,3.29,0,0,0,1.52,1.3,1.57,1.57,0,0,0,1.46-.28,1.64,1.64,0,0,0,.77-1.27,3.22,3.22,0,0,0-.76-1.86l-1.49-2Z"/><path class="cls-2" d="M59,112.08l11.72-9.89,3.71,4.4a10.58,10.58,0,0,1,1.43,2.1,5.19,5.19,0,0,1,.59,2,3.78,3.78,0,0,1-.36,1.86,5.23,5.23,0,0,1-1.38,1.71A4.67,4.67,0,0,1,72,115.5a4.74,4.74,0,0,1-2.71-.82l-2.51,6.58-2.3-2.72,2.32-6.13-1.27-1.5-4.37,3.69Zm8.54-2.89L69.05,111a3.89,3.89,0,0,0,1.76,1.35,1.85,1.85,0,0,0,1.72-.52,1.79,1.79,0,0,0,.78-1.59,4,4,0,0,0-1-2l-1.49-1.77Z"/><path class="cls-2" d="M67.43,122l14.79-6.9,2.26,2.3-7.21,14.65-2.39-2.44,1.66-3.22-3.65-3.73-3.29,1.56Zm7.77-.45,2.52,2.58,2.5-4.92,0,0Z"/><path class="cls-2" d="M78.62,133.32l10.07-11.57L91.23,124l-1.57,11.6,0,0,6.42-7.38,2.35,2L88.39,141.82l-2.35-2L87.47,128l0,0L81,135.36Z"/><path class="cls-2" d="M90.8,143.73l9.1-12.35,3.79,2.79a13,13,0,0,1,2.39,2.26A6.61,6.61,0,0,1,107.4,139a6,6,0,0,1,0,2.92,9,9,0,0,1-1.6,3.22,9.16,9.16,0,0,1-2.66,2.55,6.14,6.14,0,0,1-2.83.9,6.9,6.9,0,0,1-2.87-.49,12.06,12.06,0,0,1-2.84-1.59Zm4.31-.22,1.27.94a6.61,6.61,0,0,0,1.89,1,3.38,3.38,0,0,0,1.68.13,3.56,3.56,0,0,0,1.56-.77,9,9,0,0,0,1.54-1.66,5.26,5.26,0,0,0,1.29-3.56,4.66,4.66,0,0,0-2.19-3.07l-1.24-.91Z"/></g></g></svg>