<svg xmlns="http://www.w3.org/2000/svg" viewBox="0 0 202.2 202.2"><defs><style>.cls-1{fill:#21dbaa;}.cls-2{fill:#fff;}</style></defs><g id="Layer_2" data-name="Layer 2"><g id="page_content" data-name="page content"><path class="cls-1" d="M202.2,50.82V0C92.16,3.61,3.61,92.16,0,202.2H50.82A158.53,158.53,0,0,1,202.2,50.82Z"/><path class="cls-1" d="M201.16,1.07V49.83A159.55,159.55,0,0,0,49.83,201.16H1.07A208.28,208.28,0,0,1,201.16,1.07m1-1.07C92.16,3.61,3.61,92.16,0,202.2H50.82A158.53,158.53,0,0,1,202.2,50.82V0Z"/><path class="cls-2" d="M44.56,130.8a10.52,10.52,0,0,1-2.84-2.09,7.14,7.14,0,0,1-1.52-2.47,6,6,0,0,1-.28-2.66,7.33,7.33,0,0,1,.83-2.63,7.92,7.92,0,0,1,1.48-2.06A5.17,5.17,0,0,1,44,117.77a5.11,5.11,0,0,1,1.93-.35,7.91,7.91,0,0,1,2,.27l-.65,3.25a10.2,10.2,0,0,0-1.27-.18,3.52,3.52,0,0,0-1.1.11,2.42,2.42,0,0,0-.92.46,2.89,2.89,0,0,0-.74.94,3,3,0,0,0,0,3,6.77,6.77,0,0,0,2.9,2.53,6.8,6.8,0,0,0,3.82,1A3,3,0,0,0,52.44,127a2.67,2.67,0,0,0,.24-2.24,5.84,5.84,0,0,0-1.59-2.12l2.1-2.48a10.61,10.61,0,0,1,1.51,1.67,5.64,5.64,0,0,1,.89,1.89,5.5,5.5,0,0,1,.09,2.15,7.29,7.29,0,0,1-.83,2.41,7.64,7.64,0,0,1-1.71,2.22,5.93,5.93,0,0,1-2.33,1.28,6.85,6.85,0,0,1-2.88.15A11,11,0,0,1,44.56,130.8Z"/><path class="cls-2" d="M53.06,118.62l-8-5,1.8-2.86,7.95,5a4.16,4.16,0,0,0,2.54.8,2.56,2.56,0,0,0,1.92-1.38,2.48,2.48,0,0,0,.39-2.29,4.25,4.25,0,0,0-1.83-1.93l-8-5,1.77-2.83,8,5a8.17,8.17,0,0,1,2,1.67,4.88,4.88,0,0,1,1,2,5,5,0,0,1,0,2.29,8.32,8.32,0,0,1-1.12,2.58,8.43,8.43,0,0,1-1.83,2.11,5.07,5.07,0,0,1-2.07,1,4.82,4.82,0,0,1-2.23-.07A8.15,8.15,0,0,1,53.06,118.62Z"/><path class="cls-2" d="M62.22,108.59l.29-3a4.59,4.59,0,0,0,2.59-.23,4.48,4.48,0,0,0,2-1.53,3.78,3.78,0,0,0,.79-1.81,1.42,1.42,0,0,0-.62-1.39,1.47,1.47,0,0,0-1.55-.16,9.87,9.87,0,0,0-2.08,1.34l-1.69,1.26a7.45,7.45,0,0,1-1.73,1,4.27,4.27,0,0,1-1.8.27,3.72,3.72,0,0,1-1.89-.79,4.49,4.49,0,0,1-1.3-1.47,4,4,0,0,1-.49-1.76A5,5,0,0,1,55,98.39a7.7,7.7,0,0,1,1.1-2,8.14,8.14,0,0,1,1.47-1.55,7.17,7.17,0,0,1,1.56-1,5.77,5.77,0,0,1,1.58-.45,7.87,7.87,0,0,1,1.52-.08l0,2.94a4.61,4.61,0,0,0-2.25.36A4.27,4.27,0,0,0,58.32,98a2.61,2.61,0,0,0-.63,1.57,1.34,1.34,0,0,0,.57,1.14,1.48,1.48,0,0,0,1.59.16,11.47,11.47,0,0,0,2.08-1.34l1.69-1.25a6.88,6.88,0,0,1,1.74-.94,4.18,4.18,0,0,1,1.81-.26,3.69,3.69,0,0,1,1.86.77,4.46,4.46,0,0,1,1.21,1.35,4.2,4.2,0,0,1,.53,1.77,5.61,5.61,0,0,1-.31,2.14,8.73,8.73,0,0,1-1.33,2.44,8.3,8.3,0,0,1-1.57,1.65,7.24,7.24,0,0,1-1.71,1,6.3,6.3,0,0,1-1.79.42A7.57,7.57,0,0,1,62.22,108.59Z"/><path class="cls-2" d="M62.86,92.56l-2.15-1.83,8.12-9.51L71,83.05l-3,3.48,9.52,8.13-2.2,2.57L65.81,89.1Z"/><path class="cls-2" d="M74.79,86a9.21,9.21,0,0,1-2.06-2.9,7.33,7.33,0,0,1-.64-2.9,6.5,6.5,0,0,1,.59-2.68,7.64,7.64,0,0,1,1.55-2.26,7.54,7.54,0,0,1,2.23-1.56,6.58,6.58,0,0,1,2.67-.59,7.23,7.23,0,0,1,2.9.61,9.36,9.36,0,0,1,2.92,2A9.46,9.46,0,0,1,87,78.69a7.17,7.17,0,0,1,.62,2.89,6.72,6.72,0,0,1-.57,2.66,7.44,7.44,0,0,1-1.54,2.25,7.53,7.53,0,0,1-2.25,1.57,6.68,6.68,0,0,1-2.67.61,7.31,7.31,0,0,1-2.89-.6A9.17,9.17,0,0,1,74.79,86Zm2.38-2.39A8.25,8.25,0,0,0,78.9,85a5.15,5.15,0,0,0,1.71.62,3.4,3.4,0,0,0,1.59-.13,3.67,3.67,0,0,0,1.39-.89,3.6,3.6,0,0,0,.88-1.39,3.4,3.4,0,0,0,.11-1.59A5.1,5.1,0,0,0,84,79.88a8,8,0,0,0-1.35-1.73,6.12,6.12,0,0,0-3.41-1.92,3.6,3.6,0,0,0-4,4A6.23,6.23,0,0,0,77.17,83.63Z"/><path class="cls-2" d="M91.33,80.27,81.49,68.5l3.4-2.84,9.87,6.46,0,0L90,61.38l3.5-2.92,9.84,11.77-2.5,2.09-6.71-8,0,0c.29.59.55,1.14.77,1.63l.7,1.56,2.8,6.87-2.25,1.89-6.23-4-.71-.46-.67-.43c-.23-.15-.48-.32-.73-.52l-.91-.73,0,0,6.82,8.16Z"/><path class="cls-2" d="M105,69.08,96.23,56.52l8.55-6,1.62,2.31-5.78,4,1.89,2.7,4.19-2.93,1.53,2.19-4.18,2.93,2.19,3.12,6.09-4.27,1.56,2.24Z"/><path class="cls-2" d="M114.92,62.21,107.05,49,112,46.09A11.19,11.19,0,0,1,114.3,45a5,5,0,0,1,2-.25,3.77,3.77,0,0,1,1.79.65,5.25,5.25,0,0,1,1.46,1.64,4.62,4.62,0,0,1,.78,2.91,4.7,4.7,0,0,1-1.24,2.54l6.09,3.54-3.06,1.83-5.67-3.27-1.68,1,2.93,4.91Zm-1.47-8.89,2-1.19a4,4,0,0,0,1.63-1.52,1.83,1.83,0,0,0-.25-1.78,1.8,1.8,0,0,0-1.43-1,4,4,0,0,0-2.11.71l-2,1.19Z"/></g></g></svg>