<?xml version="1.0" encoding="UTF-8"?> <svg xmlns="http://www.w3.org/2000/svg" xmlns:xlink="http://www.w3.org/1999/xlink" width="221.253" height="83.837" viewBox="0 0 221.253 83.837"><defs><clipPath id="a"><rect width="221.253" height="83.837" fill="none"></rect></clipPath><linearGradient id="c" x1="0.072" y1="0.09" x2="0.956" y2="0.939" gradientUnits="objectBoundingBox"><stop offset="0" stop-color="#21dbaa"></stop><stop offset="0.355" stop-color="#00b4ef"></stop><stop offset="0.68" stop-color="#0768dd"></stop><stop offset="1" stop-color="#5f1ae5"></stop></linearGradient></defs><g clip-path="url(#a)"><path d="M22.656,83.533a22.842,22.842,0,0,1-9.009-1.765,18.746,18.746,0,0,1-7.192-5.427,26.577,26.577,0,0,1-4.742-9.168A43.9,43.9,0,0,1,0,54.186a42.929,42.929,0,0,1,1.791-13.04A26.751,26.751,0,0,1,6.744,31.82a20.2,20.2,0,0,1,7.693-5.611,25.824,25.824,0,0,1,10.063-1.9,22.6,22.6,0,0,1,8.957,1.845,20.523,20.523,0,0,1,7.429,5.374V.145H54.163v68.53a80.108,80.108,0,0,0,.369,8.509A17.85,17.85,0,0,0,55.9,82.69H42.2a13.192,13.192,0,0,1-.948-3.4,26.027,26.027,0,0,1-.369-4.347,28.02,28.02,0,0,1-7.429,6.112,21.467,21.467,0,0,1-10.8,2.476m4.321-10.854A15.052,15.052,0,0,0,34.8,70.466a23.4,23.4,0,0,0,6.086-5.058V42.436a18.912,18.912,0,0,0-6.3-5.268A15.693,15.693,0,0,0,27.4,35.324q-7.535,0-10.827,4.794T13.277,54.5q0,9.221,3.609,13.7t10.09,4.478" transform="translate(0 -0.065)"></path><path d="M268.722,103.57,247.963,46.192h13.962L275.94,88.448h.211l13.91-42.256h12.856L282.21,103.57Z" transform="translate(-111.868 -20.84)"></path><path d="M339.376,102.555V45.283h13.277v9.378h.211a24.1,24.1,0,0,1,7.587-7.4q4.847-3.082,13.014-3.082h.9l-.422,12.171a14.971,14.971,0,0,0-1.818-.158q-1.239-.052-1.765-.053a19.124,19.124,0,0,0-10.7,2.766,22.684,22.684,0,0,0-7.008,7.4v36.25Z" transform="translate(-153.108 -19.93)"></path></g><g clip-path="url(#a)"><path d="M374.544,147.059v-3.98h-1.418v-.489H376.5v.489h-1.424v3.98Z" transform="translate(-168.335 -64.329)"></path><path d="M380.294,147.058v-4.469h.7l1.406,3.8h.012l1.383-3.8h.707v4.469h-.525v-3.617h-.012q-.05.177-.122.387c-.048.141-.1.286-.151.435l-1.068,2.795h-.477l-1.068-2.795c-.029-.073-.055-.142-.076-.207s-.044-.128-.066-.193-.045-.131-.066-.2-.045-.151-.071-.239h-.012v3.635Z" transform="translate(-171.568 -64.329)"></path><path d="M133.46,72.839a26.214,26.214,0,0,0-7.008-2.924q-3.9-1.027-7.534-1.87-2.635-.58-4.9-1.16a18.144,18.144,0,0,1-3.925-1.448,9.069,9.069,0,0,1-2.687-2.055,4.308,4.308,0,0,1-1.027-2.924,5.067,5.067,0,0,1,2.108-4.136q2.107-1.66,7.587-1.66a19.19,19.19,0,0,1,4.11.474,27.294,27.294,0,0,1,4.32,1.344,35.032,35.032,0,0,1,4.162,2,30.435,30.435,0,0,1,3.553,2.336c.191-.519.391-1.027.607-1.521a33,33,0,0,1,4.749-7.846,37.373,37.373,0,0,0-8.8-5.061,36.373,36.373,0,0,0-13.646-2.213,28.461,28.461,0,0,0-8.641,1.238,20.787,20.787,0,0,0-6.692,3.451,16.029,16.029,0,0,0-4.373,5.295,14.846,14.846,0,0,0-1.581,6.876,14.789,14.789,0,0,0,2,8.087,15.861,15.861,0,0,0,5.137,5.058,27.511,27.511,0,0,0,6.955,3q3.819,1.08,7.508,1.976,2.581.632,4.9,1.212a19.853,19.853,0,0,1,4.057,1.449,8.807,8.807,0,0,1,2.766,2.055,4.307,4.307,0,0,1,1.027,2.924,5.232,5.232,0,0,1-3.029,5.085,19.243,19.243,0,0,1-8.4,1.5,25.366,25.366,0,0,1-10.169-2,29.955,29.955,0,0,1-7.851-4.795l-7.271,8.062a28.929,28.929,0,0,0,10.59,6.56,40.894,40.894,0,0,0,14.7,2.555,38.356,38.356,0,0,0,9.22-1.08,24.593,24.593,0,0,0,7.666-3.24,15.651,15.651,0,0,0,5.164-5.506,15.894,15.894,0,0,0,1.87-7.877,14.741,14.741,0,0,0-2.055-8.167,16.131,16.131,0,0,0-5.164-5.058" transform="translate(-41.265 -19.93)"></path><path d="M198.864,103.767a28.614,28.614,0,0,1-9.773-1.739A24.118,24.118,0,0,1,180.5,96.68a26.62,26.62,0,0,1-6.086-9.22A35.341,35.341,0,0,1,172.1,73.946a34.466,34.466,0,0,1,2.476-13.831,26.335,26.335,0,0,1,6.481-9.247,24.243,24.243,0,0,1,8.9-5.137,31.791,31.791,0,0,1,9.642-1.554,28.662,28.662,0,0,1,9.22,1.344,20.4,20.4,0,0,1,6.691,3.662,22.872,22.872,0,0,1,4.637,5.347,39.222,39.222,0,0,1,3.214,6.349l-11.222,4q-3.373-9.59-12.751-9.59a14.673,14.673,0,0,0-5.321.975,11,11,0,0,0-4.426,3.188,16.414,16.414,0,0,0-3.03,5.769,29.017,29.017,0,0,0-1.133,8.72q0,9.167,3.557,14.041a11.8,11.8,0,0,0,10.143,4.873,14.791,14.791,0,0,0,7.771-1.95q3.241-1.949,5.612-8.008l11.012,4a39.516,39.516,0,0,1-3.636,6.534,23.479,23.479,0,0,1-5.058,5.321,24.278,24.278,0,0,1-6.9,3.636,27.8,27.8,0,0,1-9.115,1.37" transform="translate(-77.642 -19.93)"></path></g><path d="M26.444,0,22.894,12.57h-.045L19.038,0H10.707L7.822,5.127,4.767,0H.485L5.466,8.058,0,17.086H4.056l3.489-5.942,3.61,5.942h6.431V5.3h.044q.135.74.252,1.267t.23.975q.112.449.241.852t.263.886l2.522,7.8h3.4l2.492-7.8q.275-.941.511-1.816A19.263,19.263,0,0,0,27.948,5.5h.042V17.087h3.536V0ZM9.613,8.05,14.049.688V15.271Z" transform="translate(0.875)" fill="url(#c)"></path></svg> 