<svg xmlns="http://www.w3.org/2000/svg" viewBox="0 0 202.2 202.2"><defs><style>.cls-1{fill:#0768dd;}.cls-2{fill:#fff;}</style></defs><g id="Layer_2" data-name="Layer 2"><g id="page_content" data-name="page content"><path class="cls-1" d="M151.38,202.2H202.2C198.58,92.16,110,3.61,0,0V50.82A158.53,158.53,0,0,1,151.38,202.2Z"/><path class="cls-1" d="M1,1.07A207.47,207.47,0,0,1,140.28,61.92a207.37,207.37,0,0,1,60.84,139.24H152.37a159,159,0,0,0-46.54-104.8A159,159,0,0,0,1,49.83V1.07M0,0V50.82A158.53,158.53,0,0,1,151.38,202.2H202.2C198.58,92.16,110,3.61,0,0Z"/><path class="cls-2" d="M79.69,57.63l8-13.09L96.61,50,95.13,52.4l-6-3.68-1.72,2.81,4.36,2.67-1.4,2.28L86,53.81l-2,3.25,6.35,3.88-1.43,2.33Z"/><path class="cls-2" d="M89.94,63.86,99,51.5l3.57,2.63L98.68,65.25l0,0L108,58.07l3.68,2.71-9.09,12.36-2.62-1.93,6.2-8.43,0,0q-.77.65-1.41,1.14l-1.34,1.05-6,4.36L95,67.55l2.38-7c.1-.29.19-.55.28-.79s.16-.5.25-.76a8.72,8.72,0,0,1,.34-.84c.13-.29.29-.65.49-1l0,0-6.3,8.57Z"/><path class="cls-2" d="M104.09,74.5,114.22,63l4.19,3.68a13.68,13.68,0,0,1,1.63,1.7,5.4,5.4,0,0,1,1,1.88,4,4,0,0,1,.06,2,5.24,5.24,0,0,1-1.24,2.19,5.17,5.17,0,0,1-2.1,1.56,4.1,4.1,0,0,1-2.1.19,5.69,5.69,0,0,1-2-.78,11.6,11.6,0,0,1-1.84-1.35l-1.64-1.43-3.56,4Zm7.83-3.85,1.74,1.53a3.37,3.37,0,0,0,2.06,1,2.18,2.18,0,0,0,1.62-.85,2.15,2.15,0,0,0,.61-1.68,3.28,3.28,0,0,0-1.29-1.92l-1.74-1.52Z"/><path class="cls-2" d="M113.72,83.1l10.89-10.81,2.38,2.4L118,83.57l4.75,4.79-1.94,1.93Z"/><path class="cls-2" d="M126.5,85a9.44,9.44,0,0,1,3.06-1.83,7.53,7.53,0,0,1,2.94-.4,6.55,6.55,0,0,1,2.63.8,7.72,7.72,0,0,1,2.13,1.73,7.46,7.46,0,0,1,1.37,2.34,6.38,6.38,0,0,1,.38,2.71,7.14,7.14,0,0,1-.84,2.84,10.46,10.46,0,0,1-5.33,4.59,7.25,7.25,0,0,1-2.93.39,6.77,6.77,0,0,1-2.61-.79,7.53,7.53,0,0,1-3.5-4.08,6.54,6.54,0,0,1-.39-2.71,7.22,7.22,0,0,1,.82-2.83A9.15,9.15,0,0,1,126.5,85Zm2.2,2.56a8.43,8.43,0,0,0-1.47,1.62,5.22,5.22,0,0,0-.76,1.66,3.46,3.46,0,0,0,0,1.6,3.56,3.56,0,0,0,.78,1.45,3.4,3.4,0,0,0,1.31,1,3.23,3.23,0,0,0,1.58.24,5.09,5.09,0,0,0,1.75-.49,8.38,8.38,0,0,0,1.83-1.21,6.12,6.12,0,0,0,2.19-3.25,3.6,3.6,0,0,0-3.68-4.28A6.19,6.19,0,0,0,128.7,87.6Z"/><path class="cls-2" d="M141.66,90.9l2.07,2.8L141,100.07l6.89-.72,2,2.77-10.26,1L134.45,107l-2-2.69,5.24-3.86Z"/><path class="cls-2" d="M137.94,111.84l13-8.19,5.58,8.82L154.1,114l-3.78-6-2.79,1.76,2.74,4.32L148,115.52l-2.73-4.32-3.23,2,4,6.29L143.72,121Z"/><path class="cls-2" d="M144.32,122.07l13.5-7.29,5,9.19-2.49,1.34-3.35-6.21L154,120.67l2.43,4.49-2.35,1.27-2.43-4.5-3.35,1.82,3.53,6.54-2.41,1.3Z"/></g></g></svg>