<svg xmlns="http://www.w3.org/2000/svg" viewBox="0 0 258.6 258.6"  xmlns:v="https://vecta.io/nano"><path d="M129.31 0C58.01 0 0 58.01 0 129.31.006 200.718 57.896 258.602 129.303 258.6S258.598 200.711 258.6 129.303 200.718.006 129.31 0zm0 244.6c-57.627-.008-106.398-42.561-114.218-99.655S42.808 33.752 98.31 18.25a8.23 8.23 0 0 1-4.38 1.65 2.35 2.35 0 0 0-.8.2c-.2.5-.4.9-.6 1.4a7.1 7.1 0 0 1 1.3 3.1 11.63 11.63 0 0 0 .4 1.8 1.24 1.24 0 0 0 1.9.7c.7-.5 1.3-1 2-1.5a18.76 18.76 0 0 1 1.8-1.2 2.86 2.86 0 0 1 2.4-.4c.1.2.2.3.3.5a2.77 2.77 0 0 1 2.4.6c-.2-.2 1.1-.1 1.5-.2a4.41 4.41 0 0 0 2.1-.8 2.36 2.36 0 0 1 .9-.6v-.7a5.77 5.77 0 0 0 1.4-.3 2 2 0 0 0 .7-3.2 1.94 1.94 0 0 1-.7-2.2 8.73 8.73 0 0 1 .48-1.7 125.42 125.42 0 0 1 3.89-.54 3.66 3.66 0 0 0-.47 2.14c.8.5 1.7.9 2.5 1.5a2.32 2.32 0 0 0 2.4.3 11.92 11.92 0 0 0 2-.8 29.17 29.17 0 0 0 3.1-1.4 11.24 11.24 0 0 1 3.1-1c.2 0 .4-.2.5.1a6 6 0 0 1-2.6 2c-.8.4-1.7.8-2.6 1.2a8.07 8.07 0 0 0-2.4 1.7 1.53 1.53 0 0 0-.4 1.7 2.82 2.82 0 0 1 .2 1.8c-.4.1-.7.3-1.1.4l-1.7.3a1.33 1.33 0 0 0-1 1.5 2.92 2.92 0 0 1 .2.9 1.35 1.35 0 0 1-.3 1.3q-2.25.75-4.8 1.5a9 9 0 0 1-2.8.4 16 16 0 0 1-4.9.4 3.7 3.7 0 0 1-1.1.5 1.39 1.39 0 0 1-1 .5c-.7.2-1.3.3-2 .5-.2.1-.5.1-.7.2l-.2.2a4.17 4.17 0 0 1-.8.6c-.1.1-.1.2-.2.2a32.14 32.14 0 0 1-7.7 8.3 13.72 13.72 0 0 1-4.3 2.3l-.2.2a6.28 6.28 0 0 0-1.2 1.1 6.46 6.46 0 0 0-1 3.4 5 5 0 0 1 1.7 3.1 3.3 3.3 0 0 1-.2 2.2 10 10 0 0 0 1.6 1.9 19 19 0 0 0 5.8-1c.1-.2.3-.3.4-.5.3-.4.6-1 1.1-1.2.3.1.5.2.8.3a3.72 3.72 0 0 0 3.4-.3 2 2 0 0 0 1.2-2.4c-.1-.4-.1-.7-.2-1.1a2.56 2.56 0 0 1 0-1.5 1.17 1.17 0 0 1 1.4.7 14.35 14.35 0 0 0 6.4 5.3 19.78 19.78 0 0 0 3.1 1.2c2.8.2 1.8-3.6.5-5a2.57 2.57 0 0 1-.7-1.5c-.6-.4-1.2-.8-1.7-1.2a6.48 6.48 0 0 1-1.6-1.7c0-.1 0-.2.1-.2a7.54 7.54 0 0 1 6.7-.4 10 10 0 0 1 3.5 2.6 39.19 39.19 0 0 1 2.5 3.2 17 17 0 0 0 1 1.4c1.4.1 2.7.2 4.1.2 0-.1-.1-.1-.1-.2a3.19 3.19 0 0 1 1.6-.9 4.22 4.22 0 0 1 5.3 1.4c.7.9 1.3 1.9 2 2.8a14 14 0 0 0 1 1.6 13.66 13.66 0 0 0 1.9.2h.4a5.4 5.4 0 0 1 2.1 5.5l-.6.3a6.61 6.61 0 0 0-2.4 2 14.31 14.31 0 0 0-1.1 1.5 1.81 1.81 0 0 1-1.9 1c-1.4-.1-2.7 0-4.1 0a5 5 0 0 0-2.7.7c-.7.3-.8.8-.6 1.6a5.1 5.1 0 0 0 1.2 2 4.35 4.35 0 0 1 1 1.6c-.8.5-1.6.9-2.3 1.3a1.85 1.85 0 0 1-.7.2 12.41 12.41 0 0 1-5.4-.7c-.5-.2-1-.5-1.6-.7-1.4-.7-2.8-1.3-4.3-2a10.94 10.94 0 0 0-4.7-.9 26.48 26.48 0 0 0-4.8.7c-1.3.4-2.5.6-3.8.9a3.4 3.4 0 0 1-1 .1 1.12 1.12 0 0 1-.1-1.6 4.9 4.9 0 0 1 2.5-1.8 21.72 21.72 0 0 1 2.4-.7 16.82 16.82 0 0 0 4-1.1 2.81 2.81 0 0 0-2.8-4 16.19 16.19 0 0 0-4.4.7 47.75 47.75 0 0 0-9.5 4.3 23.83 23.83 0 0 1-6.3 2.3 21.34 21.34 0 0 0-4.3 1.3 5.33 5.33 0 0 0-2.3 1.6 30.23 30.23 0 0 0-4.6 7.7c-.2.6-.3 1.2-.5 1.8.4.4.7.6 1 .9a2.57 2.57 0 0 1 .4 3 3.51 3.51 0 0 1-.5.8 11.07 11.07 0 0 1-3.1 3c-.7.5-1.5 1-2.2 1.5a7.61 7.61 0 0 0-2.7 3.4 20 20 0 0 0-.9 3.5 42.11 42.11 0 0 0-.2 9.4 128.82 128.82 0 0 0 1.8 13.9 3.63 3.63 0 0 0 .7 1.7c.4.4.8.9 1.2 1.3 1.6 1.6 3.3 3.2 5 4.8 1.3 1.2 2.5 2.5 3.9 3.6a21.24 21.24 0 0 0 10.4 5.1 7.29 7.29 0 0 0 5.4-.8l6.2-3.7c1.1-.7 2.2-1.4 3.3-2a4.78 4.78 0 0 1 4.2-.3 15.39 15.39 0 0 1 1.9.8 21.16 21.16 0 0 1 2.1 1.1 6.88 6.88 0 0 0 3.5.7c1.1-.1 2.3-.2 3.4-.2 1.7-.1 2.4.2 2.9 2.3a5.92 5.92 0 0 1 .1 1.9 10.1 10.1 0 0 1-.3 1.7l-.6 2.3a6.64 6.64 0 0 0 .4 4.6 20.44 20.44 0 0 0 3.6 5.1c1.2 1.2 2.5 2.4 3.7 3.5a25.18 25.18 0 0 1 6.1 8.3 4.45 4.45 0 0 1 .1 3.9c-.3.6-.5 1.1-.8 1.7a21.85 21.85 0 0 0-.9 2.3 6.23 6.23 0 0 0 1.2 6.4c.6.7 1.2 1.3 1.8 1.9.8.7 1.6 1.4 2.4 2a11.35 11.35 0 0 1 3.2 4c.6 1.2 1.1 2.5 1.6 3.7.6 1.4 1.1 2.8 1.7 4.2a5.37 5.37 0 0 0 1 1.6l6 6.3a4.72 4.72 0 0 0 3.2 1.4 13.31 13.31 0 0 0 4-.5 39.94 39.94 0 0 0 9.6-4.5 6.76 6.76 0 0 0 3.2-5.1c.1-.9.1-1.8.2-2.6.1-1.4.1-2.8.2-4.2a4 4 0 0 1 2.1-3.5 6.73 6.73 0 0 0 1.1-.7 4.27 4.27 0 0 0 1.9-3.4 21.12 21.12 0 0 0-.2-2.6 19.39 19.39 0 0 1-.3-4.8 5.05 5.05 0 0 1 2.1-3.7c1.7-1.2 3.3-2.4 4.9-3.6.3-.2.6-.5.9-.7a1.09 1.09 0 0 1-.1-.5l-2.5-9.7a46.34 46.34 0 0 1-1.4-9.9 25.31 25.31 0 0 1 2.9-12.9 45.76 45.76 0 0 1 4.7-7.6 24.9 24.9 0 0 0 1.9-3 29.76 29.76 0 0 0 2.1-5.2 76.7 76.7 0 0 0 1.9-9.3v-.1c-.9-1.7-2.6-2.7-5.4-2.1-.4.4-.8.7-1.2 1.1a6.56 6.56 0 0 1-3.9 1.7 3.65 3.65 0 0 1-4.1-2.2 18.66 18.66 0 0 1-.7-2.2 6.38 6.38 0 0 0-1.3-2.6 12.53 12.53 0 0 1-5.5-2.8 76 76 0 0 1-7-6.9 32.57 32.57 0 0 1-1.7-2.2l-.6-.9c-2.9-3-5.6-6.1-8.3-9.2a2.81 2.81 0 0 1-.7-1.9l-.5-.5a2.49 2.49 0 0 1-.4-3.2.6.6 0 0 1 0-.7c.1 0 .3-.1.4-.1h.2a2.57 2.57 0 0 1 3.7.1c7.5 7.6 17.3 12.3 23.2 21.3 2.6 3.9 5.5 4 9.3 1.6 1.1-.7 2.1-1.4 3.1-2.1a43.05 43.05 0 0 0 6.8-10 11.45 11.45 0 0 0 1.3-6 4.39 4.39 0 0 0-.7-2.2l-1.2-.3a6.05 6.05 0 0 1-3.7-2.1 6.89 6.89 0 0 1-1.1-1.3 2.09 2.09 0 0 0-.6-.4c-.4.1-.9.1-1.3.2l-.3.3a5.83 5.83 0 0 1-3.4 1.7 8.17 8.17 0 0 1-3.8-.5c-.2-.1-.5-.2-.7-.3a9.58 9.58 0 0 1-.8-2.4c-.5-2.2-.8-4-.1-5.3a14.78 14.78 0 0 0 5.5 1.3c3.7.2 7.5-1 11.2-1a48.32 48.32 0 0 1 7.6.3 7 7 0 0 1 3.2.2 3.46 3.46 0 0 1 1.2.7 19.2 19.2 0 0 1 5.4 2.6 7 7 0 0 1 2.3 2.2v-1.2c.4-.1.6 0 .7.4l.3 1.5a46.5 46.5 0 0 0 3.7 9.6 150.6 150.6 0 0 0 8.2 14.6c.5.1.9.3 1.4.4a8.65 8.65 0 0 0 2.3-.6c.1-.1.2-.1.2-.2a15.56 15.56 0 0 0 .4-5.7c-.1-1.22-.27-2.41-.46-3.61A115.29 115.29 0 0 1 129.31 244.6z"/></svg>