<svg xmlns="http://www.w3.org/2000/svg" viewBox="0 0 202.2 202.2"><defs><style>.cls-1{fill:#00b4ef;}.cls-2{fill:#fff;}</style></defs><g id="Layer_2" data-name="Layer 2"><g id="page_content" data-name="page content"><path class="cls-1" d="M0,151.38V202.2C110,198.58,198.58,110,202.2,0H151.38A158.53,158.53,0,0,1,0,151.38Z"/><path class="cls-1" d="M201.12,1a207.41,207.41,0,0,1-60.84,139.24A207.41,207.41,0,0,1,1,201.12V152.37a159,159,0,0,0,104.79-46.54A159,159,0,0,0,152.37,1h48.75m1.08-1H151.38A158.53,158.53,0,0,1,0,151.38V202.2C110,198.58,198.58,110,202.2,0Z"/><path class="cls-2" d="M90.17,158.22l-8.16-13,4.72-3a13.93,13.93,0,0,1,2.1-1.08,5.43,5.43,0,0,1,2.09-.43,4,4,0,0,1,2,.53,5.16,5.16,0,0,1,1.75,1.81,5.29,5.29,0,0,1,.89,2.45,4.18,4.18,0,0,1-.41,2.08,5.86,5.86,0,0,1-1.33,1.72A13,13,0,0,1,92,150.72l-1.84,1.16L93,156.44Zm-1.46-8.6,2-1.23a3.37,3.37,0,0,0,1.57-1.68,2.15,2.15,0,0,0-.35-1.8,2.13,2.13,0,0,0-1.44-1.06,3.24,3.24,0,0,0-2.2.69l-2,1.23Z"/><path class="cls-2" d="M101.85,150.76l-9.09-12.35L97.39,135a11.13,11.13,0,0,1,2.19-1.29,5.19,5.19,0,0,1,2-.45,3.73,3.73,0,0,1,1.83.48,5.09,5.09,0,0,1,1.61,1.49,4.63,4.63,0,0,1,1.07,2.83,4.72,4.72,0,0,1-1,2.64l6.4,2.94-2.86,2.11-6-2.71-1.57,1.16,3.39,4.61Zm-2.31-8.71,1.86-1.37a4,4,0,0,0,1.47-1.67,1.84,1.84,0,0,0-.42-1.75,1.8,1.8,0,0,0-1.53-.89,4,4,0,0,0-2,.91L97,138.65Z"/><path class="cls-2" d="M107.75,136.91a9.44,9.44,0,0,1-1.83-3.06,7.37,7.37,0,0,1-.41-2.94,6.54,6.54,0,0,1,.79-2.63,7.4,7.4,0,0,1,1.72-2.13,7.69,7.69,0,0,1,2.34-1.38,6.52,6.52,0,0,1,2.7-.39,7.28,7.28,0,0,1,2.85.83,9.29,9.29,0,0,1,2.76,2.26,9.07,9.07,0,0,1,1.84,3.06,7.07,7.07,0,0,1,.4,2.92,6.59,6.59,0,0,1-.78,2.62,7.56,7.56,0,0,1-4.06,3.51,6.44,6.44,0,0,1-2.71.4,7.19,7.19,0,0,1-2.84-.81A9.26,9.26,0,0,1,107.75,136.91Zm2.56-2.21a8,8,0,0,0,1.62,1.46,4.87,4.87,0,0,0,1.66.75,3.33,3.33,0,0,0,1.6,0,3.64,3.64,0,0,0,1.45-.79,3.36,3.36,0,0,0,1-1.32,3.44,3.44,0,0,0,.24-1.57,5.4,5.4,0,0,0-.5-1.76,8,8,0,0,0-1.22-1.82,6.07,6.07,0,0,0-3.25-2.17,3.59,3.59,0,0,0-4.27,3.69A6.18,6.18,0,0,0,110.31,134.7Z"/><path class="cls-2" d="M125.38,131.61l-10.94-10.76,3.29-3.35a12.92,12.92,0,0,1,2.57-2,6.75,6.75,0,0,1,2.75-1,6.1,6.1,0,0,1,2.88.42,9,9,0,0,1,3,2,9.42,9.42,0,0,1,2.15,3,6.25,6.25,0,0,1,.49,2.93,7,7,0,0,1-.89,2.77,12.25,12.25,0,0,1-2,2.59Zm.39-4.3,1.11-1.13a6.82,6.82,0,0,0,1.28-1.72,3.35,3.35,0,0,0,.37-1.65,3.42,3.42,0,0,0-.54-1.65,8.85,8.85,0,0,0-1.43-1.76,5.32,5.32,0,0,0-3.34-1.78,4.69,4.69,0,0,0-3.35,1.73l-1.08,1.1Z"/><path class="cls-2" d="M131.27,117.12,124,111l2.17-2.58,7.2,6a4.24,4.24,0,0,0,2.4,1.14,2.57,2.57,0,0,0,2.09-1.1,2.5,2.5,0,0,0,.7-2.22,4.23,4.23,0,0,0-1.54-2.16l-7.2-6,2.15-2.56,7.24,6.08a8.5,8.5,0,0,1,1.72,1.93,4.73,4.73,0,0,1,.45,4.37,9.23,9.23,0,0,1-3.56,4.24,5,5,0,0,1-2.19.7,4.88,4.88,0,0,1-2.2-.38A8.19,8.19,0,0,1,131.27,117.12Z"/><path class="cls-2" d="M138.7,105.4a10.56,10.56,0,0,1-2.52-2.46,6.91,6.91,0,0,1-1.16-2.66,6,6,0,0,1,.09-2.67,7.6,7.6,0,0,1,1.19-2.49,7.71,7.71,0,0,1,1.75-1.83,5.33,5.33,0,0,1,1.88-.87,5.17,5.17,0,0,1,2-.08,8.54,8.54,0,0,1,2,.55L142.76,96a9.67,9.67,0,0,0-1.23-.35,3.25,3.25,0,0,0-1.11,0,2.48,2.48,0,0,0-1,.33,2.91,2.91,0,0,0-.86.83,3,3,0,0,0-.43,3,8.26,8.26,0,0,0,6.18,4.39,3,3,0,0,0,2.7-1.35,2.66,2.66,0,0,0,.55-2.18,5.81,5.81,0,0,0-1.28-2.33l2.42-2.16A10.84,10.84,0,0,1,150,98a5.53,5.53,0,0,1,.61,2,5.63,5.63,0,0,1-.2,2.14,7.68,7.68,0,0,1-1.16,2.28,7.78,7.78,0,0,1-2,2,6.05,6.05,0,0,1-2.48.94,6.7,6.7,0,0,1-2.87-.26A10.46,10.46,0,0,1,138.7,105.4Z"/><path class="cls-2" d="M142.37,92,140,90.49l6.55-10.66,2.4,1.48-2.39,3.9,10.66,6.55-1.77,2.88-10.66-6.55Z"/></g></g></svg>