<svg id="Layer_1" data-name="Layer 1" xmlns="http://www.w3.org/2000/svg" viewBox="0 0 200 200"><defs><style>.cls-1{fill:#333;}.cls-2{fill:#494949;}.cls-3{fill:#606060;}.cls-4{fill:#767676;}.cls-5{fill:#8c8c8c;}.cls-6{fill:#a3a3a3;}.cls-7{fill:#b9b9b9;}.cls-8{fill:#d0d0d0;}.cls-9{fill:#e6e6e6;}</style></defs><title>spinner</title><rect class="cls-1" x="81.5" y="24" width="55.14" height="12.25" transform="matrix(0.13, -0.99, 0.99, 0.13, 65.3, 134.47)"/><rect class="cls-2" x="55.92" y="13.14" width="12.25" height="55.14" transform="translate(-12.16 39.95) rotate(-32.68)"/><rect class="cls-3" x="26.7" y="51.47" width="12.25" height="55.14" transform="translate(-52.4 86.86) rotate(-72.68)"/><rect class="cls-4" x="7.51" y="121.06" width="55.14" height="12.25" transform="translate(-46.33 23.37) rotate(-22.68)"/><rect class="cls-5" x="40.19" y="156.49" width="55.14" height="12.25" transform="translate(-107.82 148.2) rotate(-62.68)"/><rect class="cls-6" x="109.44" y="141.18" width="12.25" height="55.14" transform="translate(-34.23 29.49) rotate(-12.68)"/><rect class="cls-7" x="150.01" y="115.16" width="12.25" height="55.14" transform="translate(-52.03 180.38) rotate(-52.68)"/><rect class="cls-8" x="142.91" y="90.59" width="55.14" height="12.25" transform="translate(-4.34 8.09) rotate(-2.68)"/><rect class="cls-9" x="124.32" y="46.12" width="55.14" height="12.25" transform="translate(4.82 116.82) rotate(-42.68)"/></svg>