<?xml version="1.0" encoding="UTF-8"?>
<svg width="181px" height="30px" viewBox="0 0 181 30" version="1.1" xmlns="http://www.w3.org/2000/svg" xmlns:xlink="http://www.w3.org/1999/xlink">
    <!-- Generator: Sketch 64 (93537) - https://sketch.com -->
    <title>Group</title>
    <desc>Created with Sketch.</desc>
    <g id="Page-1" stroke="none" stroke-width="1" fill="none" fill-rule="evenodd">
        <g id="Group" transform="translate(-0.000000, 0.000000)" fill-rule="nonzero">
            <path d="M52.5827566,6.21428571 L48.9512041,6.21428571 L48.9512041,9.8354497 L52.5827566,9.8354497 C53.4476781,9.8354497 54.1365413,10.5370851 54.1365413,11.3921597 C54.1365413,12.2556037 53.4476781,12.9460798 52.5827566,12.9460798 L48.9512041,12.9460798 L48.9512041,16.5742184 L52.5827566,16.5742184 C55.4471978,16.5742184 57.7680938,14.2517076 57.7680938,11.3921597 C57.7680938,8.5340067 55.4471978,6.21428571 52.5827566,6.21428571 Z M31.8889156,25.378836 C36.2316879,25.378836 39.9806126,22.8373256 41.7328123,19.1603656 L46.3606314,19.1603656 L46.3606314,25.378836 L48.9512041,25.378836 L48.9512041,19.1603656 L52.5827566,19.1603656 C56.8836102,19.1603656 60.3656529,15.6814815 60.3656529,11.3921597 C60.3656529,7.1070226 56.8836102,3.62534873 52.5827566,3.62534873 L46.3606314,3.62534873 L46.3606314,12.9460798 L42.6648036,12.9460798 C41.9130625,7.6775373 37.3732725,3.62534873 31.8889156,3.62534873 L19.1149051,3.62534873 L6.4135537,25.378836 L9.4442722,25.378836 L13.0716329,19.1603656 L26.1292928,19.1603656 L26.1292928,25.378836 L31.8889156,25.378836 Z M64,11.3921597 C64,17.6845599 58.8845272,22.7829245 52.5827566,22.7829245 L52.5827566,29 L42.7304762,29 L42.7304762,24.1527177 C40.0644499,27.1266474 36.198153,29 31.8889156,29 L22.4949457,29 L22.4949457,22.7829245 L15.1577844,22.7829245 L11.5262319,29 L0,29 L16.9407244,0 L31.8889156,0 C36.198153,0 40.0644499,1.87893218 42.7304762,4.85286195 L42.7304762,0 L52.5827566,0 C58.8845272,0 64,5.10673401 64,11.3921597 Z M22.4949457,6.21428571 L22.4949457,12.9460798 L16.70598,12.9460798 L14.5904853,16.5742184 L26.1292928,16.5742184 L26.1292928,6.21428571 L22.4949457,6.21428571 Z M40.1874113,14.4986051 C40.1874113,19.0752766 36.4678296,22.7829245 31.8889156,22.7829245 L28.7212628,22.7829245 L28.7212628,19.1603656 L31.8889156,19.1603656 C34.4655154,19.1603656 36.5544615,17.0735931 36.5544615,14.4986051 C36.5544615,11.9305916 34.4655154,9.8354497 31.8889156,9.8354497 L28.7212628,9.8354497 L28.7212628,6.21428571 L31.8889156,6.21428571 C36.4678296,6.21428571 40.1874113,9.9247234 40.1874113,14.4986051 L40.1874113,14.4986051 Z" id="Shape" fill="#D02728"></path>
            <path d="M82.9616704,2.66721044 L82.9616704,9.8137575 L86.5697481,9.8137575 C87.5921968,9.8137575 88.3731007,9.511963 88.9124596,8.9070147 C89.450446,8.3034258 89.719439,7.4129962 89.719439,6.23980424 C89.719439,5.06661229 89.450446,4.17754214 88.9124596,3.57395324 C88.3731007,2.96900489 87.5921968,2.66721044 86.5697481,2.66721044 L82.9616704,2.66721044 Z M92.708558,6.23980424 C92.708558,7.7338227 92.388785,8.983143 91.751985,9.9864057 C91.115185,10.9910277 90.23135,11.6979337 89.10048,12.1071234 L94,20 L90.526419,20 L86.1923341,12.4809679 L82.9616704,12.4809679 L82.9616704,20 L80,20 L80,0 L86.7852171,0 C88.632487,0 90.083129,0.5560087 91.133026,1.66666667 C92.182923,2.77868407 92.708558,4.30261011 92.708558,6.23980424 Z" id="Shape" fill="#55575B"></path>
            <path d="M100.5,9.3967467 C99.657561,9.3967467 99.008293,9.6730807 98.552195,10.2271375 C98.096098,10.7811942 97.815732,11.6574092 97.711098,12.8557826 L103.263415,12.8557826 C103.157439,11.6574092 102.881098,10.7811942 102.43439,10.2271375 C101.986341,9.6730807 101.341098,9.3967467 100.5,9.3967467 M101.421585,21 C99.298049,21 97.697683,20.4153938 96.619146,19.2434041 C95.539268,18.072803 95,16.3245388 95,14 C95,11.7490577 95.477561,10.0188455 96.435366,8.8107518 C97.390488,7.6026582 98.745366,7 100.5,7 C102.272073,7 103.632317,7.5984924 104.578049,8.7968657 C105.526463,9.995239 106,11.7296171 106,14 L106,15.1442174 L97.737927,15.1442174 C97.877439,16.3425908 98.250366,17.2007538 98.855366,17.7187066 C99.460366,18.2352708 100.368537,18.4949415 101.578537,18.4949415 C102.332439,18.4949415 102.95622,18.403293 103.447195,18.2213846 C103.938171,18.0408649 104.421098,17.796469 104.894634,17.4868082 L105.920854,19.7474707 C104.726951,20.5820274 103.227195,21 101.421585,21" id="Shape" fill="#55575B"></path>
            <path d="M113.456533,21 C112.358272,21 111.367229,20.9000298 110.48775,20.7000893 C109.605374,20.5015372 108.776607,20.1919072 108,19.773976 L108.738936,17.351086 C109.534378,17.7676287 110.315332,18.063374 111.083246,18.235545 C111.851159,18.407716 112.679926,18.4938014 113.570996,18.4938014 C115.257508,18.4938014 116.100764,17.9314688 116.100764,16.8054151 C116.100764,15.9889914 115.531349,15.4349896 114.393967,15.1434097 L112.206138,14.6546663 C111.01225,14.3811366 110.116834,13.9451552 109.519889,13.3467222 C108.922945,12.7469007 108.624473,11.9207577 108.624473,10.8682932 C108.624473,9.6686502 109.079426,8.7258752 109.989331,8.0358028 C110.897787,7.344342 112.168467,7 113.797023,7 C114.725764,7 115.583509,7.0819201 116.370258,7.2457602 C117.155558,7.4096003 117.852476,7.6359218 118.459563,7.9261133 L117.720627,10.3503917 C117.07442,10.0407617 116.451396,9.8241595 115.84431,9.6964197 C115.237223,9.5700684 114.575079,9.5061986 113.85353,9.5061986 C112.301765,9.5061986 111.523709,9.9685609 111.523709,10.8946742 C111.523709,11.5486462 112.045311,12.0123971 113.087065,12.2845383 L115.303872,12.8024398 C117.766992,13.3828226 119,14.7351979 119,16.8595656 C119,18.1133591 118.520416,19.1158385 117.564146,19.8697808 C116.606428,20.6237231 115.237223,21 113.456533,21" id="Path" fill="#55575B"></path>
            <path d="M126.5,9.3967467 C125.658902,9.3967467 125.008293,9.6730807 124.552195,10.2271375 C124.096098,10.7811942 123.815732,11.6574092 123.711098,12.8557826 L129.263415,12.8557826 C129.157439,11.6574092 128.882439,10.7811942 128.43439,10.2271375 C127.986341,9.6730807 127.342439,9.3967467 126.5,9.3967467 M127.421585,21 C125.298049,21 123.697683,20.4153938 122.619146,19.2434041 C121.54061,18.072803 121,16.3245388 121,14 C121,11.7490577 121.477561,10.0188455 122.435366,8.8107518 C123.390488,7.6026582 124.745366,7 126.5,7 C128.272073,7 129.632317,7.5984924 130.57939,8.7968657 C131.526463,9.995239 132,11.7296171 132,14 L132,15.1442174 L123.737927,15.1442174 C123.877439,16.3425908 124.250366,17.2007538 124.855366,17.7187066 C125.460366,18.2352708 126.368537,18.4949415 127.579878,18.4949415 C128.33378,18.4949415 128.95622,18.403293 129.447195,18.2213846 C129.938171,18.0408649 130.421098,17.796469 130.894634,17.4868082 L131.920854,19.7474707 C130.726951,20.5820274 129.227195,21 127.421585,21" id="Shape" fill="#55575B"></path>
            <path d="M138.372244,18.521571 C138.90353,18.521571 139.399771,18.4035505 139.856761,18.1675097 C140.316554,17.9314688 140.718873,17.6135079 141.067924,17.2136269 C141.415573,16.8151344 141.690328,16.3430527 141.892188,15.7973817 C142.094049,15.2530993 142.194979,14.671328 142.194979,14.0548448 L142.194979,12.9926609 L138.125526,15.3336309 C137.64891,15.6071606 137.309672,15.8848557 137.107812,16.1653278 C136.905951,16.4471883 136.805021,16.8054151 136.805021,17.2413964 C136.805021,17.605177 136.946604,17.9078647 137.231171,18.1536249 C137.515738,18.3993851 137.895629,18.521571 138.372244,18.521571 Z M142.360393,20.8097788 L142.360393,18.0855896 C141.882375,19.0117029 141.255767,19.7281563 140.47636,20.2377269 C139.696954,20.745909 138.8026,21 137.794699,21 C136.676055,21 135.764878,20.6681543 135.058366,20.0058514 C134.353256,19.3435485 134,18.4938014 134,17.4593871 C134,16.6054746 134.22429,15.8793018 134.67427,15.2794803 C135.122849,14.6810473 135.896648,14.0645641 136.997069,13.4286423 L141.754811,10.6766835 C141.259972,9.8963602 140.333376,9.5061986 138.977826,9.5061986 C138.390468,9.5061986 137.776475,9.592284 137.134446,9.764455 C136.492417,9.9380145 135.841978,10.2046018 135.181726,10.5683824 L134.494839,8.1177229 C135.136868,7.7345036 135.85179,7.4540315 136.639607,7.2721412 C137.428826,7.0902509 138.281127,7 139.196508,7 C141.030075,7 142.455716,7.4540315 143.473429,8.3620946 C144.491143,9.2701577 145,10.5322821 145,12.1484677 L145,20.8097788 L142.360393,20.8097788 Z" id="Shape" fill="#55575B"></path>
            <path d="M156,8.3745826 L152.526851,10.2624239 C151.975327,10.5497938 151.567489,10.9059124 151.301887,11.3280299 C151.036284,11.7501473 150.904209,12.2767629 150.904209,12.9051267 L150.904209,20 L148,20 L148,6.51286584 L150.732946,6.51286584 L150.732946,9.3989393 C151.283019,8.2123355 152.146589,7.2952269 153.323657,6.64761344 L154.548621,6 L156,8.3745826 Z" id="Path" fill="#55575B"></path>
            <path d="M159.70453,14 C159.70453,15.4163856 160.010142,16.5203333 160.620014,17.3090657 C161.229885,18.0991867 162.09263,18.4949415 163.206897,18.4949415 C164.231913,18.4949415 165.151454,18.1491768 165.965517,17.4590359 L167,19.6933148 C166.026369,20.565364 164.682218,21 162.967546,21 C161.058147,21 159.585531,20.3917873 158.551048,19.175362 C157.516565,17.9589367 157,16.2328903 157,14 C157,11.7671097 157.516565,10.0410633 158.551048,8.824638 C159.585531,7.6082127 161.058147,7 162.967546,7 C164.682218,7 166.026369,7.434636 167,8.3066852 L165.965517,10.5409641 C165.151454,9.8508232 164.231913,9.5050585 163.206897,9.5050585 C162.09263,9.5050585 161.229885,9.9008133 160.620014,10.6895457 C160.010142,11.4796667 159.70453,12.5836144 159.70453,14" id="Path" fill="#55575B"></path>
            <path d="M178.315732,20 L178.315732,11.0929853 C178.315732,10.4173464 178.095732,9.8885264 177.658415,9.5065253 C177.219756,9.1245242 176.630854,8.9328439 175.89439,8.9328439 C175.438293,8.9328439 175.018415,9.0266449 174.632073,9.2128874 C174.245732,9.4004894 173.907683,9.6655791 173.619268,10.0135943 C173.329512,10.3588907 173.100122,10.7735182 172.935122,11.2533986 C172.767439,11.733279 172.684268,12.2580207 172.684268,12.8262643 L172.684268,20 L170,20 L170,0 L172.684268,0 L172.684268,8.8526373 C173.122927,8.0709625 173.706463,7.4796085 174.434878,7.0799347 C175.161951,6.68026101 176.000366,6.47906471 176.947439,6.47906471 C178.157439,6.47906471 179.135366,6.84475258 179.88122,7.5734095 C180.627073,8.3020663 181,9.2971724 181,10.560087 L181,20 L178.315732,20 Z" id="Path" fill="#55575B"></path>
            <polygon id="Path" fill="#55575B" points="80.204 30 80.796 30 80.796 24 80.204 24"></polygon>
            <polygon id="Path" fill="#55575B" points="94 30 93.102373 30 90.744407 25.4561664 90.744407 30 90 30 90 24 90.897627 24 93.255593 28.5438336 93.255593 24 94 24"></polygon>
            <path d="M105.945714,30 C105.545714,30 105.19,29.9620807 104.88,29.8862421 C104.57,29.8104035 104.277143,29.687895 104,29.520175 L104.184286,28.7501215 C104.481429,28.9134662 104.765714,29.0315994 105.038571,29.1045211 C105.31,29.1774429 105.604286,29.2139037 105.922857,29.2139037 C106.742857,29.2139037 107.152857,28.9076325 107.152857,28.2965484 C107.152857,28.1332037 107.127143,28.0004861 107.072857,27.8954789 C107.018571,27.7904716 106.948571,27.7029655 106.861429,27.6358775 C106.772857,27.5687895 106.674286,27.5148274 106.564286,27.4754497 C106.454286,27.4346135 106.345714,27.3996111 106.237143,27.368984 L105.522857,27.1808459 C105.02,27.043753 104.652857,26.8512397 104.422857,26.6033058 C104.191429,26.3553719 104.077143,26.0257657 104.077143,25.617404 C104.077143,25.1098687 104.252857,24.7131745 104.602857,24.4287798 C104.954286,24.1429266 105.445714,24 106.077143,24 C106.44,24 106.761429,24.033544 107.041429,24.0991736 C107.321429,24.1648031 107.588571,24.2668935 107.845714,24.4083617 L107.661429,25.1784152 C107.43,25.0413223 107.195714,24.9421488 106.957143,24.8794361 C106.718571,24.8167234 106.44,24.7846378 106.122857,24.7846378 C105.322857,24.7846378 104.922857,25.0559067 104.922857,25.594069 C104.922857,25.7982499 104.988571,25.9601361 105.118571,26.0768109 C105.25,26.1949441 105.478571,26.298493 105.807143,26.3874575 L106.522857,26.5755955 C107.035714,26.7112299 107.41,26.9168692 107.645714,27.1881381 C107.881429,27.4608653 108,27.8225571 108,28.271755 C108,28.5386485 107.951429,28.7778318 107.857143,28.9907632 C107.762857,29.2022363 107.625714,29.3830822 107.45,29.5318425 C107.272857,29.6806028 107.057143,29.7958192 106.802857,29.8774915 C106.55,29.9591638 106.262857,30 105.945714,30" id="Path" fill="#55575B"></path>
            <polygon id="Path" fill="#55575B" points="119 24.8006932 117.855942 24.8006932 117.855942 30 117.145258 30 117.145258 24.8006932 116 24.8006932 116 24 119 24"></polygon>
            <polygon id="Path" fill="#55575B" points="129.204 30 129.796 30 129.796 24 129.204 24"></polygon>
            <polygon id="Path" fill="#55575B" points="142 24.8006932 140.855484 24.8006932 140.855484 30 140.143315 30 140.143315 24.8006932 139 24.8006932 139 24 142 24"></polygon>
            <path d="M153.999242,30 C153.363671,30 152.870686,29.8498528 152.521805,29.5525025 C152.172924,29.2536801 152,28.8326791 152,28.2880275 L152,24 L152.855518,24 L152.855518,28.2085378 C152.855518,28.5250245 152.954115,28.7708538 153.149791,28.9460255 C153.345468,29.1197252 153.624573,29.2065751 153.984073,29.2065751 C154.343572,29.2065751 154.618127,29.1197252 154.812287,28.9460255 C155.006447,28.7708538 155.10201,28.5250245 155.10201,28.2085378 L155.10201,24 L156,24 L156,28.2880275 C156,28.8326791 155.827076,29.2536801 155.478195,29.5525025 C155.129314,29.8498528 154.636329,30 153.999242,30" id="Path" fill="#55575B"></path>
            <polygon id="Path" fill="#55575B" points="168 24.8006932 166.855942 24.8006932 166.855942 30 166.145258 30 166.145258 24.8006932 165 24.8006932 165 24 168 24"></polygon>
            <polygon id="Path" fill="#55575B" points="180 30 177 30 177 24 180 24 180 24.7994056 177.757369 24.7994056 177.757369 26.5601783 179.656557 26.5601783 179.656557 27.359584 177.757369 27.359584 177.757369 29.1991085 180 29.1991085"></polygon>
        </g>
    </g>
</svg>