<?xml version="1.0" encoding="UTF-8"?>
<svg width="32px" height="32px" viewBox="0 0 32 32" version="1.1" xmlns="http://www.w3.org/2000/svg" xmlns:xlink="http://www.w3.org/1999/xlink">
    <title>icn_enlarge_image</title>
    <g id="icn_enlarge_image" stroke="none" stroke-width="1" fill="none" fill-rule="evenodd">
        <rect id="Rectangle" fill="#050D3A" x="0" y="0" width="32" height="32" rx="5"></rect>
        <path d="M24,8 L24,12.5 C24,12.7761424 23.7761424,13 23.5,13 C23.2435821,13 23.0322464,12.8069799 23.0033639,12.5583106 L23,12.5 L23,9.746 L18.9138564,13.8334524 C18.7185943,14.0287145 18.4020118,14.0287145 18.2067496,13.8334524 C18.0265077,13.6532104 18.0126429,13.3695949 18.1651553,13.1734493 L18.2067496,13.1263456 L22.332,9 L19.5,9 C19.2435821,9 19.0322464,8.8069799 19.0033639,8.55831056 L19,8.5 C19,8.24358208 19.1930201,8.03224642 19.4416894,8.00336387 L19.5,8 L24,8 Z M12.5,8 L12.5583106,8.00336387 C12.8069799,8.03224642 13,8.24358208 13,8.5 L13,8.5 L12.9966361,8.55831056 C12.9677536,8.8069799 12.7564179,9 12.5,9 L12.5,9 L9.767,9 L13.8937554,13.1263456 L13.9353497,13.1734493 C14.0878622,13.3695949 14.0739974,13.6532104 13.8937554,13.8334524 C13.6984933,14.0287145 13.3819108,14.0287145 13.1866486,13.8334524 L13.1866486,13.8334524 L9,9.647 L9,12.5 L8.99663613,12.5583106 C8.96775358,12.8069799 8.75641792,13 8.5,13 C8.22385763,13 8,12.7761424 8,12.5 L8,12.5 L8,8 L12.5,8 Z M18.2067496,18.1464466 C18.4020118,17.9511845 18.7185943,17.9511845 18.9138564,18.1464466 L18.9138564,18.1464466 L22.999,22.232 L23,19.5 L23.0033639,19.4416894 C23.0322464,19.1930201 23.2435821,19 23.5,19 C23.7761424,19 24,19.2238576 24,19.5 L24,19.5 L24,24 L19.5,24 L19.4416894,23.9966361 C19.1930201,23.9677536 19,23.7564179 19,23.5 L19,23.5 L19.0033639,23.4416894 C19.0322464,23.1930201 19.2435821,23 19.5,23 L19.5,23 L22.353,23 L18.2067496,18.8535534 L18.1651553,18.8064497 C18.0126429,18.6103041 18.0265077,18.3266886 18.2067496,18.1464466 Z M13.8937554,18.1464466 C14.0739974,18.3266886 14.0878622,18.6103041 13.9353497,18.8064497 L13.8937554,18.8535534 L9.746,23 L12.5,23 C12.7564179,23 12.9677536,23.1930201 12.9966361,23.4416894 L13,23.5 C13,23.7564179 12.8069799,23.9677536 12.5583106,23.9966361 L12.5,24 L8,24 L8,19.5 C8,19.2238576 8.22385763,19 8.5,19 C8.75641792,19 8.96775358,19.1930201 8.99663613,19.4416894 L9,19.5 L9,22.332 L13.1866486,18.1464466 C13.3819108,17.9511845 13.6984933,17.9511845 13.8937554,18.1464466 Z" id="Combined-Shape" fill="#FFFFFF" fill-rule="nonzero"></path>
    </g>
</svg>