<?xml version="1.0" encoding="UTF-8"?>
<svg width="108px" height="108px" viewBox="0 0 108 108" version="1.1" xmlns="http://www.w3.org/2000/svg" xmlns:xlink="http://www.w3.org/1999/xlink">
    <!-- Generator: Sketch 52.6 (67491) - http://www.bohemiancoding.com/sketch -->
    <title>Slice 1</title>
    <desc>Created with Sketch.</desc>
    <g id="Page-1" stroke="none" stroke-width="1" fill="none" fill-rule="evenodd">
        <g id="icn-globe" transform="translate(4.000000, 4.000000)" stroke="#5378D6" stroke-width="7">
            <path d="M49.7435897,0 C22.1797689,0.141354786 -0.0705132586,22.5634554 0.0001643669,50.1275481 C0.0708419924,77.6916408 22.4358167,99.9993425 50,99.9993425 C77.5641833,99.9993425 99.929158,77.6916408 99.9998356,50.1275481 C100.070513,22.5634554 77.8202311,0.141354786 50.2564103,3.18833279e-15 L49.7435897,0 Z" id="Path"></path>
            <path d="M50,0 L50,100 M100,50 L0,50 M11.2820513,19.2307692 C34.4484362,35.7580367 65.5515638,35.7580367 88.7179487,19.2307692 M88.7179487,80.7692308 C65.5515638,64.2419633 34.4484362,64.2419633 11.2820513,80.7692308 M46.1538462,1.28205128 C31.7317362,13.4618675 23.4112976,31.379303 23.4112976,50.2564103 C23.4112976,69.1335175 31.7317362,87.050953 46.1538462,99.2307692 M53.8461538,99.2307692 C68.2682638,87.050953 76.5887024,69.1335175 76.5887024,50.2564103 C76.5887024,31.379303 68.2682638,13.4618675 53.8461538,1.28205128" id="Shape"></path>
        </g>
    </g>
</svg>