<?xml version="1.0" encoding="UTF-8"?>
<svg width="13px" height="13px" viewBox="0 0 13 13" version="1.1" xmlns="http://www.w3.org/2000/svg" xmlns:xlink="http://www.w3.org/1999/xlink">
    <title>nav_icn_search</title>
    <g id="Page-1" stroke="none" stroke-width="1" fill="none" fill-rule="evenodd">
        <g id="nav_icn_search" fill="#383D5A" fill-rule="nonzero">
            <path d="M5.33890577,0 C6.71036781,0 8.06401865,0.51714678 9.1148792,1.56927298 C11.0384883,3.47736626 11.198789,6.49108368 9.5957814,8.57750343 L9.5957814,8.57750343 L12.7839854,11.7695473 C13.0689645,12.0548697 13.0689645,12.5185185 12.8017966,12.7860082 C12.659307,12.9286694 12.4633839,13 12.2852719,13 C12.0893488,13 11.9112368,12.9286694 11.7687473,12.7860082 L11.7687473,12.7860082 L8.56273211,9.611797 C7.61873876,10.3429355 6.47882227,10.6995885 5.33890577,10.6995885 C3.96744374,10.6995885 2.6137929,10.1824417 1.56293238,9.1303155 C-0.520977461,7.04389575 -0.520977461,3.65569273 1.56293238,1.56927298 C2.6137929,0.51714678 3.96744374,0 5.33890577,0 Z M5.35671697,1.44444444 C4.30585645,1.44444444 3.32624071,1.85459534 2.59598171,2.58573388 C1.08203011,4.11934156 1.08203011,6.59807956 2.59598171,8.1138546 C3.34405191,8.84499314 4.30585645,9.255144 5.35671697,9.255144 C6.38976629,9.255144 7.38719323,8.86282579 8.11745223,8.1138546 C8.84771124,7.3648834 9.2573687,6.40192044 9.2573687,5.34979424 C9.2573687,4.29766804 8.86552243,3.31687243 8.11745223,2.58573388 C7.36938203,1.85459534 6.40757749,1.44444444 5.35671697,1.44444444 Z" id="v1"></path>
        </g>
    </g>
</svg>