<?xml version="1.0" encoding="UTF-8"?>
<svg width="152px" height="110px" viewBox="0 0 152 110" version="1.1" xmlns="http://www.w3.org/2000/svg" xmlns:xlink="http://www.w3.org/1999/xlink">
    <title>Graphics / ai_particles-small-rose</title>
    <g id="Page-1" stroke="none" stroke-width="1" fill="none" fill-rule="evenodd">
        <g id="Step-1---Offer" transform="translate(-581.000000, -577.000000)">
            <g id="Graphics-/-ai_particles-small-rose" transform="translate(526.000000, 518.000000)">
                <g id="Group" transform="translate(55.052632, 59.000000)">
                    <g id="Group-2" transform="translate(0.000000, 0.000000)">
                        <path d="M21.1168661,2.19789474 C30.283555,15.8889274 40.4211166,28.9218388 50.2286582,42.1600533 C54.7069527,48.2059427 59.0672458,54.3468088 63.0303638,60.7447835 C67.0596775,67.2511659 70.1046875,74.4713125 74.5292578,80.6946835 C76.4546942,83.402958 80.5012765,81.7730047 79.8652205,78.4459427 C78.4223424,70.900573 73.7809567,63.8828514 69.5808767,57.5683411 C65.3529753,51.2106596 60.7163864,45.1340706 55.9713897,39.1553364 C45.5066862,25.9689274 34.7695243,12.8477548 23.4087781,0.428834111 C22.3035949,-0.779000666 20.1872458,0.8097002 21.1168661,2.19789474" id="Fill-520" fill="#F2635C"></path>
                        <path d="M23.8347342,52.0733165 C27.9916429,52.5261346 29.6887515,57.2567408 28.8176522,59.4325703 C27.0725756,63.8005383 19.5588648,62.8258281 19.1290713,58.6650819 C18.7242212,54.7652818 20.8501639,52.0733165 23.8347342,52.0733165" id="Fill-522" fill="#D1261C"></path>
                        <path d="M30.0931219,71.3008181 C29.7746143,75.2955949 26.6307901,75.82804 24.7667528,75.508573 C24.0251672,75.380978 21.6248474,73.6445356 21.3216895,71.8006449 C20.9926289,69.7975003 21.8387848,67.3597655 25.5745343,66.6555949 C28.5485516,66.6555949 29.7746143,68.2116775 30.0931219,71.3008181" id="Fill-524" fill="#D1261C"></path>
                        <path d="M123.390923,86.6482825 C123.031163,91.1515203 119.489205,91.7520799 117.387246,91.3913604 C116.550684,91.2484157 113.844328,89.2903611 113.502795,87.2104677 C113.133442,84.954052 114.085127,82.2054843 118.29672,81.4120933 C121.650644,81.4120933 123.031163,83.1658041 123.390923,86.6482825" id="Fill-526" fill="#D1261C"></path>
                        <path d="M127.277005,145.134636 C127.277005,148.756221 123.915406,150.116594 122.141548,150.014902 C120.559563,149.924722 117.972168,147.626095 117.972168,145.191238 C117.972168,142.784203 120.702508,140.917287 122.130036,140.980605 C124.049716,141.065988 126.948903,141.48235 127.277005,145.134636" id="Fill-528" fill="#D1261C"></path>
                        <path d="M66.1543291,157.858729 C63.2186862,158.324019 61.2961279,154.568123 61.3258681,152.840314 C61.3565676,151.053026 62.7303718,148.615291 65.6688927,148.615291 C68.6074137,148.615291 69.7030033,150.825658 69.9428434,153.019715 C70.0819507,154.289908 69.031451,157.888469 66.1543291,157.858729" id="Fill-530" fill="#26308C"></path>
                        <path d="M137.395283,150.143169 C134.638081,150.580637 132.830646,147.05115 132.858468,145.426953 C132.887249,143.749031 134.178548,141.458079 136.938628,141.458079 C139.699667,141.458079 140.731939,143.535094 140.95547,145.5958 C141.085943,146.790204 140.098761,150.17099 137.395283,150.143169" id="Fill-532" fill="#D1261C"></path>
                        <path d="M151.008128,71.1987422 C150.19459,75.6866302 147.363518,74.6994484 145.609807,74.557463 C143.856096,74.4154777 142.233817,73.1481626 142.230936,70.7996482 C142.228061,68.4501746 144.019187,66.8806609 145.51483,66.6187555 C147.010473,66.3578095 151.820706,66.7098947 151.008128,71.1987422" id="Fill-534" fill="#26308C"></path>
                        <path d="M135.696736,85.3933431 C134.884157,89.8812312 132.052125,88.8940493 130.298414,88.752064 C128.544704,88.6100786 126.922425,87.3427635 126.919544,84.9942492 C126.916669,82.6447755 128.707795,81.0752618 130.202478,80.8133564 C131.699081,80.5524104 136.510273,80.9044957 135.696736,85.3933431" id="Fill-536" fill="#26308C"></path>
                        <path d="M20.6184783,14.3350513 C19.8049407,18.8229394 16.9738681,17.8357575 15.2201572,17.6937722 C13.4664464,17.5517868 11.8441679,16.2844717 11.8412863,13.9359574 C11.8384117,11.5864837 13.6295376,10.01697 15.1242212,9.75506462 C16.6208235,9.49411859 21.432016,9.84716322 20.6184783,14.3350513" id="Fill-538" fill="#F2635C"></path>
                        <path d="M106.966481,71.9941479 C106.152943,76.482036 103.321871,75.4948541 101.56816,75.3528688 C99.814449,75.2108834 98.1921706,73.9435683 98.189289,71.595054 C98.1864144,69.2455803 99.9775403,67.6760666 101.472224,67.4141612 C102.968826,67.1532152 107.780019,67.5053005 106.966481,71.9941479" id="Fill-540" fill="#F2635C"></path>
                        <path d="M106.791302,101.275747 C106.491022,105.043155 103.525639,105.54586 101.767131,105.244621 C101.067757,105.124701 98.8036669,103.486113 98.5177775,101.746793 C98.2079041,99.8587715 99.0051326,97.5582252 102.528863,96.8943478 C105.334033,96.8943478 106.491022,98.3621692 106.791302,101.275747" id="Fill-542" fill="#D1261C"></path>
                        <path d="M137.579864,130.439249 C137.298771,133.945711 134.54061,134.412919 132.904901,134.132786 C132.252536,134.0215 130.14674,132.496117 129.880997,130.877676 C129.592229,129.120128 130.332855,126.979795 133.612909,126.361967 C136.223328,126.361967 137.298771,127.727137 137.579864,130.439249" id="Fill-544" fill="#26308C"></path>
                        <path d="M121.702641,115.918177 C121.422508,119.42464 118.664346,119.891848 117.027678,119.611715 C116.376272,119.500429 114.269516,117.975046 114.003773,116.356605 C113.715006,114.599057 114.455632,112.458724 117.736645,111.840895 C120.347065,111.840895 121.422508,113.206065 121.702641,115.918177" id="Fill-546" fill="#26308C"></path>
                        <path d="M136.34133,115.92614 C136.047765,119.608165 133.150497,120.098398 131.432282,119.803875 C130.749218,119.686833 128.535973,118.08566 128.256799,116.385674 C127.953642,114.540823 128.732642,112.294001 132.176746,111.644514 C134.917639,111.644514 136.047765,113.078758 136.34133,115.92614" id="Fill-548" fill="#26308C"></path>
                        <path d="M117.199115,159.18255 C117.111813,157.181324 119.287643,154.189079 122.375824,154.377114 C124.263845,154.492237 126.790801,155.832464 126.875225,157.771331 C127.022966,161.130052 125.026537,162.336927 123.129881,162.965308 C121.928762,163.364402 117.85148,162.280325 117.199115,159.18255" id="Fill-550" fill="#D1261C"></path>
                        <path d="M72.6262705,162.854215 C72.9639654,158.63111 76.2862305,158.067965 78.2567568,158.40662 C79.0415137,158.54093 81.579022,160.377146 81.898489,162.326566 C82.2467368,164.442915 81.3545316,167.020717 77.402926,167.765181 C74.2591019,167.765181 72.9639654,166.119877 72.6262705,162.854215" id="Fill-552" fill="#26308C"></path>
                        <path d="M106.205804,117.337935 C103.344991,117.026143 102.178409,113.770073 102.776091,112.273471 C103.97721,109.267795 109.149122,109.938388 109.444605,112.801119 C109.722819,115.48541 108.259795,117.337935 106.205804,117.337935" id="Fill-554" fill="#D1261C"></path>
                        <path d="M90.9684744,103.284839 C88.1086209,102.973047 86.9410793,99.716978 87.5387608,98.2203757 C88.7398801,95.2146995 93.9108328,95.8852925 94.2072751,98.748024 C94.4854897,101.432314 93.0234244,103.284839 90.9684744,103.284839" id="Fill-556" fill="#D1261C"></path>
                        <path d="M104.458521,89.1173884 C101.145849,88.7566689 99.79507,84.9863824 100.487728,83.2537775 C101.878801,79.7732179 107.866169,80.5502998 108.208661,83.8648901 C108.531006,86.9732179 106.836775,89.1173884 104.458521,89.1173884" id="Fill-558" fill="#F2635C"></path>
                        <path d="M90.3004717,81.0958881 C93.2351552,80.6305983 95.1577135,84.3864943 95.1279734,86.1152618 C95.0991925,87.9015909 93.7234697,90.3393258 90.7859081,90.3393258 C87.8464277,90.3393258 86.7508381,88.1289594 86.510998,85.9358614 C86.3718907,84.6647089 87.4233498,81.0661479 90.3004717,81.0958881" id="Fill-560" fill="#F2635C"></path>
                        <path d="M128.102438,100.383829 C128.401759,96.6164211 131.367142,96.1137162 133.12469,96.4149554 C133.825983,96.5348754 136.089114,98.173463 136.375003,99.9127835 C136.684877,101.801764 135.887648,104.101351 132.363917,104.765229 C129.559707,104.765229 128.401759,103.297407 128.102438,100.383829" id="Fill-562" fill="#26308C"></path>
                        <path d="M114.24323,100.383829 C114.54351,96.6164211 117.508893,96.1137162 119.266441,96.4149554 C119.965815,96.5348754 122.230865,98.173463 122.516754,99.9127835 C122.826628,101.801764 122.029399,104.101351 118.505668,104.765229 C115.701458,104.765229 114.54351,103.297407 114.24323,100.383829" id="Fill-564" fill="#26308C"></path>
                        <path d="M119.974065,136.631057 C116.150055,136.214694 114.589175,131.862076 115.389282,129.86085 C116.996211,125.842089 123.908402,126.739091 124.304618,130.56598 C124.674931,134.154947 122.719755,136.631057 119.974065,136.631057" id="Fill-566" fill="#D1261C"></path>
                        <path d="M82.1824597,145.510321 C82.0788488,147.510588 79.6267235,150.28218 76.5692418,149.799622 C74.7013671,149.505098 72.3154377,147.930787 72.4152112,145.99192 C72.5888554,142.634159 74.6908141,141.622993 76.6392751,141.178809 C77.8749314,140.895797 81.8303744,142.364578 82.1824597,145.510321" id="Fill-568" fill="#D1261C"></path>
                        <path d="M139.646614,114.72032 C140.392037,110.606582 142.987107,111.512219 144.594036,111.642692 C146.200965,111.772205 147.687973,112.933031 147.690853,115.085836 C147.69277,117.238641 146.052264,118.677682 144.681338,118.917522 C143.310412,119.156402 138.901191,118.834057 139.646614,114.72032" id="Fill-570" fill="#26308C"></path>
                        <path d="M144.12299,134.347875 C140.810318,133.987155 139.459539,130.216869 140.152197,128.484264 C141.544229,125.003704 147.530638,125.780786 147.87313,129.095376 C148.194516,132.203704 146.501245,134.347875 144.12299,134.347875" id="Fill-572" fill="#26308C"></path>
                        <path d="M86.982044,76.0348781 C84.2248421,76.4723464 82.4174071,72.9428594 82.4452285,71.3196216 C82.4740093,69.6407408 83.7653085,67.3497881 86.5253884,67.3497881 C89.2864277,67.3497881 90.3177402,69.4268035 90.5422305,71.4875097 C90.6727035,72.6819134 89.6855217,76.0626995 86.982044,76.0348781" id="Fill-574" fill="#F2635C"></path>
                        <path d="M12.6137668,28.1230753 C12.6137668,24.2664464 16.1921812,22.8178121 18.0811619,22.9262199 C19.7677175,23.0221559 22.5220413,25.4694843 22.5220413,28.0626356 C22.5220413,30.6260466 19.6142199,32.6148008 18.0945929,32.5466862 C16.0501959,32.455547 12.9620147,32.0123225 12.6137668,28.1230753" id="Fill-576" fill="#F2635C"></path>
                        <path d="M4.14721919,32.6748568 C0.834547635,32.3141372 -0.516231845,28.5438508 0.176426382,26.8112458 C1.567499,23.3306862 7.55486742,24.1077682 7.89735909,27.4223584 C8.21874484,30.5306862 6.52547368,32.6748568 4.14721919,32.6748568" id="Fill-578" fill="#D1261C"></path>
                        <path d="M12.1959654,43.0264517 C11.8505956,47.3522079 8.44774417,47.9287835 6.42924983,47.5824544 C5.6253058,47.4452658 3.0263984,45.56396 2.69829714,43.5665716 C2.34237442,41.3993764 3.2566449,38.7592165 7.30322718,37.996525 C10.5238001,37.996525 11.8505956,39.6811619 12.1959654,43.0264517" id="Fill-580" fill="#D1261C"></path>
                        <path d="M26.6959307,34.6015403 C29.0914537,43.2712805 32.3695883,51.0651246 37.3601812,58.5845916 C42.3843518,66.1539454 48.2143851,73.2090819 54.4041785,79.8478561 C67.1492818,93.5187422 81.2537988,105.892573 93.4885223,120.04218 C96.8702678,123.954452 100.090841,128.002953 103.013053,132.271147 C104.68138,134.706963 106.30174,137.214732 107.538356,139.902859 C109.010974,143.104245 109.364978,146.252866 109.713226,149.705604 C109.9924,152.469522 113.78667,153.241807 114.690388,150.379075 C117.692227,140.87757 109.073332,130.515518 103.635678,123.574545 C97.8161972,116.144298 91.2800746,109.311734 84.5837388,102.672959 C71.1152778,89.3215403 56.7373431,76.6666169 44.9679094,61.7197815 C38.4720799,53.4712005 32.1604477,43.9706542 28.3441119,34.1477628 C27.9546116,33.1452312 26.3966103,33.517463 26.6959307,34.6015403" id="Fill-582" fill="#D1261C"></path>
                        <path d="M37.6049141,81.2696282 C42.6108568,90.6876696 48.6500306,99.5771033 55.9459667,107.3815 C62.0935483,113.957916 68.7025823,120.070961 75.0861666,126.411374 C81.1637149,132.448629 87.0973591,138.608682 91.9296576,145.714665 C97.6330553,154.100434 101.741996,163.477223 106.192469,172.553732 C107.717852,175.663019 111.930404,173.325058 111.416187,170.352 C106.142582,139.758955 79.8417162,121.845777 59.2682318,101.485271 C52.2965596,94.5874697 45.488938,87.5755043 39.2233551,80.0195816 C38.45107,79.0861239 37.0763065,80.2766902 37.6049141,81.2696282" id="Fill-584" fill="#D1261C"></path>
                    </g>
                </g>
            </g>
        </g>
    </g>
</svg>