<?xml version="1.0" encoding="UTF-8"?>
<svg width="50px" height="50px" viewBox="0 0 50 50" version="1.1" xmlns="http://www.w3.org/2000/svg" xmlns:xlink="http://www.w3.org/1999/xlink">
    <title>video_overlay_default</title>
    <g id="Page-1" stroke="none" stroke-width="1" fill="none" fill-rule="evenodd">
        <g id="video_overlay_default" fill-rule="nonzero">
            <path d="M25,50 C11.1928813,50 0,38.8071187 0,25 C0,11.1928813 11.1928813,0 25,0 C38.8071187,0 50,11.1928813 50,25 C50,38.8071187 38.8071187,50 25,50 Z" id="Path" fill="#050D3A" opacity="0.200000003"></path>
            <path d="M25,4.5 C30.6609187,4.5 35.7859187,6.7945407 39.495689,10.504311 C43.2054593,14.2140813 45.5,19.3390813 45.5,25 C45.5,30.6609187 43.2054593,35.7859187 39.495689,39.495689 C35.7859187,43.2054593 30.6609187,45.5 25,45.5 C19.3390813,45.5 14.2140813,43.2054593 10.504311,39.495689 C6.7945407,35.7859187 4.5,30.6609187 4.5,25 C4.5,19.3390813 6.7945407,14.2140813 10.504311,10.504311 C14.2140813,6.7945407 19.3390813,4.5 25,4.5 Z" id="Path" stroke-opacity="0.1" stroke="#050D3A" fill="#FFFFFF"></path>
            <path d="M22.7217586,17.217203 C22.5640002,17.0781302 22.3500338,17 22.1269296,17 C21.6623392,17 21.2857143,17.3320155 21.2857143,17.7415773 L21.2857143,32.2584227 C21.2857143,32.4551012 21.3743421,32.6437243 21.5321005,32.782797 C21.8606156,33.072401 22.3932436,33.072401 22.7217586,32.782797 L32.4678995,25.5243743 C32.7964145,25.2347704 32.7964145,24.7652296 32.4678995,24.4756257 L22.7217586,17.217203 Z" id="Path" fill="#050D3A" opacity="0.4"></path>
        </g>
    </g>
</svg>