<?xml version="1.0" encoding="UTF-8"?>
<svg width="21px" height="14px" viewBox="0 0 21 14" version="1.1" xmlns="http://www.w3.org/2000/svg" xmlns:xlink="http://www.w3.org/1999/xlink">
    <title>social_share_icn_youtube</title>
    <defs>
        <filter color-interpolation-filters="auto" id="filter-1">
            <feColorMatrix in="SourceGraphic" type="matrix" values="0 0 0 0 0.070588 0 0 0 0 0.109804 0 0 0 0 0.305882 0 0 0 1.000000 0"></feColorMatrix>
        </filter>
    </defs>
    <g id="Symbols" stroke="none" stroke-width="1" fill="none" fill-rule="evenodd">
        <g id="Nav-/-Footer" transform="translate(-619.000000, -532.000000)">
            <g id="Navigation/footer" transform="translate(200.000000, 98.999693)">
                <g id="Group" transform="translate(0.000000, 431.000307)">
                    <g id="Social-Icons" transform="translate(331.000000, 0.000000)" filter="url(#filter-1)">
                        <g>
                            <path d="M105.851312,2.20154625 C106.262125,2.24757842 107.15725,2.25131076 107.95525,3.04381054 C108.58525,3.6484493 108.79,5.02070559 108.79,5.02070559 C108.79,5.02070559 109,6.6305874 109,8.24171332 L109,9.75206612 C109,11.363192 108.79,12.974318 108.79,12.974318 C108.79,12.974318 108.58525,14.3453301 107.95525,14.9499689 C107.15725,15.7424687 106.262125,15.746201 105.851312,15.7922332 C105.248505,15.833576 104.583677,15.8667 103.907639,15.8932374 L103.145045,15.9203993 C101.197803,15.9831518 99.3153809,15.9965211 98.7051806,15.9992948 L98.5086042,15.9999845 C98.5029011,15.9999959 98.5,16 98.5,16 L98.4888249,15.9999007 L98.4888249,15.9999007 L98.4024552,15.9990879 C98.021369,15.995383 96.5788628,15.9800567 95.0569981,15.9470264 L94.5481178,15.9353523 C93.2753047,15.9044859 92.0231579,15.8608558 91.36,15.800942 C90.89275,15.7175864 89.84275,15.7424687 89.04475,14.9499689 C88.41475,14.3453301 88.21,12.974318 88.21,12.974318 C88.21,12.974318 88,11.363192 88,9.75206612 L88,8.24171332 C88,6.6305874 88.21,5.02070559 88.21,5.02070559 C88.21,5.02070559 88.41475,3.6484493 89.04475,3.04381054 C89.84275,2.25131076 90.737875,2.24757842 91.1486875,2.20154625 C93.6352692,2.03100712 97.1743362,2.00477033 98.2044258,2.0007339 L98.7955742,2.0007339 C99.8256638,2.00477033 103.364731,2.03100712 105.851312,2.20154625 Z M96,6 L96.0013876,12 L102,9.01067616 L96,6 Z" id="social_share_icn_youtube" fill="#FFFFFF"></path>
                        </g>
                    </g>
                </g>
            </g>
        </g>
    </g>
</svg>