<?xml version="1.0" encoding="UTF-8"?>
<svg width="18px" height="18px" viewBox="0 0 18 18" version="1.1" xmlns="http://www.w3.org/2000/svg" xmlns:xlink="http://www.w3.org/1999/xlink">
    <title>social_share_icn_linkedin</title>
    <defs>
        <filter color-interpolation-filters="auto" id="filter-1">
            <feColorMatrix in="SourceGraphic" type="matrix" values="0 0 0 0 0.070588 0 0 0 0 0.109804 0 0 0 0 0.305882 0 0 0 1.000000 0"></feColorMatrix>
        </filter>
    </defs>
    <g id="Symbols" stroke="none" stroke-width="1" fill="none" fill-rule="evenodd">
        <g id="Nav-/-Footer" transform="translate(-670.000000, -530.000000)">
            <g id="Navigation/footer" transform="translate(200.000000, 98.999693)">
                <g id="Group" transform="translate(0.000000, 431.000307)">
                    <g id="Social-Icons" transform="translate(331.000000, 0.000000)" filter="url(#filter-1)">
                        <g>
                            <path d="M143,6 L143,18 L139,18 L139,6 L143,6 Z M152.383633,6 C156.280325,6 157,8.42458612 157,11.5779749 L157,18 L153.15206,18 L153.15206,12.3056801 C153.15206,10.9479557 153.126524,9.20168298 151.15206,9.20168298 C149.149739,9.20168298 148.844457,10.6812403 148.844457,12.2090917 L148.844457,18 L145,18 L145,6.29086253 L148.688915,6.29086253 L148.688915,7.89225281 L148.74231,7.89225281 C149.255369,6.97137108 150.511317,6 152.383633,6 Z M141.00156,0 C142.104291,0 143,0.896515861 143,2 C143,3.10348414 142.104291,4 141.00156,4 C139.893628,4 139,3.10348414 139,2 C139,0.896515861 139.893628,0 141.00156,0 Z" id="social_share_icn_linkedin" fill="#FFFFFF"></path>
                        </g>
                    </g>
                </g>
            </g>
        </g>
    </g>
</svg>