<?xml version="1.0" encoding="UTF-8"?>
<svg width="18px" height="14px" viewBox="0 0 18 14" version="1.1" xmlns="http://www.w3.org/2000/svg" xmlns:xlink="http://www.w3.org/1999/xlink">
    <title>social_share_icn_twitter</title>
    <defs>
        <filter color-interpolation-filters="auto" id="filter-1">
            <feColorMatrix in="SourceGraphic" type="matrix" values="0 0 0 0 0.070588 0 0 0 0 0.109804 0 0 0 0 0.305882 0 0 0 1.000000 0"></feColorMatrix>
        </filter>
    </defs>
    <g id="Symbols" stroke="none" stroke-width="1" fill="none" fill-rule="evenodd">
        <g id="Nav-/-Footer" transform="translate(-571.000000, -532.000000)">
            <g id="Navigation/footer" transform="translate(200.000000, 98.999693)">
                <g id="Group" transform="translate(0.000000, 431.000307)">
                    <g id="Social-Icons" transform="translate(331.000000, 0.000000)" filter="url(#filter-1)">
                        <g>
                            <path d="M56.15725,5.48734907 C56.164,5.63916019 56.1685,5.79097131 56.1685,5.94493578 C56.1685,10.6144736 52.45375,16 45.661,16 C43.57525,16 41.634625,15.4153657 40,14.4129816 C40.289125,14.4452819 40.58275,14.461432 40.880875,14.461432 C42.611125,14.461432 44.203,13.8972545 45.4675,12.9487041 C43.850875,12.9207106 42.487375,11.8989464 42.017125,10.4949627 C42.24325,10.5358763 42.473875,10.5574098 42.712375,10.5574098 C43.04875,10.5574098 43.375,10.5143428 43.6855,10.4335922 C41.99575,10.1095132 40.723375,8.68076598 40.723375,6.96885334 L40.723375,6.92363301 C41.220625,7.18849496 41.791,7.34784281 42.39625,7.36614627 C41.405125,6.73198493 40.752625,5.64992694 40.752625,4.42467123 C40.752625,3.77651311 40.934875,3.16926863 41.25325,2.64708144 C43.074625,4.78535723 45.796,6.19257095 48.865,6.34007537 C48.802,6.08167346 48.769375,5.81142813 48.769375,5.53472276 C48.769375,3.58271168 50.423125,2 52.461625,2 C53.52475,2 54.484375,2.42959317 55.157125,3.11651157 C55.998625,2.95824041 56.7895,2.66430824 57.50275,2.25947858 C57.227125,3.08421134 56.641,3.77651311 55.879375,4.21471968 C56.626375,4.12858571 57.337375,3.93909098 58,3.6580789 C57.505,4.3665308 56.878375,4.98884873 56.15725,5.48734907 L56.15725,5.48734907 Z" id="social_share_icn_twitter" fill="#FFFFFF"></path>
                        </g>
                    </g>
                </g>
            </g>
        </g>
    </g>
</svg>