<?xml version="1.0" encoding="UTF-8"?>
<svg width="37px" height="37px" viewBox="0 0 37 37" version="1.1" xmlns="http://www.w3.org/2000/svg" xmlns:xlink="http://www.w3.org/1999/xlink">
    <title>icn-contract</title>
    <g id="Page-1" stroke="none" stroke-width="1" fill="none" fill-rule="evenodd">
        <g id="icn-contract" fill="#2062FE" fill-rule="nonzero">
            <g id="Mask_1_" transform="translate(0.760000, 0.760000)">
                <path d="M18.2,3.2 C9.9,3.2 3.2,9.9 3.2,18.2 C3.2,26.5 9.9,33.2 18.2,33.2 C26.5,33.2 33.2,26.5 33.2,18.2 C33.2,9.9 26.5,3.2 18.2,3.2 M18.2,36.2 C8.3,36.2 0.2,28.1 0.2,18.2 C0.2,8.3 8.3,0.2 18.2,0.2 C28.1,0.2 36.2,8.3 36.2,18.2 C36.2,28.1 28.2,36.2 18.2,36.2" id="path-3_1_"></path>
            </g>
            <g id="Mask_2_" transform="translate(11.320000, 17.400000)">
                <polygon id="path-5_1_" points="15.2 0.1 0.2 0.1 0.2 3.1 15.2 3.1"></polygon>
            </g>
        </g>
    </g>
</svg>