<?xml version="1.0" encoding="UTF-8"?>
<svg width="22px" height="22px" viewBox="0 0 22 22" version="1.1" xmlns="http://www.w3.org/2000/svg" xmlns:xlink="http://www.w3.org/1999/xlink">
    <title>icn-ig</title>
    <g id="Page-1" stroke="none" stroke-width="1" fill="none" fill-rule="evenodd">
        <g id="icn-ig" fill="#121C4E" fill-rule="nonzero">
            <path d="M11,0 C8.014875,0 7.6395,0.01375 6.466625,0.066 C5.29375,0.121 4.494875,0.30525 3.795,0.5775 C3.0608792,0.853626264 2.39592583,1.28676103 1.846625,1.846625 C1.2871047,2.39620716 0.854022503,3.06107983 0.5775,3.795 C0.30525,4.4935 0.119625,5.29375 0.066,6.4625 C0.01375,7.638125 0,8.012125 0,11.001375 C0,13.987875 0.01375,14.361875 0.066,15.53475 C0.121,16.70625 0.30525,17.505125 0.5775,18.205 C0.859375,18.92825 1.23475,19.5415 1.846625,20.153375 C2.457125,20.76525 3.070375,21.142 3.793625,21.4225 C4.494875,21.69475 5.292375,21.880375 6.463875,21.934 C7.638125,21.98625 8.012125,22 11,22 C13.987875,22 14.3605,21.98625 15.53475,21.934 C16.704875,21.879 17.5065,21.69475 18.206375,21.4225 C18.940024,21.1462363 19.6045005,20.7131065 20.153375,20.153375 C20.76525,19.5415 21.140625,18.92825 21.4225,18.205 C21.693375,17.505125 21.879,16.70625 21.934,15.53475 C21.98625,14.361875 22,13.987875 22,11 C22,8.012125 21.98625,7.638125 21.934,6.463875 C21.879,5.29375 21.693375,4.4935 21.4225,3.795 C21.146017,3.06105981 20.7129296,2.3961791 20.153375,1.846625 C19.6042437,1.28655399 18.9392416,0.853387478 18.205,0.5775 C17.50375,0.30525 16.7035,0.119625 15.533375,0.066 C14.359125,0.01375 13.9865,0 10.99725,0 L11.001375,0 L11,0 Z M10.014125,1.98275 L11.001375,1.98275 C13.938375,1.98275 14.28625,1.992375 15.445375,2.046 C16.517875,2.094125 17.100875,2.27425 17.488625,2.424125 C18.0015,2.6235 18.368625,2.86275 18.753625,3.24775 C19.138625,3.63275 19.3765,3.9985 19.575875,4.51275 C19.727125,4.899125 19.905875,5.482125 19.954,6.554625 C20.007625,7.71375 20.018625,8.061625 20.018625,10.99725 C20.018625,13.932875 20.007625,14.282125 19.954,15.44125 C19.905875,16.51375 19.72575,17.095375 19.575875,17.483125 C19.39952,17.9607442 19.1180372,18.3926018 18.75225,18.74675 C18.36725,19.13175 18.0015,19.369625 17.48725,19.569 C17.10225,19.72025 16.51925,19.899 15.445375,19.9485 C14.28625,20.00075 13.938375,20.013125 11.001375,20.013125 C8.064375,20.013125 7.715125,20.00075 6.556,19.9485 C5.4835,19.899 4.901875,19.72025 4.514125,19.569 C4.03631122,19.3928915 3.60404835,19.1119207 3.249125,18.74675 C2.88303236,18.392046 2.60111914,17.9597791 2.424125,17.48175 C2.27425,17.095375 2.094125,16.512375 2.046,15.439875 C1.99375,14.28075 1.98275,13.932875 1.98275,10.9945 C1.98275,8.0575 1.99375,7.711 2.046,6.551875 C2.0955,5.479375 2.27425,4.896375 2.4255,4.508625 C2.624875,3.99575 2.864125,3.628625 3.249125,3.243625 C3.634125,2.858625 3.999875,2.62075 4.514125,2.421375 C4.901875,2.270125 5.4835,2.091375 6.556,2.041875 C7.57075,1.995125 7.964,1.981375 10.014125,1.98 L10.014125,1.98275 L10.014125,1.98275 Z M16.872625,3.80875 C16.4010344,3.80875 15.9652667,4.06034056 15.7294714,4.46874999 C15.4936761,4.87715942 15.4936761,5.38034058 15.7294714,5.78875001 C15.9652667,6.19715944 16.4010344,6.44875 16.872625,6.44875 C17.6016409,6.44875 18.192625,5.85776586 18.192625,5.12875 C18.192625,4.39973414 17.6016409,3.80875 16.872625,3.80875 L16.872625,3.80875 Z M11.001375,5.3515 C8.96210954,5.31968402 7.06398687,6.38940047 6.03505903,8.15034436 C5.00613118,9.91128824 5.00613118,12.0900868 6.03505903,13.8510306 C7.06398687,15.6119745 8.96210954,16.681691 11.001375,16.649875 C14.0869736,16.6017345 16.5631131,14.0866617 16.5631131,11.0006875 C16.5631131,7.91471334 14.0869736,5.39964055 11.001375,5.3515 Z M11.001375,7.332875 C13.0266722,7.332875 14.6685,8.97470279 14.6685,11 C14.6685,13.0252972 13.0266722,14.667125 11.001375,14.667125 C8.97607779,14.667125 7.33425,13.0252972 7.33425,11 C7.33425,8.97470279 8.97607779,7.332875 11.001375,7.332875 Z" id="Shape"></path>
        </g>
    </g>
</svg>