<?xml version="1.0" encoding="UTF-8"?>
<svg width="60px" height="64px" viewBox="0 0 60 64" version="1.1" xmlns="http://www.w3.org/2000/svg" xmlns:xlink="http://www.w3.org/1999/xlink">
    <title>Iconography / comments</title>
    <g id="Phase-1" stroke="none" stroke-width="1" fill="none" fill-rule="evenodd">
        <g id="Why-ADP---MAIN-V2" transform="translate(-519.000000, -4924.000000)" fill="#7967AE">
            <g id="Stacked-Group">
                <g id="lead-form" transform="translate(0.000000, 4845.000000)">
                    <g id="new" transform="translate(0.000000, 1.000000)">
                        <g id="Iconography-/-comments" transform="translate(519.000000, 78.000000)">
                            <path d="M21.9075,47.455 L21.9075,63.225625 L17.398125,63.225625 L17.398125,51.964375 L6.13687498,51.964375 L6.13687498,63.225625 L1.62749998,63.225625 L1.62749998,47.455 L21.9075,47.455 Z M53.570625,53.816875 L53.570625,63.10375 L49.06125,63.10375 L49.06125,58.32625 L37.8,58.32625 L37.8,63.10375 L33.315,63.10375 L33.315,53.816875 L53.570625,53.816875 Z M46.4697953,35.1688055 C49.4200941,36.3988723 51.3379906,39.2860598 51.3281629,42.4825 C51.3281629,44.5748127 50.4953023,46.5810757 49.0135289,48.0582757 C47.5317555,49.5354757 45.5229277,50.3621028 43.430625,50.3556628 C40.2341696,50.3556628 37.3529244,48.4287976 36.1319834,45.4747105 C34.9110425,42.5206234 35.5911986,39.1218639 37.8549247,36.8651247 C40.1186507,34.6083855 43.5194965,33.9387387 46.4697953,35.1688055 Z M43.430625,39.094375 C41.5594152,39.094375 40.0425,40.6112902 40.0425,42.4825 C40.0425,44.3537098 41.5594152,45.870625 43.430625,45.870625 C45.3018348,45.870625 46.81875,44.3537098 46.81875,42.4825 C46.8252999,41.5819214 46.4704415,40.7163277 45.8336194,40.0795056 C45.1967973,39.4426835 44.3312036,39.0878251 43.430625,39.094375 Z M14.7597105,27.7738584 C17.7137976,28.9947994 19.640625,31.8760445 19.640625,35.0725 C19.640625,39.4246675 16.1196467,42.9565674 11.7675,42.9700379 C8.57105976,42.9798656 5.68387224,41.0619691 4.45380548,38.1116703 C3.22373872,35.1613715 3.89338545,31.7605257 6.15012468,29.4967997 C8.4068639,27.2330736 11.8056234,26.5529175 14.7597105,27.7738584 Z M11.7675,31.70875 C10.3927449,31.6988947 9.14831881,32.5207505 8.61766013,33.7889973 C8.08700145,35.0572441 8.37532229,36.5204305 9.34744588,37.4925541 C10.3195695,38.4646777 11.7827559,38.7529985 13.0510027,38.2223399 C14.3192495,37.6916812 15.1411052,36.447255 15.13125,35.0725 C15.13125,34.180378 14.7768559,33.3247951 14.1460304,32.6939696 C13.5152049,32.0631441 12.659622,31.70875 11.7675,31.70875 Z" id="Combined-Shape"></path>
                            <path d="M34.53375,0.720804509 C37.0010077,0.694824688 39.3771826,1.6517532 41.1378264,3.3803853 C42.8984702,5.1090174 43.8988335,7.46723545 43.918125,9.93455452 L43.918125,9.93455452 L43.918125,12.7133045 L51.230625,12.7133045 C53.3335899,12.6807596 55.3626684,13.4883969 56.8680572,14.9571805 C58.373446,16.4259641 59.2307776,18.4345506 59.25,20.5376795 L59.25,20.5376795 L59.25,42.7676795 L54.375,42.7676795 L54.375,20.5376795 C54.3482727,18.7971612 52.9225454,17.4040841 51.181875,17.4176795 L51.181875,17.4176795 L43.869375,17.4176795 L43.869375,18.4901795 C43.8659983,19.8074772 43.5660826,21.1071121 42.991875,22.2926795 L42.991875,22.2926795 L50.23125,22.2926795 L50.23125,26.8751795 L38.04375,26.8751795 C36.9297256,27.330314 35.7371524,27.5622033 34.53375,27.5576795 L34.53375,27.5576795 L28.561875,27.5576795 L28.561875,29.9951795 C28.561875,30.2913422 28.8019623,30.5314295 29.098125,30.5314295 L29.098125,30.5314295 L33.193125,30.5314295 L33.193125,35.3333045 L29.025,35.3333045 C27.6286174,35.3462939 26.2842733,34.8040094 25.2877388,33.8257599 C24.2912042,32.8475104 23.7241196,31.5134383 23.71125,30.1170545 L23.71125,30.1170545 L23.71125,22.9995545 L34.53375,22.9995545 C35.7361805,23.0060366 36.8919357,22.5345805 37.7467537,21.6889049 C38.6015718,20.8432293 39.0854277,19.6926102 39.091875,18.4901795 L39.091875,18.4901795 L39.091875,9.93455452 C39.0854277,8.73212383 38.6015718,7.58150473 37.7467537,6.73582912 C36.8919357,5.89015352 35.7361805,5.41869745 34.53375,5.42517951 L34.53375,5.42517951 L10.15875,5.42517951 C7.66978614,5.43834768 5.65158546,7.44569782 5.62499998,9.93455452 L5.62499998,9.93455452 L5.62499998,23.4626795 L0.749999981,23.4626795 L0.749999981,9.93455452 C0.769248105,7.46296096 1.77296211,5.10100298 3.53889973,3.3716651 C5.30483735,1.64232723 7.68729532,0.688292966 10.15875,0.720804509 L10.15875,0.720804509 Z M33.095625,12.7133045 L33.095625,17.4176795 L11.596875,17.4176795 L11.596875,12.7133045 L33.095625,12.7133045 Z" id="Combined-Shape"></path>
                        </g>
                    </g>
                </g>
            </g>
        </g>
    </g>
</svg>