<?xml version="1.0" encoding="UTF-8"?>
<svg width="55px" height="55px" viewBox="0 0 55 55" version="1.1" xmlns="http://www.w3.org/2000/svg" xmlns:xlink="http://www.w3.org/1999/xlink">
    <!-- Generator: Sketch 51.3 (57544) - http://www.bohemiancoding.com/sketch -->
    <title>EOW icon</title>
    <desc>Created with Sketch.</desc>
    <defs>
        <polygon id="path-1" points="19 11 37 11 37 25 19 25"></polygon>
        <polygon id="path-3" points="14 38 42 38 42 11 14 11"></polygon>
    </defs>
    <g id="Page-1" stroke="none" stroke-width="1" fill="none" fill-rule="evenodd">
        <g id="3.4.3.1.x.x---RI-Legislative-Updates-Design" transform="translate(-791.000000, -249.000000)">
            <g id="right-column" transform="translate(672.000000, 207.000000)">
                <g id="Promo-desktop">
                    <g id="EOW-icon" transform="translate(119.000000, 42.000000)">
                        <circle id="Oval-Copy-2" fill="#009EDD" cx="27.7561035" cy="27.7561035" r="27"></circle>
                        <polygon id="Fill-1" fill="#FFFFFF" points="18.3241374 27.8861191 19.8619853 27.8861191 19.8619853 31 21.2930613 31 21.2930613 27.8861191 22.8309092 27.8861191 22.8309092 31 24.2619853 31 24.2619853 27.8861191 25.8 27.8861191 25.8 31 27.2310761 31 27.2310761 27.8861191 28.7689239 27.8861191 28.7689239 31 30.2 31 30.2 27.8861191 31.7378479 27.8861191 31.7378479 31 33.1689239 31 33.1689239 27.8861191 34.7067718 27.8861191 34.7067718 31 36.1378479 31 36.1378479 27.8861191 37.6756958 27.8861191 37.6756958 31 39 31 39 26 17 26 17 31 18.3241374 31"></polygon>
                        <mask id="mask-2" fill="white">
                            <use xlink:href="#path-1"></use>
                        </mask>
                        <g id="Clip-3"></g>
                        <path d="M37,25 C36.2472718,22 35.1182616,20.8181971 35.1182616,20.8181971 C33.3041326,18.7262064 30.993436,17.9004692 29.5053743,17.5748995 L29.5053743,14.584618 L28.7564204,14.584618 L28.7564204,11 L27.2435796,11 L27.2435796,14.584618 L26.4944616,14.584618 L26.4944616,17.5748995 C25.0063999,17.9004692 22.6958674,18.7262064 20.8817384,20.8181971 C20.8817384,20.8181971 19.7525641,22 19,25 L37,25 Z" id="Fill-2" fill="#FFFFFF" mask="url(#mask-2)"></path>
                        <mask id="mask-4" fill="white">
                            <use xlink:href="#path-3"></use>
                        </mask>
                        <g id="Clip-6"></g>
                        <path d="M39.1057837,36.5144563 L40.6434716,36.5144563 L40.6434716,33.4855437 L39.1057837,33.4855437 L39.1057837,36.5144563 Z M36.1371685,36.5144563 L37.6748564,36.5144563 L37.6748564,33.4855437 L36.1371685,33.4855437 L36.1371685,36.5144563 Z M33.1685532,36.5144563 L34.7062412,36.5144563 L34.7062412,33.4855437 L33.1685532,33.4855437 L33.1685532,36.5144563 Z M30.1997712,36.5144563 L31.7374592,36.5144563 L31.7374592,33.4855437 L30.1997712,33.4855437 L30.1997712,36.5144563 Z M27.231156,36.5144563 L28.768844,36.5144563 L28.768844,33.4855437 L27.231156,33.4855437 L27.231156,36.5144563 Z M24.2625408,36.5144563 L25.8002288,36.5144563 L25.8002288,33.4855437 L24.2625408,33.4855437 L24.2625408,36.5144563 Z M21.2939256,36.5144563 L22.8316136,36.5144563 L22.8316136,33.4855437 L21.2939256,33.4855437 L21.2939256,36.5144563 Z M18.3253104,36.5144563 L19.8629984,36.5144563 L19.8629984,33.4855437 L18.3253104,33.4855437 L18.3253104,36.5144563 Z M15.3565284,36.5144563 L16.8942163,36.5144563 L16.8942163,33.4855437 L15.3565284,33.4855437 L15.3565284,36.5144563 Z M14,32 L14,38 L28,38 L42,38 L42,32 L14,32 Z" id="Fill-5" fill="#FFFFFF" mask="url(#mask-4)"></path>
                    </g>
                </g>
            </g>
        </g>
    </g>
</svg>