<?xml version="1.0" encoding="UTF-8"?>
<svg width="20px" height="20px" viewBox="0 0 20 20" version="1.1" xmlns="http://www.w3.org/2000/svg" xmlns:xlink="http://www.w3.org/1999/xlink">
    <title>button_icn_video_play_20_linkblue</title>
    <g id="Page-1" stroke="none" stroke-width="1" fill="none" fill-rule="evenodd">
        <g id="button_icn_video_play_20_linkblue" fill="#2F6CFE" fill-rule="nonzero">
            <path d="M10,20 C4.4771525,20 0,15.5228475 0,10 C0,4.4771525 4.4771525,0 10,0 C15.5228475,0 20,4.4771525 20,10 C20,15.5228475 15.5228475,20 10,20 Z M8.92058995,5.94645987 C8.83776675,5.87402617 8.72543439,5.83333333 8.6083047,5.83333333 C8.36439475,5.83333333 8.16666667,6.00625805 8.16666667,6.2195715 L8.16666667,13.7804285 C8.16666667,13.8828652 8.21319625,13.9811064 8.29601945,14.0535401 C8.46848983,14.2043755 8.74811957,14.2043755 8.92058995,14.0535401 L14.0373139,10.2731116 C14.2097843,10.1222762 14.2097843,9.87772376 14.0373139,9.72688837 L8.92058995,5.94645987 Z" id="icn_button_play_video_mini_white"></path>
        </g>
    </g>
</svg>