<?xml version="1.0" encoding="UTF-8"?>
<svg width="20px" height="20px" viewBox="0 0 20 20" version="1.1" xmlns="http://www.w3.org/2000/svg" xmlns:xlink="http://www.w3.org/1999/xlink">
    <title>icn-txtlink-video-ui-outline</title>
    <g id="Page-1" stroke="none" stroke-width="1" fill="none" fill-rule="evenodd">
        <g id="icn-txtlink-video-ui-outline" fill="#2F6CFE" fill-rule="nonzero">
            <path d="M10,0 C15.4736842,0 20,4.52631579 20,10 C20,15.4736842 15.4736842,20 10,20 C4.52631579,20 0,15.4736842 0,10 C0,4.52631579 4.52631579,0 10,0 Z M10,1.5 C5.26582278,1.5 1.5,5.37341772 1.5,10 C1.5,14.6265823 5.37341772,18.5 10,18.5 C14.6265823,18.5 18.5,14.6265823 18.5,10 C18.5,5.37341772 14.7341772,1.5 10,1.5 Z M8.92392328,5.94312654 C8.84110008,5.87069284 8.72876772,5.83 8.61163803,5.83 C8.36772808,5.83 8.17,6.00292472 8.17,6.21623817 L8.17,13.7770952 C8.17,13.8795319 8.21652958,13.9777731 8.29935278,14.0502068 C8.47182316,14.2010422 8.7514529,14.2010422 8.92392328,14.0502068 L14.0406472,10.2697783 C14.2131176,10.1189429 14.2131176,9.87439043 14.0406472,9.72355504 L8.92392328,5.94312654 Z" id="Combined-Shape"></path>
        </g>
    </g>
</svg>