<?xml version="1.0" encoding="UTF-8"?>
<svg width="106px" height="109px" viewBox="0 0 106 109" version="1.1" xmlns="http://www.w3.org/2000/svg" xmlns:xlink="http://www.w3.org/1999/xlink">
    <!-- Generator: Sketch 64 (93537) - https://sketch.com -->
    <title>Group</title>
    <desc>Created with Sketch.</desc>
    <g id="Page-1" stroke="none" stroke-width="1" fill="none" fill-rule="evenodd">
        <g id="Group" transform="translate(0.359375, 0.398736)" fill="#FFFFFF" fill-rule="nonzero">
            <path d="M105.28125,98.2731389 L105.28125,108.273139 L0,108.273139 L0,98.2731389 L105.28125,98.2731389 Z M55.140625,34.6012639 L55.14,41.9441389 L62.484375,41.9450139 L62.484375,46.9450139 L48.578125,46.9450139 L48.578125,51.7887639 L61.703125,51.7887639 L61.703125,66.6325139 L55.14,66.6321389 L55.140625,73.9762639 L50.140625,73.9762639 L50.14,66.6321389 L42.796875,66.6325139 L42.796875,61.6325139 L56.703125,61.6325139 L56.703125,56.7887639 L43.578125,56.7887639 L43.578125,41.9450139 L50.14,41.9441389 L50.140625,34.6012639 L55.140625,34.6012639 Z M52.734375,19.6481389 C55.3232098,19.6481389 57.421875,21.7468041 57.421875,24.3356389 C57.421875,26.9244736 55.3232098,29.0231389 52.734375,29.0231389 C50.1455402,29.0231389 48.046875,26.9244736 48.046875,24.3356389 C48.046875,21.7468041 50.1455402,19.6481389 52.734375,19.6481389 Z" id="Combined-Shape"></path>
            <path d="M29.515625,37.5075139 L29.5151682,79.663 L77.5151682,79.663 L77.515625,37.5075139 L87.515625,37.5075139 L87.515168,79.663 L94.875,79.6637639 L94.875,89.6637639 L10.546875,89.6637639 L10.546875,79.6637639 L19.5151682,79.663 L19.515625,37.5075139 L29.515625,37.5075139 Z M52.640625,7.10542736e-15 L103.927082,26.6002484 L99.322918,35.4772794 L52.640625,11.2650277 L5.9583317,35.4772794 L1.3541682,26.6002484 L52.640625,7.10542736e-15 Z" id="Combined-Shape"></path>
        </g>
    </g>
</svg>