<?xml version="1.0" encoding="UTF-8"?>
<svg width="20px" height="16px" viewBox="0 0 20 16" version="1.1" xmlns="http://www.w3.org/2000/svg" xmlns:xlink="http://www.w3.org/1999/xlink">
    <!-- Generator: Sketch 48.2 (47327) - http://www.bohemiancoding.com/sketch -->
    <title>Fill 1</title>
    <desc>Created with Sketch.</desc>
    <defs></defs>
    <g id="Artboard" stroke="none" stroke-width="1" fill="none" fill-rule="evenodd" transform="translate(-2.000000, -4.000000)">
        <g id="Page-1" transform="translate(2.000000, 4.000000)" fill="#BDBDBD">
            <path d="M2.83185841,2.12389381 C2.83185841,1.73292035 3.14884956,1.4159292 3.53982301,1.4159292 L16.2831858,1.4159292 C16.6741593,1.4159292 16.9911504,1.73292035 16.9911504,2.12389381 L16.9911504,4.95575221 L18.4070796,6.37168142 L18.4070796,2.12389381 C18.4070796,0.950973451 17.4561062,-1.42108547e-14 16.2831858,-1.42108547e-14 L3.53982301,-1.42108547e-14 C2.36690265,-1.42108547e-14 1.4159292,0.950973451 1.4159292,2.12389381 L1.4159292,6.37168142 L2.83185841,4.95575221 L2.83185841,2.12389381 Z M18.4070796,9.91150442 C18.4070796,8.34743363 17.139292,7.07964602 15.5752212,7.07964602 L4.24778761,7.07964602 C2.68389381,7.07964602 1.4159292,8.34743363 1.4159292,9.91150442 L1.4159292,10.619469 L18.4070796,10.619469 L18.4070796,9.91150442 Z M19.8230088,12.7433628 L19.8230088,14.8318584 C19.8348673,15.2072566 19.5585841,15.5295575 19.1858407,15.5752212 C18.7968142,15.6143363 18.4497345,15.3306195 18.4106195,14.9415929 C18.4081416,14.9168142 18.4069027,14.8922124 18.4070796,14.8672566 L18.4070796,14.159292 L1.4159292,14.159292 L1.4159292,14.8318584 C1.42778761,15.2072566 1.15150442,15.5295575 0.778761062,15.5752212 C0.389734513,15.6143363 0.0426548673,15.3306195 0.00353982301,14.9415929 C0.0010619469,14.9168142 0,14.8922124 0,14.8672566 L0,12.7433628 C0,11.9614159 0.633982301,11.3274336 1.4159292,11.3274336 L18.4070796,11.3274336 C19.1890265,11.3274336 19.8230088,11.9614159 19.8230088,12.7433628 Z" id="Fill-1"></path>
        </g>
    </g>
</svg>