<svg width="20" height="17" viewBox="0 0 20 17" xmlns="http://www.w3.org/2000/svg">
    <g fill="none" fill-rule="evenodd">
        <path d="M-2-5h24v24H-2z"/>
        <path d="M20 16.277c0 .4-.32.723-.714.723H.714C.32 17 0 16.676 0 16.277c0-.4.32-.724.714-.724h18.572c.394 0 .714.324.714.724zm-17.279-5.72c.347.537 1 .779 1.608.594l14.285-4.34c.756-.23 1.185-1.037.958-1.802-.227-.766-1.023-1.2-1.78-.97l-4.82 1.466L7.053.08 4.755.543 8.81 6.77 4.082 8.205 2.395 6.442.37 6.936l2.35 3.617.001.003z" fill="#BDBDBD" fill-rule="nonzero"/>
    </g>
</svg>
