<svg fill="none" height="160" viewBox="0 0 578 160" width="578" xmlns="http://www.w3.org/2000/svg" xmlns:xlink="http://www.w3.org/1999/xlink"><mask id="a" height="160" maskUnits="userSpaceOnUse" width="578" x="0" y="0"><path d="m3.846 0h570.308c1.337 0 1.822.14 2.311.4.49.262.873.646 1.134 1.135.262.489.401.974.401 2.31v156.155h-578v-156.154c0-1.337.14-1.822.4-2.311.256114-.48381.65196-.879312 1.136-1.135.488-.261.973-.4 2.309-.4z" fill="#fff"/></mask><mask id="b" height="47" maskUnits="userSpaceOnUse" width="48" x="430" y="-26"><path d="m430.117-25.763h46.96v46.086h-46.96z" fill="#fff"/></mask><mask id="c" height="15" maskUnits="userSpaceOnUse" width="19" x="440" y="94"><path d="m440.368 94.264h18.021v14.061h-18.02z" fill="#fff"/></mask><mask id="d" height="24" maskUnits="userSpaceOnUse" width="32" x="123" y="57"><path d="m123.369 57.038h31.513v23.652h-31.514z" fill="#fff"/></mask><mask id="e" height="21" maskUnits="userSpaceOnUse" width="40" x="419" y="49"><path d="m419.119 49.598h39.27v19.629h-39.27z" fill="#fff"/></mask><mask id="f" height="15" maskUnits="userSpaceOnUse" width="23" x="436" y="123"><path d="m436.643 123.85h21.746v13.919h-21.746z" fill="#fff"/></mask><mask id="g" height="15" maskUnits="userSpaceOnUse" width="17" x="123" y="94"><path d="m123.369 94.264h16.582v14.061h-16.582z" fill="#fff"/></mask><mask id="h" height="35" maskUnits="userSpaceOnUse" width="37" x="79" y="92"><path d="m104.83 92.6594 10.766 18.6476-25.8061 14.899-10.766-18.648z" fill="#fff"/></mask><mask id="i" height="38" maskUnits="userSpaceOnUse" width="42" x="20" y="17"><path d="m20.359 33.7432 29.8657-15.8798 11.2673 21.1907-29.8657 15.8799z" fill="#fff"/></mask><mask id="j" height="23" maskUnits="userSpaceOnUse" width="47" x="-2" y="68"><path d="m-1.49701 90.714v-22.55h45.65701v22.55z" fill="#fff"/></mask><mask id="k" height="38" maskUnits="userSpaceOnUse" width="42" x="495" y="-21"><path d="m495.795-4.73293 29.865-15.87987 11.268 21.19073-29.866 15.87987z" fill="#fff"/></mask><g mask="url(#a)"><path d="m3.846 0h570.308c1.337 0 1.822.14 2.311.4.49.262.873.646 1.134 1.135.262.489.401.974.401 2.31v156.155h-578v-156.154c0-1.337.14-1.822.4-2.311.256114-.48381.65196-.879312 1.136-1.135.488-.261.973-.4 2.309-.4z" fill="#003580"/><path clip-rule="evenodd" d="m395.453 87.71-11.944-12.422-18.06 8.52-3.471-6.33 23.32-11.002 11.477 11.937 12.535-7.625 4.2 5.94z" fill="#fff" fill-rule="evenodd"/><path clip-rule="evenodd" d="m427.78 83.665-.125-6.868 12.79-.268 7.07-7.02 4.39 5.028-8.874 8.808z" fill="#f07c00" fill-rule="evenodd"/><path clip-rule="evenodd" d="m395.894 59.398-2.593-5.948 11.552-4.163 2.594 5.949z" fill="#febb02" fill-rule="evenodd"/><path clip-rule="evenodd" d="m368.346 59.398-6.368-2.547 7.007-16.424 18.301-5.296 1.973 6.39-15.158 4.387z" fill="#f07c00" fill-rule="evenodd"/><path clip-rule="evenodd" d="m145.243 149.387-1.516-6.648 12.838-2.27 5.48-13.838 32.811-1.51.402 6.769-27.647 1.275-5.224 13.187z" fill="#febb02" fill-rule="evenodd"/><path clip-rule="evenodd" d="m341.531 8.1-5.751-4.673 10.902-13.08-6.89-10.43 8.383-12.692 6.238 4.018-5.73 8.674 7.223 10.935zm35.992 120.876-18.675-15.799 4.847-5.584 14.264 12.069 8.68-6.064 4.301 6.001z" fill="#f07c00" fill-rule="evenodd"/><g mask="url(#b)"><path clip-rule="evenodd" d="m436.085 20.323-5.968-4.4 14.456-19.108h18.943l6.314-26.353 7.247 1.693-7.67 32.013h-21.101z" fill="#fff" fill-rule="evenodd"/></g><g mask="url(#c)"><path clip-rule="evenodd" d="m442.854 108.325-2.486-6.931 20.4-7.13 2.485 6.932z" fill="#fff" fill-rule="evenodd"/></g><g clip-rule="evenodd" fill-rule="evenodd"><path d="m399.69 112.274-4.105-6.134 18.834-12.287 14.408 6.246-2.995 6.732-10.693-4.635zm-185.672-20.359-16.212-13.68-11.101 12.288-17.562-11.37 4.084-6.148 12.192 7.895 11.681-12.932 21.756 18.357z" fill="#febb02"/><path d="m181.41 65.619-20.577-7.963 2.718-6.847 20.577 7.963zm32.725-9.806-6.47-9.541-8.77.025-.023-7.354 12.76-.036 8.69 12.815z" fill="#fff"/><path d="m231.024 32.851-6.72-14.647-19.275 5.19-6.321-17.893 7.03-2.422 4.035 11.416 18.694-5.033 9.34 20.355zm-49.15 13.615c-.382-.86-3.444-6.34-6.544-11.792l-17.63 1.5-.64-7.326 22.405-1.906 1.177 2.058c7.77 13.6 8.104 14.588 8.229 14.96l-7.066 2.321c.014.045.035.108.069.184zm96.436-27.053-7.384-.96 2.203-16.493-20.086-10.068 3.37-6.557 24.789 12.425z" fill="#f07c00"/><path d="m243.574 8.253-11.184-12.004-1.095-24.515 7.44-.324.976 21.836 9.343 10.028zm-35.273 113.147-17.83-6.123 2.448-6.946 14.139 4.856 12.575-9.085 4.397 5.935z" fill="#fff"/><path d="m177.286 110.678-10.928-9.33-11.496 5.433-3.216-6.632 15.895-7.514 14.616 12.481z" fill="#f07c00"/><path d="m304.904 30.187-13.789-14.053 5.35-5.116 9.349 9.527 9.932-6.937 4.3 6.003z" fill="#febb02"/><path d="m348.841 32.607-1.88-7.114 14.7-3.786 1.457-12.485 7.398.842-2.041 17.486zm-170.737-24.573-20.04-14.966 4.493-5.865 20.04 14.966zm76.268 21.736-10.074-8.842 4.947-5.496 10.074 8.843z" fill="#fff"/><path d="m401.125 186.608-23.728-15.551 6.464-11.327-17.4-9.188 3.512-6.485 24.113 12.734-6.802 11.92 17.96 11.77z" fill="#febb02"/><path d="m348.654 173.377-4.642-7.565-8.632-3.772 3.014-6.724 10.774 4.708 5.856 9.543zm-142.915-7.893-7.032-2.422 6.322-17.893 15.603 4.201 6.119-13.985 6.836 2.916-8.68 19.843-15.134-4.076z" fill="#f07c00"/></g><g mask="url(#d)"><path clip-rule="evenodd" d="m154.668 80.69-21.882-.618-1.768-15.388-12.234.527-.325-7.346 19.176-.827 1.822 15.865 15.425.437z" fill="#f07c00" fill-rule="evenodd"/></g><path clip-rule="evenodd" d="m428.903 153.975-10.706-6.234-11.865 5.464-13.848-11.508 4.796-5.627 10.212 8.487 11.111-5.117 14.083 8.2z" fill="#fff" fill-rule="evenodd"/><path clip-rule="evenodd" d="m264.392 178.206-4.947-5.496 10.93-9.595-5.066-16.882 7.14-2.09 6.412 21.363z" fill="#f07c00" fill-rule="evenodd"/><path clip-rule="evenodd" d="m296.465 155.335-5.35-5.116 13.406-13.664 21.802 9.936-3.12 6.676-17.007-7.75z" fill="#febb02" fill-rule="evenodd"/><path clip-rule="evenodd" d="m355.541 147.36-17.164-4.423 1.88-7.114 17.165 4.422z" fill="#f07c00" fill-rule="evenodd"/><path clip-rule="evenodd" d="m421.347 128.002-12.344-2.96 1.759-7.146 12.344 2.961zm-244.955 35.371-4.878-5.556 14.112-12.077 4.878 5.556zm72.982-9.755-6.9-2.767 4.792-11.649 6.9 2.767z" fill="#fff" fill-rule="evenodd"/><g mask="url(#e)"><path clip-rule="evenodd" d="m423.65 69.227-4.531-5.837 18.216-13.792 25.63 2.666-.779 7.312-22.676-2.356z" fill="#febb02" fill-rule="evenodd"/></g><path clip-rule="evenodd" d="m384.104 23.27-3.233-6.624 13.448-6.399.82-11.967 17.723-7.143 2.814 6.808-13.422 5.408-.797 11.66z" fill="#febb02" fill-rule="evenodd"/><g mask="url(#f)"><path clip-rule="evenodd" d="m446.534 137.769-9.891-8.32 4.83-5.6 7.27 6.117 19.912-3.18 1.19 7.257z" fill="#febb02" fill-rule="evenodd"/></g><g mask="url(#g)"><path clip-rule="evenodd" d="m137.466 108.325-20.4-7.129 2.486-6.932 20.4 7.13z" fill="#fff" fill-rule="evenodd"/></g><path clip-rule="evenodd" d="m144.977 48.935-12.018-11.865-18.278 5.977-2.343-6.98 22.64-7.403 15.264 15.072z" fill="#febb02" fill-rule="evenodd"/><path clip-rule="evenodd" d="m30.872 159.213 1.85-7.118 19.93 5.187 21.305-12.836 3.9 6.292-23.994 14.457z" fill="#f07c00" fill-rule="evenodd"/><path clip-rule="evenodd" d="m125.701 137.77-23.31-3.725 1.19-7.258 19.911 3.18 7.27-6.116 4.83 5.598z" fill="#fff" fill-rule="evenodd"/><path clip-rule="evenodd" d="m502.41 90.657 1.863-7.187 14.629 3.964 3.859-12.992 20.904 5.544 5.231-13.542 6.859 2.746-7.6 19.668-20.374-5.403-3.869 13.028z" fill="#fff" fill-rule="evenodd"/><path clip-rule="evenodd" d="m76.78 73.22 25.43 10.074-2.815 6.857-20.932-8.293-11.412 11.128-5.17-5.237z" fill="#febb02" fill-rule="evenodd"/><g mask="url(#h)"><path clip-rule="evenodd" d="m77.8511 116.817-3.3176-6.666 15.1364-7.507 11.5941 6.984 10.628-4.737 3.047 6.795-14.112 6.287-11.4269-6.882z" fill="#f07c00" fill-rule="evenodd"/></g><g mask="url(#i)"><path clip-rule="evenodd" d="m57.0278 41.4278-22.648-5.8173-11.0569 10.7468-5.1663-5.2433 14.086-13.6894 26.7161 6.8629z" fill="#f07c00" fill-rule="evenodd"/></g><path clip-rule="evenodd" d="m503.58 69.765-12.107 8.718-19.659-7.51 2.637-6.964 15.988 6.108 8.896-6.406z" fill="#fff" fill-rule="evenodd"/><path clip-rule="evenodd" d="m462.64 118.298 1.465-7.299 11.848 2.438 4.128-15.118 21.438 2.801-.94 7.385-15.11-1.973-4.257 15.587z" fill="#febb02" fill-rule="evenodd"/><path clip-rule="evenodd" d="m91.437 57.584-12.257 8.505-19.525-7.852 2.759-6.917 15.879 6.387 9.006-6.25z" fill="#fff" fill-rule="evenodd"/><path clip-rule="evenodd" d="m107.838 17.714-3.305 6.67-10.82-5.423-7.901 13.531-19.994-8.257 2.82-6.888 14.092 5.819 8.148-13.951z" fill="#febb02" fill-rule="evenodd"/><path clip-rule="evenodd" d="m500.579 118.467 19.957 12.184 13.716-7.044 3.407 6.525-17.471 8.972-23.543-14.373z" fill="#f07c00" fill-rule="evenodd"/><path clip-rule="evenodd" d="m49.642 133.1-.369-7.396 28.133-1.047.368 7.396z" fill="#febb02" fill-rule="evenodd"/><g mask="url(#j)"><path clip-rule="evenodd" d="m44.16 79.358-3.66 6.46-13.105-7.615-7.09 11.55-18.755-10.765-8.559 11.726-5.914-4.428 12.428996-17.03 18.284004 10.491 7.11-11.582z" fill="#fff" fill-rule="evenodd"/></g><path clip-rule="evenodd" d="m467.363 29.512-29.18 11.201-2.575-6.954 29.18-11.201zm-337.089-20.451-4.642-7.565-8.632-3.771 3.014-6.725 10.774 4.708 5.855 9.543z" fill="#f07c00" fill-rule="evenodd"/><path clip-rule="evenodd" d="m45.31 5.867-23.31-3.724 1.189-7.258 19.911 3.18 7.27-6.116 4.83 5.598z" fill="#fff" fill-rule="evenodd"/><g mask="url(#k)"><path clip-rule="evenodd" d="m532.463 2.95158-22.648-5.8173-11.057 10.74684-5.166-5.24331 14.086-13.68941 26.716 6.86291z" fill="#003580" fill-rule="evenodd"/></g><path clip-rule="evenodd" d="m579.664 153.55-23.728-15.55 6.464-11.327-17.4-9.188 3.512-6.485 24.113 12.734-6.802 11.92 17.96 11.77z" fill="#febb02" fill-rule="evenodd"/><path clip-rule="evenodd" d="m494.354 143.122 8.278 16.938-6.642 3.181-6.564-13.431-15.316-2.468 1.087-7.307z" fill="#fff" fill-rule="evenodd"/><path clip-rule="evenodd" d="m565.161 72.198-1.672-7.247 18.525-4.12 4.705 15.458 15.103-2.222 1.15 7.343-21.428 3.153-4.563-14.993z" fill="#f07c00" fill-rule="evenodd"/></g><g clip-rule="evenodd" fill="#fff" fill-rule="evenodd"><path d="m283.598 77.95c-.658-.405-1.498-.165-1.878.538-.38.702-.154 1.601.503 2.006.658.406 1.499.165 1.878-.538.38-.702.155-1.6-.503-2.006zm12.179 7.556c-.658-.406-1.499-.165-1.878.537-.38.703-.155 1.601.503 2.007.657.406 1.498.165 1.878-.538.38-.702.154-1.6-.503-2.006"/><path d="m298.53 88.916c-1.139 2.12-3.662 2.846-5.635 1.622s-2.649-3.935-1.51-6.054c1.14-2.12 3.662-2.846 5.635-1.622s2.649 3.934 1.51 6.054zm-14.698.751 7.955-14.803 2.381 1.477-7.955 14.804zm-2.851-6.515c-1.973-1.224-2.65-3.935-1.51-6.054 1.139-2.12 3.662-2.846 5.635-1.622s2.648 3.934 1.51 6.053c-1.14 2.12-3.662 2.846-5.635 1.623zm30.019-4.323v-9.874c0-1.632-1.231-2.955-2.75-2.955h-38.5c-1.518 0-2.75 1.323-2.75 2.955v9.874c1.601.61 2.75 2.246 2.75 4.175 0 1.928-1.149 3.564-2.75 4.174v9.867c0 1.632 1.232 2.955 2.75 2.955h38.5c1.519 0 2.75-1.323 2.75-2.955v-9.867c-1.6-.61-2.75-2.246-2.75-4.174 0-1.93 1.15-3.566 2.75-4.175z"/></g></svg>