<svg height="24" viewBox="0 0 24 24" width="24" xmlns="http://www.w3.org/2000/svg"><g fill="none" fill-rule="evenodd"><path d="m0 0h24v24h-24z" fill="#fff"/><g fill="#dfdede" transform="translate(1 4)"><path d="m8.2991555 5.97516548c-.32897351-.20291452-.74927399-.08267665-.93899841.26859419-.18992083.35148068-.07738243.80074643.25159108 1.00345111.3287771.20270467.74907759.08246681.93880201-.26901387.18992083-.35127084.07738243-.80032675-.25139468-1.00303143"/><path d="m14.3882988 9.75279978c-.3287732-.20271099-.7490687-.08246938-.9389872.26881242-.1897222.3512818-.0771851.8005615.251588 1.0032725.3287732.2029209.7490687.0824694.9389873-.2688124.1899185-.3512818.0771851-.80035167-.2515881-1.00327252"/><path d="m15.7649643 11.4577742c-.5694464 1.0598225-1.8309107 1.4230153-2.8175714.8112221-.9864643-.6122152-1.3243215-1.967277-.754875-3.02709946.5696428-1.05961144 1.8309107-1.42280429 2.817375-.81101111.9866607.61200422 1.3245178 1.96727697.7550714 3.02688847zm-7.34917859.375855 3.97748219-7.40166346 1.19075.73862578-3.97748219 7.40166348zm-1.42548214-3.25776178c-.98646428-.61200422-1.32451786-1.96727702-.75507143-3.0270995.56964286-1.05961144 1.83110715-1.42280429 2.81757143-.81101111.98646433.61200422 1.32432143 1.96727702.754875 3.02688846-.56964286 1.05982248-1.83091071 1.42301533-2.817375.81122215zm15.00969643-2.16121904v-4.93739681c0-.81586494-.6156071-1.47725157-1.375-1.47725157h-19.25c-.75919643 0-1.375.66138663-1.375 1.47725157v4.93739681c.80064286.30452486 1.375 1.12271119 1.375 2.08714543 0 .9642232-.57435714 1.78240949-1.375 2.08714539v4.9338092c0 .815865.61580357 1.4772516 1.375 1.4772516h19.25c.7593929 0 1.375-.6613866 1.375-1.4772516v-4.9338092c-.8004464-.3047359-1.375-1.12292219-1.375-2.08714539 0-.96443424.5745536-1.78262057 1.375-2.08714543z"/></g></g></svg>