<?xml version="1.0" encoding="UTF-8"?>
<svg width="20px" height="17px" viewBox="0 0 20 17" version="1.1" xmlns="http://www.w3.org/2000/svg" xmlns:xlink="http://www.w3.org/1999/xlink">
    <!-- Generator: Sketch 47.1 (45422) - http://www.bohemiancoding.com/sketch -->
    <title>car</title>
    <desc>Created with Sketch.</desc>
    <defs></defs>
    <g id="Page-1" stroke="none" stroke-width="1" fill="none" fill-rule="evenodd">
        <g id="Index-cars" transform="translate(-212.000000, -403.000000)">
            <g id="car" transform="translate(210.000000, 400.000000)">
                <rect id="Rectangle-4" x="0" y="0" width="24" height="24"></rect>
                <g transform="translate(2.000000, 3.000000)" id="Shape" fill-rule="nonzero" fill="#BDBDBD">
                    <path d="M4.59526316,14.4594737 L4.59526316,15.2994737 C4.59526316,15.6668421 4.49105263,15.9821053 4.28210526,16.2442105 C4.07315789,16.5063158 3.76,16.6642105 3.39421053,16.7689474 C2.92421053,16.8736842 2.55894737,16.7689474 2.19315789,16.5063158 C1.82736842,16.2436842 1.67105263,15.8763158 1.61894737,15.4036842 L1.61894737,13.4615789 L0,13.4615789 L0,8.00210526 C0,7.52947368 0.156842105,7.10947368 0.417894737,6.69 C0.678947368,6.27052632 1.04473684,6.00736842 1.46210526,5.85 L1.56631579,5.85 C1.67052632,5.85 1.72315789,5.79736842 1.77526316,5.74526316 C1.82736842,5.69315789 1.87947368,5.58789474 1.87947368,5.53526316 C2.14052632,4.85263158 2.34947368,4.22315789 2.61052632,3.54052632 C2.87157895,2.85789474 3.13263158,2.22842105 3.39368421,1.54578947 C3.60263158,1.12578947 3.86368421,0.811052632 4.12473684,0.548421053 C4.43607231,0.286693612 4.81751805,0.122327839 5.22157895,0.0757894737 C5.27368421,0.0757894737 5.37842105,0.0757894737 5.43052632,0.0231578947 C5.48263158,-0.0294736842 5.58736842,0.0231578947 5.63947368,0.0231578947 L14.36,0.0231578947 C14.8821053,0.0231578947 15.3,0.180526316 15.6652632,0.443157895 C16.0305263,0.705789474 16.3442105,1.07315789 16.5005263,1.54578947 L17.2836842,3.59315789 L18.0668421,5.64052632 C18.0668421,5.69315789 18.1189474,5.74526316 18.1710526,5.79789474 C18.2231579,5.85052632 18.2752632,5.85052632 18.3278947,5.85052632 C18.6936842,5.95526316 18.9547368,6.11315789 19.2157895,6.32315789 C19.4768421,6.53315789 19.6336842,6.84789474 19.79,7.16315789 L19.9468421,7.63578947 C19.9994737,7.79368421 19.9989474,7.95052632 19.9989474,8.10842105 L19.9989474,13.4626316 L18.38,13.4626316 L18.38,15.1947368 C18.38,15.4047368 18.3278947,15.6673684 18.2757895,15.8247368 C18.2236842,15.9821053 18.0668421,16.1921053 17.91,16.3494737 C17.7010526,16.6121053 17.44,16.7694737 17.1789474,16.8221053 C16.9178947,16.8747368 16.6568421,16.8221053 16.3957895,16.7173684 C16.1605921,16.6211944 15.9473457,16.4783139 15.7689474,16.2973684 C15.6029278,16.0835711 15.4950463,15.8304575 15.4557895,15.5626316 L15.4557895,13.5152632 L4.59421053,13.5152632 L4.59421053,14.46 L4.59526316,14.4594737 Z M2.19315789,9.84 C2.45421053,10.1026316 2.76736842,10.26 3.18526316,10.26 C3.60315789,10.26 3.91631579,10.1026316 4.17736842,9.84 C4.43842105,9.57736842 4.59526316,9.21 4.59526316,8.79 C4.59526316,8.42263158 4.43842105,8.05526316 4.17736842,7.79263158 C3.91631579,7.53 3.60315789,7.37263158 3.18526316,7.37263158 C2.76736842,7.37263158 2.45421053,7.53 2.19315789,7.79263158 C1.93210526,8.05526316 1.82736842,8.42263158 1.82736842,8.79 C1.77810201,9.17797435 1.91349333,9.56661563 2.19315789,9.84 Z M16.4489474,5.64 L16.4489474,5.58736842 C16.2840181,5.15300389 16.1273233,4.71555715 15.9789474,4.27526316 C15.8140181,3.84089862 15.6573233,3.40345189 15.5089474,2.96315789 L15.3521053,2.49052632 C15.2994737,2.33263158 15.2478947,2.17578947 15.1952632,2.07052632 C15.1431579,1.91315789 15.0384211,1.75578947 14.8821053,1.70315789 C14.7257895,1.65052632 14.5689474,1.59842105 14.4121053,1.59842105 L5.43052632,1.59842105 C5.27368421,1.65105263 5.16947368,1.70315789 5.06473684,1.86105263 C4.96,2.01894737 4.85578947,2.12368421 4.80368421,2.28105263 C4.59473684,2.80578947 4.43789474,3.33105263 4.22947368,3.85578947 C4.02105263,4.38052632 3.86368421,4.90578947 3.65526316,5.43052632 C3.60315789,5.48315789 3.60315789,5.53526316 3.60315789,5.58789474 C3.60315789,5.64052632 3.55105263,5.69263158 3.55105263,5.74526316 L16.5015789,5.74526316 C16.5015789,5.69263158 16.4494737,5.69263158 16.4494737,5.64052632 L16.4489474,5.64 Z M15.8747368,9.84 C16.1357895,10.1026316 16.4489474,10.26 16.8668421,10.26 C17.2326316,10.26 17.5457895,10.1026316 17.8589474,9.84 C18.1721053,9.57736842 18.2768421,9.21 18.2768421,8.84263158 C18.2768421,8.42263158 18.12,8.10789474 17.8589474,7.84526316 C17.5978947,7.58263158 17.2847368,7.42526316 16.8668421,7.42526316 C16.4489474,7.42526316 16.1357895,7.58263158 15.8747368,7.84526316 C15.6136842,8.10789474 15.4568421,8.47526316 15.4568421,8.84263158 C15.4568421,9.21 15.6136842,9.52526316 15.8747368,9.84 L15.8747368,9.84 Z"></path>
                </g>
            </g>
        </g>
    </g>
</svg>