<svg width="325" height="325" viewBox="0 0 325 325" fill="none" xmlns="http://www.w3.org/2000/svg">
<path d="M72.2046 102.126C72.2046 74.7907 94.3644 52.6309 121.7 52.6309C149.035 52.6309 171.195 74.7907 171.195 102.126C171.195 129.462 149.035 151.621 121.7 151.621C94.3644 151.621 72.2046 129.462 72.2046 102.126Z" stroke="#004CB8" stroke-opacity="0.3" stroke-width="1.35971"/>
<path d="M171.45 118.25C171.45 101.663 184.896 88.2168 201.483 88.2168C218.07 88.2168 231.516 101.663 231.516 118.25C231.516 134.837 218.07 148.284 201.483 148.284C184.896 148.284 171.45 134.837 171.45 118.25Z" stroke="#004CB8" stroke-opacity="0.4" stroke-width="1.35971"/>
<path d="M46.1164 238.315C46.1164 191.006 84.4678 152.654 131.777 152.654C179.086 152.654 217.437 191.006 217.437 238.315C217.437 285.624 179.086 323.975 131.777 323.975C84.4678 323.975 46.1164 285.624 46.1164 238.315Z" stroke="#004CB8" stroke-opacity="0.2" stroke-width="1.35971"/>
</svg>
