<svg fill="none" viewBox="0 0 191 191" xmlns="http://www.w3.org/2000/svg"><path d="M116.9 11.9l1.3.3-2 6.8-.6-.1 1.3-7zM94.5 9.2H96l-.3 7h-.5l-.6-7zm-22.3 3.2l1.3-.4 1.6 6.9H75l-.3.1-2.4-6.6zm-20.6 8.8l1.1-.6 3.3 6.2-.2.1-.2.1-4-5.8zm-17.7 14l.9-1 4.8 5.1-.2.2-.2.2L34 35zm-13.6 18L21 52l6 3.7-.1.2-.2.2-6.4-3zM12 74l.4-1.3 6.7 2-.1.6-7-1.3zM9.2 96.4V95l7 .3v.5l-7 .6zm3.2 22.3a86.4 86.4 0 01-.4-1.3l7-1.6v.4l-6.6 2.5zm8.8 20.7a90 90 0 01-.7-1.2l6.3-3.3.1.2.2.2-5.9 4zM35.1 157l-1-1 5.3-4.8.1.2.2.1-4.6 5.5zm18 13.6a82.6 82.6 0 01-1.2-.7l3.8-6h.2l.3.2-3.1 6.5zm21 8.4a90.8 90.8 0 01-1.4-.4l2.1-6.8h.5l-1.3 7.2zm22.3 2.7H95l.2-7.2h.5l.6 7.2zm22.3-3.2l-1.3.4-1.6-7 .2-.1h.3l2.4 6.7zm20.8-8.8l-1.2.6-3.4-6.3.2-.2h.2l4.2 5.9zm17.7-14l-1 1-4.9-5.3.2-.2.2-.1 5.5 4.6zm13.5-18l-.6 1.2-6.2-3.8.2-.3v-.2l6.6 3.1zm8.4-21a79 79 0 01-.3 1.4l-7-2.1.2-.5 7.1 1.3zm2.7-22.3v1.3l-7.2-.2v-.5l7.2-.6zm-3.2-22.3l.4 1.3-7 1.6v-.2l-.2-.3 6.8-2.4zm-8.9-20.7l.7 1.1L164 56l-.1-.2-.2-.2 6-4.1zm-13.9-17.7l1 .9-5.2 4.9-.2-.2-.2-.2 4.6-5.4zm-18-13.5l1.1.6-3.7 6h-.2l-.3-.2 3-6.4z" clip-rule="evenodd" fill="#FEBB02" fill-rule="evenodd"/></svg>
