<svg width="61" height="48" xmlns="http://www.w3.org/2000/svg" xmlns:xlink="http://www.w3.org/1999/xlink"><defs><path d="M3.846 0h53.308c1.337 0 1.822.14 2.311.4.49.262.873.646 1.134 1.135.262.489.401.974.401 2.31v40.31c0 1.336-.14 1.821-.4 2.31a2.726 2.726 0 0 1-1.135 1.134c-.489.262-.974.401-2.31.401H3.844c-1.336 0-1.821-.14-2.31-.4A2.726 2.726 0 0 1 .4 46.464C.139 45.976 0 45.491 0 44.155V3.844c0-1.336.14-1.821.4-2.31A2.726 2.726 0 0 1 1.536.4C2.024.139 2.509 0 3.845 0z" id="a"/><path id="c" d="M.258 84.435h100.554V.073H.258z"/></defs><g fill="none" fill-rule="evenodd"><g><mask id="b" fill="#fff"><use xlink:href="#a"/></mask><use fill="#F07C00" fill-rule="nonzero" xlink:href="#a"/><g mask="url(#b)"><path fill="#F07C00" d="M-19 66.345H81.96v-84.728H-19z"/><path fill="#FFF" d="M62.958 25.04l-3.618-3.717-5.472 2.55-1.052-1.895 7.065-3.292 3.478 3.572 3.797-2.282 1.273 1.778z"/><path fill="#003580" d="M54.76 16.567l-1.944-.778 2.14-5.018 5.585-1.617.602 1.952-4.627 1.34z"/><path fill="#FEBB02" d="M-12.296 44.104l-.46-2.03 3.89-.695 1.66-4.227 9.941-.462.122 2.069-8.376.389-1.583 4.029z"/><path fill="#003580" d="M46.738.878l-1.726-1.43 3.272-4.001-2.068-3.191 2.516-3.883 1.872 1.229-1.72 2.654L51.052-4.4zM57.54 37.858l-5.605-4.834 1.455-1.708 4.281 3.692 2.605-1.855 1.291 1.836z"/><path fill="#FEBB02" d="M8.466 26.52L3.6 22.334l-3.332 3.76-5.271-3.479 1.226-1.88 3.66 2.415 3.505-3.957 6.53 5.616z"/><path fill="#FFF" d="M8.501 15.475l-1.942-2.92-2.632.008-.007-2.25 3.83-.01 2.608 3.92z"/><path fill="#003580" d="M13.57 8.45L11.553 3.97 5.768 5.557 3.871.083l2.11-.741 1.21 3.492 5.612-1.54 2.803 6.228zM-1.182 12.615c-.115-.263-1.033-1.94-1.964-3.607l-5.292.459-.192-2.242 6.725-.583.353.63C.781 11.433.881 11.735.918 11.849l-2.12.71c.004.014.01.033.02.056M27.763 4.339l-2.217-.294L26.207-1 20.18-4.08l1.012-2.007 7.44 3.801z"/><path fill="#FFF" d="M17.337.924L13.98-2.748l-.329-7.5 2.233-.099.293 6.68 2.805 3.068zM6.75 35.54L1.4 33.667l.734-2.125 4.244 1.485 3.774-2.78 1.32 1.817z"/><path fill="#FEBB02" d="M35.745 7.635l-4.14-4.3 1.607-1.565 2.806 2.915 2.98-2.122 1.291 1.836z"/><path fill="#FFF" d="M48.932 8.375L48.367 6.2 52.78 5.04l.438-3.82 2.22.258-.612 5.35zM20.578 7.508l-3.024-2.706 1.485-1.681 3.024 2.705z"/><path fill="#FEBB02" d="M64.624 55.49l-7.122-4.758 1.94-3.466-5.222-2.81 1.054-1.985 7.238 3.896-2.042 3.647 5.39 3.6z"/><path fill="#003580" d="M48.876 51.441l-1.394-2.314-2.59-1.154.904-2.057 3.234 1.44 1.757 2.92zM5.98 49.027l-2.11-.741 1.898-5.474 4.683 1.285 1.836-4.279 2.052.892-2.605 6.071-4.542-1.247zM23.585 52.919L22.1 51.237l3.281-2.935-1.52-5.165 2.143-.64 1.924 6.537z"/><path fill="#FEBB02" d="M33.212 45.922l-1.606-1.565 4.024-4.18 6.543 3.039-.936 2.043-5.105-2.371z"/><path fill="#003580" d="M50.943 43.482l-5.152-1.353.564-2.177 5.152 1.353z"/><path fill="#FFF" d="M-2.827 48.381l-1.464-1.7 4.235-3.695 1.464 1.7zM19.078 45.396l-2.071-.846 1.438-3.564 2.07.847z"/><path fill="#FEBB02" d="M59.516 5.52l-.97-2.028 4.036-1.957.245-3.661 5.32-2.186.845 2.083-4.029 1.655-.239 3.567z"/></g></g><g fill="#FFF"><path d="M28.3 21.421c-.33-.207-.75-.084-.94.275-.19.359-.077.818.252 1.025.329.207.749.084.939-.275.19-.359.077-.818-.252-1.025M34.388 25.28c-.328-.208-.749-.085-.939.274-.19.359-.077.818.252 1.025.329.207.749.084.939-.275.19-.359.077-.817-.252-1.025"/><path d="M35.765 27.02c-.57 1.083-1.83 1.454-2.818.83-.986-.626-1.324-2.01-.754-3.092.57-1.082 1.83-1.453 2.817-.829.987.625 1.324 2.01.755 3.092zm-7.35.385l3.978-7.56 1.191.755-3.977 7.559-1.191-.754zm-1.425-3.328c-.986-.625-1.324-2.009-.755-3.091.57-1.082 1.831-1.453 2.818-.828.986.625 1.324 2.009.755 3.091-.57 1.082-1.831 1.453-2.818.828zM42 21.87v-5.042c0-.833-.616-1.509-1.375-1.509h-19.25c-.76 0-1.375.676-1.375 1.509v5.042c.8.311 1.375 1.147 1.375 2.132 0 .985-.574 1.82-1.375 2.131v5.04c0 .832.616 1.508 1.375 1.508h19.25c.76 0 1.375-.676 1.375-1.509v-5.039c-.8-.31-1.375-1.146-1.375-2.131 0-.985.575-1.82 1.375-2.132z"/></g></g></svg>