<svg width="325" height="325" viewBox="0 0 325 325" fill="none" xmlns="http://www.w3.org/2000/svg">
<path fill-rule="evenodd" clip-rule="evenodd" d="M162.431 226.563C197.777 226.563 226.431 197.909 226.431 162.563C226.431 127.217 197.777 98.563 162.431 98.563C127.085 98.563 98.431 127.217 98.431 162.563C98.431 197.909 127.085 226.563 162.431 226.563Z" stroke="#FEBB02" stroke-width="4"/>
<path fill-rule="evenodd" clip-rule="evenodd" d="M180.306 91.2984C180.592 91.3739 180.876 91.4522 181.158 91.5333L179.323 97.4443L178.994 97.3635L180.306 91.2984V91.2984ZM161.254 89.02C161.561 88.9975 161.867 88.9778 162.174 88.961L161.555 95.047L161.377 95.0619L161.201 95.079L161.254 89.02V89.02ZM142.223 91.7485C142.552 91.6262 142.882 91.5067 143.212 91.39L143.947 97.3147L143.757 97.3892L143.568 97.4616L142.223 91.7485L142.223 91.7485ZM124.485 99.3467C124.799 99.1316 125.115 98.9189 125.431 98.7086L127.598 104.044L127.417 104.172L127.237 104.299L124.485 99.3467V99.3467ZM109.256 111.263C109.528 110.966 109.803 110.672 110.079 110.379L113.595 114.778L113.438 114.95L113.284 115.125L109.256 111.263L109.256 111.263ZM97.5698 126.702C97.7787 126.337 97.9899 125.973 98.2031 125.611L102.885 128.776L102.768 128.988L102.65 129.202L97.5698 126.702L97.5698 126.702ZM90.2584 144.67C90.3848 144.244 90.5138 143.818 90.6454 143.394L96.1994 145.078L96.0601 145.571L90.2584 144.67V144.67ZM87.9003 163.858C87.9318 163.43 87.9662 163 88.0036 162.57L93.9473 162.448L93.9331 162.696L93.9193 162.942L87.9003 163.858V163.858ZM90.5792 182.955C90.5134 182.568 90.4504 182.18 90.3902 181.791L96.2261 179.981L96.2679 180.202L96.3079 180.424L90.5792 182.955V182.955ZM98.1201 200.659C97.9665 200.328 97.8154 199.994 97.6667 199.659L102.972 196.367L103.064 196.556L103.155 196.743L98.1201 200.659V200.659ZM109.972 215.792C109.746 215.532 109.523 215.27 109.301 215.005L113.73 210.472L113.862 210.62L113.993 210.765L109.972 215.792V215.792ZM125.329 227.332C125.053 227.158 124.779 226.982 124.506 226.803L127.765 221.335L127.925 221.433L128.084 221.528L125.329 227.332V227.332ZM143.135 234.452C142.847 234.375 142.561 234.296 142.276 234.213L144.136 228.217L144.466 228.298L143.135 234.452V234.452ZM162.21 236.759C161.9 236.781 161.59 236.801 161.279 236.817L161.91 230.614L162.088 230.6L162.264 230.582L162.21 236.759L162.21 236.759ZM181.275 234.042C180.941 234.166 180.607 234.287 180.272 234.405L179.521 228.348L179.709 228.273L179.9 228.201L181.275 234.042V234.042ZM199.051 226.435C198.732 226.654 198.412 226.869 198.09 227.083L195.871 221.617L196.052 221.489L196.232 221.363L199.051 226.435V226.435ZM214.31 214.493C214.033 214.795 213.754 215.094 213.474 215.391L209.873 210.886L210.029 210.711L210.184 210.537L214.31 214.493V214.493ZM226.011 199.016C225.799 199.387 225.585 199.756 225.37 200.124L220.579 196.884L220.696 196.672L220.816 196.46L226.011 199.016V199.016ZM233.316 181.01C233.189 181.442 233.059 181.873 232.926 182.303L227.262 180.585L227.401 180.091L233.316 181.01ZM235.65 161.793C235.619 162.225 235.585 162.659 235.548 163.093L229.511 163.216L229.527 162.971L229.541 162.722L235.65 161.793V161.793ZM232.935 142.685C233.001 143.074 233.065 143.464 233.127 143.856L227.234 145.683L227.192 145.461L227.152 145.24L232.935 142.685L232.935 142.685ZM225.356 124.99C225.51 125.322 225.662 125.656 225.812 125.991L220.487 129.295L220.395 129.108L220.305 128.918L225.356 124.99V124.99ZM213.476 109.883C213.702 110.143 213.925 110.404 214.147 110.668L209.731 115.189L209.599 115.041L209.466 114.896L213.476 109.883L213.476 109.883ZM198.106 98.3808C198.381 98.5532 198.654 98.7282 198.925 98.9057L195.694 104.325L195.535 104.23L195.375 104.132L198.106 98.3808Z" fill="#FEBB02"/>
<mask id="mask0" mask-type="alpha" maskUnits="userSpaceOnUse" x="87" y="88" width="149" height="149">
<path fill-rule="evenodd" clip-rule="evenodd" d="M180.306 91.2984C180.592 91.3739 180.876 91.4522 181.158 91.5333L179.323 97.4443L178.994 97.3635L180.306 91.2984V91.2984ZM161.254 89.02C161.561 88.9975 161.867 88.9778 162.174 88.961L161.555 95.047L161.377 95.0619L161.201 95.079L161.254 89.02V89.02ZM142.223 91.7485C142.552 91.6262 142.882 91.5067 143.212 91.39L143.947 97.3147L143.757 97.3892L143.568 97.4616L142.223 91.7485L142.223 91.7485ZM124.485 99.3467C124.799 99.1316 125.115 98.9189 125.431 98.7086L127.598 104.044L127.417 104.172L127.237 104.299L124.485 99.3467V99.3467ZM109.256 111.263C109.528 110.966 109.803 110.672 110.079 110.379L113.595 114.778L113.438 114.95L113.284 115.125L109.256 111.263L109.256 111.263ZM97.5698 126.702C97.7787 126.337 97.9899 125.973 98.2031 125.611L102.885 128.776L102.768 128.988L102.65 129.202L97.5698 126.702L97.5698 126.702ZM90.2584 144.67C90.3848 144.244 90.5138 143.818 90.6454 143.394L96.1994 145.078L96.0601 145.571L90.2584 144.67V144.67ZM87.9003 163.858C87.9318 163.43 87.9662 163 88.0036 162.57L93.9473 162.448L93.9331 162.696L93.9193 162.942L87.9003 163.858V163.858ZM90.5792 182.955C90.5134 182.568 90.4504 182.18 90.3902 181.791L96.2261 179.981L96.2679 180.202L96.3079 180.424L90.5792 182.955V182.955ZM98.1201 200.659C97.9665 200.328 97.8154 199.994 97.6667 199.659L102.972 196.367L103.064 196.556L103.155 196.743L98.1201 200.659V200.659ZM109.972 215.792C109.746 215.532 109.523 215.27 109.301 215.005L113.73 210.472L113.862 210.62L113.993 210.765L109.972 215.792V215.792ZM125.329 227.332C125.053 227.158 124.779 226.982 124.506 226.803L127.765 221.335L127.925 221.433L128.084 221.528L125.329 227.332V227.332ZM143.135 234.452C142.847 234.375 142.561 234.296 142.276 234.213L144.136 228.217L144.466 228.298L143.135 234.452V234.452ZM162.21 236.759C161.9 236.781 161.59 236.801 161.279 236.817L161.91 230.614L162.088 230.6L162.264 230.582L162.21 236.759L162.21 236.759ZM181.275 234.042C180.941 234.166 180.607 234.287 180.272 234.405L179.521 228.348L179.709 228.273L179.9 228.201L181.275 234.042V234.042ZM199.051 226.435C198.732 226.654 198.412 226.869 198.09 227.083L195.871 221.617L196.052 221.489L196.232 221.363L199.051 226.435V226.435ZM214.31 214.493C214.033 214.795 213.754 215.094 213.474 215.391L209.873 210.886L210.029 210.711L210.184 210.537L214.31 214.493V214.493ZM226.011 199.016C225.799 199.387 225.585 199.756 225.37 200.124L220.579 196.884L220.696 196.672L220.816 196.46L226.011 199.016V199.016ZM233.316 181.01C233.189 181.442 233.059 181.873 232.926 182.303L227.262 180.585L227.401 180.091L233.316 181.01ZM235.65 161.793C235.619 162.225 235.585 162.659 235.548 163.093L229.511 163.216L229.527 162.971L229.541 162.722L235.65 161.793V161.793ZM232.935 142.685C233.001 143.074 233.065 143.464 233.127 143.856L227.234 145.683L227.192 145.461L227.152 145.24L232.935 142.685L232.935 142.685ZM225.356 124.99C225.51 125.322 225.662 125.656 225.812 125.991L220.487 129.295L220.395 129.108L220.305 128.918L225.356 124.99V124.99ZM213.476 109.883C213.702 110.143 213.925 110.404 214.147 110.668L209.731 115.189L209.599 115.041L209.466 114.896L213.476 109.883L213.476 109.883ZM198.106 98.3808C198.381 98.5532 198.654 98.7282 198.925 98.9057L195.694 104.325L195.535 104.23L195.375 104.132L198.106 98.3808Z" fill="white"/>
</mask>
<g mask="url(#mask0)">
</g>
</svg>
