<svg height="25" viewBox="0 0 61 25" width="61" xmlns="http://www.w3.org/2000/svg"><g fill="none" fill-rule="evenodd"><rect fill="#c1c3c4" fill-rule="nonzero" height="24" rx="4" width="59.9077" x=".540283" y=".822632"/><g fill="#fff"><path d="m52.7281 16.5714c0 .2515-.1211.4516-.3659.6004-.2434.1473-.5649.2217-.9616.2217-.4775 0-.8864-.1136-1.2267-.3421s-.5783-.5192-.7155-.8734c-.0673-.1704-.187-.2164-.3578-.1366l-1.2939.5814c-.1816.0811-.2327.2055-.1533.3772.2609.6396.7128 1.1669 1.3544 1.5834.6416.4164 1.4553.6247 2.4439.6247.9536 0 1.7592-.2448 2.4183-.7356.6577-.4908.9872-1.1588.9872-2.0025 0-1.3927-.9764-2.2553-2.9294-2.5852-.7155-.1258-1.228-.2664-1.5414-.4192-.312-.1541-.468-.3516-.468-.5909 0-.2055.1224-.3691.3658-.4881.2448-.1203.5716-.1798.9792-.1798.659 0 1.232.2569 1.7202.7707.1359.1365.2731.1541.4089.0514l.92-.8559c.1587-.1258.1762-.2637.0511-.4111-.7155-.8789-1.766-1.3183-3.1513-1.3183-.9873 0-1.7768.2258-2.3659.6761-.5904.4502-.8864 1.0587-.8864 1.8226 0 .6396.2354 1.1737.7075 1.6009.4708.4287 1.1097.7167 1.9153.8654.7949.1474 1.3504.3069 1.6692.4786.3174.1718.4761.3989.4761.6842z" fill-rule="nonzero"/><path d="m39.2173 15.9601c0 1.0262.2784 1.8348.8339 2.4216.5568.5882 1.3114.8816 2.265.8816.3631 0 .6953-.0487.9966-.1447.3013-.0973.534-.2028.6981-.3177.1641-.1136.3604-.2732.5877-.4787l.2045.4962c.0672.1596.1991.2394.3914.2394h1.3961c.1816 0 .273-.0906.273-.2732v-7.7895c0-.1826-.0914-.2745-.273-.2745h-1.7203c-.1815 0-.2717.0919-.2717.2745v5.307c-.4317.6274-.9993.9411-1.7027.9411-.4425 0-.7869-.142-1.0303-.4273-.2448-.2852-.3658-.6625-.3658-1.1303v-4.6905c0-.1826-.0969-.2745-.2906-.2745h-1.7027c-.1924 0-.2892.0919-.2892.2745z" fill-rule="nonzero"/><path d="m35.4609 8.03804c0 .44463.1596.8273.4802 1.14799.3207.31914.7033.48026 1.1479.48026s.8272-.16112 1.1479-.48026c.3191-.32069.4802-.70336.4802-1.14799s-.1611-.82729-.4802-1.14799c-.3207-.32069-.7033-.48026-1.1479-.48026s-.8272.15957-1.1479.48026c-.3206.3207-.4802.70336-.4802 1.14799z" fill-rule="nonzero"/><path d="m35.9536 18.7148c0 .1826.0955.2731.2892.2731h1.7028c.1936 0 .2891-.0905.2891-.2731v-7.7896c0-.1825-.0955-.2744-.2891-.2744h-1.7028c-.1937 0-.2892.0919-.2892.2744z" fill-rule="nonzero"/><path d="m35.0482 13.4223c0-.9478-.2582-1.6807-.7747-2.1999s-1.2522-.7788-2.2058-.7788c-.8622 0-1.6571.3191-2.3834.9587l-.2219-.48c-.0565-.1704-.1816-.2569-.3739-.2569h-1.3975c-.1923 0-.2891.0919-.2891.2744v7.7896c0 .1825.0968.2731.2891.2731h1.7028c.1937 0 .2905-.0906.2905-.2731v-5.3246c.1695-.2286.4143-.4395.7317-.6328.3174-.1947.6362-.2921.9536-.2921.9429 0 1.4136.5138 1.4136 1.5414v4.7081c0 .1825.0915.2731.2731.2731h1.7189c.1815 0 .273-.0906.273-.2731z" fill-rule="nonzero"/><path d="m26.6589 15.1679c0 .1826-.0901.2745-.2716.2745h-5.8589c.1251.5246.3726.9465.7411 1.2669.3685.3191.838.4787 1.4055.4787.7721 0 1.3612-.3191 1.7701-.9587.0686-.1027.1762-.119.3241-.0513l1.4647.6165c.1695.0568.2098.1596.1184.3083-.8285 1.4035-2.0538 2.1053-3.6773 2.1053-1.2266 0-2.2676-.4111-3.1257-1.2318-.8568-.8221-1.2859-1.8727-1.2859-3.1505 0-1.2777.4264-2.3283 1.2778-3.1504.8514-.8208 1.8561-1.2318 3.0141-1.2318 1.2832 0 2.2879.3962 3.0142 1.1899.7263.7923 1.0894 1.7888 1.0894 2.9868zm-2.8259-2.3878c-.3645-.2677-.7895-.4016-1.2777-.4016-.499 0-.9173.1271-1.2522.384s-.5757.5909-.7236 1.0019h3.9166c-.0793-.388-.2999-.7166-.6631-.9843z"/><path d="m17.5173 17.2439c0 .1628-.0705.3147-.198.4206-1.1911.9524-2.743 1.5276-4.4332 1.5276-3.75771 0-6.80724-2.8491-6.80724-6.3575 0-3.51114 3.04953-6.45252 6.80724-6.45252 1.6875 0 3.234.57524 4.4223 1.52764.057.04613.0923.11125.0977.1818.0081.07326-.0136.14381-.0597.20079-.3039.36631-.936 1.12878-1.248 1.50323-.0461.05698-.114.09225-.1872.09768-.0733.00543-.1438-.01899-.1981-.06512-.7488-.63494-1.7391-1.02024-2.827-1.02024-2.3252 0-4.2108 1.85604-4.2108 4.02674s1.8856 3.9344 4.2108 3.9344c.9034 0 1.7391-.2659 2.4255-.719v-1.7583s-1.3891 0-1.9915 0c-.0705 0-.141-.0271-.1926-.0787-.0488-.0515-.0787-.1194-.0787-.1926 0-.4315 0-1.2726 0-1.7041 0-.0732.0299-.1411.0787-.1926.0516-.0489.1221-.0787.1926-.0787h3.9259c.1492 0 .2713.1221.2713.2713z"/></g></g></svg>