<?xml version="1.0" encoding="utf-8"?>
<!-- Generator: Adobe Illustrator 19.0.0, SVG Export Plug-In . SVG Version: 6.00 Build 0)  -->
<svg version="1.1" id="Layer_1" xmlns="http://www.w3.org/2000/svg" xmlns:xlink="http://www.w3.org/1999/xlink" x="0px" y="0px"
	 viewBox="0 0 42.8 50" style="enable-background:new 0 0 42.8 50;" xml:space="preserve">
<style type="text/css">
	.st0{clip-path:url(#XMLID_42_);}
	.st1{clip-path:url(#XMLID_43_);enable-background:new    ;}
	.st2{clip-path:url(#XMLID_44_);}
	.st3{clip-path:url(#XMLID_45_);}
	.st4{clip-path:url(#XMLID_46_);fill:#259BD7;}
	.st5{clip-path:url(#XMLID_47_);}
	.st6{clip-path:url(#XMLID_48_);fill:#1E3D74;}
	.st7{clip-path:url(#XMLID_49_);}
	.st8{clip-path:url(#XMLID_50_);fill:#F47821;}
	.st9{clip-path:url(#XMLID_51_);}
	.st10{clip-path:url(#XMLID_52_);fill:#FFFFFF;}
</style>
<g id="XMLID_27_">
	<defs>
		<polyline id="XMLID_28_" points="2,1.6 41,1.6 41,48.7 2,48.7 		"/>
	</defs>
	<clipPath id="XMLID_42_">
		<use xlink:href="#XMLID_28_"  style="overflow:visible;"/>
	</clipPath>
	<g id="XMLID_29_" class="st0">
		<defs>
			<rect id="XMLID_30_" x="-256.1" y="-138.4" width="323.2" height="361.6"/>
		</defs>
		<clipPath id="XMLID_43_">
			<use xlink:href="#XMLID_30_"  style="overflow:visible;"/>
		</clipPath>
		<g id="XMLID_31_" class="st1">
			<g id="XMLID_32_">
				<defs>
					<rect id="XMLID_33_" x="2" y="1.6" width="39.2" height="47.1"/>
				</defs>
				<clipPath id="XMLID_44_">
					<use xlink:href="#XMLID_33_"  style="overflow:visible;"/>
				</clipPath>
				<g id="XMLID_34_" class="st2">
					<defs>
						<path id="XMLID_35_" d="M21.5,1.6C10.7,1.6,2,10.4,2,21.1c0,1.3,0.1,2.6,0.4,3.8c0.7,3.7,2.5,7.1,5,9.7L8,35.2l13.5,13.5
							L35.1,35l0.3-0.3c2.6-2.6,4.4-6,5.2-9.7c0.3-1.3,0.4-2.6,0.4-3.9C41,10.4,32.3,1.6,21.5,1.6"/>
					</defs>
					<clipPath id="XMLID_45_">
						<use xlink:href="#XMLID_35_"  style="overflow:visible;"/>
					</clipPath>
					<g id="XMLID_36_" class="st3">
						<defs>
							<rect id="XMLID_37_" x="2" y="1.6" width="39.2" height="47.1"/>
						</defs>
						<clipPath id="XMLID_46_">
							<use xlink:href="#XMLID_37_"  style="overflow:visible;"/>
						</clipPath>
						<rect id="XMLID_38_" x="-1.9" y="-2.3" class="st4" width="46.8" height="54.9"/>
					</g>
				</g>
			</g>
		</g>
	</g>
</g>
<g id="XMLID_22_">
	<defs>
		<circle id="XMLID_23_" cx="21.5" cy="21.1" r="16"/>
	</defs>
	<clipPath id="XMLID_47_">
		<use xlink:href="#XMLID_23_"  style="overflow:visible;"/>
	</clipPath>
	<g id="XMLID_24_" class="st5">
		<defs>
			<rect id="XMLID_25_" x="-256.1" y="-138.4" width="323.2" height="361.6"/>
		</defs>
		<clipPath id="XMLID_48_">
			<use xlink:href="#XMLID_25_"  style="overflow:visible;"/>
		</clipPath>
		<rect id="XMLID_26_" x="1.6" y="1.1" class="st6" width="39.9" height="39.9"/>
	</g>
</g>
<g id="XMLID_17_">
	<defs>
		<polygon id="XMLID_18_" points="30.1,13.3 24.6,24.1 19.4,18.8 		"/>
	</defs>
	<clipPath id="XMLID_49_">
		<use xlink:href="#XMLID_18_"  style="overflow:visible;"/>
	</clipPath>
	<g id="XMLID_19_" class="st7">
		<defs>
			<rect id="XMLID_20_" x="-256.1" y="-138.4" width="323.2" height="361.6"/>
		</defs>
		<clipPath id="XMLID_50_">
			<use xlink:href="#XMLID_20_"  style="overflow:visible;"/>
		</clipPath>
		
			<rect id="XMLID_21_" x="18.4" y="7.7" transform="matrix(-0.7071 -0.7071 0.7071 -0.7071 32.1958 48.0864)" class="st8" width="15.3" height="19.3"/>
	</g>
</g>
<g id="XMLID_12_">
	<defs>
		<polygon id="XMLID_13_" points="13.9,29.5 19.4,18.8 24.6,24.1 		"/>
	</defs>
	<clipPath id="XMLID_51_">
		<use xlink:href="#XMLID_13_"  style="overflow:visible;"/>
	</clipPath>
	<g id="XMLID_14_" class="st9">
		<defs>
			<rect id="XMLID_15_" x="-256.1" y="-138.4" width="323.2" height="361.6"/>
		</defs>
		<clipPath id="XMLID_52_">
			<use xlink:href="#XMLID_15_"  style="overflow:visible;"/>
		</clipPath>
		
			<rect id="XMLID_16_" x="10.3" y="15.8" transform="matrix(-0.7071 -0.7071 0.7071 -0.7071 12.6219 56.1941)" class="st10" width="15.3" height="19.3"/>
	</g>
</g>
</svg>
