<svg width="18" height="18" viewBox="0 0 18 18" xmlns="http://www.w3.org/2000/svg">
    <title>
        Group 4 Copy 5
    </title>
    <g fill="none" fill-rule="evenodd">
        <path d="M-3-3h24v24H-3z"/>
        <g fill="#BDBDBD" fill-rule="nonzero">
            <path d="M5.613 9.96h-2.73c-.13 0-.255.053-.347.145-.091.092-.143.217-.143.347v1.476c0 .272.22.492.49.492h2.73c.13 0 .255-.052.347-.145.091-.092.143-.217.143-.347v-1.476c0-.13-.051-.255-.143-.347-.092-.093-.217-.145-.347-.145zM10.313 13.38h-2.73c-.13 0-.254.051-.346.144-.092.092-.144.217-.143.347v1.476c0 .272.22.492.49.492h2.729c.13 0 .255-.052.347-.145.092-.092.143-.217.143-.347V13.87c0-.13-.051-.255-.143-.347-.092-.093-.217-.145-.347-.145zM5.613 6.54h-2.73c-.13.001-.255.053-.347.145-.091.093-.143.218-.143.348v1.475c0 .273.22.493.49.493h2.73c.13 0 .255-.053.347-.145.091-.092.143-.217.143-.348V7.033c0-.13-.051-.255-.143-.348-.092-.092-.217-.144-.347-.144zM12.73 3.695h.105c.428-.001.774-.349.774-.777V.777c0-.428-.346-.776-.774-.777h-.105c-.206 0-.403.082-.549.228-.145.145-.227.343-.227.549v2.141c0 .429.348.776.776.777zM5.613 13.38h-2.73c-.13 0-.255.051-.347.144-.091.092-.143.217-.143.347v1.476c0 .272.22.492.49.492h2.73c.13 0 .255-.052.347-.145.091-.092.143-.217.143-.347V13.87c0-.13-.051-.255-.143-.347-.092-.093-.217-.145-.347-.145zM5.168 3.695h.104c.428-.001.774-.349.774-.777V.777C6.046.349 5.7 0 5.272 0h-.104c-.206 0-.404.082-.549.228-.146.145-.227.343-.227.549v2.141c0 .428.348.777.776.777zM15.013 9.96h-2.73c-.13 0-.255.053-.347.145-.092.092-.143.217-.143.347v1.476c0 .272.22.492.49.492h2.73c.13 0 .255-.052.346-.145.092-.092.144-.217.143-.347v-1.476c.001-.13-.05-.255-.142-.348-.092-.092-.217-.144-.347-.144z"/>
            <path d="M16.24 2.114h-1.767v.804c.002.906-.731 1.643-1.638 1.645h-.105c-.906-.002-1.64-.738-1.64-1.645v-.804H6.91v.804c0 .906-.733 1.642-1.639 1.645h-.103c-.907-.002-1.64-.738-1.64-1.645v-.804H1.76c-.46.001-.9.185-1.224.51-.324.326-.506.767-.504 1.227v12.411c-.002.46.18.901.504 1.227.324.326.765.51 1.224.511H16.24c.46-.001.9-.185 1.225-.51.324-.327.505-.768.504-1.228V3.851c.002-.957-.772-1.734-1.729-1.737zm.549 13.44c.001.703-.566 1.274-1.27 1.277H2.48c-.337-.001-.66-.136-.898-.375-.238-.24-.372-.564-.37-.901v-9.92h15.577v9.92z"/>
            <path d="M15.013 6.54h-2.73c-.13.001-.255.053-.347.145-.092.093-.143.218-.143.348v1.475c0 .273.22.493.49.493h2.73c.13 0 .255-.053.346-.145.092-.092.144-.217.143-.348V7.033c.001-.13-.05-.256-.142-.348-.092-.092-.217-.144-.347-.144zM12.283 15.839h2.73c.13 0 .255-.052.346-.145.092-.092.144-.217.143-.347V13.87c0-.13-.05-.255-.143-.347-.091-.093-.216-.145-.346-.145h-2.73c-.13 0-.255.052-.347.145-.092.092-.143.217-.143.347v1.476c0 .271.22.492.49.492zM10.313 9.96h-2.73c-.13 0-.254.053-.346.145-.092.092-.144.217-.143.347v1.476c0 .272.22.492.49.492h2.729c.13 0 .255-.052.347-.145.092-.092.143-.217.143-.347v-1.476c0-.13-.051-.255-.143-.347-.092-.092-.217-.145-.347-.145zM10.313 6.54h-2.73c-.13.001-.254.053-.346.145-.092.093-.144.218-.143.348v1.475c0 .273.22.493.49.493h2.729c.13 0 .255-.053.347-.145.092-.092.143-.217.143-.348V7.033c0-.13-.051-.255-.143-.348-.092-.092-.217-.144-.347-.144z"/>
        </g>
    </g>
</svg>
