<svg width="18" height="18" viewBox="0 0 18 18" xmlns="http://www.w3.org/2000/svg">
    <g fill="none" fill-rule="evenodd">
        <path d="M-3-3h24v24H-3z"/>
        <path d="M4.34 2.732V.804C4.34.36 4.7 0 5.142 0c.444 0 .803.36.803.804v1.928c0 .444-.36.804-.803.804-.444 0-.804-.36-.804-.804zM18 2.572v14.142c0 .71-.576 1.286-1.286 1.286H1.286C.576 18 0 17.424 0 16.714V2.571c0-.71.576-1.285 1.286-1.285H3.5v1.41c-.018.6.29 1.161.806 1.466.516.305 1.156.305 1.672 0s.824-.866.806-1.465V1.286h4.43v1.41c-.018.6.29 1.161.806 1.466.516.305 1.157.305 1.672 0 .516-.305.825-.866.806-1.465V1.286h2.216c.71 0 1.286.575 1.286 1.285zm-1.286 2.57H1.286v10.93c0 .354.288.642.643.642H16.07c.355 0 .643-.288.643-.643V5.143zm-3.857-1.606c.444 0 .804-.36.804-.804V.804C13.66.36 13.3 0 12.857 0c-.444 0-.803.36-.803.804v1.928c0 .444.36.804.803.804zM3.214 8.679h2.25c.355 0 .643-.288.643-.643V7.07c0-.355-.288-.642-.643-.642h-2.25c-.355 0-.643.287-.643.642v.965c0 .355.288.643.643.643zm0 3.375h2.25c.355 0 .643-.288.643-.643v-.965c0-.355-.288-.642-.643-.642h-2.25c-.355 0-.643.287-.643.642v.965c0 .355.288.643.643.643zm0 3.375h2.25c.355 0 .643-.288.643-.643v-.965c0-.355-.288-.642-.643-.642h-2.25c-.355 0-.643.287-.643.642v.965c0 .355.288.643.643.643zm4.661-6.75h2.25c.355 0 .643-.288.643-.643V7.07c0-.355-.288-.642-.643-.642h-2.25c-.355 0-.643.287-.643.642v.965c0 .355.288.643.643.643zm0 3.375h2.25c.355 0 .643-.288.643-.643v-.965c0-.355-.288-.642-.643-.642h-2.25c-.355 0-.643.287-.643.642v.965c0 .355.288.643.643.643zm0 3.375h2.25c.355 0 .643-.288.643-.643v-.965c0-.355-.288-.642-.643-.642h-2.25c-.355 0-.643.287-.643.642v.965c0 .355.288.643.643.643zm4.66-6.75h2.25c.356 0 .644-.288.644-.643V7.07c0-.355-.288-.642-.643-.642h-2.25c-.355 0-.643.287-.643.642v.965c0 .355.288.643.643.643zm0 3.375h2.25c.356 0 .644-.288.644-.643v-.965c0-.355-.288-.642-.643-.642h-2.25c-.355 0-.643.287-.643.642v.965c0 .355.288.643.643.643zm-.642 2.732v-.965c0-.355.288-.642.643-.642h2.25c.355 0 .643.287.643.642v.965c0 .355-.288.643-.643.643h-2.25c-.355 0-.643-.288-.643-.643zm.643 0h2.25v-.965h-2.25v.965z" fill="#BDBDBD" fill-rule="nonzero"/>
    </g>
</svg>
