<svg width="157" height="154" fill="none" xmlns="http://www.w3.org/2000/svg"><g clip-path="url(#clip0)"><path d="M0 0h157v154H0z"/><mask id="a" mask-type="alpha" maskUnits="userSpaceOnUse" x="0" y="0" width="157" height="140"><path d="M0 0h157v139.2H0V0z" fill="#07C"/></mask><g mask="url(#a)" stroke="#003580" stroke-width=".8"><path d="M137.6 26a31.6 31.6 0 11-63.2 0 31.6 31.6 0 0163.2 0zM146 114.7a9.6 9.6 0 11-19.2 0 9.6 9.6 0 0119.2 0zM69.6 82c0 27.4-22 49.6-49.1 49.6A49.4 49.4 0 01-28.6 82c0-27.4 22-49.6 49.1-49.6A49.4 49.4 0 0169.6 82z"/></g></g><defs><clipPath id="clip0"><path d="M0 0h157v154H0z"/></clipPath></defs></svg>
