<?xml version="1.0" encoding="utf-8"?>
<!-- Generator: Adobe Illustrator 22.1.0, SVG Export Plug-In . SVG Version: 6.00 Build 0)  -->
<svg version="1.1" id="Layer_1" xmlns="http://www.w3.org/2000/svg" xmlns:xlink="http://www.w3.org/1999/xlink" x="0px" y="0px"
	 viewBox="0 0 15.9 15.8" style="enable-background:new 0 0 15.9 15.8;" xml:space="preserve">
<style type="text/css">
	.st0{fill:#343567;}
</style>
<g>
	<path class="st0" d="M7.9,15.4c-4.1,0-7.5-3.4-7.5-7.5s3.4-7.5,7.5-7.5c4.1,0,7.5,3.4,7.5,7.5S12,15.4,7.9,15.4 M7.9,1.8
		c-3.3,0-6,2.7-6,6c0,3.3,2.7,6,6,6c3.3,0,6-2.7,6-6C13.9,4.5,11.2,1.8,7.9,1.8"/>
	<path class="st0" d="M7.7,11l1.3-4.5L7.4,6.5L6.2,7.4v0.3l0.4-0.1c0.3,0,0.4-0.1,0.5-0.1c0,0,0,0,0,0C7.1,7.7,7,8,6.9,8.3l-0.8,2.6
		C6.1,11.3,6,11.5,6,11.7c0,0.2,0.1,0.4,0.2,0.6c0.2,0.1,0.4,0.2,0.6,0.2h0c0.3,0,0.6-0.1,0.9-0.4c0.4-0.3,0.7-0.7,1-1.1l0.2-0.3
		c0,0-1.4,0.7-1.3,0.3C7.7,11.1,7.7,11,7.7,11 M8.4,3.6c-0.6,0-1,0.5-1,1s0.5,1,1,1c0.6,0,1-0.5,1-1S9,3.6,8.4,3.6"/>
</g>
</svg>
